<?xml version="1.0" encoding="UTF-8"?><svg xmlns="http://www.w3.org/2000/svg" viewBox="0 0 206.98 218.3"><defs><style>.cp{fill:#fff;}.cq{opacity:.99;}.cq,.cr{fill:#100c08;}.cs{fill:#3cb4e5;}.ct{fill:none;stroke:#100c08;stroke-linecap:round;stroke-linejoin:round;stroke-width:1.06px;}</style></defs><g id="a"/><g id="b"><g id="c"><path id="d" class="cr" d="M92.13,0c-.39,0-.78,.07-1.16,.22-.82,.32-1.46,.96-1.79,1.78l-15.17,38.16c-.17,.43-.24,.89-.22,1.35l2.47,44.85-9.14-5.05c-.47-.26-1-.4-1.53-.4-.28,0-.56,.04-.83,.11l-11.4,3.11c-.89,.24-1.62,.86-2.02,1.68l-8.41,17.48c-.34,.71-.41,1.52-.18,2.28l8.53,28.71-21.03-22.62c-.36-.39-.81-.68-1.31-.84l-14.96-5.06c-.33-.11-.67-.17-1.01-.17-.44,0-.88,.09-1.29,.27l-9.79,4.37c-1.53,.68-2.26,2.43-1.68,4l6.05,16.28c.19,.52,.52,.98,.95,1.34l15.98,13.22-11.95-.45s-.08,0-.12,0c-.96,0-1.87,.43-2.47,1.19-.63,.78-.85,1.82-.59,2.79l4.77,18.17c.22,.85,.79,1.57,1.57,1.99l54.27,29.04c.18,.1,.38,.18,.58,.24l5.84,1.77,1.78,.54,6,8.45c.41,.58,1,1,1.67,1.2l8.33,2.49c.29,.09,.6,.13,.91,.13,.03,0,.07,0,.1,0l1.94-.06,.3,1.38c.26,1.2,1.19,2.14,2.38,2.42l8.04,1.86c.24,.05,.48,.08,.71,.08,.86,0,1.7-.35,2.31-1l4.74-5.03c.19-.2,.35-.42,.48-.66l1.77-3.26,9.5-7.45,4.24-3.34,7.2-.5c.33-.02,.64-.1,.95-.22l53.06-21.07c.64-.25,1.18-.71,1.53-1.29l5.66-9.25c.41-.67,.56-1.47,.41-2.24l-.83-4.43c-.11-.57-.37-1.09-.75-1.52l-3.6-4.03c-.59-.66-1.41-1.11-2.3-1.15-.1,0-.2,0-.29,0l-13.92,.65c-.35,.02-.53-.42-.28-.66l19.71-18.33c.42-.4,.73-.9,.89-1.46l9.16-32.35c.28-.99,.06-2.06-.59-2.86-.6-.74-1.51-1.17-2.46-1.17-.07,0-.15,0-.22,0l-32.02,2.25c-.84,.06-1.62,.45-2.18,1.09l-17.45,20.2,7.6-21.6c.3-.86,.22-1.82-.23-2.62l-4.22-7.43-.31-.45-3.09-3.75-.37-.38-6.74-5.86c-.6-.52-1.34-.78-2.08-.78-.87,0-1.74,.36-2.37,1.06l-10.4,11.7,2.86-46.88c.03-.5-.06-1.01-.26-1.47l-11.75-26.73c-.31-.7-.85-1.26-1.54-1.59L93.49,.31c-.43-.2-.9-.31-1.36-.31h0Z"/><polygon class="cr" points="118.83 13.96 120.48 16.71 122.59 16.13 121.36 12.97 118.83 13.96"/><g id="e"><g id="f"><path id="g" class="cr" d="M92.13,.53c-.33,0-.65,.06-.96,.18-.68,.27-1.22,.8-1.49,1.48l-15.17,38.16c-.14,.36-.2,.74-.18,1.12l6.17,112.07c.05,.85,.5,1.63,1.22,2.09l11.23,7.11c.43,.27,.92,.41,1.41,.41,.16,0,.31-.01,.47-.04l17.18-3.09c.67-.12,1.28-.5,1.68-1.06l11.87-16.49c.29-.4,.46-.88,.49-1.38l6.03-98.87c.03-.42-.05-.84-.22-1.22l-11.75-26.73c-.25-.58-.71-1.05-1.28-1.32L93.26,.78c-.36-.17-.75-.26-1.14-.26h0Z"/><g id="h"><polygon class="cs" points="94.86 52.23 76.95 41.33 83.12 153.4 94.36 160.51 94.86 52.23"/><polygon class="cs" points="115.3 51.97 94.86 52.23 94.36 160.51 111.54 157.42 115.3 51.97"/><polygon class="cs" points="129.43 42.07 115.3 51.97 111.54 157.42 123.4 140.93 129.43 42.07"/><polygon class="cs" points="92.13 3.17 98.48 18.82 98.95 23.97 97.46 34.26 91.57 50.22 76.95 41.33 92.13 3.17"/><polygon class="cs" points="111.13 19.75 115.3 51.97 94.86 52.23 98.95 23.97 102.53 20.68 111.13 19.75"/><polygon class="cs" points="92.13 3.17 98.48 18.82 102.53 20.68 111.13 19.75 117.68 15.33 92.13 3.17"/><polygon class="cs" points="117.68 15.33 111.13 19.75 115.3 51.97 129.43 42.07 117.68 15.33"/></g><g id="i"><path class="cp" d="M79.28,45.22l13.46,8.19-.48,103.27-7.09-4.49-5.89-106.98m-2.33-3.89l6.17,112.07,11.23,7.11,.5-108.28-17.91-10.9h0Z"/><path class="cp" d="M113.11,54.11l-3.62,101.53-13.01,2.34,.48-103.67,16.14-.2m2.19-2.14l-20.44,.25-.5,108.28,17.18-3.09,3.76-105.44h0Z"/><path class="cp" d="M127.06,46.31l-5.72,93.88-7.44,10.33,3.47-97.42,9.68-6.79m2.38-4.24l-14.13,9.91-3.76,105.44,11.87-16.49,6.03-98.87h0Z"/><path class="cp" d="M92.15,8.83l4.26,10.49,.42,4.59-1.42,9.82-4.93,13.35-10.9-6.63,12.57-31.62m-.02-5.66l-15.17,38.16,14.61,8.89,5.89-15.97,1.49-10.29-.47-5.15-6.35-15.65h0Z"/><path class="cp" d="M109.3,22.07l3.6,27.82-15.59,.19,3.63-25.07,2.51-2.31,5.86-.63m1.83-2.32l-8.61,.93-3.58,3.29-4.09,28.26,20.44-.25-4.17-32.23h0Z"/><path class="cp" d="M96.13,7.41l17.3,8.24-3.04,2.05-7.51,.81-2.75-1.27-3.99-9.83m-4-4.25l6.35,15.65,4.04,1.86,8.61-.93,6.54-4.42L92.13,3.17h0Z"/><path class="cp" d="M116.76,18.5l10.04,22.83-9.85,6.91-3.55-27.47,3.37-2.27m.92-3.17l-6.54,4.42,4.17,32.23,14.13-9.91-11.75-26.73h0Z"/><polygon class="cp" points="97.46 34.26 94.86 52.23 91.57 50.22 97.46 34.26"/><polygon class="cp" points="98.48 18.82 98.95 23.97 102.53 20.68 98.48 18.82"/></g><g id="j"><polygon class="cr" points="117.36 53.11 115.79 97.66 120.47 54.86 127.05 46.31 117.36 53.11"/><path class="cr" d="M118.33,59.24l5.68-5.09c.19-.17,.47-.15,.64,.03,.15,.17,.15,.42,.01,.58l-4.8,5.93c-.37,.45-1.04,.52-1.49,.16-.45-.37-.52-1.04-.16-1.49,.03-.04,.08-.09,.12-.12Z"/><polygon class="cr" points="79.28 45.23 92.74 53.41 92.53 97.65 89.64 55.63 79.28 45.23"/><polygon class="cr" points="96.96 54.32 113.11 54.12 100.23 57.38 96.73 104.65 96.96 54.32"/><polygon class="cr" points="97.3 50.08 112.9 49.89 109.95 27.13 109.25 46.89 97.3 50.08"/><polygon class="cr" points="92.15 8.84 83.25 39.4 90.47 47.09 79.57 40.45 92.15 8.84"/><polygon class="cr" points="96.13 7.41 100.13 17.26 100.73 12.23 113.43 15.65 96.13 7.41"/><polygon class="cr" points="116.76 18.5 126.8 41.32 113.98 20.38 116.76 18.5"/></g><g id="k"><path class="cp" d="M112.51,77.8l-10.43-16.73c-.13-.21-.07-.49,.14-.62,.2-.13,.47-.07,.6,.12l11.44,16.05c.34,.48,.23,1.14-.25,1.47-.48,.34-1.14,.23-1.47-.25-.01-.02-.03-.04-.04-.05Z"/><path class="cp" d="M120.95,44.95l-2.11-9.15c-.06-.24,.1-.48,.34-.54,.22-.05,.45,.07,.52,.28l3.27,8.81c.2,.55-.08,1.16-.62,1.36s-1.16-.08-1.36-.62c-.02-.04-.03-.09-.04-.13Z"/><path class="cp" d="M106.15,86.34l-11.18-15.66c-.34-.47-.23-1.13,.25-1.47,.48-.34,1.14-.23,1.47,.25,.01,.02,.03,.04,.04,.06l10.17,16.33c.13,.21,.07,.49-.14,.62-.2,.13-.47,.07-.6-.12Z"/><path class="cp" d="M84.33,46.29l.35,30.2c0,.25-.2,.45-.44,.45-.24,0-.44-.19-.45-.43l-1.56-30.16c-.03-.58,.42-1.08,1-1.11s1.08,.42,1.11,1v.04Z"/><path class="cp" d="M106.55,38.02l-9.25,10.26c-.39,.43-1.06,.47-1.49,.08-.43-.39-.47-1.06-.08-1.49,.02-.02,.04-.05,.07-.07l10.11-9.4c.18-.17,.47-.16,.64,.02,.16,.17,.16,.44,0,.61Z"/><path class="cp" d="M107.2,31.62l-9.25,10.26c-.39,.43-1.06,.47-1.49,.08-.43-.39-.47-1.06-.08-1.49,.02-.02,.04-.05,.07-.07l10.11-9.4c.18-.17,.47-.16,.64,.02,.16,.17,.16,.44,0,.61Z"/><path class="cp" d="M106.43,95.22l-11.18-15.66c-.34-.47-.23-1.13,.25-1.47,.47-.34,1.13-.23,1.47,.25,.01,.02,.03,.04,.04,.06l10.17,16.33c.13,.21,.07,.49-.14,.62-.2,.13-.47,.07-.6-.12Z"/><path class="cp" d="M89.64,30.7l-4.62-8.19c-.29-.51-.11-1.15,.4-1.44s1.15-.11,1.44,.4c.02,.04,.04,.08,.06,.12l3.53,8.71c.09,.23-.02,.49-.25,.59-.21,.09-.45,0-.56-.2Z"/><path class="cp" d="M91.55,24.84l-4.62-8.19c-.29-.51-.11-1.15,.4-1.44,.51-.29,1.15-.11,1.44,.4,.02,.04,.04,.08,.06,.12l3.53,8.71c.09,.23-.02,.49-.25,.59-.21,.09-.45,0-.56-.2Z"/></g><g id="l"><path class="cr" d="M91.57,50.75c-.1,0-.19-.03-.27-.08l-14.61-8.89c-.22-.13-.31-.41-.22-.65L91.64,2.97c.08-.2,.27-.33,.49-.33h0c.21,0,.41,.13,.49,.33l6.35,15.65s.03,.1,.04,.15l.47,5.15s0,.08,0,.12l-1.49,10.29s-.01,.07-.03,.11l-5.89,15.97c-.05,.15-.17,.26-.32,.32-.06,.02-.12,.03-.17,.03Zm-13.96-9.64l13.69,8.33,5.65-15.31,1.47-10.17-.46-5.01-5.83-14.36-14.52,36.53Z"/><path class="cr" d="M94.86,52.76c-.15,0-.3-.07-.4-.18-.1-.12-.15-.27-.12-.42l4.09-28.26c.02-.12,.08-.23,.17-.31l3.58-3.29c.08-.08,.19-.12,.3-.14l8.61-.93c.28-.03,.54,.17,.58,.46l4.17,32.23c.02,.15-.03,.3-.12,.41-.1,.11-.24,.18-.39,.18l-20.44,.25h0Zm4.58-28.53l-3.97,27.46,19.23-.24-4.02-31.12-7.92,.86-3.31,3.05Z"/><path class="cr" d="M102.53,21.21c-.08,0-.15-.02-.22-.05l-4.04-1.86c-.12-.06-.22-.16-.27-.28l-6.35-15.65c-.08-.2-.03-.43,.13-.58,.16-.15,.39-.19,.59-.09l25.55,12.17c.17,.08,.29,.25,.3,.44,.01,.19-.07,.37-.23,.48l-6.54,4.42c-.07,.05-.15,.08-.24,.09l-8.61,.93s-.04,0-.06,0Zm-3.63-2.78l3.72,1.71,8.33-.9,5.67-3.83-23.49-11.18,5.76,14.2Z"/><path class="cr" d="M115.3,52.5c-.07,0-.14-.01-.21-.04-.17-.07-.29-.23-.31-.42l-4.17-32.23c-.03-.2,.06-.39,.23-.51l6.54-4.42c.13-.09,.29-.11,.44-.07s.27,.15,.34,.29l11.75,26.73c.1,.23,.03,.5-.18,.64l-14.13,9.91c-.09,.06-.2,.1-.3,.1Zm-3.6-32.5l4.01,31.04,13.06-9.16-11.33-25.76-5.75,3.88Z"/><path class="cr" d="M94.86,52.76c-.1,0-.19-.03-.27-.08l-3.29-2c-.22-.13-.31-.4-.22-.63l5.89-15.97c.09-.25,.37-.4,.62-.33,.26,.07,.43,.32,.39,.59l-2.6,17.97c-.03,.18-.14,.33-.3,.4-.07,.03-.15,.05-.22,.05Zm-2.65-2.76l2.24,1.36,1.77-12.22-4.01,10.86Z"/><path class="cr" d="M98.95,24.5c-.06,0-.13-.01-.19-.04-.19-.07-.32-.24-.34-.44l-.47-5.15c-.02-.19,.07-.37,.22-.48,.15-.11,.35-.13,.53-.05l4.04,1.86c.16,.07,.27,.22,.3,.4,.03,.17-.03,.35-.16,.47l-3.58,3.29c-.1,.09-.23,.14-.36,.14Zm.14-4.82l.29,3.18,2.21-2.03-2.49-1.15Z"/><path class="cr" d="M94.36,161.04c-.1,0-.2-.03-.28-.08l-11.23-7.11c-.14-.09-.24-.25-.25-.42l-6.17-112.07c-.01-.2,.09-.38,.26-.48,.17-.1,.38-.1,.55,0l17.91,10.9c.16,.1,.25,.27,.25,.45l-.5,108.28c0,.19-.11,.37-.27,.46-.08,.04-.17,.06-.25,.06Zm-10.72-7.94l10.2,6.46,.5-107.03-16.8-10.22,6.1,110.8Z"/><path class="cr" d="M94.36,161.04c-.12,0-.24-.04-.34-.12-.12-.1-.19-.25-.19-.41l.5-108.28c0-.29,.23-.52,.52-.53l20.44-.25h0c.14,0,.28,.06,.38,.16,.1,.1,.16,.24,.15,.39l-3.76,105.44c0,.25-.19,.46-.43,.5l-17.18,3.09s-.06,0-.09,0Zm1.03-108.29l-.5,107.13,16.14-2.91,3.72-104.47-19.36,.24Z"/><path class="cr" d="M111.54,157.95c-.06,0-.12,0-.17-.03-.22-.08-.37-.29-.36-.52l3.76-105.44c0-.17,.09-.32,.22-.41l14.13-9.91c.16-.12,.38-.13,.56-.03,.18,.1,.28,.29,.27,.49l-6.03,98.87c0,.1-.04,.2-.1,.28l-11.87,16.49c-.1,.14-.26,.22-.43,.22Zm4.28-105.69l-3.69,103.44,10.76-14.95,5.95-97.62-13.02,9.13Z"/></g><g id="m"><polygon class="cr" points="98.36 126.26 100.68 101.35 101.36 126.35 98.36 126.26"/><polygon class="cr" points="90.02 133.3 89.24 88.98 94.17 134.46 90.02 133.3"/><polygon class="cr" points="83.86 96.84 84.79 83.11 86.86 96.71 83.86 96.84"/><polygon class="cr" points="102.76 122.49 104.26 110.72 105.76 122.49 102.76 122.49"/><polygon class="cr" points="106.64 119.31 108.14 107.55 109.64 119.31 106.64 119.31"/><polygon class="cr" points="115.68 119.24 117.18 107.47 118.68 119.24 115.68 119.24"/><polygon class="cr" points="119.12 121.59 120.91 101.35 122.12 121.64 119.12 121.59"/></g></g><g id="n"><path id="o" class="cr" d="M142.51,76.9c-.73,0-1.45,.3-1.97,.89l-11.62,13.06c-.29,.33-.49,.72-.6,1.14l-17.63,73.85c-.17,.7-.04,1.45,.35,2.05l6.59,10.14c.5,.77,1.35,1.2,2.22,1.2,.41,0,.83-.1,1.22-.3l10.47-5.46c.59-.31,1.05-.83,1.27-1.46l26.24-74.54c.25-.72,.18-1.52-.19-2.18l-4.22-7.44c-.08-.13-.16-.26-.26-.38l-3.09-3.75c-.09-.11-.2-.22-.31-.31l-6.74-5.86c-.5-.43-1.12-.65-1.73-.65h0Z"/><g id="p"><polygon class="cs" points="137.81 113.55 156.55 96.59 152.33 89.15 148.85 90.7 137.81 113.55"/><polygon class="cs" points="142.51 79.54 130.89 92.61 136.59 109.85 143.86 101.02 148.85 90.7 149.25 85.4 142.51 79.54"/><polygon class="cs" points="130.89 92.61 137.81 113.55 119.85 176.59 113.26 166.45 130.89 92.61"/><polygon class="cs" points="137.81 113.55 156.55 96.59 130.32 171.13 119.85 176.59 137.81 113.55"/></g><g id="q"><path class="cp" d="M151.44,91.86l2.44,4.3-9.45,8.56,5.99-12.4,1.02-.45m.89-2.71l-3.48,1.55-11.04,22.85,18.74-16.96-4.22-7.44h0Z"/><path class="cp" d="M142.7,82.51l4.36,3.79-.29,3.84-4.7,9.74-4.68,5.67-4.12-12.45,9.42-10.59m-.19-2.96l-11.62,13.06,5.7,17.24,7.27-8.82,4.99-10.33,.39-5.3-6.74-5.86h0Z"/><path class="cp" d="M131.22,100.33l4.39,13.27-16.51,57.96-3.57-5.49,15.7-65.74m-.33-7.72l-17.63,73.85,6.59,10.14,17.96-63.04-6.92-20.94h0Z"/><path class="cp" d="M151.79,103.74l-23.19,65.9-5.37,2.8,16.45-57.74,12.11-10.97m4.76-7.16l-18.74,16.96-17.96,63.04,10.47-5.46,26.24-74.54h0Z"/><polygon class="cp" points="149.25 85.4 148.85 90.7 152.33 89.15 149.25 85.4"/><polygon class="cp" points="136.59 109.85 143.86 101.02 137.81 113.55 136.59 109.85"/></g><g id="r"><polygon class="cr" points="131.22 100.33 121.61 140.57 131.52 108.94 133.02 105.78 131.22 100.33"/><polygon class="cr" points="139.68 114.71 128.42 154.29 142.2 116.75 151.79 103.74 139.68 114.71"/><polygon class="cr" points="142.08 99.9 146.74 90.19 140.22 97.56 137.9 100.18 133.3 93.18 137.39 105.56 142.08 99.9"/></g><g id="s"><path class="cp" d="M138.36,95.24l.37-11.35c.02-.58,.51-1.04,1.09-1.02s1.04,.51,1.02,1.09c0,.04,0,.08,0,.11l-1.58,11.25c-.03,.25-.26,.42-.51,.38-.23-.03-.39-.23-.39-.46Z"/><path class="cp" d="M131.07,117.15l2.36-10.21c.13-.57,.7-.92,1.27-.79,.57,.13,.92,.7,.79,1.27,0,.04-.02,.08-.03,.12l-3.52,9.87c-.08,.23-.34,.36-.57,.27-.22-.08-.34-.31-.29-.52Z"/><path class="cp" d="M143.95,119.34l-7.6,7.22c-.42,.4-1.09,.39-1.5-.04-.4-.42-.39-1.09,.04-1.5,.03-.03,.06-.05,.09-.08l8.38-6.29c.2-.15,.48-.11,.63,.09,.14,.18,.11,.44-.05,.6Z"/></g><g id="t"><path class="cr" d="M137.81,114.08s-.09,0-.13-.02c-.17-.05-.31-.18-.37-.34l-6.92-20.94c-.06-.18-.02-.38,.11-.52l11.62-13.06c.19-.21,.51-.24,.73-.05l8.35,7s.09,.09,.12,.14l5.7,10.04c.12,.22,.08,.49-.1,.65l-18.74,16.96c-.1,.09-.23,.14-.35,.14Zm-6.33-21.35l6.58,19.88,17.82-16.13-5.44-9.59-7.88-6.61-11.08,12.45Z"/><path class="cr" d="M119.85,177.12c-.18,0-.34-.09-.44-.24l-6.59-10.14c-.08-.12-.1-.27-.07-.41l17.63-73.85c.05-.23,.26-.4,.49-.41,.28,0,.45,.14,.52,.36l6.92,20.94c.03,.1,.04,.21,0,.31l-17.96,63.04c-.06,.2-.22,.35-.43,.38-.03,0-.05,0-.08,0Zm-6.03-10.76l5.84,8.98,17.6-61.77-6.29-19.02-17.15,71.82Z"/><path class="cr" d="M119.85,177.12c-.12,0-.24-.04-.33-.12-.16-.13-.23-.35-.17-.55l17.96-63.04c.03-.1,.08-.18,.15-.25l18.74-16.96c.18-.16,.45-.18,.65-.05,.2,.13,.29,.39,.21,.62l-26.24,74.54c-.04,.13-.13,.23-.25,.29l-10.46,5.46c-.08,.04-.16,.06-.24,.06Zm18.43-63.28l-17.59,61.72,9.19-4.8,25.48-72.38-17.08,15.46Z"/><path class="cr" d="M148.85,91.22c-.11,0-.21-.03-.3-.1-.15-.11-.24-.29-.22-.47l.39-5.3c.02-.22,.16-.4,.37-.46,.21-.06,.43,0,.57,.17l3.09,3.75c.11,.13,.14,.3,.11,.46-.04,.16-.15,.29-.3,.36l-3.48,1.55c-.07,.03-.14,.05-.21,.05Zm.82-4.47l-.23,3.1,2.04-.91-1.81-2.2Z"/><path class="cr" d="M137.81,114.08h-.03c-.21-.02-.4-.16-.47-.36l-1.22-3.7c-.06-.17-.02-.36,.09-.5l7.27-8.82c.17-.21,.47-.25,.69-.11,.22,.14,.31,.43,.19,.67l-6.05,12.52c-.09,.18-.27,.3-.48,.3Zm-.63-4.12l.72,2.19,3.57-7.4-4.3,5.21Z"/><path class="cr" d="M149.6,90.36l-10.13,20.97,16.42-14.86-4.03-7.11,.9-.56,4.26,7.51c.12,.22,.08,.49-.1,.65l-18.74,16.96c-.1,.09-.23,.14-.35,.14-.11,0-.22-.03-.32-.1-.2-.15-.27-.42-.16-.65l11.33-23.46,.93,.51Z"/></g><g id="u"><polygon class="cr" points="126.35 128.9 130.35 121.62 129.2 129.85 126.35 128.9"/><polygon class="cr" points="135.49 139.08 140.88 127.63 138.33 140.02 135.49 139.08"/></g></g><g id="v"><path id="w" class="cr" d="M203.81,96.22h-.04c-.06,0-.11,0-.17,0l-32,2.25c-.7,.05-1.35,.38-1.81,.91l-75.67,87.6c-.35,.4-.57,.9-.63,1.44l-1.25,11.27c-.08,.69,.12,1.39,.56,1.93l6.68,8.41c.5,.63,1.26,1,2.07,1h10.13c.67,.01,1.31-.24,1.8-.7l82.98-77.19c.35-.33,.61-.75,.74-1.21l9.13-32.23c.09-.26,.14-.54,.14-.84,0-1.46-1.18-2.64-2.64-2.64h0Z"/><g id="x"><polygon class="cs" points="184.21 127.07 194.65 131.21 203.81 98.86 184.66 115.73 184.21 127.07"/><polygon class="cs" points="171.79 101.11 176 113.07 184.66 115.73 203.81 98.86 171.79 101.11"/><polygon class="cs" points="96.11 188.71 94.86 199.98 176 113.07 171.79 101.11 96.11 188.71"/><polygon class="cs" points="184.21 127.07 184.66 115.73 176 113.07 94.86 199.98 101.54 208.39 184.21 127.07"/><polygon class="cs" points="194.65 131.21 184.21 127.07 101.54 208.39 111.67 208.4 194.65 131.21"/></g><g id="y"><path class="cp" d="M199.82,105.19l-6.57,23.19-6.87-2.72,.35-8.94,13.08-11.53m3.99-6.33l-19.15,16.87-.45,11.34,10.43,4.14,9.16-32.35h0Z"/><path class="cp" d="M197.73,101.4l-13.57,11.96-6.51-2-2.94-8.34,23.03-1.62m6.08-2.54l-32.02,2.25,4.22,11.96,8.66,2.67,19.15-16.87h0Z"/><path class="cp" d="M171,105.24l2.58,7.32-75.92,81.32,.48-4.29,72.87-84.35m.78-4.14l-75.67,87.6-1.25,11.27,81.14-86.91-4.22-11.96h0Z"/><path class="cp" d="M176.64,115.47l5.85,1.8-.35,8.88-80.4,79.08-4.09-5.15,79-84.61m-.64-2.41l-81.14,86.91,6.68,8.41,82.67-81.32,.45-11.34-8.66-2.67h0Z"/><path class="cp" d="M184.72,129.54l6.05,2.4-79.92,74.35h-4.14l78.02-76.75m-.5-2.47l-82.67,81.32h10.13l82.98-77.18-10.43-4.14h0Z"/></g><g id="a`"><polygon class="cr" points="174.71 103.04 177.64 111.36 184.12 113.35 194.99 103.81 183.59 110.2 179.8 109.16 174.71 103.04"/><polygon class="cr" points="194.69 109.72 199.82 105.19 193.31 128.42 194.69 109.72"/><polygon class="cr" points="176.64 115.47 182.49 117.27 182.33 120.94 177.78 119.55 149.2 144.88 176.64 115.47"/><polygon class="cr" points="171.01 105.24 172.36 109.1 147.85 132.08 171.01 105.24"/><polygon class="cr" points="187.67 130.71 190.76 131.93 167.28 153.77 187.67 130.71"/></g><g id="aa"><path class="cp" d="M167.2,123.59l11.23,.58c.25,.01,.44,.22,.43,.47-.01,.23-.2,.41-.42,.43l-11.23,.63c-.58,.03-1.08-.41-1.12-1-.03-.58,.41-1.08,1-1.12,.04,0,.08,0,.11,0Z"/><path class="cp" d="M162.93,128.43l10.51,.39c.25,0,.44,.22,.43,.47,0,.23-.19,.41-.41,.43l-10.49,.82c-.58,.05-1.09-.39-1.14-.97s.39-1.09,.97-1.14c.04,0,.08,0,.12,0Z"/><path class="cp" d="M189.99,101.85l-7.05,5.61c-.19,.15-.48,.12-.63-.07-.14-.18-.13-.43,.03-.59l6.23-6.5c.4-.42,1.07-.44,1.5-.03,.42,.4,.44,1.07,.03,1.5-.03,.03-.07,.07-.11,.1Z"/><path class="cp" d="M166.82,143.95l-10.26-.45c-.25-.01-.44-.22-.43-.47,.01-.23,.19-.41,.42-.43l10.24-.76c.58-.04,1.09,.39,1.13,.98s-.39,1.09-.98,1.13c-.04,0-.09,0-.12,0Z"/><path class="cp" d="M194.58,125.49l-5.43-2.08c-.23-.09-.35-.35-.26-.58,.08-.2,.29-.32,.49-.28l5.75,.91c.58,.09,.97,.64,.88,1.21-.09,.58-.64,.97-1.21,.88-.07-.01-.15-.03-.21-.06Z"/><path class="cp" d="M157.13,154.14l-21.61,10.37c-.22,.11-.49,.01-.6-.21-.1-.22-.02-.48,.19-.59l21.05-11.45c.51-.28,1.15-.09,1.43,.42,.28,.51,.09,1.15-.42,1.43l-.05,.02Z"/></g><g id="ab"><path class="cr" d="M94.86,200.5c-.07,0-.15-.02-.22-.05-.21-.1-.33-.31-.3-.54l1.25-11.27c.01-.11,.05-.21,.12-.29l75.67-87.6c.12-.14,.31-.21,.5-.17,.19,.04,.34,.17,.4,.34l4.21,11.96c.07,.19,.02,.39-.11,.54l-81.14,86.91c-.1,.11-.24,.17-.39,.17Zm1.76-11.58l-1.06,9.52,79.83-85.51-3.81-10.8-74.97,86.79Z"/><path class="cr" d="M101.54,208.92s-.02,0-.03,0c-.15,0-.29-.08-.38-.2l-6.68-8.42c-.16-.2-.15-.5,.03-.69l81.14-86.91c.14-.15,.35-.2,.54-.14l8.66,2.67c.23,.07,.38,.29,.37,.53l-.45,11.34c0,.13-.06,.26-.16,.36l-82.67,81.32c-.1,.1-.23,.15-.37,.15Zm-5.98-8.92l6.03,7.6,82.1-80.76,.42-10.73-7.96-2.45-80.6,86.33Zm88.66-72.93h0Z"/><path class="cr" d="M111.67,208.93h-10.13c-.21-.01-.41-.14-.49-.34s-.03-.43,.12-.58l82.67-81.32c.15-.15,.37-.19,.56-.11l10.43,4.14c.17,.07,.29,.21,.32,.39,.03,.18-.03,.36-.16,.48l-82.98,77.19c-.1,.09-.23,.14-.36,.14Zm-8.84-1.07h8.63l82.21-76.47-9.34-3.7-81.51,80.17Z"/><path class="cr" d="M184.66,116.26c-.05,0-.1,0-.16-.02l-8.66-2.67c-.16-.05-.29-.17-.34-.33l-4.21-11.96c-.05-.16-.03-.33,.06-.47,.09-.14,.24-.23,.4-.24l32.02-2.25c.23-.03,.44,.11,.52,.32,.09,.21,.03,.45-.14,.6l-19.15,16.87c-.1,.09-.22,.13-.35,.13Zm-8.25-3.62l8.13,2.5,17.75-15.64-29.78,2.09,3.9,11.06Z"/><path class="cr" d="M194.65,131.74c-.07,0-.13-.01-.19-.04l-10.43-4.14c-.21-.08-.34-.29-.33-.51l.45-11.34c0-.14,.07-.28,.18-.38l19.15-16.87c.18-.16,.44-.18,.63-.05,.2,.12,.29,.37,.23,.59l-9.16,32.35c-.04,.14-.14,.26-.27,.33-.07,.04-.15,.05-.23,.05Zm-9.89-5.02l9.54,3.78,8.51-30.06-17.63,15.54-.42,10.74Z"/></g><g id="ac"><polygon class="cr" points="125.78 157.02 141.95 143.1 128.27 159.47 125.78 157.02"/><polygon class="cr" points="145.73 150.33 152.51 146.13 147.76 152.54 145.73 150.33"/><polygon class="cr" points="151.1 150.01 157.89 145.81 153.13 152.22 151.1 150.01"/><polygon class="cr" points="160.33 154.13 170.42 146.89 162.36 156.34 160.33 154.13"/></g></g><g id="ad"><path id="ae" class="cr" d="M65.58,81.44c-.23,0-.47,.03-.7,.09l-11.4,3.11c-.74,.2-1.35,.71-1.68,1.4l-8.41,17.48c-.28,.59-.34,1.27-.15,1.9l23.32,78.24c.08,.27,.2,.52,.36,.75l10.59,15.29c.5,.72,1.32,1.14,2.17,1.14,.22,0,.44-.03,.66-.08l14.94-3.84c.78-.2,1.43-.75,1.75-1.48l4.42-9.9c.21-.48,.28-1,.19-1.52l-14.95-88.3c-.07-.42-.24-.82-.51-1.16l-2.44-3.2c-.22-.29-.5-.53-.82-.71l-16.07-8.88c-.39-.22-.83-.33-1.28-.33h0Z"/><g id="af"><polygon class="cs" points="45.77 104.67 58.88 108.55 62.59 113.26 79.69 198.2 71.39 190.6 45.77 104.67"/><polygon class="cs" points="71.05 106.64 65.48 108.32 62.59 113.26 79.69 198.2 94.63 194.36 71.05 106.64"/><polygon class="cs" points="54.18 87.19 45.77 104.67 58.88 108.55 65.48 108.32 71.05 106.64 81.66 92.96 65.58 84.08 54.18 87.19"/><polygon class="cs" points="71.05 106.64 84.1 96.16 99.05 184.46 94.63 194.36 71.05 106.64"/></g><g id="ag"><path class="cp" d="M48.91,107.8l8.73,2.58,2.97,3.78,15.73,78.1-3.09-2.83-24.34-81.64m-3.14-3.13l25.62,85.93,8.3,7.6-17.1-84.94-3.7-4.71-13.11-3.88h0Z"/><path class="cp" d="M69.57,109.29l22.46,83.56-10.72,2.76-16.5-81.97,2.06-3.53,2.69-.81m1.47-2.65l-5.57,1.68-2.89,4.94,17.1,84.94,14.94-3.84-23.58-87.72h0Z"/><path class="cp" d="M65.31,86.34l13.16,7.27-8.68,11.19-4.67,1.4-5.97,.21-10.4-3.08,6.92-14.37,9.65-2.63m.27-2.26l-11.4,3.11-8.41,17.48,13.11,3.88,6.59-.24,5.57-1.68,10.61-13.68-16.07-8.88h0Z"/><path class="cp" d="M82.62,100.06l14.24,84.13-1.73,3.88-21.68-80.65,9.17-7.36m1.48-3.9l-13.05,10.48,23.58,87.72,4.42-9.9-14.95-88.3h0Z"/><polygon class="cp" points="58.88 108.55 62.59 113.26 65.48 108.32 58.88 108.55"/><polygon class="cp" points="71.05 106.64 84.1 96.16 81.66 92.96 71.05 106.64"/></g><g id="ah"><polygon class="cr" points="60.61 114.17 57.64 110.38 48.91 107.8 55.94 112.41 57.87 115.26 66.43 143.1 60.61 114.17"/><polygon class="cr" points="73.45 107.42 82.62 100.06 76.91 108.42 82.82 142.28 73.45 107.42"/><polygon class="cr" points="55.67 88.98 48.76 103.35 59.15 106.43 52.46 101.8 55.67 88.98"/><polygon class="cr" points="55.67 88.98 65.31 86.34 78.47 93.61 64.58 89.13 55.67 88.98"/><polygon class="cr" points="64.82 113.63 71.52 146.89 67.3 113.41 69.57 109.29 66.88 110.1 64.82 113.63"/></g><g id="ai"><path class="cp" d="M55.12,116.62l9.23,7.09c.46,.36,.55,1.02,.19,1.48-.36,.46-1.02,.55-1.48,.19-.03-.02-.06-.05-.08-.07l-8.44-8.01c-.18-.17-.19-.46-.02-.64,.16-.17,.42-.18,.6-.05Z"/><path class="cp" d="M81.42,121.29l-4.39-17.8c-.14-.57,.21-1.14,.77-1.28,.57-.14,1.14,.21,1.28,.77,0,.02,.01,.05,.01,.07l3.2,18.05c.04,.24-.12,.48-.36,.52-.23,.04-.46-.11-.51-.33Z"/><path class="cp" d="M71.93,137.57l1.27-15.68c.05-.58,.56-1.02,1.14-.97s1.02,.56,.97,1.14c0,.03,0,.06,0,.08l-2.48,15.53c-.04,.25-.27,.41-.51,.37-.23-.04-.4-.25-.38-.48Z"/><path class="cp" d="M74.61,147.46l1.27-15.68c.05-.58,.56-1.02,1.14-.97s1.02,.56,.97,1.14c0,.03,0,.06,0,.08l-2.48,15.53c-.04,.25-.27,.41-.51,.37-.23-.04-.4-.25-.38-.48Z"/><path class="cp" d="M60.16,93.85l-5.71,12.73c-.24,.53-.86,.77-1.4,.53-.53-.24-.77-.86-.53-1.4,.01-.03,.03-.06,.04-.08l6.8-12.19c.12-.22,.39-.29,.61-.17,.2,.11,.28,.37,.19,.58Z"/><path class="cp" d="M62.5,100.31l5.71-12.73c.24-.53,.86-.77,1.4-.53,.53,.24,.77,.86,.53,1.4-.01,.03-.03,.06-.04,.08l-6.8,12.19c-.12,.22-.39,.29-.61,.17-.2-.11-.28-.37-.19-.58Z"/><path class="cp" d="M69.06,97.59l3.21-7.75c.22-.54,.84-.8,1.38-.57s.8,.84,.57,1.38c-.02,.05-.04,.1-.07,.14l-4.3,7.2c-.13,.21-.4,.28-.62,.16-.19-.12-.27-.36-.19-.56Z"/></g><g id="aj"><path class="cr" d="M94.63,194.89s-.03,0-.04,0c-.22-.02-.41-.17-.47-.39l-23.58-87.72c-.05-.2,.02-.42,.18-.55l13.05-10.48c.15-.12,.35-.15,.52-.08,.17,.07,.3,.22,.33,.41l14.95,88.3c.02,.1,0,.21-.04,.3l-4.42,9.9c-.09,.19-.28,.31-.48,.31Zm-22.98-88.06l23.11,85.95,3.75-8.4-14.77-87.26-12.08,9.7Z"/><path class="cr" d="M64.54,108.05l6.26-1.89,12.57-10.09-2.07-2.7-15.79-8.72-10.96,2.99-8.04,16.7,13.06,3.86-.39,.99-13.57-4.02c-.15-.04-.27-.15-.33-.29-.06-.14-.06-.3,0-.44l8.41-17.48c.07-.14,.19-.24,.34-.28l11.4-3.11c.13-.04,.27-.02,.39,.05l16.07,8.88c.06,.04,.12,.08,.17,.14l2.45,3.2c.17,.23,.13,.55-.09,.73l-13.05,10.48c-.05,.04-.11,.07-.18,.09l-6.12,1.84-.55-.94Z"/><path class="cr" d="M59.45,109.27l-12.89-3.82,25.3,84.86,7,6.41-16.95-84.2,1.11,.18,17.2,85.4c.04,.22-.06,.45-.26,.56-.08,.05-.17,.07-.26,.07-.13,0-.26-.05-.36-.14l-8.3-7.6c-.07-.06-.12-.15-.15-.24l-25.62-85.93c-.06-.19,0-.39,.13-.52,.14-.14,.34-.19,.52-.13l13.66,4.04-.13,1.06Z"/><path class="cr" d="M64.54,108.05l6.36-1.92c.14-.04,.29-.02,.41,.04,.12,.07,.22,.19,.25,.32l23.58,87.72c.04,.14,.02,.28-.05,.4-.07,.12-.19,.21-.32,.25l-14.94,3.84s-.09,.02-.13,.02c-.1,0-.2-.03-.28-.08-.12-.08-.21-.2-.24-.34l-17.27-85.79,1.11,.18,17.09,84.85,13.89-3.57-23.3-86.68-5.6,1.68-.55-.94Z"/><path class="cr" d="M71.05,107.17c-.13,0-.27-.05-.37-.15-.19-.19-.21-.49-.05-.7l10.61-13.68c.1-.13,.28-.19,.42-.2,.16,0,.32,.08,.42,.21l2.45,3.2c.17,.23,.13,.55-.09,.73l-13.05,10.48c-.1,.08-.21,.12-.33,.12Zm10.6-13.34l-7.44,9.6,9.16-7.35-1.72-2.25Z"/><path class="cr" d="M62.59,113.79c-.16,0-.31-.07-.42-.2l-3.7-4.71c-.12-.16-.15-.37-.06-.55,.08-.18,.26-.3,.46-.31l6.59-.24c.18,0,.37,.09,.47,.26,.1,.17,.1,.37,0,.54l-2.89,4.94c-.09,.15-.25,.25-.42,.26-.01,0-.02,0-.04,0Zm-2.64-4.74l2.58,3.28,2.01-3.44-4.59,.16Z"/></g><g id="ak"><polygon class="cr" points="61.13 149.59 58.05 131.36 64.04 148.85 61.13 149.59"/><polygon class="cr" points="65.94 155.09 64.4 142.9 68.85 154.35 65.94 155.09"/><polygon class="cr" points="75.24 160.24 74.27 150.33 78.14 159.51 75.24 160.24"/><polygon class="cr" points="79.44 162.34 78.42 152.23 82.35 161.6 79.44 162.34"/><polygon class="cr" points="88.75 167.13 86.58 148.11 92.66 166.26 88.75 167.13"/><polygon class="cr" points="90.12 156.46 85.86 134.31 93.02 155.7 90.12 156.46"/></g></g><g id="al"><path id="am" class="cr" d="M112.88,114.21c-.62,0-1.23,.21-1.73,.65l-13.77,11.94c-.22,.19-.41,.42-.56,.68l-4.09,7.12c-.09,.15-.16,.32-.22,.49l-1.94,5.86c-.08,.24-.12,.49-.13,.75l-1.65,52.63c-.02,.71,.24,1.4,.73,1.91l12.32,12.85c.52,.54,1.21,.81,1.91,.81,.59,0,1.19-.2,1.68-.6l10.74-8.85c.41-.34,.71-.8,.86-1.32l17.88-62.8c.27-.94,0-1.95-.71-2.63l-19.48-18.75c-.51-.49-1.17-.74-1.83-.74h0Z"/><g id="an"><polygon class="cs" points="112.88 116.85 99.11 128.79 95.02 135.91 97.69 138.41 108.66 137.22 112.88 116.85"/><polygon class="cs" points="108.66 137.22 114.46 145.86 103.75 207.25 93.08 141.77 97.69 138.41 108.66 137.22"/><polygon class="cs" points="112.88 116.85 132.37 135.6 117.18 144.3 108.66 137.22 112.88 116.85"/><polygon class="cs" points="132.37 135.6 114.49 198.4 103.75 207.25 114.46 145.86 132.37 135.6"/></g><g id="ao"><path class="cp" d="M109.55,122.54l-2.64,12.75-8.47,.92-.74-.7,3.08-5.36,8.78-7.61m3.34-5.69l-13.77,11.94-4.09,7.12,2.68,2.5,10.96-1.19,4.23-20.37h0Z"/><path class="cp" d="M107.62,139.46l4.61,6.88-8.41,48.21-8.45-51.83,3.11-2.26,9.13-.99m1.04-2.24l-10.96,1.19-4.61,3.36,10.67,65.48,10.7-61.39-5.8-8.64h0Z"/><path class="cp" d="M114.18,121.02l14.7,14.14-11.47,6.57-6.42-5.33,3.19-15.38m-1.29-4.17l-4.23,20.37,8.52,7.08,15.19-8.7-19.48-18.75h0Z"/><path class="cp" d="M128.92,140.01l-16.27,57.18-5.83,4.8,9.55-54.79,12.55-7.19m3.45-4.41l-17.91,10.26-10.7,61.39,10.74-8.85,17.88-62.8h0Z"/><path class="cp" d="M95.02,135.91l2.68,2.5-4.61,3.36,1.94-5.86Z"/><path class="cp" d="M114.46,145.86l-5.8-8.64,8.52,7.08-2.73,1.56Z"/><path class="cp" d="M94.51,163.67l6.06,37.21-7-7.3,.94-29.91m-1.43-21.9l-1.65,52.63,12.32,12.85-10.67-65.48h0Z"/></g><g id="ap"><polyline class="cr" points="94.51 163.67 100.57 200.88 93.57 193.58 94.51 163.67"/><polygon class="cr" points="128.92 140.01 119.3 149.7 110.45 181.17 116.37 147.2 128.92 140.01"/><polygon class="cr" points="98.49 140.45 107.62 139.46 112.23 146.34 107.64 172.66 108.98 147.13 106.06 142.52 98.49 140.45"/><polygon class="cr" points="128.87 135.16 114.18 121.02 111.01 136.33 115.8 126.57 128.87 135.16"/><polygon class="cr" points="106.9 135.28 98.43 136.2 97.68 135.51 100.77 130.15 100.27 134.18 106.9 135.28"/></g><g id="aq"><path class="cp" d="M120.48,154.98l3.24-13.6c.14-.57,.71-.92,1.27-.78,.57,.14,.92,.71,.78,1.27,0,.03-.02,.06-.03,.09l-4.41,13.27c-.08,.24-.33,.36-.57,.28-.22-.07-.35-.31-.3-.53Z"/><path class="cp" d="M120.3,134.46l-8.81-7.75c-.44-.39-.48-1.05-.1-1.49s1.05-.48,1.49-.1c.03,.02,.05,.05,.08,.08l7.96,8.62c.17,.18,.16,.47-.03,.64-.17,.16-.43,.16-.6,0Z"/><path class="cp" d="M105.73,148.03l-9.73,3.09c-.56,.18-1.15-.13-1.33-.69-.18-.56,.13-1.15,.69-1.33,.04-.01,.08-.02,.12-.03l10.03-1.92c.24-.05,.48,.11,.53,.36,.04,.23-.09,.45-.31,.51Z"/><path class="cp" d="M101.86,154.74l9.73-3.09c.56-.18,1.15,.13,1.33,.69,.18,.56-.13,1.15-.69,1.33-.04,.01-.08,.02-.12,.03l-10.03,1.92c-.24,.05-.48-.11-.53-.36-.04-.23,.09-.45,.31-.51Z"/><path class="cp" d="M106.12,157.43l4.79-1.84c.55-.21,1.16,.06,1.37,.61,.21,.55-.06,1.16-.61,1.37-.08,.03-.16,.05-.24,.06l-5.09,.66c-.25,.03-.47-.14-.51-.39-.03-.21,.1-.41,.29-.48Z"/></g><g id="ar"><path class="cr" d="M93.08,142.3c-.11,0-.22-.03-.31-.1-.18-.14-.26-.37-.19-.59l1.94-5.86c.06-.17,.2-.3,.37-.35,.17-.04,.36,0,.49,.13l2.68,2.5c.12,.11,.18,.26,.17,.42s-.09,.3-.22,.39l-4.61,3.36c-.09,.07-.2,.1-.31,.1Zm2.18-5.44l-1.16,3.52,2.77-2.02-1.61-1.5Z"/><path class="cr" d="M114.46,146.39c-.17,0-.34-.08-.44-.23l-5.8-8.64c-.15-.22-.11-.51,.08-.69,.19-.18,.49-.18,.69-.01l8.52,7.08c.13,.11,.2,.28,.19,.45-.02,.17-.11,.33-.26,.41l-2.73,1.56c-.08,.05-.17,.07-.26,.07Zm-3.32-6.43l3.48,5.2,1.64-.94-5.12-4.26Z"/><path class="cr" d="M114.46,146.39c-.17,0-.34-.08-.44-.23l-5.8-8.64c-.08-.12-.11-.26-.08-.4l4.23-20.37c.04-.19,.18-.34,.36-.4,.19-.06,.38,0,.52,.12l19.48,18.75c.12,.12,.18,.28,.16,.45s-.12,.31-.26,.39l-17.91,10.26c-.08,.05-.17,.07-.26,.07Zm-5.23-9.28l5.4,8.05,16.88-9.67-18.29-17.6-3.99,19.22Z"/><path class="cr" d="M103.75,207.77c-.09,0-.18-.02-.27-.07-.19-.11-.29-.33-.25-.55l10.71-61.38c.03-.15,.12-.29,.26-.37l17.91-10.26c.19-.11,.42-.09,.59,.04,.17,.13,.24,.35,.18,.56l-17.88,62.8c-.03,.1-.09,.19-.17,.26l-10.74,8.85c-.1,.08-.22,.12-.34,.12Zm11.18-61.58l-10.42,59.74,9.51-7.84,17.47-61.39-16.57,9.5Z"/><path class="cr" d="M103.75,207.77c-.14,0-.28-.06-.38-.16l-12.32-12.85c-.1-.1-.15-.24-.15-.38l1.65-52.63c0-.27,.22-.49,.49-.51,.31-.02,.51,.17,.56,.44l10.67,65.48c.04,.23-.08,.45-.29,.56-.07,.04-.16,.06-.24,.06Zm-11.78-13.58l10.99,11.46-9.52-58.41-1.47,46.95Z"/><path class="cr" d="M103.75,207.77h0c-.26,0-.48-.19-.52-.44l-10.67-65.48c-.03-.2,.05-.39,.21-.51l4.61-3.36c.07-.05,.16-.09,.25-.1l10.96-1.19c.19-.02,.39,.07,.5,.23l5.8,8.64c.08,.11,.11,.25,.08,.38l-10.71,61.38c-.04,.25-.26,.44-.52,.44Zm-10.09-65.77l10.11,62.07,10.13-58.09-5.5-8.2-10.51,1.14-4.24,3.09Z"/><path class="cr" d="M97.7,138.94c-.13,0-.26-.05-.36-.14l-2.68-2.5c-.18-.17-.22-.44-.1-.65l4.09-7.12c.03-.05,.07-.1,.11-.14l13.77-11.94c.17-.15,.42-.17,.61-.06,.2,.11,.3,.34,.25,.56l-4.23,20.37c-.05,.22-.23,.39-.46,.42l-10.96,1.19s-.04,0-.06,0Zm-2.01-3.13l2.19,2.05,10.34-1.12,3.83-18.46-12.53,10.86-3.84,6.68Z"/></g><g id="as"><polygon class="cr" points="100.8 178.93 102.15 172.23 103.8 178.86 100.8 178.93"/><polygon class="cr" points="104.06 177.42 105.6 167.25 107.06 177.43 104.06 177.42"/><polygon class="cr" points="112.23 177.4 115.11 171.89 115.15 178.1 112.23 177.4"/><polygon class="cr" points="115.32 177.57 118.64 167.74 118.27 178.11 115.32 177.57"/></g></g><g id="at"><path id="au" class="cr" d="M12.96,106.13c-.37,0-.73,.08-1.08,.23l-9.79,4.37c-1.27,.57-1.88,2.02-1.4,3.33l6.05,16.28c.16,.44,.44,.83,.8,1.12l57.48,47.19c.49,.4,1.08,.6,1.68,.6s1.23-.21,1.72-.64l10.9-9.36c.55-.47,.88-1.14,.92-1.86,.04-.72-.21-1.42-.7-1.95L29.85,112.03c-.3-.32-.67-.56-1.09-.7l-14.96-5.06c-.27-.09-.56-.14-.85-.14h0Z"/><g id="av"><polygon class="cs" points="27.04 126.12 27.92 113.82 12.96 108.77 11.22 114.17 16.9 119.39 27.04 126.12"/><polygon class="cs" points="3.17 113.14 9.21 129.42 24.48 128.68 16.9 119.39 11.22 114.17 3.17 113.14"/><polygon class="cs" points="26.87 128.56 66.7 176.61 77.6 167.25 26.87 128.56"/><polygon class="cs" points="9.21 129.42 26.87 128.56 66.7 176.61 9.21 129.42"/><polygon class="cs" points="26.87 128.56 27.92 113.82 77.6 167.25 26.87 128.56"/></g><g id="aw"><path class="cp" d="M14.32,111.45l11.38,3.85-.5,7.06-6.99-4.64-4.56-4.2,.67-2.07m-1.35-2.69l-1.74,5.4,5.68,5.22,10.14,6.73,.88-12.3-14.96-5.06h0Z"/><path class="cp" d="M12.96,108.77l-1.74,5.4-8.06-1.03,9.79-4.37h0Z"/><path class="cp" d="M6.36,115.67l3.93,.5,5.07,4.67,4.84,5.93-9.54,.46-4.29-11.56m-3.2-2.54l6.05,16.28,15.26-.74-7.58-9.29-5.68-5.22-8.06-1.03h0Z"/><path class="cp" d="M40.32,141.48l33.93,25.87-7.29,6.26-26.64-32.13m-13.45-12.91l39.83,48.05,10.9-9.36-50.73-38.69h0Z"/><path class="cp" d="M25.92,130.72l25.1,30.28-36.23-29.74,11.13-.54m.95-2.16l-17.66,.85,57.48,47.19-39.83-48.05h0Z"/><path class="cp" d="M29.68,118.82l29.51,31.74-30.13-22.98,.62-8.75m-1.76-5l-1.05,14.74,50.73,38.69L27.92,113.82h0Z"/><path class="cp" d="M26.87,128.56l-2.39,.12-7.58-9.29,10.14,6.73-.17,2.44Z"/></g><g id="ax"><polygon class="cr" points="25.92 130.73 39.16 146.7 24.69 133.93 14.79 131.26 25.92 130.73"/><polygon class="cr" points="12.19 124.08 20.2 126.77 10.66 127.23 6.36 115.67 12.19 124.08"/><polygon class="cr" points="29.68 118.82 42.81 132.95 29.35 123.43 29.68 118.82"/></g><g id="ay"><path class="cp" d="M30.66,136.22l-7.9-.41c-.25-.01-.44-.22-.43-.47,.01-.22,.19-.4,.4-.42l7.87-.8c.58-.06,1.1,.36,1.16,.95,.06,.58-.36,1.1-.95,1.16-.05,0-.11,0-.16,0Z"/><path class="cp" d="M25.93,119.55l-5.99-2.94c-.22-.11-.32-.38-.21-.6,.1-.2,.32-.29,.53-.24l6.42,1.8c.56,.16,.89,.74,.73,1.31-.16,.56-.74,.89-1.31,.73-.06-.02-.12-.04-.18-.07Z"/></g><g id="b`"><path class="cr" d="M66.7,177.14s-.03,0-.04,0c-.14-.01-.27-.08-.36-.19l-39.83-48.05c-.17-.21-.16-.51,.03-.7,.19-.19,.49-.22,.7-.05l50.73,38.69c.13,.1,.2,.25,.21,.4,0,.16-.06,.31-.18,.42l-10.9,9.36c-.1,.08-.22,.13-.34,.13Zm-36.47-45.35l36.53,44.07,10-8.58-46.53-35.49Z"/><path class="cr" d="M66.7,177.14c-.12,0-.24-.04-.33-.12L8.88,129.82c-.17-.14-.24-.37-.17-.57,.07-.21,.26-.35,.48-.36l17.66-.85c.17,0,.33,.06,.43,.19l39.83,48.05c.17,.21,.16,.52-.03,.71-.1,.1-.24,.16-.37,.16ZM10.61,129.88l52.17,42.83-36.15-43.6-16.02,.77Z"/><path class="cr" d="M77.6,167.78c-.11,0-.22-.04-.32-.11l-50.73-38.69c-.14-.11-.22-.28-.21-.46l1.05-14.74c.01-.21,.15-.39,.35-.46,.2-.07,.42-.01,.56,.14l49.68,53.43c.19,.2,.19,.51,0,.71-.1,.11-.25,.17-.39,.17Zm-50.18-39.46l45.58,34.76L28.36,115.07l-.94,13.24Z"/><path class="cr" d="M11.22,114.69s-.04,0-.07,0l-8.06-1.03c-.23-.03-.42-.21-.46-.45-.03-.23,.09-.46,.31-.56l9.79-4.37c.19-.08,.41-.05,.57,.09,.16,.14,.21,.36,.15,.55l-1.74,5.4c-.07,.22-.28,.37-.5,.37Zm-6.12-1.84l5.75,.73,1.24-3.85-6.99,3.12Z"/><path class="cr" d="M24.48,129.21c-.16,0-.31-.07-.41-.19l-7.58-9.29c-.17-.2-.16-.5,.02-.69,.18-.19,.47-.23,.68-.09l10.14,6.73c.16,.1,.25,.29,.23,.48l-.17,2.44c-.02,.27-.23,.48-.5,.49l-2.39,.12h-.03Zm2.39-.64h0Zm-7.36-6.81l5.21,6.38,1.66-.08,.12-1.67-6.98-4.63Z"/><path class="cr" d="M9.21,129.94c-.22,0-.42-.14-.5-.34l-6.05-16.28c-.06-.17-.03-.37,.08-.51s.3-.22,.48-.2l8.05,1.03c.11,.01,.21,.06,.29,.14l5.68,5.22,7.63,9.34c.13,.15,.15,.37,.07,.55s-.26,.3-.46,.31l-15.26,.74h-.03Zm-5.25-16.17l5.61,15.1,13.83-.67-6.92-8.48-5.5-5.06-7.02-.9Z"/><path class="cr" d="M27.04,126.65c-.1,0-.2-.03-.29-.09l-10.14-6.73-5.74-5.28c-.15-.14-.21-.35-.15-.55l1.74-5.4c.04-.13,.14-.25,.27-.31,.13-.06,.27-.08,.41-.03l14.96,5.06c.23,.08,.38,.3,.36,.54l-.88,12.3c-.01,.19-.12,.35-.29,.44-.07,.04-.15,.05-.23,.05Zm-15.21-12.64l5.43,5,9.32,6.18,.78-10.99-14.06-4.76-1.47,4.57Z"/></g><g id="ba"><polygon class="cr" points="62.37 166.47 54.89 156.61 64.52 164.38 62.37 166.47"/><polygon class="cr" points="64.69 163.79 59.54 158.09 66.48 161.39 64.69 163.79"/></g></g><g id="bb"><path id="bc" class="cr" d="M191.44,152.4s-.08,0-.12,0l-15.49,.72c-.43,.02-.85,.15-1.22,.37l-45.86,27.18c-.38,.22-.7,.54-.92,.92l-4.56,7.63c-.63,1.05-.45,2.4,.43,3.25l4.12,3.99c.49,.48,1.15,.74,1.84,.74,.08,0,.15,0,.23,0l7.6-.65c.26-.02,.51-.08,.75-.18l53.06-21.07c.53-.21,.98-.59,1.28-1.08l5.66-9.25c.34-.56,.46-1.22,.34-1.87l-.83-4.43c-.09-.47-.31-.91-.63-1.27l-3.69-4.13c-.5-.56-1.22-.88-1.97-.88h0Z"/><g id="bd"><polygon class="cs" points="172.49 166.36 175.95 155.76 130.09 182.93 125.53 190.57 172.49 166.36"/><polygon class="cs" points="181.59 172.7 172.49 166.36 125.53 190.57 129.65 194.56 181.59 172.7"/><polygon class="cs" points="191.44 155.04 188.43 160.34 172.49 166.36 175.95 155.76 191.44 155.04"/><polygon class="cs" points="191.88 163.76 181.59 172.7 172.49 166.36 188.43 160.34 191.88 163.76"/><polygon class="cs" points="191.44 155.04 188.43 160.34 191.88 163.76 195.97 163.59 195.14 159.17 191.44 155.04"/></g><g id="be"><path class="cp" d="M172.2,160.43l-1.45,4.44-39.62,20.42,.49-.82,40.58-24.04m3.75-4.68l-45.86,27.18-4.56,7.63,46.96-24.21,3.46-10.6h0Z"/><path class="cp" d="M172.33,168.82l4.91,3.42-47.12,19.83-1.01-.98,43.21-22.28m.16-2.46l-46.96,24.21,4.12,3.99,51.94-21.86-9.1-6.34h0Z"/><path class="cp" d="M181.59,172.7l8.72,.14-53.06,21.07-7.6,.65,51.94-21.86h0Z"/><path class="cp" d="M187.72,157.32l-.74,1.31-11.11,4.19,1.64-5.03,10.21-.47m3.73-2.29l-15.49,.72-3.46,10.6,15.94-6.01,3.01-5.31h0Z"/><path class="cp" d="M187.91,162.8l.87,.86-7.33,6.37-4.46-3.11,10.92-4.12m.52-2.45l-15.94,6.01,9.1,6.34,10.29-8.94-3.45-3.41h0Z"/><path class="cp" d="M191.83,158.64l1.34,1.5,.27,1.44-.73,.03-1.65-1.63,.76-1.34m-.39-3.6l-3.01,5.31,3.45,3.41,4.09-.16-.83-4.43-3.69-4.13h0Z"/><path class="cp" d="M191.46,166.93l-2.31,3.78-2-.03,4.32-3.75m4.52-3.33l-4.09,.16-10.29,8.94,8.72,.14,5.66-9.25h0Z"/></g><g id="bf"><polygon class="cr" points="177.24 172.24 172.27 168.78 151.81 179.4 171.99 171.34 177.24 172.24"/><polygon class="cr" points="175.87 162.83 177.51 157.8 187.72 157.32 178.69 159.3 175.87 162.83"/><polyline class="cr" points="191.46 166.93 189.14 170.71 187.14 170.68 191.46 166.93"/></g><g id="bg"><path class="cp" d="M166.92,175.32l-3.33-2.13c-.5-.32-.64-.98-.32-1.48,.32-.5,.98-.64,1.48-.32,.09,.06,.18,.14,.25,.22l2.52,3.04c.16,.19,.13,.48-.06,.64-.16,.13-.37,.14-.54,.03Z"/><path class="cp" d="M171.41,173.35l-3.67-2.55c-.48-.34-.6-1-.27-1.48,.34-.48,1-.6,1.48-.27,.08,.06,.15,.12,.21,.2l2.85,3.44c.16,.19,.13,.48-.06,.64-.16,.13-.38,.14-.55,.02Z"/></g><g id="bh"><path class="cq" d="M125.53,191.09c-.14,0-.28-.06-.38-.17-.16-.17-.19-.43-.07-.63l4.56-7.63c.04-.08,.11-.14,.18-.18l45.86-27.18c.19-.11,.43-.09,.6,.04,.17,.14,.24,.37,.17,.58l-3.46,10.6c-.04,.13-.14,.24-.26,.31l-46.96,24.21c-.08,.04-.16,.06-.24,.06Zm4.94-7.77l-3.54,5.93,45.12-23.26,2.96-9.06-44.54,26.39Zm42.02-16.96h0Z"/><path class="cq" d="M129.65,195.09c-.13,0-.27-.05-.37-.15l-4.12-3.99c-.12-.12-.18-.29-.16-.46,.03-.17,.13-.31,.28-.39l46.96-24.21c.17-.09,.38-.08,.54,.04l9.1,6.34c.16,.11,.24,.3,.22,.49-.02,.19-.14,.36-.32,.43l-51.94,21.86c-.07,.03-.14,.04-.21,.04Zm-3.23-4.39l3.34,3.24,50.73-21.36-8.05-5.61-46.02,23.73Z"/><path class="cq" d="M129.65,195.09c-.24,0-.45-.16-.51-.4-.06-.25,.07-.51,.31-.61l51.94-21.86c.07-.03,.15-.03,.21-.04l8.72,.14c.25,0,.47,.19,.51,.43,.04,.25-.09,.49-.32,.59l-53.06,21.07s-.1,.03-.15,.04l-7.6,.65s-.03,0-.04,0Zm52.04-21.86l-48.75,20.52,4.18-.36,50.53-20.06-5.97-.1Z"/><path class="cq" d="M172.49,166.88c-.13,0-.26-.05-.37-.15-.15-.14-.2-.35-.14-.55l3.46-10.6c.07-.21,.26-.35,.48-.36l15.49-.72c.19-.01,.37,.09,.47,.25,.1,.16,.1,.37,0,.54l-3.01,5.31c-.06,.11-.16,.19-.27,.23l-15.94,6.01c-.06,.02-.12,.03-.19,.03Zm3.85-10.62l-3.01,9.21,14.73-5.56,2.44-4.31-14.17,.66Z"/><path class="cq" d="M191.88,164.29c-.14,0-.27-.05-.37-.15l-3.45-3.41c-.17-.17-.21-.43-.09-.64l3.01-5.31c.08-.15,.23-.25,.4-.26,.17-.02,.34,.05,.45,.17l3.69,4.13c.06,.07,.11,.16,.12,.25l.83,4.43c.03,.15,0,.31-.11,.43-.1,.12-.24,.19-.39,.2l-4.09,.16h-.02Zm-2.79-4.03l3,2.97,3.25-.13-.69-3.68-3.11-3.47-2.45,4.32Z"/><path class="cq" d="M190.31,173.37h0l-8.72-.14c-.22,0-.41-.14-.49-.35s-.02-.44,.15-.58l10.29-8.94c.09-.08,.21-.12,.33-.13l4.09-.16c.22,0,.38,.09,.48,.26,.1,.17,.1,.38,0,.54l-5.66,9.25c-.1,.16-.27,.25-.45,.25Zm-7.33-1.18l7.04,.12,4.99-8.15-2.92,.12-9.11,7.91Z"/></g><g id="bi"><polygon class="cr" points="156.72 168.63 164.55 167.05 157.86 171.41 156.72 168.63"/><polygon class="cr" points="144.16 182.02 159.98 177.84 145.19 184.84 144.16 182.02"/></g></g><g id="bj"><path id="bk" class="cr" d="M11.11,145.16c-.8,0-1.56,.36-2.06,.99-.52,.65-.71,1.51-.49,2.32l4.77,18.17c.19,.71,.66,1.31,1.31,1.66l54.27,29.04c.15,.08,.31,.15,.48,.2l9.92,3c.25,.08,.51,.11,.76,.11,.58,0,1.15-.19,1.62-.56l5.07-3.95c.96-.74,1.28-2.04,.79-3.15l-4.04-9.13c-.18-.4-.45-.75-.8-1.02l-47.13-36.28c-.43-.33-.96-.53-1.51-.55l-22.85-.85s-.07,0-.1,0h0Z"/><g id="bl"><polygon class="cs" points="36.4 160.97 33.95 148.65 81.09 184.93 85.13 194.06 36.4 160.97"/><polygon class="cs" points="25.53 166.92 36.4 160.97 85.13 194.06 80.06 198.01 25.53 166.92"/><polygon class="cs" points="15.88 165.97 25.53 166.92 80.06 198.01 70.14 195.01 15.88 165.97"/><polygon class="cs" points="11.11 147.8 36.4 160.97 33.95 148.65 11.11 147.8"/><polygon class="cs" points="25.53 166.92 36.4 160.97 11.11 147.8 25.53 166.92"/></g><g id="bm"><path class="cp" d="M37.12,153.75l42.25,32.52,.84,1.89-41.9-28.46-1.18-5.95m-3.17-5.1l2.45,12.32,48.73,33.09-4.04-9.13-47.13-36.28h0Z"/><path class="cp" d="M36.28,163.44l45.26,30.74-1.67,1.3-50.02-28.52,6.42-3.51m.12-2.47l-10.87,5.95,54.53,31.09,5.07-3.95-48.73-33.09h0Z"/><path class="cp" d="M15.88,165.97l9.65,.95,54.53,31.09-9.92-3-54.27-29.04h0Z"/><path class="cp" d="M20.41,150.26l11.8,.44,1.26,6.36-13.06-6.8m-9.3-2.46l25.29,13.17-2.45-12.32-22.85-.85h0Z"/><path class="cp" d="M18.42,153.99l13.49,7.03-5.8,3.17-7.69-10.2m-7.31-6.19l14.42,19.12,10.87-5.95-25.29-13.17h0Z"/><path class="cp" d="M15.87,157.62l5.07,6.73-3.4-.33-1.68-6.39m-4.76-9.82l4.77,18.17,9.65,.95-14.42-19.12h0Z"/></g><g id="bn"><polyline class="cr" points="15.87 157.62 20.94 164.34 17.55 164.01 15.87 157.62"/><polygon class="cr" points="29.86 166.95 36.29 163.44 34.39 167.15 51.36 179.21 29.86 166.95"/><polygon class="cr" points="19.13 154.36 31.92 161.01 26.11 164.19 28.66 160.94 19.13 154.36"/><polygon class="cr" points="37.64 156.37 38.31 159.7 51.72 168.81 37.64 156.37"/></g><g id="bo"><path class="cp" d="M38.62,167.59l3.46,6.2c.29,.51,.1,1.16-.41,1.44s-1.16,.1-1.44-.41c-.03-.05-.05-.11-.07-.17l-2.35-6.7c-.08-.23,.04-.49,.28-.57,.21-.07,.44,.02,.54,.21Z"/><path class="cp" d="M30.1,153.75l-1.73-3.69c-.25-.53-.02-1.17,.51-1.42,.53-.25,1.17-.02,1.42,.51,.05,.1,.08,.2,.09,.31l.56,4.03c.03,.25-.14,.48-.39,.51-.2,.03-.39-.08-.47-.26Z"/><path class="cp" d="M44.5,171.4l3.44,5.68c.3,.5,.14,1.15-.36,1.46-.5,.3-1.15,.14-1.46-.36-.03-.05-.06-.12-.08-.17l-2.35-6.21c-.09-.23,.03-.49,.26-.58,.21-.08,.43,0,.55,.19Z"/><path class="cp" d="M55.86,179.83l-3.44-5.68c-.3-.5-.14-1.15,.36-1.46,.5-.3,1.15-.14,1.46,.36,.03,.05,.06,.12,.08,.17l2.35,6.21c.09,.23-.03,.49-.26,.58-.21,.08-.43,0-.55-.19Z"/></g><g id="bp"><path class="cr" d="M85.13,194.59c-.1,0-.21-.03-.3-.09l-48.73-33.09c-.11-.08-.19-.2-.22-.33l-2.45-12.32c-.04-.22,.05-.44,.24-.55,.18-.12,.43-.1,.6,.03l47.13,36.28c.07,.05,.12,.12,.16,.2l4.04,9.13c.1,.22,.04,.47-.14,.62-.1,.08-.22,.12-.34,.12Zm-48.25-33.94l47.02,31.93-3.24-7.32-45.91-35.34,2.13,10.72Z"/><path class="cr" d="M80.06,198.54c-.09,0-.18-.02-.26-.07l-54.53-31.09c-.17-.09-.27-.27-.27-.46,0-.19,.11-.37,.27-.46l10.87-5.95c.17-.1,.38-.09,.55,.03l48.73,33.09c.14,.1,.23,.25,.23,.42,0,.17-.07,.33-.2,.43l-5.07,3.95c-.09,.07-.21,.11-.32,.11Zm-53.45-31.61l53.4,30.45,4.22-3.29-47.86-32.5-9.76,5.34Z"/><path class="cr" d="M80.06,198.54c-.05,0-.1,0-.15-.02l-9.92-3s-.07-.02-.1-.04l-54.27-29.04c-.22-.12-.33-.38-.26-.62,.07-.24,.29-.4,.56-.37l9.65,.95c.07,0,.15,.03,.21,.07l54.53,31.09c.23,.13,.33,.42,.22,.67-.08,.2-.28,.32-.49,.32Zm-9.71-4.02l5.38,1.63-50.36-28.71-6.9-.68,51.89,27.76Z"/><path class="cr" d="M36.4,161.49c-.08,0-.17-.02-.24-.06l-25.29-13.17c-.22-.11-.33-.36-.27-.6,.06-.24,.28-.39,.53-.39l22.85,.85c.24,0,.45,.19,.5,.42l2.45,12.32c.04,.2-.04,.4-.2,.53-.09,.07-.2,.11-.32,.11Zm-22.97-13.08l22.24,11.58-2.15-10.83-20.08-.75Z"/><path class="cr" d="M25.53,167.44s-.03,0-.05,0l-9.65-.95c-.22-.02-.4-.18-.46-.39l-4.77-18.17c-.06-.24,.05-.5,.28-.61,.23-.11,.5-.04,.65,.16l14.42,19.12c.13,.17,.14,.39,.04,.58-.09,.17-.27,.27-.46,.27Zm-9.24-1.97l8.09,.79-12.08-16.02,4,15.23Z"/></g><g id="bq"><polygon class="cr" points="70.02 189.13 58.04 180.61 71.5 186.52 70.02 189.13"/><polygon class="cr" points="61.31 175.47 53.96 168.78 62.97 172.97 61.31 175.47"/><polygon class="cr" points="63.61 180.65 51.36 171.13 65.21 178.11 63.61 180.65"/><polygon class="cr" points="75.01 196.25 54.89 183.63 76.44 193.62 75.01 196.25"/></g></g><g id="br"><path id="bs" class="cr" d="M160.92,152.54h0m0-2.64h-.04l-18.78,.17c-.72,0-1.4,.3-1.9,.83l-42.85,45.35c-.21,.22-.38,.47-.5,.75l-3.96,9.01c-.3,.68-.3,1.45,0,2.12l2.59,5.88c.43,.97,1.38,1.58,2.42,1.58,.15,0,.3-.01,.45-.04l9.84-1.68c.43-.07,.84-.26,1.19-.53l46.73-36.79c.43-.34,.75-.81,.9-1.33l6.4-21.82c.09-.27,.14-.56,.14-.86,0-1.46-1.18-2.64-2.64-2.64h0Zm0,5.28h0Z"/><g id="bt"><polygon class="cs" points="138.85 161.83 141.95 173.83 97.91 212.95 95.33 207.06 138.85 161.83"/><polygon class="cs" points="141.95 173.83 154.49 174.47 107.76 211.27 97.91 212.95 141.95 173.83"/><polygon class="cs" points="160.92 152.54 141.95 173.83 154.49 174.47 160.92 152.54"/><polygon class="cs" points="138.85 161.83 141.95 173.83 160.92 152.54 138.85 161.83"/></g><g id="bu"><path class="cp" d="M156.25,160.95l-3.32,11.33-6.48-.33,9.8-11m4.67-8.41l-18.97,21.29,12.54,.65,6.43-21.94h0Z"/><path class="cp" d="M142.7,175.98l6.06,.31-41.89,32.98-2.04,.35,37.87-33.64m-.76-2.15l-44.04,39.12,9.84-1.68,46.73-36.79-12.54-.65h0Z"/><path class="cp" d="M137.75,166.02l1.83,7.09-40.9,36.34-.85-1.93,39.92-41.49m1.1-4.19l-43.52,45.24,2.59,5.89,44.04-39.12-3.1-12h0Z"/><path class="cp" d="M142.14,152.7l-3.29,9.12-43.52,45.24,5.34-8.88,41.46-45.49h0Z"/><path class="cp" d="M153.13,158.11l-10.12,11.36-1.65-6.4,11.77-4.96m7.79-5.57l-22.07,9.29,3.1,12,18.97-21.29h0Z"/><path class="cp" d="M150.23,154.74l-7.77,3.27,1.16-3.21,6.61-.06m10.69-2.21l-18.78,.17-3.29,9.12,22.07-9.29h0Z"/></g><g id="bv"><polygon class="cr" points="137.75 166.02 139.58 173.11 136.45 170.36 120.59 183.86 137.75 166.02"/><polygon class="cr" points="146.1 176.16 142.7 175.98 130.58 186.76 146.1 176.16"/><polyline class="cr" points="150.23 154.74 142.47 158.01 143.62 154.8 150.23 154.74"/><polygon class="cr" points="152.59 158.7 143 169.47 141.35 163.06 143.87 166.32 152.59 158.7"/></g><g id="bw"><path class="cp" d="M134.99,174.35l-6.86,1.83c-.57,.15-1.15-.18-1.3-.75-.15-.57,.18-1.15,.75-1.3,.06-.02,.12-.03,.18-.03l7.07-.64c.25-.02,.47,.16,.49,.41,.02,.22-.12,.42-.33,.48Z"/><path class="cp" d="M150.48,169.49l4-.77c.58-.11,1.14,.27,1.25,.85s-.27,1.14-.85,1.25c-.11,.02-.22,.02-.32,.01l-4.05-.44c-.25-.03-.43-.25-.4-.5,.02-.2,.18-.36,.37-.4Z"/><path class="cp" d="M129.84,179.12l-6.35,1.94c-.56,.17-1.15-.14-1.32-.7-.17-.56,.14-1.15,.7-1.32,.06-.02,.13-.03,.19-.04l6.6-.75c.25-.03,.47,.15,.5,.4,.03,.22-.11,.42-.32,.48Z"/></g><g id="bx"><path class="cr" d="M97.91,213.48c-.2,0-.39-.11-.48-.3-.1-.21-.05-.47,.12-.62l44.04-39.12c.1-.09,.23-.14,.38-.13l12.54,.65c.22,.01,.41,.16,.48,.37,.07,.21,0,.44-.18,.58l-46.73,36.79c-.07,.05-.15,.09-.24,.11l-9.84,1.68s-.06,0-.09,0Zm44.22-39.11l-42.49,37.75,7.89-1.35,45.52-35.84-10.92-.56Z"/><path class="cr" d="M97.91,213.48s-.08,0-.11-.01c-.17-.04-.3-.15-.37-.3l-2.59-5.89c-.09-.2-.05-.42,.1-.58l43.52-45.24c.13-.14,.33-.19,.51-.14,.19,.05,.33,.19,.38,.38l3.1,12c.05,.19-.01,.4-.16,.53l-44.04,39.12c-.1,.09-.22,.13-.35,.13Zm-1.96-6.3l2.15,4.9,43.25-38.43-2.78-10.77-42.62,44.3Z"/><path class="cr" d="M95.33,207.59c-.11,0-.23-.04-.32-.11-.21-.16-.27-.46-.13-.69l5.34-8.88s.04-.06,.06-.08l41.46-45.49c.17-.19,.45-.23,.66-.1,.22,.13,.31,.39,.22,.63l-3.29,9.12c-.03,.07-.07,.13-.12,.19l-43.52,45.24c-.1,.11-.24,.16-.38,.16Zm5.77-9.09l-2.9,4.81,40.19-41.78,2.35-6.53-39.64,43.49Z"/><path class="cr" d="M154.49,175h-.03l-12.54-.65c-.2-.01-.38-.14-.46-.32s-.04-.4,.09-.55l18.97-21.29c.17-.19,.44-.23,.65-.11,.22,.12,.32,.37,.25,.61l-6.43,21.94c-.07,.23-.27,.38-.51,.38Zm-11.41-1.65l11.02,.57,5.65-19.29-16.68,18.72Z"/><path class="cr" d="M138.85,162.35c-.13,0-.26-.05-.36-.15-.15-.14-.2-.37-.13-.56l3.29-9.12c.08-.21,.27-.35,.49-.35l18.78-.17c.26,0,.47,.17,.52,.42s-.08,.5-.31,.59l-22.07,9.29c-.07,.03-.14,.04-.21,.04Zm3.66-9.13l-2.75,7.65,18.49-7.78-15.74,.14Z"/></g><g id="by"><polygon class="cr" points="121.09 184.5 126.66 181.47 123.11 186.72 121.09 184.5"/><polygon class="cr" points="120.09 194.89 131.43 188.23 121.9 197.29 120.09 194.89"/></g></g><g id="c`"><path id="ca" class="cr" d="M71.92,155.69c-.71,0-1.41,.28-1.92,.83l-7.27,7.69c-.41,.43-.66,.99-.71,1.58l-.92,10.38c-.06,.63,.11,1.25,.48,1.76l21.7,30.56c.34,.48,.83,.83,1.4,1l8.33,2.49c.25,.07,.5,.11,.76,.11,.03,0,.06,0,.08,0l7.02-.22c1.18-.04,2.19-.86,2.48-2l2.02-8.15c.15-.59,.08-1.21-.17-1.76l-16.41-34.9c-.24-.51-.64-.93-1.13-1.2l-14.47-7.86c-.4-.22-.83-.32-1.26-.32h0Z"/><g id="cb"><polygon class="cs" points="84.51 177.82 83.59 172.51 86.39 166.19 102.8 201.09 100.78 209.24 84.51 177.82"/><polygon class="cs" points="73.69 179.52 79.91 176.02 84.51 177.82 100.78 209.24 93.76 209.46 73.69 179.52"/><polygon class="cs" points="63.73 176.4 73.69 179.52 93.76 209.46 85.43 206.96 63.73 176.4"/><polygon class="cs" points="69.83 168.52 73.69 179.52 79.91 176.02 83.59 172.51 74.77 165.07 69.83 168.52"/><polygon class="cs" points="71.92 158.33 74.77 165.07 69.83 168.52 64.65 166.02 71.92 158.33"/><polygon class="cs" points="64.65 166.02 69.83 168.52 73.69 179.52 63.73 176.4 64.65 166.02"/></g><g id="cc"><path class="cp" d="M86.45,171.28l14.12,30.03-.49,1.98-13.55-26.15-.75-4.35,.67-1.51m-.06-5.09l-2.8,6.32,.91,5.31,16.28,31.42,2.02-8.15-16.41-34.9h0Z"/><path class="cp" d="M80.07,178.35l2.93,1.15,14.37,27.73-2.5,.08-18.15-27.07,3.36-1.89m-.16-2.33l-6.22,3.5,20.08,29.94,7.02-.22-16.28-31.42-4.6-1.8h0Z"/><path class="cp" d="M69.09,180.29l3.26,1.02,16.38,24.43-2-.6-17.65-24.86m-5.35-3.89l21.7,30.56,8.33,2.49-20.08-29.94-9.95-3.12h0Z"/><path class="cp" d="M74.65,167.73l5.78,4.88-1.79,1.7-3.8,2.14-2.49-7.11,2.3-1.61m.12-2.66l-4.94,3.45,3.86,11,6.22-3.5,3.68-3.51-8.82-7.44h0Z"/><path class="cp" d="M76.22,163.07l7.45,4.05-.87,1.97-6.28-5.3-.3-.71m-4.3-4.74l2.85,6.74,8.82,7.44,2.8-6.32-14.47-7.86h0Z"/><path class="cp" d="M71.24,162.13l.93,2.19-2.52,1.76-1.47-.71,3.07-3.24m.69-3.8l-7.27,7.69,5.18,2.5,4.94-3.45-2.85-6.74h0Z"/><path class="cp" d="M66.49,169.25l1.64,.79,2.17,6.2-4.31-1.35,.5-5.64m-1.83-3.23l-.92,10.38,9.95,3.12-3.86-11-5.18-2.5h0Z"/><path class="cp" d="M79.91,176.02l3.68-3.51,.91,5.31-4.6-1.8Z"/></g><g id="cd"><polygon class="cr" points="72.36 169.35 74.85 176.44 78.64 174.3 75.57 174.14 72.36 169.35"/><polygon class="cr" points="76.22 163.07 76.52 163.78 82.8 169.08 83.67 167.12 76.22 163.07"/><polygon class="cr" points="83 179.5 80.07 178.35 77.83 179.61 81.35 180.93 89.23 191.53 83 179.5"/></g><g id="ce"><path class="cp" d="M75.53,172.62l-.81-4.91c-.1-.58,.3-1.13,.88-1.22,.58-.1,1.13,.3,1.22,.88,.01,.09,.02,.18,.01,.26l-.4,4.96c-.02,.25-.24,.43-.49,.41-.21-.02-.38-.18-.41-.38Z"/><path class="cp" d="M81.32,183.29l6.96,2.39c.55,.19,.85,.79,.66,1.35-.19,.55-.79,.85-1.35,.66-.05-.02-.11-.04-.16-.07l-6.47-3.5c-.22-.12-.3-.39-.18-.61,.11-.2,.34-.28,.54-.21Z"/><path class="cp" d="M87.72,193.37l-5.62-1.8c-.56-.18-.87-.78-.69-1.33,.18-.56,.78-.87,1.33-.69,.07,.02,.14,.05,.2,.09l5.13,2.91c.22,.12,.29,.4,.17,.62-.11,.19-.33,.27-.53,.21Z"/></g><g id="cf"><path class="cr" d="M100.78,209.76c-.2,0-.38-.11-.47-.29l-16.28-31.42s-.04-.1-.05-.15l-.92-5.31c-.02-.1,0-.21,.04-.3l2.8-6.32c.08-.19,.27-.31,.48-.31h0c.2,0,.39,.12,.48,.3l16.41,34.9c.05,.11,.06,.23,.04,.35l-2.02,8.15c-.05,.21-.23,.37-.45,.4-.02,0-.04,0-.06,0Zm-15.77-32.11l15.59,30.1,1.64-6.61-15.84-33.68-2.27,5.12,.87,5.07Z"/><path class="cr" d="M93.76,209.99c-.18,0-.34-.09-.44-.23l-20.08-29.94c-.08-.12-.11-.27-.08-.42,.03-.14,.13-.27,.25-.34l6.22-3.5c.14-.08,.31-.09,.45-.03l4.6,1.8c.12,.05,.22,.14,.28,.25l16.28,31.42c.08,.16,.08,.35-.01,.51-.09,.16-.26,.25-.44,.26l-7.02,.22h-.02Zm-19.32-30.29l19.59,29.22,5.89-.19-15.8-30.5-4.18-1.64-5.51,3.1Z"/><path class="cr" d="M93.76,209.99c-.05,0-.1,0-.15-.02l-8.33-2.49c-.11-.03-.21-.1-.28-.2l-21.7-30.56c-.13-.19-.13-.43,0-.62,.13-.18,.37-.26,.58-.19l9.95,3.12c.11,.04,.21,.11,.28,.21l20.08,29.94c.12,.19,.12,.43-.01,.61-.1,.14-.26,.21-.42,.21Zm-8.01-3.48l6.75,2.02-19.15-28.56-8.28-2.6,20.68,29.14Z"/><path class="cr" d="M83.59,173.04c-.12,0-.24-.04-.34-.12l-8.82-7.44c-.06-.05-.11-.12-.15-.2l-2.85-6.74c-.09-.21-.04-.45,.13-.6,.17-.15,.41-.18,.61-.07l14.47,7.86c.24,.13,.34,.43,.23,.68l-2.8,6.32c-.07,.15-.2,.26-.36,.3-.04,0-.08,.01-.12,.01Zm-8.38-8.29l8.18,6.91,2.32-5.23-12.72-6.91,2.21,5.23Z"/><path class="cr" d="M73.69,180.05c-.06,0-.13-.01-.19-.03-.15-.06-.26-.17-.31-.32l-3.86-11c-.08-.22,0-.47,.2-.61l4.94-3.45c.2-.14,.46-.13,.64,.03l8.82,7.44c.11,.1,.18,.24,.19,.39,0,.15-.05,.29-.16,.4l-3.68,3.51s-.07,.06-.11,.08l-6.22,3.5c-.08,.04-.17,.07-.26,.07Zm-3.22-11.32l3.51,10.02,5.62-3.16,3.21-3.05-8.06-6.8-4.28,2.99Z"/><path class="cr" d="M84.51,178.35c-.06,0-.13-.01-.19-.04l-4.6-1.8c-.17-.07-.29-.21-.33-.39-.03-.18,.02-.36,.15-.48l3.68-3.51c.14-.14,.34-.18,.53-.12,.18,.06,.32,.22,.35,.41l.92,5.31c.03,.19-.04,.38-.19,.5-.1,.08-.21,.12-.33,.12Zm-3.63-2.52l2.95,1.16-.59-3.41-2.37,2.25Z"/><path class="cr" d="M69.83,169.05c-.08,0-.16-.02-.23-.05l-5.18-2.5c-.15-.07-.26-.21-.29-.38s.02-.34,.14-.46l7.27-7.69c.12-.13,.3-.19,.48-.16,.18,.03,.32,.15,.39,.31l2.85,6.74c.1,.23,.02,.5-.18,.64l-4.94,3.45c-.09,.06-.2,.09-.3,.09Zm-4.3-3.19l4.25,2.06,4.34-3.03-2.37-5.6-6.22,6.58Z"/><path class="cr" d="M73.69,180.05c-.05,0-.11,0-.16-.02l-9.95-3.12c-.24-.07-.39-.3-.37-.55l.92-10.38c.02-.17,.12-.33,.27-.41,.15-.09,.33-.09,.49-.02l5.18,2.5c.13,.06,.22,.17,.27,.3l3.86,11c.07,.19,.02,.4-.12,.54-.1,.1-.24,.16-.38,.16Zm-9.39-4.03l8.54,2.68-3.43-9.8-4.29-2.08-.81,9.19Z"/></g><g id="cg"><polygon class="cr" points="88.84 210.08 75.88 188.23 91.32 208.4 88.84 210.08"/><polygon class="cr" points="95.32 209.88 88.92 195.09 98.77 207.85 95.32 209.88"/><polygon class="cr" points="94.55 193.65 89.47 180.21 97.23 192.3 94.55 193.65"/></g></g><g id="ch"><path id="ci" class="cr" d="M108.13,175.44c-.37,0-.74,.08-1.09,.23l-11.8,5.33c-1,.45-1.61,1.46-1.55,2.55l1.25,22.35c0,.14,.03,.28,.06,.41l1.63,7.52c.22,1,.99,1.78,1.99,2.01l8.04,1.86c.2,.05,.4,.07,.59,.07,.72,0,1.42-.29,1.92-.83l4.74-5.03c.16-.17,.29-.35,.4-.55l11.15-20.51c.53-.97,.4-2.16-.32-2.99l-8.75-10.11c-.37-.43-.86-.72-1.41-.85l-6.25-1.41c-.19-.04-.39-.06-.58-.06h0Z"/><g id="cj"><polygon class="cs" points="107.09 196.6 110.09 183.83 108.13 178.08 96.32 183.41 107.09 196.6"/><polygon class="cs" points="107.09 196.6 123.13 189.6 114.38 179.49 110.09 183.83 107.09 196.6"/><polygon class="cs" points="123.13 189.6 111.98 210.11 107.24 215.13 107.09 196.6 123.13 189.6"/><polygon class="cs" points="99.2 213.28 97.58 205.76 96.32 183.41 107.09 196.6 99.2 213.28"/></g><g id="ck"><path class="cp" d="M106.88,180.96l1.01,2.97-1.88,8.01-6.31-7.74,7.18-3.24m1.25-2.88l-11.8,5.33,10.76,13.2,3-12.78-1.96-5.75h0Z"/><path class="cp" d="M114.27,182.6l5.38,6.21-9.55,4.17,1.9-8.09,2.27-2.29m.1-3.11l-4.29,4.34-3,12.78,16.04-7-8.75-10.11h0Z"/><path class="cp" d="M98.8,189.78l5.81,7.12-4.66,9.85-.28-1.28-.88-15.69m-2.47-6.37l1.25,22.35,1.63,7.52,7.88-16.67-10.76-13.2h0Z"/><path class="cp" d="M118.33,194l-8.08,14.86-.94,1-.1-11.88,9.12-3.98m4.8-4.4l-16.04,7,.16,18.53,4.74-5.03,11.15-20.51h0Z"/><path class="cp" d="M114.38,179.49l-4.29,4.34-1.96-5.75,6.25,1.41Z"/><path class="cp" d="M105.05,205.85l.06,6.62-2.87-.66,2.82-5.96m2.03-9.25l-7.88,16.67,8.04,1.86-.16-18.53h0Z"/></g><g id="cl"><polygon class="cr" points="106.87 180.96 99.7 184.2 106.01 191.95 102.88 184.92 106.87 180.96"/><polygon class="cr" points="112.01 184.89 110.1 192.98 119.65 188.81 112.49 190.12 112.01 184.89"/><polygon class="cr" points="104.61 196.9 98.79 189.78 102.56 196.99 100.88 204.78 104.61 196.9"/></g><g id="cm"><path class="cp" d="M101.17,196.32l3.07,3.21c.41,.43,.39,1.1-.03,1.51-.43,.41-1.1,.39-1.51-.03-.07-.07-.13-.15-.17-.24l-2.09-3.92c-.12-.22-.03-.5,.19-.61,.18-.1,.4-.06,.54,.09Z"/><path class="cp" d="M116.27,187.51l-5.89,2.85c-.53,.26-1.16,.03-1.42-.49-.26-.53-.03-1.16,.49-1.42,.06-.03,.12-.05,.18-.07l6.32-1.72c.24-.07,.49,.08,.55,.32,.06,.21-.05,.43-.24,.52Z"/><path class="cp" d="M111.39,199.8l5.41-2.6c.53-.25,1.16-.03,1.42,.5s.03,1.16-.5,1.42c-.06,.03-.14,.06-.2,.07l-5.82,1.46c-.24,.06-.49-.09-.55-.33-.05-.21,.05-.43,.24-.52Z"/></g><g id="cn"><path class="cr" d="M107.09,197.13c-.16,0-.31-.07-.41-.19l-10.76-13.2c-.1-.13-.14-.3-.1-.46,.04-.16,.15-.29,.3-.36l11.8-5.33c.13-.06,.29-.06,.43,0,.14,.06,.24,.17,.29,.31l1.96,5.75c.03,.09,.04,.19,.01,.29l-3,12.78c-.05,.2-.2,.35-.39,.39-.04,0-.08,.01-.12,.01Zm-9.92-13.52l9.65,11.83,2.72-11.58-1.72-5.05-10.65,4.81Z"/><path class="cr" d="M107.09,197.13c-.12,0-.24-.04-.34-.12-.15-.13-.22-.33-.18-.53l3-12.78c.02-.09,.07-.18,.14-.25l4.29-4.34c.1-.1,.25-.16,.39-.16,.15,0,.29,.07,.38,.18l8.75,10.11c.11,.13,.15,.3,.12,.46-.04,.16-.15,.3-.3,.37l-16.04,7c-.07,.03-.14,.04-.21,.04Zm3.48-13.04l-2.73,11.6,14.42-6.29-7.91-9.13-3.78,3.82Z"/><path class="cr" d="M99.2,213.8s-.04,0-.06,0c-.22-.03-.41-.19-.46-.41l-1.63-7.52-1.26-22.43c-.01-.23,.12-.44,.34-.52,.21-.08,.46-.02,.6,.16l10.76,13.2c.13,.16,.16,.38,.07,.56l-7.88,16.67c-.09,.19-.28,.3-.48,.3Zm-2.26-28.8l1.16,20.73,1.29,5.92,7.08-14.97-9.52-11.68Z"/><path class="cr" d="M107.24,215.66c-.06,0-.13-.01-.19-.04-.2-.08-.33-.27-.34-.49l-.16-18.53c0-.21,.12-.4,.32-.49l16.04-7c.2-.09,.45-.04,.6,.13,.15,.17,.18,.41,.07,.61l-11.15,20.51s-.05,.08-.08,.11l-4.74,5.03c-.1,.11-.24,.17-.38,.17Zm.38-18.71l.14,16.87,3.79-4.02,10.38-19.1-14.31,6.25Z"/><path class="cr" d="M110.09,184.35s-.08,0-.12-.01c-.18-.04-.32-.17-.38-.34l-1.96-5.75c-.06-.18-.02-.38,.11-.52,.13-.14,.32-.21,.51-.16l6.25,1.41c.19,.04,.34,.18,.39,.37,.05,.18,0,.38-.13,.52l-4.29,4.34c-.1,.1-.24,.16-.38,.16Zm-1.16-5.55l1.38,4.05,3.02-3.05-4.4-.99Z"/><polygon class="ct" points="107.09 196.6 99.2 213.28 107.24 215.13 107.09 196.6"/></g><g id="co"><polygon class="cr" points="96.45 211.26 100.53 200.58 99.37 211.95 96.45 211.26"/><polygon class="cr" points="108.9 212.82 111.25 202.91 111.89 213.08 108.9 212.82"/><polygon class="cr" points="101.22 213.9 105.06 205.87 105.12 214.78 101.22 213.9"/></g></g></g></g></g></svg>