<?xml version="1.0" encoding="UTF-8"?><svg xmlns="http://www.w3.org/2000/svg" viewBox="0 0 64.44 64.44"><defs><style>.d{fill:#fff;}.e{fill:#100c08;}</style></defs><g id="a"/><g id="b"><g id="c"><path class="e" d="M32.22,0C14.45,0,0,14.45,0,32.22s14.45,32.22,32.22,32.22,32.22-14.45,32.22-32.22S49.99,0,32.22,0h0Z"/><circle class="d" cx="32.22" cy="32.22" r="28.22"/><path class="e" d="M32.97,3.85s0,.1,0,.15l-.71,7.02s-.02,.03-.04,.03c-.02,0-.03-.02-.03-.03l-.71-7.02c-.04-.41,.26-.78,.67-.82,.41-.04,.78,.26,.82,.67Zm-.74,49.54s-.04,.01-.04,.03l-.71,7.02s0,.1,0,.15c.04,.41,.41,.71,.82,.67,.41-.04,.71-.41,.67-.82l-.71-7.02s-.01-.03-.03-.03Zm28.22-21.91l-7.02,.71s-.03,.01-.03,.03c0,.02,.01,.04,.03,.04l7.02,.71s.1,0,.15,0c.41-.04,.71-.41,.67-.82s-.41-.71-.82-.67Zm-56.44,1.49l7.02-.71s.03-.01,.03-.03c0-.02-.01-.04-.03-.04l-7.02-.71s-.1,0-.15,0c-.41,.04-.71,.41-.67,.82,.04,.41,.41,.71,.82,.67Zm43.19-15.71s.03,.02,.05,0l5.47-4.46s.07-.07,.11-.11c.26-.32,.21-.79-.11-1.05-.32-.26-.79-.21-1.05,.11l-4.46,5.47s-.01,.03,0,.04Zm-29.93,29.94s-.03-.02-.05,0l-5.47,4.46s-.07,.07-.11,.11c-.26,.32-.21,.79,.11,1.05,.32,.26,.79,.21,1.05-.11l4.46-5.47s.01-.03,0-.04Zm29.98,0s-.03-.01-.04,0c-.02,.01-.02,.03,0,.05l4.46,5.47s.07,.07,.11,.11c.32,.26,.79,.21,1.05-.11,.26-.32,.21-.79-.11-1.05l-5.47-4.46ZM17.21,17.26s.03,.01,.04,0c.02-.01,.02-.03,0-.05l-4.46-5.47s-.07-.07-.11-.11c-.32-.26-.79-.21-1.05,.11-.26,.32-.21,.79,.11,1.05l5.47,4.46Zm6.87-4.61s.03,.02,.04,.02c.02,0,.03-.03,.02-.04l-2.03-6.76s-.03-.1-.06-.14c-.2-.36-.65-.5-1.01-.3s-.5,.65-.3,1.01l3.34,6.22Zm16.29,39.14s-.03-.02-.04-.02c-.02,0-.03,.03-.02,.04l2.03,6.76s.03,.1,.06,.14c.2,.36,.65,.5,1.01,.3s.5-.65,.3-1.01l-3.34-6.22Zm11.41-27.68s.03,.03,.04,.02l6.76-2.03s.1-.03,.14-.06c.36-.2,.5-.65,.3-1.01-.2-.36-.65-.5-1.01-.3l-6.22,3.34s-.02,.02-.02,.04ZM12.67,40.33s-.03-.03-.04-.02l-6.76,2.03s-.1,.03-.14,.06c-.36,.2-.5,.65-.3,1.01,.2,.36,.65,.5,1.01,.3l6.22-3.34s.02-.02,.02-.04ZM40.32,12.67s.04,0,.05-.01l3.34-6.22s.04-.09,.06-.14c.12-.4-.11-.81-.5-.93-.4-.12-.81,.11-.93,.5l-2.03,6.76s0,.03,.02,.04ZM24.13,51.78s-.04,0-.05,.01l-3.34,6.22s-.04,.09-.06,.14c-.12,.4,.11,.81,.5,.93,.4,.12,.81-.11,.93-.5l2.03-6.76s0-.03-.02-.04Zm34.46-9.45l-6.76-2.03s-.03,0-.04,.02c0,.02,0,.04,.01,.05l6.22,3.34s.09,.04,.14,.06c.4,.12,.81-.11,.93-.5,.12-.4-.11-.81-.5-.93ZM5.86,22.11l6.76,2.03s.03,0,.04-.02c0-.02,0-.04-.01-.05l-6.22-3.34s-.09-.04-.14-.06c-.4-.12-.81,.11-.93,.5-.12,.4,.11,.81,.5,.93ZM27.42,4.25c-.12-.4-.54-.62-.94-.5-.4,.12-.62,.54-.5,.94l2.07,6.75s.02,.03,.04,.02c.02,0,.03-.02,.03-.04l-.67-7.03s-.01-.1-.03-.15Zm8.97,48.76s-.02-.03-.04-.02c-.02,0-.03,.02-.03,.04l.67,7.03s.01,.1,.03,.15c.12,.4,.54,.62,.94,.5s.62-.54,.5-.94l-2.07-6.75Zm23.36-27.02l-6.75,2.07s-.03,.02-.02,.04c0,.02,.02,.03,.04,.03l7.03-.67s.1-.01,.15-.03c.4-.12,.62-.54,.5-.94-.12-.4-.54-.62-.94-.5ZM4.69,38.46l6.75-2.07s.03-.02,.02-.04c0-.02-.02-.03-.04-.03l-7.03,.67s-.1,.01-.15,.03c-.4,.12-.62,.54-.5,.94s.54,.62,.94,.5ZM43.98,14.62s.04,.01,.05,0l4.49-5.45s.06-.08,.08-.13c.19-.37,.06-.82-.31-1.01-.37-.19-.82-.06-1.01,.31l-3.31,6.23s0,.03,0,.04ZM20.47,49.82s-.04-.01-.05,0l-4.49,5.45s-.06,.08-.08,.13c-.19,.37-.06,.82,.31,1.01,.37,.19,.82,.06,1.01-.31l3.31-6.23s0-.03,0-.04Zm35.64-2.54l-6.23-3.31s-.03,0-.04,0c-.01,.02-.01,.04,0,.05l5.45,4.49s.08,.06,.13,.08c.37,.19,.82,.06,1.01-.31,.19-.37,.06-.82-.31-1.01ZM8.34,17.16l6.23,3.31s.03,0,.04,0c.01-.02,.01-.04,0-.05l-5.45-4.49s-.08-.06-.13-.08c-.37-.19-.82-.06-1.01,.31-.19,.37-.06,.82,.31,1.01Zm12.07-2.55s.03,.02,.04,0c.02,0,.02-.03,.01-.05l-3.31-6.23s-.05-.09-.08-.13c-.26-.32-.74-.36-1.05-.1-.32,.26-.36,.74-.1,1.05l4.49,5.45Zm23.61,35.21s-.03-.02-.04,0c-.02,0-.02,.03-.01,.05l3.31,6.23s.05,.09,.08,.13c.26,.32,.74,.36,1.05,.1,.32-.26,.36-.74,.1-1.05l-4.49-5.45Zm5.79-29.37s.03,.02,.05,.01l6.23-3.31s.09-.05,.13-.08c.32-.26,.36-.74,.1-1.05-.26-.32-.74-.36-1.05-.1l-5.45,4.49s-.02,.03,0,.04ZM14.62,43.99s-.03-.02-.05-.01l-6.23,3.31s-.09,.05-.13,.08c-.32,.26-.36,.74-.1,1.05,.26,.32,.74,.36,1.05,.1l5.45-4.49s.02-.03,0-.04ZM37.81,3.72c-.41-.04-.78,.26-.82,.67l-.67,7.03s0,.03,.02,.04c.02,0,.04,0,.04-.02l2.07-6.75s.02-.1,.03-.15c.04-.41-.26-.78-.67-.82Zm-9.76,49.28l-2.07,6.75s-.02,.1-.03,.15c-.04,.41,.26,.78,.67,.82,.41,.04,.78-.26,.82-.67l.67-7.03s0-.03-.02-.04c-.02,0-.04,0-.04,.02Zm32-16.01l-7.03-.67s-.03,0-.04,.02c0,.02,0,.04,.02,.04l6.75,2.07s.1,.02,.15,.03c.41,.04,.78-.26,.82-.67,.04-.41-.26-.78-.67-.82ZM4.4,27.45l7.03,.67s.03,0,.04-.02c0-.02,0-.04-.02-.04l-6.75-2.07s-.1-.02-.15-.03c-.41-.04-.78,.26-.82,.67-.04,.41,.26,.78,.67,.82ZM29.23,3.27c-.4,.12-.63,.54-.52,.94l1.08,3.76s.02,.02,.03,.03c.02,0,.04-.01,.04-.03l.33-3.89c0-.09,0-.18-.03-.27-.12-.4-.54-.63-.94-.52Zm5.41,53.21s-.02-.02-.03-.03c-.02,0-.04,.01-.04,.03l-.33,3.89c0,.09,0,.18,.03,.27,.12,.4,.54,.63,.94,.52,.4-.12,.63-.54,.52-.94l-1.08-3.76Zm25.59-27.77l-3.76,1.08s-.02,.02-.03,.03c0,.02,.01,.04,.03,.04l3.89,.33c.09,0,.18,0,.27-.03,.4-.12,.63-.54,.52-.94-.12-.4-.54-.63-.94-.52ZM4.21,35.73l3.76-1.08s.02-.02,.03-.03c0-.02-.01-.04-.03-.04l-3.89-.33c-.09,0-.18,0-.27,.03-.4,.12-.63,.54-.52,.94,.12,.4,.54,.63,.94,.52ZM47.66,13.4s.04,.02,.05,0l2.99-2.52c.07-.06,.13-.13,.17-.21,.2-.37,.07-.83-.3-1.03-.37-.2-.83-.07-1.03,.3l-1.89,3.42s0,.03,0,.04ZM16.78,51.05s-.04-.02-.05,0l-2.99,2.52c-.07,.06-.13,.13-.17,.21-.2,.37-.07,.83,.3,1.03,.37,.2,.83,.07,1.03-.3l1.89-3.42s0-.03,0-.04Zm37.73-1.5l-3.42-1.89s-.03,0-.04,0c-.02,.01-.02,.04,0,.05l2.52,2.99c.06,.07,.13,.13,.21,.17,.37,.2,.83,.07,1.03-.3,.2-.37,.07-.83-.3-1.03ZM9.93,14.89l3.42,1.89s.03,0,.04,0c.02-.01,.02-.04,0-.05l-2.52-2.99c-.06-.07-.13-.13-.21-.17-.37-.2-.83-.07-1.03,.3-.2,.37-.07,.83,.3,1.03Zm10.77-4.16s.02,.02,.04,.01c.02,0,.03-.03,.02-.04l-1.19-3.72c-.03-.08-.07-.17-.13-.24-.26-.33-.74-.38-1.06-.12-.33,.26-.38,.74-.12,1.06l2.44,3.06Zm23.05,42.97s-.02-.02-.04-.01c-.02,0-.03,.03-.02,.04l1.19,3.72c.03,.08,.07,.17,.13,.24,.26,.33,.74,.38,1.06,.12,.33-.26,.38-.74,.12-1.06l-2.44-3.06Zm9.95-32.97s.03,.03,.04,.02l3.72-1.19c.08-.03,.17-.07,.24-.13,.33-.26,.38-.74,.12-1.06s-.74-.38-1.06-.12l-3.06,2.44s-.02,.02-.01,.04ZM10.75,43.71s-.03-.03-.04-.02l-3.72,1.19c-.08,.03-.17,.07-.24,.13-.33,.26-.38,.74-.12,1.06s.74,.38,1.06,.12l3.06-2.44s.02-.02,.01-.04ZM39.33,8.9l1.8-3.47c.04-.08,.07-.17,.08-.26,.05-.42-.25-.79-.67-.84-.42-.05-.79,.25-.84,.67l-.44,3.88s0,.03,.02,.04c.02,0,.04,0,.05-.02Zm-14.22,46.64l-1.8,3.47c-.04,.08-.07,.17-.08,.26-.05,.42,.25,.79,.67,.84,.42,.05,.79-.25,.84-.67l.44-3.88s0-.03-.02-.04c-.02,0-.04,0-.05,.02Zm34.33-15.84l-3.88-.44s-.03,0-.04,.02c0,.02,0,.04,.02,.05l3.47,1.8c.08,.04,.17,.07,.26,.08,.42,.05,.79-.25,.84-.67,.05-.42-.25-.79-.67-.84ZM5,24.74l3.88,.44s.03,0,.04-.02c0-.02,0-.04-.02-.05l-3.47-1.8c-.08-.04-.17-.07-.26-.08-.42-.05-.79,.25-.84,.67-.05,.42,.25,.79,.67,.84ZM24.66,4.74c-.19-.37-.65-.52-1.02-.33-.37,.19-.52,.65-.33,1.02l1.8,3.47s.02,.02,.04,.02c.02,0,.03-.02,.03-.04l-.44-3.88c-.01-.09-.04-.18-.08-.26Zm14.67,50.81s-.02-.02-.04-.02c-.02,0-.03,.02-.03,.04l.44,3.88c.01,.09,.04,.18,.08,.26,.19,.37,.65,.52,1.02,.33,.37-.19,.52-.65,.33-1.02l-1.8-3.47Zm16.21-30.43s-.02,.02-.02,.04c0,.02,.02,.03,.04,.03l3.88-.44c.09-.01,.18-.04,.26-.08,.37-.19,.52-.65,.32-1.02s-.65-.52-1.02-.33l-3.47,1.8ZM8.9,39.33s.02-.02,.02-.04c0-.02-.02-.03-.04-.03l-3.88,.44c-.09,.01-.18,.04-.26,.08-.37,.19-.52,.65-.32,1.02,.19,.37,.65,.52,1.02,.33l3.47-1.8ZM43.7,10.74s.04,0,.05,0l2.44-3.06c.06-.07,.1-.15,.13-.24,.13-.4-.09-.82-.49-.95s-.82,.09-.95,.49l-1.19,3.72s0,.03,.01,.04ZM20.75,53.7s-.04,0-.05,0l-2.44,3.06c-.06,.07-.1,.15-.13,.24-.13,.4,.09,.82,.49,.95s.82-.09,.95-.49l1.19-3.72s0-.03-.01-.04Zm36.71-8.83l-3.72-1.19s-.03,0-.04,.01c-.01,.02,0,.04,0,.05l3.06,2.44c.07,.06,.15,.1,.24,.13,.4,.13,.82-.09,.95-.49s-.09-.82-.49-.95ZM6.98,19.58l3.72,1.19s.03,0,.04-.01c.01-.02,0-.04,0-.05l-3.06-2.44c-.07-.06-.15-.1-.24-.13-.4-.13-.82,.09-.95,.49s.09,.82,.49,.95Zm9.75-6.18s.03,.01,.04,0c.02,0,.02-.03,.01-.05l-1.89-3.42c-.04-.08-.1-.15-.17-.21-.32-.27-.8-.23-1.07,.09-.27,.32-.23,.8,.09,1.07l2.99,2.52Zm30.99,37.65s-.03-.01-.04,0c-.02,0-.02,.03-.01,.05l1.89,3.42c.04,.08,.1,.15,.17,.21,.32,.27,.8,.23,1.07-.09,.27-.32,.23-.8-.09-1.07l-2.99-2.52Zm3.33-34.27s.03,.02,.05,.01l3.42-1.89c.08-.04,.15-.1,.21-.17,.27-.32,.23-.8-.09-1.07s-.8-.23-1.07,.09l-2.52,2.99s-.01,.03,0,.04ZM13.4,47.67s-.03-.02-.05-.01l-3.42,1.89c-.08,.04-.15,.1-.21,.17-.27,.32-.23,.8,.09,1.07s.8,.23,1.07-.09l2.52-2.99s.01-.03,0-.04ZM34.94,3.24c-.42,.04-.73,.4-.69,.82l.33,3.89s.01,.03,.03,.03c.02,0,.04,0,.04-.02l1.08-3.76c.02-.09,.03-.18,.03-.27-.04-.42-.4-.73-.82-.69Zm-5.1,53.21s-.04,0-.04,.02l-1.08,3.76c-.02,.09-.03,.18-.03,.27,.04,.42,.4,.73,.82,.69,.42-.04,.73-.4,.69-.82l-.33-3.89s-.01-.03-.03-.03Zm30.54-22.21l-3.89,.33s-.03,.01-.03,.03c0,.02,0,.04,.02,.04l3.76,1.08c.09,.02,.18,.03,.27,.03,.42-.04,.73-.4,.69-.82-.04-.42-.4-.73-.82-.69ZM4.06,30.2l3.89-.33s.03-.01,.03-.03c0-.02,0-.04-.02-.04l-3.76-1.08c-.09-.02-.18-.03-.27-.03-.42,.04-.73,.4-.69,.82,.04,.42,.4,.73,.82,.69Z"/></g></g></svg>