<?xml version="1.0" encoding="UTF-8"?><svg xmlns="http://www.w3.org/2000/svg" viewBox="0 0 573.64 213.59"><defs><style>.d{fill:#fff;}.e{fill:#100c08;}</style></defs><g id="a"/><g id="b"><g id="c"><path class="e" d="M541.42,149.14c-17.77,0-32.22,14.45-32.22,32.22s14.45,32.22,32.22,32.22,32.22-14.45,32.22-32.22-14.45-32.22-32.22-32.22h0Z"/><circle class="d" cx="541.42" cy="181.37" r="28.22"/><path class="e" d="M542.16,152.99s0,.1,0,.15l-.71,7.02s-.02,.03-.04,.03c-.02,0-.03-.02-.03-.03l-.71-7.02c-.04-.41,.26-.78,.67-.82,.41-.04,.78,.26,.82,.67Zm-.74,49.54s-.04,.01-.04,.03l-.71,7.02s0,.1,0,.15c.04,.41,.41,.71,.82,.67,.41-.04,.71-.41,.67-.82l-.71-7.02s-.01-.03-.03-.03Zm28.22-21.91l-7.02,.71s-.03,.01-.03,.03c0,.02,.01,.04,.03,.04l7.02,.71s.1,0,.15,0c.41-.04,.71-.41,.67-.82s-.41-.71-.82-.67Zm-56.44,1.49l7.02-.71s.03-.01,.03-.03c0-.02-.01-.04-.03-.04l-7.02-.71s-.1,0-.15,0c-.41,.04-.71,.41-.67,.82,.04,.41,.41,.71,.82,.67Zm43.19-15.71s.03,.02,.05,0l5.47-4.46s.07-.07,.11-.11c.26-.32,.21-.79-.11-1.05-.32-.26-.79-.21-1.05,.11l-4.46,5.47s-.01,.03,0,.04Zm-29.93,29.94s-.03-.02-.05,0l-5.47,4.46s-.07,.07-.11,.11c-.26,.32-.21,.79,.11,1.05,.32,.26,.79,.21,1.05-.11l4.46-5.47s.01-.03,0-.04Zm29.98,0s-.03-.01-.04,0c-.02,.01-.02,.03,0,.05l4.46,5.47s.07,.07,.11,.11c.32,.26,.79,.21,1.05-.11,.26-.32,.21-.79-.11-1.05l-5.47-4.46Zm-30.03-29.93s.03,.01,.04,0c.02-.01,.02-.03,0-.05l-4.46-5.47s-.07-.07-.11-.11c-.32-.26-.79-.21-1.05,.11-.26,.32-.21,.79,.11,1.05l5.47,4.46Zm6.87-4.61s.03,.02,.04,.02c.02,0,.03-.03,.02-.04l-2.03-6.76s-.03-.1-.06-.14c-.2-.36-.65-.5-1.01-.3s-.5,.65-.3,1.01l3.34,6.22Zm16.29,39.14s-.03-.02-.04-.02c-.02,0-.03,.03-.02,.04l2.03,6.76s.03,.1,.06,.14c.2,.36,.65,.5,1.01,.3s.5-.65,.3-1.01l-3.34-6.22Zm11.41-27.68s.03,.03,.04,.02l6.76-2.03s.1-.03,.14-.06c.36-.2,.5-.65,.3-1.01-.2-.36-.65-.5-1.01-.3l-6.22,3.34s-.02,.02-.02,.04Zm-39.11,16.21s-.03-.03-.04-.02l-6.76,2.03s-.1,.03-.14,.06c-.36,.2-.5,.65-.3,1.01,.2,.36,.65,.5,1.01,.3l6.22-3.34s.02-.02,.02-.04Zm27.65-27.66s.04,0,.05-.01l3.34-6.22s.04-.09,.06-.14c.12-.4-.11-.81-.5-.93-.4-.12-.81,.11-.93,.5l-2.03,6.76s0,.03,.02,.04Zm-16.19,39.11s-.04,0-.05,.01l-3.34,6.22s-.04,.09-.06,.14c-.12,.4,.11,.81,.5,.93,.4,.12,.81-.11,.93-.5l2.03-6.76s0-.03-.02-.04Zm34.46-9.45l-6.76-2.03s-.03,0-.04,.02c0,.02,0,.04,.01,.05l6.22,3.34s.09,.04,.14,.06c.4,.12,.81-.11,.93-.5,.12-.4-.11-.81-.5-.93Zm-52.72-20.22l6.76,2.03s.03,0,.04-.02c0-.02,0-.04-.01-.05l-6.22-3.34s-.09-.04-.14-.06c-.4-.12-.81,.11-.93,.5-.12,.4,.11,.81,.5,.93Zm21.55-17.86c-.12-.4-.54-.62-.94-.5-.4,.12-.62,.54-.5,.94l2.07,6.75s.02,.03,.04,.02c.02,0,.03-.02,.03-.04l-.67-7.03s-.01-.1-.03-.15Zm8.97,48.76s-.02-.03-.04-.02c-.02,0-.03,.02-.03,.04l.67,7.03s.01,.1,.03,.15c.12,.4,.54,.62,.94,.5s.62-.54,.5-.94l-2.07-6.75Zm23.36-27.02l-6.75,2.07s-.03,.02-.02,.04c0,.02,.02,.03,.04,.03l7.03-.67s.1-.01,.15-.03c.4-.12,.62-.54,.5-.94-.12-.4-.54-.62-.94-.5Zm-55.07,12.47l6.75-2.07s.03-.02,.02-.04c0-.02-.02-.03-.04-.03l-7.03,.67s-.1,.01-.15,.03c-.4,.12-.62,.54-.5,.94s.54,.62,.94,.5Zm39.29-23.84s.04,.01,.05,0l4.49-5.45s.06-.08,.08-.13c.19-.37,.06-.82-.31-1.01-.37-.19-.82-.06-1.01,.31l-3.31,6.23s0,.03,0,.04Zm-23.51,35.2s-.04-.01-.05,0l-4.49,5.45s-.06,.08-.08,.13c-.19,.37-.06,.82,.31,1.01,.37,.19,.82,.06,1.01-.31l3.31-6.23s0-.03,0-.04Zm35.64-2.54l-6.23-3.31s-.03,0-.04,0c-.01,.02-.01,.04,0,.05l5.45,4.49s.08,.06,.13,.08c.37,.19,.82,.06,1.01-.31,.19-.37,.06-.82-.31-1.01Zm-47.76-30.12l6.23,3.31s.03,0,.04,0c.01-.02,.01-.04,0-.05l-5.45-4.49s-.08-.06-.13-.08c-.37-.19-.82-.06-1.01,.31-.19,.37-.06,.82,.31,1.01Zm12.07-2.55s.03,.02,.04,0c.02,0,.02-.03,.01-.05l-3.31-6.23s-.05-.09-.08-.13c-.26-.32-.74-.36-1.05-.1-.32,.26-.36,.74-.1,1.05l4.49,5.45Zm23.61,35.21s-.03-.02-.04,0c-.02,0-.02,.03-.01,.05l3.31,6.23s.05,.09,.08,.13c.26,.32,.74,.36,1.05,.1,.32-.26,.36-.74,.1-1.05l-4.49-5.45Zm5.79-29.37s.03,.02,.05,.01l6.23-3.31s.09-.05,.13-.08c.32-.26,.36-.74,.1-1.05-.26-.32-.74-.36-1.05-.1l-5.45,4.49s-.02,.03,0,.04Zm-35.2,23.53s-.03-.02-.05-.01l-6.23,3.31s-.09,.05-.13,.08c-.32,.26-.36,.74-.1,1.05,.26,.32,.74,.36,1.05,.1l5.45-4.49s.02-.03,0-.04Zm23.19-40.26c-.41-.04-.78,.26-.82,.67l-.67,7.03s0,.03,.02,.04c.02,0,.04,0,.04-.02l2.07-6.75s.02-.1,.03-.15c.04-.41-.26-.78-.67-.82Zm-9.76,49.28l-2.07,6.75s-.02,.1-.03,.15c-.04,.41,.26,.78,.67,.82,.41,.04,.78-.26,.82-.67l.67-7.03s0-.03-.02-.04c-.02,0-.04,0-.04,.02Zm32-16.01l-7.03-.67s-.03,0-.04,.02c0,.02,0,.04,.02,.04l6.75,2.07s.1,.02,.15,.03c.41,.04,.78-.26,.82-.67,.04-.41-.26-.78-.67-.82Zm-55.65-9.55l7.03,.67s.03,0,.04-.02c0-.02,0-.04-.02-.04l-6.75-2.07s-.1-.02-.15-.03c-.41-.04-.78,.26-.82,.67-.04,.41,.26,.78,.67,.82Zm24.84-24.18c-.4,.12-.63,.54-.52,.94l1.08,3.76s.02,.02,.03,.03c.02,0,.04-.01,.04-.03l.33-3.89c0-.09,0-.18-.03-.27-.12-.4-.54-.63-.94-.52Zm5.41,53.21s-.02-.02-.03-.03c-.02,0-.04,.01-.04,.03l-.33,3.89c0,.09,0,.18,.03,.27,.12,.4,.54,.63,.94,.52,.4-.12,.63-.54,.52-.94l-1.08-3.76Zm25.59-27.77l-3.76,1.08s-.02,.02-.03,.03c0,.02,.01,.04,.03,.04l3.89,.33c.09,0,.18,0,.27-.03,.4-.12,.63-.54,.52-.94-.12-.4-.54-.63-.94-.52Zm-56.03,7.02l3.76-1.08s.02-.02,.03-.03c0-.02-.01-.04-.03-.04l-3.89-.33c-.09,0-.18,0-.27,.03-.4,.12-.63,.54-.52,.94,.12,.4,.54,.63,.94,.52Zm43.46-22.33s.04,.02,.05,0l2.99-2.52c.07-.06,.13-.13,.17-.21,.2-.37,.07-.83-.3-1.03-.37-.2-.83-.07-1.03,.3l-1.89,3.42s0,.03,0,.04Zm-30.88,37.65s-.04-.02-.05,0l-2.99,2.52c-.07,.06-.13,.13-.17,.21-.2,.37-.07,.83,.3,1.03,.37,.2,.83,.07,1.03-.3l1.89-3.42s0-.03,0-.04Zm37.73-1.5l-3.42-1.89s-.03,0-.04,0c-.02,.01-.02,.04,0,.05l2.52,2.99c.06,.07,.13,.13,.21,.17,.37,.2,.83,.07,1.03-.3,.2-.37,.07-.83-.3-1.03Zm-44.58-34.66l3.42,1.89s.03,0,.04,0c.02-.01,.02-.04,0-.05l-2.52-2.99c-.06-.07-.13-.13-.21-.17-.37-.2-.83-.07-1.03,.3-.2,.37-.07,.83,.3,1.03Zm10.77-4.16s.02,.02,.04,.01c.02,0,.03-.03,.02-.04l-1.19-3.72c-.03-.08-.07-.17-.13-.24-.26-.33-.74-.38-1.06-.12-.33,.26-.38,.74-.12,1.06l2.44,3.06Zm23.05,42.97s-.02-.02-.04-.01c-.02,0-.03,.03-.02,.04l1.19,3.72c.03,.08,.07,.17,.13,.24,.26,.33,.74,.38,1.06,.12,.33-.26,.38-.74,.12-1.06l-2.44-3.06Zm9.95-32.97s.03,.03,.04,.02l3.72-1.19c.08-.03,.17-.07,.24-.13,.33-.26,.38-.74,.12-1.06s-.74-.38-1.06-.12l-3.06,2.44s-.02,.02-.01,.04Zm-42.94,22.97s-.03-.03-.04-.02l-3.72,1.19c-.08,.03-.17,.07-.24,.13-.33,.26-.38,.74-.12,1.06s.74,.38,1.06,.12l3.06-2.44s.02-.02,.01-.04Zm28.58-34.8l1.8-3.47c.04-.08,.07-.17,.08-.26,.05-.42-.25-.79-.67-.84-.42-.05-.79,.25-.84,.67l-.44,3.88s0,.03,.02,.04c.02,0,.04,0,.05-.02Zm-14.22,46.64l-1.8,3.47c-.04,.08-.07,.17-.08,.26-.05,.42,.25,.79,.67,.84,.42,.05,.79-.25,.84-.67l.44-3.88s0-.03-.02-.04c-.02,0-.04,0-.05,.02Zm34.33-15.84l-3.88-.44s-.03,0-.04,.02c0,.02,0,.04,.02,.05l3.47,1.8c.08,.04,.17,.07,.26,.08,.42,.05,.79-.25,.84-.67,.05-.42-.25-.79-.67-.84Zm-54.45-14.96l3.88,.44s.03,0,.04-.02c0-.02,0-.04-.02-.05l-3.47-1.8c-.08-.04-.17-.07-.26-.08-.42-.05-.79,.25-.84,.67-.05,.42,.25,.79,.67,.84Zm19.66-20.01c-.19-.37-.65-.52-1.02-.33-.37,.19-.52,.65-.33,1.02l1.8,3.47s.02,.02,.04,.02c.02,0,.03-.02,.03-.04l-.44-3.88c-.01-.09-.04-.18-.08-.26Zm14.67,50.81s-.02-.02-.04-.02c-.02,0-.03,.02-.03,.04l.44,3.88c.01,.09,.04,.18,.08,.26,.19,.37,.65,.52,1.02,.33,.37-.19,.52-.65,.33-1.02l-1.8-3.47Zm16.21-30.43s-.02,.02-.02,.04c0,.02,.02,.03,.04,.03l3.88-.44c.09-.01,.18-.04,.26-.08,.37-.19,.52-.65,.32-1.02s-.65-.52-1.02-.33l-3.47,1.8Zm-46.64,14.22s.02-.02,.02-.04c0-.02-.02-.03-.04-.03l-3.88,.44c-.09,.01-.18,.04-.26,.08-.37,.19-.52,.65-.32,1.02,.19,.37,.65,.52,1.02,.33l3.47-1.8Zm34.79-28.59s.04,0,.05,0l2.44-3.06c.06-.07,.1-.15,.13-.24,.13-.4-.09-.82-.49-.95s-.82,.09-.95,.49l-1.19,3.72s0,.03,.01,.04Zm-22.95,42.96s-.04,0-.05,0l-2.44,3.06c-.06,.07-.1,.15-.13,.24-.13,.4,.09,.82,.49,.95s.82-.09,.95-.49l1.19-3.72s0-.03-.01-.04Zm36.71-8.83l-3.72-1.19s-.03,0-.04,.01c-.01,.02,0,.04,0,.05l3.06,2.44c.07,.06,.15,.1,.24,.13,.4,.13,.82-.09,.95-.49s-.09-.82-.49-.95Zm-50.48-25.29l3.72,1.19s.03,0,.04-.01c.01-.02,0-.04,0-.05l-3.06-2.44c-.07-.06-.15-.1-.24-.13-.4-.13-.82,.09-.95,.49s.09,.82,.49,.95Zm9.75-6.18s.03,.01,.04,0c.02,0,.02-.03,.01-.05l-1.89-3.42c-.04-.08-.1-.15-.17-.21-.32-.27-.8-.23-1.07,.09-.27,.32-.23,.8,.09,1.07l2.99,2.52Zm30.99,37.65s-.03-.01-.04,0c-.02,0-.02,.03-.01,.05l1.89,3.42c.04,.08,.1,.15,.17,.21,.32,.27,.8,.23,1.07-.09,.27-.32,.23-.8-.09-1.07l-2.99-2.52Zm3.33-34.27s.03,.02,.05,.01l3.42-1.89c.08-.04,.15-.1,.21-.17,.27-.32,.23-.8-.09-1.07s-.8-.23-1.07,.09l-2.52,2.99s-.01,.03,0,.04Zm-37.64,30.9s-.03-.02-.05-.01l-3.42,1.89c-.08,.04-.15,.1-.21,.17-.27,.32-.23,.8,.09,1.07s.8,.23,1.07-.09l2.52-2.99s.01-.03,0-.04Zm21.53-44.43c-.42,.04-.73,.4-.69,.82l.33,3.89s.01,.03,.03,.03c.02,0,.04,0,.04-.02l1.08-3.76c.02-.09,.03-.18,.03-.27-.04-.42-.4-.73-.82-.69Zm-5.1,53.21s-.04,0-.04,.02l-1.08,3.76c-.02,.09-.03,.18-.03,.27,.04,.42,.4,.73,.82,.69,.42-.04,.73-.4,.69-.82l-.33-3.89s-.01-.03-.03-.03Zm30.54-22.21l-3.89,.33s-.03,.01-.03,.03c0,.02,0,.04,.02,.04l3.76,1.08c.09,.02,.18,.03,.27,.03,.42-.04,.73-.4,.69-.82-.04-.42-.4-.73-.82-.69Zm-56.32-4.05l3.89-.33s.03-.01,.03-.03c0-.02,0-.04-.02-.04l-3.76-1.08c-.09-.02-.18-.03-.27-.03-.42,.04-.73,.4-.69,.82,.04,.42,.4,.73,.82,.69Z"/><path class="e" d="M392.24,0c-17.77,0-32.22,14.45-32.22,32.22s14.45,32.22,32.22,32.22,32.22-14.45,32.22-32.22S410.01,0,392.24,0h0Z"/><circle class="d" cx="392.24" cy="32.22" r="28.22"/><path class="e" d="M392.98,3.85s0,.1,0,.15l-.71,7.02s-.02,.03-.04,.03c-.02,0-.03-.02-.03-.03l-.71-7.02c-.04-.41,.26-.78,.67-.82,.41-.04,.78,.26,.82,.67Zm-.74,49.54s-.04,.01-.04,.03l-.71,7.02s0,.1,0,.15c.04,.41,.41,.71,.82,.67,.41-.04,.71-.41,.67-.82l-.71-7.02s-.01-.03-.03-.03Zm28.22-21.91l-7.02,.71s-.03,.01-.03,.03c0,.02,.01,.04,.03,.04l7.02,.71s.1,0,.15,0c.41-.04,.71-.41,.67-.82-.04-.41-.41-.71-.82-.67Zm-56.44,1.49l7.02-.71s.03-.01,.03-.03c0-.02-.01-.04-.03-.04l-7.02-.71s-.1,0-.15,0c-.41,.04-.71,.41-.67,.82,.04,.41,.41,.71,.82,.67Zm43.19-15.72s.03,.02,.05,0l5.47-4.46s.07-.07,.11-.11c.26-.32,.21-.79-.11-1.05-.32-.26-.79-.21-1.05,.11l-4.46,5.47s-.01,.03,0,.04Zm-29.93,29.94s-.03-.02-.05,0l-5.47,4.46s-.07,.07-.11,.11c-.26,.32-.21,.79,.11,1.05,.32,.26,.79,.21,1.05-.11l4.46-5.47s.01-.03,0-.04Zm29.98,0s-.03-.01-.04,0c-.02,.01-.02,.03,0,.05l4.46,5.47s.07,.07,.11,.11c.32,.26,.79,.21,1.05-.11,.26-.32,.21-.79-.11-1.05l-5.47-4.46Zm-30.03-29.93s.03,.01,.04,0c.02-.01,.02-.03,0-.05l-4.46-5.47s-.07-.07-.11-.11c-.32-.26-.79-.21-1.05,.11s-.21,.79,.11,1.05l5.47,4.46Zm6.87-4.61s.02,.02,.04,.02c.02,0,.03-.03,.02-.04l-2.03-6.76s-.03-.1-.06-.14c-.2-.36-.65-.5-1.01-.3-.36,.2-.5,.65-.3,1.01l3.34,6.22Zm16.29,39.14s-.02-.02-.04-.02c-.02,0-.03,.03-.02,.04l2.03,6.76s.03,.1,.06,.14c.2,.36,.65,.5,1.01,.3,.36-.2,.5-.65,.3-1.01l-3.34-6.22Zm11.41-27.68s.03,.03,.04,.02l6.76-2.03s.1-.03,.14-.06c.36-.2,.5-.65,.3-1.01-.2-.36-.65-.5-1.01-.3l-6.22,3.34s-.02,.02-.02,.04Zm-39.11,16.21s-.03-.03-.04-.02l-6.76,2.03s-.1,.03-.14,.06c-.36,.2-.5,.65-.3,1.01s.65,.5,1.01,.3l6.22-3.34s.02-.02,.02-.04Zm27.65-27.66s.04,0,.05-.01l3.34-6.22s.04-.09,.06-.14c.12-.4-.11-.81-.5-.93-.4-.12-.81,.11-.93,.5l-2.03,6.76s0,.03,.02,.04Zm-16.19,39.11s-.04,0-.05,.01l-3.34,6.22s-.04,.09-.06,.14c-.12,.4,.11,.81,.5,.93,.4,.12,.81-.11,.93-.5l2.03-6.76s0-.03-.02-.04Zm34.46-9.45l-6.76-2.03s-.03,0-.04,.02c0,.02,0,.04,.01,.05l6.22,3.34s.09,.04,.14,.06c.4,.12,.81-.11,.93-.5,.12-.4-.11-.81-.5-.93Zm-52.72-20.22l6.76,2.03s.03,0,.04-.02c0-.02,0-.04-.01-.05l-6.22-3.34s-.09-.04-.14-.06c-.4-.12-.81,.11-.93,.5s.11,.81,.5,.93Zm21.55-17.86c-.12-.4-.54-.62-.94-.5-.4,.12-.62,.54-.5,.94l2.07,6.75s.02,.03,.04,.02c.02,0,.03-.02,.03-.04l-.67-7.03s-.01-.1-.03-.15Zm8.97,48.76s-.02-.03-.04-.02c-.02,0-.03,.02-.03,.04l.67,7.03s.01,.1,.03,.15c.12,.4,.54,.62,.94,.5,.4-.12,.62-.54,.5-.94l-2.07-6.75Zm23.36-27.02l-6.75,2.07s-.03,.02-.02,.04c0,.02,.02,.03,.04,.03l7.03-.67s.1-.01,.15-.03c.4-.12,.62-.54,.5-.94-.12-.4-.54-.62-.94-.5Zm-55.07,12.47l6.75-2.07s.03-.02,.02-.04c0-.02-.02-.03-.04-.03l-7.03,.67s-.1,.01-.15,.03c-.4,.12-.62,.54-.5,.94,.12,.4,.54,.62,.94,.5Zm39.29-23.84s.04,.01,.05,0l4.49-5.45s.06-.08,.08-.13c.19-.37,.06-.82-.31-1.01s-.82-.06-1.01,.31l-3.31,6.23s0,.03,0,.04Zm-23.51,35.2s-.04-.01-.05,0l-4.49,5.45s-.06,.08-.08,.13c-.19,.37-.06,.82,.31,1.01s.82,.06,1.01-.31l3.31-6.23s0-.03,0-.04Zm35.64-2.54l-6.23-3.31s-.03,0-.04,0c-.01,.02-.01,.04,0,.05l5.45,4.49s.08,.06,.13,.08c.37,.19,.82,.06,1.01-.31,.19-.37,.06-.82-.31-1.01Zm-47.76-30.12l6.23,3.31s.03,0,.04,0c.01-.02,.01-.04,0-.05l-5.45-4.49s-.08-.06-.13-.08c-.37-.19-.82-.06-1.01,.31-.19,.37-.06,.82,.31,1.01Zm12.07-2.55s.03,.02,.04,0c.02,0,.02-.03,.01-.05l-3.31-6.23s-.05-.09-.08-.13c-.26-.32-.74-.36-1.05-.1s-.36,.74-.1,1.05l4.49,5.45Zm23.61,35.21s-.03-.02-.04,0c-.02,0-.02,.03-.01,.05l3.31,6.23s.05,.09,.08,.13c.26,.32,.74,.36,1.05,.1s.36-.74,.1-1.05l-4.49-5.45Zm5.79-29.37s.03,.02,.05,.01l6.23-3.31s.09-.05,.13-.08c.32-.26,.36-.74,.1-1.05-.26-.32-.74-.36-1.05-.1l-5.45,4.49s-.02,.03,0,.04Zm-35.2,23.53s-.03-.02-.05-.01l-6.23,3.31s-.09,.05-.13,.08c-.32,.26-.36,.74-.1,1.05,.26,.32,.74,.36,1.05,.1l5.45-4.49s.02-.03,0-.04ZM397.83,3.72c-.41-.04-.78,.26-.82,.67l-.67,7.03s0,.03,.02,.04c.02,0,.04,0,.04-.02l2.07-6.75s.02-.1,.03-.15c.04-.41-.26-.78-.67-.82Zm-9.76,49.28l-2.07,6.75s-.02,.1-.03,.15c-.04,.41,.26,.78,.67,.82,.41,.04,.78-.26,.82-.67l.67-7.03s0-.03-.02-.04c-.02,0-.04,0-.04,.02Zm32-16.01l-7.03-.67s-.03,0-.04,.02c0,.02,0,.04,.02,.04l6.75,2.07s.1,.02,.15,.03c.41,.04,.78-.26,.82-.67,.04-.41-.26-.78-.67-.82Zm-55.65-9.55l7.03,.67s.03,0,.04-.02c0-.02,0-.04-.02-.04l-6.75-2.07s-.1-.02-.15-.03c-.41-.04-.78,.26-.82,.67-.04,.41,.26,.78,.67,.82Zm24.84-24.18c-.4,.12-.63,.54-.52,.94l1.08,3.76s.02,.02,.03,.03c.02,0,.04-.01,.04-.03l.33-3.89c0-.09,0-.18-.03-.27-.12-.4-.54-.63-.94-.52Zm5.41,53.21s-.02-.02-.03-.03c-.02,0-.04,.01-.04,.03l-.33,3.89c0,.09,0,.18,.03,.27,.12,.4,.54,.63,.94,.52s.63-.54,.52-.94l-1.08-3.76Zm25.59-27.77l-3.76,1.08s-.02,.02-.03,.03c0,.02,.01,.04,.03,.04l3.89,.33c.09,0,.18,0,.27-.03,.4-.12,.63-.54,.52-.94-.12-.4-.54-.63-.94-.52Zm-56.03,7.02l3.76-1.08s.02-.02,.03-.03c0-.02-.01-.04-.03-.04l-3.89-.33c-.09,0-.18,0-.27,.03-.4,.12-.63,.54-.52,.94,.12,.4,.54,.63,.94,.52Zm43.46-22.33s.04,.02,.05,0l2.99-2.52c.07-.06,.13-.13,.17-.21,.2-.37,.07-.83-.3-1.03-.37-.2-.83-.07-1.03,.3l-1.89,3.42s0,.03,0,.04Zm-30.88,37.65s-.04-.02-.05,0l-2.99,2.52c-.07,.06-.13,.13-.17,.21-.2,.37-.07,.83,.3,1.03,.37,.2,.83,.07,1.03-.3l1.89-3.42s0-.03,0-.04Zm37.73-1.5l-3.42-1.89s-.03,0-.04,0c-.01,.01-.02,.04,0,.05l2.52,2.99c.06,.07,.13,.13,.21,.17,.37,.2,.83,.07,1.03-.3,.2-.37,.07-.83-.3-1.03Zm-44.58-34.66l3.42,1.89s.03,0,.04,0c.02-.01,.02-.04,0-.05l-2.52-2.99c-.06-.07-.13-.13-.21-.17-.37-.2-.83-.07-1.03,.3-.2,.37-.07,.83,.3,1.03Zm10.77-4.16s.02,.02,.04,.01c.02,0,.03-.03,.02-.04l-1.19-3.72c-.03-.08-.07-.17-.13-.24-.26-.33-.74-.38-1.06-.12-.33,.26-.38,.74-.12,1.06l2.44,3.06Zm23.05,42.97s-.02-.02-.04-.01c-.02,0-.03,.03-.02,.04l1.19,3.72c.03,.08,.07,.17,.13,.24,.26,.33,.74,.38,1.06,.12,.33-.26,.38-.74,.12-1.06l-2.44-3.06Zm9.95-32.97s.03,.03,.05,.02l3.72-1.19c.08-.03,.17-.07,.24-.13,.33-.26,.38-.74,.12-1.06-.26-.33-.74-.38-1.06-.12l-3.06,2.44s-.02,.02-.01,.04Zm-42.94,22.97s-.03-.03-.04-.02l-3.72,1.19c-.08,.03-.17,.07-.24,.13-.33,.26-.38,.74-.12,1.06s.74,.38,1.06,.12l3.06-2.44s.02-.02,.01-.04Zm28.58-34.8l1.8-3.47c.04-.08,.07-.17,.08-.26,.05-.42-.25-.79-.67-.84-.42-.05-.79,.25-.84,.67l-.44,3.88s0,.03,.02,.04c.02,0,.04,0,.05-.02Zm-14.22,46.64l-1.8,3.47c-.04,.08-.07,.17-.08,.26-.05,.42,.25,.79,.67,.84,.42,.05,.79-.25,.84-.67l.44-3.88s0-.03-.02-.04c-.02,0-.04,0-.05,.02Zm34.33-15.84l-3.88-.44s-.03,0-.04,.02c0,.02,0,.04,.02,.05l3.47,1.8c.08,.04,.17,.07,.26,.08,.42,.05,.79-.25,.84-.67,.05-.42-.25-.79-.67-.84Zm-54.45-14.96l3.88,.44s.03,0,.04-.02c0-.02,0-.04-.02-.05l-3.47-1.8c-.08-.04-.17-.07-.26-.08-.42-.05-.79,.25-.84,.67-.05,.42,.25,.79,.67,.84Zm19.66-20.01c-.19-.37-.65-.52-1.02-.33-.37,.19-.52,.65-.32,1.02l1.8,3.47s.02,.02,.04,.02c.02,0,.03-.02,.03-.04l-.44-3.88c-.01-.09-.04-.18-.08-.26Zm14.67,50.81s-.02-.02-.04-.02c-.02,0-.03,.02-.03,.04l.44,3.88c.01,.09,.04,.18,.08,.26,.19,.37,.65,.52,1.02,.33,.37-.19,.52-.65,.33-1.02l-1.8-3.47Zm16.21-30.43s-.02,.02-.02,.04c0,.02,.02,.03,.04,.03l3.88-.44c.09-.01,.18-.04,.26-.08,.37-.19,.52-.65,.33-1.02-.19-.37-.65-.52-1.02-.33l-3.47,1.8Zm-46.64,14.22s.02-.02,.02-.04c0-.02-.02-.03-.04-.03l-3.88,.44c-.09,.01-.18,.04-.26,.08-.37,.19-.52,.65-.32,1.02,.19,.37,.65,.52,1.02,.33l3.47-1.8Zm34.79-28.59s.04,0,.05,0l2.44-3.06c.06-.07,.1-.15,.13-.24,.13-.4-.09-.82-.49-.95s-.82,.09-.95,.49l-1.19,3.72s0,.03,.01,.04Zm-22.95,42.96s-.04,0-.05,0l-2.44,3.06c-.06,.07-.1,.15-.13,.24-.13,.4,.09,.82,.49,.95,.4,.13,.82-.09,.95-.49l1.19-3.72s0-.03-.01-.04Zm36.71-8.83l-3.72-1.19s-.03,0-.04,.01c-.01,.02,0,.04,0,.05l3.06,2.44c.07,.06,.15,.1,.24,.13,.4,.13,.82-.09,.95-.49s-.09-.82-.49-.95Zm-50.48-25.29l3.72,1.19s.03,0,.04-.01c.01-.02,0-.04,0-.05l-3.06-2.44c-.07-.06-.15-.1-.24-.13-.4-.13-.82,.09-.95,.49s.09,.82,.49,.95Zm9.75-6.18s.03,.01,.04,0c.02,0,.02-.03,.01-.05l-1.89-3.42c-.04-.08-.1-.15-.17-.21-.32-.27-.8-.23-1.07,.09-.27,.32-.23,.8,.09,1.07l2.99,2.52Zm30.99,37.65s-.03-.01-.04,0c-.02,0-.02,.03-.01,.05l1.89,3.42c.04,.08,.1,.15,.17,.21,.32,.27,.8,.23,1.07-.09,.27-.32,.23-.8-.09-1.07l-2.99-2.52Zm3.33-34.27s.03,.02,.05,.01l3.42-1.89c.08-.04,.15-.1,.21-.17,.27-.32,.23-.8-.09-1.07s-.8-.23-1.07,.09l-2.52,2.99s-.01,.03,0,.04Zm-37.64,30.9s-.03-.02-.05-.01l-3.42,1.89c-.08,.04-.15,.1-.21,.17-.27,.32-.23,.8,.09,1.07,.32,.27,.8,.23,1.07-.09l2.52-2.99s.01-.03,0-.04ZM394.96,3.24c-.42,.04-.73,.4-.69,.82l.33,3.89s.01,.03,.03,.03c.02,0,.04,0,.04-.02l1.08-3.76c.02-.09,.03-.18,.03-.27-.04-.42-.4-.73-.82-.69Zm-5.1,53.21s-.04,0-.04,.02l-1.08,3.76c-.02,.09-.03,.18-.03,.27,.04,.42,.4,.73,.82,.69s.73-.4,.69-.82l-.33-3.89s-.01-.03-.03-.03Zm30.54-22.21l-3.89,.33s-.03,.01-.03,.03c0,.02,0,.04,.02,.04l3.76,1.08c.09,.02,.18,.03,.27,.03,.42-.04,.73-.4,.69-.82-.04-.42-.4-.73-.82-.69Zm-56.32-4.05l3.89-.33s.03-.01,.03-.03c0-.02,0-.04-.02-.04l-3.76-1.08c-.09-.02-.18-.03-.27-.03-.42,.04-.73,.4-.69,.82,.04,.42,.4,.73,.82,.69Z"/><path class="e" d="M181.42,0c-17.77,0-32.22,14.45-32.22,32.22s14.45,32.22,32.22,32.22,32.22-14.45,32.22-32.22S199.19,0,181.42,0h0Z"/><circle class="d" cx="181.42" cy="32.22" r="28.22"/><path class="e" d="M182.17,3.85s0,.1,0,.15l-.71,7.02s-.02,.03-.04,.03c-.02,0-.03-.02-.03-.03l-.71-7.02c-.04-.41,.26-.78,.67-.82,.41-.04,.78,.26,.82,.67Zm-.74,49.54s-.04,.01-.04,.03l-.71,7.02s0,.1,0,.15c.04,.41,.41,.71,.82,.67,.41-.04,.71-.41,.67-.82l-.71-7.02s-.01-.03-.03-.03Zm28.22-21.91l-7.02,.71s-.03,.01-.03,.03c0,.02,.01,.04,.03,.04l7.02,.71s.1,0,.15,0c.41-.04,.71-.41,.67-.82-.04-.41-.41-.71-.82-.67Zm-56.44,1.49l7.02-.71s.03-.01,.03-.03c0-.02-.01-.04-.03-.04l-7.02-.71s-.1,0-.15,0c-.41,.04-.71,.41-.67,.82s.41,.71,.82,.67Zm43.19-15.72s.03,.02,.05,0l5.47-4.46s.07-.07,.11-.11c.26-.32,.21-.79-.11-1.05-.32-.26-.79-.21-1.05,.11l-4.46,5.47s-.01,.03,0,.04Zm-29.93,29.94s-.03-.02-.05,0l-5.47,4.46s-.07,.07-.11,.11c-.26,.32-.21,.79,.11,1.05,.32,.26,.79,.21,1.05-.11l4.46-5.47s.01-.03,0-.04Zm29.98,0s-.03-.01-.04,0c-.02,.01-.02,.03,0,.05l4.46,5.47s.07,.07,.11,.11c.32,.26,.79,.21,1.05-.11s.21-.79-.11-1.05l-5.47-4.46Zm-30.03-29.93s.03,.01,.04,0c.02-.01,.02-.03,0-.05l-4.46-5.47s-.07-.07-.11-.11c-.32-.26-.79-.21-1.05,.11-.26,.32-.21,.79,.11,1.05l5.47,4.46Zm6.87-4.61s.03,.02,.04,.02c.02,0,.03-.03,.02-.04l-2.03-6.76s-.03-.1-.06-.14c-.2-.36-.65-.5-1.01-.3-.36,.2-.5,.65-.3,1.01l3.34,6.22Zm16.29,39.14s-.02-.02-.04-.02c-.02,0-.03,.03-.02,.04l2.03,6.76s.03,.1,.06,.14c.2,.36,.65,.5,1.01,.3,.36-.2,.5-.65,.3-1.01l-3.34-6.22Zm11.41-27.68s.03,.03,.04,.02l6.76-2.03s.1-.03,.14-.06c.36-.2,.5-.65,.3-1.01-.2-.36-.65-.5-1.01-.3l-6.22,3.34s-.02,.02-.02,.04Zm-39.11,16.21s-.03-.03-.04-.02l-6.76,2.03s-.1,.03-.14,.06c-.36,.2-.5,.65-.3,1.01,.2,.36,.65,.5,1.01,.3l6.22-3.34s.02-.02,.02-.04Zm27.65-27.66s.04,0,.05-.01l3.34-6.22s.04-.09,.06-.14c.12-.4-.11-.81-.5-.93-.4-.12-.81,.11-.93,.5l-2.03,6.76s0,.03,.02,.04Zm-16.19,39.11s-.04,0-.05,.01l-3.34,6.22s-.04,.09-.06,.14c-.12,.4,.11,.81,.5,.93,.4,.12,.81-.11,.93-.5l2.03-6.76s0-.03-.02-.04Zm34.46-9.45l-6.76-2.03s-.03,0-.04,.02c0,.02,0,.04,.01,.05l6.22,3.34s.09,.04,.14,.06c.4,.12,.81-.11,.93-.5s-.11-.81-.5-.93Zm-52.72-20.22l6.76,2.03s.03,0,.04-.02c0-.02,0-.04-.01-.05l-6.22-3.34s-.09-.04-.14-.06c-.4-.12-.81,.11-.93,.5-.12,.4,.11,.81,.5,.93Zm21.55-17.86c-.12-.4-.54-.62-.94-.5-.4,.12-.62,.54-.5,.94l2.07,6.75s.02,.03,.04,.02c.02,0,.03-.02,.03-.04l-.67-7.03s-.01-.1-.03-.15Zm8.97,48.76s-.02-.03-.04-.02c-.02,0-.03,.02-.03,.04l.67,7.03s.01,.1,.03,.15c.12,.4,.54,.62,.94,.5,.4-.12,.62-.54,.5-.94l-2.07-6.75Zm23.36-27.02l-6.75,2.07s-.03,.02-.02,.04c0,.02,.02,.03,.04,.03l7.03-.67s.1-.01,.15-.03c.4-.12,.62-.54,.5-.94-.12-.4-.54-.62-.94-.5Zm-55.07,12.47l6.75-2.07s.03-.02,.02-.04c0-.02-.02-.03-.04-.03l-7.03,.67s-.1,.01-.15,.03c-.4,.12-.62,.54-.5,.94,.12,.4,.54,.62,.94,.5Zm39.29-23.84s.04,.01,.05,0l4.49-5.45s.06-.08,.08-.13c.19-.37,.06-.82-.31-1.01s-.82-.06-1.01,.31l-3.31,6.23s0,.03,0,.04Zm-23.51,35.2s-.04-.01-.05,0l-4.49,5.45s-.06,.08-.08,.13c-.19,.37-.06,.82,.31,1.01,.37,.19,.82,.06,1.01-.31l3.31-6.23s0-.03,0-.04Zm35.64-2.54l-6.23-3.31s-.03,0-.04,0c-.01,.02-.01,.04,0,.05l5.45,4.49s.08,.06,.13,.08c.37,.19,.82,.06,1.01-.31,.19-.37,.06-.82-.31-1.01Zm-47.76-30.12l6.23,3.31s.03,0,.04,0c.01-.02,.01-.04,0-.05l-5.45-4.49s-.08-.06-.13-.08c-.37-.19-.82-.06-1.01,.31-.19,.37-.06,.82,.31,1.01Zm12.07-2.55s.03,.02,.04,0c.02,0,.02-.03,.01-.05l-3.31-6.23s-.05-.09-.08-.13c-.26-.32-.74-.36-1.05-.1-.32,.26-.36,.74-.1,1.05l4.49,5.45Zm23.61,35.21s-.03-.02-.04,0c-.02,0-.02,.03-.01,.05l3.31,6.23s.05,.09,.08,.13c.26,.32,.74,.36,1.05,.1,.32-.26,.36-.74,.1-1.05l-4.49-5.45Zm5.79-29.37s.03,.02,.05,.01l6.23-3.31s.09-.05,.13-.08c.32-.26,.36-.74,.1-1.05-.26-.32-.74-.36-1.05-.1l-5.45,4.49s-.02,.03,0,.04Zm-35.2,23.53s-.03-.02-.05-.01l-6.23,3.31s-.09,.05-.13,.08c-.32,.26-.36,.74-.1,1.05,.26,.32,.74,.36,1.05,.1l5.45-4.49s.02-.03,0-.04ZM187.01,3.72c-.41-.04-.78,.26-.82,.67l-.67,7.03s0,.03,.02,.04c.02,0,.04,0,.04-.02l2.07-6.75s.02-.1,.03-.15c.04-.41-.26-.78-.67-.82Zm-9.76,49.28l-2.07,6.75s-.02,.1-.03,.15c-.04,.41,.26,.78,.67,.82s.78-.26,.82-.67l.67-7.03s0-.03-.02-.04c-.02,0-.04,0-.04,.02Zm32-16.01l-7.03-.67s-.03,0-.04,.02c0,.02,0,.04,.02,.04l6.75,2.07s.1,.02,.15,.03c.41,.04,.78-.26,.82-.67,.04-.41-.26-.78-.67-.82Zm-55.65-9.55l7.03,.67s.03,0,.04-.02c0-.02,0-.04-.02-.04l-6.75-2.07s-.1-.02-.15-.03c-.41-.04-.78,.26-.82,.67-.04,.41,.26,.78,.67,.82ZM178.43,3.27c-.4,.12-.63,.54-.52,.94l1.08,3.76s.02,.02,.03,.03c.02,0,.04-.01,.04-.03l.33-3.89c0-.09,0-.18-.03-.27-.12-.4-.54-.63-.94-.52Zm5.41,53.21s-.02-.02-.03-.03c-.02,0-.04,.01-.04,.03l-.33,3.89c0,.09,0,.18,.03,.27,.12,.4,.54,.63,.94,.52s.63-.54,.52-.94l-1.08-3.76Zm25.59-27.77l-3.76,1.08s-.02,.02-.03,.03c0,.02,.01,.04,.03,.04l3.89,.33c.09,0,.18,0,.27-.03,.4-.12,.63-.54,.52-.94-.12-.4-.54-.63-.94-.52Zm-56.03,7.02l3.76-1.08s.02-.02,.03-.03c0-.02-.01-.04-.03-.04l-3.89-.33c-.09,0-.18,0-.27,.03-.4,.12-.63,.54-.52,.94,.12,.4,.54,.63,.94,.52Zm43.46-22.33s.04,.02,.05,0l2.99-2.52c.07-.06,.13-.13,.17-.21,.2-.37,.07-.83-.3-1.03s-.83-.07-1.03,.3l-1.89,3.42s0,.03,0,.04Zm-30.88,37.65s-.04-.02-.05,0l-2.99,2.52c-.07,.06-.13,.13-.17,.21-.2,.37-.07,.83,.3,1.03,.37,.2,.83,.07,1.03-.3l1.89-3.42s0-.03,0-.04Zm37.73-1.5l-3.42-1.89s-.03,0-.04,0c-.02,.01-.02,.04,0,.05l2.52,2.99c.06,.07,.13,.13,.21,.17,.37,.2,.83,.07,1.03-.3,.2-.37,.07-.83-.3-1.03ZM159.13,14.89l3.42,1.89s.03,0,.04,0c.02-.01,.02-.04,0-.05l-2.52-2.99c-.06-.07-.13-.13-.21-.17-.37-.2-.83-.07-1.03,.3-.2,.37-.07,.83,.3,1.03Zm10.77-4.16s.02,.02,.04,.01c.02,0,.03-.03,.02-.04l-1.19-3.72c-.03-.08-.07-.17-.13-.24-.26-.33-.74-.38-1.06-.12-.33,.26-.38,.74-.12,1.06l2.44,3.06Zm23.05,42.97s-.02-.02-.04-.01c-.02,0-.03,.03-.02,.04l1.19,3.72c.03,.08,.07,.17,.13,.24,.26,.33,.74,.38,1.06,.12,.33-.26,.38-.74,.12-1.06l-2.44-3.06Zm9.95-32.97s.03,.03,.04,.02l3.72-1.19c.08-.03,.17-.07,.24-.13,.33-.26,.38-.74,.12-1.06s-.74-.38-1.06-.12l-3.06,2.44s-.02,.02-.01,.04Zm-42.94,22.97s-.03-.03-.04-.02l-3.72,1.19c-.08,.03-.17,.07-.24,.13-.33,.26-.38,.74-.12,1.06s.74,.38,1.06,.12l3.06-2.44s.02-.02,.01-.04Zm28.58-34.8l1.8-3.47c.04-.08,.07-.17,.08-.26,.05-.42-.25-.79-.67-.84-.42-.05-.79,.25-.84,.67l-.44,3.88s0,.03,.02,.04c.02,0,.04,0,.05-.02Zm-14.22,46.64l-1.8,3.47c-.04,.08-.07,.17-.08,.26-.05,.42,.25,.79,.67,.84,.42,.05,.79-.25,.84-.67l.44-3.88s0-.03-.02-.04c-.02,0-.04,0-.05,.02Zm34.33-15.84l-3.88-.44s-.03,0-.04,.02c0,.02,0,.04,.02,.05l3.47,1.8c.08,.04,.17,.07,.26,.08,.42,.05,.79-.25,.84-.67,.05-.42-.25-.79-.67-.84Zm-54.45-14.96l3.88,.44s.03,0,.04-.02c0-.02,0-.04-.02-.05l-3.47-1.8c-.08-.04-.17-.07-.26-.08-.42-.05-.79,.25-.84,.67-.05,.42,.25,.79,.67,.84Zm19.66-20.01c-.19-.37-.65-.52-1.02-.33-.37,.19-.52,.65-.33,1.02l1.8,3.47s.02,.02,.04,.02c.02,0,.03-.02,.03-.04l-.44-3.88c-.01-.09-.04-.18-.08-.26Zm14.67,50.81s-.02-.02-.04-.02c-.02,0-.03,.02-.03,.04l.44,3.88c.01,.09,.04,.18,.08,.26,.19,.37,.65,.52,1.02,.33,.37-.19,.52-.65,.32-1.02l-1.8-3.47Zm16.21-30.43s-.02,.02-.02,.04c0,.02,.02,.03,.04,.03l3.88-.44c.09-.01,.18-.04,.26-.08,.37-.19,.52-.65,.32-1.02-.19-.37-.65-.52-1.02-.33l-3.47,1.8Zm-46.64,14.22s.02-.02,.02-.04c0-.02-.02-.03-.04-.03l-3.88,.44c-.09,.01-.18,.04-.26,.08-.37,.19-.52,.65-.32,1.02,.19,.37,.65,.52,1.02,.33l3.47-1.8Zm34.79-28.59s.04,0,.05,0l2.44-3.06c.06-.07,.1-.15,.13-.24,.13-.4-.09-.82-.49-.95s-.82,.09-.95,.49l-1.19,3.72s0,.03,.01,.04Zm-22.95,42.96s-.04,0-.05,0l-2.44,3.06c-.06,.07-.1,.15-.13,.24-.13,.4,.09,.82,.49,.95s.82-.09,.95-.49l1.19-3.72s0-.03-.01-.04Zm36.71-8.83l-3.72-1.19s-.03,0-.04,.01c-.01,.02,0,.04,0,.05l3.06,2.44c.07,.06,.15,.1,.24,.13,.4,.13,.82-.09,.95-.49s-.09-.82-.49-.95Zm-50.48-25.29l3.72,1.19s.03,0,.04-.01c.01-.02,.01-.04,0-.05l-3.06-2.44c-.07-.06-.15-.1-.24-.13-.4-.13-.82,.09-.95,.49s.09,.82,.49,.95Zm9.75-6.18s.03,.01,.04,0c.02,0,.02-.03,.01-.05l-1.89-3.42c-.04-.08-.1-.15-.17-.21-.32-.27-.8-.23-1.07,.09-.27,.32-.23,.8,.09,1.07l2.99,2.52Zm30.99,37.65s-.03-.01-.04,0c-.02,0-.02,.03-.01,.05l1.89,3.42c.04,.08,.1,.15,.17,.21,.32,.27,.8,.23,1.07-.09,.27-.32,.23-.8-.09-1.07l-2.99-2.52Zm3.33-34.27s.03,.02,.05,.01l3.42-1.89c.08-.04,.15-.1,.21-.17,.27-.32,.23-.8-.09-1.07s-.8-.23-1.07,.09l-2.52,2.99s-.01,.03,0,.04Zm-37.64,30.9s-.03-.02-.05-.01l-3.42,1.89c-.08,.04-.15,.1-.21,.17-.27,.32-.23,.8,.09,1.07s.8,.23,1.07-.09l2.52-2.99s.01-.03,0-.04ZM184.14,3.24c-.42,.04-.73,.4-.69,.82l.33,3.89s.01,.03,.03,.03c.02,0,.04,0,.04-.02l1.08-3.76c.02-.09,.03-.18,.03-.27-.04-.42-.4-.73-.82-.69Zm-5.1,53.21s-.04,0-.04,.02l-1.08,3.76c-.02,.09-.03,.18-.03,.27,.04,.42,.4,.73,.82,.69s.73-.4,.69-.82l-.33-3.89s-.01-.03-.03-.03Zm30.54-22.21l-3.89,.33s-.03,.01-.03,.03c0,.02,0,.04,.02,.04l3.76,1.08c.09,.02,.18,.03,.27,.03,.42-.04,.73-.4,.69-.82-.04-.42-.4-.73-.82-.69Zm-56.32-4.05l3.89-.33s.03-.01,.03-.03c0-.02,0-.04-.02-.04l-3.76-1.08c-.09-.02-.18-.03-.27-.03-.42,.04-.73,.4-.69,.82,.04,.42,.4,.73,.82,.69Z"/><path class="e" d="M32.22,149.14c-17.77,0-32.22,14.45-32.22,32.22s14.45,32.22,32.22,32.22,32.22-14.45,32.22-32.22-14.45-32.22-32.22-32.22h0Z"/><circle class="d" cx="32.22" cy="181.37" r="28.22"/><path class="e" d="M40.3,161.77l2.03-6.76c.12-.4,.54-.62,.93-.5,.4,.12,.62,.54,.5,.93-.01,.05-.04,.1-.06,.14l-3.34,6.22s-.03,.02-.05,.01c-.02,0-.02-.03-.02-.04Zm-23.04,34.57s-.03-.02-.05,0l-5.47,4.46s-.07,.07-.11,.11c-.26,.32-.21,.79,.11,1.05,.32,.26,.79,.21,1.05-.11l4.46-5.47s.01-.03,0-.04Zm26.72-32.57s.04,.01,.05,0l4.49-5.45s.06-.08,.08-.13c.19-.37,.06-.82-.31-1.01s-.82-.06-1.01,.31l-3.31,6.23s0,.03,0,.04Zm-23.51,35.2s-.04-.01-.05,0l-4.49,5.45s-.06,.08-.08,.13c-.19,.37-.06,.82,.31,1.01s.82,.06,1.01-.31l3.31-6.23s0-.03,0-.04Zm3.66,1.96s-.04,0-.05,.01l-3.34,6.22s-.04,.09-.06,.14c-.12,.4,.11,.81,.5,.93,.4,.12,.81-.11,.93-.5l2.03-6.76s0-.03-.02-.04Zm23.06-34.53s.03,.02,.05,0l5.47-4.46s.07-.07,.11-.11c.26-.32,.21-.79-.11-1.05-.32-.26-.79-.21-1.05,.11l-4.46,5.47s-.01,.03,0,.04Zm-19.77-13c-.12-.4-.54-.62-.94-.5-.4,.12-.62,.54-.5,.94l2.07,6.75s.02,.03,.04,.02c.02,0,.03-.02,.03-.04l-.67-7.03s-.01-.1-.03-.15Zm.63,48.76l-2.07,6.75s-.02,.1-.03,.15c-.04,.41,.26,.78,.67,.82,.41,.04,.78-.26,.82-.67l.67-7.03s0-.03-.02-.04c-.02,0-.04,0-.04,.02Zm4.17,.38s-.04,.01-.04,.03l-.71,7.02s0,.1,0,.15c.04,.41,.41,.71,.82,.67,.41-.04,.71-.41,.67-.82l-.71-7.02s-.01-.03-.03-.03Zm-15.02-36.13s.03,.01,.04,0c.02-.01,.02-.03,0-.05l-4.46-5.47s-.07-.07-.11-.11c-.32-.26-.79-.21-1.05,.11-.26,.32-.21,.79,.11,1.05l5.47,4.46Zm-12.81,10.19l7.03,.67s.03,0,.04-.02c0-.02,0-.04-.02-.04l-6.75-2.07s-.1-.02-.15-.03c-.41-.04-.78,.26-.82,.67-.04,.41,.26,.78,.67,.82Zm-.4,5.52l7.02-.71s.03-.01,.03-.03c0-.02-.01-.04-.03-.04l-7.02-.71s-.1,0-.15,0c-.41,.04-.71,.41-.67,.82,.04,.41,.41,.71,.82,.67Zm1.86-10.86l6.76,2.03s.03,0,.04-.02c0-.02,0-.04-.01-.05l-6.22-3.34s-.09-.04-.14-.06c-.4-.12-.81,.11-.93,.5-.12,.4,.11,.81,.5,.93Zm6.8,18.22s-.03-.03-.04-.02l-6.76,2.03s-.1,.03-.14,.06c-.36,.2-.5,.65-.3,1.01,.2,.36,.65,.5,1.01,.3l6.22-3.34s.02-.02,.02-.04Zm11.41-27.68s.02,.02,.04,.02c.02,0,.03-.03,.02-.04l-2.03-6.76s-.03-.1-.06-.14c-.2-.36-.65-.5-1.01-.3s-.5,.65-.3,1.01l3.34,6.22Zm-19.39,25.81l6.75-2.07s.03-.02,.02-.04c0-.02-.02-.03-.04-.03l-7.03,.67s-.1,.01-.15,.03c-.4,.12-.62,.54-.5,.94s.54,.62,.94,.5Zm9.94,5.53s-.03-.02-.05-.01l-6.23,3.31s-.09,.05-.13,.08c-.32,.26-.36,.74-.1,1.05s.74,.36,1.05,.1l5.45-4.49s.02-.03,0-.04Zm5.79-29.37s.03,.02,.04,0c.02,0,.02-.03,.01-.05l-3.31-6.23s-.05-.09-.08-.13c-.26-.32-.74-.36-1.05-.1s-.36,.74-.1,1.05l4.49,5.45Zm23.61,35.21s-.03-.02-.04,0c-.02,0-.02,.03-.01,.05l3.31,6.23s.05,.09,.08,.13c.26,.32,.74,.36,1.05,.1,.32-.26,.36-.74,.1-1.05l-4.49-5.45Zm12.07-2.55l-6.23-3.31s-.03,0-.04,0c-.01,.02-.01,.04,0,.05l5.45,4.49s.08,.06,.13,.08c.37,.19,.82,.06,1.01-.31,.19-.37,.06-.82-.31-1.01Zm-47.76-30.12l6.23,3.31s.03,0,.04,0c.01-.02,.01-.04,0-.05l-5.45-4.49s-.08-.06-.13-.08c-.37-.19-.82-.06-1.01,.31-.19,.37-.06,.82,.31,1.01Zm43.43,6.96s.03,.03,.04,.02l6.76-2.03s.09-.03,.14-.06c.36-.2,.5-.65,.3-1.01-.2-.36-.65-.5-1.01-.3l-6.22,3.34s-.02,.02-.02,.04Zm7.98,1.87l-6.75,2.07s-.03,.02-.02,.04c0,.02,.02,.03,.04,.03l7.03-.67s.1-.01,.15-.03c.4-.12,.62-.54,.5-.94-.12-.4-.54-.62-.94-.5Zm-12.52,21.2s-.03-.01-.04,0c-.02,.01-.02,.03,0,.05l4.46,5.47s.07,.07,.11,.11c.32,.26,.79,.21,1.05-.11,.26-.32,.21-.79-.11-1.05l-5.47-4.46Zm11.34-4.85l-6.76-2.03s-.03,0-.04,.02c0,.02,0,.04,.01,.05l6.22,3.34s.09,.04,.14,.06c.4,.12,.81-.11,.93-.5,.12-.4-.11-.81-.5-.93Zm1.47-5.34l-7.03-.67s-.03,0-.04,.02c0,.02,0,.04,.02,.04l6.75,2.07s.1,.02,.15,.03c.41,.04,.78-.26,.82-.67,.04-.41-.26-.78-.67-.82Zm.4-5.52l-7.02,.71s-.03,.01-.03,.03c0,.02,.01,.04,.03,.04l7.02,.71s.1,0,.15,0c.41-.04,.71-.41,.67-.82-.04-.41-.41-.71-.82-.67Zm-22.63-27.75c-.41-.04-.78,.26-.82,.67l-.67,7.03s0,.03,.02,.04c.02,0,.04,0,.04-.02l2.07-6.75s.02-.1,.03-.15c.04-.41-.26-.78-.67-.82Zm-5.67-.54c-.41,.04-.71,.41-.67,.82l.71,7.02s.01,.03,.03,.03c.02,0,.04-.01,.04-.03l.71-7.02s0-.1,0-.15c-.04-.41-.41-.71-.82-.67Zm17.67,17.28s.03,.02,.05,.01l6.23-3.31s.09-.05,.13-.08c.32-.26,.36-.74,.1-1.05-.26-.32-.74-.36-1.05-.1l-5.45,4.49s-.02,.03,0,.04Zm-13.43,32.55s-.02-.03-.04-.02c-.02,0-.03,.02-.03,.04l.67,7.03s.01,.1,.03,.15c.12,.4,.54,.62,.94,.5s.62-.54,.5-.94l-2.07-6.75Zm3.97-1.21s-.02-.02-.04-.02c-.02,0-.03,.03-.02,.04l2.03,6.76s.03,.1,.06,.14c.2,.36,.65,.5,1.01,.3s.5-.65,.3-1.01l-3.34-6.22Zm19.87-23.08l-3.76,1.08s-.02,.02-.03,.03c0,.02,.01,.04,.03,.04l3.9,.33c.09,0,.18,0,.27-.03,.4-.12,.63-.54,.52-.94-.12-.4-.54-.63-.94-.52Zm-9.19-11.94s.03,.02,.05,.01l3.42-1.89c.08-.04,.15-.1,.21-.17,.27-.32,.23-.8-.09-1.07s-.8-.23-1.07,.09l-2.52,2.99s-.01,.03,0,.04Zm-3.38-3.37s.04,.02,.05,0l2.99-2.52c.07-.06,.13-.13,.17-.21,.2-.37,.07-.83-.3-1.03-.37-.2-.83-.07-1.03,.3l-1.89,3.42s0,.03,0,.04Zm-37.73,1.5l3.42,1.89s.03,0,.04,0c.02-.01,.02-.04,0-.05l-2.52-2.99c-.06-.07-.13-.13-.21-.17-.37-.2-.83-.07-1.03,.3s-.07,.83,.3,1.03Zm10.77-4.16s.02,.02,.04,.01c.02,0,.03-.03,.02-.04l-1.19-3.72c-.03-.08-.07-.17-.13-.24-.26-.33-.74-.38-1.06-.12-.33,.26-.38,.74-.12,1.06l2.44,3.06Zm32.99,10s.03,.03,.04,.02l3.72-1.19c.08-.03,.17-.07,.24-.13,.33-.26,.38-.74,.12-1.06s-.74-.38-1.06-.12l-3.06,2.44s-.02,.02-.01,.04Zm-14.36-11.83l1.79-3.47c.04-.08,.07-.17,.08-.26,.05-.42-.25-.79-.67-.84-.42-.05-.79,.25-.84,.67l-.44,3.88s0,.03,.02,.04c.02,0,.04,0,.05-.02Zm-22.6,4.5s.03,.01,.04,0c.02,0,.02-.03,.01-.05l-1.89-3.42c-.04-.08-.1-.15-.17-.21-.32-.27-.8-.23-1.07,.09s-.23,.8,.09,1.07l2.99,2.52Zm38.81,11.71s-.02,.02-.02,.04c0,.02,.02,.03,.04,.03l3.88-.44c.09-.01,.18-.04,.26-.08,.37-.19,.52-.65,.33-1.02-.19-.37-.65-.52-1.02-.33l-3.47,1.8Zm-11.85-14.37s.04,0,.05,0l2.44-3.06c.06-.07,.1-.15,.13-.24,.13-.4-.09-.82-.49-.95-.4-.13-.82,.09-.95,.49l-1.19,3.72s0,.03,.01,.04Zm-9.05,45.74s-.02-.02-.03-.03c-.02,0-.04,.01-.04,.03l-.33,3.89c0,.09,0,.18,.03,.27,.12,.4,.54,.63,.94,.52,.4-.12,.63-.54,.52-.94l-1.08-3.76Zm9.1-2.77s-.02-.02-.04-.01c-.02,0-.03,.03-.02,.04l1.19,3.72c.03,.08,.07,.17,.13,.24,.26,.33,.74,.38,1.06,.12,.33-.26,.38-.74,.12-1.06l-2.44-3.06Zm3.97-2.66s-.03-.01-.04,0c-.02,0-.02,.03-.01,.05l1.89,3.42c.04,.08,.1,.15,.17,.21,.32,.27,.8,.23,1.07-.09,.27-.32,.23-.8-.09-1.07l-2.99-2.52Zm-8.38,4.5s-.02-.02-.04-.02c-.02,0-.03,.02-.03,.04l.44,3.88c.01,.09,.04,.18,.08,.26,.19,.37,.65,.52,1.02,.33,.37-.19,.52-.65,.32-1.02l-1.79-3.47Zm-4.39-52.3c-.42,.04-.73,.4-.69,.82l.33,3.89s.01,.03,.03,.03c.02,0,.04,0,.04-.02l1.08-3.76c.02-.09,.03-.18,.03-.27-.04-.42-.4-.73-.82-.69Zm-5.71,.03c-.4,.12-.63,.54-.52,.94l1.08,3.76s.02,.02,.03,.03c.02,0,.04-.01,.04-.03l.33-3.89c0-.09,0-.18-.03-.27-.12-.4-.54-.63-.94-.52Zm28.23,41.6l-3.72-1.19s-.03,0-.04,.01c-.01,.02,0,.04,0,.05l3.06,2.44c.07,.06,.15,.1,.24,.13,.4,.13,.82-.09,.95-.49s-.09-.82-.49-.95Zm2.92-10.62l-3.9,.33s-.03,.01-.03,.03c0,.02,0,.04,.02,.04l3.76,1.08c.09,.02,.18,.03,.27,.03,.42-.04,.73-.4,.69-.82-.04-.42-.4-.73-.82-.69Zm-.94,5.45l-3.88-.44s-.03,0-.04,.02c0,.02,0,.04,.02,.05l3.47,1.8c.08,.04,.17,.07,.26,.08,.42,.05,.79-.25,.84-.67,.05-.42-.25-.79-.67-.84Zm-29.6,16.75s-.04,0-.04,.02l-1.08,3.76c-.02,.09-.04,.18-.03,.27,.04,.42,.4,.73,.82,.69,.42-.04,.73-.4,.69-.82l-.33-3.89s-.01-.03-.03-.03Zm24.67-6.91l-3.42-1.89s-.03,0-.04,0c-.02,.01-.02,.04,0,.05l2.52,2.99c.06,.07,.13,.13,.21,.17,.37,.2,.83,.07,1.03-.3,.2-.37,.07-.83-.3-1.03Zm-33.76,4.15s-.04,0-.05,0l-2.44,3.06c-.06,.07-.1,.15-.13,.24-.13,.4,.09,.82,.49,.95,.4,.13,.82-.09,.95-.49l1.19-3.72s0-.03-.01-.04Zm-11.85-14.37s.02-.02,.02-.04c0-.02-.02-.03-.04-.03l-3.88,.44c-.09,.01-.18,.04-.26,.08-.37,.19-.52,.65-.33,1.02,.19,.37,.65,.52,1.02,.33l3.47-1.8Zm-4.69-3.6l3.76-1.08s.02-.02,.03-.03c0-.02-.01-.04-.03-.04l-3.9-.33c-.09,0-.18,0-.27,.03-.4,.12-.63,.54-.52,.94,.12,.4,.54,.63,.94,.52Zm-.15-5.53l3.9-.33s.03-.01,.03-.03c0-.02,0-.04-.02-.04l-3.76-1.08c-.09-.02-.18-.03-.27-.03-.42,.04-.73,.4-.69,.82,.04,.42,.4,.73,.82,.69Zm.94-5.45l3.88,.44s.03,0,.04-.02c0-.02,0-.04-.02-.05l-3.47-1.8c-.08-.04-.17-.07-.26-.08-.42-.05-.79,.25-.84,.67s.25,.79,.67,.84Zm19.66-20.01c-.19-.37-.65-.52-1.02-.33s-.52,.65-.33,1.02l1.8,3.47s.02,.02,.04,.02c.02,0,.03-.02,.03-.04l-.44-3.88c-.01-.09-.04-.18-.08-.26Zm-13.91,38.97s-.03-.03-.04-.02l-3.72,1.19c-.08,.03-.17,.07-.24,.13-.33,.26-.38,.74-.12,1.06s.74,.38,1.06,.12l3.06-2.44s.02-.02,.01-.04Zm14.36,11.83l-1.8,3.47c-.04,.08-.07,.17-.08,.26-.05,.42,.25,.79,.67,.84,.42,.05,.79-.25,.84-.67l.44-3.88s0-.03-.02-.04c-.02,0-.04,0-.05,.02ZM6.98,168.72l3.72,1.19s.03,0,.04-.01c.01-.02,0-.04,0-.05l-3.06-2.44c-.07-.06-.15-.1-.24-.13-.4-.13-.82,.09-.95,.49s.09,.82,.49,.95Zm9.8,31.47s-.04-.02-.05,0l-2.99,2.52c-.07,.06-.13,.13-.17,.21-.2,.37-.07,.83,.3,1.03,.37,.2,.83,.07,1.03-.3l1.89-3.42s0-.03,0-.04Zm-3.38-3.37s-.03-.02-.05-.01l-3.42,1.89c-.08,.04-.15,.1-.21,.17-.27,.32-.23,.8,.09,1.07s.8,.23,1.07-.09l2.52-2.99s.01-.03,0-.04Z"/></g></g></svg>