<?xml version="1.0" encoding="UTF-8"?><svg xmlns="http://www.w3.org/2000/svg" viewBox="0 0 28.31 28.31"><defs><style>.d{fill:#fff;}.e{fill:#100c08;}.f{fill:#3cb4e5;}</style></defs><g id="a"/><g id="b"><g id="c"><path class="e" d="M14.15,0C6.35,0,0,6.35,0,14.15s6.35,14.15,14.15,14.15,14.15-6.35,14.15-14.15S21.96,0,14.15,0h0Z"/><path class="f" d="M26.11,13.37c-.02-.26-.04-.51-.07-.76l-5.83,.35,5.52-1.91c-.07-.25-.14-.49-.22-.73l-2.65,.25,2.05-1.7c-.11-.23-.23-.46-.36-.68l-5.25,2.55,4.37-3.88c-.16-.2-.32-.4-.49-.59l-2.36,1.25,1.25-2.36c-.19-.17-.39-.33-.59-.49l-3.88,4.37,2.56-5.26c-.22-.13-.45-.25-.67-.36l-1.71,2.06,.25-2.67c-.24-.08-.48-.15-.73-.22l-1.92,5.53,.35-5.85c-.25-.03-.5-.06-.76-.07l-.79,2.57-.79-2.57c-.25,.02-.51,.04-.76,.07l.35,5.86-1.92-5.55c-.25,.07-.49,.13-.73,.21l.25,2.69-1.72-2.08c-.23,.11-.45,.23-.67,.35l2.57,5.29-3.9-4.39c-.2,.15-.4,.31-.59,.48l1.27,2.39-2.39-1.27c-.17,.19-.33,.38-.48,.58l4.4,3.91-5.3-2.57c-.13,.22-.24,.44-.36,.67l2.09,1.73-2.71-.26c-.08,.24-.15,.48-.22,.72l5.56,1.93-5.88-.35c-.03,.25-.05,.5-.07,.75l2.59,.8-2.59,.8c.02,.25,.04,.5,.07,.75l5.88-.35-5.56,1.93c.07,.24,.14,.49,.22,.72l2.71-.26-2.09,1.73c.11,.23,.23,.45,.36,.67l5.3-2.57-4.4,3.91c.15,.2,.31,.39,.48,.58l2.39-1.27-1.27,2.39c.19,.17,.39,.32,.59,.48l3.9-4.39-2.57,5.29c.22,.13,.44,.24,.67,.35l1.72-2.08-.25,2.69c.24,.08,.48,.15,.73,.21l1.92-5.55-.35,5.86c.25,.03,.5,.05,.76,.07l.79-2.57,.79,2.57c.26-.02,.51-.04,.76-.07l-.35-5.85,1.92,5.53c.25-.07,.49-.14,.73-.22l-.25-2.67,1.71,2.06c.23-.11,.45-.23,.67-.36l-2.56-5.26,3.88,4.37c.2-.16,.4-.32,.59-.49l-1.25-2.36,2.36,1.25c.17-.19,.33-.39,.48-.59l-4.37-3.88,5.25,2.55c.13-.22,.25-.45,.36-.68l-2.05-1.7,2.65,.25c.08-.24,.15-.49,.22-.73l-5.52-1.91,5.83,.35c.03-.25,.05-.51,.07-.76l-2.54-.78,2.54-.78Zm-7.39,2.67l-1.78-.19c-.05,.08-.1,.16-.15,.23l.86,1.57-1.57-.86c-.07,.05-.15,.1-.23,.15l.19,1.78-1.12-1.39c-.09,.02-.18,.04-.27,.05l-.5,1.72-.5-1.72c-.09-.01-.18-.03-.27-.05l-1.12,1.39,.19-1.78c-.08-.05-.16-.1-.23-.15l-1.57,.86,.86-1.57c-.05-.07-.1-.15-.15-.23l-1.78,.19,1.39-1.12c-.02-.09-.04-.18-.05-.27l-1.72-.5,1.72-.5c.01-.09,.03-.18,.05-.27l-1.39-1.12,1.67,.18c-.08-.05-.16-.09-.23-.15-.62-.62-.62-1.64,0-2.26s1.64-.62,2.26,0c.22,.22,.34,.49,.4,.78l.46-1.59,.5,1.72c.09,.01,.18,.03,.27,.05l1.12-1.39-.19,1.78c.08,.05,.16,.1,.23,.15l1.57-.86-.86,1.57c.05,.07,.1,.15,.15,.23l1.78-.19-1.39,1.12c.02,.09,.04,.18,.05,.27l1.72,.5-1.72,.5c-.01,.09-.03,.18-.05,.27l1.39,1.12Z"/><path class="d" d="M15.72,15.48c0,.4-.32,.72-.72,.72s-.72-.32-.72-.72,.32-.72,.72-.72,.72,.32,.72,.72Zm-4.69-5.45c-.62,.62-.62,1.64,0,2.26s1.64,.62,2.26,0,.62-1.64,0-2.26-1.64-.62-2.26,0Z"/></g></g></svg>