<?xml version="1.0" encoding="UTF-8"?><svg xmlns="http://www.w3.org/2000/svg" viewBox="0 0 724.33 724.33"><defs><style>.e{fill:#70d44b;}</style></defs><g id="a"/><g id="b"><g id="c"><path id="d" class="e" d="M695.87,221.2c-18.24-43.13-44.36-81.86-77.62-115.12-29.55-29.55-63.42-53.44-100.84-71.19-.02,0-.03-.02-.05-.02-4.69-2.22-9.43-4.37-14.22-6.4C458.49,9.58,411.06,0,362.17,0s-96.32,9.58-140.97,28.46c-4.8,2.03-9.54,4.17-14.23,6.4-.01,0-.03,.01-.04,.02-37.43,17.76-71.3,41.65-100.85,71.2-33.26,33.26-59.37,71.99-77.62,115.12C9.58,265.85,0,313.28,0,362.17s9.58,96.32,28.46,140.97c18.24,43.13,44.35,81.86,77.62,115.12,33.26,33.26,71.99,59.37,115.12,77.62,44.65,18.88,92.08,28.46,140.97,28.46s96.32-9.58,140.97-28.46c43.13-18.24,81.86-44.36,115.12-77.62,33.26-33.26,59.37-71.99,77.62-115.12,18.88-44.65,28.46-92.08,28.46-140.97s-9.58-96.32-28.46-140.97Zm-179.09,466.9c-.49,.21-1.03,.32-1.6,.32-2.27,0-4.12-1.85-4.12-4.12s1.85-4.13,4.12-4.13,4.13,1.85,4.13,4.13c0,1.7-1.03,3.16-2.5,3.79h-.03Zm-309.23,.01h-.02c-1.47-.64-2.51-2.1-2.51-3.8,0-2.28,1.85-4.13,4.13-4.13s4.12,1.85,4.12,4.13-1.85,4.12-4.12,4.12c-.57,0-1.11-.12-1.6-.32Zm0-651.85c.49-.21,1.03-.32,1.59-.32,2.27,0,4.12,1.85,4.12,4.13s-1.85,4.13-4.12,4.13-4.13-1.85-4.13-4.13c0-1.7,1.03-3.16,2.5-3.79h.03ZM362.17,1.5c.13,0,.26,0,.39,0,37.39,.21,67.89,30.54,68.17,68.04,.14,18.31-6.87,35.58-19.72,48.63-12.85,13.05-30.02,20.31-48.33,20.44-18.32,.15-35.58-6.86-48.63-19.72-13.05-12.85-20.31-30.02-20.44-48.33s6.87-35.58,19.72-48.63c12.74-12.93,29.72-20.17,47.86-20.43,.33,0,.65-.01,.98-.01Zm154.61,34.74l.04,.02c1.47,.63,2.5,2.09,2.5,3.79,0,2.27-1.85,4.13-4.13,4.13s-4.12-1.85-4.12-4.13,1.85-4.13,4.12-4.13c.56,0,1.1,.12,1.59,.32Zm132.01,543.03c0,2.98-2.42,5.4-5.4,5.4s-5.4-2.42-5.4-5.4,2.42-5.4,5.4-5.4,5.4,2.42,5.4,5.4Zm-10.3-4.85c.16-1.83,.24-3.68,.25-5.55,.84,1.43,1.96,2.66,3.3,3.64-1.37,.27-2.6,.95-3.55,1.91Zm-231.01,134.81c2.96,0,5.36,2.4,5.36,5.36s-2.4,5.36-5.36,5.36-5.36-2.4-5.36-5.36,2.4-5.36,5.36-5.36Zm0-1.5s-.04,0-.06,0c1.33-1.13,2.65-2.3,3.91-3.55,.07-.07,.13-.14,.2-.21-.25,.96-.4,1.97-.4,3.01,0,.65,.07,1.28,.17,1.91-1.09-.73-2.41-1.16-3.82-1.16ZM75.54,145.07c0-2.98,2.42-5.4,5.4-5.4s5.4,2.42,5.4,5.4-2.42,5.4-5.4,5.4-5.4-2.42-5.4-5.4Zm10.29,4.86c-.16,1.83-.23,3.68-.25,5.54-.84-1.43-1.96-2.66-3.29-3.63,1.37-.27,2.59-.95,3.54-1.9ZM316.85,15.11c-2.96,0-5.36-2.4-5.36-5.36s2.4-5.36,5.36-5.36,5.36,2.4,5.36,5.36-2.4,5.36-5.36,5.36Zm0,1.5s.03,0,.04,0c-1.41,1.2-2.77,2.45-4.1,3.77,.25-.97,.4-1.98,.4-3.03,0-.65-.07-1.28-.17-1.9,1.09,.73,2.41,1.16,3.82,1.16ZM180.56,90.51c-4.73-1.8-9.65-3.1-14.72-3.83,3.39-1.42,5.99-4.34,6.99-7.93,1.53,4.57,4.22,8.61,7.73,11.76Zm55.31-44.26c6.27,0,11.37,5.1,11.37,11.37s-5.1,11.37-11.37,11.37-11.37-5.1-11.37-11.37,5.1-11.37,11.37-11.37Zm45.01,23.16c0-3.09,2.51-5.6,5.6-5.6s5.6,2.51,5.6,5.6-2.51,5.6-5.6,5.6-5.6-2.51-5.6-5.6Zm-1.17,2.14c-2.39-1.51-4.93-2.8-7.61-3.82,2.83-.14,5.56-.71,8.11-1.64-.53,.99-.83,2.12-.83,3.32,0,.75,.12,1.46,.33,2.14Zm-31.02-14.86c2.6,3.48,6.01,6.32,9.93,8.25-.61-.03-1.23-.05-1.84-.05-4.03,0-7.92,.57-11.62,1.61,2.21-2.31,3.58-5.44,3.58-8.89,0-.31-.02-.62-.05-.93Zm-13.05,13.79c-4,2.27-7.6,5.15-10.67,8.53,.97-2.81,1.51-5.83,1.51-8.97,0-1.35-.1-2.67-.29-3.97,2.31,2.65,5.68,4.34,9.45,4.41Zm-20.81,28.08c-.88-1.7-2.43-3-4.29-3.55,2.59-1.21,4.97-2.81,7.05-4.72-1.19,2.63-2.12,5.4-2.75,8.28Zm-11.95,3.28c0-3.1,2.52-5.63,5.63-5.63s5.63,2.52,5.63,5.63-2.52,5.63-5.63,5.63-5.63-2.52-5.63-5.63Zm-1.5,0c0,.42,.04,.83,.11,1.23-2.56-2.22-5.24-4.24-8.05-6.05,1.78,.36,3.62,.55,5.51,.55,1.39,0,2.76-.11,4.09-.31-1.04,1.24-1.66,2.83-1.66,4.57Zm7.13,7.13c2.12,0,4.02-.93,5.33-2.41-.01,.44-.03,.89-.03,1.33,0,3.98,.56,7.83,1.57,11.49-2.28-3.71-4.92-7.22-7.91-10.5,.34,.05,.69,.09,1.05,.09Zm48.28-42.57c22.88,0,41.5,18.62,41.5,41.5s-18.62,41.5-41.5,41.5-41.5-18.62-41.5-41.5,18.62-41.5,41.5-41.5Zm29.33,10.11c.13,0,.25,.02,.38,.02,2.35,0,4.44-1.16,5.73-2.93,.22,4.42,.85,8.75,1.87,12.97-2.15-3.74-4.84-7.14-7.97-10.07Zm6.19-11.15c-1.17-1.66-3.03-2.8-5.16-3,2.54-1.88,4.74-4.19,6.5-6.82-.68,3.22-1.12,6.5-1.34,9.82Zm19.42-48c0,5.8-4.72,10.52-10.52,10.52s-10.52-4.72-10.52-10.52,4.72-10.52,10.52-10.52,10.52,4.72,10.52,10.52Zm-5.89,11.08c-3,4.04-5.52,8.36-7.56,12.89,.01-.36,.03-.72,.03-1.08,0-4.47-1.08-8.69-2.97-12.42,1.74,.98,3.74,1.55,5.88,1.55,1.64,0,3.2-.33,4.63-.93Zm-23.23-15.25c0-1.97,1.6-3.57,3.57-3.57s3.57,1.6,3.57,3.57-1.6,3.57-3.57,3.57-3.57-1.6-3.57-3.57Zm6.59,4.06s0,.07,0,.11c0,.95,.12,1.87,.33,2.76-.74-.69-1.51-1.34-2.32-1.95,.74-.15,1.41-.48,2-.91Zm7.61,22.99c0,14.36-11.68,26.04-26.04,26.04s-26.04-11.68-26.04-26.04,11.68-26.04,26.04-26.04,26.04,11.68,26.04,26.04Zm-52.82-6.37c-.33-.7-.75-1.35-1.25-1.93,.69-.05,1.35-.23,1.95-.51-.27,.8-.51,1.61-.7,2.44Zm-.66,8.57c.15,1.9,.49,3.74,1.01,5.51-1.29-1.13-2.81-2.01-4.48-2.56,1.4-.66,2.6-1.69,3.47-2.96Zm-13.58,3.88c.26-.8,.41-1.64,.43-2.52,.62,.59,1.32,1.09,2.09,1.49-.88,.26-1.72,.6-2.51,1.03Zm-6.69,10.44c-.91-1.65-1.99-3.19-3.21-4.61,.53,.1,1.08,.16,1.64,.16,1.03,0,2.02-.19,2.94-.52-.77,1.51-1.25,3.19-1.37,4.97Zm1.94,13.29c0,14.36-11.68,26.04-26.04,26.04s-26.04-11.68-26.04-26.04,11.68-26.04,26.04-26.04,26.04,11.68,26.04,26.04Zm-13.92-24.71c.65-.24,1.25-.59,1.76-1.03,.06,.79,.23,1.56,.49,2.28-.73-.45-1.48-.86-2.26-1.24Zm-45.75,16.51c0-1.97,1.6-3.57,3.57-3.57s3.57,1.6,3.57,3.57-1.6,3.57-3.57,3.57-3.57-1.6-3.57-3.57Zm6.38,4.22c-.15,1.01-.23,2.03-.27,3.07-.52-.84-1.14-1.61-1.85-2.29,.77-.11,1.5-.37,2.12-.78Zm.09,9.47c0,5.84-4.75,10.59-10.59,10.59s-10.59-4.75-10.59-10.59,4.75-10.59,10.59-10.59,10.59,4.75,10.59,10.59Zm-27.11,11.15c-2.96,0-5.36-2.4-5.36-5.36s2.4-5.36,5.36-5.36,5.36,2.4,5.36,5.36-2.4,5.36-5.36,5.36Zm6.73-4.08c.98,1.36,2.24,2.5,3.69,3.35-1.89,.01-3.77,.12-5.64,.28,.99-.96,1.69-2.22,1.95-3.63Zm3.77,4.84c18.29-.16,35.57,6.91,48.61,19.78,13.03,12.87,20.27,30.04,20.38,48.35,.12,18.31-6.91,35.57-19.78,48.61-12.87,13.03-30.04,20.27-48.35,20.38-.15,0-.29,0-.44,0-37.6,0-68.32-30.48-68.55-68.13-.12-18.31,6.91-35.58,19.78-48.61,12.87-13.03,30.04-20.27,48.35-20.38ZM57.76,224.78c6.19,0,11.23,5.04,11.23,11.23s-5.04,11.23-11.23,11.23-11.23-5.04-11.23-11.23,5.04-11.23,11.23-11.23Zm32.32-44.04c-3.14-3.44-7.15-6.07-11.66-7.56,3.57-1,6.49-3.59,7.9-6.97,.74,5.04,2.01,9.9,3.76,14.53Zm11.42,33.51c-3.03,0-5.49-2.46-5.49-5.49s2.46-5.49,5.49-5.49,5.49,2.46,5.49,5.49-2.46,5.49-5.49,5.49Zm0-12.47c-1.74,0-3.33,.65-4.56,1.7,.21-1.38,.33-2.79,.33-4.23,0-1.83-.18-3.62-.53-5.34,1.82,2.81,3.82,5.48,6.01,7.99-.41-.07-.83-.12-1.25-.12Zm-6.72,8.87c.52,1.87,1.8,3.42,3.49,4.3-2.83,.65-5.55,1.57-8.14,2.75,1.89-2.08,3.47-4.46,4.65-7.05Zm-24.32,25.05c-.09-3.68-1.75-6.98-4.34-9.25,1.21,.16,2.44,.26,3.69,.26,3.16,0,6.19-.54,9.02-1.53-3.31,3.04-6.14,6.59-8.37,10.52Zm-12.71,13.04c3.38,0,6.45-1.34,8.74-3.5-1.03,3.68-1.6,7.56-1.6,11.57,0,.61,.02,1.22,.05,1.82-1.94-3.94-4.78-7.35-8.27-9.95,.36,.03,.72,.05,1.08,.05Zm13.78,30.97c-.67-.21-1.39-.33-2.13-.33-1.2,0-2.33,.3-3.32,.83,.93-2.54,1.5-5.26,1.64-8.1,1.02,2.67,2.3,5.21,3.81,7.59Zm-2.13,12.37c-3.09,0-5.6-2.51-5.6-5.6s2.51-5.6,5.6-5.6,5.6,2.51,5.6,5.6-2.51,5.6-5.6,5.6Zm-7.07-4.95c.19,2.13,1.33,3.99,3,5.16-3.35,.22-6.63,.68-9.84,1.36,2.64-1.76,4.95-3.97,6.84-6.51Zm14.17-.65c0-.12-.01-.24-.02-.37,2.94,3.14,6.35,5.84,10.11,7.99-4.21-1.02-8.55-1.67-13.02-1.9,1.77-1.29,2.93-3.38,2.93-5.73Zm-10.12-29.67c0-22.86,18.6-41.46,41.46-41.46s41.46,18.6,41.46,41.46-18.6,41.46-41.46,41.46-41.46-18.6-41.46-41.46Zm39.84-42.91c1.39-1.28,2.27-3.11,2.27-5.14,0-.36-.04-.72-.09-1.07,3,2.74,6.25,5.22,9.69,7.41-3.28-.81-6.71-1.24-10.24-1.24-.54,0-1.08,.02-1.62,.04Zm-20.46-52.34c0,5.83-4.74,10.57-10.57,10.57s-10.57-4.74-10.57-10.57,4.74-10.57,10.57-10.57,10.57,4.74,10.57,10.57Zm-20.62,7.75c0,1.97-1.6,3.57-3.57,3.57s-3.57-1.6-3.57-3.57,1.6-3.57,3.57-3.57,3.57,1.6,3.57,3.57Zm1.43,.67c.68,.7,1.45,1.31,2.29,1.83-1.03,.04-2.05,.12-3.05,.27,.41-.62,.66-1.33,.77-2.1Zm3.25,3.29c14.32,0,25.97,11.65,25.97,25.97s-11.65,25.97-25.97,25.97-25.97-11.65-25.97-25.97,11.65-25.97,25.97-25.97Zm-23.06,40.83c-.78-.28-1.62-.44-2.48-.47,.48-.56,.86-1.22,1.1-1.94,.42,.83,.89,1.63,1.39,2.41Zm9.91,9.22c-1.69,.15-3.29,.62-4.73,1.37,.28-.84,.44-1.74,.44-2.67,0-.61-.07-1.19-.19-1.76,1.38,1.16,2.88,2.19,4.48,3.07Zm-11.11,9.06c-.38-.73-.87-1.39-1.44-1.97,.84-.01,1.64-.15,2.4-.39-.4,.75-.72,1.54-.97,2.36Zm.11,7.58c.54,1.65,1.42,3.14,2.54,4.42-1.76-.54-3.6-.9-5.49-1.07,1.26-.83,2.28-1.99,2.95-3.35Zm-5.44,4.73c14.36,0,26.04,11.68,26.04,26.04s-11.68,26.04-26.04,26.04-26.04-11.68-26.04-26.04,11.68-26.04,26.04-26.04Zm-8.46-.15c.34-.64,.56-1.36,.63-2.11,.6,.56,1.28,1.03,2.02,1.4-.9,.19-1.79,.43-2.65,.71Zm9.67,53.7c-4.63,2.08-9,4.63-13.03,7.62,.61-1.44,.95-3.02,.95-4.69,0-2.14-.57-4.14-1.55-5.88,3.73,1.9,7.95,2.97,12.42,2.97,.4,0,.81-.01,1.21-.03Zm-24.68-12.09c0,1.97-1.6,3.57-3.57,3.57s-3.57-1.6-3.57-3.57,1.6-3.57,3.57-3.57,3.57,1.6,3.57,3.57Zm1.4,1.02c.61,.81,1.26,1.59,1.95,2.32-.89-.21-1.81-.33-2.76-.33-.04,0-.07,0-.11,0,.44-.59,.76-1.26,.91-2Zm-.81,3.48c5.8,0,10.52,4.72,10.52,10.52s-4.72,10.52-10.52,10.52-10.52-4.72-10.52-10.52,4.72-10.52,10.52-10.52Zm-2.24,26.19c0,2.95-2.4,5.36-5.36,5.36s-5.36-2.4-5.36-5.36,2.4-5.36,5.36-5.36,5.36,2.4,5.36,5.36Zm.34-3.82c.62,.1,1.26,.17,1.91,.17,1.07,0,2.1-.15,3.08-.42-1.33,1.34-2.61,2.73-3.83,4.17,0-.03,0-.07,0-.1,0-1.41-.43-2.73-1.16-3.82Zm54.61-19.43c.17,0,.35,0,.52,0,37.8,.28,68.33,31.27,68.05,69.07-.28,37.63-30.98,68.05-68.55,68.05-.17,0-.35,0-.52,0-18.31-.14-35.48-7.4-48.33-20.44-12.78-12.97-19.77-30.12-19.71-48.31,0-.26,0-.51,0-.77,.52-37.42,31.12-67.6,68.54-67.6Zm16.27,264.49c-1.42-3.37-4.33-5.95-7.9-6.94,4.5-1.49,8.48-4.1,11.61-7.51-1.75,4.65-3,9.48-3.72,14.45Zm-39.78-69.78c0-6.19,5.04-11.23,11.23-11.23s11.23,5.04,11.23,11.23-5.04,11.23-11.23,11.23-11.23-5.04-11.23-11.23Zm22.88-44.87c-3.09,0-5.6-2.51-5.6-5.6s2.51-5.6,5.6-5.6,5.6,2.51,5.6,5.6-2.51,5.6-5.6,5.6Zm-7.07-6.25c-1.88-2.53-4.18-4.72-6.79-6.48,3.2,.67,6.47,1.11,9.78,1.33-1.66,1.17-2.79,3.02-2.99,5.15Zm7.07,7.75c.74,0,1.46-.12,2.13-.33-1.51,2.38-2.79,4.92-3.81,7.59-.14-2.83-.71-5.55-1.64-8.09,.99,.53,2.12,.83,3.32,.83Zm-12.73,30.7c3.48-2.6,6.33-6.01,8.27-9.95-.03,.6-.05,1.21-.05,1.82,0,4.01,.56,7.89,1.6,11.57-2.28-2.16-5.35-3.5-8.74-3.5-.37,0-.72,.02-1.08,.05Zm13.79,12.99c2.23,3.93,5.06,7.48,8.36,10.52-2.83-.99-5.86-1.53-9.01-1.53-1.25,0-2.48,.09-3.69,.26,2.59-2.27,4.25-5.56,4.34-9.25Zm31.04,32.42c-3.03,0-5.49-2.46-5.49-5.49s2.46-5.49,5.49-5.49,5.49,2.46,5.49,5.49-2.46,5.49-5.49,5.49Zm-6.72-7.37c-1.19-2.59-2.76-4.97-4.65-7.05,2.59,1.18,5.31,2.1,8.14,2.75-1.69,.88-2.96,2.44-3.49,4.3Zm2.16,7.17c1.22,1.06,2.82,1.7,4.56,1.7,.41,0,.81-.04,1.2-.11-2.18,2.5-4.16,5.13-5.94,7.88,.33-1.7,.51-3.45,.51-5.24,0-1.44-.11-2.85-.33-4.23Zm9.28-10.42c.54,.02,1.08,.04,1.62,.04,3.48,0,6.87-.43,10.11-1.21-3.36,2.15-6.55,4.6-9.55,7.33,.05-.34,.08-.68,.08-1.02,0-2.03-.88-3.86-2.27-5.14Zm-39.84-42.91c0-22.86,18.6-41.46,41.46-41.46s41.46,18.6,41.46,41.46-18.6,41.46-41.46,41.46-41.46-18.6-41.46-41.46Zm10.1-29.31c0-.12,.02-.24,.02-.37,0-2.35-1.15-4.43-2.91-5.72,4.45-.22,8.79-.88,12.99-1.9-3.75,2.15-7.15,4.85-10.09,7.99Zm-35.16-12.14c-.37-.01-.73-.03-1.1-.03-4.47,0-8.68,1.08-12.42,2.97,.98-1.74,1.55-3.74,1.55-5.88,0-1.64-.33-3.2-.93-4.63,4.04,3,8.36,5.52,12.9,7.56Zm-26.23-18.6c0,2.96-2.4,5.36-5.36,5.36s-5.36-2.4-5.36-5.36,2.4-5.36,5.36-5.36,5.36,2.4,5.36,5.36Zm1.5-.06c1.13,1.34,2.3,2.65,3.55,3.91,.07,.07,.14,.13,.21,.2-.96-.25-1.97-.4-3.01-.4-.65,0-1.28,.07-1.91,.17,.74-1.09,1.17-2.41,1.17-3.82,0-.02,0-.04,0-.06Zm.74,5.2c5.8,0,10.52,4.72,10.52,10.52s-4.72,10.52-10.52,10.52-10.52-4.72-10.52-10.52,4.72-10.52,10.52-10.52Zm-.59,25.55c0,1.97-1.6,3.57-3.57,3.57s-3.57-1.6-3.57-3.57,1.6-3.57,3.57-3.57,3.57,1.6,3.57,3.57Zm.48-3.02s.07,0,.11,0c.95,0,1.87-.12,2.76-.33-.69,.74-1.34,1.51-1.95,2.33-.15-.74-.48-1.41-.91-2Zm22.99-7.61c14.36,0,26.04,11.68,26.04,26.04s-11.68,26.04-26.04,26.04-26.04-11.68-26.04-26.04,11.68-26.04,26.04-26.04Zm-5.81,52.95c-.74,.37-1.42,.84-2.02,1.4-.07-.76-.29-1.47-.63-2.11,.87,.28,1.75,.52,2.65,.71Zm13.79-.56c-1.12,1.28-2,2.77-2.54,4.42-.67-1.37-1.69-2.53-2.95-3.35,1.89-.17,3.73-.53,5.49-1.07Zm-2.66,12c.24,.82,.57,1.61,.96,2.36-.76-.24-1.57-.38-2.4-.39,.57-.58,1.05-1.24,1.44-1.97Zm11.1,9.06c-1.59,.87-3.09,1.9-4.48,3.07,.12-.57,.19-1.16,.19-1.76,0-.93-.16-1.83-.44-2.67,1.44,.74,3.04,1.22,4.73,1.37Zm-11.3,11.63c-.24-.72-.61-1.37-1.1-1.94,.87-.03,1.7-.19,2.48-.47-.5,.78-.97,1.58-1.39,2.41Zm24.45-13.5c14.32,0,25.97,11.65,25.97,25.97s-11.65,25.97-25.97,25.97-25.97-11.65-25.97-25.97,11.65-25.97,25.97-25.97Zm-4.68,55.9c0,1.97-1.6,3.57-3.57,3.57s-3.57-1.6-3.57-3.57,1.6-3.57,3.57-3.57,3.57,1.6,3.57,3.57Zm.67-2.77c1,.15,2.02,.24,3.06,.27-.84,.52-1.61,1.13-2.29,1.83-.1-.77-.36-1.48-.77-2.1Zm9.39-.05c5.83,0,10.57,4.74,10.57,10.57s-4.74,10.57-10.57,10.57-10.57-4.74-10.57-10.57,4.74-10.57,10.57-10.57Zm5.75,21.67c2.98,0,5.4,2.42,5.4,5.4s-2.42,5.4-5.4,5.4-5.4-2.42-5.4-5.4,2.42-5.4,5.4-5.4Zm1.35-1.37c1.33-.97,2.45-2.21,3.29-3.63,.01,1.86,.09,3.71,.25,5.54-.95-.95-2.17-1.63-3.54-1.9Zm4.77-4.59c.24-37.66,30.95-68.13,68.55-68.13,.14,0,.29,0,.44,0,18.31,.11,35.49,7.35,48.35,20.38,12.87,13.03,19.89,30.29,19.78,48.61-.24,37.66-30.95,68.14-68.55,68.13-.14,0-.29,0-.44,0-37.8-.24-68.37-31.19-68.13-68.99Zm193.82,87.01c0-3.09,2.51-5.6,5.6-5.6s5.6,2.51,5.6,5.6-2.51,5.6-5.6,5.6-5.6-2.51-5.6-5.6Zm-.67,3.32c-2.55-.94-5.27-1.5-8.11-1.64,2.67-1.02,5.22-2.31,7.61-3.82-.21,.68-.33,1.39-.33,2.14,0,1.2,.3,2.33,.83,3.32Zm-44.34,19.84c-6.27,0-11.37-5.1-11.37-11.37s5.1-11.37,11.37-11.37,11.37,5.1,11.37,11.37-5.1,11.37-11.37,11.37Zm-63.04-32.5c-1-3.6-3.62-6.53-7.02-7.94,5.14-.75,10.1-2.08,14.82-3.89-3.54,3.16-6.26,7.22-7.8,11.83Zm30.04-23.08c0-3.1,2.52-5.63,5.63-5.63s5.63,2.53,5.63,5.63-2.52,5.63-5.63,5.63-5.63-2.52-5.63-5.63Zm.16,4.57c-1.34-.2-2.7-.31-4.09-.31-1.93,0-3.82,.2-5.64,.58,2.88-1.85,5.62-3.9,8.19-6.13-.08,.42-.12,.85-.12,1.28,0,1.74,.63,3.33,1.66,4.57Zm11.79-1.29c.64,2.88,1.57,5.65,2.75,8.28-2.08-1.92-4.46-3.51-7.05-4.72,1.87-.56,3.41-1.85,4.29-3.55Zm11.36,32.49c.19-1.3,.29-2.62,.29-3.97,0-3.14-.54-6.15-1.51-8.97,3.07,3.38,6.68,6.26,10.67,8.53-3.77,.07-7.14,1.76-9.46,4.41Zm18.97-.44c3.7,1.04,7.6,1.61,11.62,1.61,.62,0,1.23-.02,1.84-.05-3.93,1.94-7.33,4.78-9.93,8.25,.02-.31,.05-.62,.05-.93,0-3.45-1.37-6.57-3.58-8.89Zm11.62,.12c-22.88,0-41.5-18.62-41.5-41.5s18.62-41.5,41.5-41.5,41.5,18.62,41.5,41.5-18.62,41.5-41.5,41.5Zm-42.95-40.17c-1.31-1.47-3.21-2.41-5.33-2.41-.37,0-.74,.04-1.1,.09,2.99-3.28,5.67-6.84,8-10.64-1.04,3.7-1.61,7.6-1.61,11.63,0,.45,.02,.89,.03,1.33Zm-63.78,25.23c0,2.96-2.4,5.36-5.36,5.36s-5.36-2.4-5.36-5.36,2.4-5.36,5.36-5.36,5.36,2.4,5.36,5.36Zm-.58-4.91c1.87,.16,3.75,.27,5.64,.28-1.45,.85-2.7,1.99-3.69,3.35-.27-1.41-.96-2.67-1.95-3.63Zm11.73,.11c5.84,0,10.59,4.75,10.59,10.59s-4.75,10.59-10.59,10.59-10.59-4.75-10.59-10.59,4.75-10.59,10.59-10.59Zm7.7,20.71c1.97,0,3.57,1.6,3.57,3.57s-1.6,3.57-3.57,3.57-3.57-1.6-3.57-3.57,1.6-3.57,3.57-3.57Zm.69-1.43c.71-.68,1.33-1.45,1.85-2.29,.03,1.04,.12,2.07,.27,3.07-.62-.42-1.35-.68-2.12-.78Zm3.32-3.2c0-14.36,11.68-26.04,26.04-26.04s26.04,11.68,26.04,26.04-11.68,26.04-26.04,26.04-26.04-11.68-26.04-26.04Zm40.42,23.47c-.26,.72-.43,1.48-.49,2.28-.51-.45-1.11-.8-1.76-1.04,.77-.38,1.53-.8,2.26-1.24Zm9.72-10.18c.12,1.78,.6,3.46,1.37,4.97-.92-.33-1.91-.52-2.94-.52-.56,0-1.11,.06-1.64,.16,1.22-1.42,2.29-2.96,3.21-4.61Zm9.2,11.47c-.77,.39-1.47,.89-2.09,1.49-.02-.88-.16-1.72-.43-2.52,.79,.43,1.63,.77,2.51,1.03Zm12.08-2.66c-.52,1.77-.86,3.61-1.01,5.51-.87-1.27-2.07-2.29-3.47-2.96,1.67-.54,3.19-1.42,4.48-2.56Zm.35,16.53c-.6-.28-1.26-.46-1.95-.51,.5-.58,.92-1.23,1.25-1.93,.2,.83,.43,1.64,.7,2.44Zm.03-8.82c0-14.36,11.68-26.04,26.04-26.04s26.04,11.68,26.04,26.04-11.68,26.04-26.04,26.04-26.04-11.68-26.04-26.04Zm41.46,23.48c1.97,0,3.57,1.6,3.57,3.57s-1.6,3.57-3.57,3.57-3.57-1.6-3.57-3.57,1.6-3.57,3.57-3.57Zm1.02-1.4c.81-.61,1.59-1.26,2.32-1.95-.21,.89-.33,1.81-.33,2.76,0,.04,0,.07,0,.11-.59-.44-1.26-.76-2-.91Zm3.48,.81c0-5.8,4.72-10.52,10.52-10.52s10.52,4.72,10.52,10.52-4.72,10.52-10.52,10.52-10.52-4.72-10.52-10.52Zm31.55,7.6c0,2.96-2.4,5.36-5.36,5.36s-5.36-2.4-5.36-5.36,2.4-5.36,5.36-5.36,5.36,2.4,5.36,5.36Zm-5.36-6.86c-1.41,0-2.73,.43-3.82,1.16,.1-.62,.17-1.26,.17-1.91,0-1.05-.15-2.06-.4-3.03,1.32,1.32,2.69,2.57,4.1,3.77-.01,0-.03,0-.04,0Zm-15.67-12.75c-2.14,0-4.14,.57-5.88,1.55,1.9-3.73,2.97-7.95,2.97-12.42,0-.36-.01-.73-.03-1.09,2.04,4.53,4.57,8.85,7.56,12.89-1.43-.6-2.99-.93-4.63-.93Zm-14.06-32.99c2.13-.19,3.99-1.33,5.16-3,.22,3.32,.67,6.6,1.34,9.82-1.76-2.63-3.96-4.94-6.5-6.82Zm5.08-11.24c-1.29-1.77-3.38-2.93-5.73-2.93-.13,0-.25,.01-.38,.02,3.13-2.93,5.83-6.32,7.97-10.06-1.01,4.22-1.65,8.56-1.87,12.97Zm-35.43-77.28c-14.51,0-27.36,7.23-35.14,18.28,2.56-7.19,3.99-14.91,4.04-22.96,.12-18.71-7.06-36.35-20.21-49.66-13.15-13.31-30.69-20.71-49.4-20.83-.15,0-.3,0-.45,0-7.55,0-14.91,1.21-21.88,3.49,10.37-7.85,17.08-20.28,17.08-34.26,0-23.68-19.27-42.95-42.95-42.95-2.48,0-4.91,.22-7.27,.63,23.2-11.28,39.32-35.01,39.52-62.51,.21-27.87-15.98-52.11-39.51-63.56,2.36,.4,4.79,.63,7.26,.63,23.68,0,42.95-19.27,42.95-42.95,0-14.01-6.74-26.46-17.15-34.31,6.91,2.29,14.29,3.55,21.95,3.55,.15,0,.3,0,.45,0,18.71-.12,36.26-7.51,49.4-20.83,13.15-13.31,20.32-30.95,20.21-49.66-.05-7.91-1.41-15.61-3.96-22.86,7.79,10.99,20.61,18.18,35.07,18.18,23.7,0,42.99-19.28,42.99-42.99,0-2.43-.21-4.82-.6-7.14,3.44,7.05,8.09,13.55,13.84,19.22,13.2,13.01,30.63,20.15,49.15,20.15,.18,0,.36,0,.54,0,18.71-.14,36.25-7.56,49.38-20.89,5.43-5.51,9.82-11.77,13.11-18.53-.4,2.34-.61,4.74-.61,7.19,0,23.7,19.28,42.99,42.99,42.99,14.47,0,27.28-7.19,35.07-18.18-2.55,7.25-3.91,14.95-3.96,22.86-.12,18.71,7.06,36.35,20.21,49.66,13.15,13.31,30.69,20.71,49.4,20.83,.15,0,.29,0,.45,0,7.66,0,15.04-1.26,21.95-3.55-10.41,7.85-17.15,20.3-17.15,34.31,0,23.68,19.27,42.95,42.95,42.95,2.48,0,4.9-.22,7.26-.63-23.54,11.45-39.72,35.69-39.51,63.56,.21,27.5,16.32,51.23,39.52,62.51-2.36-.4-4.79-.63-7.27-.63-23.68,0-42.95,19.27-42.95,42.95,0,13.97,6.71,26.41,17.08,34.26-6.97-2.29-14.33-3.49-21.88-3.49-.15,0-.3,0-.45,0-18.71,.12-36.26,7.51-49.4,20.83-13.15,13.31-20.32,30.95-20.21,49.66,.05,8.05,1.48,15.77,4.03,22.96-7.79-11.04-20.63-18.28-35.14-18.28-23.7,0-42.99,19.28-42.99,42.99,0,2.5,.23,4.94,.64,7.32-11.28-23.21-35.01-39.34-62.51-39.54-.18,0-.36,0-.54,0-18.51,0-35.95,7.14-49.15,20.15-5.76,5.67-10.4,12.16-13.84,19.22,.39-2.32,.6-4.71,.6-7.14,0-23.7-19.28-42.99-42.99-42.99Zm452.45-256.61c0-2.96,2.4-5.36,5.36-5.36s5.36,2.4,5.36,5.36-2.4,5.36-5.36,5.36-5.36-2.4-5.36-5.36Zm-1.5,.1c-1.22-1.44-2.49-2.83-3.82-4.17,.98,.26,2.01,.41,3.08,.41,.65,0,1.28-.07,1.91-.17-.73,1.09-1.16,2.41-1.16,3.82,0,.03,0,.07,0,.1Zm-69.72-150.74c1.42,3.38,4.33,5.97,7.9,6.97-4.52,1.49-8.52,4.13-11.66,7.56,1.75-4.63,3.02-9.49,3.76-14.53Zm39.79,69.8c0,6.19-5.04,11.23-11.23,11.23s-11.23-5.04-11.23-11.23,5.04-11.23,11.23-11.23,11.23,5.04,11.23,11.23Zm-22.88,56.07c-3.09,0-5.6-2.51-5.6-5.6s2.51-5.6,5.6-5.6,5.6,2.51,5.6,5.6-2.51,5.6-5.6,5.6Zm0-12.7c-.74,0-1.46,.12-2.13,.33,1.51-2.38,2.79-4.92,3.81-7.59,.14,2.83,.71,5.55,1.64,8.1-.99-.53-2.12-.83-3.32-.83Zm12.73-30.7c-3.48,2.6-6.33,6.01-8.27,9.95,.03-.6,.05-1.21,.05-1.82,0-4.01-.56-7.89-1.6-11.57,2.28,2.16,5.35,3.5,8.74,3.5,.37,0,.72-.02,1.08-.05Zm-13.79-12.99c-2.23-3.93-5.06-7.48-8.37-10.52,2.83,.99,5.86,1.53,9.02,1.53,1.25,0,2.48-.09,3.69-.26-2.59,2.27-4.25,5.56-4.34,9.25Zm-31.04-32.42c3.03,0,5.49,2.46,5.49,5.49s-2.46,5.49-5.49,5.49-5.49-2.46-5.49-5.49,2.46-5.49,5.49-5.49Zm6.72,7.37c1.19,2.59,2.76,4.97,4.65,7.05-2.59-1.18-5.31-2.1-8.14-2.75,1.69-.88,2.96-2.44,3.49-4.3Zm-2.16-7.17c-1.23-1.06-2.82-1.7-4.56-1.7-.43,0-.85,.04-1.26,.12,2.19-2.52,4.2-5.19,6.01-8-.34,1.73-.53,3.52-.53,5.35,0,1.44,.11,2.85,.33,4.24Zm-9.28,10.42c-.54-.02-1.08-.04-1.62-.04-3.53,0-6.96,.44-10.25,1.24,3.44-2.19,6.69-4.67,9.69-7.41-.05,.35-.09,.71-.09,1.07,0,2.03,.88,3.86,2.27,5.14Zm39.84,42.91c0,22.86-18.6,41.46-41.46,41.46s-41.46-18.6-41.46-41.46,18.6-41.46,41.46-41.46,41.46,18.6,41.46,41.46Zm-10.1,29.31c0,.12-.02,.24-.02,.37,0,2.36,1.16,4.44,2.93,5.73-4.46,.22-8.81,.87-13.02,1.9,3.76-2.15,7.17-4.85,10.11-7.99Zm14.15,1.01c1.89,2.54,4.21,4.75,6.84,6.51-3.21-.68-6.49-1.13-9.84-1.36,1.66-1.17,2.8-3.03,3-5.16Zm45,24.58c-5.8,0-10.52-4.72-10.52-10.52s4.72-10.52,10.52-10.52,10.52,4.72,10.52,10.52-4.72,10.52-10.52,10.52Zm-11.06-5.84c-4.03-2.99-8.4-5.54-13.03-7.62,.4,.02,.8,.03,1.2,.03,4.47,0,8.68-1.08,12.42-2.97-.98,1.74-1.55,3.74-1.55,5.88,0,1.66,.34,3.24,.95,4.68Zm11.65-19.71c0-1.97,1.6-3.57,3.57-3.57s3.57,1.6,3.57,3.57-1.6,3.57-3.57,3.57-3.57-1.6-3.57-3.57Zm-.48,3.02s-.07,0-.11,0c-.95,0-1.87,.12-2.76,.33,.69-.74,1.34-1.51,1.95-2.32,.15,.74,.48,1.41,.91,2Zm-22.99,7.61c-14.36,0-26.04-11.68-26.04-26.04s11.68-26.04,26.04-26.04,26.04,11.68,26.04,26.04-11.68,26.04-26.04,26.04Zm5.81-52.95c.74-.37,1.42-.84,2.02-1.4,.07,.76,.29,1.47,.63,2.11-.87-.28-1.75-.52-2.65-.71Zm-13.79,.56c1.12-1.28,2-2.77,2.54-4.42,.67,1.37,1.69,2.53,2.95,3.35-1.89,.17-3.73,.53-5.49,1.07Zm2.65-12c-.24-.82-.57-1.61-.97-2.36,.76,.24,1.57,.38,2.4,.39-.57,.58-1.05,1.24-1.44,1.97Zm-11.11-9.06c1.6-.87,3.09-1.91,4.48-3.07-.12,.57-.19,1.16-.19,1.76,0,.93,.16,1.83,.44,2.67-1.44-.74-3.04-1.22-4.73-1.37Zm11.3-11.63c.24,.72,.61,1.37,1.1,1.94-.87,.03-1.7,.19-2.48,.47,.5-.78,.97-1.58,1.39-2.41Zm-24.45,13.5c-14.32,0-25.97-11.65-25.97-25.97s11.65-25.97,25.97-25.97,25.97,11.65,25.97,25.97-11.65,25.97-25.97,25.97Zm4.68-55.9c0-1.97,1.6-3.57,3.57-3.57s3.57,1.6,3.57,3.57-1.6,3.57-3.57,3.57-3.57-1.6-3.57-3.57Zm-.67,2.77c-1-.15-2.02-.24-3.05-.27,.83-.52,1.61-1.13,2.29-1.83,.1,.77,.36,1.48,.77,2.1Zm-9.39,.05c-5.83,0-10.57-4.74-10.57-10.57s4.74-10.57,10.57-10.57,10.57,4.74,10.57,10.57-4.74,10.57-10.57,10.57Zm-5.75-21.67c-2.98,0-5.4-2.42-5.4-5.4s2.42-5.4,5.4-5.4,5.4,2.42,5.4,5.4-2.42,5.4-5.4,5.4Zm-1.35,1.37c-1.33,.97-2.45,2.21-3.3,3.64-.01-1.87-.1-3.72-.25-5.55,.95,.96,2.18,1.64,3.55,1.91Zm-4.77,4.59c-.24,37.66-30.95,68.13-68.55,68.13-.15,0-.29,0-.44,0-18.31-.11-35.49-7.35-48.35-20.38-12.87-13.03-19.89-30.29-19.78-48.61,.11-18.31,7.35-35.49,20.38-48.35,13.03-12.87,30.31-19.88,48.61-19.78,37.8,.24,68.37,31.19,68.13,68.99Zm-193.82-87.01c0,3.09-2.51,5.6-5.6,5.6s-5.6-2.51-5.6-5.6,2.51-5.6,5.6-5.6,5.6,2.51,5.6,5.6Zm.67-3.32c2.55,.94,5.27,1.5,8.11,1.64-2.67,1.02-5.22,2.31-7.61,3.82,.21-.68,.33-1.39,.33-2.14,0-1.2-.3-2.33-.83-3.32Zm44.34-19.84c6.27,0,11.37,5.1,11.37,11.37s-5.1,11.37-11.37,11.37-11.37-5.1-11.37-11.37,5.1-11.37,11.37-11.37Zm63.04,32.5c1,3.59,3.6,6.51,6.99,7.93-5.06,.74-9.99,2.04-14.72,3.83,3.51-3.15,6.2-7.19,7.73-11.76Zm-30.04,23.08c0,3.1-2.52,5.63-5.63,5.63s-5.63-2.52-5.63-5.63,2.52-5.63,5.63-5.63,5.63,2.52,5.63,5.63Zm-.16-4.57c1.34,.2,2.7,.31,4.09,.31,1.89,0,3.73-.19,5.51-.55-2.81,1.81-5.5,3.83-8.05,6.05,.07-.4,.11-.81,.11-1.23,0-1.74-.63-3.33-1.66-4.57Zm-11.79,1.29c-.64-2.88-1.57-5.65-2.75-8.28,2.08,1.92,4.46,3.51,7.05,4.72-1.87,.56-3.41,1.86-4.29,3.55Zm-11.36-32.49c-.19,1.3-.29,2.62-.29,3.97,0,3.14,.54,6.15,1.51,8.97-3.07-3.38-6.67-6.26-10.67-8.53,3.77-.07,7.14-1.76,9.45-4.41Zm-18.97,.44c-3.7-1.04-7.6-1.61-11.62-1.61-.62,0-1.23,.02-1.84,.05,3.93-1.94,7.33-4.78,9.93-8.25-.02,.31-.05,.62-.05,.93,0,3.45,1.37,6.57,3.58,8.89Zm-11.62-.12c22.88,0,41.5,18.62,41.5,41.5s-18.62,41.5-41.5,41.5-41.5-18.62-41.5-41.5,18.62-41.5,41.5-41.5Zm42.95,40.17c1.31,1.47,3.21,2.41,5.33,2.41,.36,0,.7-.03,1.05-.09-2.99,3.28-5.63,6.79-7.91,10.5,1.02-3.66,1.57-7.51,1.57-11.49,0-.45-.02-.89-.03-1.33Zm63.78-25.23c0-2.96,2.4-5.36,5.36-5.36s5.36,2.4,5.36,5.36-2.4,5.36-5.36,5.36-5.36-2.4-5.36-5.36Zm.58,4.91c-1.86-.16-3.74-.27-5.65-.29,1.45-.85,2.7-1.99,3.69-3.35,.27,1.41,.97,2.67,1.96,3.63Zm-11.74-.11c-5.84,0-10.59-4.75-10.59-10.59s4.75-10.59,10.59-10.59,10.59,4.75,10.59,10.59-4.75,10.59-10.59,10.59Zm-7.7-20.71c-1.97,0-3.57-1.6-3.57-3.57s1.6-3.57,3.57-3.57,3.57,1.6,3.57,3.57-1.6,3.57-3.57,3.57Zm-.69,1.43c-.71,.68-1.33,1.45-1.85,2.29-.03-1.04-.12-2.07-.27-3.07,.62,.42,1.35,.68,2.12,.78Zm-3.32,3.2c0,14.36-11.68,26.04-26.04,26.04s-26.04-11.68-26.04-26.04,11.68-26.04,26.04-26.04,26.04,11.68,26.04,26.04Zm-40.42-23.47c.26-.72,.43-1.48,.49-2.28,.51,.45,1.11,.8,1.76,1.03-.77,.38-1.53,.79-2.26,1.24Zm-9.72,10.18c-.12-1.78-.6-3.46-1.37-4.97,.92,.33,1.91,.52,2.94,.52,.56,0,1.11-.06,1.64-.16-1.22,1.42-2.29,2.96-3.21,4.61Zm-9.2-11.47c.77-.39,1.47-.89,2.09-1.49,.02,.88,.16,1.72,.43,2.52-.79-.43-1.63-.77-2.51-1.03Zm-12.08,2.66c.52-1.77,.86-3.61,1.01-5.51,.87,1.27,2.07,2.29,3.47,2.96-1.67,.54-3.19,1.42-4.48,2.56Zm-.35-16.53c.6,.28,1.26,.46,1.95,.51-.5,.58-.92,1.23-1.25,1.93-.2-.83-.43-1.64-.7-2.44Zm-.03,8.82c0,14.36-11.68,26.04-26.04,26.04s-26.04-11.68-26.04-26.04,11.68-26.04,26.04-26.04,26.04,11.68,26.04,26.04Zm-41.46-23.48c-1.97,0-3.57-1.6-3.57-3.57s1.6-3.57,3.57-3.57,3.57,1.6,3.57,3.57-1.6,3.57-3.57,3.57Zm-1.02,1.4c-.81,.61-1.59,1.26-2.32,1.95,.21-.89,.33-1.81,.33-2.76,0-.04,0-.07,0-.11,.59,.44,1.26,.76,2,.91Zm-3.48-.81c0,5.8-4.72,10.52-10.52,10.52s-10.52-4.72-10.52-10.52,4.72-10.52,10.52-10.52,10.52,4.72,10.52,10.52Zm-31.55-7.6c0-2.96,2.4-5.36,5.36-5.36s5.36,2.4,5.36,5.36-2.4,5.36-5.36,5.36-5.36-2.4-5.36-5.36Zm5.36,6.86c1.41,0,2.73-.43,3.82-1.16-.1,.62-.17,1.26-.17,1.9,0,1.06,.15,2.08,.41,3.06-1.34-1.33-2.73-2.59-4.17-3.81,.04,0,.07,0,.11,0Zm15.67,12.75c2.14,0,4.14-.57,5.88-1.55-1.9,3.73-2.97,7.95-2.97,12.42,0,.4,.01,.8,.03,1.19-2.08-4.63-4.64-8.99-7.64-13.03,1.44,.62,3.03,.96,4.7,.96Zm14.06,32.99c-2.13,.19-3.99,1.33-5.15,2.99-.22-3.34-.67-6.61-1.34-9.81,1.76,2.63,3.96,4.93,6.5,6.82Zm-5.08,11.24c1.29,1.77,3.38,2.93,5.73,2.93,.13,0,.25-.01,.38-.02-3.12,2.92-5.8,6.29-7.94,10.01,1.01-4.2,1.62-8.53,1.84-12.92Zm234.45,425.96c-6.19,0-11.23-5.04-11.23-11.23s5.04-11.23,11.23-11.23,11.23,5.04,11.23,11.23-5.04,11.23-11.23,11.23Zm-32.27,44.09c3.13,3.41,7.12,6.02,11.61,7.51-3.57,.99-6.48,3.57-7.9,6.94-.72-4.97-1.97-9.81-3.72-14.45Zm20.62-111.39c3.09,0,5.6,2.51,5.6,5.6s-2.51,5.6-5.6,5.6-5.6-2.51-5.6-5.6,2.51-5.6,5.6-5.6Zm3.02,35.27c0,22.86-18.6,41.46-41.46,41.46s-41.46-18.6-41.46-41.46,18.6-41.46,41.46-41.46,41.46,18.6,41.46,41.46Zm-40.61,48.05c0-3.02,2.46-5.49,5.49-5.49s5.49,2.46,5.49,5.49-2.46,5.49-5.49,5.49-5.49-2.46-5.49-5.49Zm.77-5.14c-1.39,1.28-2.27,3.1-2.27,5.14,0,.35,.03,.69,.08,1.02-3-2.74-6.19-5.18-9.55-7.33,3.24,.79,6.63,1.21,10.11,1.21,.54,0,1.08-.02,1.62-.04Zm4.72,12.12c1.74,0,3.33-.65,4.56-1.7-.21,1.38-.33,2.79-.33,4.23,0,1.79,.18,3.54,.51,5.24-1.78-2.75-3.76-5.38-5.94-7.88,.39,.07,.79,.11,1.2,.11Zm6.72-8.87c-.52-1.87-1.8-3.42-3.49-4.3,2.83-.65,5.55-1.57,8.14-2.75-1.89,2.08-3.47,4.46-4.65,7.05Zm24.32-25.05c.09,3.68,1.75,6.98,4.34,9.25-1.21-.16-2.44-.26-3.69-.26-3.16,0-6.19,.54-9.01,1.53,3.31-3.04,6.13-6.59,8.36-10.52Zm12.71-13.04c-3.38,0-6.45,1.34-8.74,3.5,1.03-3.68,1.6-7.56,1.6-11.57,0-.61-.02-1.22-.05-1.82,1.94,3.94,4.78,7.35,8.27,9.95-.36-.03-.72-.05-1.08-.05Zm-13.78-30.97c.67,.21,1.39,.33,2.13,.33,1.2,0,2.33-.3,3.32-.83-.93,2.54-1.5,5.26-1.64,8.09-1.02-2.67-2.3-5.21-3.81-7.59Zm9.2-7.42c-.19-2.13-1.33-3.98-2.99-5.15,3.31-.22,6.58-.66,9.78-1.33-2.62,1.76-4.92,3.96-6.79,6.48Zm-14.17,.65c0,.12,.01,.24,.02,.36-2.94-3.14-6.33-5.83-10.09-7.98,4.2,1.02,8.53,1.67,12.99,1.9-1.76,1.29-2.92,3.37-2.92,5.72Zm-104.11,195.91c4.72,1.81,9.68,3.13,14.82,3.88-3.41,1.41-6.02,4.34-7.02,7.94-1.54-4.6-4.26-8.66-7.8-11.82Zm-55.24,44.32c-6.27,0-11.37-5.1-11.37-11.37s5.1-11.37,11.37-11.37,11.37,5.1,11.37,11.37-5.1,11.37-11.37,11.37Zm-20.91-20.14c-22.88,0-41.5-18.62-41.5-41.5s18.62-41.5,41.5-41.5,41.5,18.62,41.5,41.5-18.62,41.5-41.5,41.5Zm-24.1-3.03c0,3.09-2.51,5.6-5.6,5.6s-5.6-2.51-5.6-5.6,2.51-5.6,5.6-5.6,5.6,2.51,5.6,5.6Zm1.17-2.14c2.39,1.51,4.93,2.8,7.61,3.82-2.83,.14-5.56,.71-8.11,1.64,.53-.99,.83-2.12,.83-3.32,0-.75-.12-1.46-.33-2.14Zm22.93,6.66c4.03,0,7.92-.57,11.62-1.61-2.21,2.31-3.58,5.44-3.58,8.89,0,.31,.02,.62,.05,.93-2.6-3.48-6.01-6.32-9.93-8.25,.61,.03,1.23,.05,1.84,.05Zm21.14-5.58c4-2.27,7.6-5.15,10.67-8.53-.97,2.81-1.51,5.83-1.51,8.97,0,1.35,.1,2.67,.29,3.97-2.31-2.65-5.69-4.34-9.46-4.41Zm20.82-28.08c.88,1.7,2.43,3,4.29,3.55-2.59,1.21-4.97,2.81-7.05,4.72,1.19-2.63,2.11-5.4,2.75-8.28Zm11.95-3.28c0,3.1-2.52,5.63-5.63,5.63s-5.63-2.52-5.63-5.63,2.52-5.63,5.63-5.63,5.63,2.53,5.63,5.63Zm1.5,0c0-.44-.05-.86-.12-1.28,2.57,2.23,5.31,4.28,8.18,6.13-1.82-.38-3.7-.58-5.63-.58-1.39,0-2.76,.11-4.09,.31,1.04-1.24,1.66-2.83,1.66-4.57Zm-7.13-7.13c-2.12,0-4.02,.93-5.33,2.41,.01-.44,.03-.88,.03-1.33,0-4.03-.57-7.92-1.61-11.62,2.33,3.8,5.01,7.36,7.99,10.64-.36-.06-.72-.09-1.09-.09Zm-77.61,32.47c-.13,0-.25-.02-.38-.02-2.35,0-4.44,1.16-5.73,2.93-.22-4.45-.86-8.8-1.88-13,2.15,3.75,4.85,7.15,7.99,10.09Zm-6.18,11.16c1.17,1.66,3.02,2.79,5.15,2.99-2.53,1.88-4.72,4.18-6.48,6.79,.67-3.2,1.11-6.47,1.33-9.78Zm-19.43,47.99c0-5.8,4.72-10.52,10.52-10.52s10.52,4.72,10.52,10.52-4.72,10.52-10.52,10.52-10.52-4.72-10.52-10.52Zm5.9-11.09c3-4.04,5.52-8.36,7.56-12.9-.01,.37-.03,.73-.03,1.1,0,4.47,1.08,8.68,2.97,12.42-1.74-.98-3.74-1.55-5.88-1.55-1.64,0-3.2,.33-4.63,.93Zm23.22,15.25c0,1.97-1.6,3.57-3.57,3.57s-3.57-1.6-3.57-3.57,1.6-3.57,3.57-3.57,3.57,1.6,3.57,3.57Zm-6.59-4.06s0-.07,0-.11c0-.95-.12-1.87-.33-2.76,.74,.69,1.51,1.34,2.32,1.95-.74,.15-1.41,.48-2,.91Zm-7.61-22.99c0-14.36,11.68-26.04,26.04-26.04s26.04,11.68,26.04,26.04-11.68,26.04-26.04,26.04-26.04-11.68-26.04-26.04Zm52.82,6.37c.33,.7,.75,1.35,1.25,1.93-.69,.05-1.35,.23-1.95,.51,.27-.8,.51-1.61,.7-2.44Zm.66-8.57c-.15-1.9-.49-3.74-1.01-5.51,1.29,1.13,2.81,2.01,4.48,2.56-1.4,.66-2.6,1.69-3.47,2.96Zm13.58-3.88c-.26,.8-.41,1.64-.43,2.52-.62-.59-1.32-1.09-2.09-1.49,.88-.26,1.72-.6,2.51-1.03Zm6.69-10.44c.91,1.65,1.99,3.19,3.21,4.61-.53-.1-1.08-.16-1.64-.16-1.03,0-2.02,.19-2.94,.52,.77-1.51,1.25-3.19,1.37-4.97Zm-1.94-13.29c0-14.36,11.68-26.04,26.04-26.04s26.04,11.68,26.04,26.04-11.68,26.04-26.04,26.04-26.04-11.68-26.04-26.04Zm13.92,24.71c-.65,.24-1.25,.59-1.76,1.04-.06-.8-.23-1.56-.49-2.28,.73,.45,1.48,.86,2.26,1.24Zm45.74-16.51c0,1.97-1.6,3.57-3.57,3.57s-3.57-1.6-3.57-3.57,1.6-3.57,3.57-3.57,3.57,1.6,3.57,3.57Zm-6.38-4.22c.15-1.01,.23-2.03,.27-3.07,.52,.84,1.14,1.61,1.85,2.29-.77,.11-1.5,.37-2.12,.78Zm-.09-9.47c0-5.84,4.75-10.59,10.59-10.59s10.59,4.75,10.59,10.59-4.75,10.59-10.59,10.59-10.59-4.75-10.59-10.59Zm27.11-11.15c2.96,0,5.36,2.4,5.36,5.36s-2.4,5.36-5.36,5.36-5.36-2.4-5.36-5.36,2.4-5.36,5.36-5.36Zm-6.73,4.08c-.98-1.36-2.24-2.5-3.69-3.35,1.9-.01,3.78-.12,5.65-.29-.99,.96-1.69,2.22-1.96,3.63Zm-3.77-4.84c-.15,0-.29,0-.44,0-37.61,0-68.32-30.47-68.55-68.13-.12-18.31,6.91-35.58,19.78-48.61,12.87-13.03,30.04-20.27,48.35-20.38,.15,0,.29,0,.44,0,37.6,0,68.32,30.47,68.55,68.13,.24,37.8-30.33,68.75-68.13,68.99Zm69.42-74.13c0-5.83,4.74-10.57,10.57-10.57s10.57,4.74,10.57,10.57-4.74,10.57-10.57,10.57-10.57-4.74-10.57-10.57Zm20.62-7.75c0-1.97,1.6-3.57,3.57-3.57s3.57,1.6,3.57,3.57-1.6,3.57-3.57,3.57-3.57-1.6-3.57-3.57Zm-1.43-.67c-.68-.7-1.45-1.31-2.29-1.83,1.03-.04,2.05-.12,3.06-.27-.41,.62-.66,1.33-.77,2.1Zm-3.25-3.29c-14.32,0-25.97-11.65-25.97-25.97s11.65-25.97,25.97-25.97,25.97,11.65,25.97,25.97-11.65,25.97-25.97,25.97Zm23.06-40.83c.78,.28,1.62,.44,2.48,.47-.48,.56-.86,1.22-1.1,1.94-.42-.83-.89-1.63-1.39-2.41Zm-9.91-9.22c1.69-.15,3.29-.62,4.73-1.37-.28,.84-.44,1.74-.44,2.67,0,.6,.07,1.19,.19,1.76-1.38-1.16-2.88-2.19-4.48-3.07Zm11.1-9.06c.38,.73,.87,1.39,1.44,1.97-.84,.01-1.64,.15-2.4,.39,.4-.75,.72-1.54,.96-2.36Zm-.11-7.58c-.54-1.65-1.42-3.15-2.54-4.42,1.76,.54,3.6,.9,5.49,1.07-1.26,.83-2.28,1.99-2.95,3.35Zm5.44-4.73c-14.36,0-26.04-11.68-26.04-26.04s11.68-26.04,26.04-26.04,26.04,11.68,26.04,26.04-11.68,26.04-26.04,26.04Zm8.46,.15c-.34,.64-.56,1.36-.63,2.11-.6-.56-1.28-1.03-2.02-1.4,.9-.19,1.79-.43,2.65-.71Zm-9.56-53.7c4.54-2.04,8.86-4.56,12.9-7.56-.6,1.43-.93,2.99-.93,4.63,0,2.14,.57,4.14,1.55,5.88-3.73-1.9-7.95-2.97-12.42-2.97-.37,0-.73,.01-1.1,.03Zm24.58,12.09c0-1.97,1.6-3.57,3.57-3.57s3.57,1.6,3.57,3.57-1.6,3.57-3.57,3.57-3.57-1.6-3.57-3.57Zm-1.4-1.02c-.61-.81-1.26-1.59-1.95-2.33,.89,.21,1.81,.33,2.76,.33,.04,0,.07,0,.11,0-.44,.59-.76,1.26-.91,2Zm.81-3.48c-5.8,0-10.52-4.72-10.52-10.52s4.72-10.52,10.52-10.52,10.52,4.72,10.52,10.52-4.72,10.52-10.52,10.52Zm2.24-26.19c0-2.96,2.4-5.36,5.36-5.36s5.36,2.4,5.36,5.36-2.4,5.36-5.36,5.36-5.36-2.4-5.36-5.36Zm-.33,3.82c-.62-.1-1.26-.17-1.91-.17-1.04,0-2.05,.15-3.01,.4,.07-.07,.14-.13,.21-.2,1.24-1.26,2.41-2.57,3.55-3.91,0,.02,0,.04,0,.06,0,1.41,.43,2.73,1.17,3.82Zm-5.77-1.02c-12.85,13.05-30.02,20.31-48.33,20.44-.17,0-.35,0-.52,0-37.56,0-68.27-30.42-68.55-68.05-.28-37.8,30.24-68.79,68.05-69.07,.17,0,.35,0,.52,0,37.41,0,68.01,30.18,68.54,67.6,0,.26,0,.51,0,.77,.05,18.2-6.93,35.34-19.71,48.31Zm9.47-86.87c.63,.19,1.3,.3,1.99,.3,2.48,0,4.64-1.32,5.85-3.29,.98,8.53,1.66,17.12,2.04,25.77-1.93-8.25-5.31-15.93-9.88-22.77Zm2.5-13.39c1.46-1.34,2.58-3.03,3.24-4.94,.36,2.28,.7,4.57,1.02,6.86-1.12-1.09-2.61-1.79-4.26-1.92Zm-2.02-19.17c.96-.4,1.76-1.08,2.32-1.94,.33,1.58,.63,3.16,.94,4.75-.91-1.12-2.01-2.07-3.26-2.81Zm-1.93-9.76c-.58,0-1.13,.12-1.66,.3,1.18-2.81,1.91-5.85,2.09-9.03,.81,3.17,1.59,6.36,2.31,9.55-.79-.51-1.73-.82-2.75-.82Zm-12.24-33.54c1.88-.4,3.42-1.7,4.15-3.43,1.25,3.6,2.46,7.22,3.59,10.85-2.07-2.95-4.7-5.48-7.74-7.42Zm3.11-5.68c0,2.37-1.93,4.3-4.3,4.3s-4.3-1.93-4.3-4.3,1.93-4.3,4.3-4.3,4.3,1.93,4.3,4.3Zm-15.81,1.34c-3.81,0-6.9-3.1-6.9-6.9s3.1-6.9,6.9-6.9,6.9,3.1,6.9,6.9-3.1,6.9-6.9,6.9Zm-5.85-14.27c-3.81,0-6.9-3.1-6.9-6.9s3.1-6.9,6.9-6.9,6.9,3.1,6.9,6.9-3.1,6.9-6.9,6.9Zm-.19-19.05c0-2.36,1.92-4.29,4.29-4.29s4.29,1.92,4.29,4.29-1.92,4.29-4.29,4.29-4.29-1.92-4.29-4.29Zm4.29-5.79c-1.14,0-2.21,.34-3.1,.91,.4-1.86,.61-3.79,.61-5.77,0-1.64-.15-3.24-.43-4.8,1.75,3.34,3.46,6.7,5.11,10.09-.68-.28-1.42-.44-2.2-.44Zm-19.49-30.24c1.37-.67,2.4-1.92,2.74-3.45,1.74,2.77,3.44,5.57,5.11,8.39-2.3-2.06-4.95-3.74-7.85-4.94Zm-2.2-9.62c-.7,0-1.37,.14-1.97,.4,.26-.98,.41-2.01,.41-3.08,0-.42-.02-.84-.07-1.25,.9,1.34,1.78,2.69,2.67,4.04-.34-.07-.69-.11-1.04-.11Zm-13.62-14.74c-.17,0-.33,.02-.49,.02,1-1.18,1.62-2.7,1.64-4.37,1.39,1.84,2.76,3.7,4.11,5.56-1.59-.78-3.37-1.22-5.26-1.22Zm-5.75-11.33c-2.63,0-4.91,1.48-6.08,3.64-1.8-8.71-5.22-16.84-9.94-24.06,6.16,6.67,12.05,13.55,17.67,20.62-.53-.13-1.08-.21-1.64-.21Zm-60.55-50.78c2.18-1.15,3.66-3.44,3.66-6.06,0-.61-.09-1.21-.24-1.77,7.14,5.68,14.07,11.64,20.81,17.88-7.26-4.77-15.44-8.23-24.23-10.04Zm-3.2-12.92c-1.7,0-3.26,.63-4.46,1.66,0-.2,.03-.39,.03-.59,0-1.91-.46-3.72-1.25-5.32,1.93,1.4,3.85,2.82,5.75,4.26-.02,0-.04,0-.07,0Zm-16.51-11.02c-1.05,0-2.07,.15-3.04,.4,.27-.62,.42-1.29,.42-2.01,0-.35-.04-.7-.11-1.03,1.36,.9,2.73,1.8,4.08,2.71-.44-.05-.89-.08-1.35-.08Zm-12.25-3.79c-1.19-2.9-2.85-5.55-4.9-7.86,2.81,1.67,5.6,3.36,8.36,5.11-1.53,.34-2.79,1.38-3.46,2.76Zm-25.49-17.15c-1.87,0-3.7,.19-5.46,.55,.55-.87,.88-1.9,.88-3.01,0-.72-.14-1.41-.39-2.05,3.26,1.59,6.49,3.24,9.7,4.92-1.54-.27-3.11-.41-4.72-.41Zm-15.35,1.11c0,3.96-3.22,7.19-7.19,7.19s-7.19-3.22-7.19-7.19,3.22-7.19,7.19-7.19,7.19,3.22,7.19,7.19Zm-21.86,1.11c-3.95,0-7.16-3.21-7.16-7.16s3.21-7.16,7.16-7.16,7.16,3.21,7.16,7.16-3.21,7.16-7.16,7.16Zm-6.13-14.27c-2.28,0-4.14-1.86-4.14-4.14s1.86-4.14,4.14-4.14,4.14,1.86,4.14,4.14-1.86,4.14-4.14,4.14Zm-5.5-5.38c-1.91-2.89-4.36-5.39-7.19-7.38,3.5,1.09,6.99,2.25,10.46,3.45-1.63,.71-2.86,2.16-3.27,3.93Zm-33.61-10.23c.18-.52,.3-1.07,.3-1.66,0-1.01-.31-1.95-.82-2.75,3.19,.73,6.38,1.5,9.55,2.31-3.18,.18-6.23,.91-9.03,2.09Zm-9.46-3.59c-.74-1.25-1.69-2.35-2.81-3.26,1.58,.3,3.17,.61,4.75,.93-.86,.56-1.54,1.36-1.94,2.32Zm-19.17-2.02c-.12-1.65-.83-3.14-1.92-4.26,2.29,.32,4.57,.66,6.85,1.02-1.91,.66-3.6,1.78-4.94,3.24Zm-13.69,.52c0,.69,.1,1.35,.29,1.98-6.84-4.56-14.53-7.93-22.77-9.86,8.64,.37,17.23,1.06,25.77,2.04-1.97,1.21-3.29,3.37-3.29,5.85Zm-77.19,1.93c.18-.61,.28-1.26,.28-1.93,0-2.48-1.32-4.64-3.29-5.85,8.51-.98,17.07-1.66,25.68-2.03-8.09,1.89-15.75,5.2-22.67,9.81Zm-13.41-2.44c-1.34-1.46-3.03-2.58-4.94-3.24,2.28-.36,4.57-.7,6.85-1.02-1.09,1.12-1.79,2.61-1.92,4.26Zm-19.17,2.02c-.4-.96-1.08-1.76-1.94-2.32,1.58-.33,3.16-.63,4.75-.93-1.12,.91-2.07,2.01-2.81,3.26Zm-9.46,3.59c-2.81-1.18-5.85-1.91-9.03-2.09,3.17-.81,6.36-1.59,9.55-2.31-.51,.79-.82,1.73-.82,2.75,0,.58,.12,1.14,.3,1.66Zm-33.61,10.23c-.4-1.77-1.63-3.23-3.27-3.93,3.47-1.2,6.96-2.36,10.46-3.45-2.83,1.99-5.28,4.5-7.19,7.38Zm-5.5-2.9c2.28,0,4.14,1.86,4.14,4.14s-1.86,4.14-4.14,4.14-4.14-1.86-4.14-4.14,1.86-4.14,4.14-4.14Zm1.03,15.39c0,3.95-3.21,7.16-7.16,7.16s-7.16-3.21-7.16-7.16,3.21-7.16,7.16-7.16,7.16,3.21,7.16,7.16Zm-14.65,6.05c0,3.96-3.22,7.19-7.19,7.19s-7.19-3.22-7.19-7.19,3.22-7.19,7.19-7.19,7.19,3.22,7.19,7.19Zm-24.26-.56c-1.77-.36-3.59-.55-5.46-.55-1.61,0-3.19,.15-4.72,.41,3.21-1.69,6.44-3.33,9.7-4.93-.25,.64-.39,1.33-.39,2.05,0,1.11,.33,2.14,.88,3.01Zm-30.96,16.6c-.67-1.38-1.93-2.42-3.46-2.76,2.76-1.74,5.55-3.44,8.36-5.11-2.05,2.31-3.71,4.96-4.9,7.86Zm-9.21,4.19c-.97-.25-1.99-.4-3.04-.4-.46,0-.91,.03-1.35,.08,1.35-.92,2.72-1.81,4.08-2.71-.07,.33-.11,.68-.11,1.03,0,.71,.15,1.39,.42,2.01Zm-15.13,11.68c0,.2,.02,.39,.03,.59-1.2-1.03-2.76-1.66-4.46-1.66-.02,0-.04,0-.07,0,1.9-1.44,3.82-2.86,5.75-4.26-.79,1.61-1.25,3.41-1.25,5.32Zm-7.66,11.84c-8.57,1.75-16.69,5.11-24.01,9.88,6.67-6.18,13.55-12.08,20.62-17.7-.15,.57-.24,1.16-.24,1.77,0,2.62,1.47,4.89,3.63,6.05Zm-54.44,54.43c-1.17-2.16-3.45-3.63-6.07-3.63-.57,0-1.11,.08-1.64,.21,5.56-7,11.39-13.81,17.49-20.43-4.73,7.28-8.03,15.35-9.77,23.85Zm-11.33,7.73c-.16,0-.33-.02-.49-.02-1.89,0-3.67,.45-5.26,1.22,1.35-1.87,2.72-3.72,4.11-5.57,.02,1.66,.64,3.19,1.64,4.37Zm-12.14,15.11c-.61-.26-1.27-.4-1.97-.4-.36,0-.71,.04-1.04,.11,.89-1.35,1.76-2.7,2.67-4.04-.04,.41-.07,.83-.07,1.25,0,1.06,.15,2.09,.41,3.08Zm-4.17,9.22c-2.9,1.2-5.55,2.88-7.85,4.94,1.67-2.82,3.37-5.62,5.11-8.39,.34,1.52,1.37,2.78,2.74,3.45Zm-16.39,31.15c-.9-.57-1.96-.91-3.1-.91-.78,0-1.52,.16-2.2,.44,1.65-3.4,3.36-6.76,5.11-10.09-.28,1.56-.43,3.16-.43,4.8,0,1.98,.22,3.91,.61,5.77Zm-3.1,.59c2.36,0,4.29,1.92,4.29,4.29s-1.92,4.29-4.29,4.29-4.29-1.92-4.29-4.29,1.92-4.29,4.29-4.29Zm4.1,9.53c3.81,0,6.9,3.1,6.9,6.9s-3.1,6.9-6.9,6.9-6.9-3.1-6.9-6.9,3.1-6.9,6.9-6.9Zm-5.85,14.27c3.81,0,6.9,3.1,6.9,6.9s-3.1,6.9-6.9,6.9-6.9-3.1-6.9-6.9,3.1-6.9,6.9-6.9Zm-11.5,16.78c-2.37,0-4.3-1.93-4.3-4.3s1.93-4.3,4.3-4.3,4.3,1.93,4.3,4.3-1.93,4.3-4.3,4.3Zm-1.2,1.37c-3.04,1.95-5.67,4.47-7.74,7.42,1.13-3.63,2.34-7.25,3.59-10.85,.73,1.73,2.28,3.03,4.15,3.43Zm-10.59,33.84c-.52-.18-1.07-.3-1.66-.3-1.01,0-1.95,.31-2.75,.82,.73-3.19,1.5-6.38,2.31-9.55,.18,3.18,.91,6.22,2.09,9.03Zm-3.59,9.46c-1.25,.74-2.35,1.69-3.26,2.81,.3-1.58,.61-3.17,.94-4.75,.56,.86,1.36,1.54,2.32,1.94Zm-2.02,19.17c-1.65,.12-3.14,.83-4.26,1.92,.32-2.29,.66-4.57,1.02-6.86,.66,1.91,1.78,3.6,3.24,4.94Zm.52,13.69c.69,0,1.36-.11,1.99-.3-4.56,6.84-7.95,14.53-9.88,22.77,.37-8.64,1.06-17.24,2.04-25.77,1.21,1.97,3.37,3.29,5.85,3.29Zm1.92,77.19c-.61-.18-1.25-.28-1.92-.28-2.48,0-4.64,1.32-5.85,3.29-.97-8.48-1.66-17.02-2.03-25.61,1.89,8.06,5.2,15.69,9.8,22.6Zm-2.44,13.41c-1.46,1.34-2.58,3.03-3.24,4.94-.36-2.28-.7-4.57-1.02-6.86,1.12,1.09,2.61,1.79,4.26,1.92Zm2.02,19.17c-.96,.4-1.76,1.08-2.32,1.94-.33-1.58-.63-3.16-.94-4.75,.91,1.12,2.01,2.07,3.26,2.81Zm1.93,9.76c.58,0,1.13-.12,1.66-.3-1.18,2.81-1.91,5.85-2.09,9.03-.81-3.17-1.59-6.35-2.31-9.55,.79,.51,1.73,.82,2.75,.82Zm12.24,33.53c-1.88,.4-3.42,1.7-4.15,3.43-1.25-3.6-2.46-7.22-3.59-10.85,2.07,2.95,4.7,5.48,7.74,7.42Zm-3.11,5.68c0-2.37,1.93-4.3,4.3-4.3s4.3,1.93,4.3,4.3-1.93,4.3-4.3,4.3-4.3-1.93-4.3-4.3Zm15.81-1.34c3.81,0,6.9,3.1,6.9,6.9s-3.1,6.9-6.9,6.9-6.9-3.1-6.9-6.9,3.1-6.9,6.9-6.9Zm5.85,14.27c3.81,0,6.9,3.1,6.9,6.9s-3.1,6.9-6.9,6.9-6.9-3.1-6.9-6.9,3.1-6.9,6.9-6.9Zm.19,19.05c0,2.36-1.92,4.29-4.29,4.29s-4.29-1.92-4.29-4.29,1.92-4.29,4.29-4.29,4.29,1.92,4.29,4.29Zm-4.29,5.79c1.14,0,2.2-.34,3.1-.91-.4,1.86-.61,3.79-.61,5.77,0,1.64,.15,3.24,.43,4.8-1.75-3.34-3.46-6.69-5.11-10.09,.68,.28,1.42,.44,2.2,.44Zm19.49,30.24c-1.37,.67-2.4,1.92-2.74,3.45-1.74-2.77-3.44-5.57-5.11-8.39,2.3,2.06,4.95,3.74,7.85,4.94Zm2.2,9.62c.7,0,1.37-.14,1.97-.4-.26,.98-.41,2.01-.41,3.08,0,.42,.02,.84,.07,1.25-.9-1.34-1.78-2.69-2.67-4.04,.34,.07,.68,.11,1.04,.11Zm13.62,14.74c.17,0,.33-.02,.49-.02-1.01,1.18-1.62,2.7-1.64,4.37-1.39-1.84-2.76-3.7-4.11-5.56,1.59,.78,3.37,1.22,5.26,1.22Zm5.75,11.33c2.62,0,4.9-1.47,6.07-3.63,1.74,8.5,5.04,16.57,9.77,23.85-6.1-6.61-11.93-13.42-17.48-20.43,.53,.13,1.07,.21,1.64,.21Zm60.51,50.8c-2.16,1.16-3.63,3.43-3.63,6.05,0,.61,.09,1.21,.24,1.77-7.07-5.62-13.94-11.53-20.62-17.7,7.32,4.78,15.43,8.13,24.01,9.88Zm3.23,12.91c1.7,0,3.26-.63,4.46-1.66,0,.2-.03,.39-.03,.59,0,1.91,.46,3.72,1.25,5.32-1.93-1.4-3.85-2.82-5.75-4.26,.02,0,.04,0,.07,0Zm16.51,11.02c1.05,0,2.07-.15,3.04-.4-.27,.62-.42,1.29-.42,2.01,0,.35,.04,.7,.11,1.03-1.36-.9-2.73-1.8-4.08-2.71,.44,.05,.89,.08,1.35,.08Zm12.25,3.79c1.19,2.9,2.85,5.55,4.9,7.86-2.81-1.67-5.6-3.37-8.36-5.11,1.53-.34,2.79-1.38,3.46-2.76Zm25.49,17.15c1.87,0,3.7-.19,5.46-.55-.55,.87-.88,1.9-.88,3.01,0,.72,.14,1.41,.39,2.05-3.26-1.59-6.49-3.24-9.7-4.93,1.54,.27,3.11,.41,4.72,.41Zm15.35-1.11c0-3.96,3.22-7.19,7.19-7.19s7.19,3.22,7.19,7.19-3.22,7.19-7.19,7.19-7.19-3.22-7.19-7.19Zm21.86-1.11c3.95,0,7.16,3.21,7.16,7.16s-3.21,7.16-7.16,7.16-7.16-3.21-7.16-7.16,3.21-7.16,7.16-7.16Zm6.13,14.27c2.28,0,4.14,1.86,4.14,4.14s-1.86,4.14-4.14,4.14-4.14-1.86-4.14-4.14,1.86-4.14,4.14-4.14Zm5.5,5.38c1.91,2.89,4.36,5.4,7.19,7.38-3.5-1.09-6.99-2.25-10.46-3.45,1.63-.71,2.86-2.16,3.27-3.93Zm33.61,10.23c-.18,.52-.3,1.07-.3,1.66,0,1.01,.31,1.95,.82,2.75-3.19-.73-6.38-1.5-9.55-2.31,3.18-.18,6.22-.91,9.03-2.09Zm9.46,3.59c.74,1.25,1.69,2.35,2.81,3.26-1.58-.3-3.17-.61-4.75-.94,.86-.56,1.54-1.36,1.94-2.32Zm19.17,2.02c.12,1.65,.83,3.14,1.92,4.26-2.29-.32-4.58-.66-6.86-1.02,1.91-.66,3.6-1.78,4.94-3.24Zm13.69-.52c0-.67-.1-1.31-.28-1.92,6.92,4.61,14.58,7.92,22.67,9.81-8.61-.37-17.18-1.06-25.68-2.03,1.97-1.21,3.29-3.37,3.29-5.85Zm-10.39-12.19c-12.85-13.05-19.86-30.32-19.72-48.63s7.4-35.48,20.44-48.33c12.92-12.73,29.98-19.72,48.1-19.72,.17,0,.35,0,.53,0,37.8,.28,68.33,31.27,68.05,69.07-.14,18.31-7.4,35.48-20.44,48.33-12.82,12.63-29.71,19.6-47.67,19.71-.15,0-.3,0-.45,0-.33,0-.65-.01-.98-.01-18.14-.26-35.12-7.5-47.86-20.43Zm87.57,10.27c-.18,.61-.28,1.25-.28,1.92,0,2.48,1.32,4.64,3.29,5.85-8.49,.98-17.04,1.66-25.64,2.03,8.07-1.89,15.71-5.19,22.63-9.8Zm13.41,2.43c1.34,1.46,3.03,2.58,4.94,3.24-2.28,.36-4.57,.7-6.86,1.02,1.09-1.12,1.79-2.61,1.92-4.26Zm19.17-2.02c.4,.96,1.08,1.76,1.94,2.32-1.58,.33-3.16,.63-4.75,.94,1.12-.91,2.07-2.01,2.81-3.26Zm9.46-3.59c2.81,1.18,5.85,1.91,9.03,2.09-3.17,.81-6.36,1.59-9.55,2.31,.51-.79,.82-1.73,.82-2.75,0-.58-.12-1.14-.3-1.66Zm33.61-10.23c.4,1.77,1.63,3.23,3.27,3.93-3.47,1.2-6.96,2.36-10.46,3.45,2.83-1.99,5.28-4.49,7.19-7.38Zm5.5,2.89c-2.28,0-4.14-1.86-4.14-4.14s1.86-4.14,4.14-4.14,4.14,1.86,4.14,4.14-1.86,4.14-4.14,4.14Zm-1.03-15.39c0-3.95,3.21-7.16,7.16-7.16s7.16,3.21,7.16,7.16-3.21,7.16-7.16,7.16-7.16-3.21-7.16-7.16Zm14.65-6.05c0-3.96,3.22-7.19,7.19-7.19s7.19,3.22,7.19,7.19-3.22,7.19-7.19,7.19-7.19-3.22-7.19-7.19Zm24.26,.56c1.77,.36,3.59,.55,5.46,.55,1.61,0,3.19-.15,4.72-.41-3.21,1.69-6.44,3.33-9.7,4.92,.25-.64,.39-1.33,.39-2.05,0-1.11-.33-2.14-.88-3.01Zm30.96-16.6c.67,1.38,1.93,2.42,3.46,2.76-2.76,1.74-5.55,3.44-8.36,5.11,2.05-2.31,3.72-4.96,4.9-7.86Zm9.21-4.19c.97,.25,1.99,.4,3.04,.4,.46,0,.91-.03,1.35-.08-1.35,.92-2.72,1.81-4.08,2.71,.07-.33,.11-.68,.11-1.03,0-.71-.15-1.39-.42-2.01Zm15.13-11.68c0-.2-.02-.4-.03-.59,1.2,1.03,2.76,1.66,4.46,1.66,.02,0,.04,0,.07,0-1.9,1.44-3.82,2.86-5.75,4.26,.79-1.61,1.25-3.41,1.25-5.32Zm7.62-11.86c8.79-1.81,16.97-5.27,24.23-10.04-6.73,6.24-13.67,12.2-20.8,17.88,.15-.57,.24-1.16,.24-1.77,0-2.63-1.49-4.91-3.66-6.06Zm54.47-54.43c1.17,2.17,3.45,3.64,6.08,3.64,.57,0,1.11-.08,1.64-.21-5.61,7.07-11.5,13.94-17.66,20.62,4.72-7.21,8.14-15.34,9.94-24.05Zm11.33-7.72c.17,0,.33,.02,.49,.02,1.89,0,3.67-.45,5.26-1.22-1.35,1.87-2.72,3.72-4.11,5.56-.02-1.66-.64-3.19-1.64-4.37Zm12.14-15.11c.61,.26,1.27,.4,1.97,.4,.36,0,.71-.04,1.04-.11-.89,1.35-1.76,2.7-2.67,4.04,.04-.41,.07-.83,.07-1.25,0-1.06-.15-2.09-.41-3.08Zm4.17-9.22c2.9-1.2,5.55-2.88,7.85-4.94-1.67,2.82-3.37,5.62-5.11,8.39-.34-1.52-1.37-2.78-2.74-3.45Zm16.39-31.15c.9,.57,1.96,.91,3.1,.91,.78,0,1.52-.16,2.2-.44-1.65,3.4-3.36,6.76-5.11,10.09,.28-1.56,.43-3.16,.43-4.8,0-1.98-.22-3.91-.61-5.77Zm3.1-.59c-2.36,0-4.29-1.92-4.29-4.29s1.92-4.29,4.29-4.29,4.29,1.92,4.29,4.29-1.92,4.29-4.29,4.29Zm-4.1-9.53c-3.81,0-6.9-3.1-6.9-6.9s3.1-6.9,6.9-6.9,6.9,3.1,6.9,6.9-3.1,6.9-6.9,6.9Zm5.85-14.27c-3.81,0-6.9-3.1-6.9-6.9s3.1-6.9,6.9-6.9,6.9,3.1,6.9,6.9-3.1,6.9-6.9,6.9Zm11.5-16.78c2.37,0,4.3,1.93,4.3,4.3s-1.93,4.3-4.3,4.3-4.3-1.93-4.3-4.3,1.93-4.3,4.3-4.3Zm1.2-1.37c3.04-1.95,5.67-4.47,7.74-7.42-1.13,3.63-2.34,7.25-3.59,10.85-.73-1.73-2.28-3.03-4.15-3.43Zm10.59-33.84c.52,.18,1.07,.3,1.66,.3,1.01,0,1.95-.31,2.75-.82-.73,3.19-1.5,6.38-2.31,9.55-.18-3.18-.91-6.22-2.09-9.03Zm3.59-9.46c1.25-.74,2.35-1.69,3.26-2.81-.3,1.58-.61,3.17-.94,4.75-.56-.86-1.36-1.54-2.32-1.94Zm2.02-19.17c1.65-.12,3.14-.83,4.26-1.92-.32,2.29-.66,4.58-1.02,6.86-.66-1.91-1.78-3.6-3.24-4.94Zm-.52-13.69c-.67,0-1.31,.1-1.92,.28,4.6-6.91,7.91-14.54,9.8-22.6-.38,8.59-1.06,17.13-2.03,25.61-1.21-1.97-3.37-3.29-5.85-3.29Zm-14.17-163.87c-.81-.43-1.73-.67-2.71-.67-1.16,0-2.23,.34-3.14,.93,.02-.23,.03-.46,.03-.69,0-4.58-3.69-8.32-8.25-8.4,1.49-1.52,2.41-3.59,2.41-5.88,0-2.61-1.2-4.95-3.07-6.49,2.04-.45,3.68-1.97,4.29-3.94,1.55,3.37,3.06,6.75,4.51,10.17,2.1,4.95,4.06,9.95,5.92,14.97ZM513.46,34.69c-1.75,.57-3.12,1.97-3.66,3.73-1.59-2.11-4.1-3.49-6.95-3.49-2.34,0-4.46,.93-6.03,2.45-.1-4.69-3.94-8.47-8.65-8.47-.4,0-.79,.04-1.17,.09,.43-.8,.68-1.71,.68-2.68s-.23-1.82-.64-2.6c5.2,1.92,10.38,3.96,15.51,6.13,3.67,1.55,7.3,3.18,10.9,4.85Zm-291.68-4.85c5.13-2.17,10.31-4.2,15.51-6.13-.41,.78-.64,1.66-.64,2.6s.25,1.88,.68,2.68c-.38-.05-.77-.09-1.17-.09-4.71,0-8.55,3.78-8.65,8.47-1.56-1.51-3.69-2.45-6.03-2.45-2.84,0-5.36,1.38-6.95,3.49-.53-1.76-1.91-3.16-3.66-3.73,3.61-1.67,7.23-3.3,10.9-4.85ZM29.84,221.78c1.45-3.42,2.96-6.81,4.51-10.17,.61,1.97,2.26,3.49,4.29,3.94-1.87,1.54-3.07,3.88-3.07,6.49,0,2.29,.92,4.36,2.41,5.88-4.56,.08-8.25,3.81-8.25,8.4,0,.23,.02,.46,.03,.69-.91-.58-1.98-.93-3.14-.93-.98,0-1.9,.25-2.71,.67,1.86-5.02,3.83-10.01,5.92-14.97Zm-5.92,265.81c.81,.43,1.73,.67,2.71,.67,1.16,0,2.23-.34,3.14-.93-.02,.23-.03,.46-.03,.69,0,4.58,3.69,8.32,8.25,8.4-1.49,1.52-2.41,3.59-2.41,5.88,0,2.61,1.2,4.95,3.07,6.49-2.04,.45-3.68,1.97-4.29,3.94-1.55-3.37-3.06-6.75-4.51-10.17-2.1-4.95-4.06-9.95-5.92-14.97Zm186.96,202.05c1.75-.57,3.13-1.97,3.66-3.73,1.59,2.11,4.1,3.49,6.95,3.49,2.34,0,4.46-.94,6.03-2.45,.1,4.69,3.94,8.47,8.65,8.47,.4,0,.79-.04,1.17-.09-.43,.8-.68,1.71-.68,2.68s.23,1.82,.64,2.6c-5.21-1.92-10.38-3.96-15.51-6.13-3.67-1.55-7.3-3.18-10.9-4.85Zm291.68,4.85c-5.13,2.17-10.31,4.2-15.51,6.13,.41-.78,.64-1.66,.64-2.6s-.25-1.88-.68-2.68c.38,.05,.77,.09,1.17,.09,4.71,0,8.55-3.78,8.65-8.47,1.56,1.51,3.69,2.45,6.03,2.45,2.84,0,5.36-1.38,6.95-3.49,.53,1.76,1.91,3.16,3.66,3.73-3.61,1.67-7.23,3.3-10.9,4.85Zm191.94-191.94c-1.45,3.42-2.96,6.81-4.51,10.17-.61-1.97-2.26-3.49-4.29-3.94,1.87-1.54,3.07-3.88,3.07-6.49,0-2.29-.92-4.36-2.41-5.88,4.56-.08,8.25-3.81,8.25-8.4,0-.23-.02-.46-.03-.69,.91,.58,1.98,.93,3.14,.93,.98,0,1.9-.25,2.71-.67-1.86,5.02-3.83,10.01-5.92,14.97Z"/></g></g></svg>