<?xml version="1.0" encoding="UTF-8"?><svg xmlns="http://www.w3.org/2000/svg" viewBox="0 0 150.06 215.55"><defs><style>.g{fill:#100c08;}.h{fill:#ce0e2d;}</style></defs><g id="a"/><g id="b"><g id="c"><path id="d" class="g" d="M146.39,61.62c-.51,.25-1.03,.5-1.56,.76-5.71,2.74-10.65,5.12-10.27,18.74,.22,8.06-1.02,12.93-1.76,15.84-.08,.3-.15,.59-.21,.84,2.09,10.25-.29,16.7-2.15,19.89,1.41,3.35,3.81,10.05,4.1,17.52,.34,8.93-3.12,15.33-6.47,21.52-.72,1.32-1.46,2.69-2.13,4.05-2.04,4.09-4.19,9.91-6.08,15.05-1.47,3.98-2.85,7.75-4.09,10.49-.5,1.09-.92,2.09-1.34,3.05-1.94,4.5-3.46,8.05-7.87,11.54-2.31,1.83-3.51,3.32-4.78,4.9-1.8,2.23-3.66,4.54-7.94,6.86-2.42,1.31-6.25,2.87-10.77,2.87s-8.22-1.42-11.61-4.21c-1.13-.93-2.09-1.77-2.95-2.52-2.52-2.2-4.35-3.79-8.54-6.16-4.28-2.41-5.69-4.51-7.32-6.95-.51-.77-1.05-1.56-1.75-2.49-1.29-1.69-3.76-3.43-6.38-5.26-2.33-1.63-4.97-3.48-7.38-5.72-3.66-3.39-7.78-8.71-9.34-11.26-.54-.87-1.09-1.93-1.74-3.16-1.24-2.35-2.79-5.28-4.44-7.26-3.08-3.7-8.86-11.98-12.95-25.9-1.36-4.64-2.02-8.97-2.32-11.59-.54-.38-.96-.81-1.26-1.19-.81-1.02-1.69-2.82-1.31-5.64,.08-1.25-.75-6.54-2.07-9.32C-.09,103.12-.04,98.79,.02,94.6c0-.67,.02-1.35,.02-2.02,0-3.52,.68-6.62,1.34-9.61,.28-1.28,.55-2.49,.76-3.72,.82-4.73,3.55-12.35,4.89-14.81,1.29-2.36,4.94-6.92,7.74-8.71,1.03-.66,10.05-6.79,8.99-19-.25-2.93-.88-5.09-1.44-7-.29-1.01-.57-1.96-.76-2.91-.44-2.2,.18-4.47,1.74-6.37,2.07-2.53,5.72-4.23,9.08-4.23,2.59,0,4.84,.98,6.34,2.77,.5,.59,2.35,3.45,3.74,6.94,.38-.38,.81-.76,1.29-1.12-1.09-2.6-2.02-5.46-2.56-8.54-.33-1.88,.24-3.81,1.6-5.44,2.05-2.44,5.91-4.15,9.39-4.15s6.15,1.72,7.14,4.61c.94,2.75,1.97,5.06,3,6.99-.38-3.81-.35-8.15,.56-12.58C63.62,2.24,67.14,0,71.87,0c3.25,0,6.12,1.05,7.87,2.89,1.28,1.34,1.94,3.09,1.85,4.9-.15,3.07,.05,5.78,.45,8.12,.99-2.73,2.31-5.57,4.08-8.29,1.24-1.9,3.36-2.95,5.98-2.95,3.82,0,8.14,2.23,10.06,5.18,1.32,2.04,1.54,4.41,.6,6.51-1.42,3.18-2.37,6.37-2.83,9.5-.06,.43,.16,.87,.55,1.06,4.55,2.34,8.74,4.99,13.18,8.36,.66-1.17,1.47-2.64,2.44-4.43,1.82-3.38,5.08-5.32,8.95-5.32,3.92,0,7.9,2.07,10.16,5.27,2.02,2.87,2.48,6.26,1.29,9.56-1.16,3.24-2.25,6.15-3.14,8.48,1.57-.32,3.18-.79,5-1.33,.85-.25,1.72-.51,2.63-.76,.5-.14,1.02-.21,1.54-.21,3.72,0,6.48,3.44,7.28,6.83,.84,3.55-.5,6.79-3.42,8.25Z"/><path id="e" class="h" d="M144.6,58.05c-6.35,3.17-14.52,5.61-14.04,23.19,.26,9.37-1.57,13.95-2.07,16.56,3.05,13.56-2.64,19.49-2.64,19.49,0,0,4.31,8.42,4.69,18.09,.37,9.67-4.47,16.19-8.19,23.63-3.72,7.44-7.44,19.53-10.23,25.67-2.79,6.14-3.62,9.6-8.06,13.12-6.07,4.81-5.77,7.92-12.14,11.37-4.26,2.3-11.58,4.33-17.93-.91-4.33-3.57-6-5.65-12.07-9.07-4.67-2.63-4.87-4.47-7.85-8.37-2.98-3.91-9.2-6.84-14.22-11.49-3.29-3.04-7.16-8-8.65-10.42-1.49-2.42-3.72-7.53-6.51-10.88-2.79-3.35-8.28-11.16-12.19-24.47-2.05-6.98-2.4-13.25-2.4-13.25-1.83-.17-2.66-1.36-2.36-3.54,.23-1.67-.74-8-2.42-11.53-1.67-3.53-1.3-8.19-1.3-12.65s1.3-8.37,2.05-12.65,3.35-11.53,4.47-13.58,4.35-5.96,6.38-7.26c3.49-2.23,11.95-9.7,10.82-22.71-.43-4.9-1.77-7.9-2.26-10.35-.84-4.21,7.32-7.88,10.18-4.47,1.4,1.67,5.78,10.12,4,13.67,0,0,2.87-3.51,5.19-6.02,2.24-2.42,4.29-3.23,7.45-.04,2.01,2.02,2.18,4.49,.73,5.88-1.53,1.46-1.56,2.33-.89,4.68,1.02-1.19,2.39-2.49,3.88-3.75,2.16-3.16,1.53-5.74,1.21-6.61-.48-1.07-1.18-2.1-2.09-3.01-2.19-2.2-4.36-3.27-6.64-3.27-.38,0-.75,.04-1.11,.09-.97-2.33-1.79-4.87-2.27-7.6-.65-3.71,8.98-7.16,10.41-2.98,2.3,6.72,5.11,11.13,7.37,13.89h0c.19,.23,.42,.5,.68,.79,.89,1.01,1.66,1.75,2.24,2.25,.91-.41,1.83-.77,2.74-1.09-1.24-3.64-3.69-12.57-1.76-21.89,.77-3.69,10.99-3.33,10.77,1.08-.44,9.04,1.93,15.3,3.75,18.7,.76,0,1.5,.03,2.23,.07,.65-4.55,2.2-10.87,5.9-16.56,2.05-3.16,11.45,.9,9.64,4.93-1.75,3.92-2.69,7.48-3.14,10.55-.31,2.12,.76,4.22,2.67,5.2,5.16,2.66,10.08,5.83,16.14,10.78,0,0,1.55-2.39,4.84-8.51,3.8-7.06,15.86-1.36,13.12,6.26-2.94,8.16-5.33,14.13-5.33,14.13,5.34,.56,9.41-1.08,14.66-2.54,2.79-.78,5.88,5.76,2.53,7.44Z"/><g id="f"><path class="g" d="M18.45,97.84c.95,.6,1.8,1.39,2.51,2.36,.72,.96,1.25,2.15,1.5,3.46l.02,.11c.16,.84-.39,1.65-1.23,1.81-.84,.16-1.65-.39-1.81-1.23-.04-.24-.03-.47,.03-.69,.23-.84,.28-1.81,.08-2.8-.19-.99-.59-2-1.18-2.91h0s-.01-.08,.02-.1c.02-.02,.05-.02,.08,0Z"/><path class="g" d="M26.23,93.96c.73,.86,1.3,1.87,1.68,3.01,.39,1.14,.54,2.42,.38,3.75v.11c-.11,.85-.89,1.46-1.74,1.35-.85-.1-1.46-.87-1.35-1.72,.03-.24,.11-.46,.23-.65,.47-.73,.82-1.64,.92-2.65,.12-1,.05-2.08-.24-3.13h0s.01-.08,.05-.09c.03,0,.06,0,.07,.02Z"/><path class="g" d="M26.05,87.56c1.21-.23,2.44-.29,3.7-.17,1.25,.12,2.53,.44,3.71,1.13,1.16,.67,2.19,1.68,2.86,2.97,.69,1.27,.93,2.82,.77,4.28v.05c-.1,.83-.84,1.43-1.67,1.34-.83-.09-1.43-.84-1.34-1.66,.01-.1,.03-.2,.06-.29,.29-.9,.35-1.87,.07-2.82-.27-.95-.85-1.86-1.66-2.58-.8-.72-1.84-1.23-2.96-1.57-1.12-.33-2.32-.52-3.52-.53-.04,0-.07-.03-.07-.07,0-.03,.03-.07,.06-.07Z"/><path class="g" d="M39.15,82.9c1,.5,1.92,1.21,2.71,2.1,.8,.88,1.43,2,1.8,3.26l.02,.08c.22,.76-.21,1.56-.98,1.79-.76,.22-1.56-.21-1.79-.98-.06-.2-.07-.4-.05-.6,.12-.88,.05-1.85-.28-2.81-.31-.96-.83-1.91-1.53-2.74h0s-.02-.07,0-.1c.02-.02,.05-.02,.07,0Z"/><path class="g" d="M36.9,77.25c1.59-.41,3.3-.52,5.04-.16,.87,.19,1.73,.55,2.53,1.06,.82,.51,1.48,1.26,2.06,2.06,.46,.63,.31,1.52-.32,1.98-.64,.46-1.52,.31-1.98-.32-.07-.1-.13-.21-.17-.32l-.02-.06c-.22-.59-.48-1.2-.94-1.7-.44-.5-1-.96-1.65-1.31-1.31-.69-2.91-1.06-4.52-1.09h0s-.07-.03-.07-.07c0-.03,.02-.06,.05-.06Z"/><path class="g" d="M40.46,69.75c1.12,.06,2.24,.34,3.32,.83,1.09,.49,2.12,1.26,2.96,2.26l.05,.06c.51,.61,.43,1.52-.17,2.03-.61,.51-1.52,.43-2.03-.17-.13-.16-.23-.34-.28-.53-.25-.85-.7-1.71-1.38-2.46-.67-.75-1.53-1.42-2.5-1.9h0s-.05-.06-.03-.09c.01-.02,.04-.04,.06-.04Z"/><path class="g" d="M110.29,88.97c-1.01-1.28-1.52-3.09-1.31-4.99l.02-.17c.09-.82,.82-1.41,1.64-1.32s1.41,.82,1.32,1.64c-.03,.31-.16,.58-.34,.8-.82,.97-1.36,2.42-1.2,3.99h0s-.02,.08-.06,.08c-.02,0-.05,0-.06-.03Z"/><path class="g" d="M12.59,104.57c.98,.07,1.95,.42,2.84,.98,.89,.56,1.68,1.36,2.29,2.29l.04,.06c.39,.59,.23,1.39-.37,1.78s-1.39,.23-1.78-.37c-.1-.16-.17-.33-.2-.51-.12-.79-.4-1.58-.88-2.3-.48-.71-1.15-1.38-1.98-1.82h0s-.04-.05-.02-.08c.01-.02,.03-.03,.06-.03Z"/><path class="g" d="M11.41,110.21c1.08,.32,2.12,.87,3.03,1.68,.46,.4,.87,.88,1.21,1.43,.36,.54,.6,1.16,.8,1.81,.21,.67-.16,1.38-.83,1.59-.67,.21-1.38-.16-1.59-.83-.05-.15-.06-.3-.06-.44v-.02c.02-.43,.04-.89-.07-1.35-.09-.46-.25-.92-.49-1.37-.46-.89-1.18-1.73-2.06-2.39h0s-.03-.06-.01-.09c.02-.02,.04-.03,.06-.02Z"/><path class="g" d="M10.24,113.19c-.89,.63-1.63,1.45-2.12,2.33-.25,.44-.42,.9-.52,1.35-.12,.45-.11,.91-.1,1.35h0c.02,.71-.53,1.3-1.23,1.32-.7,.02-1.29-.53-1.31-1.23,0-.15,.02-.31,.07-.45,.22-.64,.47-1.26,.85-1.79,.36-.54,.78-1.01,1.25-1.4,.93-.79,1.98-1.31,3.08-1.6,.03,0,.06,.01,.07,.04,0,.02,0,.05-.02,.06h0Z"/><path class="g" d="M34.35,84.61c-.71-2.18-1.18-4.47-1.13-6.84,.03-1.18,.19-2.37,.53-3.53,.33-1.16,.9-2.27,1.42-3.27,1.07-2.05,2.12-4,2.83-6.07,.72-2.05,1.19-4.18,1.45-6.35,.1-.82,.84-1.41,1.67-1.32,.82,.1,1.41,.84,1.32,1.67,0,.04-.01,.09-.02,.13-.48,2.32-1.16,4.64-2.2,6.79-1.01,2.17-2.34,4.12-3.58,6-.63,.96-1.18,1.86-1.57,2.87-.39,1-.63,2.07-.76,3.16-.28,2.19-.09,4.46,.18,6.73,0,.04-.02,.07-.06,.08-.03,0-.07-.02-.08-.05Z"/><path class="g" d="M27.41,77.06c1.69-1.05,3.33-2.15,4.78-3.44,1.45-1.29,2.72-2.75,3.74-4.36,1.02-1.61,1.81-3.34,2.38-5.15,.55-1.82,.92-3.68,1.15-5.56v-.03c.11-.82,.86-1.41,1.68-1.31,.82,.1,1.41,.85,1.31,1.68,0,.05-.01,.1-.03,.15-.46,2.02-1.02,4.03-1.86,5.94-.84,1.9-1.92,3.71-3.22,5.32-1.3,1.61-2.82,3.02-4.49,4.18-1.69,1.14-3.51,2.04-5.38,2.72-.04,.01-.08,0-.09-.04-.01-.03,0-.07,.03-.09Z"/><path class="g" d="M32.39,69.18c1.85-1.26,3.48-2.76,4.65-4.54,.59-.88,1.08-1.81,1.42-2.79,.37-.96,.59-1.97,.76-2.96v-.07c.15-.82,.93-1.37,1.75-1.23,.82,.14,1.37,.92,1.23,1.74-.01,.08-.04,.17-.07,.25-.41,1.16-.85,2.32-1.52,3.35-.62,1.05-1.39,1.99-2.23,2.84-.84,.85-1.77,1.59-2.76,2.2-1,.6-2.06,1.09-3.18,1.35-.04,0-.08-.02-.09-.05,0-.03,0-.06,.03-.07h0Z"/><path class="g" d="M46.6,33.01c.71,.77,1.52,1.44,2.38,1.95,.85,.51,1.79,.83,2.59,.76,.4-.04,.76-.19,1.08-.38,.1-.05,.54-.38,.8-.75,.33-.34,.65-.64,.97-1.03,.14-.16,.14-.27,.09-.16-.03,.07-.07,.27,0,.49,.03,.11,.1,.2,.15,.27,.03,.04,.06,.07,.09,.09,.05,.03,.03,.04,.18,.11-.7-.33-.99-1.17-.66-1.87,.33-.7,1.17-.99,1.87-.66,.2,.11,.24,.15,.34,.22,.08,.07,.16,.14,.23,.23,.15,.16,.27,.38,.36,.6,.17,.47-.53,2.18-.73,2.4-.38,.39-.78,.78-1.22,1.16-.47,.38-.83,.76-1.71,1.11-.67,.17-1.39,.17-2.03,.04-1.3-.3-2.26-1.05-3.03-1.85-.77-.81-1.37-1.71-1.86-2.66-.02-.03,0-.07,.03-.09,.03-.01,.06,0,.08,.02Z"/><path class="g" d="M30.17,47.64c-.85,1.72-1.83,3.38-2.99,4.96-.59,.79-1.21,1.56-1.95,2.28-.74,.71-1.56,1.41-2.64,1.92l-.05,.02c-.7,.34-1.55,.04-1.89-.67s-.04-1.55,.67-1.89c.11-.05,.22-.09,.34-.11,.71-.14,1.49-.5,2.24-.95,.76-.45,1.49-1.01,2.2-1.6,1.42-1.2,2.74-2.57,3.95-4.03,.02-.03,.06-.03,.09-.01,.02,.02,.03,.05,.02,.08Z"/><path class="g" d="M34.85,34.73c.71-1.21,1.55-2.34,2.53-3.4,1-1.05,2.15-2.03,3.65-2.72l.05-.02c.72-.33,1.56-.01,1.89,.71,.33,.72,.01,1.56-.71,1.89-.15,.07-.31,.11-.46,.12-1.13,.1-2.36,.56-3.52,1.18-1.16,.64-2.3,1.42-3.33,2.33-.03,.03-.07,.02-.09,0-.02-.02-.02-.06,0-.08Z"/><path class="g" d="M33.97,31.35c.67-.89,1.45-1.72,2.33-2.48,.88-.75,1.89-1.43,3.1-1.92l.07-.03c.74-.3,1.57,.06,1.87,.8,.3,.74-.06,1.57-.8,1.87-.19,.08-.39,.11-.59,.1-1.85-.07-4,.68-5.89,1.75-.03,.02-.07,.01-.09-.02-.01-.02-.01-.06,0-.08Z"/><path class="g" d="M75.59,30.74c-1.47,.49-3.01,1.03-4.76,.95-.87-.04-1.77-.24-2.6-.61-.84-.37-1.61-.88-2.3-1.46l-.03-.03c-.65-.54-.73-1.5-.19-2.14,.54-.65,1.5-.73,2.14-.19,.12,.1,.23,.23,.31,.36,.7,1.12,1.64,2.06,2.96,2.53,1.31,.49,2.9,.49,4.46,.45,.04,0,.07,.03,.07,.07,0,.03-.02,.06-.05,.07Z"/><path class="g" d="M61.54,41.29c-1.67-.57-3.4-.94-5.11-1.14-1.71-.2-3.42-.18-5,.1-.77,.14-1.5-.37-1.64-1.14-.14-.77,.37-1.5,1.14-1.64,.12-.02,.23-.03,.35-.02h.02c1.95,.15,3.77,.62,5.48,1.27,1.71,.66,3.32,1.47,4.82,2.44,.03,.02,.04,.06,.02,.09-.02,.03-.05,.04-.08,.03Z"/><path class="g" d="M56.95,42.81c-1.34-.22-2.69-.28-4.02-.22-1.32,.05-2.62,.23-3.85,.53-.76,.19-1.53-.28-1.72-1.04s.28-1.53,1.04-1.72c.15-.04,.31-.05,.46-.04h.02c1.47,.13,2.88,.41,4.23,.81,1.35,.4,2.65,.91,3.87,1.55,.03,.02,.04,.06,.03,.09-.01,.03-.05,.04-.07,.03Z"/><path class="g" d="M59,46.83c-1.98-.62-4.04-.95-6.06-1.06-1.01-.06-2.02-.04-3.01,.04-.99,.06-1.96,.26-2.89,.47h-.05c-.76,.18-1.51-.29-1.69-1.05s.3-1.51,1.06-1.69c.1-.02,.2-.03,.29-.03,1.13-.01,2.24,0,3.33,.17,1.09,.14,2.15,.35,3.19,.64,2.07,.57,4.05,1.36,5.88,2.39,.03,.02,.04,.06,.03,.09-.02,.03-.05,.04-.08,.03Z"/><path class="g" d="M57.6,52.88c-2.41-.56-4.88-.82-7.3-.81-1.21,0-2.41,.11-3.58,.28-1.17,.18-2.3,.49-3.37,.86h-.04c-.73,.27-1.54-.12-1.79-.85-.26-.73,.13-1.54,.86-1.79,.08-.03,.16-.05,.24-.06,1.33-.22,2.66-.33,3.96-.29,1.3,.04,2.58,.16,3.84,.38,2.51,.44,4.93,1.16,7.22,2.15,.03,.01,.05,.05,.03,.09-.01,.03-.05,.04-.08,.04Z"/><path class="g" d="M57.36,58.86c-2.63-.13-5.26-.07-7.86,.12-2.6,.19-5.18,.55-7.66,1.12h0c-.76,.17-1.51-.3-1.68-1.06s.3-1.51,1.06-1.68c.08-.02,.16-.03,.23-.03,2.73-.15,5.42-.07,8.07,.19,2.66,.25,5.28,.65,7.87,1.22,.04,0,.06,.04,.05,.08,0,.03-.04,.05-.07,.05Z"/><path class="g" d="M57.85,64.54l-13.21,2.28h-.06c-.77,.14-1.5-.37-1.63-1.14-.13-.77,.38-1.5,1.15-1.63,.09-.02,.19-.02,.28-.02l13.46,.38s.07,.03,.06,.07c0,.03-.03,.06-.06,.06Z"/><path class="g" d="M59.06,70.1c-4.11,1.57-8.33,2.9-12.78,3.73-.76,.14-1.5-.36-1.64-1.12s.36-1.5,1.12-1.64c.09-.02,.19-.03,.28-.02h.02c4.26,.08,8.65-.35,12.96-1.07,.04,0,.07,.02,.08,.05,0,.03-.01,.06-.04,.07Z"/><path class="g" d="M60.98,76.06c-2.24,1.39-4.67,2.48-7.21,3.33-1.27,.42-2.57,.79-3.89,1.06-1.32,.3-2.68,.46-4.04,.6-.77,.08-1.46-.49-1.54-1.26-.08-.77,.49-1.46,1.26-1.54,.08,0,.15,0,.23,0h.05c1.24,.09,2.51,.15,3.78,.09,1.27-.04,2.54-.17,3.81-.37,2.54-.39,5.08-1.04,7.49-2.02,.03-.02,.07,0,.09,.03,.01,.03,0,.07-.02,.08Z"/><path class="g" d="M54.08,74.97c-2.3,.96-4.64,1.81-7.23,2.34h0c-.77,.16-1.52-.34-1.68-1.11s.34-1.52,1.11-1.68c.17-.04,.35-.04,.51-.01,2.3,.37,4.8,.42,7.26,.33,.04,0,.07,.03,.07,.06,0,.03-.02,.06-.04,.07Z"/><path class="g" d="M56.12,81.53c-1.43,.85-2.97,1.53-4.58,2.08-1.61,.55-3.31,.92-5.09,1.08-.78,.07-1.47-.5-1.54-1.27-.07-.78,.5-1.47,1.27-1.54,.13-.01,.26,0,.39,.02,1.5,.27,3.08,.37,4.68,.28,1.6-.09,3.22-.33,4.81-.76,.03-.01,.07,0,.08,.04,0,.03,0,.06-.03,.08Z"/><path class="g" d="M52.7,68.11c-2.27,.81-4.6,1.48-6.92,2.15-.76,.22-1.55-.22-1.76-.98-.22-.76,.22-1.55,.98-1.76,.17-.05,.36-.06,.53-.05,2.38,.22,4.76,.44,7.15,.51,.04,0,.07,.03,.07,.07,0,.03-.02,.05-.04,.06Z"/><path class="g" d="M54.21,48.69c-1.59-.09-3.18-.05-4.74,.09-1.55,.14-3.08,.41-4.48,.85-.75,.23-1.54-.18-1.77-.93-.23-.75,.18-1.54,.93-1.77,.13-.04,.26-.06,.38-.06h.02c1.74-.04,3.39,.15,5,.45,1.61,.31,3.17,.72,4.69,1.24,.03,.01,.05,.05,.04,.08,0,.03-.04,.05-.07,.04Z"/><path class="g" d="M52.64,55.08c-1.71,.07-3.4,.23-5.07,.46-1.67,.24-3.32,.56-4.85,1.03-.75,.23-1.54-.19-1.76-.94-.23-.75,.19-1.54,.94-1.76,.12-.04,.24-.06,.36-.06h.01c1.82-.07,3.57,.06,5.3,.26,1.73,.21,3.42,.5,5.1,.87,.04,0,.06,.04,.05,.08,0,.03-.03,.05-.06,.05Z"/><path class="g" d="M52.21,61.62c-3.25,.43-6.46,1.11-9.5,2.05-.75,.23-1.54-.19-1.77-.93-.23-.75,.19-1.54,.93-1.77,.12-.04,.26-.06,.38-.06,3.39-.09,6.7,.13,9.96,.58,.04,0,.06,.04,.06,.08,0,.03-.03,.05-.06,.06Z"/><path class="g" d="M89.68,30.46c-.83,.08-1.68,.07-2.53-.02-.85-.09-1.71-.25-2.56-.59-.84-.34-1.69-.84-2.39-1.62-.68-.8-1.09-1.83-1.26-2.88-.13-.77,.39-1.5,1.16-1.63,.77-.13,1.5,.39,1.63,1.16,.02,.12,.02,.24,.01,.36h0c-.06,.6-.03,1.2,.22,1.77,.27,.56,.74,1.1,1.33,1.54,1.2,.9,2.79,1.46,4.39,1.77,.04,0,.06,.04,.06,.07,0,.03-.03,.05-.06,.06Z"/><path class="g" d="M31.8,25.61c.73-.82,1.59-1.53,2.58-2.13,.98-.6,2.12-1.07,3.4-1.26l.1-.02c.79-.12,1.53,.42,1.65,1.21,.12,.79-.42,1.53-1.21,1.65-.21,.03-.43,.01-.62-.04-1.68-.49-3.87-.17-5.81,.7-.03,.02-.07,0-.09-.03-.01-.02,0-.06,0-.08Z"/><path class="g" d="M30.81,23.28c.74-.89,1.67-1.64,2.76-2.22,1.08-.59,2.35-.94,3.7-1.01h.07c.79-.05,1.47,.56,1.51,1.35,.04,.79-.57,1.47-1.36,1.51-.2,.01-.39-.02-.57-.08-.87-.32-1.87-.48-2.91-.37-1.04,.09-2.12,.4-3.11,.92h0s-.07,0-.09-.03c-.01-.02,0-.05,0-.07Z"/><path class="g" d="M128.7,34.52c1.22,.47,2.36,1.15,3.42,1.99,1.06,.83,2.03,1.85,2.85,3.01l.02,.03c.45,.64,.3,1.53-.34,1.99-.64,.45-1.53,.3-1.99-.34-.1-.14-.17-.29-.21-.45-.3-1.11-.77-2.21-1.42-3.25-.64-1.04-1.44-2.03-2.4-2.86h0s-.03-.07,0-.1c.02-.02,.05-.03,.07-.02Z"/><path class="g" d="M123.95,36.27c.93,.12,1.83,.39,2.72,.75,.88,.36,1.74,.79,2.54,1.34,.8,.54,1.58,1.15,2.28,1.85,.72,.69,1.34,1.47,1.93,2.28,.46,.63,.33,1.51-.3,1.97-.63,.46-1.51,.33-1.97-.3-.07-.09-.12-.19-.16-.29l-.02-.04c-.32-.77-.67-1.55-1.13-2.28-.43-.74-.98-1.42-1.56-2.07-.59-.65-1.26-1.23-1.98-1.76-.73-.52-1.51-.99-2.36-1.32h0s-.05-.05-.04-.09c.01-.03,.04-.05,.07-.04Z"/><path class="g" d="M125.61,40.65c1.15,.51,2.24,1.19,3.27,1.97,1.03,.78,1.99,1.69,2.87,2.72l.02,.02c.51,.6,.44,1.5-.15,2.01-.6,.51-1.5,.44-2.01-.15-.11-.13-.2-.29-.26-.44-.39-1.08-.9-2.14-1.54-3.15-.64-1.01-1.38-1.99-2.26-2.85-.03-.02-.03-.07,0-.09,.02-.02,.05-.03,.08-.02Z"/><path class="g" d="M120.49,42.3c1.82,.54,3.6,1.28,5.3,2.27,1.67,1.01,3.33,2.29,4.45,4.31v.02c.39,.68,.14,1.54-.54,1.92s-1.54,.13-1.92-.55c-.06-.11-.1-.22-.13-.33-.37-1.46-1.44-2.94-2.74-4.2-1.31-1.26-2.83-2.38-4.46-3.32-.03-.02-.05-.06-.03-.09,.01-.03,.05-.04,.08-.03Z"/><path class="g" d="M121.88,46.98c1.15,.49,2.26,1.07,3.34,1.76,1.08,.7,2.13,1.51,3.05,2.63l.04,.05c.5,.61,.42,1.51-.19,2.01-.61,.5-1.51,.42-2.01-.19-.12-.14-.2-.3-.26-.47-.32-.98-.92-2-1.62-2.96-.71-.96-1.53-1.88-2.42-2.73-.03-.02-.03-.07,0-.09,.02-.02,.05-.03,.08-.02Z"/><path class="g" d="M116.89,48.44c1.8,.43,3.54,1.15,5.18,2.12,.82,.48,1.61,1.04,2.36,1.67,.76,.62,1.44,1.35,2.09,2.12,.51,.59,.44,1.49-.16,1.99s-1.49,.44-1.99-.16c-.07-.09-.13-.18-.18-.27l-.02-.05c-.37-.73-.77-1.48-1.29-2.16-.5-.69-1.07-1.36-1.7-1.97-1.26-1.23-2.72-2.32-4.34-3.16-.03-.01-.05-.05-.03-.09,.01-.03,.05-.04,.08-.04Z"/><path class="g" d="M118.15,52.61c1.15,.49,2.25,1.1,3.32,1.8,1.07,.7,2.09,1.52,3.04,2.47l.02,.02c.56,.56,.56,1.46,0,2.02-.56,.56-1.46,.56-2.02,0-.12-.13-.22-.27-.29-.42-.92-2.06-2.38-4.06-4.13-5.77-.03-.02-.03-.07,0-.09,.02-.02,.05-.03,.08-.02Z"/><path class="g" d="M113.57,53.54c1.66,.62,3.23,1.47,4.74,2.47,1.51,1,2.92,2.18,4.21,3.53,.54,.56,.52,1.46-.04,2-.56,.54-1.46,.52-2-.04-.08-.09-.16-.19-.22-.29-.8-1.43-1.78-2.81-2.92-4.08-1.14-1.27-2.41-2.46-3.84-3.46-.03-.02-.04-.06-.02-.09,.02-.03,.05-.04,.08-.03Z"/><path class="g" d="M114.18,57.7c2.15,1.2,4.18,2.63,6.13,4.23h0c.61,.5,.7,1.4,.2,2.01-.5,.61-1.4,.7-2,.2-.14-.11-.25-.25-.33-.4-1.17-2.06-2.52-4.07-4.08-5.93-.02-.03-.02-.07,0-.09,.02-.02,.05-.02,.08,0Z"/><path class="g" d="M109.78,57.91c2.77,2.04,5.52,4.08,8.21,6.31,.6,.5,.68,1.39,.19,1.99s-1.39,.68-1.99,.19c-.09-.08-.18-.17-.25-.26h0c-1.95-2.76-4.1-5.46-6.25-8.12-.02-.03-.02-.07,0-.09,.02-.02,.06-.02,.08,0Z"/><path class="g" d="M109.33,62.19l6.22,4.12h.02c.66,.45,.84,1.33,.4,1.99-.43,.66-1.32,.84-1.98,.4-.15-.1-.27-.22-.37-.35l-4.39-6.06s-.01-.07,.01-.09c.02-.02,.06-.02,.08,0Z"/><path class="g" d="M105.16,62.08c2.53,2.19,5.13,4.32,7.79,6.24,.63,.45,.78,1.34,.32,1.97s-1.34,.78-1.97,.32c-.1-.07-.2-.17-.28-.26-2.15-2.66-4.09-5.4-5.97-8.19-.02-.03-.01-.07,.02-.09,.03-.02,.06-.01,.08,0Z"/><path class="g" d="M104.63,66.28c1.97,1.52,4,2.95,6.06,4.29,.66,.43,.84,1.31,.42,1.97-.43,.66-1.31,.84-1.97,.42-.15-.09-.27-.22-.37-.35-1.5-2.04-2.93-4.11-4.24-6.24-.02-.03,0-.07,.02-.09,.02-.02,.06-.01,.08,0Z"/><path class="g" d="M101.07,66.5c2.05,2.23,4.39,4.17,6.85,5.68,.67,.41,.87,1.28,.46,1.95-.41,.67-1.28,.87-1.95,.46-.12-.07-.23-.17-.32-.27-2.12-2.39-3.82-5-5.16-7.75-.02-.03,0-.07,.03-.09,.03-.01,.06,0,.08,.02Z"/><path class="g" d="M100.11,70.54c1.6,1.36,3.36,2.46,5.16,3.4,.7,.37,.97,1.23,.6,1.93-.37,.7-1.23,.97-1.93,.6-.18-.1-.34-.23-.46-.38h-.01c-1.35-1.75-2.55-3.56-3.46-5.49-.02-.03,0-.07,.03-.09,.02-.01,.06,0,.08,.01Z"/><path class="g" d="M95.93,75.12c1.26,.91,2.62,1.72,3.95,2.24,.76,.29,1.13,1.14,.84,1.9-.29,.76-1.14,1.13-1.9,.84-.28-.11-.5-.29-.67-.52l-.04-.05c-1.01-1.41-1.71-2.86-2.29-4.33-.01-.04,0-.07,.04-.09,.02,0,.05,0,.07,0Z"/><path class="g" d="M94.54,77.28c1.02,.93,2.2,1.61,3.36,1.98,.79,.25,1.22,1.1,.97,1.89-.25,.79-1.1,1.22-1.89,.97-.33-.11-.6-.32-.78-.58l-.07-.1c-.9-1.31-1.45-2.7-1.71-4.1,0-.04,.02-.07,.05-.08,.02,0,.04,0,.06,.02h0Z"/><path class="g" d="M92.94,79.75c.88,.55,1.82,.94,2.75,1.23,.83,.25,1.3,1.13,1.04,1.96s-1.13,1.3-1.96,1.04c-.46-.14-.81-.47-.99-.89l-.04-.1c-.44-1.05-.77-2.11-.92-3.17,0-.04,.02-.08,.06-.08,.02,0,.03,0,.05,.01h0Z"/><path class="g" d="M91.84,82.1c.88,.55,1.82,.94,2.75,1.23,.83,.25,1.3,1.13,1.04,1.96-.25,.83-1.13,1.3-1.96,1.04-.46-.14-.81-.47-.99-.89l-.04-.1c-.44-1.05-.77-2.11-.92-3.17,0-.04,.02-.08,.06-.08,.02,0,.03,0,.05,.01h0Z"/><path class="g" d="M97.06,71.2c1.5,1.74,3.29,3.25,5.15,4.17,.71,.35,1,1.21,.65,1.91-.35,.71-1.21,1-1.92,.65-.17-.08-.32-.2-.43-.33l-.03-.03c-.86-.97-1.55-2-2.12-3.06-.58-1.06-1.05-2.14-1.42-3.26-.01-.04,0-.07,.04-.08,.03,0,.06,0,.07,.02Z"/><path class="g" d="M72.34,6.75c-1.14-.09-2.27,.04-3.29,.36-.51,.15-.99,.36-1.42,.62-.44,.24-.82,.56-1.17,.87-.59,.52-1.49,.47-2.02-.12s-.47-1.49,.12-2.02c.14-.13,.3-.22,.47-.28h.01c.65-.23,1.3-.42,1.96-.49,.65-.09,1.29-.1,1.92-.04,1.25,.11,2.42,.45,3.46,.98,.03,.02,.05,.06,.03,.09-.01,.02-.04,.04-.06,.04h0Z"/><path class="g" d="M94.48,12.31c-.99-.52-2.06-.85-3.1-.98-1.04-.14-2.06-.06-2.98,.18-.77,.2-1.55-.25-1.75-1.02-.2-.77,.25-1.55,1.02-1.75,.19-.05,.38-.06,.57-.03h.07c1.31,.2,2.52,.62,3.57,1.24,1.05,.61,1.97,1.37,2.7,2.26,.02,.03,.02,.07,0,.09-.02,.02-.05,.02-.07,0h0Z"/><path class="g" d="M93.09,15.09c-.94-.57-1.99-.92-3-1.07-1.02-.16-2.02-.08-2.91,.16-.77,.21-1.55-.25-1.76-1.01-.21-.77,.25-1.55,1.01-1.76,.19-.05,.39-.06,.57-.04h.07c1.3,.2,2.51,.64,3.54,1.28,1.03,.63,1.9,1.43,2.57,2.35,.02,.03,.02,.07-.01,.09-.02,.02-.05,.02-.07,0h0Z"/><path class="g" d="M91.88,17.92c-2.06-.69-4.21-.96-6.2-.82-.79,.05-1.47-.54-1.53-1.33-.05-.79,.54-1.47,1.33-1.53,.2-.01,.4,.01,.58,.08h.04c2.25,.82,4.21,2.02,5.86,3.49,.03,.02,.03,.07,0,.09-.02,.02-.05,.03-.08,.02Z"/><path class="g" d="M90.85,20.78l-6.57-.84c-.79-.1-1.34-.82-1.24-1.61,.1-.79,.82-1.34,1.61-1.24,.2,.03,.38,.09,.54,.18l.05,.03,5.65,3.35s.04,.06,.03,.09c-.01,.02-.04,.04-.07,.03Z"/><path class="g" d="M89.97,24.04c-2.22-.11-4.45-.46-6.7-1.13h-.02c-.76-.23-1.19-1.03-.96-1.79s1.02-1.19,1.78-.96c.19,.06,.37,.16,.51,.27,1.59,1.33,3.44,2.51,5.42,3.48,.03,.01,.05,.05,.03,.09-.01,.03-.04,.04-.07,.04Z"/><path class="g" d="M89.5,27.39c-1.17,.06-2.35-.03-3.55-.24-1.2-.22-2.41-.59-3.59-1.25l-.06-.03c-.69-.38-.95-1.26-.56-1.95,.38-.69,1.25-.95,1.95-.56,.17,.09,.32,.22,.43,.36,1.22,1.54,3.25,2.76,5.39,3.53,.04,.01,.06,.05,.05,.08,0,.03-.04,.05-.06,.05Z"/><path class="g" d="M50.74,13.84c-2.22,.67-4.19,2.05-5.24,3.72-.42,.67-1.31,.87-1.98,.45-.67-.42-.87-1.31-.45-1.98,.1-.16,.24-.3,.38-.41l.07-.05c1.13-.79,2.35-1.31,3.57-1.59,1.22-.29,2.44-.38,3.64-.27,.04,0,.06,.04,.06,.07,0,.03-.02,.05-.05,.06h0Z"/><path class="g" d="M51.69,16.63c-2.21,.61-4.17,1.91-5.29,3.51-.45,.65-1.35,.81-2,.35s-.81-1.35-.35-2c.11-.16,.25-.29,.41-.39l.07-.04c1.15-.72,2.36-1.18,3.58-1.41,1.21-.24,2.42-.29,3.59-.15,.04,0,.06,.04,.06,.07,0,.03-.02,.05-.05,.06h0Z"/><path class="g" d="M52.72,19.43c-2.14,.7-4.11,1.89-5.4,3.38-.52,.6-1.42,.67-2.02,.15s-.67-1.42-.15-2.02c.13-.15,.28-.26,.44-.35l.06-.03c1.17-.58,2.37-.93,3.55-1.12,1.18-.19,2.35-.24,3.5-.15,.04,0,.06,.04,.06,.07,0,.03-.03,.05-.05,.06Z"/><path class="g" d="M53.94,21.95c-2.14,.69-4.12,1.88-5.39,3.38-.51,.6-1.42,.68-2.02,.16-.6-.51-.68-1.42-.16-2.02,.13-.15,.28-.27,.44-.35l.06-.03c1.17-.59,2.37-.94,3.55-1.13,1.18-.19,2.36-.24,3.51-.14,.04,0,.06,.04,.06,.07,0,.03-.03,.05-.05,.06Z"/><path class="g" d="M55.17,24.48c-1.44,.68-2.83,1.51-3.95,2.48-.43,.37-1.07,.33-1.44-.1-.37-.43-.33-1.07,.1-1.44,.11-.09,.23-.16,.35-.2h.02c1.66-.54,3.28-.75,4.9-.83,.03,0,.05,.02,.05,.05,0,.02-.01,.04-.03,.05Z"/><path class="g" d="M56.45,26.98l-2.89,2.09c-.46,.34-1.11,.23-1.45-.23-.34-.46-.23-1.11,.23-1.45,.16-.11,.34-.18,.52-.19l3.55-.31s.05,.02,.05,.04c0,.02,0,.03-.02,.04Z"/><path class="g" d="M72.05,9.55c-1.14-.08-2.28,.07-3.3,.4-.51,.16-.99,.37-1.43,.63-.44,.24-.82,.56-1.17,.87-.59,.52-1.49,.47-2.01-.12-.52-.59-.47-1.49,.12-2.01,.14-.13,.3-.22,.47-.28h.01c.65-.23,1.3-.42,1.96-.5,.65-.09,1.29-.1,1.92-.05,1.25,.1,2.42,.42,3.48,.93,.03,.02,.05,.06,.03,.09-.01,.03-.04,.04-.06,.04h0Z"/><path class="g" d="M71.93,12.32c-2.22,.14-4.32,.88-5.99,1.97-.66,.43-1.55,.24-1.98-.42-.43-.66-.24-1.55,.42-1.98,.17-.11,.34-.18,.53-.21h.05c1.23-.22,2.44-.28,3.62-.19,1.18,.09,2.32,.31,3.39,.7,.03,.01,.05,.05,.04,.09,0,.03-.03,.04-.06,.04h0Z"/><path class="g" d="M71.96,15.09c-2.14,.31-4.2,1.01-5.92,2-.69,.4-1.56,.16-1.96-.52s-.16-1.56,.52-1.96c.18-.1,.36-.16,.55-.18h.04c2.38-.26,4.64-.04,6.77,.53,.04,0,.06,.05,.05,.08,0,.03-.03,.05-.06,.05Z"/><path class="g" d="M72.19,17.94l-5.96,1.92c-.75,.24-1.56-.17-1.81-.92-.24-.75,.17-1.56,.92-1.81,.2-.06,.4-.08,.6-.06h.02l6.21,.73s.06,.04,.06,.07c0,.03-.02,.05-.05,.06Z"/><path class="g" d="M72.68,21.04c-2.01,.75-4.1,1.35-6.36,1.66h-.02c-.78,.11-1.51-.43-1.62-1.22s.44-1.51,1.22-1.62c.2-.03,.41-.01,.6,.04,1.92,.56,4.03,.88,6.16,1,.04,0,.07,.03,.07,.07,0,.03-.02,.05-.04,.06Z"/><path class="g" d="M73.33,24.35c-2.09,.68-4.33,.99-6.61,1.08h-.01c-.79,.03-1.46-.58-1.49-1.37-.03-.79,.58-1.46,1.37-1.49,.2,0,.4,.03,.58,.1,1.93,.75,3.99,1.34,6.14,1.55h0s.06,.04,.06,.07c0,.03-.02,.05-.05,.06Z"/><path class="g" d="M74.32,27.64c-1.17,.4-2.39,.67-3.67,.8-1.28,.11-2.64,.09-4.09-.44l-.1-.04c-.75-.27-1.13-1.1-.86-1.84,.27-.75,1.1-1.13,1.84-.86,.18,.07,.35,.17,.48,.3,.68,.63,1.72,1.11,2.83,1.42,1.12,.3,2.32,.49,3.53,.53,.04,0,.07,.03,.07,.07,0,.03-.02,.05-.05,.06Z"/><path class="g" d="M32.81,28.35c.73-.88,1.63-1.65,2.64-2.29,1.01-.65,2.16-1.15,3.41-1.47h.06c.77-.21,1.55,.26,1.74,1.03,.19,.77-.27,1.55-1.04,1.74-.19,.05-.4,.05-.58,.03-1.92-.31-4.15,.05-6.14,1.07h0s-.07,0-.09-.03c-.01-.02,0-.05,0-.07Z"/><path class="g" d="M44.82,35.35c1.09,.94,2.38,1.68,3.65,1.98,.63,.14,1.25,.14,1.77,0,.26-.08,.5-.19,.72-.32l.16-.11c-.18,.07-.34,.2-.42,.3-.07,.08-.11,.15-.12,.15-.02,.03,0-.08,.06-.27,.06-.18,.22-.56,.63-.85,.64-.43,1.51-.25,1.94,.39,.43,.64,.25,1.51-.39,1.94,.26-.19,.33-.41,.32-.42,0-.02-.04,.04-.13,.24-.04,.09-.12,.23-.25,.39-.13,.17-.37,.37-.63,.47l-.35,.09c-.46,.11-.94,.15-1.4,.13-.93-.05-1.77-.36-2.47-.77-1.4-.84-2.41-2-3.2-3.25-.02-.03-.01-.07,.02-.09,.03-.02,.06,0,.08,0Z"/><path class="g" d="M43.21,37.76c1.12,.72,2.37,1.29,3.58,1.47,.59,.08,1.17,.07,1.63-.09,.46-.17,.78-.45,1.04-.78,.5-.61,1.4-.71,2.01-.21,.61,.5,.71,1.4,.21,2.01-.1,.13-.23,.23-.36,.32l-.08,.05c-.8,.49-1.73,.76-2.61,.74-.88-.02-1.65-.31-2.32-.65-1.33-.7-2.33-1.69-3.19-2.76-.02-.03-.02-.07,.01-.09,.02-.02,.05-.02,.08,0h0Z"/><path class="g" d="M41.68,40.32c1.08,.53,2.26,.82,3.37,.84,.55,.02,1.09-.06,1.58-.19,.49-.12,.93-.37,1.33-.6h0c.68-.41,1.55-.18,1.95,.49,.4,.68,.18,1.55-.5,1.95-.15,.09-.32,.15-.48,.18-.74,.13-1.48,.21-2.2,.11-.71-.08-1.39-.24-2.01-.51-1.24-.51-2.28-1.26-3.13-2.17-.03-.03-.02-.07,0-.09,.02-.02,.05-.02,.07-.01h0Z"/><path class="g" d="M40.71,43.27c1.05,.17,2.11,.17,3.09,.02,.98-.15,1.87-.5,2.51-1,.63-.49,1.54-.38,2.03,.26s.38,1.54-.26,2.03c-.18,.14-.37,.23-.57,.27l-.14,.03c-1.32,.29-2.56,.17-3.68-.13-1.11-.31-2.13-.77-3.04-1.36-.03-.02-.04-.06-.02-.09,.01-.02,.05-.03,.07-.03Z"/><path class="g" d="M39.89,46.2c.99-.11,1.96-.37,2.82-.75,.86-.37,1.6-.9,2.09-1.49,.51-.62,1.43-.71,2.05-.2,.62,.51,.71,1.43,.2,2.05-.15,.18-.33,.32-.54,.41l-.13,.06c-1.16,.5-2.32,.65-3.41,.62-1.09-.04-2.12-.23-3.09-.57-.04-.01-.05-.05-.04-.09,0-.03,.04-.04,.06-.05Z"/><path class="g" d="M39.54,48.92c1.74-.63,3.3-1.67,4.34-2.9,.52-.61,1.43-.69,2.05-.17s.69,1.43,.17,2.05c-.16,.19-.36,.33-.57,.41l-.08,.03c-2.01,.8-4.02,.95-5.9,.72-.04,0-.06-.04-.06-.08,0-.03,.02-.05,.04-.05h0Z"/><path class="g" d="M14.05,98.29c-1.05,1.17-2.04,2.34-2.93,3.58-.89,1.24-1.62,2.57-2.19,3.94-.31,.68-.51,1.39-.76,2.09-.16,.72-.39,1.42-.46,2.15-.27,1.43-.26,2.89-.19,4.32v.1c.04,.83-.6,1.53-1.42,1.57-.83,.04-1.53-.6-1.57-1.43,0-.05,0-.1,0-.15,.09-1.68,.23-3.37,.74-4.97,.19-.81,.54-1.58,.83-2.35,.36-.74,.69-1.5,1.14-2.19,.84-1.41,1.83-2.7,2.94-3.87,1.12-1.15,2.36-2.2,3.8-2.9,.04-.02,.08,0,.1,.03,.01,.03,0,.06-.01,.08h0Z"/><path class="g" d="M19.37,90.94c-1.74,1.03-3.39,2.13-4.95,3.34-1.55,1.22-2.96,2.6-4.17,4.1-1.24,1.49-2.24,3.14-2.99,4.87-.82,1.71-1.21,3.57-1.52,5.4l-.02,.12c-.14,.82-.92,1.37-1.74,1.23-.82-.14-1.37-.92-1.23-1.74,0-.04,.01-.08,.02-.11,.53-2.09,1.13-4.18,2.24-6.02,1.04-1.86,2.31-3.58,3.82-5.04,1.49-1.47,3.13-2.75,4.88-3.84,1.75-1.07,3.61-1.98,5.61-2.46,.04,0,.08,.01,.09,.05,0,.03-.01,.06-.04,.08Z"/><path class="g" d="M106.83,39.37c-.15,1.38-.6,2.71-1.11,4-.54,1.29-1.21,2.53-1.99,3.7-.79,1.16-1.65,2.31-2.64,3.33-.96,1.06-2.06,1.98-3.17,2.87-.6,.49-1.49,.39-1.97-.22-.49-.6-.39-1.49,.22-1.97,.05-.04,.1-.07,.15-.11l.05-.03c1.11-.66,2.19-1.38,3.21-2.19,1.04-.79,1.98-1.71,2.88-2.67,.89-.97,1.68-2.04,2.4-3.16,.73-1.12,1.35-2.32,1.85-3.58h0s.05-.06,.09-.04c.03,.01,.04,.04,.04,.07Z"/><path class="g" d="M103.09,37.37c-.03,1.35-.36,2.66-.76,3.95-.42,1.29-.98,2.53-1.62,3.73-.67,1.18-1.39,2.35-2.24,3.43-.82,1.11-1.78,2.1-2.75,3.08-.55,.55-1.44,.55-1.99,0-.55-.55-.55-1.44,0-1.99,.05-.05,.09-.09,.14-.13l.04-.03c1-.76,1.98-1.56,2.89-2.43,.93-.86,1.76-1.82,2.56-2.82,.78-1.01,1.47-2.1,2.08-3.23,.63-1.13,1.14-2.33,1.53-3.58h0s.05-.06,.08-.05c.03,0,.05,.04,.05,.06Z"/><path class="g" d="M98.97,35.85c.17,1.29,.03,2.59-.18,3.89-.24,1.29-.61,2.56-1.13,3.78-.52,1.22-1.13,2.42-1.9,3.52-.73,1.14-1.63,2.14-2.56,3.13-.53,.56-1.42,.59-1.99,.06s-.59-1.42-.06-1.99c.05-.05,.09-.09,.14-.13l.05-.04c.93-.74,1.84-1.52,2.65-2.41,.84-.86,1.56-1.85,2.21-2.87,.66-1.03,1.18-2.15,1.63-3.31,.46-1.16,.78-2.37,.99-3.62h0s.04-.07,.08-.06c.03,0,.05,.03,.06,.06Z"/><path class="g" d="M94.55,34.95c.29,1.15,.34,2.35,.26,3.54-.09,1.19-.29,2.38-.64,3.55-.35,1.16-.77,2.31-1.35,3.4-.54,1.11-1.25,2.12-1.99,3.11-.46,.62-1.34,.76-1.97,.3s-.76-1.34-.3-1.97c.04-.06,.09-.11,.14-.16l.04-.04c.77-.75,1.51-1.55,2.17-2.42,.68-.85,1.24-1.81,1.74-2.79,.5-.99,.88-2.04,1.18-3.13,.3-1.09,.51-2.21,.58-3.36h0s.03-.07,.07-.07c.03,0,.05,.02,.06,.05Z"/><path class="g" d="M89.86,34.56c.4,1.05,.58,2.18,.65,3.31,.06,1.13,0,2.28-.2,3.42-.2,1.14-.48,2.28-.91,3.37-.4,1.11-.98,2.14-1.6,3.15-.4,.67-1.26,.88-1.93,.48-.67-.4-.88-1.26-.48-1.93,.04-.07,.08-.13,.13-.19l.04-.05c.66-.77,1.29-1.57,1.82-2.45,.56-.86,.99-1.81,1.36-2.79,.37-.98,.61-2.01,.78-3.07,.17-1.05,.25-2.14,.21-3.23h0s.03-.07,.06-.07c.03,0,.05,.02,.06,.04Z"/><path class="g" d="M85.39,34.94c.47,.93,.74,1.95,.9,2.98,.16,1.04,.21,2.1,.15,3.16-.07,1.06-.2,2.14-.48,3.18-.24,1.06-.64,2.07-1.07,3.07-.3,.72-1.13,1.05-1.84,.75-.72-.3-1.05-1.13-.75-1.84,.03-.08,.07-.15,.12-.22l.03-.04c.51-.78,1-1.59,1.4-2.45,.43-.85,.73-1.76,.99-2.68,.26-.93,.39-1.9,.47-2.87,.07-.98,.07-1.98-.04-2.98h0s.02-.08,.06-.08c.03,0,.05,.01,.07,.04Z"/><path class="g" d="M67.95,46.13c1.13,1.4,1.92,3.04,2.51,4.78,.29,.88,.5,1.79,.63,2.75,.13,.96,.09,1.95-.05,2.97-.11,.77-.82,1.31-1.59,1.2-.77-.11-1.31-.82-1.2-1.59,.01-.1,.04-.2,.07-.29v-.02c.52-1.38,.69-3.02,.56-4.69-.15-1.67-.55-3.35-1.04-5.05-.01-.03,0-.07,.04-.09,.03,0,.06,0,.07,.02Z"/><path class="g" d="M70.78,42.29c1.04,1.45,1.74,3.11,2.25,4.86,.25,.88,.43,1.79,.53,2.73,.1,.94,.05,1.92-.08,2.91-.11,.77-.82,1.31-1.59,1.21-.77-.11-1.31-.82-1.21-1.59,.01-.1,.04-.2,.07-.29v-.02c.52-1.39,.75-3.02,.68-4.68-.07-1.67-.39-3.35-.77-5.06-.01-.04,.01-.07,.05-.08,.03,0,.06,0,.07,.03Z"/><path class="g" d="M73.92,39.63c.93,1.53,1.52,3.24,1.94,5.02,.21,.89,.35,1.81,.43,2.75,.08,.94,.02,1.91-.12,2.89-.11,.77-.82,1.31-1.59,1.2-.77-.11-1.31-.82-1.2-1.59,.01-.1,.04-.2,.07-.29v-.03c.53-1.43,.8-3.07,.81-4.76,0-1.69-.2-3.41-.46-5.15,0-.04,.02-.07,.05-.08,.03,0,.06,0,.07,.03Z"/><path class="g" d="M77.37,37.34c.83,1.64,1.3,3.42,1.63,5.24,.17,.91,.26,1.85,.31,2.8,.05,.95-.03,1.92-.15,2.9-.1,.77-.8,1.32-1.58,1.22-.77-.1-1.32-.8-1.22-1.58,.01-.1,.03-.19,.06-.28v-.03c.54-1.52,.86-3.2,.96-4.94,.1-1.74,0-3.5-.14-5.3,0-.04,.02-.07,.06-.08,.03,0,.06,.01,.07,.04Z"/><path class="g" d="M81.37,35.83c.83,1.8,1.12,3.79,1.22,5.77,.03,1,.03,2.01-.07,3.01-.07,1.01-.27,2.01-.48,3.01-.16,.76-.91,1.25-1.67,1.09-.76-.16-1.25-.91-1.09-1.67,.02-.09,.05-.18,.08-.26v-.03c.72-1.66,1.29-3.41,1.61-5.25,.31-1.83,.39-3.72,.27-5.64h0s.03-.07,.06-.08c.03,0,.05,.01,.06,.04Z"/><path class="g" d="M66,51.5c1.24,.93,2.11,2.26,2.79,3.68,.33,.72,.62,1.47,.81,2.25,.22,.78,.31,1.59,.4,2.41,.08,.78-.49,1.47-1.27,1.54-.78,.08-1.47-.49-1.54-1.27-.01-.12,0-.24,0-.35v-.03c.21-1.31,.27-2.69,.05-4.07-.22-1.38-.68-2.74-1.34-4.08h0s0-.08,.03-.1c.02-.01,.05,0,.07,0Z"/><path class="g" d="M65.46,56.24c1.11,1,1.9,2.27,2.61,3.58,.35,.66,.67,1.35,.94,2.06,.29,.7,.49,1.44,.69,2.19,.2,.75-.24,1.53-.99,1.73s-1.53-.24-1.73-.99c-.03-.12-.05-.24-.05-.35v-.03c0-1.33-.11-2.69-.38-4.05-.27-1.36-.7-2.69-1.19-4.05h0s0-.08,.04-.09c.02,0,.05,0,.07,.01Z"/><path class="g" d="M65.58,60.45c.98,.5,1.73,1.3,2.43,2.14,.69,.85,1.31,1.79,1.78,2.81v.03c.35,.71,.04,1.56-.67,1.89-.71,.33-1.56,.03-1.89-.69-.07-.14-.11-.3-.13-.45-.1-.93-.25-1.88-.52-2.83-.28-.94-.66-1.85-1.09-2.81h0s0-.08,.03-.1c.02,0,.04,0,.06,0Z"/><path class="g" d="M23.74,84.24c-2.4,.97-4.7,2.09-6.89,3.38-2.18,1.3-4.21,2.84-6,4.58-1.82,1.72-3.29,3.75-4.47,5.9-1.25,2.12-1.91,4.5-2.47,6.85l-.04,.15c-.19,.81-1,1.31-1.81,1.12s-.47-3.87-.47-3.87l.31-.98c.12-.32,.27-.63,.41-.94l.85-1.86c.34-.59,.71-1.17,1.06-1.74,1.49-2.27,3.28-4.33,5.36-6,2.05-1.7,4.3-3.13,6.66-4.29,2.37-1.14,4.85-2.04,7.44-2.43,.04,0,.08,.02,.08,.06,0,.03-.02,.07-.05,.08Z"/><path class="g" d="M26.7,72.07c-2.65,.97-5.2,2.13-7.64,3.47-2.43,1.35-4.71,2.96-6.76,4.78-1.05,.89-1.97,1.91-2.91,2.9-.45,.51-.85,1.07-1.28,1.59l-.63,.8-.55,.86c-1.57,2.22-2.64,4.72-3.59,7.22l-.04,.11c-.29,.78-1.16,1.17-1.94,.87s-1.17-1.16-.87-1.94c0-.03,.02-.05,.03-.08,1.2-2.7,2.5-5.38,4.38-7.65l.66-.88,.74-.81c.5-.53,.98-1.09,1.5-1.6,1.08-.99,2.13-1.99,3.31-2.84,2.3-1.76,4.79-3.24,7.39-4.44,2.61-1.18,5.34-2.12,8.16-2.51,.04,0,.07,.02,.08,.06,0,.03-.02,.07-.05,.08Z"/><path class="g" d="M19.74,64.94c-2.03,1.21-3.9,2.62-5.61,4.18-1.7,1.57-3.26,3.29-4.54,5.2-1.26,1.91-2.41,3.9-3.2,6.04-.47,1.04-.76,2.15-1.13,3.22-.33,1.09-.54,2.21-.82,3.31l-.04,.16c-.2,.8-1.02,1.29-1.82,1.09s-1.29-1.02-1.09-1.82c0-.03,.02-.06,.03-.09,.38-1.17,.69-2.36,1.12-3.51,.48-1.14,.86-2.3,1.48-3.37,1.06-2.22,2.47-4.24,3.99-6.14,1.53-1.9,3.33-3.56,5.24-5.03,1.92-1.45,4.03-2.69,6.35-3.36,.04-.01,.08,.01,.09,.05,0,.03,0,.06-.03,.08h0Z"/><path class="g" d="M47.11,46.32c-1.79,2.88-3.98,5.57-6.58,7.81-1.3,1.12-2.69,2.12-4.13,3.01-1.53,.96-3.17,1.57-4.78,2.06-3.23,.95-6.5,1.53-9.69,2.12-3.09,.68-6.17,1.92-8.57,4.16-.03,.03-.07,.03-.1,0-.02-.03-.03-.06,0-.09,.99-1.34,2.32-2.41,3.73-3.3,1.42-.9,2.97-1.6,4.58-2.12,3.19-.96,6.34-1.74,9.34-2.86,1.49-.57,2.93-1.17,4.13-2.03,1.3-.9,2.52-1.9,3.67-2.96,2.29-2.14,4.21-4.65,5.84-7.35,.43-.71,1.35-.94,2.06-.51s.94,1.35,.51,2.06v.02Z"/><path class="g" d="M43.59,53.54c-.81,1.43-1.56,2.99-2.51,4.54-.94,1.54-2.12,3.02-3.51,4.24-1.38,1.23-2.94,2.2-4.53,3.01-1.61,.77-3.25,1.43-4.92,1.95-3.28,.96-6.47,2-9.48,3.53-3.02,1.48-5.83,3.45-8.2,5.92-.03,.03-.07,.03-.1,0-.03-.03-.03-.07,0-.09,2.11-2.71,4.75-5.05,7.71-6.88,2.95-1.84,6.19-3.25,9.39-4.46,1.57-.57,3.08-1.26,4.53-2.03,1.42-.8,2.75-1.73,3.88-2.82,1.14-1.1,2.07-2.35,2.85-3.77,.78-1.41,1.45-2.97,2.26-4.55,.38-.74,1.28-1.03,2.02-.66,.74,.38,1.03,1.28,.66,2.02,0,.02-.02,.04-.03,.06Z"/><path class="g" d="M15.66,82.27c-1.4,1.23-2.79,2.43-4.11,3.69-1.32,1.26-2.54,2.61-3.65,4.02-1.09,1.43-2.06,2.93-2.85,4.49-.77,1.57-1.32,3.21-1.65,4.86v.06c-.17,.81-.96,1.34-1.78,1.18s-1.34-.95-1.18-1.77c0-.04,.02-.09,.03-.13,.56-1.94,1.35-3.78,2.39-5.44,1.07-1.64,2.26-3.16,3.6-4.52,1.35-1.35,2.78-2.59,4.29-3.71,1.51-1.12,3.09-2.14,4.84-2.86,.04-.02,.08,0,.09,.04,.01,.03,0,.06-.02,.08Z"/><path class="g" d="M35.73,47.24c-.74,1.04-1.58,2-2.47,2.91-.89,.91-1.83,1.81-2.86,2.59-1.03,.79-2.12,1.53-3.31,2.15-1.19,.62-2.37,1.05-3.56,1.53-2.38,.93-4.75,1.71-6.73,2.83-2,1.09-3.53,2.65-4.81,4.54v.02c-.63,.92-1.88,1.16-2.79,.54-.92-.62-1.16-1.86-.54-2.78,.03-.05,.07-.1,.11-.14,.87-1.07,1.83-2.09,2.93-2.99,1.09-.9,2.33-1.63,3.58-2.2,2.52-1.13,5.03-1.67,7.4-2.36,2.42-.7,4.65-1.34,6.79-2.55,2.15-1.16,4.19-2.62,6.13-4.22,.04-.03,.1-.03,.13,0,.03,.03,.03,.08,0,.12Z"/><ellipse class="g" cx="49.98" cy="31.28" rx="1.63" ry="3.22" transform="translate(-8.2 40.85) rotate(-41.38)"/><path class="g" d="M52.83,38.96c-1.99,2.29-3.98,4.7-5.61,7.22-1.61,2.52-2.98,5.25-3.84,8.08-.44,1.41-.73,2.86-.87,4.3-.03,.36-.06,.72-.07,1.08v.54c0,.18,0,.38,0,.45,.04,.43,.23,.83,.54,1.13l.41,.37c.17,.15,.33,.31,.49,.48,.31,.33,.61,.68,.89,1.06,.54,.76,1,1.66,1.23,2.62,.23,.93,.3,1.84,.28,2.73-.03,.9-.11,1.71-.32,2.66l-.32-1.34c.62,.78,.97,1.46,1.29,2.3,.15,.41,.26,.85,.33,1.29,.07,.47,.09,.81,.1,1.25,.02,.83-.09,1.73-.37,2.56-.27,.84-.7,1.59-1.16,2.25l.02-1.69c.34,.54,.53,.95,.73,1.45,.19,.48,.35,.98,.46,1.5,.23,1.03,.27,2.16,.03,3.26-.24,1.1-.78,2.14-1.49,2.97-.7,.83-1.53,1.48-2.39,2l.72-1.19c-.06,.62-.15,1.06-.28,1.56-.13,.49-.29,.97-.49,1.43-.4,.93-.96,1.83-1.68,2.61-.73,.77-1.62,1.4-2.58,1.83-.97,.42-1.98,.66-2.98,.75l1.34-1.22c-.14,.67-.31,1.15-.54,1.7-.22,.53-.49,1.04-.81,1.53-.63,.98-1.56,1.9-2.63,2.47-1.05,.6-2.2,.91-3.34,1.05-1.17,.11-2.21,.09-3.45-.18l1.67-.7c-.38,.6-.81,1.2-1.34,1.68-.52,.5-1.11,.92-1.74,1.24-.62,.33-1.28,.58-1.94,.74-.69,.17-1.29,.27-2.11,.29l1.51-1.25c-.17,.82-.39,1.36-.7,1.98-.3,.6-.67,1.16-1.11,1.68-.44,.51-.94,.98-1.49,1.37-.55,.4-1.15,.7-1.76,.97l.91-1.68c.07,.43,.07,.66,.08,.97,0,.29-.01,.57-.04,.85-.06,.56-.17,1.11-.34,1.64-.33,1.06-.85,2.04-1.5,2.9l.23-1.35c.12,.44,.15,.69,.18,1.02,.03,.31,.03,.62,.01,.93-.04,.62-.15,1.24-.37,1.82-.22,.58-.49,1.15-.86,1.64-.35,.5-.77,.93-1.2,1.33l.49-.88c-.13,.65-.3,1.05-.54,1.54-.24,.47-.55,.92-.95,1.32-.8,.82-1.94,1.34-3.07,1.4-1.06,.06-2.05-.14-3-.55-.94-.41-1.8-1.08-2.43-1.91l2.39-1.81c.33,.42,.75,.76,1.25,.98,.5,.22,1.09,.33,1.6,.3,.43-.02,.83-.2,1.13-.51,.16-.16,.3-.36,.42-.59,.11-.2,.23-.55,.25-.67l.1-.51,.39-.37c.27-.25,.53-.51,.73-.8,.21-.28,.35-.59,.48-.9,.12-.31,.18-.65,.2-.99,.01-.17,0-.34,0-.5,0-.14-.06-.37-.06-.39l-.18-.8,.42-.56c.46-.61,.81-1.28,1.03-1.97,.11-.35,.18-.7,.22-1.06,.02-.18,.03-.35,.03-.52,0-.15-.02-.38-.02-.4l-.18-1.22,1.09-.46c.81-.34,1.53-.84,2.09-1.5,.28-.33,.52-.69,.72-1.08,.19-.36,.36-.87,.42-1.13l.26-1.23,1.25-.02c.33,0,.88-.08,1.32-.19,.46-.12,.89-.28,1.29-.49,.4-.2,.76-.46,1.07-.76,.33-.29,.57-.65,.81-1.02l.62-.94,1.05,.24c.28,.06,.76,.13,1.15,.14,.41,.02,.82,0,1.22-.04,.8-.1,1.56-.31,2.21-.69,.65-.35,1.15-.85,1.59-1.5,.42-.62,.77-1.48,.91-2.13l.25-1.12,1.09-.1c1.46-.14,2.74-.67,3.65-1.65,.46-.49,.83-1.08,1.11-1.73,.27-.63,.48-1.43,.53-2l.08-.8,.65-.39c1.3-.78,2.24-1.83,2.5-3.06,.13-.62,.12-1.29-.03-1.97-.14-.66-.46-1.43-.76-1.93l-.55-.88,.57-.81c.69-.98,1.02-1.9,.99-3.03,0-.27-.03-.62-.07-.85-.04-.24-.1-.49-.19-.74-.16-.47-.49-1.04-.74-1.35l-.48-.6,.16-.74c.27-1.24,.35-2.77,.04-3.93-.13-.56-.39-1.09-.76-1.6-.18-.25-.39-.5-.62-.74-.11-.12-.23-.23-.35-.35l-.46-.42c-.82-.79-1.35-1.88-1.45-3.01-.03-.31-.02-.51-.02-.72v-.64c.02-.42,.05-.85,.09-1.27,.16-1.68,.5-3.32,.99-4.9,.98-3.17,2.43-6.1,4.21-8.84,1.82-2.71,3.82-5.16,6.03-7.52l2.08,1.93Z"/><path class="g" d="M49,88.68c-1.71,0-3.34-.18-4.83-.52l.68-2.92c6.62,1.53,16.64-.72,22.18-7.92,.92-1.19,1.29-2.58,1.05-3.92-.71-3.92-1.48-9.24-1.14-12.28,.26-2.34,.93-4.49,1.98-6.39,2.22-3.99,6.41-7.3,10.69-8.44,2.29-.61,4.13-.72,6.17-.39,2.4,.39,6.63,1.84,9.56,3.59,.46,.27,.88,.54,1.28,.79,2.07,1.31,2.79,1.7,4.25,1.14,2.13-.81,7.99-5.25,12.52-13.76l2.65,1.41c-4.75,8.93-11.17,14.03-14.09,15.15-2.93,1.12-4.79-.05-6.93-1.41-.38-.24-.78-.49-1.21-.75-2.86-1.71-6.77-2.93-8.51-3.21-1.62-.26-3.04-.17-4.92,.33-3.53,.94-7,3.69-8.84,7-.87,1.57-1.4,3.29-1.62,5.26-.23,2.09,.16,6.14,1.12,11.41,.39,2.18-.18,4.41-1.62,6.28-5.06,6.58-13.41,9.53-20.41,9.53Z"/><path class="g" d="M97.01,55.81c-2.4,0-4.2-1.17-5.93-2.55-.22-.18-.44-.35-.66-.52-.8-.61-1.42-1.22-1.98-1.77-1.04-1.02-1.79-1.76-3.28-2.14l.73-2.91c2.28,.57,3.49,1.76,4.65,2.91,.51,.5,1.04,1.03,1.69,1.52,.24,.18,.47,.37,.71,.56,2.32,1.86,4.51,3.61,11.01-1.42l1.84,2.37c-3.75,2.9-6.53,3.95-8.79,3.95Z"/><path class="g" d="M69.37,79.19l-2.3-1.93c1.73-2.07,4.37-6,2.56-9.12l-.34-.58c-1.4-2.39-2.6-4.46-2.24-7.36l2.98,.38c-.24,1.89,.55,3.24,1.85,5.47l.34,.59c2.01,3.48,1,7.94-2.86,12.55Z"/><path class="g" d="M33.1,42.71c.7-1.55,1.52-3.01,2.39-4.46,.87-1.44,1.75-2.87,2.66-4.29l2.81-4.19c1-1.39,1.91-2.77,3.33-4.13,.6-.58,1.55-.56,2.12,.04,.58,.6,.56,1.55-.04,2.12-.04,.04-.07,.07-.11,.1l-.03,.02c-1.09,.86-2.19,2.17-3.26,3.4l-3.22,3.82c-1.09,1.26-2.17,2.53-3.23,3.82-1.07,1.29-2.14,2.57-3.29,3.81-.03,.03-.07,.03-.1,0-.02-.02-.03-.06-.02-.08Z"/><path class="g" d="M98.93,164.9c-6.72-11.95-7.73-18.5-7.87-22.88-.15-4.78,.27-7.68,3.25-13.24,1.09-2.04,1.88-3.87,2.4-5.59l2.87,.87c-.58,1.91-1.44,3.92-2.62,6.14-2.61,4.88-3.03,7.32-2.89,11.74,.12,4.03,1.08,10.12,7.48,21.5l-2.62,1.47Z"/><path class="g" d="M74.77,174.81l-2.9-.76c2.19-8.37,6.11-14.41,12.72-19.58,1.37-1.07,2.55-2.27,3.52-3.55l2.4,1.8c-1.13,1.5-2.5,2.88-4.07,4.11-6.06,4.74-9.66,10.28-11.67,17.97Z"/><path class="g" d="M71.82,174.51c-.37-7.15,1.03-12.75,4.55-18.14,1.32-2.03,2.88-3.59,4.39-5.1,2.81-2.82,5.03-5.04,4.85-9.27-.32-7.58,1.48-11.3,3.55-15.61,.31-.65,.63-1.31,.95-2.01,2.43-5.27,1.63-9.38,.69-14.14-.47-2.4-.96-4.87-1.07-7.68-.5-12.28,4.63-21.97,15.24-28.8l.88-.56c5.28-3.38,10.74-6.87,17.14-15.94,4.89-6.92,8.89-15.73,8.93-15.82l2.73,1.24c-.17,.37-4.16,9.16-9.21,16.31-6.74,9.55-12.71,13.37-17.98,16.74l-.87,.56c-9.66,6.21-14.33,15.01-13.87,26.15,.1,2.57,.57,4.94,1.02,7.22,.99,5.05,1.93,9.82-.91,15.98-.33,.71-.66,1.39-.98,2.05-1.98,4.11-3.54,7.36-3.26,14.18,.23,5.54-2.8,8.58-5.73,11.51-1.4,1.4-2.85,2.86-4,4.62-3.19,4.89-4.41,9.78-4.07,16.34l-3,.16Z"/><path class="g" d="M129.42,126.73c-1.63-4.36-3.68-7.07-5.92-7.84-1.8-.62-3.19,.22-3.25,.25-3.68,2.6-7.03,1.49-8.83,.17-5,1.67-7.98-.74-9.14-2.71-2.6-1.07-4.35-2.66-5.21-4.72-.94-2.25-.52-4.44-.19-5.55-2.38-4.66-.46-8.24,1.45-10.03-1.15-4.56,1.74-7.44,3.97-8.61,1.4-3.78,4.92-4.84,7.2-4.89,1.05-1.09,2.92-2.21,5.29-1.55,2.44,.68,3.11,2.51,3.64,3.98,.5,1.37,.97,2.67,2.77,3.78,5.39,3.33,9.27,8.01,11.51,13.92l-2.8,1.07c-2.01-5.27-5.47-9.46-10.29-12.43-2.69-1.66-3.45-3.77-4.01-5.31-.5-1.37-.72-1.86-1.63-2.12-1.55-.43-2.55,1.01-2.56,1.02l-.5,.73-.88-.08c-.41-.04-4.07-.23-5.07,3.36l-.2,.71-.68,.28c-.43,.18-4.2,1.9-2.62,6.15l.41,1.12-.99,.66c-.38,.26-3.76,2.76-1.08,7.36l.39,.67-.32,.71s-.86,2-.04,3.93c.59,1.39,1.95,2.49,4.02,3.25l.61,.22,.25,.59c.25,.55,1.79,3.3,6.43,1.39l.95-.39,.71,.75c.24,.24,2.51,2.39,5.76,.09,.15-.1,2.63-1.68,5.81-.63,3.21,1.06,5.85,4.3,7.85,9.65l-2.81,1.05Z"/><path class="g" d="M106.25,94.21c-.98-.39-1.86-1.06-2.59-1.92-.74-.86-1.29-1.93-1.64-3.08l-.03-.11c-.25-.82,.22-1.69,1.04-1.94,.82-.25,1.69,.22,1.94,1.04,.07,.25,.08,.5,.04,.74-.16,.83-.17,1.71,.04,2.61,.21,.89,.63,1.8,1.29,2.55h0s.02,.08,0,.11c-.02,.02-.05,.02-.07,.01Z"/><path class="g" d="M107.12,99.57c-1.31,.34-2.72,.43-4.17,.17-.72-.14-1.45-.4-2.15-.79-.7-.39-1.32-.96-1.86-1.62-.5-.6-.42-1.5,.18-2,.6-.5,1.5-.42,2,.18,.1,.12,.18,.26,.24,.41,.17,.46,.39,.94,.75,1.34,.36,.41,.8,.79,1.33,1.09,1.05,.6,2.34,.97,3.66,1.08h0s.06,.04,.06,.07c0,.03-.02,.05-.05,.06Z"/><path class="g" d="M104.97,110.04c-.41,.81-.63,1.68-.67,2.51-.06,.83,.11,1.6,.4,2.25,.33,.74,0,1.6-.74,1.93s-1.6,0-1.93-.74c-.1-.23-.14-.48-.12-.72v-.14c.12-1.13,.46-2.18,1-3.04,.53-.87,1.2-1.59,1.97-2.13,.03-.02,.07-.01,.09,.02,.01,.02,.02,.05,0,.07h0Z"/><path class="g" d="M113.34,110.05c-1.02,.92-1.76,2.15-1.87,3.32-.06,.58,.02,1.14,.25,1.64,.19,.51,.55,.96,.91,1.39l.02,.03c.5,.6,.42,1.5-.19,2-.6,.5-1.5,.42-2-.19-.1-.12-.17-.25-.23-.38-.31-.78-.57-1.58-.61-2.44-.07-.85,.09-1.72,.44-2.46,.34-.74,.83-1.36,1.39-1.85,.56-.49,1.17-.88,1.82-1.16,.03-.01,.07,0,.09,.03,.01,.03,0,.06-.02,.08h0Z"/><path class="g" d="M103.49,103.74c-.97,.42-1.84,1.02-2.53,1.72-.35,.34-.63,.73-.86,1.11-.24,.38-.38,.8-.5,1.19-.23,.76-1.03,1.18-1.79,.95-.76-.23-1.18-1.03-.95-1.79,.06-.2,.16-.37,.29-.52l.02-.03c.44-.5,.89-.96,1.42-1.3,.51-.36,1.05-.64,1.59-.85,1.09-.43,2.2-.62,3.29-.61,.04,0,.07,.03,.07,.07,0,.03-.02,.05-.04,.06h0Z"/><path class="g" d="M115.36,111.86c1.33-.28,2.7-.37,4.08-.3,1.38,.07,2.78,.32,4.14,.77,.69,.2,1.34,.52,2.02,.83,.63,.37,1.3,.71,1.88,1.18,.76,.52,1.44,1.15,2.07,1.83,.2,.22,1.71,3.48,.84,4.18-.87,.7-2.14,.56-2.84-.31-.1-.12-.18-.25-.25-.39l-.05-.1c-.49-1.03-1.03-2.09-1.82-2.97-.35-.48-.81-.86-1.24-1.29-.48-.36-.95-.77-1.48-1.08-1.05-.66-2.22-1.19-3.46-1.55-1.24-.36-2.55-.59-3.87-.62h0c-.05,0-.09-.04-.09-.1,0-.04,.03-.08,.07-.09Z"/><path class="g" d="M107.75,107.6c3.51-2.51,8.34-3.13,12.63-1.73,2.12,.75,4.11,1.9,5.82,3.37,.88,.7,1.59,1.56,2.39,2.36,.69,.87,1.36,1.75,2.04,2.64,.51,.66,.38,1.6-.27,2.11-.66,.51-1.6,.38-2.11-.27-.02-.03-.04-.06-.06-.09l-.09-.13-1.65-2.52-.95-1.15c-.32-.38-.61-.8-.98-1.12l-1.07-1.03c-.34-.37-.78-.6-1.17-.91-.77-.64-1.67-1.05-2.55-1.51-1.81-.81-3.82-1.18-5.85-1.12-2.03,.04-4.09,.5-6.05,1.26h0s-.08,0-.09-.04c-.01-.03,0-.06,.02-.08Z"/><path class="g" d="M110.13,99.47c2.02-.3,4.09-.13,6.1,.28,2.01,.41,3.99,1.1,5.86,2.03,1.88,.92,3.64,2.12,5.18,3.58,1.61,1.4,2.86,3.14,4.04,4.91,.46,.69,.28,1.62-.41,2.08s-1.62,.28-2.08-.41c-.02-.03-.04-.06-.06-.1l-.05-.1c-.92-1.63-1.91-3.25-3.21-4.62-.6-.74-1.33-1.34-2.02-1.99-.75-.57-1.49-1.2-2.31-1.69-1.61-1.04-3.38-1.89-5.24-2.49-1.86-.61-3.79-1.04-5.78-1.34h0s-.07-.04-.06-.08c0-.03,.03-.06,.06-.06Z"/><path class="g" d="M112.2,92.3c1.49,1.37,3.12,2.4,4.95,3,1.81,.62,3.87,1,5.79,1.95,1.94,.91,3.62,2.31,5.07,3.81,1.49,1.49,2.69,3.18,3.89,4.87,.48,.68,.32,1.61-.35,2.09-.68,.48-1.61,.32-2.09-.35-.02-.02-.03-.05-.05-.07l-.05-.08c-.51-.82-.99-1.67-1.52-2.47-.56-.77-1.08-1.6-1.69-2.31-1.18-1.49-2.53-2.82-4.11-3.81-1.58-1.02-3.45-1.59-5.34-2.47-.95-.41-1.83-1.04-2.63-1.69-.38-.35-.73-.75-1.08-1.12-.3-.42-.6-.83-.88-1.25-.02-.03-.01-.08,.02-.1,.03-.02,.07-.01,.09,0Z"/><path class="g" d="M26.93,25.4c1.07,1.25,1.92,2.67,2.59,4.19,.67,1.52,1.09,3.14,1.34,4.79,.22,1.65,.24,3.33-.01,4.98-.23,1.64-.74,3.26-1.57,4.68,.24-1.62,.39-3.2,.4-4.77,0-1.57-.08-3.13-.31-4.68-.2-1.55-.53-3.08-.95-4.6-.43-1.52-.96-3.02-1.49-4.58Z"/><path class="g" d="M105.12,56.99c-1.31,1.18-2.9,2.1-4.68,2.58-1.77,.49-3.69,.46-5.48,0-1.79-.49-3.43-1.38-4.82-2.54-1.39-1.14-2.57-2.52-3.44-4.06,1.35,1.14,2.7,2.21,4.13,3.11,1.43,.89,2.93,1.63,4.52,2.04,1.57,.44,3.22,.53,4.86,.32,1.65-.22,3.26-.77,4.91-1.43Z"/><path class="g" d="M101.91,61.17c-.98,.91-2.2,1.58-3.53,1.94-1.33,.37-2.78,.38-4.15,.07-1.36-.33-2.65-.96-3.71-1.83-1.07-.86-1.94-1.92-2.53-3.12,1.07,.8,2.1,1.55,3.19,2.15,1.09,.6,2.21,1.07,3.38,1.33,1.17,.29,2.38,.35,3.6,.24,1.23-.11,2.46-.41,3.74-.79Z"/><path class="g" d="M76.83,27.66c-1.31-4.42-1.66-9.01-1.46-13.47,0-.04,.03-.07,.07-.07,.04,0,.06,.03,.07,.06,.42,4.45,1.39,8.82,3.2,12.79,.23,.5,0,1.1-.5,1.33s-1.1,0-1.33-.5c-.02-.04-.03-.08-.05-.13v-.02Z"/><path class="g" d="M91.57,28.08c.12-.82,.3-1.52,.51-2.26,.21-.73,.45-1.44,.73-2.13,.55-1.39,1.24-2.71,2.05-3.94,.02-.03,.07-.04,.1-.02,.03,.02,.04,.06,.03,.09-.53,1.36-.91,2.75-1.14,4.16-.12,.7-.2,1.41-.25,2.11-.05,.69-.07,1.43-.03,2.06h0c.04,.57-.38,1.05-.94,1.08s-1.03-.38-1.07-.94c0-.07,0-.15,0-.22Z"/><path class="g" d="M98.66,26.13c-.1,.18-.22,.56-.29,.87-.08,.33-.12,.67-.15,1.01-.05,.69,.02,1.39,.23,2.07,.21,.67,.52,1.36,.99,1.95,.44,.62,1.03,1.14,1.65,1.63h0s.05,.1,.02,.14c-.03,.04-.08,.05-.12,.03-.74-.32-1.49-.68-2.16-1.21-.69-.5-1.27-1.17-1.75-1.91-.48-.75-.82-1.61-1.01-2.51-.09-.45-.16-.91-.18-1.37-.02-.48-.03-.89,.07-1.49l.02-.15c.13-.78,.86-1.31,1.64-1.19,.78,.13,1.31,.86,1.19,1.64-.03,.17-.09,.33-.16,.47Z"/><path class="g" d="M110.4,50.89c-1,1.21-2.22,2.23-3.55,3.1-1.34,.86-2.82,1.54-4.42,1.97-1.59,.46-3.32,.52-5.02,.26-1.73-.2-3.3-.99-4.8-1.82-.73-.4-.99-1.32-.59-2.05,.4-.73,1.32-.99,2.05-.59,.05,.03,.1,.06,.14,.09l.13,.09c1.1,.79,2.27,1.57,3.6,1.92,1.31,.39,2.73,.57,4.16,.37,1.43-.17,2.86-.6,4.23-1.2,1.37-.6,2.71-1.36,3.97-2.25,.03-.02,.08-.02,.1,.01,.02,.03,.02,.06,0,.09Z"/><path class="g" d="M86.45,99.01c-.27-2.73,.47-5.48,1.54-8,1.1-2.53,2.68-4.82,4.42-6.94,1.73-2.15,3.78-3.98,5.87-5.74,1.08-.84,2.17-1.66,3.28-2.44,1.15-.72,2.3-1.46,3.46-2.15,.71-.42,1.63-.19,2.05,.52,.41,.68,.21,1.56-.44,2.01l-.08,.05c-1.08,.73-2.18,1.42-3.27,2.12l-3.15,2.26c-.98,.83-2.04,1.58-2.97,2.47l-1.44,1.29c-.47,.44-.9,.92-1.35,1.37-1.78,1.85-3.38,3.87-4.73,6.06-.65,1.11-1.29,2.23-1.8,3.42-.53,1.18-1,2.41-1.26,3.72h0s-.05,.07-.08,.06c-.03,0-.05-.03-.06-.06Z"/><path class="g" d="M119.52,72.19c-1.06,2.14-1.62,4.49-1.77,6.79-.07,1.15-.05,2.3,.11,3.43,.12,1.13,.42,2.22,.74,3.28l.02,.06c.23,.77-.21,1.59-.98,1.82-.77,.23-1.59-.21-1.82-.98-.03-.09-.04-.18-.05-.27-.13-1.29-.22-2.58-.12-3.85,.07-1.27,.29-2.52,.6-3.73,.31-1.21,.74-2.38,1.27-3.49,.53-1.11,1.14-2.17,1.89-3.13,.02-.03,.07-.04,.1-.01,.03,.02,.03,.06,.02,.09h0Z"/><path class="g" d="M90.25,52.3c-.24,0-.48-.08-.67-.26-3.81-3.44-8.49-3.89-12.84-1.25-.47,.29-1.09,.14-1.37-.33-.29-.47-.14-1.09,.33-1.37,5.16-3.14,10.7-2.6,15.22,1.47,.41,.37,.44,1,.07,1.41-.2,.22-.47,.33-.74,.33Z"/><path class="g" d="M76.49,55.39c-1.4,1.41-2.44,3.12-3.23,4.87-.38,.89-.72,1.79-.95,2.71-.26,.91-.41,1.85-.53,2.78v.03c-.11,.77-.82,1.31-1.59,1.21-.77-.1-1.31-.81-1.21-1.59,.01-.1,.04-.21,.08-.3,.37-1,.77-1.99,1.27-2.92,.48-.94,1.06-1.82,1.66-2.67,1.25-1.66,2.7-3.15,4.42-4.24,.03-.02,.07-.01,.09,.02,.02,.03,.01,.06,0,.08h0Z"/><path class="g" d="M87.16,63.21c-2.56,1.1-4.77,2.85-6.78,4.72-2.01,1.89-3.76,4.02-5.61,6.12-1.83,2.11-3.73,4.2-5.82,6.2-1.06,.98-2.17,1.91-3.34,2.79-1.18,.86-2.41,1.64-3.68,2.34-.68,.37-1.53,.12-1.9-.56-.36-.66-.14-1.48,.5-1.87h.01c2.3-1.41,4.48-2.98,6.5-4.8,2.07-1.77,3.96-3.8,6-5.74,2.01-1.95,4.16-3.86,6.5-5.51,2.35-1.61,4.82-3.12,7.59-3.82,.04,0,.07,.01,.08,.05,0,.03,0,.06-.04,.08h0Z"/><path class="g" d="M79.85,57.8c-1.69,1.48-3.08,3.24-4.23,5.11-.57,.94-1.08,1.9-1.51,2.89-.45,.98-.78,2.01-1.08,3.02v.04c-.24,.75-1.02,1.17-1.77,.94-.75-.22-1.17-1.01-.94-1.75,.03-.09,.06-.18,.1-.25,.56-1.06,1.14-2.09,1.83-3.05,.66-.97,1.41-1.87,2.2-2.73,1.58-1.7,3.35-3.19,5.32-4.33,.03-.02,.07,0,.09,.02,.02,.03,0,.06-.01,.08h0Z"/><path class="g" d="M83.39,60.32c-1.51,.98-2.83,2.19-4.05,3.49-1.22,1.29-2.31,2.69-3.3,4.15-.99,1.45-1.84,3.04-2.64,4.55l-1.2,2.43c-.45,.84-.87,1.67-1.66,2.57-.51,.58-1.4,.64-1.98,.12s-.64-1.4-.12-1.98c.02-.03,.05-.05,.07-.07h.02c.44-.44,.93-1.2,1.36-1.93l1.34-2.36c1.05-1.59,2.15-3.05,3.38-4.45,1.23-1.39,2.55-2.69,3.99-3.86,1.45-1.13,3.01-2.17,4.75-2.79,.03-.01,.07,0,.08,.04,.01,.03,0,.06-.03,.08h0Z"/><path class="g" d="M56.84,93.63c-1.9-2.1-2.65-3.8-2.35-5.38,.4-2.13,2.58-3.2,4.68-4.24,.44-.22,.88-.43,1.31-.66l1.17,2.21c-.46,.24-.92,.47-1.38,.7-1.55,.77-3.16,1.56-3.33,2.46-.13,.7,.49,1.85,1.75,3.23l-1.85,1.68Z"/><path class="g" d="M74.36,78.96c-.41,.51-.62,1.05-.63,1.61-.05,.57,.11,1.19-.03,1.97-.06,.39-.24,.81-.51,1.15-.27,.34-.6,.6-.93,.8-.33,.2-.67,.34-1,.47-.38,.13-.75,.2-1.06,.26-.31,.06-.57,.12-.68,.2-.11,.08-.1,.09-.15,.21-.1,.25-.1,.84-.03,1.39,.14,1.14,.43,2.36,.76,3.56h0c.18,.68-.21,1.37-.88,1.55-.67,.18-1.35-.21-1.54-.88,0-.03-.02-.07-.02-.1-.24-1.29-.49-2.58-.52-4,.02-.72-.02-1.45,.42-2.38,.21-.46,.71-.93,1.2-1.09,.48-.18,.86-.2,1.19-.23,.33-.02,.59-.04,.83-.09,.27-.06,.54-.13,.78-.22,.49-.2,.79-.43,.95-.89,.16-.47,.19-1.15,.39-1.84,.21-.7,.74-1.31,1.36-1.56,.04-.02,.08,0,.1,.04,.01,.03,0,.06-.01,.08Z"/><path class="g" d="M69.33,101.45c.13,1.29-.08,2.64-.55,3.78-.46,1.15-1.08,2.13-1.63,2.99-.27,.43-.51,.84-.65,1.17-.14,.35-.15,.52-.1,.72-.04,.06,.3,.41,.68,.68,.38,.29,.82,.58,1.26,.88,.88,.6,1.81,1.21,2.66,2.05,.42,.43,.82,.92,1.1,1.55,.28,.63,.36,1.45,.11,2.11-.05,.17-.13,.32-.2,.47l-.15,.31c-.09,.19-.16,.38-.18,.57-.06,.37,.02,.74,.24,1.18,.21,.43,.52,.9,.72,1.45,.22,.54,.27,1.17,.1,1.7-.01,.04-.05,.06-.09,.05-.03,0-.05-.03-.05-.06-.15-1.09-.89-1.66-1.59-2.58-.35-.45-.64-1.12-.62-1.82,0-.34,.07-.67,.17-.97l.15-.43c.02-.09,.07-.18,.07-.27,.07-.36,0-.66-.18-.98-.19-.32-.49-.64-.85-.93-.71-.6-1.6-1.11-2.51-1.64-.46-.26-.93-.53-1.41-.85-.24-.16-.49-.33-.75-.56-.13-.12-.26-.23-.4-.41-.13-.14-.3-.42-.37-.58-.39-.78-.34-1.75-.13-2.39,.19-.67,.46-1.2,.7-1.7,1.03-1.93,1.73-3.51,1.48-5.16-.12-.82,.44-1.58,1.26-1.71,.82-.12,1.58,.44,1.71,1.26,0,.02,0,.04,0,.06v.04Z"/><path class="g" d="M77.54,134.27c-1.33,.02-2.7-.05-4.09-.4-1.37-.35-2.75-1.02-3.85-1.97-1.1-.94-1.87-2.07-2.6-2.97-.72-.92-1.47-1.62-2.34-1.95-.86-.34-1.9-.23-3.12,.01-.61,.11-1.27,.26-2.04,.24-.76,0-1.67-.31-2.25-.87-.6-.52-.95-1.23-1.19-1.77-.22-.49-.52-.91-.93-1.22-.41-.32-.97-.55-1.54-.91-.57-.36-1.07-.9-1.29-1.51-.01-.04,0-.08,.04-.09,.03,0,.05,0,.07,.01,.47,.43,.96,.71,1.51,.87,.55,.17,1.19,.3,1.83,.66,.63,.36,1.16,.92,1.53,1.51,.34,.54,.63,.94,1,1.2,.36,.26,.72,.34,1.19,.3,.47-.03,1.03-.17,1.63-.33,1.17-.32,2.69-.68,4.23-.22,1.52,.44,2.67,1.49,3.54,2.45,.88,.98,1.61,1.85,2.44,2.49,1.61,1.28,3.8,1.58,6.1,1.49h.02c.83-.03,1.53,.61,1.56,1.44,.03,.83-.61,1.53-1.44,1.56h-.04Z"/><path class="g" d="M69.57,113.46c-.02,.34-.07,.48-.12,.69-.06,.19-.13,.38-.21,.55-.16,.35-.36,.66-.58,.95-.42,.57-1.06,1.03-1.38,1.3-.36,.34-.64,.75-.76,1.26-.12,.51-.05,1.1,.16,1.64h0s0,.09-.04,.1c-.03,.01-.06,0-.08-.02-.43-.46-.72-1.06-.8-1.75-.09-.69,.11-1.42,.48-2.03,.43-.66,.73-.98,.92-1.44,.09-.22,.16-.44,.2-.66,.02-.11,.03-.21,.03-.31,0-.08,0-.24-.02-.2-.02-.61,.45-1.12,1.06-1.14s1.12,.45,1.14,1.06Z"/><path class="g" d="M59.21,92.91c.38,.74,.69,1.57,.81,2.47,.13,.89,.03,1.84-.24,2.64-.26,.82-.66,1.5-.99,2.1-.34,.6-.56,1.1-.53,1.31,0,.12,.08,.3,.26,.5,.08,.1,.19,.19,.3,.28,.11,.09,.23,.18,.42,.31,.66,.48,1.22,1.14,1.54,1.9,.63,1.53,.35,3.15-.37,4.41-.02,.03-.06,.05-.1,.03-.03-.01-.04-.04-.04-.07h0c.14-1.4,.04-2.8-.57-3.84-.3-.51-.74-.91-1.26-1.19-.55-.3-1.51-.69-1.93-1.82-.2-.56-.15-1.13-.05-1.57,.1-.45,.24-.81,.37-1.16,.26-.68,.47-1.27,.56-1.82,.17-1.09-.1-2.02-.75-2.99-.46-.69-.28-1.62,.4-2.09,.69-.46,1.62-.28,2.09,.4,.03,.05,.06,.1,.09,.15l.02,.03Z"/><path class="g" d="M37.42,105.15c.76,1.35,1.81,2.27,3.22,2.74,1.43,.49,3.17,.43,5.13,.74,.97,.16,2.1,.49,3,1.27,.44,.35,.82,.91,1.04,1.27,.21,.36,.44,.7,.69,1.03,.49,.65,1.03,1.23,1.69,1.66,.66,.38,1.42,.64,2.34,.57h.01s.07,.03,.08,.07c0,.02,0,.04-.02,.06-.74,.71-1.92,.78-2.9,.46-1-.31-1.85-.93-2.54-1.63-.36-.35-.66-.73-.96-1.11-.17-.22-.25-.31-.36-.44-.11-.12-.23-.22-.36-.31-.51-.36-1.19-.53-1.99-.59-1.6-.13-3.53,.1-5.58-.42-1.02-.26-2.06-.72-2.91-1.42-.87-.68-1.57-1.51-2.12-2.39h0c-.44-.71-.23-1.64,.47-2.08,.7-.44,1.63-.23,2.07,.47,.01,.02,.02,.04,.04,.06Z"/><path class="g" d="M39.65,113.92c1.27,.34,2.68,.5,4.19,1.35,.74,.42,1.49,1.18,1.79,2.07,.3,.88,.25,1.7,.14,2.44-.05,.35-.17,.77-.21,1.03-.05,.28-.08,.56-.06,.84,.02,.56,.2,1.11,.5,1.63,.6,1.04,1.61,1.91,2.72,2.66h0s.04,.07,.02,.1c-.02,.02-.05,.04-.07,.03-1.35-.29-2.65-.99-3.59-2.16-.46-.59-.8-1.32-.93-2.09-.07-.39-.09-.78-.06-1.17,.03-.41,.03-.65,.02-.97-.03-.59-.15-1.15-.38-1.51-.22-.37-.52-.57-.98-.74-.92-.32-2.24-.4-3.6-.54h-.04c-.83-.09-1.43-.83-1.34-1.66,.09-.83,.83-1.43,1.65-1.34,.08,0,.16,.02,.23,.04Z"/><path class="g" d="M99.23,170.3c-.51,1.7-1.49,3.32-2.73,4.53-1.21,1.22-2.59,2.11-3.37,3.09-.38,.49-.58,1.03-.61,1.68-.03,.56,.19,1.58-.02,2.47-.18,.9-.65,1.74-1.29,2.32-.64,.58-1.39,1-2.2,1.17-.04,0-.07-.02-.08-.05,0-.03,0-.05,.02-.07h0c1.25-.97,2.14-2.24,2.2-3.56,.07-.68-.17-1.22-.29-2.22-.09-.92,.13-1.97,.62-2.8,.48-.83,1.09-1.45,1.65-2.03,.56-.57,1.09-1.1,1.54-1.66,.91-1.1,1.52-2.29,1.85-3.63,.19-.75,.95-1.2,1.7-1.02s1.2,.95,1.02,1.7c0,.02,0,.04-.01,.05v.02Z"/><path class="g" d="M93.34,156.15c.39,.71,.74,1.46,.99,2.33,.25,.85,.38,1.91,.07,2.93-.3,1.02-.87,1.69-1.14,2.19-.29,.5-.42,.92-.38,1.52,.03,.6,.21,1.21,.48,1.92,.31,.8,.43,1.77,.17,2.64-.25,.87-.8,1.57-1.43,2.07-.63,.5-1.34,.85-2.09,1.04-.04,0-.08-.01-.09-.05,0-.03,0-.06,.02-.07h0c1.14-.93,2.12-2.1,2.26-3.28,.06-.58-.06-1.15-.35-1.7-.34-.63-.75-1.4-.94-2.27-.22-.86-.14-1.98,.24-2.81,.36-.83,.69-1.39,.72-1.83,.13-.81-.42-2-1.14-3.14-.44-.7-.23-1.63,.47-2.07,.7-.44,1.63-.23,2.07,.47,.02,.03,.03,.05,.05,.08h0Z"/><path class="g" d="M107.85,126.63c.52,.66,1.09,1.24,1.7,1.63,.61,.38,1.25,.58,1.93,.58,1.4-.02,2.94-1.03,4.24-2.25,.33-.31,.64-.64,.94-.98,.31-.35,.56-.67,.92-1.12,.69-.82,1.59-1.56,2.68-1.92,1.08-.38,2.26-.31,3.25,.05,1,.36,1.85,.97,2.5,1.73,.03,.03,.02,.08,0,.1-.02,.02-.05,.02-.07,.01h0c-1.77-.76-3.66-1.17-5.12-.5-.73,.32-1.34,.9-1.83,1.6-.22,.32-.51,.81-.79,1.22-.29,.42-.6,.83-.92,1.23-.66,.79-1.4,1.56-2.31,2.18-.9,.62-1.98,1.15-3.23,1.3-1.24,.16-2.57-.15-3.61-.75-1.05-.59-1.89-1.39-2.58-2.22-.53-.64-.44-1.58,.2-2.11,.64-.53,1.58-.44,2.11,.2v.02h.03Z"/><path class="g" d="M109.41,137.94c1.24,.05,2.53,.06,3.88,.77,.32,.22,.65,.42,.93,.67,.25,.29,.55,.55,.71,.87,.19,.31,.35,.62,.44,.93,.13,.31,.19,.59,.27,.88,.28,1.14,.47,2.02,1.08,2.69,.6,.69,1.63,1.06,2.7,1.38h0s.06,.05,.05,.09c0,.03-.03,.05-.06,.05-1.1,.16-2.36,.18-3.49-.55-1.14-.74-1.67-2.08-2.11-2.99-.48-.98-.93-1.52-1.59-1.71-.69-.22-1.68-.15-2.62-.07h-.13c-.83,.08-1.55-.54-1.62-1.37-.07-.83,.55-1.55,1.38-1.62,.06,0,.13,0,.18,0Z"/><path class="g" d="M110.34,147.21c-.5,.47-1.02,.96-1.33,1.46-.32,.5-.43,.98-.42,1.78,.06,.79-.12,1.94-.7,2.62-.55,.71-1.25,1.15-1.94,1.57-.03,.02-.06,0-.08-.02-.01-.02,0-.05,0-.07,.46-.65,.94-1.29,1.18-1.96,.27-.68,.14-1.21-.04-1.96-.09-.39-.19-.84-.2-1.35,0-.25,.03-.51,.06-.77,.06-.24,.13-.49,.21-.73,.34-.95,.91-1.64,1.46-2.33,.43-.54,1.22-.64,1.76-.21,.54,.43,.64,1.22,.21,1.76-.04,.05-.08,.09-.12,.13l-.06,.06Z"/><path class="g" d="M66.89,97.34c.12,.29,.36,.76,.6,1.12,.25,.39,.52,.76,.83,1.11,.6,.71,1.31,1.3,2.08,1.8,.88,.56,1.81,1.2,2.69,1.91,.88,.72,1.79,1.57,2.41,2.69,.65,1.16,.83,2.26,1.19,3.1,.34,.85,.85,1.47,1.64,1.94l.63,.35c.25,.13,.5,.28,.74,.44,.48,.32,.95,.68,1.34,1.12,.8,.87,1.23,1.99,1.39,3.04,0,.04-.02,.08-.06,.08-.03,0-.06,0-.07-.03-.56-.92-1.18-1.74-2-2.26-.4-.26-.82-.49-1.28-.67-.23-.09-.46-.17-.69-.24-.23-.07-.54-.2-.81-.32-1.11-.5-2.11-1.5-2.65-2.6-.56-1.08-.84-2.09-1.32-2.74-1.01-1.38-2.81-2.36-4.64-3.4-1.03-.62-1.97-1.39-2.77-2.28-.41-.44-.78-.91-1.11-1.41-.34-.52-.63-.98-.93-1.66-.33-.76,.02-1.64,.77-1.98,.76-.33,1.64,.02,1.98,.77l.02,.04,.03,.07Z"/><path class="g" d="M74.05,104.86c.92-.16,1.7-.16,2.54-.12,.83,.06,1.66,.2,2.47,.47,.4,.13,.8,.29,1.18,.48,.37,.16,.82,.46,1.14,.74,.67,.59,1.13,1.19,1.61,1.67,.48,.49,.99,.84,1.59,1.05,.33,.11,.57,.15,1.01,.23,.42,.06,.86,.2,1.27,.41,.42,.23,.77,.6,.99,.97,.23,.38,.37,.74,.52,1.07,.26,.67,.67,1.22,1.29,1.68,.03,.02,.04,.07,.02,.1-.02,.03-.05,.03-.08,.03-.37-.11-.75-.27-1.08-.52-.33-.25-.61-.57-.84-.89-.44-.68-.8-1.21-1.33-1.4-.28-.09-.57-.17-.91-.18-.31-.02-.82-.05-1.23-.14-.86-.19-1.68-.64-2.32-1.17-.66-.52-1.16-1.1-1.67-1.46-.45-.34-1.09-.56-1.73-.74-1.26-.34-2.75-.38-3.97-.13h-.06c-.6,.13-1.18-.25-1.3-.85-.12-.6,.27-1.18,.86-1.3h.03Z"/><path class="g" d="M80.92,107.12c.5-.52,.98-.87,1.55-1.21,.56-.31,1.21-.58,1.93-.56,.71,0,1.28,.27,1.79,.45,.5,.2,1.01,.27,1.55,.1,.03-.01,.07,0,.08,.04,0,.03,0,.06-.02,.07-.47,.34-1.14,.46-1.73,.41-.59-.04-1.12-.09-1.54,.06-.41,.13-.79,.4-1.14,.73-.34,.32-.68,.75-.87,1.11-.27,.49-.88,.67-1.37,.4s-.67-.88-.4-1.37c.04-.08,.09-.15,.15-.21h.01Z"/><path class="g" d="M75.82,93.3c-.57,.81-.94,1.65-1.18,2.5-.23,.86-.24,1.75-.11,2.61,.18,1.02,.18,2.23-.24,3.41-.21,.59-.54,1.17-.99,1.67-.22,.25-.47,.48-.75,.69-.14,.1-.28,.2-.44,.29-.17,.09-.28,.16-.58,.27-.8,.23-1.63-.23-1.86-1.02-.23-.8,.23-1.63,1.02-1.86-.07,.03,.05,0,.09-.02,.06-.02,.13-.05,.19-.08,.13-.06,.27-.14,.39-.23,.25-.19,.47-.43,.67-.73,.39-.61,.59-1.39,.67-2.31,.06-1.08,.31-2.17,.8-3.13,.48-.95,1.24-1.8,2.23-2.17,.04-.01,.08,0,.09,.04,0,.02,0,.05,0,.07h0Z"/><path class="g" d="M72.94,99.33c.65-.5,1.42-.86,2.18-1.05,.76-.2,1.49-.22,2.15-.24,.65-.02,1.26-.02,1.69-.13,.22-.05,.39-.13,.56-.23,.19-.16,.37-.34,.52-.54,.6-.8,.75-2.17,1.2-3.44,.43-1.28,1.14-2.47,2.07-3.41,.03-.03,.07-.03,.1,0,.02,.02,.03,.05,.02,.08-.5,1.21-.93,2.38-1.13,3.61-.11,.61-.19,1.23-.28,1.9-.1,.66-.25,1.39-.63,2.09-.2,.35-.43,.66-.7,.95-.32,.32-.71,.58-1.1,.74-.79,.31-1.49,.37-2.13,.48-1.27,.18-2.22,.46-2.91,1.12-.5,.48-1.29,.47-1.77-.03-.48-.5-.47-1.29,.03-1.77,.03-.03,.07-.06,.1-.09l.04-.03Z"/><path class="g" d="M88.01,77.89c-.33,.5-.58,1.03-.66,1.58-.09,.54-.07,1.09-.1,1.75-.02,.65-.23,1.38-.57,1.99-.33,.63-.81,1.12-1.34,1.55-2.16,1.76-4.96,2.02-7.29,2.21-1.23,.12-2.31,.19-3.05,.55-.38,.18-.76,.46-1.09,.84-.17,.19-.33,.4-.48,.62-.19,.24-.39,.56-.62,.81-.91,1.1-2.22,1.75-2.97,2.34-.74,.62-1.06,1.29-1.31,2.44-.16,.61-.32,1.24-.64,1.96-.16,.35-.39,.75-.75,1.12-.35,.37-.8,.65-1.19,.83-.11,.04-.16,.08-.31,.13-.16,.05-.34,.09-.48,.11-.26,.03-.52,.05-.73,.04-.44-.01-.82-.08-1.19-.16-.72-.16-1.39-.39-2.01-.67-2.48-1.11-4.48-2.75-6.34-4.46l-1.27-1.25c-.17-.18-.35-.35-.54-.5-.18-.16-.37-.32-.57-.45-.78-.56-1.65-.96-2.6-1.23-1.91-.55-4.14-.46-6.59-.45v-4c2.31,.01,4.94-.14,7.66,.63,1.35,.38,2.68,1,3.84,1.84,.3,.2,.57,.43,.84,.66,.28,.23,.53,.47,.77,.72l.37,.38,.28,.33,.55,.64c1.49,1.67,3.17,3.22,5.01,4.19,.45,.25,.92,.44,1.35,.57,.21,.06,.43,.11,.58,.12h.17s-.03,.02-.04,.03c0,0,.08-.02,.11-.03,.17-.05,.24-.08,.32-.12,.08-.05,.19-.15,.3-.33,.23-.35,.45-.86,.63-1.39,.18-.54,.44-1.29,.84-1.91,.39-.64,.96-1.21,1.54-1.62,1.18-.82,2.08-1.21,2.74-1.96,.18-.18,.31-.37,.49-.59,.19-.27,.39-.54,.62-.8,.45-.52,.99-1.05,1.67-1.41,.67-.39,1.42-.56,2.09-.63,.67-.09,1.27-.07,1.86-.1,2.38-.05,4.64-.21,6.34-1.45,.81-.68,1.61-1.27,1.88-2.33,.17-.52,.26-1.18,.56-1.77,.29-.6,.73-1.07,1.2-1.45l.1,.1Z"/><path class="g" d="M89.23,69.42c-.55,.74-1.29,1.37-2.11,1.84-.82,.48-1.72,.79-2.56,1.1-.84,.31-1.62,.63-2.2,1.11-.59,.46-.98,1.1-1.23,1.86-.26,.76-.3,1.49-.22,2.34,.07,.84,.24,1.77,.26,2.76,.03,.99-.09,2.02-.34,2.98-.26,.98-.61,1.85-1.15,2.79-.31,.54-1,.73-1.55,.42s-.73-1-.42-1.55c0-.02,.02-.03,.03-.05l.03-.05c.39-.61,.75-1.43,1.01-2.18,.28-.77,.42-1.55,.44-2.37,.03-.82-.07-1.69-.11-2.66-.04-.96,.07-2.06,.47-3.01,.36-.94,.99-1.89,1.87-2.51,.88-.62,1.86-.87,2.74-1.08,1.78-.39,3.43-.78,4.94-1.86,.03-.02,.08-.02,.1,.02,.02,.03,.02,.06,0,.09Z"/><g><path class="h" d="M79.56,18.74s1.33,5.42,2.95,8.17"/><path class="g" d="M82.51,27.91c-.34,0-.68-.18-.86-.49-1.68-2.84-3-8.21-3.06-8.44-.13-.54,.2-1.08,.73-1.21,.53-.13,1.08,.2,1.21,.73,.01,.05,1.31,5.31,2.84,7.9,.28,.48,.12,1.09-.35,1.37-.16,.09-.33,.14-.51,.14Z"/></g><ellipse class="g" cx="143.33" cy="54.39" rx="1.28" ry="2.67" transform="translate(-9.95 51.79) rotate(-19.81)"/><path class="g" d="M140.1,54.51c.47,1.2,1.14,2.37,2.02,3.1,.44,.36,.91,.58,1.34,.64,.44,.05,.85-.09,1.25-.25,.73-.29,1.56,.07,1.85,.8,.29,.73-.07,1.56-.8,1.85-.15,.06-.31,.09-.46,.1h-.03c-.88,.03-1.79-.08-2.59-.51-.78-.43-1.33-1.07-1.71-1.71-.39-.65-.61-1.32-.76-1.99-.15-.67-.24-1.34-.25-2.01,0-.04,.03-.07,.07-.07,.03,0,.06,.02,.06,.05Z"/><path class="g" d="M137.74,55.74c.47,1.2,1.14,2.37,2.02,3.1,.44,.36,.91,.58,1.34,.64,.43,.05,.85-.09,1.25-.25,.73-.29,1.56,.07,1.84,.8,.29,.73-.07,1.56-.8,1.85-.15,.06-.31,.09-.46,.1h-.03c-.88,.03-1.79-.08-2.59-.51-.78-.43-1.33-1.07-1.71-1.71-.39-.65-.61-1.32-.76-1.99-.15-.67-.24-1.34-.25-2.01,0-.04,.03-.07,.07-.07,.03,0,.06,.02,.06,.05Z"/><path class="g" d="M135.45,57.01c.47,1.2,1.14,2.37,2.02,3.1,.44,.36,.91,.58,1.34,.64,.44,.05,.85-.09,1.25-.25,.73-.29,1.56,.07,1.84,.8,.29,.73-.07,1.56-.8,1.85-.15,.06-.31,.09-.46,.1h-.03c-.88,.03-1.79-.08-2.59-.51-.78-.43-1.33-1.07-1.71-1.71-.39-.65-.61-1.32-.76-1.99-.15-.67-.24-1.34-.25-2.01,0-.04,.03-.07,.07-.07,.03,0,.05,.02,.06,.05Z"/><path class="g" d="M133.15,58.66c.54,1.17,1.28,2.3,2.21,2.98,.46,.34,.94,.53,1.38,.56,.44,.03,.84-.14,1.24-.32,.71-.33,1.56-.02,1.89,.69,.33,.71,.02,1.56-.69,1.89-.15,.07-.3,.11-.46,.13h-.03c-.87,.09-1.8,.03-2.61-.35-.8-.39-1.39-.98-1.81-1.6-.42-.62-.69-1.29-.88-1.95-.19-.66-.32-1.32-.37-1.99,0-.04,.02-.07,.06-.07,.03,0,.06,.02,.07,.04Z"/><path class="g" d="M131.06,60.49c.57,1.16,1.36,2.25,2.3,2.9,.47,.32,.96,.5,1.39,.52,.44,.01,.84-.16,1.23-.36,.7-.35,1.56-.07,1.91,.63,.35,.7,.07,1.56-.63,1.91-.15,.07-.3,.12-.45,.14h-.02c-.87,.12-1.79,.09-2.62-.27-.81-.36-1.42-.94-1.86-1.55-.44-.61-.73-1.26-.94-1.92-.21-.65-.36-1.31-.43-1.98,0-.04,.02-.07,.06-.07,.03,0,.06,.02,.07,.04Z"/><path class="g" d="M129.21,63.16c.76,1.04,1.72,1.99,2.76,2.47,.52,.24,1.03,.33,1.46,.27,.43-.06,.8-.3,1.15-.56,.63-.47,1.52-.34,1.99,.29,.47,.63,.34,1.52-.29,1.99-.13,.1-.27,.17-.42,.22h-.02c-.84,.27-1.75,.4-2.63,.19-.86-.22-1.56-.68-2.1-1.21-.54-.53-.93-1.12-1.26-1.73-.32-.61-.58-1.23-.76-1.87-.01-.04,.01-.07,.05-.08,.03,0,.06,0,.07,.03Z"/><path class="g" d="M127.73,65.84c.88,.95,1.94,1.78,3.03,2.13,.54,.18,1.06,.21,1.48,.1,.42-.11,.76-.39,1.07-.69,.57-.54,1.47-.51,2.01,.06,.54,.57,.51,1.47-.06,2.01-.12,.11-.25,.2-.39,.26h-.02c-.8,.37-1.7,.6-2.59,.49-.88-.11-1.63-.5-2.22-.95-.6-.46-1.06-1-1.45-1.57-.39-.57-.72-1.15-.97-1.77-.01-.03,0-.07,.04-.09,.03-.01,.06,0,.08,.02Z"/><path class="g" d="M126.24,68.68c1.06,.83,2.27,1.53,3.46,1.77,.59,.12,1.15,.11,1.61-.04,.45-.17,.78-.46,1.08-.8,.52-.59,1.42-.65,2.01-.13,.59,.52,.65,1.42,.13,2.01-.1,.12-.22,.22-.35,.29l-.04,.02c-.8,.46-1.71,.75-2.62,.73-.9-.04-1.69-.34-2.35-.73-.67-.39-1.22-.87-1.71-1.39-.49-.52-.92-1.07-1.29-1.65-.02-.03-.01-.07,.02-.09,.02-.02,.06-.01,.08,0Z"/><path class="g" d="M124.9,71.25c1.22,.77,2.57,1.38,3.89,1.58,.65,.09,1.29,.1,1.81-.07,.52-.17,.91-.47,1.22-.83,.52-.59,1.42-.65,2.01-.13,.59,.52,.65,1.42,.13,2.01-.1,.11-.21,.2-.33,.28l-.06,.04c-.85,.51-1.84,.78-2.77,.76-.93-.03-1.74-.32-2.47-.66-.72-.35-1.36-.8-1.94-1.29-.58-.49-1.11-1.01-1.58-1.59-.02-.03-.02-.07,0-.09,.02-.02,.06-.02,.08,0Z"/><path class="g" d="M123.9,73.84c1.3,.73,2.71,1.28,4.08,1.46,.68,.08,1.35,.08,1.92-.07,.57-.16,1.02-.45,1.38-.8,.56-.55,1.46-.53,2.01,.03,.55,.56,.53,1.46-.03,2.01-.11,.1-.22,.19-.35,.25l-.06,.03c-.9,.45-1.89,.65-2.81,.61-.92-.05-1.74-.32-2.49-.65-.75-.33-1.42-.76-2.04-1.23-.62-.47-1.19-.97-1.71-1.53-.03-.03-.02-.07,0-.09,.02-.02,.06-.02,.08,0Z"/><path class="g" d="M123.06,76.85c1.42,.62,2.93,1.07,4.39,1.18,.72,.05,1.44,.04,2.05-.14,.61-.17,1.11-.46,1.46-.83,.55-.56,1.45-.58,2.01-.03,.56,.55,.58,1.45,.03,2.01-.1,.11-.22,.19-.34,.26l-.08,.05c-.94,.51-1.96,.7-2.89,.67-.94-.02-1.78-.27-2.57-.56-1.57-.6-2.91-1.49-4.12-2.5-.03-.02-.03-.07,0-.09,.02-.02,.06-.03,.08-.02Z"/><path class="g" d="M122.78,80.17c1.49,.43,3.03,.68,4.51,.66,.73-.02,1.45-.08,2.09-.28,.63-.19,1.17-.49,1.56-.85,.57-.54,1.47-.51,2.01,.07,.54,.57,.51,1.47-.07,2.01-.11,.1-.23,.18-.35,.24l-.08,.04c-.94,.45-1.91,.61-2.81,.61-.91,0-1.74-.17-2.54-.38-1.59-.45-3.03-1.15-4.36-2-.03-.02-.04-.06-.02-.09,.02-.03,.05-.04,.08-.03Z"/><path class="g" d="M123.1,83.36c1.41,.36,2.86,.51,4.23,.41,.68-.06,1.34-.18,1.92-.39,.58-.22,1.07-.53,1.45-.89,.58-.53,1.48-.5,2.01,.07,.53,.58,.5,1.48-.07,2.01-.11,.1-.24,.19-.37,.25l-.06,.03c-.86,.4-1.75,.59-2.59,.63-.85,.03-1.65-.08-2.41-.25-1.52-.37-2.9-.98-4.16-1.75-.03-.02-.04-.06-.02-.09,.02-.03,.05-.04,.08-.03Z"/><path class="g" d="M124.59,86.47c1.14,.21,2.31,.22,3.38,.03,.54-.08,1.04-.25,1.5-.44,.46-.19,.86-.47,1.21-.75,.62-.49,1.52-.39,2.01,.23s.39,1.52-.23,2.01c-.14,.11-.29,.19-.45,.24l-.06,.02c-1.39,.44-2.79,.43-4.03,.17-1.24-.27-2.38-.74-3.39-1.37-.03-.02-.04-.07-.02-.1,.02-.03,.05-.04,.07-.03h0Z"/><path class="g" d="M126.42,89.1c.81,0,1.62-.08,2.36-.25,.73-.17,1.41-.49,1.74-.87,.55-.64,1.52-.71,2.16-.15,.64,.55,.71,1.52,.15,2.16-.23,.27-.54,.44-.86,.5l-.35,.07c-1.14,.22-2.09,.02-2.93-.24-.84-.28-1.61-.64-2.32-1.08-.03-.02-.05-.07-.02-.1,.01-.02,.04-.03,.07-.03Z"/><path class="g" d="M125.29,62.57c-1.27,.58-2.56,1.12-4.05,1.46h-.05c-.71,.17-1.41-.27-1.57-.97-.16-.71,.28-1.41,.99-1.57,.26-.06,.52-.04,.76,.05,1.17,.44,2.55,.71,3.91,.91,.04,0,.06,.04,.06,.07,0,.02-.02,.04-.04,.05Z"/><path class="g" d="M127.73,60.03c-1.27,.58-2.56,1.12-4.05,1.46h-.05c-.71,.17-1.41-.27-1.57-.97-.16-.71,.28-1.41,.99-1.57,.26-.06,.52-.04,.76,.05,1.17,.44,2.55,.71,3.91,.91,.04,0,.06,.04,.06,.07,0,.02-.02,.04-.04,.05Z"/><path class="g" d="M129.82,57.41c-1.27,.58-2.56,1.12-4.05,1.46h-.05c-.71,.17-1.41-.27-1.57-.97-.16-.71,.28-1.41,.99-1.57,.26-.06,.52-.04,.76,.05,1.17,.44,2.55,.71,3.91,.91,.04,0,.06,.04,.06,.07,0,.02-.02,.04-.04,.05Z"/><path class="g" d="M131.6,54.69c-1.27,.58-2.56,1.12-4.05,1.46h-.05c-.71,.17-1.41-.27-1.57-.97-.16-.71,.28-1.41,.99-1.57,.26-.06,.52-.04,.76,.05,1.17,.44,2.55,.71,3.91,.91,.04,0,.06,.04,.06,.07,0,.02-.02,.04-.04,.05Z"/><path class="g" d="M123.34,64.97l-4.21,1.67c-.67,.26-1.42-.06-1.68-.73-.26-.67,.06-1.42,.73-1.68,.22-.09,.46-.11,.67-.08l4.47,.69s.06,.04,.05,.07c0,.02-.02,.04-.04,.05Z"/><path class="g" d="M120.45,67.43l-4.34,2.02c-.65,.3-1.41,.02-1.71-.63s-.02-1.41,.63-1.71c.2-.09,.42-.13,.63-.12l4.78,.32s.06,.03,.06,.07c0,.02-.02,.05-.04,.05Z"/><path class="g" d="M117.31,70.04l-4.34,2.02c-.65,.3-1.41,.02-1.71-.63s-.02-1.41,.63-1.71c.2-.09,.42-.13,.63-.12l4.78,.32s.06,.03,.06,.07c0,.02-.02,.05-.04,.05Z"/><path class="g" d="M128.02,91.33c.46-.1,.92-.22,1.33-.38,.41-.16,.82-.36,.96-.61,.55-.95,1.77-1.28,2.73-.73,.12,.07,.23,.15,.33,.24,.69,.62,.17,2.82,.03,2.95-.47,.43-1.12,.62-1.74,.5l-.95-.19c-.7-.14-1.15-.43-1.58-.71-.42-.29-.8-.6-1.15-.94-.03-.03-.03-.08,0-.11,.01-.01,.03-.02,.04-.02Z"/><path class="g" d="M128.86,93.51l1.56-.93c.98-.58,2.24-.26,2.82,.72,.29,.49-.23,2.53-.72,2.82-.98,.58-2.24,.26-2.82-.72-.02-.04-.05-.09-.07-.13l-.81-1.62s0-.11,.04-.14Z"/><path class="g" d="M115.08,75.1c-.48,2.49-.57,5.07-.07,7.34,.15,.68-.28,1.36-.96,1.51-.68,.15-1.36-.28-1.51-.96-.03-.13-.04-.26-.02-.38v-.02c.13-1.4,.44-2.71,.87-3.96,.43-1.25,.94-2.44,1.57-3.57,.02-.03,.06-.05,.1-.03,.03,.02,.04,.05,.03,.08Z"/><path class="g" d="M111.58,77.56c-.24,1.77,.03,3.53,.63,5.02,.26,.66-.06,1.41-.71,1.67s-1.41-.06-1.67-.71c-.07-.18-.1-.37-.09-.55v-.05c.13-2.01,.73-3.87,1.72-5.42,.02-.03,.07-.04,.1-.02,.02,.02,.04,.04,.03,.07h0Z"/><path class="g" d="M108.6,79.63c-.09,1.39,.17,2.82,.77,3.76,.39,.62,.21,1.44-.41,1.83-.62,.39-1.44,.21-1.83-.41-.15-.23-.21-.49-.21-.74v-.15c.03-.88,.21-1.67,.49-2.38,.28-.72,.63-1.37,1.05-1.96,.02-.03,.07-.04,.1-.02,.02,.02,.03,.04,.03,.06h0Z"/><path class="g" d="M105.72,81.57c.1,.56,.25,1.1,.43,1.61,.18,.5,.42,.98,.7,1.28,.53,.57,.49,1.46-.08,1.98-.57,.53-1.46,.49-1.98-.08-.26-.28-.38-.64-.37-.99v-.3c.03-.75,.21-1.36,.42-1.93,.21-.57,.46-1.1,.75-1.61,.02-.04,.07-.05,.1-.03,.02,.01,.03,.03,.04,.05Z"/><path class="g" d="M103.35,83.89c.13,.55,.3,1.09,.5,1.59,.21,.49,.46,.96,.75,1.25,.55,.55,.55,1.43,0,1.98-.55,.55-1.43,.55-1.98,0-.27-.27-.41-.62-.41-.97v-.3c-.01-.75,.14-1.36,.32-1.95,.19-.58,.41-1.12,.68-1.64,.02-.04,.06-.05,.1-.03,.02,.01,.03,.03,.04,.05Z"/><path class="g" d="M101.13,86.33c.13,.55,.3,1.09,.5,1.59,.21,.49,.46,.96,.75,1.25,.55,.55,.55,1.43,0,1.98-.55,.55-1.43,.55-1.98,0-.27-.27-.41-.62-.41-.97v-.3c-.01-.75,.14-1.36,.32-1.95,.19-.58,.41-1.12,.68-1.64,.02-.04,.06-.05,.1-.03,.02,.01,.03,.03,.04,.05Z"/><path class="g" d="M111.41,37.61s-2.21,10.29-11.39,14.11c0,0,10.03-2.38,13.01-12.33l-1.62-1.79Z"/><path class="g" d="M74.8,173.63c-.1,.92-.09,2.03-.04,3.06,.07,1.05,.17,2.1,.35,3.14,.34,2.06,1.21,4.02,1.96,6.16,.38,1.07,.73,2.17,.97,3.32,.22,1.15,.4,2.34,.17,3.59-.2,1.22-.64,2.35-1.23,3.36-.59,1.01-1.33,1.92-2.31,2.56-.03,.02-.08,.01-.1-.02-.01-.02-.02-.05,0-.07h0c.49-1.02,.97-1.98,1.32-2.98,.37-.98,.56-2.01,.55-3-.05-.96-.14-1.99-.4-2.99-.25-1.01-.6-2-.99-3.01-.8-2-1.74-4.11-2.31-6.39-.3-1.12-.54-2.25-.7-3.4-.15-1.17-.26-2.27-.23-3.56,.02-.83,.71-1.49,1.53-1.47,.83,.02,1.49,.71,1.47,1.53,0,.04,0,.08,0,.12v.05Z"/><path class="g" d="M80.8,162.28c-1.5,1.42-2.83,3.53-2.74,5.37,.02,.46,.12,.91,.31,1.35,.09,.22,.21,.43,.35,.64l.22,.32,.32,.43c.84,1.14,1.36,2.75,1.24,4.21-.09,1.45-.56,2.66-.52,3.58,0,.46,.13,.85,.37,1.24,.12,.21,.27,.36,.46,.6,.21,.27,.42,.53,.61,.81,.76,1.12,1.31,2.38,1.59,3.67,.26,1.29,.28,2.64-.19,3.86-.01,.04-.06,.06-.09,.04-.03,0-.04-.03-.05-.06h0c-.15-1.25-.42-2.41-.83-3.5-.43-1.09-1.05-2.06-1.83-2.89-.19-.21-.41-.39-.61-.59-.23-.22-.5-.52-.72-.84-.45-.63-.74-1.46-.78-2.24-.06-1.57,.39-2.75,.38-3.79,.03-1.02-.29-1.9-.93-2.75l-.59-.73c-.22-.3-.43-.61-.61-.95-.36-.68-.59-1.44-.68-2.21-.17-1.56,.25-3.05,.85-4.32,.63-1.29,1.37-2.37,2.4-3.45,.57-.6,1.52-.63,2.12-.06,.6,.57,.63,1.52,.06,2.12-.02,.02-.03,.03-.05,.05l-.06,.06Z"/><path class="g" d="M75.32,184.02c-1.32,.94-2.4,1.88-2.96,3.05-.27,.58-.4,1.21-.36,1.88,0,.35,.08,.66,.15,1.05,.11,.45,.19,.92,.22,1.41,.08,.98-.23,2.05-.69,2.82-.45,.78-.89,1.38-1.13,2.07-.51,1.38-.19,2.97-.11,4.66,0,.04-.03,.07-.06,.07-.02,0-.05-.01-.06-.03-.95-1.41-1.4-3.22-.98-5.06,.21-.91,.67-1.71,.97-2.4,.3-.69,.39-1.29,.27-1.96-.06-.33-.15-.67-.28-1.02-.14-.41-.3-.89-.37-1.37-.17-.96-.1-2.02,.23-2.98,.66-1.96,2.17-3.3,3.41-4.38l.02-.02c.59-.51,1.47-.44,1.98,.14s.44,1.47-.14,1.98c-.03,.03-.07,.06-.11,.08Z"/><path class="g" d="M74.93,168.97c-.26,1.37-.64,2.54-1.15,3.75-.51,1.19-1.16,2.35-2.02,3.39-.42,.52-.92,1-1.45,1.43-.49,.39-.98,.78-1.49,1.14-1.02,.72-2.12,1.37-3.23,1.91-1.11,.55-2.22,.98-3.11,1.54-.46,.28-.86,.59-1.24,.96-.39,.37-.65,.63-.86,1.08-.43,.85-.42,2.14-.95,3.41-.26,.64-.74,1.19-1.27,1.58-.55,.37-1.14,.61-1.75,.72-.04,0-.08-.02-.08-.06,0-.03,0-.05,.03-.07,.97-.75,1.76-1.55,1.96-2.56,.27-.99,.05-2.19,.44-3.6,.18-.68,.61-1.43,1.09-1.88,.45-.49,.98-.93,1.53-1.3,1.11-.74,2.23-1.21,3.24-1.76,1.02-.53,1.96-1.14,2.87-1.83,.45-.34,.89-.71,1.32-1.08,.36-.36,.7-.74,1-1.17,1.18-1.7,1.91-3.95,2.18-6.01v-.07c.11-.82,.87-1.4,1.69-1.3,.82,.11,1.4,.86,1.3,1.68,0,.03,0,.06-.01,.09Z"/><path class="g" d="M75.34,187.09c-3.56-9.15-2.54-14.44,.59-20.99l1.8,.86c-2.52,5.28-4.16,10.07-.53,19.4l-1.86,.72Z"/><path class="g" d="M65.87,179.79c.38,.68,.7,1.47,.81,2.35,.13,.87-.02,1.83-.38,2.59-.34,.78-.82,1.38-1.22,1.92-.4,.54-.74,1.01-.81,1.37-.1,.34,.07,.79,.44,1.27,.46,.56,.9,1.29,1.09,2.04,.41,1.52,.02,3.09-.88,4.19-.02,.03-.06,.03-.08,0-.02-.01-.02-.04-.02-.06h0c.24-1.36,.27-2.68-.16-3.77-.22-.56-.55-.99-1.01-1.44-.28-.27-.55-.59-.77-.99-.22-.39-.35-.91-.32-1.41,.07-1.02,.55-1.72,.89-2.31,.36-.59,.67-1.12,.82-1.62,.31-.97,.07-1.87-.55-2.88-.36-.59-.17-1.36,.42-1.72s1.36-.17,1.72,.42l.02,.04h0Z"/><path class="g" d="M84.33,151.85c-1.06,1.29-2.32,2.43-3.7,3.41-1.4,.95-2.92,1.72-4.47,2.3-1.55,.59-3.15,.93-4.57,1.33-.7,.2-1.37,.42-1.82,.68-.22,.13-.37,.26-.47,.38-.11,.13-.29,.44-.4,.7-.5,1.12-.6,2.62-.84,4.21-.13,.8-.25,1.66-.65,2.54-.37,.88-1.17,1.77-2.12,2.12-.53,.19-.75,.23-1.05,.37-.27,.13-.49,.28-.65,.47-.33,.35-.42,1.12-.66,1.94-.23,.83-.74,1.66-1.42,2.18-.66,.54-1.43,.86-2.21,1.04-.04,0-.08-.01-.09-.05,0-.03,0-.06,.02-.07,1.21-1.04,2.28-2.04,2.47-3.4,.15-.66,.06-1.54,.63-2.5,.28-.45,.7-.8,1.1-1.04,.38-.24,.9-.43,1.09-.55,.48-.29,.74-.7,.9-1.27,.15-.58,.22-1.28,.25-2.02,.07-1.49,.02-3.16,.63-4.96,.17-.46,.33-.86,.67-1.36,.35-.51,.81-.89,1.24-1.17,.88-.56,1.7-.83,2.48-1.09,1.55-.49,2.97-.9,4.33-1.43,2.71-1.02,5.06-2.63,7.03-4.74,.57-.6,1.52-.64,2.12-.07,.58,.54,.63,1.44,.13,2.05Z"/><path class="g" d="M77.39,156.72c-1.63,.23-3.31,.23-4.97,.03-1.65-.23-3.27-.68-4.79-1.29-1.52-.6-2.93-1.4-4.27-2.07-.66-.33-1.32-.62-1.86-.73-.27-.05-.5-.06-.7-.03-.2,.04-.55,.15-.82,.28-1.17,.53-2.25,1.59-3.48,2.61-.63,.51-1.28,1.05-2.14,1.43-.83,.4-1.96,.52-2.87,.16-.5-.2-.72-.33-1.04-.42-.3-.09-.59-.13-.85-.08-.53,.06-1.1,.59-1.82,1.03-.72,.46-1.62,.73-2.46,.67-.84-.03-1.62-.29-2.33-.65-.03-.01-.04-.05-.03-.08,.01-.02,.03-.03,.06-.03,1.57,.1,3.08,.11,4.17-.78,.57-.39,1.1-1.09,2.12-1.39,.49-.14,1.01-.11,1.45-.02,.43,.08,.92,.29,1.16,.33,1.14,.29,2.17-.61,3.24-1.65,1.07-1.05,2.15-2.3,3.78-3.19,.42-.22,.8-.4,1.36-.53,.56-.13,1.12-.11,1.62-.03,.99,.17,1.76,.52,2.51,.85,1.47,.68,2.8,1.34,4.17,1.87,2.72,1.09,5.6,1.48,8.52,1.23,.69-.06,1.29,.45,1.35,1.14,.06,.67-.42,1.25-1.07,1.35Z"/><path class="g" d="M78.74,169.68c.48,.64,1.19,1.36,1.92,1.92,.37,.29,.75,.57,1.16,.81,.2,.13,.4,.23,.63,.36,.24,.15,.49,.28,.72,.46,.93,.64,1.8,1.67,2.02,2.87,.22,1.2-.15,2.31-.71,3.19-.02,.03-.07,.04-.1,.02-.02-.01-.04-.04-.03-.07,.06-1.05,.07-2.04-.26-2.84-.31-.8-.98-1.36-1.8-1.74-.2-.1-.41-.19-.62-.28-.23-.1-.5-.22-.74-.34-.5-.24-.97-.52-1.44-.82-.93-.63-1.75-1.29-2.54-2.27-.38-.47-.31-1.17,.16-1.55,.47-.38,1.17-.31,1.55,.16l.02,.03,.05,.07Z"/><path class="g" d="M107.41,168.51c.56-.12,.97-.11,1.45-.08,.46,.04,.92,.14,1.35,.31,.44,.16,.84,.41,1.2,.69,.36,.28,.67,.66,.85,.89,.46,.53,.87,.87,1.6,.79,.36-.02,.78-.08,1.19-.03,.41,.04,.8,.18,1.15,.35,.03,.02,.05,.05,.03,.09-.01,.03-.05,.04-.07,.03-.37-.08-.74-.11-1.1-.05-.36,.05-.68,.18-1.07,.31-.38,.13-.89,.21-1.36,.07-.48-.12-.85-.37-1.21-.62-.38-.28-.58-.48-.86-.63-.27-.15-.55-.27-.84-.33-.56-.13-1.28-.07-1.72,.11h0c-.52,.2-1.1-.05-1.3-.57-.2-.52,.05-1.1,.57-1.3,.05-.02,.11-.04,.16-.05Z"/><path class="g" d="M52.87,140.63c-.55,.73-1.09,1.26-1.73,1.78-.63,.51-1.32,.96-2.09,1.28-.76,.32-1.56,.55-2.39,.62-.41,.03-.83,.05-1.24,.01l-.61-.06c-.19-.02-.33-.05-.5-.08-1.31-.2-2.66,.03-3.93,.58-1.27,.55-2.42,1.44-3.49,2.44-.03,.03-.07,.03-.1,0-.02-.02-.03-.06,0-.09,.8-1.24,1.81-2.4,3.12-3.23,1.3-.85,2.91-1.3,4.51-1.28l1.07,.03c.32,0,.64-.04,.95-.08,.63-.1,1.22-.33,1.79-.62,1.11-.57,2.16-1.55,2.82-2.52l.04-.06c.34-.5,1.03-.63,1.53-.29,.5,.34,.63,1.03,.29,1.53,0,.01-.02,.03-.03,.04Z"/><path class="g" d="M121.9,139.33c.69,.72,1.12,1.47,1.32,2.41,.1,.45,.1,.96,.04,1.39-.06,.33-.09,.65-.07,.93,.03,.58,.33,.94,.99,1.36,.31,.2,.66,.44,.94,.76,.28,.32,.42,.73,.47,1.11,0,.04-.02,.08-.06,.08-.03,0-.06-.01-.07-.04-.33-.7-.93-.96-1.63-1.19-.35-.13-.76-.28-1.13-.6-.37-.32-.63-.79-.74-1.23-.13-.45-.16-.88-.17-1.3-.01-.32-.07-.56-.17-.83-.2-.5-.62-1.05-1.02-1.35l-.03-.02c-.44-.34-.52-.97-.19-1.41,.34-.44,.97-.52,1.41-.19,.04,.03,.08,.07,.12,.1Z"/><path class="g" d="M116.34,127.52c.28,.2,.76,.45,1.18,.57,.43,.13,.87,.18,1.3,.15,.44-.03,.85-.16,1.28-.38,.55-.29,1.12-.57,1.81-.73,.64-.18,1.58-.18,2.27,.25,.66,.42,1,.89,1.38,1.21,.71,.69,1.75,.92,2.94,.99,.04,0,.08,.04,.08,.08,0,.03-.02,.06-.05,.07-.55,.25-1.15,.41-1.8,.41-.64,.01-1.34-.21-1.89-.57-.55-.35-.99-.77-1.35-.91-.34-.13-.65-.1-1.1,.08-.43,.17-.88,.44-1.33,.73-.57,.36-1.25,.65-1.97,.77-.71,.13-1.45,.08-2.13-.09-.7-.18-1.29-.42-1.95-.88-.5-.35-.62-1.03-.28-1.53,.35-.5,1.03-.62,1.53-.28h0l.07,.06Z"/><path class="g" d="M96.54,153.19c.76,1.86,1.86,3.53,3.37,4.57,.74,.53,1.59,.88,2.49,1.05,.45,.08,.92,.13,1.4,.12,.25,0,.45-.02,.75-.03,.3-.01,.6-.03,.91-.02,1.19,.01,2.63,.27,3.73,1.23,1.07,.98,1.42,2.16,1.9,3.03,.46,.9,1.03,1.63,1.91,2.12,.85,.52,1.9,.81,2.97,1.06,.05,.01,.08,.06,.07,.11,0,.04-.04,.07-.08,.07-1.1,.13-2.26,.1-3.4-.28-1.14-.38-2.17-1.28-2.8-2.27-.65-.98-1.13-1.92-1.78-2.34-.63-.43-1.49-.52-2.46-.44-.24,0-.48,.05-.73,.08-.24,.03-.59,.07-.88,.09-.61,.05-1.24,.02-1.87-.06-1.25-.16-2.5-.6-3.58-1.28-2.17-1.38-3.6-3.51-4.56-5.63h0c-.33-.74,0-1.6,.72-1.93,.73-.33,1.59,0,1.92,.72,0,.01,.02,.04,.02,.05Z"/><path class="g" d="M82.17,207.52c-1.08-1.33-2.66-2.31-3.36-4.28-.16-.48-.25-1.02-.2-1.57,.05-.54,.22-1.06,.46-1.52,.51-.95,1.2-1.55,1.48-2.15,.62-1.05-.5-2.01-1.94-3.26-.69-.66-1.35-1.46-1.77-2.42-.43-.96-.56-1.9-.8-2.63-.17-.53,.12-1.09,.64-1.26s1.09,.12,1.26,.64h0v.02c.29,.95,.42,1.77,.71,2.42,.28,.66,.74,1.26,1.31,1.83,.53,.52,1.37,1.16,1.93,2.07,.29,.45,.54,1.01,.58,1.65,.05,.64-.16,1.28-.44,1.75-.57,.96-1.33,1.48-1.68,2.07-.4,.6-.54,1.27-.36,1.99,.18,.72,.61,1.44,1.07,2.17,.44,.74,1,1.49,1.22,2.4,0,.04-.01,.08-.05,.09-.03,0-.06,0-.07-.02h0Z"/><path class="g" d="M48.7,165.88c.49-.77,1.13-1.42,1.86-1.99,.73-.56,1.58-1.03,2.56-1.26,.97-.23,2.11-.17,3.09,.3,.49,.22,.95,.56,1.29,.83,.35,.28,.66,.51,.93,.65,.28,.15,.48,.18,.66,.16,.19-.02,.42-.12,.68-.3,.55-.37,.96-.94,1.7-1.67,.69-.67,1.54-1.33,2.54-1.73,1.01-.41,1.96-.51,2.67-.72,.66-.19,1.36,.19,1.55,.85s-.19,1.36-.85,1.55h-.04c-.98,.27-1.79,.36-2.42,.61-.64,.24-1.22,.65-1.8,1.18-.52,.48-1.21,1.31-2.17,1.85-.48,.28-1.08,.52-1.78,.54-.69,.02-1.36-.24-1.83-.55-.95-.65-1.41-1.37-1.97-1.67-.57-.36-1.27-.51-2.02-.43-1.51,.16-3.08,.98-4.57,1.91-.03,.02-.08,.02-.1-.02-.02-.02-.01-.06,0-.08Z"/><path class="g" d="M19.88,132.77c.15-1.67,.71-3.29,1.65-4.76,.48-.72,1.05-1.43,1.8-2,.19-.14,.39-.27,.59-.4l.51-.31c.33-.2,.65-.41,.95-.63,.59-.44,1.14-.92,1.39-1.39,.26-.46,.25-.89,.13-1.63-.13-.72-.33-1.64-.32-2.61,0-.97,.22-1.95,.58-2.82,.27-.64,1-.94,1.63-.67s.94,1,.67,1.63h0c-.26,.64-.43,1.26-.46,1.92-.04,.66,.09,1.35,.19,2.24,.05,.44,.08,.95,0,1.51-.07,.55-.29,1.12-.59,1.58-.62,.91-1.39,1.46-2.14,1.92-.38,.23-.76,.43-1.14,.62l-.56,.27-.45,.23c-.6,.35-1.14,.86-1.64,1.43-.99,1.15-1.84,2.51-2.67,3.93-.02,.04-.06,.05-.1,.03-.03-.01-.04-.04-.04-.07Z"/><path class="g" d="M19.69,122.46c.49-2.58,2.11-5.08,4.67-6.43,.63-.34,1.31-.6,2.01-.78,.34-.09,.74-.16,1.04-.21,.29-.05,.57-.11,.84-.17,1.09-.27,2.06-.78,2.41-1.42,.37-.6,.31-1.51-.07-2.52-.07-.21-.24-.61-.33-.99-.11-.38-.19-.79-.22-1.24-.09-.9,.24-1.98,.69-2.66,.43-.7,.84-1.16,1.14-1.63,.3-.46,.54-.9,.71-1.39,.35-.96,.47-2.08,.45-3.24v-.02c-.01-.83,.65-1.51,1.48-1.52,.83-.01,1.51,.65,1.52,1.48h0c0,1.41-.12,2.88-.66,4.33-.49,1.45-1.63,2.74-2.15,3.51-.24,.4-.3,.6-.29,.98,0,.19,.04,.41,.11,.64,.06,.25,.14,.44,.27,.84,.22,.72,.37,1.49,.35,2.34-.02,.84-.28,1.78-.81,2.53-.53,.75-1.26,1.27-1.97,1.61-.72,.34-1.45,.51-2.15,.62-.35,.05-.71,.09-1.05,.12-.33,.03-.57,.03-.86,.07-.55,.07-1.1,.21-1.62,.42-2.11,.85-3.89,2.65-5.31,4.77h0s-.08,.06-.12,.03c-.03-.02-.04-.05-.04-.09Z"/><path class="g" d="M54.57,147.73c.14-.9,.46-1.75,.89-2.57,.44-.81,1.03-1.59,1.83-2.19,.79-.6,1.86-1.01,2.95-.98,.53,0,1.1,.13,1.51,.24,.43,.11,.81,.2,1.12,.22,.31,.02,.51-.03,.67-.12,.16-.1,.34-.28,.5-.55,.36-.56,.5-1.25,.88-2.22,.36-.9,.87-1.84,1.63-2.61,.76-.78,1.58-1.26,2.15-1.73,.53-.44,1.32-.38,1.76,.15s.38,1.32-.15,1.76l-.02,.02h-.01c-.79,.64-1.5,1.05-1.97,1.53-.49,.47-.86,1.09-1.17,1.8-.28,.65-.57,1.69-1.24,2.58-.33,.45-.78,.92-1.41,1.21-.63,.3-1.34,.33-1.89,.23-1.13-.21-1.85-.68-2.48-.73-.67-.1-1.37,.05-2.02,.42-1.32,.76-2.42,2.14-3.41,3.59-.02,.03-.06,.05-.1,.02-.02-.01-.04-.05-.03-.07Z"/><path class="g" d="M94.3,112.59c.17,1.35,.26,2.78-.11,4.33-.18,.77-.55,1.54-1.02,2.21-.47,.67-1.04,1.19-1.58,1.63-1.08,.87-2.05,1.51-2.88,2.3-.41,.39-.79,.81-1.14,1.26-.17,.23-.34,.46-.49,.7-.17,.25-.36,.58-.58,.85-.42,.57-.9,1.15-1.6,1.64-.67,.49-1.73,.78-2.62,.59-.88-.17-1.51-.6-2.05-.93-.55-.34-.97-.64-1.25-.62-.5,0-.98,.14-1.5,.41-.52,.25-1.08,.66-1.8,.88-.73,.23-1.54,.14-2.15-.16-.63-.28-1.16-.68-1.63-1.12-.03-.03-.04-.09,0-.12,.03-.03,.07-.03,.1-.02,1.15,.52,2.41,.94,3.32,.43,.47-.24,.92-.63,1.48-1.03,.55-.4,1.27-.75,2.05-.86,.45-.09,.98,.02,1.33,.14,.38,.12,.69,.27,.97,.41,.57,.28,1.08,.47,1.46,.5,.37,.03,.63-.07,.97-.34,.34-.26,.67-.68,.97-1.14,.16-.24,.28-.46,.45-.75,.17-.3,.35-.6,.54-.89,.39-.58,.83-1.14,1.3-1.65,.94-1.04,2.05-1.87,2.92-2.62,.88-.77,1.34-1.45,1.54-2.38,.22-.93,.15-2.08,.02-3.24v-.03c-.1-.82,.49-1.57,1.31-1.67,.82-.1,1.56,.48,1.66,1.3Z"/><path class="g" d="M41.79,138.24c1.58-.95,3.4-1.51,5.35-1.58,.49,0,.98,.03,1.48,.11,.51,.1,1,.28,1.46,.47,.91,.4,1.7,.9,2.44,1.26,1.59,.81,2.15,.51,3.42-.99,.68-.7,1.44-1.38,2.39-1.9,.92-.53,2.1-.82,3.11-.85h.04c.69-.02,1.27,.52,1.29,1.21,.02,.69-.52,1.27-1.21,1.29h-.02c-.8,.01-1.42,.15-2.08,.48-.65,.33-1.28,.83-1.87,1.4l-.46,.46c-.19,.19-.39,.37-.61,.54-.44,.34-.98,.65-1.62,.81-.63,.15-1.32,.11-1.87-.06-.57-.16-1.03-.41-1.45-.66-.84-.51-1.53-1.04-2.25-1.42-.36-.19-.71-.35-1.08-.46-.38-.12-.78-.22-1.19-.27-1.65-.26-3.45-.08-5.21,.28h0s-.08-.02-.08-.05c0-.03,0-.06,.03-.08Z"/><path class="g" d="M111.14,174.46c-.78,.09-1.58,0-2.38-.28-.77-.29-1.59-.88-1.97-1.81-.19-.44-.26-.96-.27-1.39,0-.37-.01-.73-.04-1.08-.05-.69-.21-1.3-.47-1.71-.27-.4-.65-.67-1.22-.82-.29-.09-.54-.11-.93-.18-.4-.07-.79-.14-1.2-.24-.8-.19-1.65-.49-2.43-.96-.78-.47-1.35-.97-1.9-1.32-.59-.37-.76-1.14-.4-1.72,.37-.59,1.14-.76,1.72-.4l.04,.03h.02c.71,.5,1.27,1.02,1.78,1.34,.51,.33,1.09,.56,1.75,.75,.33,.09,.67,.17,1.02,.24,.36,.08,.85,.19,1.27,.37,.87,.31,1.78,1.01,2.25,1.93,.47,.92,.51,1.86,.49,2.67-.02,.41-.05,.81-.09,1.19-.04,.32-.06,.58,0,.85,.15,1.09,1.55,1.95,2.96,2.41,.04,0,.06,.05,.05,.09,0,.03-.03,.05-.06,.05Z"/><path class="g" d="M105.19,189.57c-.71-.21-1.42-.51-2.03-1.01-.61-.5-1.12-1.21-1.39-1.97-.28-.76-.42-1.49-.61-2.14-.19-.65-.44-1.24-.77-1.77-.7-1.07-1.62-2.13-2.59-3.22-.49-.56-.99-1.17-1.43-1.9-.43-.73-.75-1.62-.85-2.53-.08-.9,.02-1.77,.2-2.57,.1-.39,.22-.79,.33-1.15,.1-.32,.22-.64,.3-.96,.36-1.27,.48-2.48,.25-3.65-.45-2.37-2.17-4.62-3.98-6.69l-.02-.02c-.54-.62-.48-1.57,.14-2.12,.62-.54,1.57-.48,2.12,.14l.02,.02c.97,1.14,1.9,2.34,2.71,3.68,.8,1.33,1.52,2.82,1.79,4.5,.31,1.67,.06,3.42-.4,4.9-.11,.38-.24,.74-.37,1.1l-.31,.91c-.16,.59-.27,1.17-.26,1.71-.04,2.12,2.67,4.1,4.01,6.97,.34,.75,.54,1.55,.65,2.31,.11,.76,.15,1.47,.29,2.1,.14,.62,.4,1.19,.81,1.71,.4,.53,.93,1,1.46,1.52,.03,.03,.03,.07,0,.1-.02,.02-.05,.03-.08,.02Z"/><path class="g" d="M109.47,180.1c-.43-.62-.93-1.19-1.52-1.45-.58-.26-1.2-.19-2.04-.21-.41-.01-.91-.09-1.39-.33-.48-.23-.86-.62-1.15-1-.29-.39-.5-.79-.67-1.18-.18-.4-.32-.81-.42-1.07-.22-.6-.51-1.11-.91-1.49-.4-.4-.94-.72-1.63-1.17-.68-.44-1.48-1.1-1.99-1.94-.52-.83-.79-1.71-1-2.56-.18-.75,.28-1.51,1.03-1.69,.75-.18,1.51,.28,1.69,1.03,0,.02,.01,.05,.02,.07v.07c.13,.62,.28,1.22,.54,1.69,.26,.47,.62,.83,1.18,1.25,.54,.42,1.3,.89,1.93,1.62,.64,.72,1.04,1.6,1.27,2.43,.05,.2,.13,.44,.16,.6,.03,.17,.05,.33,.09,.49,.07,.32,.15,.62,.27,.87,.24,.51,.49,.78,1.18,.94,.33,.08,.72,.14,1.13,.25,.41,.12,.84,.31,1.19,.59,.7,.58,1,1.37,1.18,2.11,0,.04-.01,.08-.05,.09-.03,0-.06,0-.08-.03Z"/><path class="g" d="M99.5,165.47c-8.93-4.98-11.52-12.87-11.62-13.2l2.86-.91c.02,.07,2.38,7.12,10.23,11.49l-1.46,2.62Z"/><path class="g" d="M89.8,148.62c-.98,1.43-2.25,3-2.25,3l1.59,1.14,2.11-.15s-.85-1.88-1.45-3.99Z"/><path class="g" d="M98.99,177.7c.3,.46,.56,1.05,.58,1.71,.03,.66-.17,1.28-.43,1.76-.53,.95-1.19,1.57-1.7,2.21-.52,.63-.87,1.23-.85,1.76,0,.27,.08,.56,.23,.86,.07,.15,.18,.3,.28,.46l.37,.57c.46,.8,.99,1.58,1.09,2.76,.05,.61-.27,1.26-.63,1.62-.35,.38-.7,.63-.99,.91-.6,.54-1.02,1.2-1.27,1.99-.24,.78-.33,1.64-.42,2.51,0,.03-.03,.05-.05,.04-.02,0-.04-.02-.04-.03-.25-.85-.32-1.77-.19-2.69,.15-.92,.61-1.83,1.23-2.53,.3-.35,.62-.66,.84-.95,.21-.3,.26-.5,.22-.78-.1-.58-.6-1.3-1.09-1.94-.46-.54-1.29-1.54-1.32-2.75-.03-.6,.13-1.2,.36-1.68,.23-.49,.52-.89,.8-1.27,.56-.73,1.14-1.37,1.44-1.96,.27-.6,.24-.93-.12-1.48v-.02c-.32-.46-.18-1.08,.28-1.38s1.08-.17,1.38,.29h0Z"/><path class="g" d="M104.51,167.19c-.08,0-.16,0-.24-.03-3.8-.85-5.25-3.67-6.03-5.18l-.15-.29c-.28-.54-.08-1.2,.46-1.48,.54-.28,1.2-.07,1.48,.46l.16,.31c.74,1.44,1.75,3.41,4.55,4.04,.59,.13,.97,.72,.83,1.31-.11,.51-.57,.86-1.07,.86Z"/><path class="g" d="M68.9,130.59c-.65,.36-1.3,.72-2.11,.95-.2,.06-.4,.12-.64,.15-.23,.04-.46,.07-.74,.05-.52,0-1.11-.28-1.41-.54-.64-.52-.88-.79-1.49-.94-.58-.14-1.27-.11-1.99-.12h0s-.06-.03-.06-.06c0-.02,.01-.04,.03-.05,.6-.39,1.25-.77,2.07-.84,.2-.02,.42-.01,.63,0,.21,.04,.44,.07,.64,.14,.43,.13,.77,.35,1.03,.45,.27,.11,.37,.08,.54,.04,.07,0,.17-.05,.28-.1,.1-.03,.22-.1,.34-.17,.47-.26,1-.66,1.51-1.03l.04-.03c.56-.41,1.34-.29,1.75,.27s.29,1.34-.27,1.75c-.04,.03-.09,.06-.13,.09Z"/><path class="g" d="M90.6,121.21c-1.15,.68-2.41,1.34-3.85,1.62-1.43,.31-2.94,.14-4.22-.3-.67-.21-1.37-.53-1.93-.99-.56-.46-1.01-.99-1.38-1.49-.74-1.02-1.55-1.83-2.72-2.43-.03-.02-.04-.05-.03-.08,.01-.02,.04-.03,.06-.03,.65,.06,1.3,.26,1.9,.6,.61,.32,1.11,.8,1.58,1.23,.91,.92,1.76,1.55,2.89,1.7,1.18,.18,2.29,.12,3.33-.24,1.03-.36,2.03-.96,3-1.67h0c.56-.41,1.34-.29,1.75,.27,.41,.56,.29,1.34-.27,1.75-.03,.02-.07,.05-.1,.07Z"/><path class="g" d="M103.45,116.88c.13,.31,.38,.79,.63,1.16,.25,.4,.55,.77,.85,1.14,.62,.73,1.36,1.35,2.18,1.85,.82,.5,1.75,.88,2.75,1.04,.99,.23,2.03,.21,3.13,.25h0s.07,.04,.07,.08c0,.03-.02,.05-.04,.06-1,.45-2.1,.75-3.24,.77-1.14,.06-2.31-.14-3.43-.53-1.12-.38-2.17-.99-3.1-1.73-.46-.38-.91-.78-1.31-1.23-.42-.46-.76-.88-1.15-1.5-.44-.7-.23-1.63,.47-2.08s1.63-.23,2.08,.47c.05,.08,.09,.15,.12,.23h0Z"/><path class="g" d="M98.48,126.9l1.19,4.79s-.01,.08-.05,.09c-.02,0-.05,0-.07-.02l-3.65-3.33c-.64-.58-.69-1.58-.1-2.22s1.58-.69,2.22-.1c.24,.22,.39,.49,.47,.78h0Z"/><path class="g" d="M89.03,154.9l-1.44,4.72s-.05,.06-.09,.05c-.02,0-.04-.03-.05-.05l-1.41-4.74c-.25-.83,.22-1.7,1.05-1.95,.83-.25,1.7,.22,1.95,1.05,.09,.31,.08,.62,0,.91h0Z"/><path class="g" d="M91.92,155.34l-1.44,4.72s-.05,.06-.09,.05c-.02,0-.04-.03-.05-.05l-1.41-4.74c-.25-.83,.22-1.7,1.05-1.95,.83-.25,1.7,.22,1.95,1.05,.09,.31,.08,.62,0,.91h0Z"/><path class="g" d="M86.66,156.57l-1.44,4.72s-.05,.06-.09,.05c-.02,0-.04-.03-.05-.05l-1.41-4.74c-.25-.83,.22-1.7,1.05-1.95,.83-.25,1.7,.22,1.95,1.05,.09,.31,.08,.62,0,.91h0Z"/><path class="g" d="M84.28,158.73l-1.44,4.72s-.05,.06-.09,.05c-.02,0-.04-.03-.05-.05l-1.41-4.74c-.25-.83,.22-1.7,1.05-1.95,.83-.25,1.7,.22,1.95,1.05,.09,.31,.08,.62,0,.91h0Z"/><path class="g" d="M81.98,161.11l-1.44,4.72s-.05,.06-.09,.05c-.02,0-.04-.03-.05-.05l-1.41-4.74c-.25-.83,.22-1.7,1.05-1.95s1.7,.22,1.95,1.05c.09,.31,.08,.62,0,.91h0Z"/><path class="g" d="M97.09,129.46l1.19,4.79s-.01,.08-.05,.09c-.02,0-.05,0-.07-.02l-3.65-3.33c-.64-.58-.69-1.58-.1-2.22,.58-.64,1.58-.69,2.22-.1,.24,.22,.39,.49,.47,.78h0Z"/><path class="g" d="M95.77,132.4l1.19,4.79s-.01,.08-.05,.09c-.02,0-.05,0-.07-.02l-3.65-3.33c-.64-.58-.69-1.58-.1-2.22s1.58-.69,2.22-.1c.24,.22,.39,.49,.47,.78h0Z"/><path class="g" d="M94.64,135.43l1.19,4.79s-.01,.08-.05,.09c-.02,0-.05,0-.07-.02l-3.65-3.33c-.64-.58-.69-1.58-.1-2.22s1.58-.69,2.22-.1c.24,.22,.39,.49,.47,.78h0Z"/><path class="g" d="M104.36,120.23c.13,.31,.38,.79,.63,1.16,.25,.4,.55,.77,.85,1.14,.62,.73,1.36,1.35,2.18,1.85,.82,.5,1.75,.88,2.75,1.04,.99,.23,2.03,.21,3.12,.25h0s.07,.04,.07,.08c0,.03-.02,.05-.04,.06-1,.45-2.1,.75-3.24,.77-1.14,.06-2.31-.14-3.43-.53-1.12-.38-2.17-.99-3.1-1.73-.46-.38-.91-.78-1.31-1.23-.42-.46-.76-.88-1.15-1.5-.44-.7-.23-1.63,.47-2.08,.7-.44,1.63-.23,2.08,.47,.05,.08,.09,.15,.12,.23h0Z"/><path class="g" d="M114.92,188.26c-1.08,2.63-2.47,5.16-4.33,7.39-1.87,2.22-4.18,4.06-6.71,5.43-2.54,1.37-5.38,2.14-8.19,2.26-2.8,.17-5.65-.18-8.13-1.35-.04-.02-.05-.06-.03-.1,.01-.03,.05-.04,.07-.04,2.68,.24,5.28,0,7.74-.7,2.45-.72,4.73-1.75,6.8-3.07,2.09-1.3,3.85-3.03,5.38-4.93,1.5-1.94,2.64-4.14,3.69-6.41l.04-.1c.46-1,1.65-1.44,2.65-.97,.97,.45,1.41,1.59,1.01,2.57Z"/><path class="g" d="M133.19,144.56c-1.12,2.8-3.09,5.16-5.09,7.04-2.01,1.92-4.09,3.5-6.05,5.24-1.95,1.75-3.69,3.71-5.39,5.83-.02,.03-.07,.04-.1,.01-.02-.02-.03-.05-.02-.08,.88-2.57,2.25-4.99,3.86-7.23,1.58-2.27,3.49-4.27,5.22-6.17,1.77-1.89,3.08-3.89,3.9-6.09,.82-2.2,1.11-4.64,1.22-7.14v-.06c.05-1.1,.99-1.96,2.09-1.91,1.07,.05,1.51,7.79,.36,10.57Z"/><path class="g" d="M111.21,134.41c-6-4.78-9.45-10.59-11.53-19.43l2.92-.69c1.91,8.13,5.05,13.45,10.47,17.78l-1.87,2.35Z"/><path class="g" d="M112.11,134.73c-8.49-.16-12.42-6.08-14.54-9.27-.24-.36-.46-.69-.66-.98l2.45-1.73c.22,.31,.45,.66,.71,1.04,2.06,3.11,5.18,7.8,12.1,7.93l-.06,3Z"/><path class="g" d="M96.31,124.37s1.06-3.07,1.36-5.21c0,0,1.59,3.31,2.91,5.39l-4.27-.18Z"/><path class="g" d="M127.83,134.22c-.51,.52-1.11,1.05-1.94,1.27-.41,.11-.86,.14-1.3,.06-.22-.03-.44-.1-.64-.18l-.31-.13-.23-.12c-.59-.33-1.21-.56-1.8-.66-.59-.1-1.12-.04-1.72,.17-.59,.2-1.28,.56-2.15,.75-.43,.1-.91,.14-1.35,.12-.4-.02-.8-.06-1.21-.12-1.62-.23-3.24-1.04-4.45-2.04l-.03-.03c-.53-.44-.61-1.22-.18-1.76,.44-.53,1.22-.61,1.76-.18,.01,.01,.03,.03,.04,.04,.99,.89,2.03,1.48,3.28,1.75,.31,.07,.63,.12,.95,.16,.28,.03,.53,.05,.82,0,.56-.06,1.2-.31,2.01-.51,.79-.21,1.76-.23,2.58,0,.82,.23,1.55,.6,2.18,1.04l.24,.16,.17,.14c.11,.09,.23,.17,.36,.24,.25,.13,.54,.22,.85,.23,.63,.03,1.31-.24,1.97-.56,.04-.02,.08,0,.1,.03,.01,.03,0,.06-.01,.08Z"/><path class="g" d="M100.5,150.89c.57-.89,1.1-1.79,1.28-2.68,.2-.89-.04-1.64-.41-2.57-.37-.9-.93-2.07-.85-3.46,.04-.68,.21-1.34,.46-1.93,.12-.3,.27-.57,.41-.85l.43-.7c.92-1.36,1.07-3.15,.66-4.91-.41-1.77-1.32-3.49-2.48-4.99h0c-.51-.66-.39-1.61,.27-2.11,.65-.51,1.6-.39,2.1,.27l.02,.02c1.36,1.82,2.43,3.88,2.94,6.19,.25,1.15,.34,2.37,.17,3.61-.16,1.23-.61,2.46-1.33,3.5-.19,.31-.3,.42-.45,.6-.12,.17-.25,.34-.34,.52-.2,.35-.35,.69-.42,1.05-.18,.71,0,1.57,.25,2.64,.11,.54,.25,1.13,.21,1.76-.02,.63-.18,1.26-.45,1.8-.57,1.08-1.43,1.8-2.33,2.37-.04,.03-.09,.01-.12-.03-.02-.03-.02-.07,0-.09Z"/><path class="g" d="M71.42,150.57c.57-1.22,.96-2.41,.83-3.51-.06-.56-.2-1.1-.36-1.78-.08-.34-.15-.73-.15-1.2,0-.46,.12-1,.36-1.44,.49-.9,1.19-1.41,1.81-1.83,.31-.21,.65-.41,.93-.56,.27-.13,.54-.27,.8-.41,.51-.29,.99-.6,1.32-.92,.36-.34,.48-.56,.56-.92,.09-.36,.05-1.14,.33-2.06,.28-.92,.87-1.68,1.44-2.23,1.15-1.06,2.42-1.89,4.12-2.25,.84-.16,1.89-.16,2.87,.36,.99,.51,1.59,1.44,1.9,2.25,.59,1.65,.53,3.13,.43,4.54-.05,.83-.77,1.45-1.6,1.4-.83-.05-1.45-.77-1.4-1.6v-.07c.12-1.17,.1-2.39-.2-3.21-.16-.4-.34-.62-.53-.72-.18-.11-.51-.16-.95-.08-.87,.15-1.91,.75-2.67,1.46-.37,.35-.6,.67-.7,1-.13,.33-.1,.89-.27,1.81-.18,.93-.8,1.86-1.41,2.39-.62,.57-1.26,.96-1.89,1.31-.32,.17-.63,.33-.95,.48-.3,.15-.55,.22-.81,.35-.5,.22-.91,.51-1.1,.73-.2,.19-.3,.52-.28,1.16,0,.61,.1,1.37-.04,2.12-.24,1.54-1.18,2.76-2.27,3.54-.04,.03-.09,.02-.12-.02-.02-.03-.02-.06,0-.09Z"/><path class="g" d="M114.49,133.24c.81,.37,1.6,.88,2.25,1.52,.66,.63,1.18,1.37,1.58,2.08,.41,.7,.75,1.37,1.11,1.74,.34,.36,.71,.48,1.35,.47,.31,0,.64-.07,.98-.14l.52-.13c.21-.05,.4-.11,.62-.15,.42-.09,.86-.15,1.34-.14,.47,0,1.06,.13,1.51,.5,.45,.37,.64,.81,.81,1.15,.17,.35,.32,.63,.52,.85,.4,.47,1.17,.63,1.94,.7,.04,0,.07,.04,.07,.08,0,.03-.02,.05-.05,.06-.74,.23-1.66,.37-2.5-.16-.82-.54-1.15-1.46-1.57-1.6-.33-.19-.98-.09-1.64,.15-.16,.05-.33,.13-.49,.19l-.59,.21c-.41,.13-.83,.24-1.3,.3-.46,.06-.98,.06-1.51-.08-.53-.14-1.05-.44-1.43-.79-.76-.72-1.14-1.45-1.56-2.06-.8-1.23-1.69-2.08-2.92-2.57-.62-.25-.91-.95-.67-1.56,.25-.62,.95-.91,1.56-.67,.02,0,.03,.01,.05,.02h.01Z"/><path class="g" d="M103.49,128.16c.99,.95,2.14,1.88,3.19,3.16,1.06,1.28,1.78,2.82,2.22,4.3,.45,1.49,.72,2.96,.95,4.43,.1,.73,.21,1.46,.28,2.19l.12,1.09c.03,.33,.07,.65,.12,.96,.21,1.26,.68,2.39,1.48,3.35,.4,.49,.88,.94,1.41,1.44,.53,.49,1.15,1.04,1.62,1.84,.23,.4,.39,.86,.46,1.31,.07,.46,.06,.87,0,1.33-.08,.45-.22,.89-.42,1.25-.2,.36-.39,.65-.56,.95-.71,1.09-.91,2.46-1.09,3.92,0,.04-.04,.07-.08,.06-.03,0-.05-.02-.06-.05-.23-.7-.38-1.44-.41-2.21-.03-.77,.12-1.58,.41-2.32,.31-.74,.57-1.29,.59-1.8,0-.26-.02-.57-.08-.82-.07-.25-.17-.47-.32-.69-.6-.86-1.99-1.59-3.11-2.77-1.15-1.17-1.93-2.75-2.29-4.3-.09-.39-.17-.79-.23-1.17l-.16-1.05c-.1-.7-.23-1.39-.36-2.08-.27-1.37-.58-2.73-1.02-3.98-.46-1.25-.98-2.36-1.78-3.3-.78-.94-1.89-1.84-2.96-2.9h-.01c-.59-.59-.6-1.54-.02-2.13,.58-.58,1.51-.6,2.11-.03Z"/><path class="g" d="M108.08,134.3s7.29,.71,8.54,3.06l-.09-2.92-7.2-2.09-1.26,1.95Z"/><path class="g" d="M48.16,132.28c1.71-1.07,3.9-1.35,5.95-1.06,2.07,.29,4.08,1.07,5.84,2.22,.47,.3,.82,.56,1.2,.83,.38,.25,.77,.5,1.16,.72,.77,.44,1.57,.8,2.31,.94,.75,.14,1.4,.11,2.08-.16,.68-.26,1.42-.75,2.21-1.31,.79-.56,1.66-1.16,2.63-1.68,.97-.52,2.04-.91,3.14-1.14,2.21-.42,4.21-.32,6.08-.43,1.86-.1,3.57-.36,4.98-1.15,1.41-.77,2.53-2.07,3.42-3.61,.41-.72,1.33-.96,2.05-.55,.71,.41,.95,1.3,.57,2.01-1.01,1.86-2.49,3.69-4.53,4.83-2.02,1.16-4.31,1.49-6.33,1.58-2.03,.1-3.97,.04-5.62,.36-1.64,.33-3.1,1.13-4.73,2.24-.83,.53-1.73,1.15-2.89,1.56-1.15,.44-2.55,.47-3.69,.15-1.17-.3-2.14-.83-3.04-1.4-.88-.56-1.76-1.24-2.43-1.84-1.38-1.17-2.96-2.17-4.72-2.72-1.76-.56-3.65-.64-5.59-.26-.04,0-.08-.02-.08-.06,0-.03,0-.06,.03-.08Z"/><path class="g" d="M48.19,179.18c.19,1.66,.42,3.26,.83,4.77,.4,1.51,1.03,2.91,1.77,4.09,.6,.95,.31,2.2-.64,2.8-.95,.6-3.44-3.14-3.47-4.05-.03-.91-.01-1.8,.08-2.67,.18-1.73,.53-3.42,1.24-4.97,.02-.05,.08-.07,.13-.05,.03,.01,.05,.04,.06,.08h0Z"/><path class="g" d="M43.13,168.64c.05,1.51,.04,2.96,.06,4.4,.03,1.44,.17,2.87,.41,4.26,.23,1.39,.57,2.74,1.02,4.03,.44,1.3,1.03,2.5,1.68,3.63l.05,.08c.55,.96,.22,2.19-.74,2.74-.96,.55-4-4.06-4.23-5.63-.24-1.57-.39-3.13-.32-4.68,.05-1.55,.21-3.07,.48-4.56,.27-1.49,.67-2.96,1.41-4.32,.03-.05,.08-.06,.13-.04,.03,.02,.05,.05,.05,.08h0Z"/><path class="g" d="M53.9,177.82c-.02,1.45-.11,2.83-.18,4.21-.06,1.38-.03,2.74,.1,4.08,.25,2.68,.93,5.23,2.12,7.33l.02,.03c.55,.96,.22,2.19-.75,2.74-.96,.55-2.19,.22-2.74-.75-.05-.09-.1-.2-.14-.29-.56-1.51-.96-3.05-1.1-4.58-.12-1.53-.13-3.03,.04-4.51,.17-1.47,.45-2.91,.81-4.31,.36-1.4,.85-2.77,1.64-4.01,.03-.05,.09-.06,.13-.03,.03,.02,.05,.06,.05,.09Z"/><path class="g" d="M40.2,152.43c-.71,2.5-1.36,4.98-1.85,7.48-.49,2.5-.75,5.03-.78,7.53-.03,2.5,.26,4.97,.8,7.34,.54,2.38,1.51,4.58,2.66,6.65l.06,.11c.54,.97,.19,2.19-.77,2.73-.97,.54-3.71-3-4.08-4.07-.55-1.57-.96-3.17-1.16-4.8-.33-2.73-.4-5.46-.05-8.12,.34-2.66,.92-5.26,1.72-7.78,.81-2.51,1.82-4.96,3.28-7.15,.03-.04,.09-.06,.13-.03,.04,.02,.05,.07,.04,.11Z"/><path class="g" d="M29.64,133.86c-.9,2.72-1.71,5.43-2.36,8.17-.64,2.74-1.05,5.51-1.21,8.28-.14,2.77,.04,5.51,.52,8.16,.5,2.66,1.45,5.15,2.65,7.48l.06,.11c.51,.98,.12,2.19-.86,2.7s-4.02-4.23-4.45-5.89c-.33-1.29-.58-2.59-.7-3.91-.26-3-.21-6,.25-8.91,.47-2.91,1.2-5.74,2.15-8.48,.97-2.73,2.14-5.4,3.78-7.79,.03-.04,.09-.05,.13-.02,.04,.02,.05,.07,.04,.11Z"/><path class="g" d="M31.77,153.17c-.09,2.06-.2,4.08-.25,6.09-.04,2.01,.05,4.01,.29,5.98,.25,1.96,.64,3.88,1.21,5.71,.6,1.82,1.39,3.53,2.36,5.07l.04,.07c.59,.94,.31,2.17-.63,2.76s-4.61-4.95-5.01-7.09c-.37-2.14-.56-4.28-.52-6.4,.06-2.12,.27-4.2,.61-6.26,.34-2.05,.84-4.08,1.72-5.98,.02-.05,.08-.07,.13-.05,.04,.02,.06,.06,.06,.1Z"/><path class="g" d="M20.5,137.27c-.3,1.71-.56,3.38-.72,5.03-.15,1.66-.12,3.32,.09,4.93,.08,.81,.27,1.6,.41,2.38,.23,.77,.39,1.55,.71,2.28,.51,1.5,1.29,2.86,2.11,4.18l.07,.11c.59,.94,.3,2.18-.64,2.77-.94,.59-3.43-2.06-3.69-2.67-.46-1.13-.85-2.28-1.07-3.47-.23-.9-.29-1.83-.42-2.74-.04-.92-.11-1.83-.03-2.74,.09-1.82,.37-3.6,.83-5.31,.46-1.71,1.13-3.38,2.18-4.82,.03-.04,.09-.05,.13-.02,.03,.02,.04,.06,.04,.09h0Z"/><path class="g" d="M17.44,128.17c-.48,1.67-.91,3.3-1.24,4.93-.32,1.63-.46,3.29-.43,4.91,0,.81,.1,1.62,.16,2.41,.15,.79,.23,1.58,.47,2.34,.35,1.54,.98,2.98,1.66,4.37l.06,.11c.49,1,.07,2.2-.92,2.68-1,.49-2.2,.07-2.68-.92-.03-.07-.07-.15-.09-.23-.61-1.78-1.17-3.58-1.31-5.45-.14-.92-.1-1.85-.13-2.77,.06-.92,.08-1.83,.25-2.73,.27-1.8,.74-3.54,1.38-5.2,.64-1.65,1.47-3.24,2.67-4.56,.04-.04,.1-.04,.14,0,.03,.03,.04,.06,.03,.1h0Z"/><path class="g" d="M13.39,118.35c-.48,1.67-.91,3.3-1.24,4.93-.32,1.63-.46,3.29-.43,4.91,0,.81,.1,1.62,.16,2.41,.15,.79,.23,1.58,.47,2.34,.35,1.54,.98,2.98,1.66,4.37l.06,.11c.49,1,.07,2.2-.92,2.68-1,.49-2.2,.07-2.68-.92-.03-.07-.07-.15-.09-.23-.61-1.78-1.17-3.58-1.31-5.45-.14-.92-.1-1.85-.13-2.77,.06-.92,.08-1.83,.25-2.73,.27-1.8,.74-3.54,1.38-5.2,.64-1.65,1.47-3.24,2.67-4.56,.04-.04,.1-.04,.14,0,.03,.03,.04,.06,.03,.1h0Z"/><path class="g" d="M39.26,95.68c-2.11,1.75-2.97,5.04-2.27,7.96,.19,.72,.42,1.45,.79,2.11,.16,.35,.37,.63,.58,1,.27,.4,.54,.81,.79,1.24,.98,1.67,1.88,3.71,1.78,6-.04,1.12-.35,2.18-.72,3.11-.37,.93-.81,1.75-1.2,2.54-.4,.79-.76,1.56-1.06,2.35-.3,.79-.52,1.47-.55,2.24-.04,.76,.06,1.56,.23,2.45,.17,.88,.35,1.85,.34,2.84,.01,2-.79,3.86-1.99,5.25l-.12-.07c.1-.46,.23-.89,.35-1.32,.07-.44,.22-.86,.27-1.29,.17-.84,.2-1.68,.08-2.49-.11-.82-.38-1.61-.68-2.47-.29-.86-.61-1.83-.67-2.88-.04-.53,0-1.05,.05-1.58,.1-.51,.19-1.04,.33-1.49,.27-.93,.62-1.82,.97-2.67,.71-1.71,1.39-3.22,1.34-4.6-.01-1.37-.66-2.78-1.58-4.15-.23-.34-.47-.68-.73-1.01-.27-.4-.62-.84-.87-1.29-.55-.9-.93-1.89-1.24-2.9-.29-1.02-.43-2.07-.48-3.13,0-1.06,.08-2.13,.33-3.18,.27-1.04,.67-2.06,1.21-3.02,.57-.95,1.28-1.82,2.11-2.58l2.62,3.03Z"/><path class="g" d="M60.51,38.05c-1.12-.37-2.27-.62-3.39-.75-1.12-.12-2.25-.1-3.19,.16-.68,.18-1.38-.22-1.56-.9-.18-.68,.22-1.38,.9-1.56,.15-.04,.29-.05,.44-.04h.06c1.4,.13,2.61,.56,3.73,1.08,1.11,.54,2.14,1.17,3.09,1.9,.03,.02,.03,.06,.01,.08-.02,.02-.05,.03-.07,.02Z"/><path class="g" d="M59.27,34.26c.9-.15,1.76-.47,2.5-.89,.75-.42,1.35-1,1.75-1.63l.06,1.43c-.77-.83-1.37-1.64-1.98-2.51-.59-.86-1.14-1.74-1.64-2.64-1-1.81-1.83-3.7-2.49-5.63-.01-.04,0-.08,.04-.09,.03-.01,.07,0,.09,.03,.94,1.8,2.03,3.51,3.25,5.09,.61,.79,1.27,1.55,1.94,2.27,.67,.71,1.41,1.43,2.12,1.99,.41,.32,.48,.91,.16,1.32l-.04,.05-.06,.06c-.88,.68-1.87,1.08-2.84,1.26-.98,.18-1.94,.18-2.87,.03-.04,0-.07-.04-.06-.08,0-.03,.03-.05,.06-.06h0Z"/></g></g></g></svg>