<?xml version="1.0" encoding="UTF-8"?><svg xmlns="http://www.w3.org/2000/svg" viewBox="0 0 559.14 400.66"><defs><style>.d{fill:#7c4182;}</style></defs><g id="a"/><g id="b"><g id="c"><path class="d" d="M88.13,400.57c-2.28,0-4.55-.87-6.29-2.6-3.47-3.47-3.47-9.11,0-12.58,3.47-3.46,9.11-3.47,12.58,0s3.47,9.11,0,12.58c-1.73,1.73-4.01,2.6-6.29,2.6Zm0-16.28c-1.89,0-3.79,.72-5.23,2.16-2.88,2.88-2.88,7.57,0,10.45s7.57,2.88,10.45,0c2.88-2.88,2.88-7.57,0-10.45-1.44-1.44-3.33-2.16-5.23-2.16Z"/><path class="d" d="M8.89,209.16c-4.9,0-8.89-3.99-8.89-8.89s3.99-8.89,8.89-8.89,8.89,3.99,8.89,8.89-3.99,8.89-8.89,8.89Zm0-16.28c-4.08,0-7.39,3.32-7.39,7.39s3.32,7.39,7.39,7.39,7.39-3.32,7.39-7.39-3.32-7.39-7.39-7.39Z"/><path class="d" d="M88.22,17.78c-2.28,0-4.55-.87-6.29-2.6-3.47-3.47-3.47-9.11,0-12.58,3.47-3.47,9.11-3.47,12.58,0,3.47,3.47,3.47,9.11,0,12.58-1.73,1.73-4.01,2.6-6.29,2.6Zm0-16.28c-1.89,0-3.79,.72-5.23,2.16-2.88,2.88-2.88,7.57,0,10.45,2.88,2.88,7.57,2.88,10.45,0,2.88-2.88,2.88-7.57,0-10.45-1.44-1.44-3.33-2.16-5.23-2.16Z"/><path class="d" d="M471.02,17.87c-2.28,0-4.55-.87-6.29-2.6-3.47-3.47-3.47-9.11,0-12.58,3.47-3.47,9.11-3.47,12.58,0,3.47,3.47,3.47,9.11,0,12.58-1.73,1.73-4.01,2.6-6.29,2.6Zm0-16.28c-1.89,0-3.79,.72-5.23,2.16-2.88,2.88-2.88,7.57,0,10.45,2.88,2.88,7.57,2.88,10.45,0,2.88-2.88,2.88-7.57,0-10.45-1.44-1.44-3.33-2.16-5.23-2.16Z"/><path class="d" d="M550.25,209.29c-4.9,0-8.89-3.99-8.89-8.89s3.99-8.89,8.89-8.89,8.89,3.99,8.89,8.89-3.99,8.89-8.89,8.89Zm0-16.28c-4.08,0-7.39,3.32-7.39,7.39s3.32,7.39,7.39,7.39,7.39-3.32,7.39-7.39-3.32-7.39-7.39-7.39Z"/><path class="d" d="M470.92,400.66c-2.28,0-4.55-.87-6.29-2.6-3.47-3.47-3.47-9.11,0-12.58,3.47-3.46,9.11-3.47,12.58,0s3.47,9.11,0,12.58c-1.73,1.73-4.01,2.6-6.29,2.6Zm0-16.28c-1.89,0-3.79,.72-5.23,2.16-2.88,2.88-2.88,7.57,0,10.45s7.57,2.88,10.45,0c2.88-2.88,2.88-7.57,0-10.45-1.44-1.44-3.33-2.16-5.23-2.16Z"/></g></g></svg>