<?xml version="1.0" encoding="UTF-8"?><svg xmlns="http://www.w3.org/2000/svg" viewBox="0 0 357.72 216.91"><defs><style>.d{fill:#fff;}.e{fill:none;stroke:#fff;stroke-miterlimit:10;stroke-width:3px;}</style></defs><g id="a"/><g id="b"><g id="c"><polygon class="e" points="189.98 44.41 116.06 1.73 42.13 44.4 42.13 129.76 116.06 172.44 189.98 129.77 189.98 44.41"/><rect class="d" x="17" y="85.4" width="75.74" height="3.37" transform="translate(141.95 32.22) rotate(90)"/><rect class="d" x="108.07" y="34.05" width="75.74" height="3.37" transform="translate(37.42 -68.18) rotate(30)"/><rect class="d" x="108.07" y="136.46" width="75.74" height="3.37" transform="translate(-49.52 91.48) rotate(-30)"/><rect class="d" x="184.47" y="22.92" width="75.74" height="3.37" transform="translate(17.48 114.47) rotate(-30)"/><rect class="d" x="248.54" y="22.92" width="75.74" height="3.37" transform="translate(50.68 -139.91) rotate(30)"/><rect class="d" x="313.5" y="28.92" width="47.37" height="3.37" transform="translate(633.21 -133.71) rotate(145.78)"/><rect class="d" x="92.37" y="191.54" width="47.37" height="3.37" transform="translate(309.28 77.17) rotate(90)"/><rect class="d" x="-2.33" y="29.92" width="47.37" height="3.37" transform="translate(24.05 69.66) rotate(-150)"/><rect class="d" x="-.26" y="142.77" width="47.37" height="3.37" transform="translate(129.1 245.69) rotate(142.99)"/></g></g></svg>