<?xml version="1.0" encoding="UTF-8"?><svg xmlns="http://www.w3.org/2000/svg" viewBox="0 0 79.96 80.07"><defs><style>.h{fill:#fff;}.i{fill:#100c08;}.j{fill:#965f36;}.k{fill:#cd9e3d;}</style></defs><g id="a"/><g id="b"><g id="c"><g id="d"><g id="e"><path class="i" d="M65.01,42.83l-.77,.51-2.31,1.53c-1.53,1.01-5.51,3.8-9.43,7.7-3.92,3.91-6.71,7.88-7.73,9.41l-1.53,2.3-.51,.77,.72,.57,2.17,1.71c.77,.61,1.7,1.14,2.69,1.55l.37,.28,2.25,1.71c.62,.48,1.32,.88,2.06,1.21l2.8,2.06c.58,.43,1.53,1.01,2.82,1.43l2.23,1.53c1.45,.99,3.18,1.54,4.87,1.54,.26,0,.51-.01,.76-.04l.8,.39c1.44,.69,3.19,1.07,4.92,1.07,2.38,0,4.41-.72,5.72-2.03,2.57-2.56,2.51-7.42,.98-10.64l-.38-.81c.2-1.91-.34-3.95-1.49-5.63l-1.53-2.24c-.41-1.28-.99-2.24-1.42-2.82l-2.05-2.81c-.33-.74-.73-1.43-1.21-2.07l-1.72-2.23-.22-.28c-.41-1.02-.96-1.99-1.58-2.78l-1.71-2.18-.57-.73h0Z"/><g><g><path class="k" d="M66.89,75.14c2.4,2.41,7.2,2.48,8.91,.78,1.7-1.7,1.64-6.5-.76-8.91l-8.15,8.13Z"/><path class="i" d="M71.52,78.43c-2.22-.14-4.26-.99-5.6-2.33-.53-.53-.53-1.4,0-1.93l8.15-8.13c.25-.25,.6-.4,.96-.4h0c.36,0,.71,.14,.96,.4,2.99,2.99,2.96,8.64,.76,10.84-1,1-2.69,1.56-4.62,1.56-.2,0-.41,0-.62-.02Zm-2.54-3.45c.78,.41,1.72,.66,2.71,.73,1.56,.1,2.7-.31,3.14-.75,.93-.92,1.11-3.81,.05-5.86l-5.9,5.89Z"/></g><g><path class="j" d="M61.78,74c1.78,1.9,6.39,2.88,7.64-1.16,0,0,1.96,.3,2.78-.52,.82-.82,.53-2.78,.53-2.78,4.04-1.23,3.07-5.85,1.18-7.63,0,0-3.36,2.05-6.71,5.4s-5.41,6.7-5.41,6.7Z"/><path class="i" d="M61.05,74.68c-.31-.33-.36-.82-.12-1.21,.09-.14,2.16-3.49,5.56-6.88,3.4-3.39,6.75-5.45,6.89-5.54,.38-.23,.88-.18,1.21,.13,1.3,1.22,2.34,3.64,1.82,5.88-.33,1.42-1.25,2.51-2.63,3.15,.02,.83-.11,2.06-.88,2.82-.77,.76-1.98,.89-2.82,.87-.64,1.37-1.73,2.29-3.15,2.62-.4,.09-.81,.13-1.21,.13-1.86,0-3.66-.9-4.67-1.97Zm8.51-2.83c.7,.1,1.66,.03,1.93-.24,.27-.27,.35-1.23,.25-1.92-.07-.49,.22-.96,.7-1.1,1.12-.34,1.8-1.01,2.02-1.98,.27-1.15-.13-2.48-.75-3.38-1.14,.77-3.49,2.47-5.81,4.79-2.32,2.32-4.02,4.66-4.8,5.8,.9,.62,2.23,1.02,3.38,.75,.97-.22,1.64-.9,1.98-2.02,.13-.42,.52-.71,.96-.71,.05,0,.1,0,.15,.01Z"/></g><g><path class="j" d="M56.85,71.11c2.08,2.22,7.48,3.37,8.93-1.35,0,0,2.29,.35,3.25-.61,.96-.96,.62-3.25,.62-3.25,4.73-1.44,3.59-6.84,1.37-8.93,0,0-3.93,2.4-7.85,6.31-3.92,3.91-6.33,7.83-6.33,7.83Z"/><path class="i" d="M56.12,71.79c-.31-.33-.36-.82-.12-1.21,.1-.16,2.52-4.07,6.48-8.02,3.96-3.95,7.87-6.36,8.03-6.46,.38-.23,.88-.18,1.21,.13,1.49,1.4,2.68,4.16,2.08,6.72-.38,1.64-1.46,2.9-3.08,3.61,.03,.94-.08,2.4-.97,3.29s-2.34,1-3.29,.97c-.71,1.61-1.98,2.69-3.62,3.07-.46,.11-.92,.15-1.38,.15-2.12,0-4.18-1.03-5.33-2.25Zm9.81-3.03c.73,.11,1.99,.08,2.4-.33s.44-1.67,.33-2.4c-.07-.49,.22-.96,.7-1.1,1.37-.42,2.2-1.24,2.48-2.43,.34-1.45-.2-3.13-1-4.23-1.28,.86-4.14,2.89-6.96,5.71-2.82,2.82-4.86,5.67-5.73,6.95,1.09,.8,2.77,1.34,4.23,1.01,1.2-.28,2.02-1.11,2.44-2.48,.13-.42,.52-.71,.96-.71,.05,0,.1,0,.15,.01Z"/></g><g><path class="k" d="M52.05,67.87c2.31,2.47,8.31,3.75,9.92-1.5,0,0,2.55,.39,3.61-.68,1.07-1.07,.69-3.61,.69-3.61,5.25-1.6,3.99-7.6,1.53-9.92,0,0-4.37,2.67-8.72,7.01-4.36,4.34-7.03,8.7-7.03,8.7Z"/><path class="i" d="M51.32,68.56c-.31-.33-.36-.82-.12-1.21,.11-.18,2.79-4.51,7.18-8.89,4.39-4.38,8.72-7.05,8.9-7.16,.38-.23,.88-.18,1.21,.13,1.63,1.53,2.93,4.55,2.28,7.36-.42,1.81-1.63,3.2-3.43,3.97,.04,1.01-.07,2.67-1.04,3.64-.98,.97-2.64,1.08-3.65,1.03-.77,1.8-2.16,3-3.97,3.42-.5,.12-1.01,.17-1.52,.17-2.32,0-4.58-1.13-5.84-2.46Zm10.8-3.18c.83,.12,2.28,.08,2.76-.4,.48-.48,.53-1.93,.4-2.76-.07-.49,.22-.96,.7-1.1,1.56-.48,2.52-1.42,2.83-2.79,.39-1.68-.25-3.64-1.19-4.87-1.38,.92-4.63,3.22-7.84,6.42-3.21,3.2-5.51,6.44-6.44,7.83,1.24,.94,3.18,1.59,4.87,1.2,1.37-.32,2.31-1.27,2.79-2.83,.13-.42,.52-.71,.96-.71,.05,0,.1,0,.15,.01Z"/></g><g><path class="k" d="M46.81,64.37c2.57,2.75,9.23,4.16,11.03-1.67,0,0,2.83,.43,4.02-.75,1.19-1.18,.76-4.01,.76-4.01,5.84-1.78,4.44-8.44,1.7-11.02,0,0-4.85,2.96-9.69,7.79-4.84,4.83-7.81,9.67-7.81,9.67Z"/><path class="i" d="M46.08,65.05c-.31-.33-.36-.82-.12-1.21,.12-.2,3.09-5,7.96-9.86,4.87-4.85,9.67-7.81,9.87-7.94,.38-.23,.88-.18,1.21,.13,1.79,1.68,3.22,4.99,2.5,8.07-.34,1.45-1.28,3.32-3.82,4.36,.05,1.09-.04,2.96-1.12,4.04s-2.96,1.17-4.04,1.11c-1.05,2.53-2.92,3.47-4.37,3.81-.55,.13-1.11,.18-1.66,.18-2.55,0-5.03-1.23-6.4-2.7Zm11.9-3.34c.76,.11,2.54,.15,3.16-.47,.62-.62,.59-2.4,.48-3.16-.07-.49,.22-.96,.7-1.1,1.78-.54,2.86-1.61,3.23-3.18,.45-1.94-.31-4.2-1.4-5.59-1.49,.99-5.18,3.57-8.82,7.2-3.64,3.63-6.23,7.31-7.22,8.8,1.39,1.1,3.65,1.87,5.59,1.42,1.57-.36,2.64-1.44,3.19-3.22,.13-.42,.52-.71,.96-.71,.05,0,.1,0,.15,.01Z"/></g><g><path class="j" d="M41.46,60.75c2.83,3.02,10.15,4.58,12.13-1.84,0,0,3.11,.47,4.42-.83,1.3-1.3,.84-4.42,.84-4.42,6.42-1.96,4.88-9.29,1.87-12.12,0,0-5.34,3.26-10.66,8.57-5.32,5.31-8.6,10.64-8.6,10.64Z"/><path class="i" d="M40.73,61.44c-.31-.33-.36-.82-.12-1.21,.14-.22,3.4-5.49,8.74-10.82,5.35-5.33,10.62-8.58,10.84-8.71,.38-.23,.88-.18,1.21,.13,1.9,1.79,3.49,5.47,2.72,8.78-.37,1.58-1.41,3.63-4.2,4.75,.06,1.17-.02,3.26-1.2,4.44-1.19,1.18-3.27,1.25-4.44,1.19-1.13,2.8-3.18,3.83-4.76,4.19-.58,.13-1.17,.2-1.76,.2-2.79,0-5.55-1.37-7.02-2.94Zm13.01-3.51c.86,.13,2.85,.16,3.56-.55,.71-.71,.68-2.71,.56-3.56-.07-.49,.22-.96,.7-1.1,1.99-.61,3.21-1.81,3.62-3.57,.51-2.2-.37-4.76-1.62-6.31-1.59,1.05-5.72,3.92-9.79,7.98-4.07,4.06-6.95,8.18-8.01,9.77,1.55,1.26,4.1,2.14,6.3,1.64,1.76-.41,2.96-1.62,3.58-3.61,.13-.42,.52-.71,.96-.71,.05,0,.1,0,.15,.01Z"/></g><path class="i" d="M53.75,52.41l1.67,3.09-3.09-1.68,1.42-1.41Zm-.04-.39l2.32,.53-1.1-2.11-1.22,1.58Zm1.01-1.94l3.59,.64-2.71-2.44-.88,1.8Zm.89-4.05l-.64,1.9,2.98-.05-2.34-1.84Zm-5.21,8.91l2.08,1.15-.47-2.33-1.61,1.18Zm-2.19,.71l2.43,2.72-.63-3.59-1.8,.87Zm-.41,2.35l.06-2.98-1.9,.63,1.84,2.34Z"/><path class="i" d="M54.75,62.94c.32,.32,.32,.83,0,1.15-.32,.32-.83,.32-1.15,0s-.32-.83,0-1.15c.32-.32,.83-.32,1.15,0Zm8.2-8.28c.32,.32,.83,.32,1.15,0s.32-.83,0-1.15c-.32-.32-.83-.32-1.15,0-.32,.32-.32,.83,0,1.15Zm-4.97,11.72c-.29,.29-.29,.75,0,1.04,.29,.29,.75,.29,1.04,0,.29-.29,.29-.75,0-1.04-.29-.29-.75-.29-1.04,0Zm9.49-7.4c.29-.29,.29-.75,0-1.04-.29-.29-.75-.29-1.03,0-.29,.29-.29,.75,0,1.04,.29,.29,.75,.29,1.04,0Zm-5.29,10.77c-.26,.26-.26,.67,0,.93,.26,.26,.67,.26,.93,0s.26-.67,0-.93c-.26-.26-.67-.26-.93,0Zm7.61-7.6c-.26,.26-.26,.67,0,.93,.26,.26,.67,.26,.93,0,.26-.26,.26-.67,0-.93-.26-.26-.67-.26-.93,0Zm-3.57,10.51c-.22,.22-.22,.57,0,.79,.22,.22,.57,.22,.79,0,.22-.22,.22-.57,0-.79-.22-.22-.57-.22-.79,0Zm6.47-6.46c-.22,.22-.22,.57,0,.79,.22,.22,.57,.22,.79,0,.22-.22,.22-.57,0-.79s-.57-.22-.79,0Zm-13.35-15.98c.35,.35,.92,.35,1.27,0,.35-.35,.35-.92,0-1.27-.35-.35-.92-.35-1.27,0-.35,.35-.35,.92,0,1.27Zm-10.34,10.31c.35,.35,.92,.35,1.27,0s.35-.92,0-1.27c-.35-.35-.92-.35-1.27,0s-.35,.92,0,1.27Z"/></g></g><g id="f"><path class="i" d="M6.44,20.36c4.29,1.89,7.59,1.8,11.35,1.67,2.2-.07,4.15,.62,5.57,1.33-.71-1.42-1.39-3.37-1.32-5.57,.13-3.76,.23-7.05-1.65-11.35-2.33-5.35,1.33-7.52,4.9-5.92,3.18,1.42,9.46,5.77,10.44,12.15,.8,5.19-.39,9.26-2.1,11.9,.29,.42,.53,.88,.69,1.38,.25,.75,.34,1.55,.26,2.37-.07,.78-.28,1.55-.63,2.28-.35,.73-.83,1.4-1.41,1.99-.59,.59-1.26,1.06-2,1.41-.73,.35-1.5,.56-2.28,.62-.18,.02-.35,.02-.53,.02-.64,0-1.25-.1-1.84-.29-.5-.17-.96-.4-1.38-.69-2.64,1.7-6.72,2.88-11.9,2.07-6.38-1-10.71-7.29-12.12-10.47-1.59-3.57,.6-7.23,5.94-4.88Z"/><path class="k" d="M3.79,23.8c-.29-.33-.57-.68-.78-1.07-.03-.05-.02-.12,.02-.17,.05-.06,.14-.06,.2,0,.32,.29,.61,.59,.91,.9l.31-.56s.06-.07,.11-.08c.08,0,.15,.05,.16,.13l.12,1.2h0c.14,.15,.28,.29,.43,.42l.46-.97s.07-.08,.13-.08c.08,0,.15,.06,.15,.14l.03,1.54c.16,.13,.31,.25,.47,.38l.44-1.58c.02-.06,.07-.1,.13-.1,.08,0,.15,.06,.15,.14l.11,2.13c.08,.05,.15,.11,.23,.16,.11,.07,.23,.13,.34,.2l.38-2.18c.01-.06,.06-.11,.13-.12,.08,0,.15,.05,.16,.13l.25,2.7c.23,.12,.47,.22,.71,.34l.18-2.71c0-.07,.05-.12,.12-.13,.08-.01,.15,.04,.16,.12l.5,3.13c.27,.1,.55,.21,.82,.29l.02-3.13c0-.07,.05-.13,.11-.14,.08-.02,.15,.03,.17,.11l.67,3.41c.19,.04,.38,.1,.57,.14,.09,.02,.19,.03,.28,.05l-.12-3.42c0-.07,.04-.13,.11-.14,.08-.02,.15,.03,.17,.11l.82,3.58c.31,.02,.62,.04,.93,.03l-.47-3.54c0-.07,.03-.13,.1-.15,.07-.02,.16,.02,.18,.09l1.16,3.57c.29-.02,.59-.03,.88-.06l-.63-3.47c-.01-.07,.02-.13,.09-.16,.07-.03,.16,0,.18,.08l1.33,3.47c.25-.02,.5-.03,.75-.04h.03l-.81-3.41c-.02-.07,.02-.13,.08-.16,.07-.03,.16,0,.19,.07l1.54,3.46c.25,0,.5,0,.76-.01l-.62-3.08c-.01-.06,.02-.13,.08-.16,.07-.03,.16,0,.19,.08l1.35,3.17c.23,0,.46,.02,.68,.04l-.5-2.5c-.01-.06,.02-.13,.08-.16,.07-.03,.16,0,.19,.07l1.25,2.66c.26,.03,.51,.07,.77,.11l-.4-1.66c-.01-.06,.01-.12,.06-.16,.07-.04,.16-.02,.2,.05l.98,1.57c.06-.4,.17-.79,.35-1.18,.22-.47,1.58,.13,1.98-.27s-.2-1.76,.27-1.98c.38-.18,.78-.29,1.18-.35l-1.57-.98c-.05-.03-.08-.09-.06-.16,.02-.08,.1-.12,.17-.11l1.66,.4c-.04-.26-.08-.51-.11-.77l-2.66-1.26c-.06-.03-.09-.09-.08-.16,.02-.08,.09-.13,.17-.11l2.5,.51c-.01-.23-.03-.46-.04-.68l-3.17-1.35c-.06-.03-.1-.09-.08-.16,.02-.08,.09-.13,.17-.11l3.07,.63c0-.25,0-.5,.01-.76l-3.46-1.55c-.06-.03-.1-.1-.08-.16,.02-.08,.1-.12,.17-.1l3.4,.82v-.03c.01-.25,.03-.5,.05-.75l-3.47-1.33c-.06-.02-.1-.09-.09-.16,.01-.08,.09-.13,.17-.11l3.47,.64c.02-.3,.04-.59,.06-.88l-3.57-1.17c-.06-.02-.11-.09-.1-.15,.01-.08,.08-.13,.16-.12l3.54,.48c0-.31-.01-.62-.03-.93l-3.58-.83c-.07-.02-.11-.07-.11-.14,0-.08,.07-.14,.15-.14l3.42,.13c-.02-.09-.03-.19-.05-.28-.03-.19-.09-.38-.13-.57l-3.4-.68c-.06-.01-.11-.07-.11-.14,0-.08,.06-.14,.14-.14h3.13c-.09-.29-.19-.56-.29-.83l-3.13-.5c-.06-.01-.12-.06-.12-.13,0-.08,.05-.15,.13-.15l2.71-.17c-.11-.24-.21-.48-.33-.71l-2.7-.25c-.06,0-.12-.05-.13-.12-.01-.08,.04-.15,.12-.17l2.19-.37c-.07-.11-.13-.23-.2-.34-.05-.08-.11-.15-.16-.23l-2.13-.12c-.06,0-.11-.04-.13-.11-.02-.08,.02-.16,.1-.18l1.58-.44c-.12-.16-.25-.31-.37-.47l-1.54-.03c-.05,0-.1-.03-.13-.08-.03-.07,0-.16,.07-.19l.97-.45c-.13-.15-.28-.28-.42-.43h0l-1.2-.13s-.09-.03-.11-.08c-.04-.07-.01-.16,.06-.2l.56-.31c-.3-.29-.61-.59-.9-.91-.04-.04-.05-.11-.02-.17,.04-.07,.13-.09,.2-.06,.39,.22,.74,.49,1.07,.79l.27-.52s.06-.07,.11-.08c.08-.01,.16,.04,.17,.12l.18,1.12v.09c.14,.14,.27,.28,.4,.42l.57-.89s.08-.07,.14-.07c.08,0,.14,.08,.13,.16l-.18,1.57v.03c.14,.18,.28,.35,.42,.54l1.02-1.22s.1-.06,.16-.04c.08,.03,.11,.11,.09,.18l-.66,1.9v.03c.03,.06,.08,.12,.12,.18,.08,.13,.15,.27,.23,.4l1.47-1.48s.11-.06,.17-.02c.07,.04,.09,.13,.06,.19l-1.19,2.18c.14,.26,.25,.53,.38,.8l2.14-1.7c.05-.04,.12-.04,.18,0,.06,.05,.07,.14,.02,.2l-1.94,2.43c.11,.28,.22,.57,.31,.86l2.73-1.76c.06-.04,.13-.03,.18,.02,.05,.06,.05,.15,0,.2l-2.65,2.55c.04,.19,.1,.39,.14,.58,.02,.08,.02,.16,.03,.24l3.24-1.62c.06-.03,.14-.01,.18,.04,.05,.06,.03,.15-.03,.2l-3.25,2.42c.03,.3,.03,.61,.03,.92l3.53-1.4c.06-.03,.14,0,.17,.06,.04,.07,.02,.15-.05,.2l-3.66,2.22h0c-.02,.27-.03,.53-.05,.8l3.55-1.21c.06-.02,.14,0,.17,.07,.04,.07,.01,.16-.06,.19l-3.73,2.03h0c-.02,.23-.04,.46-.05,.69l3.43-1.09c.06-.02,.14,0,.17,.07,.04,.07,0,.16-.06,.19l-3.57,1.87c0,.24-.01,.48-.01,.72l2.88-.85c.06-.02,.13,0,.17,.07,.04,.07,.01,.16-.06,.19l-2.98,1.61c0,.23,.02,.45,.04,.68l2.31-.67c.06-.02,.13,0,.16,.06,.04,.07,.02,.16-.05,.2l-2.35,1.39c.03,.27,.07,.54,.11,.81l1.42-.51c.05-.02,.12,0,.16,.04,.05,.06,.04,.15-.02,.2l-1.26,1.08c.22,.03,.44,.07,.64,.14,.44,.15,.84,.38,1.17,.72,.34,.34,.57,.74,.72,1.17,.14,.44,.19,.91,.15,1.39-.04,.48-.18,.97-.4,1.44-.22,.47-.54,.92-.94,1.32-.4,.4-.85,.71-1.32,.93-.47,.22-.96,.36-1.44,.4-.48,.04-.96,0-1.39-.15-.44-.15-.84-.38-1.17-.72-.34-.34-.57-.74-.72-1.17-.07-.21-.11-.42-.14-.64l-1.08,1.26s-.1,.06-.16,.04c-.07-.03-.11-.11-.09-.18l.51-1.42c-.27-.04-.54-.08-.81-.11l-1.4,2.35c-.03,.05-.1,.08-.16,.06-.08-.02-.12-.1-.1-.18l.68-2.31c-.23-.01-.45-.03-.68-.04l-1.61,2.97c-.03,.06-.1,.09-.17,.07-.08-.02-.12-.1-.1-.18l.86-2.88c-.24,0-.48,0-.72,.01l-1.88,3.57c-.03,.06-.1,.09-.17,.07-.07-.02-.12-.1-.09-.18l1.09-3.42c-.23,0-.46,.03-.69,.05h0l-2.03,3.73c-.03,.06-.1,.09-.17,.07-.07-.03-.11-.11-.09-.18l1.22-3.54c-.26,.02-.52,.04-.79,.05h0l-2.23,3.67c-.04,.06-.11,.08-.17,.06-.07-.03-.11-.11-.08-.18l1.41-3.53c-.31,0-.61,0-.92-.03l-2.42,3.25c-.04,.05-.12,.07-.18,.04-.07-.04-.1-.12-.06-.19l1.63-3.23c-.08-.01-.16-.02-.24-.03-.2-.04-.39-.09-.58-.14l-2.56,2.64s-.12,.06-.18,.02c-.07-.04-.08-.13-.04-.2l1.77-2.72c-.29-.09-.58-.2-.86-.31l-2.44,1.94c-.05,.04-.12,.04-.18,0-.06-.05-.07-.14-.02-.2l1.7-2.13c-.27-.12-.54-.24-.8-.38l-2.18,1.19c-.05,.03-.12,.02-.17-.02-.06-.06-.06-.15,0-.2l1.48-1.47c-.13-.08-.27-.15-.4-.23-.06-.04-.12-.09-.18-.13h-.03l-1.9,.67c-.06,.02-.12,0-.16-.04-.05-.06-.04-.15,.02-.2l1.23-1.01c-.18-.14-.36-.28-.54-.42h-.03l-1.57,.18c-.05,0-.11-.02-.14-.07-.04-.07-.02-.16,.04-.2l.9-.57c-.14-.13-.28-.26-.42-.39h-.09l-1.12-.2s-.09-.04-.11-.08c-.04-.07,0-.16,.06-.2l.52-.27Z"/></g><g id="g"><g><path class="i" d="M38.6,24.06c-3.55,0-7.71,1.81-10.16,4.4-3,2.81-5.33,8.32-4.08,12.76,1.14,4.06,3.95,6.87,6,8.04,.82,.47,1.39,.75,1.76,.93,.19,.23,.44,.52,.77,.76,.03,.06,.07,.16,.11,.25,.15,.36,.37,.89,.85,1.38,.73,.73,1.41,1,1.76,1.15l.38,.15c.42,.17,1.02,.4,1.27,.5l.13,.05c.41,.16,1.09,.43,1.89,.43,.11,0,.23,0,.33-.02l.21-.02c.47-.04,1.18-.09,1.88-.52l.06-.03c.27-.15,.58-.35,.96-.78,.02-.02,.04-.03,.06-.05l.07,.07c.33,.32,.54,.53,.77,.7,.14,.11,.47,.36,.97,.51,.37,.32,.88,.66,1.52,.8,.29,.14,.72,.3,1.28,.3,.25,0,.5-.03,.74-.1,.07-.02,.13-.04,.2-.06,.06,0,.12,0,.18,0,.19,0,.38-.02,.57-.07,.22-.05,.42-.13,.61-.23,.29-.1,.56-.26,.81-.47,.03-.02,.07-.04,.1-.06,.09-.01,.17-.03,.26-.06,.54-.1,1.05-.37,1.42-.77,.12-.09,.24-.19,.35-.3,.12-.12,.29-.31,.43-.58,.35-.23,.64-.54,.84-.92,.08-.09,.15-.18,.21-.28,.03-.05,.07-.1,.1-.16,.19-.23,.33-.49,.43-.77,.01-.04,.03-.08,.04-.12h0c.04-.07,.09-.13,.13-.2,.11-.13,.22-.27,.31-.43,.15-.18,.27-.37,.36-.59,.21-.48,.26-1,.16-1.49,.01-.05,.02-.09,.03-.14,.12-.67,.02-1.31-.31-1.92-.14-.56-.44-1.02-.72-1.36-.1-.35-.27-.68-.52-1.01-.17-.23-.38-.44-.7-.77l-.07-.07s.03-.04,.05-.06c.43-.37,.63-.69,.79-.96l.03-.05c.44-.7,.49-1.41,.53-1.88l.02-.21c.09-.95-.22-1.75-.41-2.23l-.05-.14c-.09-.24-.32-.82-.48-1.25l-.17-.42c-.13-.33-.41-1.01-1.13-1.74-.48-.48-1.02-.71-1.37-.86-.08-.03-.19-.08-.25-.11-.24-.33-.53-.59-.76-.77-.18-.37-.46-.95-.92-1.76-1.17-2.06-3.97-4.87-8.02-6.02-.81-.23-1.7-.35-2.62-.35h0Z"/><g><path class="k" d="M48.12,54.15l-.49,.14h-.22c-.37,.01-.65-.15-.8-.23-.52-.05-.93-.38-1.27-.74-.35-.02-.6-.18-.78-.32-.14-.11-.38-.34-.64-.59-.2-.19-.4-.4-.57-.54h0c-.09-.01-.19-.03-.3-.05-.2,0-.57,.06-.77,.1,0,0-.04,.01-.09,.03-.06,.04-.13,.09-.21,.14-.01,.02-.26,.37-.26,.37l-.09,.03c-.24,.26-.4,.37-.59,.47l-.1,.06c-.38,.24-.8,.27-1.19,.3l-.24,.02c-.06,0-.13,0-.19,0-.52,0-1-.19-1.35-.32l-.17-.06c-.24-.09-.84-.33-1.25-.49l-.36-.14c-.26-.1-.73-.29-1.25-.81-.27-.27-.41-.6-.53-.89-.15-.35-.26-.63-.59-.86-.28-.2-.5-.49-.66-.7-.02-.02-.03-.04-.05-.06-.06-.03-.13-.06-.22-.11-.34-.17-.92-.44-1.77-.93-1.46-.83-4.21-3.26-5.3-7.14-1.09-3.87,1.08-8.89,3.73-11.32,2.12-2.29,5.87-3.94,9.07-3.94,.78,0,1.53,.1,2.21,.29,3.87,1.1,6.3,3.86,7.13,5.32,.48,.85,.76,1.43,.92,1.77,.04,.09,.08,.17,.11,.22,.02,.01,.04,.03,.06,.04,.21,.16,.49,.38,.7,.66,.23,.33,.51,.44,.86,.59,.29,.12,.62,.26,.89,.54,.5,.5,.69,.96,.8,1.23l.17,.43c.16,.41,.38,.97,.47,1.2l.06,.17c.15,.38,.37,.95,.31,1.54l-.02,.24c-.03,.4-.06,.81-.31,1.2l-.06,.1c-.12,.21-.24,.39-.55,.65h0c-.07,.09-.16,.18-.27,.25-.02,.01-.04,.03-.06,.04-.05,.09-.1,.16-.13,.21-.02,.08-.05,.16-.05,.16-.04,.22-.09,.62-.08,.74,.02,.09,.03,.17,.04,.25,.19,.22,.37,.41,.55,.59,.25,.26,.48,.5,.58,.64,.21,.27,.31,.52,.32,.79,.27,.26,.63,.68,.69,1.2,.16,.23,.35,.61,.26,1.13l-.07,.41,.21,.23-.23,.66-.26,.6h-.14s-.07,.09-.11,.12c-.03,.06-.06,.12-.11,.18l-.21,.27c0,.09-.03,.18-.06,.27l-.21,.61-.17,.02-.27,.42h0l-.2,.47h-.46l-.06,.15c-.03,.1-.06,.19-.11,.27l-.04,.09h-.02s-.06,.07-.09,.1l-.29,.3h-.06l-.11,.15-.04,.26h-.78v.36l-.72,.02c-.07,.07-.15,.12-.22,.16l-.38,1.16-.86-.88Zm-12.97-7.3c.48,.22,.67,.41,.88,.66,.05,.06,.12,.14,.22,.24,.15,.15,.74,.37,1,.39,.13-.05,.29-.1,.51-.14l.31-.06q.2-.04,.57-.23c.24-.12,.58-.59,.76-.84,.15-.21,.28-.37,.36-.46,.03-.03,.07-.07,.13-.12,.01-.03,.03-.06,.04-.09,.08-.18,.08-.26,.08-.42v-.29c0-.1-.02-.21-.02-.39,0-.2,.03-.34,.05-.45-.08-.16-.64-.94-.81-1.13l-.27-.27s-.08-.02-.08-.02c-.81,.29-3.08,1.34-3.46,1.72-.1,.1-.17,.17-.21,.22-.01,.1-.03,.22-.08,.36,0,.08-.03,.66-.04,1.31,.02,0,.04,.02,.06,.03Zm9.91-6.81c.19,0,.3,.01,.4,.03l.07,1.01,.03-1h.19c.16,0,.25,0,.42-.08,.04-.02,.07-.03,.1-.04,.03-.04,.07-.08,.11-.12,.09-.09,.25-.22,.46-.36,.25-.18,.72-.52,.84-.75q.19-.38,.23-.57l.06-.31c.04-.21,.09-.36,.14-.49-.04-.33-.24-.87-.38-1.02-.1-.1-.18-.17-.24-.22-.25-.21-.44-.4-.66-.89,0-.02-.02-.04-.02-.05-1.11,0-1.36,.05-1.39,.06-.09,.04-.19,.05-.28,.06-.05,.04-.12,.1-.22,.2-.38,.38-1.43,2.65-1.73,3.46,0,0,.02,.07,.02,.09l.3,.3c.15,.12,.83,.62,1.12,.76,.12-.01,.25-.03,.43-.03Z"/><path class="i" d="M38.6,26.56c.67,0,1.32,.08,1.93,.25,3.44,.98,5.72,3.42,6.53,4.85,.81,1.43,1.01,2.03,1.14,2.16,.13,.13,.53,.38,.71,.62,.63,.88,1.5,.88,1.86,1.25,.36,.36,.49,.67,.58,.9,.09,.23,.5,1.26,.62,1.59,.12,.33,.36,.84,.32,1.27-.04,.43-.04,.78-.18,1-.14,.22-.15,.3-.4,.51-.25,.21-.11,.13-.2,.2-.1,.07-.2-.06-.28,.2-.08,.25-.23,.36-.25,.45-.03,.08-.09,.3-.09,.3,0,0-.17,.87-.1,1.19,.07,.32-.06,.36,.27,.74,.32,.38,.91,.94,1.09,1.17,.18,.24,.08,.23,.11,.42,.03,.2,.07,.25,.15,.34,.08,.08,.58,.51,.55,.81-.03,.29,.33,.4,.27,.77h0c-.14,0-2.27-2.27-2.73-2.27-.04,0-.06,.01-.08,.05-.21,.48,2.63,3.1,2.76,3.24,.06,.06,.03,.07-.01,.07h-.05c-.05,0-.1,0-.11,.06,0,.13,.02,.38-.24,.38h-.01c-.13,0-.01,.25-.05,.25-.3,0-2.49-2.39-3.05-2.39-.05,0-.08,.02-.11,.05-.3,.52,2.99,3.14,2.73,3.17h-.02c-.06,0-.13-.01-.17-.01s-.07,.02-.04,.08c.06,.13,.05,.23,0,.31-.02,.02-.04,.03-.07,.03s-.07,0-.1,0c-.04,0-.08,0-.11,.04-.08,.1,.02,.28-.03,.4,0,0,0,0-.01,0-.2,0-2.41-2.43-3.03-2.43-.04,0-.08,.01-.11,.04-.37,.36,2.79,2.91,2.44,2.91h-.01s-.03,0-.04,0c-.25,0-.02,.34-.07,.39-.02,.02-.04,.03-.05,.03-.06,0-.14-.08-.29-.08-.1,0,.02,.3-.06,.41,0,0-.02,.01-.03,.01-.04,0-.09-.03-.14-.03-.03,0-.06,.02-.06,.07,0,0,0,.01-.02,.01-.22,0-2.54-2.72-3.13-2.72-.03,0-.06,0-.08,.02-.42,.32,2.29,2.71,2.29,3.04,0,.02-.01,.03-.03,.03-.06,0-.2-.07-.27-.07,0,0-.02,0-.02,0-.05,.04-.04,.34-.11,.34h0s-.05,0-.07,0c-.21,0-.26,.16-.26,.16,0,0-2.58-2.66-3.17-2.66-.03,0-.05,0-.07,.02-.38,.23,2.34,2.75,2.2,2.78-.03,0-.06,.01-.08,.01-.22,0-.4-.23-.64-.23h-.02c-.24,0-.52-.25-.83-.6-.08-.09-.14-.13-.34-.15-.03,0-.05,0-.07,0-.05,0-.08,0-.12,0-.05,0-.11-.02-.23-.11-.24-.18-.79-.77-1.17-1.09-.38-.32-.42-.2-.74-.27-.06-.01-.13-.02-.21-.02-.39,0-.98,.11-.98,.11,0,0-.22,.06-.3,.09-.09,.03-.2,.17-.45,.25-.25,.08-.13,.18-.2,.28-.07,.1,0-.05-.2,.2-.21,.25-.29,.26-.51,.4-.22,.14-.57,.13-1,.17-.03,0-.07,0-.1,0-.41,0-.87-.22-1.17-.33-.33-.12-1.36-.53-1.59-.62-.23-.09-.54-.22-.9-.58-.36-.36-.36-1.23-1.24-1.86-.25-.18-.49-.57-.62-.71-.13-.13-.73-.33-2.16-1.14-1.43-.81-3.87-3.11-4.84-6.54-.96-3.41,1-8.07,3.44-10.31,1.85-2,5.32-3.67,8.39-3.67m6.05,14.53c.16,0,.19-.05,.4-.05,.24,0,.3,.03,.47,.03,.03,0,.06,0,.09,0,.24-.01,.5,.03,.95-.17,.45-.2,.53-.28,.53-.28,0,0-.07,.04-.1,.04-.03,0-.02-.03,.08-.13,.22-.22,1.16-.74,1.49-1.37,.32-.63,.25-.53,.38-1.13,.13-.6,.15-.24,.17-.64,.02-.41-.28-1.37-.68-1.78-.41-.41-.49-.35-.7-.81-.21-.46-.07-.38-.21-.46-.14-.08-.29-.18-.41-.18-.11,0-1.71,0-1.97,.1-.27,.1-.28-.14-.94,.52-.66,.66-2.15,4.1-2.06,4.21,.08,.11,.1,.49,.27,.66l.39,.39c.1,.1,1.27,1,1.64,1.05,.09,.01,.16,.02,.21,.02m-2.08,1.06c-.11,0-.22-.03-.31-.03-.05,0-.1,.01-.14,.05-.12,.12,.03,.37-.04,.61-.08,.26,.04,.99,.12,1.22,.08,.23,.07,.35,.1,.55,.03,.2,.37,.66,.53,.91,.17,.25,.19,.48,.26,.75,.07,.26,.29,.36,.46,.48,.1,.08,.16,.09,.18,.09,.02,0,.03,0,.03,0,0,0,.1,.13,.2,.22,.09,.09,.21,.42,.41,.51,.2,.1,.4,.06,.55,.07,.15,.01,.23,.08,.3,.08h.03c.05,0,.12,.02,.22,.02,.04,0,.08,0,.13-.01,.2-.03,.29-.13,.45-.16,.16-.03,.2-.07,.19-.13-.01-.05,.14-.11,.01-.11-.02,0-.04,0-.07,0-.03,0-.05,0-.07,0-.17,0-.13-.07-.09-.24,.13-.58-2.69-3.29-2.51-3.48,0,0,.02-.01,.03-.01,.33,0,2.84,2.53,3.42,2.53,0,0,.02,0,.03,0,.07-.01,.13-.03,.16-.03,.06,0,.08,.04,.07,.19,0,.1,0,.13,.01,.13,.02,0,.06-.07,.09-.07h.02s.08-.05,.11-.19c.03-.16,.13-.25,.16-.45,.03-.2-.02-.29-.01-.37,.01-.07-.07-.16-.08-.32-.01-.16,.02-.36-.07-.56-.09-.2-.42-.32-.51-.41s-.22-.2-.22-.2c0,0,.04-.04-.08-.21-.12-.17-.22-.39-.48-.46-.26-.07-.49-.1-.74-.26-.25-.17-.71-.5-.91-.54-.2-.03-.31-.02-.54-.11-.18-.06-.64-.16-.97-.16-.1,0-.19,0-.25,.03-.05,.02-.11,.03-.16,.03m-5.28,7h.03c.41-.01,.04-.04,.64-.17,.6-.12,.5-.05,1.13-.38,.63-.32,1.15-1.26,1.37-1.48,.07-.07,.11-.1,.12-.1,.03,0-.03,.11-.03,.11,0,0,.08-.08,.28-.53,.2-.45,.15-.71,.17-.95,.02-.24-.03-.28-.03-.56,0-.28,.08-.25,.03-.62-.06-.36-.95-1.54-1.05-1.64l-.39-.39c-.17-.17-.55-.18-.66-.27,0,0,0,0-.02,0-.28,0-3.56,1.42-4.2,2.06-.66,.66-.42,.67-.52,.94-.1,.27-.1,1.86-.1,1.97,0,.11,.1,.27,.18,.41,.08,.14,0,0,.46,.21,.46,.21,.41,.29,.81,.7,.4,.4,1.33,.69,1.75,.69m1.32-24.59c-3.43,0-7.45,1.75-9.8,4.26-2.83,2.65-5.14,8.07-3.95,12.27,1.03,3.66,3.64,6.53,5.77,7.74,.88,.5,1.47,.79,1.83,.96h0c.18,.24,.43,.53,.77,.78,.08,.06,.12,.12,.25,.44,.14,.34,.33,.8,.75,1.22,.65,.66,1.27,.9,1.57,1.02l.41,.16c.42,.17,1.01,.4,1.24,.49l.15,.06c.4,.16,1,.39,1.71,.39,.1,0,.19,0,.29-.01l.22-.02c.45-.03,1.06-.08,1.65-.45l.07-.04c.25-.15,.53-.32,.86-.71,.08-.07,.16-.15,.24-.24,.1-.02,.21-.03,.29-.04,.1,.1,.2,.2,.3,.29,.32,.31,.52,.51,.73,.66,.13,.1,.44,.34,.91,.46,.34,.32,.83,.66,1.45,.78,.26,.13,.63,.28,1.11,.28,.13,0,.26-.01,.39-.03l1.61,1.66,.71-2.21h1.14v-.37h.64l.14-.8h.31l.22-.53h.45l.41-.95,.32-.03,.43-1.23c.02-.05,.04-.11,.05-.16h.24l.57-1.21c.18-.41,.21-.85,.11-1.27l.05-.25c.13-.74-.09-1.32-.29-1.66-.12-.55-.43-.99-.71-1.3-.08-.32-.23-.63-.46-.94-.16-.21-.35-.41-.66-.73-.1-.1-.2-.21-.29-.31,0-.08,.02-.18,.04-.29,.09-.08,.17-.16,.24-.24,.39-.34,.56-.61,.71-.86l.04-.07c.37-.59,.42-1.2,.45-1.65l.02-.22c.08-.83-.2-1.56-.37-2l-.05-.14c-.09-.24-.32-.82-.48-1.24l-.16-.4c-.13-.32-.38-.94-1.03-1.6-.41-.41-.88-.61-1.21-.75-.31-.13-.38-.17-.44-.25-.24-.34-.54-.59-.77-.77h0c-.17-.36-.46-.96-.96-1.84-1.21-2.13-4.06-4.75-7.72-5.79-.77-.22-1.6-.33-2.48-.33h0Zm7.02,11.62c.1,0,.3-.02,.58-.03,.18,.28,.38,.48,.63,.69,.04,.03,.08,.07,.13,.12,.04,.07,.08,.18,.11,.29-.03,.12-.06,.24-.09,.36-.03,.14-.05,.25-.07,.33v.05c-.03,.05-.07,.11-.11,.2-.11,.12-.41,.34-.56,.45-.19,.14-.37,.26-.53,.42-.06,0-.12,0-.17,0-.14-.02-.27-.03-.49-.03-.07,0-.14,0-.2,0-.16-.1-.35-.24-.5-.35,.36-.84,.96-2.09,1.26-2.51h0Zm7.88,5.41h0Zm-17.37,4.06c.43-.3,1.68-.9,2.52-1.26,.11,.15,.25,.34,.35,.5,0,.06,0,.13,0,.2,0,.23,.01,.37,.03,.49,0,.06,0,.11,0,.17-.16,.17-.29,.35-.42,.53-.11,.15-.33,.45-.45,.56-.08,.04-.15,.08-.2,.1h-.05c-.09,.03-.19,.05-.33,.07-.13,.03-.25,.05-.36,.09-.11-.03-.22-.08-.29-.12-.05-.05-.09-.1-.12-.13-.21-.24-.41-.44-.69-.63,0-.28,.02-.47,.03-.58h0Z"/></g></g><g><path class="i" d="M36.79,29.49c-.09,0-.18,0-.27,.02-.26,.04-2.65,.41-4.64,2.4-1.99,1.99-2.37,4.37-2.41,4.64-.15,1.07,.58,2.06,1.64,2.24l6.44,1.12c.11,.02,.23,.03,.34,.03,.52,0,1.03-.21,1.41-.58,.46-.46,.67-1.11,.56-1.75l-1.11-6.44c-.17-.97-1.01-1.66-1.97-1.66h0Z"/><path class="h" d="M31.45,36.81l6.44,1.12-1.11-6.44s-1.92,.26-3.5,1.83c-1.58,1.57-1.84,3.49-1.84,3.49Z"/></g></g></g></g></g></svg>