<?xml version="1.0" encoding="UTF-8"?><svg xmlns="http://www.w3.org/2000/svg" viewBox="0 0 67.96 67.97"><defs><style>.d{fill:none;}.d,.e{stroke:#7c4182;stroke-miterlimit:10;stroke-width:.5px;}.e{fill:#7c4182;}</style></defs><g id="a"/><g id="b"><g id="c"><g><path class="d" d="M26.33,5.69c.63,.26,1.2,.64,1.68,1.1l5.69-5.69-10.27,4.25c.97-.16,1.97-.05,2.9,.33Z"/><path class="d" d="M19.52,8.62c-.26,.62-.39,1.26-.4,1.91h5.15l3.64-3.64c-.46-.45-1.01-.82-1.63-1.07-.64-.26-1.31-.4-1.98-.4s-1.34,.13-1.98,.4h0c-1.28,.53-2.27,1.52-2.8,2.8Z"/><path class="d" d="M19.39,8.57c.39-.93,1.02-1.72,1.82-2.29l-10.27,4.25h8.04c0-.67,.14-1.33,.41-1.96Z"/><path class="d" d="M29.2,8.57c.26,.63,.4,1.3,.41,1.96h.32l3.86-9.33-5.69,5.69c.46,.48,.84,1.04,1.1,1.68Z"/><polygon class="d" points="17.45 17.35 20.16 14.63 10.89 10.79 17.45 17.35 17.45 17.35"/><polygon class="d" points="17.35 17.45 10.79 10.89 14.63 20.16 17.35 17.45"/><polygon class="d" points="33.91 1.26 30.07 10.53 33.91 10.53 33.91 1.26"/><path class="d" d="M20.49,14.31c-.46-.48-.84-1.04-1.1-1.68-.26-.63-.4-1.3-.41-1.96H10.94l9.33,3.86,.22-.22Z"/><polygon class="d" points="33.91 20.39 24.42 24.32 33.91 33.82 33.91 20.39"/><polygon class="d" points="24.17 43.54 20.28 34.16 17.54 40.8 24.17 43.54"/><polygon class="d" points="10.67 33.92 20.18 33.92 17.41 27.23 10.67 30.02 10.67 33.92"/><path class="d" d="M17.36,27.1l-1.52-3.67c.16,.97,.05,1.97-.33,2.9-.4,.96-1.04,1.73-1.83,2.29l3.68-1.52h0Z"/><polygon class="d" points="20.39 34.05 24.32 43.55 33.82 34.05 20.39 34.05"/><polygon class="d" points="24.32 24.42 20.39 33.92 33.82 33.92 24.32 24.42"/><path class="d" d="M29.54,11.47l.33-.8h-.26c0,.27-.03,.54-.07,.8Z"/><polygon class="d" points="33.91 10.67 33.91 10.67 30.01 10.67 29.2 12.63 27.22 17.41 33.91 20.18 33.91 10.67"/><path class="d" d="M14.31,20.49l.22-.22-3.86-9.33h0v8.04c.67,0,1.33,.14,1.96,.41,.63,.26,1.2,.64,1.68,1.1Z"/><path class="d" d="M14.4,20.59c.19,.19,.36,.4,.52,.62l-.33-.8-.18,.18Z"/><path class="d" d="M19.39,59.4c-.26-.63-.4-1.3-.41-1.96H10.94l10.27,4.25c-.8-.57-1.43-1.36-1.82-2.29Z"/><path class="d" d="M29.61,57.44c0,.66-.14,1.32-.4,1.96-.26,.63-.64,1.2-1.1,1.68l5.69,5.69-3.86-9.33h-.32Z"/><path class="d" d="M29.87,57.3l-.34-.82c.05,.27,.07,.54,.08,.82h.26Z"/><path class="d" d="M26.28,62.15c.62-.26,1.17-.62,1.63-1.07l-3.64-3.64h-5.15c0,.65,.14,1.29,.4,1.91,.53,1.28,1.52,2.27,2.8,2.8,1.28,.53,2.68,.53,3.96,0Z"/><path class="d" d="M26.33,62.27c-.65,.27-1.34,.41-2.03,.41h0c-.29,0-.58-.03-.87-.07l10.27,4.25-5.69-5.69c-.48,.46-1.04,.84-1.68,1.1Z"/><polygon class="d" points="33.91 47.58 33.91 34.15 24.42 43.65 33.91 47.58"/><polygon class="d" points="33.91 66.71 33.91 57.44 30.07 57.44 33.91 66.71"/><path class="d" d="M10.67,38.1h0v.26c.27,0,.55,.03,.82,.08l-.82-.34Z"/><path class="d" d="M10.67,29.61v.26l.81-.34c-.27,.04-.54,.07-.81,.07Z"/><path class="d" d="M14.21,47.38l-3.54-3.54v5.01c.65,0,1.3-.14,1.91-.4,.63-.26,1.17-.63,1.63-1.07Z"/><polygon class="d" points="20.18 34.05 10.67 34.05 10.67 37.95 17.41 40.74 20.18 34.05"/><polygon class="d" points="14.63 47.8 10.79 57.08 17.35 50.52 14.63 47.8"/><polygon class="d" points="17.45 50.62 10.89 57.17 20.16 53.33 17.45 50.62"/><path class="d" d="M14.31,47.47c-.48,.46-1.04,.84-1.68,1.1h0c-.63,.26-1.3,.4-1.96,.41v8.04l3.86-9.33-.22-.22Z"/><path class="d" d="M19.39,55.33c.26-.63,.64-1.2,1.1-1.68l-.22-.22-9.33,3.86h8.04c0-.67,.14-1.33,.41-1.96Z"/><polygon class="d" points="30.01 57.3 33.91 57.3 33.91 47.79 27.22 50.56 30.01 57.3"/><path class="d" d="M8.62,29.08c.63,.26,1.27,.38,1.91,.39v-5.01l-3.54,3.54c.46,.45,1.01,.82,1.63,1.07Z"/><path class="d" d="M5.82,22.32c-.53,1.28-.53,2.68,0,3.96,.26,.62,.62,1.17,1.07,1.63l3.64-3.64h0v-5.15c-.65,0-1.3,.14-1.91,.4-1.28,.53-2.27,1.52-2.8,2.8Z"/><path class="d" d="M26.28,52.59c-.64-.27-1.31-.39-1.97-.39h0c-1.35,0-2.65,.53-3.62,1.47l3.64,3.64h5.15c0-.65-.14-1.29-.4-1.91h0c-.53-1.28-1.52-2.27-2.8-2.8Z"/><path class="d" d="M6.89,28.1h0l-5.69,5.69,9.33-3.86v-.32c-.66,0-1.32-.14-1.96-.4-.63-.26-1.2-.64-1.68-1.1Z"/><path class="d" d="M24.13,57.3l-3.54-3.54c-.45,.46-.81,1-1.07,1.63h0c-.26,.62-.39,1.26-.4,1.91h5.01Z"/><path class="d" d="M20.4,53.38l.18,.18c.19-.19,.4-.36,.62-.52l-.8,.33Z"/><path class="d" d="M6.99,39.96l3.54,3.54v-5.01c-.65,0-1.3,.14-1.91,.4-.62,.26-1.17,.62-1.63,1.07Z"/><path class="d" d="M29.08,59.35c.26-.62,.39-1.26,.4-1.91h-5.01l3.54,3.54c.45-.46,.82-1.01,1.07-1.63Z"/><path class="d" d="M6.28,46.76l4.25,10.27v-8.04c-.67,0-1.33-.14-1.96-.41-.93-.39-1.72-1.02-2.29-1.82Z"/><path class="d" d="M5.69,26.33h0c-.39-.93-.5-1.93-.33-2.9L1.11,33.69l5.69-5.69c-.46-.48-.84-1.04-1.1-1.68Z"/><polygon class="d" points="10.53 37.89 10.53 34.05 10.53 34.05 1.26 34.05 10.53 37.89"/><path class="d" d="M8.57,19.39c.63-.26,1.3-.4,1.96-.41V10.94l-4.25,10.27c.57-.8,1.36-1.43,2.29-1.82Z"/><polygon class="d" points="10.53 30.07 1.26 33.92 10.53 33.92 10.53 33.92 10.53 30.07"/><path class="d" d="M6.89,39.86c.48-.46,1.04-.84,1.68-1.1,.64-.27,1.31-.4,1.96-.4v-.32l-9.33-3.86,5.69,5.69Z"/><path class="d" d="M23.42,52.13c.97-.16,1.97-.05,2.9,.33,.96,.4,1.74,1.04,2.29,1.83h0l-1.53-3.68-3.67,1.52Z"/><path class="d" d="M5.69,41.64c.26-.63,.64-1.2,1.1-1.68h0l-5.69-5.69,4.25,10.27c-.16-.97-.05-1.97,.33-2.9Z"/><path class="d" d="M5.82,41.69h0c-.53,1.28-.53,2.68,0,3.96,.53,1.28,1.52,2.27,2.8,2.8,.62,.26,1.26,.39,1.91,.39v-5.15l-3.64-3.64c-.45,.46-.82,1.01-1.07,1.63Z"/><polygon class="d" points="17.54 50.52 17.54 50.52 20.3 53.28 27.04 50.48 24.27 43.79 17.54 50.52"/><polygon class="d" points="33.8 20.28 27.17 17.54 24.42 24.17 33.8 20.28"/><path class="d" d="M57.3,38.5c-.65,0-1.3,.14-1.91,.39-1.28,.53-2.27,1.52-2.8,2.8-.81,1.97-.32,4.15,1.07,5.59l3.64-3.64v-5.15Z"/><polygon class="d" points="24.42 43.8 27.17 50.43 33.8 47.68 24.42 43.8"/><path class="d" d="M29.08,8.62c-.26-.62-.62-1.17-1.07-1.63l-3.54,3.54h5.01c0-.65-.14-1.3-.4-1.91Z"/><path class="d" d="M21.21,14.92c-.22-.16-.43-.33-.62-.52l-.18,.18,.8,.33Z"/><path class="d" d="M20.69,14.31c.46,.45,1.01,.82,1.63,1.07h0c1.28,.53,2.68,.53,3.96,0,1.28-.53,2.27-1.52,2.8-2.8,.26-.62,.39-1.26,.4-1.91h-5.15l-3.64,3.64Z"/><polygon class="d" points="14.69 20.3 15.5 22.26 15.5 22.27 17.48 27.04 24.17 24.27 17.45 17.54 14.69 20.3"/><polygon class="d" points="17.54 17.45 24.27 24.18 27.04 17.49 22.26 15.51 22.26 15.51 20.3 14.69 17.54 17.45"/><path class="d" d="M26.33,15.51c-.65,.27-1.34,.41-2.03,.41-.29,0-.58-.03-.87-.07l3.67,1.52,1.52-3.67c-.57,.8-1.36,1.43-2.29,1.82Z"/><path class="d" d="M17.36,40.87h0l-3.68-1.53c.79,.56,1.43,1.34,1.83,2.29,.39,.93,.5,1.93,.33,2.9l1.52-3.67Z"/><path class="d" d="M10.67,38.49v5.15l3.64,3.64c1.4-1.44,1.89-3.62,1.07-5.59-.53-1.28-1.52-2.27-2.8-2.8-.62-.26-1.26-.39-1.91-.4Z"/><polygon class="d" points="24.17 24.42 17.54 27.17 20.28 33.8 24.17 24.42"/><polygon class="d" points="24.17 43.69 17.48 40.92 15.5 45.7 14.69 47.67 17.45 50.42 24.17 43.69"/><path class="d" d="M10.67,29.47c2-.03,3.9-1.23,4.71-3.19,.53-1.28,.53-2.68,0-3.96-.26-.62-.62-1.17-1.07-1.63h0l-3.64,3.64v5.14Z"/><path class="d" d="M14.92,46.76c-.16,.22-.33,.43-.52,.62l.18,.18,.33-.8Z"/><path class="d" d="M10.67,19.12v5.01l3.54-3.54c-.46-.45-1.01-.82-1.63-1.07-.62-.26-1.26-.39-1.91-.4Z"/><path class="d" d="M19.52,12.58c.26,.62,.62,1.17,1.07,1.63l3.54-3.54h-5.01c0,.65,.14,1.3,.4,1.91Z"/><polygon class="d" points="34.05 57.44 34.05 66.71 37.89 57.44 34.05 57.44"/><polygon class="d" points="38.76 12.63 38.76 12.63 37.95 10.67 34.05 10.67 34.05 20.18 40.74 17.41 38.76 12.63"/><path class="d" d="M38.76,59.4c-.27-.64-.4-1.31-.4-1.96h-.32l-3.86,9.33,5.69-5.69c-.46-.48-.84-1.04-1.1-1.68Z"/><polygon class="d" points="40.74 50.56 34.05 47.79 34.05 57.3 37.95 57.3 40.74 50.56"/><path class="d" d="M38.36,57.3c0-.27,.03-.55,.08-.82l-.34,.82h.26Z"/><path class="d" d="M47.47,53.66c.46,.48,.84,1.04,1.1,1.68,.26,.63,.4,1.3,.41,1.96h8.04l-9.33-3.86-.22,.22Z"/><path class="d" d="M48.58,59.4c-.39,.93-1.02,1.72-1.82,2.29l10.27-4.25h-8.04c0,.67-.14,1.33-.41,1.96Z"/><path class="d" d="M48.45,59.35c.26-.62,.39-1.26,.4-1.91h-5.15l-3.64,3.64c.46,.45,1.01,.82,1.63,1.07,1.28,.53,2.68,.53,3.96,0,1.28-.53,2.27-1.52,2.8-2.8Z"/><path class="d" d="M41.64,62.27c-.63-.26-1.2-.64-1.68-1.1l-5.69,5.69,10.27-4.25c-.29,.05-.58,.07-.87,.07-.69,0-1.38-.14-2.03-.41Z"/><path class="d" d="M48.58,12.63c-.26,.63-.64,1.2-1.1,1.68l.22,.22,9.33-3.86h-8.04c0,.67-.14,1.33-.41,1.96Z"/><path class="d" d="M41.69,5.82c-.62,.26-1.17,.62-1.63,1.07l3.64,3.64h5.15c0-.65-.14-1.3-.4-1.91-.53-1.28-1.52-2.27-2.8-2.8h0c-.64-.26-1.31-.4-1.98-.4s-1.34,.13-1.98,.4Z"/><polygon class="d" points="34.05 1.26 34.05 10.53 37.89 10.53 34.05 1.26"/><polygon class="d" points="50.52 17.35 57.07 10.8 47.8 14.64 50.52 17.35"/><path class="d" d="M48.57,8.57c.26,.63,.4,1.3,.41,1.96h8.04l-10.27-4.25c.8,.57,1.43,1.36,1.82,2.29Z"/><path class="d" d="M38.1,10.67l.33,.8c-.04-.27-.07-.53-.07-.8h-.26Z"/><path class="d" d="M41.64,5.69h0c.93-.39,1.93-.5,2.9-.33L34.27,1.11l5.69,5.69c.48-.46,1.04-.84,1.68-1.1Z"/><path class="d" d="M38.36,10.53c0-.67,.14-1.33,.41-1.96h0c.26-.63,.64-1.2,1.1-1.68l-5.69-5.69,3.86,9.33h.32Z"/><polygon class="d" points="50.61 50.52 57.17 57.08 53.33 47.8 50.61 50.52"/><path class="d" d="M61.07,40.06l-3.64,3.64h0v5.15c.65,0,1.3-.14,1.91-.39,1.28-.53,2.27-1.52,2.8-2.8s.53-2.68,0-3.96c-.26-.62-.62-1.17-1.07-1.63Z"/><path class="d" d="M59.4,48.57c-.63,.26-1.3,.4-1.96,.41v8.04l4.25-10.27c-.57,.8-1.36,1.43-2.29,1.82Z"/><polygon class="d" points="57.43 34.05 57.43 37.89 66.71 34.05 57.43 34.05"/><polygon class="d" points="47.8 53.33 57.07 57.17 50.52 50.62 47.8 53.33"/><path class="d" d="M55.39,48.45c.62,.26,1.26,.39,1.91,.39v-5.01l-3.54,3.54c.46,.45,1,.82,1.63,1.07h0Z"/><path class="d" d="M62.27,26.33c-.26,.63-.64,1.2-1.1,1.68l5.69,5.69-4.25-10.27c.16,.97,.05,1.97-.33,2.9Z"/><polygon class="d" points="57.43 30.07 57.43 33.91 66.71 33.91 57.43 30.07"/><path class="d" d="M62.27,41.64h0c.39,.93,.5,1.93,.33,2.9l4.25-10.27-5.69,5.69c.46,.48,.84,1.04,1.1,1.68Z"/><path class="d" d="M53.66,47.47l-.22,.22,3.86,9.33h0v-8.04c-.67,0-1.33-.14-1.96-.41-.63-.26-1.2-.64-1.68-1.1Z"/><path class="d" d="M66.76,34.18l-9.33,3.86v.32c.66,0,1.32,.14,1.96,.4,.63,.26,1.2,.64,1.68,1.1l5.69-5.69Z"/><path class="d" d="M59.35,19.52c-.62-.26-1.26-.39-1.91-.4v5.15l3.64,3.64c.45-.46,.82-1.01,1.07-1.63h0c.53-1.28,.53-2.68,0-3.96-.53-1.28-1.52-2.27-2.8-2.8Z"/><polygon class="d" points="53.33 20.16 57.17 10.89 50.61 17.45 53.33 20.16"/><path class="d" d="M57.43,29.61v.32l9.33,3.86-5.69-5.69c-.48,.46-1.04,.84-1.68,1.1-.64,.27-1.31,.39-1.96,.4Z"/><path class="d" d="M61.69,21.21l-4.25-10.27v8.04c.67,0,1.33,.14,1.96,.41,.93,.39,1.72,1.02,2.29,1.82Z"/><path class="d" d="M60.98,28.01l-3.54-3.54v5.01c.64,0,1.29-.13,1.91-.39,.62-.26,1.17-.62,1.63-1.07Z"/><path class="d" d="M57.44,38.5v5.01l3.54-3.54c-.46-.45-1.01-.82-1.63-1.07-.62-.26-1.26-.39-1.91-.39Z"/><polygon class="d" points="50.43 27.17 43.79 24.42 47.68 33.8 50.43 27.17"/><polygon class="d" points="47.66 14.69 45.7 15.51 40.92 17.49 43.69 24.18 50.42 17.45 50.42 17.45 47.66 14.69"/><polygon class="d" points="57.3 30.02 50.55 27.22 47.78 33.91 57.3 33.91 57.3 30.02"/><path class="d" d="M50.61,27.1h0l3.68,1.52c-.79-.56-1.43-1.34-1.83-2.29-.39-.93-.5-1.93-.33-2.9l-1.52,3.67Z"/><polygon class="d" points="34.15 33.92 47.58 33.92 43.64 24.42 34.15 33.92"/><polygon class="d" points="43.64 43.55 47.58 34.05 34.15 34.05 43.64 43.55"/><polygon class="d" points="50.52 17.54 43.79 24.27 50.48 27.04 52.46 22.27 52.46 22.26 53.27 20.3 53.27 20.3 50.52 17.54"/><path class="d" d="M52.58,22.32c-.53,1.28-.53,2.68,0,3.96,.81,1.96,2.71,3.16,4.71,3.19v-5.14l-3.64-3.64c-.45,.46-.82,1.01-1.07,1.63Z"/><path class="d" d="M53.05,21.21c.16-.22,.33-.43,.52-.62l-.18-.18-.33,.8Z"/><path class="d" d="M57.3,29.61c-.27,0-.55-.03-.81-.07l.81,.34v-.26Z"/><path class="d" d="M38.89,12.58c.53,1.28,1.52,2.27,2.8,2.8,1.28,.53,2.68,.53,3.96,0h0c.62-.26,1.16-.62,1.63-1.07l-3.64-3.64h-5.15c0,.65,.14,1.3,.4,1.91Z"/><polygon class="d" points="57.3 34.05 47.78 34.05 50.55 40.74 57.3 37.95 57.3 34.05"/><path class="d" d="M53.66,20.5c.48-.46,1.04-.84,1.68-1.1h0c.63-.26,1.3-.4,1.96-.41V10.95l-3.86,9.33,.22,.22Z"/><path class="d" d="M39.96,60.98l3.54-3.54h-5.01c0,.65,.14,1.3,.4,1.91s.62,1.17,1.07,1.63Z"/><path class="d" d="M38.89,8.62c-.26,.62-.39,1.26-.4,1.91h5.01l-3.54-3.54c-.45,.46-.82,1.01-1.07,1.63Z"/><path class="d" d="M47.28,53.66c-.97-.94-2.27-1.47-3.62-1.47-.66,0-1.33,.13-1.97,.39-1.28,.53-2.27,1.52-2.8,2.8h0c-.26,.62-.39,1.26-.39,1.91h5.15l3.64-3.64Z"/><path class="d" d="M54.29,39.35l-3.68,1.53h0l1.52,3.67c-.16-.97-.05-1.97,.33-2.9,.4-.96,1.04-1.74,1.83-2.29Z"/><polygon class="d" points="47.68 34.16 43.79 43.54 50.43 40.79 47.68 34.16"/><path class="d" d="M46.76,53.05c.22,.16,.43,.33,.62,.52l.18-.18-.8-.33Z"/><path class="d" d="M41.64,52.46c.93-.39,1.93-.5,2.9-.33l-3.67-1.52h0l-1.53,3.68c.56-.79,1.34-1.43,2.29-1.83Z"/><polygon class="d" points="50.42 50.52 43.69 43.79 40.92 50.48 47.66 53.27 50.42 50.52"/><path class="d" d="M48.85,57.3c0-.65-.14-1.3-.4-1.91-.26-.63-.63-1.17-1.07-1.63l-3.54,3.54h5.01Z"/><polygon class="d" points="53.27 47.67 52.46 45.7 50.48 40.92 43.79 43.7 50.52 50.42 53.27 47.67"/><path class="d" d="M57.3,38.36h0v-.26l-.82,.34c.27-.05,.54-.07,.82-.08Z"/><path class="d" d="M53.56,47.38c-.19-.19-.36-.4-.52-.62l.33,.8,.18-.18Z"/><path class="d" d="M53.75,20.59l3.54,3.54v-5.01c-.65,0-1.3,.14-1.91,.39-.62,.26-1.17,.62-1.63,1.07Z"/><path class="d" d="M44.54,15.84c-.29,.05-.58,.07-.87,.07-.69,0-1.38-.14-2.03-.41-.93-.39-1.72-1.02-2.29-1.82l1.52,3.67,3.67-1.52Z"/><polygon class="d" points="43.54 24.17 40.79 17.54 34.16 20.28 43.54 24.17"/><polygon class="d" points="34.05 33.82 43.55 24.32 34.05 20.39 34.05 33.82"/><path class="d" d="M48.84,10.67h-5.01l3.54,3.54c.45-.46,.82-1.01,1.07-1.63,.26-.62,.39-1.26,.4-1.91Z"/><polygon class="d" points="34.05 34.15 34.05 47.58 43.55 43.65 34.05 34.15"/><polygon class="d" points="43.54 43.79 34.16 47.68 40.79 50.43 43.54 43.79"/><path class="d" d="M46.76,14.92l.8-.33-.18-.18c-.19,.19-.4,.36-.62,.52Z"/><path class="e" d="M67.03,33.75l-9.52-22.98c-.06-.15-.18-.26-.32-.32l-11.49-4.76L34.21,.93c-.15-.06-.31-.06-.46,0l-11.49,4.76-11.49,4.76c-.15,.06-.26,.18-.32,.32L.93,33.75c-.06,.15-.06,.31,0,.46l9.52,22.98c.06,.15,.18,.26,.32,.32l22.98,9.52c.07,.03,.15,.05,.23,.05s.16-.02,.23-.05l22.98-9.52c.15-.06,.26-.18,.32-.32l9.52-22.98c.06-.15,.06-.31,0-.46ZM10.53,10.94v8.04c-.67,0-1.33,.14-1.96,.41-.93,.39-1.72,1.02-2.29,1.82l4.25-10.27Zm-5.17,12.48c-.16,.97-.05,1.97,.33,2.9h0c.26,.63,.64,1.2,1.1,1.67l-5.69,5.69,4.25-10.27Zm5.17,10.63h0v3.84l-9.27-3.84H10.53Zm-9.27-.14l9.27-3.84v3.84H1.26Zm9.27,4.12v.32c-.66,0-1.32,.14-1.96,.4-.63,.26-1.2,.64-1.68,1.1l-5.69-5.69,9.33,3.86Zm-9.42-3.77l5.69,5.69h0c-.46,.48-.84,1.04-1.1,1.67-.39,.93-.5,1.93-.33,2.9L1.11,34.27Zm9.42,22.75l-4.25-10.27c.57,.8,1.36,1.43,2.29,1.82,.63,.26,1.3,.4,1.96,.41v8.04Zm0-8.18c-.65,0-1.29-.14-1.91-.39-1.28-.53-2.27-1.52-2.8-2.8-.53-1.28-.53-2.68,0-3.96h0c.26-.62,.62-1.17,1.07-1.63l3.64,3.64v5.15Zm0-5.34l-3.54-3.54c.46-.45,1.01-.82,1.63-1.07,.62-.26,1.26-.39,1.91-.4v5.01Zm0-13.58l-9.33,3.86,5.69-5.69h0c.48,.46,1.04,.84,1.68,1.1,.64,.27,1.31,.39,1.96,.4v.32Zm0-.45c-.64,0-1.29-.13-1.91-.39-.62-.26-1.17-.62-1.63-1.07l3.54-3.54v5.01Zm0-5.2h0l-3.64,3.64c-.45-.46-.82-1.01-1.07-1.63-.53-1.28-.53-2.68,0-3.96,.53-1.28,1.52-2.27,2.8-2.8,.62-.26,1.26-.39,1.91-.4v5.15ZM29.47,57.3h-5.15l-3.64-3.64c.97-.94,2.27-1.47,3.62-1.47h0c.66,0,1.33,.13,1.97,.39,1.28,.53,2.27,1.52,2.8,2.8h0c.26,.62,.39,1.26,.4,1.91Zm0,.14c0,.65-.14,1.29-.4,1.91-.26,.62-.62,1.17-1.07,1.63l-3.54-3.54h5.01Zm-9.95-2.05c.26-.63,.63-1.17,1.07-1.63l3.54,3.54h-5.01c0-.65,.14-1.29,.4-1.91h0Zm1.07-1.83l-.18-.18,.8-.33c-.22,.16-.43,.33-.62,.52Zm8.03,.73c-.56-.79-1.34-1.43-2.29-1.83-.93-.39-1.93-.5-2.9-.33l3.67-1.52,1.53,3.68h0Zm-4.2-10.5l9.38,3.89-6.63,2.75-2.75-6.63Zm2.62,6.69l-6.74,2.79-2.76-2.76h0l6.73-6.73,2.77,6.69Zm-11.54-8.85c-.4-.96-1.04-1.74-1.83-2.29l3.68,1.53h0l-1.52,3.67c.16-.97,.05-1.97-.33-2.9Zm-.12,.05c.81,1.97,.32,4.15-1.07,5.59l-3.64-3.64v-5.15c.65,0,1.3,.14,1.91,.4,1.28,.53,2.27,1.52,2.8,2.8Zm-.46,5.07l-.33,.8-.18-.18c.19-.19,.36-.4,.52-.62Zm.59-1.06l1.98-4.78,6.69,2.77-6.73,6.73-2.76-2.76,.81-1.96Zm-1.2-25.02h0c.45,.46,.82,1.02,1.07,1.63,.53,1.28,.53,2.68,0,3.96-.81,1.97-2.71,3.16-4.71,3.19v-5.14l3.64-3.64Zm-3.64,3.45v-5.01c.65,0,1.29,.14,1.91,.4,.62,.26,1.17,.62,1.63,1.07l-3.54,3.54ZM29.47,10.67c0,.65-.14,1.29-.4,1.91-.53,1.28-1.52,2.27-2.8,2.8-1.28,.53-2.68,.53-3.96,0h0c-.62-.26-1.16-.62-1.63-1.07l3.64-3.64h5.15Zm-5.01-.14l3.54-3.54c.45,.46,.82,1.01,1.07,1.63s.39,1.26,.4,1.91h-5.01Zm2.63,6.83l-3.67-1.52c.29,.05,.58,.07,.87,.07,.69,0,1.38-.14,2.03-.41,.93-.39,1.72-1.02,2.29-1.82l-1.52,3.67Zm.07,.18l6.63,2.75-9.38,3.89,2.75-6.63Zm-6.58-3.33c-.45-.46-.82-1.01-1.07-1.63s-.39-1.26-.4-1.91h5.01l-3.54,3.54Zm.62,.71l-.8-.33,.18-.18c.19,.19,.4,.36,.62,.52Zm1.05,.59h0l4.78,1.98-2.77,6.69-6.73-6.73,2.76-2.76,1.96,.81Zm1.91,8.77l-6.69,2.77-1.98-4.78h0l-.81-1.97,2.76-2.76,6.73,6.73Zm0,.15l-3.89,9.38-2.75-6.63,6.63-2.75Zm-9.25-3.21c-.16-.22-.33-.43-.52-.62l.18-.18,.33,.8Zm.59,5.12c.39-.93,.5-1.93,.33-2.9l1.52,3.67h0l-3.68,1.52c.79-.56,1.43-1.34,1.83-2.29Zm1.91,.9l2.77,6.69H10.67v-3.9l6.74-2.79Zm2.87,6.94l3.89,9.38-6.63-2.75,2.75-6.63Zm.1-.11h13.43l-9.5,9.5-3.93-9.5Zm0-.14l3.93-9.5,9.5,9.5h-13.43Zm4.03-9.59l9.5-3.93v13.43l-9.5-9.5Zm2.81-6.91l1.98-4.78,.81-1.96h3.9v9.51l-6.69-2.77Zm2.31-5.94c.05-.27,.07-.53,.07-.8h.26l-.33,.8Zm.54-.94l3.84-9.27V10.53h-3.84Zm3.72-9.33l-3.86,9.33h-.32c0-.67-.14-1.33-.41-1.96-.26-.63-.64-1.2-1.1-1.68l5.69-5.69Zm-.1-.1l-5.69,5.69c-.48-.46-1.04-.84-1.68-1.1-.93-.39-1.93-.5-2.9-.33L33.69,1.11Zm-11.37,4.71h0c.64-.26,1.31-.4,1.98-.4s1.34,.13,1.98,.4c.62,.26,1.17,.62,1.63,1.07l-3.64,3.64h-5.15c0-.65,.14-1.29,.4-1.91,.53-1.28,1.52-2.27,2.8-2.8Zm-1.11,.46c-.8,.57-1.43,1.36-1.82,2.29-.26,.63-.4,1.3-.41,1.96H10.94l10.27-4.25Zm-2.22,4.39h0c0,.67,.14,1.33,.41,1.96,.26,.63,.64,1.2,1.1,1.68l-.22,.22-9.33-3.86h8.04Zm1.18,3.97l-2.72,2.72h0l-6.56-6.56,9.27,3.84Zm-2.81,2.81l-2.72,2.72-3.84-9.27,6.56,6.56Zm-6.68-6.51h0l3.86,9.33-.22,.22c-.48-.46-1.04-.84-1.68-1.1-.63-.26-1.3-.4-1.96-.41V10.94Zm0,18.66c.27,0,.55-.03,.81-.07l-.81,.34v-.26Zm0,4.45h9.51l-2.77,6.69-6.74-2.79v-3.9Zm0,4.05h0l.82,.34c-.27-.05-.54-.07-.82-.08v-.26Zm0,5.74l3.54,3.54c-.46,.45-1,.82-1.63,1.07-.62,.26-1.26,.39-1.91,.4v-5.01Zm0,13.19v-8.04c.67,0,1.33-.14,1.96-.41h0c.63-.26,1.2-.64,1.68-1.1l.22,.22-3.86,9.33Zm3.96-9.22l2.72,2.72-6.56,6.56,3.84-9.27Zm2.81,2.81l2.72,2.72-9.27,3.84,6.56-6.56Zm-6.5,6.68l9.33-3.86,.22,.22c-.46,.48-.84,1.04-1.1,1.68-.26,.63-.4,1.3-.41,1.96H10.94Zm0,.14h8.04c0,.67,.14,1.33,.41,1.96,.39,.93,1.02,1.72,1.82,2.29l-10.27-4.25Zm8.57,1.91c-.26-.62-.39-1.26-.4-1.91h5.15l3.64,3.64c-.46,.45-1.01,.82-1.63,1.07-1.28,.53-2.68,.53-3.96,0-1.28-.53-2.27-1.52-2.8-2.8Zm3.91,3.26c.29,.05,.58,.07,.87,.07,.69,0,1.38-.14,2.03-.41,.63-.26,1.2-.64,1.68-1.1l5.69,5.69-10.27-4.25Zm4.68-1.53c.46-.48,.84-1.04,1.1-1.68,.27-.64,.4-1.31,.4-1.96h.32l3.86,9.33-5.69-5.69Zm1.43-4.59l.34,.82h-.26c0-.27-.03-.55-.08-.82Zm4.38,10.23l-3.84-9.27h3.84v9.27Zm0-9.41h-3.9l-2.79-6.74,6.69-2.77v9.51Zm0-9.72l-9.5-3.93,9.5-9.5v13.43Zm19.75-.3c-1.4-1.44-1.89-3.62-1.07-5.59,.53-1.28,1.52-2.27,2.8-2.8,.62-.26,1.26-.39,1.91-.39v5.15l-3.64,3.64Zm3.64-3.44v5.01c-.65,0-1.29-.14-1.91-.39h0c-.63-.26-1.17-.63-1.63-1.07l3.54-3.54Zm-18.81,13.47c0-.65,.14-1.29,.39-1.91h0c.53-1.28,1.52-2.27,2.8-2.8,.65-.27,1.31-.39,1.97-.39,1.35,0,2.65,.53,3.62,1.47l-3.64,3.64h-5.15Zm5.01,.14l-3.54,3.54c-.45-.46-.82-1.01-1.07-1.63s-.39-1.26-.4-1.91h5.01Zm.13-46.77l3.64,3.64c-.46,.45-1.01,.82-1.63,1.07h0c-1.28,.53-2.68,.53-3.96,0-1.28-.53-2.27-1.52-2.8-2.8-.26-.62-.39-1.26-.4-1.91h5.15Zm-5.14-.14c0-.65,.14-1.29,.4-1.91,.26-.62,.62-1.17,1.07-1.63l3.54,3.54h-5.01Zm13.63,34.01l-1.52-3.67h0l3.68-1.53c-.79,.56-1.43,1.34-1.83,2.29-.39,.93-.5,1.93-.33,2.9Zm-1.57-3.8l-2.77-6.69h9.52v3.9l-6.74,2.79Zm-2.98-6.83h-13.43l9.5-9.5,3.93,9.5Zm-3.78-9.49l6.63,2.75-2.75,6.63-3.89-9.38Zm3.78,9.63l-3.93,9.5-9.5-9.5h13.43Zm.1,.11l2.75,6.63-6.63,2.75,3.89-9.38Zm.1-.25l2.77-6.69,6.74,2.79v3.9h-9.52Zm4.68-7.58c.4,.95,1.04,1.73,1.83,2.29l-3.68-1.52h0l1.52-3.67c-.16,.97-.05,1.97,.33,2.9Zm4.02,3.2c.27,.05,.54,.07,.81,.07v.26l-.81-.34Zm.81-.06c-2-.03-3.9-1.23-4.71-3.19-.53-1.28-.53-2.68,0-3.96,.26-.62,.62-1.17,1.07-1.63l3.64,3.64v5.14Zm-4.25-8.26l.33-.8,.18,.18c-.19,.19-.36,.4-.52,.62Zm-.59,1.05h0l-1.98,4.78-6.69-2.77,6.73-6.73,2.76,2.76h0l-.81,1.96Zm-8.77,1.92l-2.77-6.69,4.78-1.98,1.96-.81,2.76,2.76h0l-6.73,6.73Zm3.07-9.26c.22-.16,.43-.33,.62-.52l.18,.18-.8,.33Zm-2.92-4.25h5.01c0,.65-.14,1.29-.4,1.91-.26,.62-.62,1.17-1.07,1.63l-3.54-3.54Zm-2.2,4.84c.65,.27,1.34,.41,2.03,.41,.29,0,.58-.03,.87-.07l-3.67,1.52-1.52-3.67c.57,.8,1.36,1.43,2.29,1.82Zm1.91,8.67l-9.38-3.89,6.63-2.75,2.75,6.63Zm0,.15l-9.5,9.5v-13.43l9.5,3.93Zm-9.5,9.83l9.5,9.5-9.5,3.93v-13.43Zm9.49,9.65l-2.75,6.63-6.63-2.75,9.38-3.89Zm-2.67,6.81h0l3.67,1.52c-.97-.16-1.97-.05-2.9,.33-.96,.4-1.74,1.04-2.29,1.83l1.53-3.68Zm6.51,3.15c.45,.46,.81,1,1.07,1.63,.26,.62,.39,1.26,.4,1.91h-5.01l3.54-3.54Zm0-.2c-.19-.19-.4-.36-.62-.52l.8,.33-.18,.18Zm-6.46-3.08l2.77-6.69,6.73,6.73-2.76,2.76-6.74-2.79Zm2.87-6.79l6.69-2.77,1.98,4.78,.81,1.96-2.76,2.76-6.73-6.73Zm9.26,3.06c.16,.22,.33,.43,.52,.62l-.18,.18-.33-.8Zm4.25-8.4h0c-.27,0-.55,.03-.82,.08l.82-.34v.26Zm0-14.22l-3.54-3.54c.46-.45,1.01-.82,1.63-1.07,.62-.26,1.26-.39,1.91-.39v5.01Zm0-13.19v8.04c-.67,0-1.33,.14-1.96,.41h0c-.63,.26-1.2,.64-1.68,1.1l-.22-.22,3.86-9.33Zm-3.97,9.22l-2.72-2.72,6.56-6.56-3.84,9.27Zm-2.81-2.81l-2.72-2.72,9.27-3.84-6.56,6.56Zm6.51-6.69l-9.33,3.86-.22-.22c.46-.48,.84-1.04,1.1-1.68,.26-.63,.4-1.3,.41-1.96h8.04Zm0-.14h-8.04c0-.67-.14-1.33-.41-1.96-.39-.93-1.02-1.72-1.82-2.29l10.27,4.25Zm-11.37-4.71c1.28,.53,2.27,1.52,2.8,2.8,.26,.62,.39,1.26,.4,1.91h-5.15l-3.64-3.64c.46-.45,1.01-.82,1.63-1.07,.64-.26,1.31-.4,1.98-.4s1.34,.13,1.98,.4h0Zm-1.11-.46c-.97-.16-1.97-.05-2.9,.33h0c-.63,.26-1.2,.64-1.68,1.1l-5.69-5.69,10.27,4.25Zm-4.68,1.53c-.46,.48-.84,1.04-1.1,1.68h0c-.26,.63-.4,1.3-.41,1.96h-.32l-3.86-9.33,5.69,5.69Zm-1.43,4.58l-.33-.8h.26c0,.27,.03,.54,.07,.8ZM34.05,1.26l3.84,9.27h-3.84V1.26Zm0,9.41h3.9l.81,1.96h0l1.98,4.78-6.69,2.77V10.67Zm0,37.12l6.69,2.77-2.79,6.74h-3.9v-9.51Zm4.39,8.7c-.05,.27-.07,.54-.08,.82h-.26l.34-.82Zm-4.39,.95h3.84l-3.84,9.27v-9.27Zm.13,9.33l3.86-9.33h.32c0,.65,.14,1.32,.4,1.96,.26,.63,.64,1.2,1.1,1.68l-5.69,5.69Zm.1,.09l5.69-5.69c.48,.46,1.04,.84,1.68,1.1,.65,.27,1.34,.41,2.03,.41,.29,0,.58-.03,.87-.07l-10.27,4.25Zm7.42-4.71c-.62-.26-1.17-.62-1.63-1.07l3.64-3.64h5.15c0,.65-.14,1.29-.4,1.91-.53,1.28-1.52,2.27-2.8,2.8-1.28,.53-2.68,.53-3.96,0Zm5.07-.46c.8-.57,1.43-1.36,1.82-2.29,.26-.63,.4-1.3,.41-1.96h8.04l-10.27,4.25Zm2.22-4.39h0c0-.67-.14-1.33-.41-1.96-.26-.63-.64-1.2-1.1-1.68l.22-.22,9.33,3.86h-8.04Zm-1.18-3.96l2.72-2.72,6.56,6.56-9.27-3.84Zm2.81-2.81l2.72-2.72,3.84,9.27-6.56-6.56Zm6.69,6.5h0l-3.86-9.33,.22-.22c.48,.46,1.04,.84,1.68,1.1,.63,.26,1.3,.4,1.96,.41v8.04Zm4.85-30.74h0c-.26,.62-.62,1.17-1.07,1.63l-3.64-3.64v-5.15c.65,0,1.3,.14,1.91,.4,1.28,.53,2.27,1.52,2.8,2.8,.53,1.28,.53,2.68,0,3.96Zm-2.75,12.48c-.64-.27-1.31-.4-1.96-.4v-.32l9.33-3.86-5.69,5.69c-.48-.46-1.04-.84-1.68-1.1Zm1.58,1.2l-3.54,3.54v-5.01c.65,0,1.29,.14,1.91,.39,.62,.26,1.17,.62,1.63,1.07Zm5.78-6.17l-9.33-3.86v-.32c.66,0,1.32-.14,1.96-.4,.63-.26,1.2-.64,1.68-1.1l5.69,5.69Zm-9.33-22.84l4.25,10.27c-.57-.8-1.36-1.43-2.29-1.82-.63-.26-1.3-.4-1.96-.41V10.94Zm0,13.52l3.54,3.54c-.46,.45-1.01,.82-1.63,1.07-.63,.26-1.27,.38-1.91,.39v-5.01Zm0,5.61l9.27,3.84h-9.27v-3.84Zm0,3.98h9.27l-9.27,3.84v-3.84Zm0,22.97v-8.04c.67,0,1.33-.14,1.96-.41,.93-.39,1.72-1.02,2.29-1.82l-4.25,10.27Zm4.71-11.37c-.53,1.28-1.52,2.27-2.8,2.8-.62,.26-1.26,.39-1.91,.39v-5.15h0l3.64-3.64c.45,.46,.82,1.01,1.07,1.63,.53,1.28,.53,2.68,0,3.96Zm.46-1.11c.16-.97,.05-1.97-.33-2.9h0c-.26-.63-.64-1.2-1.1-1.67l5.69-5.69-4.25,10.27Zm-1.43-16.53c.46-.48,.84-1.04,1.1-1.68,.39-.93,.5-1.93,.33-2.9l4.25,10.27-5.69-5.69Z"/></g></g></g></svg>