<?xml version="1.0" encoding="UTF-8"?><svg xmlns="http://www.w3.org/2000/svg" viewBox="0 0 568.92 410.43"><defs><style>.d{fill:#7c4182;}</style></defs><g id="a"/><g id="b"><g id="c"><path class="d" d="M93.01,410.34c-3.53,0-7.06-1.34-9.74-4.03-5.37-5.37-5.37-14.11,0-19.49,5.37-5.37,14.11-5.37,19.49,0h0c5.37,5.37,5.37,14.11,0,19.49-2.69,2.69-6.21,4.03-9.74,4.03Zm0-26.05c-3.15,0-6.29,1.2-8.68,3.59-4.79,4.79-4.79,12.58,0,17.37,4.79,4.79,12.58,4.79,17.37,0,4.79-4.79,4.79-12.58,0-17.37-2.39-2.39-5.54-3.59-8.68-3.59Z"/><path class="d" d="M13.78,218.93c-7.6,0-13.78-6.18-13.78-13.78s6.18-13.78,13.78-13.78,13.78,6.18,13.78,13.78-6.18,13.78-13.78,13.78Zm0-26.06c-6.77,0-12.28,5.51-12.28,12.28s5.51,12.28,12.28,12.28,12.28-5.51,12.28-12.28-5.51-12.28-12.28-12.28Z"/><path class="d" d="M93.11,27.54c-3.53,0-7.06-1.34-9.74-4.03-5.37-5.37-5.37-14.11,0-19.49,5.37-5.37,14.11-5.37,19.49,0,5.37,5.37,5.37,14.11,0,19.49h0c-2.69,2.69-6.21,4.03-9.74,4.03Zm0-26.05c-3.15,0-6.29,1.2-8.68,3.59-2.32,2.32-3.6,5.4-3.6,8.68s1.28,6.36,3.6,8.68c4.79,4.79,12.58,4.79,17.37,0,2.32-2.32,3.6-5.4,3.6-8.68s-1.28-6.36-3.6-8.68-5.54-3.59-8.68-3.59Zm9.21,21.49h0Z"/><path class="d" d="M475.9,27.64c-3.53,0-7.06-1.34-9.74-4.03h0c-5.37-5.37-5.37-14.11,0-19.49,5.37-5.37,14.11-5.37,19.49,0,5.37,5.37,5.37,14.11,0,19.49-2.69,2.69-6.21,4.03-9.74,4.03Zm-8.68-5.09c4.79,4.79,12.58,4.79,17.37,0,4.79-4.79,4.79-12.58,0-17.37-4.79-4.79-12.58-4.79-17.37,0-4.79,4.79-4.79,12.58,0,17.37h0Z"/><path class="d" d="M555.14,219.06c-7.6,0-13.78-6.18-13.78-13.78s6.18-13.78,13.78-13.78,13.78,6.18,13.78,13.78-6.18,13.78-13.78,13.78Zm0-26.06c-6.77,0-12.28,5.51-12.28,12.28s5.51,12.28,12.28,12.28,12.28-5.51,12.28-12.28-5.51-12.28-12.28-12.28Z"/><path class="d" d="M475.81,410.43c-3.53,0-7.06-1.34-9.74-4.03-5.37-5.37-5.37-14.11,0-19.49h0c5.37-5.37,14.11-5.37,19.49,0,5.37,5.37,5.37,14.11,0,19.49-2.69,2.69-6.21,4.03-9.74,4.03Zm-8.68-22.46c-4.79,4.79-4.79,12.58,0,17.37,4.79,4.79,12.58,4.79,17.37,0,4.79-4.79,4.79-12.58,0-17.37-4.79-4.79-12.58-4.79-17.37,0h0Z"/></g></g></svg>