<?xml version="1.0" encoding="UTF-8"?><svg xmlns="http://www.w3.org/2000/svg" viewBox="0 0 720.54 720.54"><defs><style>.e{fill:#7c4182;}</style></defs><g id="a"/><g id="b"><g id="c"><path id="d" class="e" d="M720.04,357.77l-103.61-250.13c-.67-1.61-1.92-2.87-3.53-3.53l-125.06-51.8h0L362.77,.5c-1.61-.67-3.38-.67-5,0l-125.06,51.8h0l-125.06,51.8c-1.61,.67-2.87,1.92-3.53,3.53L.5,357.77c-.67,1.61-.67,3.39,0,5l103.61,250.13c.67,1.61,1.92,2.87,3.53,3.53l250.13,103.61c.81,.33,1.65,.5,2.5,.5s1.69-.17,2.5-.5l250.13-103.61c1.61-.67,2.87-1.92,3.53-3.53l103.61-250.13c.67-1.61,.67-3.39,0-5ZM197.01,106.46c.09,7.25,1.56,14.48,4.41,21.38,2.86,6.9,6.94,13.05,12,18.24l-2.44,2.44-101.52-42.05h87.55Zm36.27-52.78c6.95-2.88,14.25-4.32,21.55-4.32s14.6,1.44,21.55,4.32c6.71,2.78,12.7,6.75,17.75,11.67l-39.61,39.61h-56.02c.09-7.05,1.52-14.09,4.3-20.81,5.76-13.9,16.58-24.72,30.48-30.48h0Zm253.99,0c13.9,5.76,24.72,16.58,30.48,30.48,2.78,6.71,4.2,13.75,4.3,20.81h-56.02l-39.61-39.61c5.05-4.92,11.04-8.89,17.75-11.67,6.95-2.88,14.25-4.32,21.55-4.32s14.6,1.44,21.55,4.32h0Zm123.82,52.78l-101.52,42.05-2.44-2.44c5.06-5.19,9.14-11.34,12-18.24,2.86-6.9,4.32-14.13,4.41-21.38h87.55Zm44.11,317.84c-5.19-5.06-11.34-9.14-18.24-12-6.99-2.9-14.23-4.3-21.38-4.38v-3.48l101.52-42.05-61.91,61.91Zm-131.65,189.78c-.09-7.25-1.56-14.48-4.41-21.38-2.86-6.9-6.94-13.05-12-18.24l2.44-2.44,101.52,42.05h-87.55Zm-414.08,0l101.52-42.05,2.44,2.44c-5.06,5.19-9.14,11.34-12,18.24-2.86,6.9-4.32,14.13-4.41,21.38H109.46ZM3.45,362.39l101.52,42.05v3.48c-7.14,.08-14.39,1.48-21.38,4.38-6.9,2.86-13.05,6.94-18.24,12L3.45,362.39Zm61.91-66.15c5.19,5.06,11.34,9.14,18.24,12,6.99,2.9,14.23,4.3,21.38,4.38v3.47L3.45,358.15l61.9-61.9ZM214.47,147.13c2.09,2.04,4.34,3.91,6.74,5.62l-8.74-3.62,2-2Zm101.01-40.67l-3.62,8.74c.49-2.9,.75-5.82,.79-8.74h2.83Zm92.41,0c.04,2.92,.3,5.84,.79,8.74l-3.62-8.74h2.83Zm100.18,42.67l-8.74,3.62c2.39-1.7,4.65-3.58,6.74-5.62l2,2Zm209.02,209.02l-101.52-42.05v-3.47c7.14-.08,14.39-1.49,21.38-4.38,6.9-2.86,13.05-6.94,18.24-12l61.91,61.91Zm-103.01,49.77c-2.99,.04-5.96,.32-8.88,.82l8.88-3.68v2.85Zm-108.01,165.5c-2.09-2.04-4.35-3.92-6.74-5.62l8.74,3.62-2,2Zm-101.01,40.67l3.68-8.88c-.5,2.92-.78,5.89-.82,8.88h-2.85Zm-92.44,0c-.04-2.99-.33-5.96-.82-8.88l3.68,8.88h-2.85Zm-100.16-42.67l8.74-3.62c-2.39,1.7-4.65,3.58-6.74,5.62l-2-2Zm-106.01-166.35l8.88,3.68c-2.92-.5-5.89-.78-8.88-.82v-2.85Zm0-92.44c2.98-.04,5.94-.32,8.86-.81l-8.86,3.67v-2.86Zm72.76-132.35l-29.57,29.57-41.81-100.95,71.38,71.38Zm1.05,1.05l73.24,73.24-72.84,30.17-21.54-52.01v-.04l-8.86-21.36,30-30Zm105.84-.08l72.21,29.91-102.12,42.3,29.91-72.21Zm-.81-1.95l-39.96-16.55c3.14,.53,6.31,.81,9.48,.81,7.5,0,14.99-1.48,22.12-4.43,10.15-4.2,18.69-11.05,24.91-19.79l-16.55,39.96Zm74.22,32.97v146.2l-103.38-103.38,103.38-42.82Zm104.81,41.18l-102.12-42.3,72.21-29.91,29.91,72.21Zm-45.66-114.12c6.22,8.73,14.76,15.58,24.91,19.79,7.13,2.96,14.63,4.43,22.12,4.43,3.17,0,6.34-.28,9.48-.81l-39.96,16.55-16.55-39.96Zm45.72,115.76l-103.38,103.38V212.27l103.38,42.82Zm148.31-146.2l-41.81,100.95-29.57-29.57,71.38-71.38Zm-42.43,102.44l-8.85,21.36v.04l-21.56,52.01-72.84-30.17,73.24-73.24,30,30Zm43.81,104.15l-8.86-3.67c2.91,.5,5.87,.77,8.86,.81v2.86Zm0,44.05h-103.58l30.17-72.84,73.41,30.41v42.43Zm1.49-41.82l100.95,41.82h-100.95v-41.82Zm-150.12,146.69l-103.38-103.38h146.2l-42.82,103.38Zm43.94-102.18l29.91,72.21-72.21,29.91,42.3-102.12Zm-74.96,177.08l-72.21-29.91,102.12-42.3-29.91,72.21Zm.81,1.95l39.96,16.55c-10.57-1.78-21.46-.58-31.61,3.62-10.41,4.31-18.89,11.35-24.97,19.93l16.61-40.1Zm-74.22-32.97v-146.2l103.38,103.38-103.38,42.82Zm-104.81-41.18l102.12,42.3-72.21,29.91-29.91-72.21Zm45.71,114.26c-6.08-8.58-14.55-15.61-24.97-19.93-10.15-4.2-21.03-5.4-31.61-3.62l39.97-16.56,16.61,40.1Zm-45.77-115.9l103.38-103.38v146.2l-103.38-42.82Zm-43.88-104.43h146.2l-103.38,103.38-42.82-103.38Zm41.18,103.32l-72.21-29.91,29.91-72.21,42.3,102.12Zm255.94-106.01l-42.3-102.12,72.21,29.91-29.91,72.21Zm31.86-73.02l16.55-39.96c-1.78,10.57-.58,21.46,3.62,31.61,4.31,10.39,11.31,18.87,19.87,24.95l-40.05-16.59Zm30.17-72.84l2,2c-2.04,2.09-3.92,4.35-5.62,6.74l3.62-8.74Zm-63.14,147.06h-146.2l103.38-103.38,42.82,103.38Zm-149.8,0H212.27l42.82-103.38,103.38,103.38Zm-147.32-1.2l-29.91-72.21,72.21-29.91-42.3,102.12Zm-58.41-137.11c-1.7-2.39-3.58-4.65-5.62-6.74l2-2,3.62,8.74Zm26.55,64.1l-40.05,16.59c8.56-6.08,15.57-14.55,19.87-24.95,4.2-10.15,5.4-21.03,3.62-31.61l16.55,39.96Zm.57,1.38l30.17,72.84H106.46v-42.43l73.41-30.41Zm-74.9,72.84H4.02l100.95-41.82v41.82Zm0,1.49v41.81L4.02,361.02H104.97Zm1.49,0h103.58l-30.17,72.84-73.41-30.41v-42.43Zm72.84,74.22l-16.55,39.96c1.78-10.57,.58-21.46-3.62-31.61-4.31-10.41-11.35-18.89-19.93-24.97l40.11,16.61Zm-20.18,52.61h0l21.55-52.04,72.84,30.17-73.24,73.24-30-30,8.85-21.37Zm-9.99,20.23l-2-2c2.04-2.09,3.92-4.35,5.62-6.74l-3.62,8.74Zm30.09,32.2l-71.38,71.38,41.81-100.95,29.57,29.57Zm1.05,1.05l29.57,29.57-100.95,41.81,71.38-71.38Zm1.05-1.05l73.24-73.24,30.17,72.84-73.41,30.41-30-30Zm73.58,18.24c7.17,0,14.46,1.38,21.48,4.29,13.89,5.76,24.72,16.58,30.47,30.47v.02c2.79,6.71,4.21,13.75,4.3,20.8h-56.02l-39.6-39.6c10.51-10.21,24.69-15.98,39.36-15.98Zm31.78-17.84l72.84-30.17v103.58h-42.43l-30.41-73.41Zm72.84,74.9v100.95l-41.82-100.95h41.82Zm1.49,100.95v-100.95h41.82l-41.82,100.95Zm0-102.44v-103.58l72.84,30.17-30.41,73.41h-42.43Zm52.66-20.8v-.02c5.77-13.89,16.59-24.71,30.48-30.47,7.03-2.91,14.31-4.29,21.48-4.29,14.67,0,28.85,5.77,39.36,15.98l-39.6,39.6h-56.02c.09-7.05,1.52-14.09,4.3-20.8Zm22.13-53.42l30.17-72.84,73.24,73.24-30,30-73.41-30.41Zm104.47,1.46l71.38,71.38-100.95-41.81,29.57-29.57Zm1.05-1.05l29.57-29.57,41.81,100.95-71.38-71.38Zm-1.05-1.05l-73.24-73.24,72.84-30.17,21.55,52.03h0l8.85,21.38-30,30Zm27.52-39.88c1.7,2.39,3.58,4.65,5.62,6.74l-2,2-3.62-8.74Zm-26.55-64.1l40.1-16.61c-8.58,6.08-15.61,14.55-19.93,24.97-4.2,10.15-5.4,21.03-3.62,31.61l-16.55-39.96Zm-.57-1.38l-30.17-72.84h103.58v42.43l-73.41,30.41Zm74.9-72.84h100.95l-100.95,41.81v-41.81Zm20.81-54.15c-6.81,2.82-13.85,4.18-20.81,4.27v-54.5l38.56,38.56c-5.05,4.92-11.04,8.89-17.75,11.67Zm-22.3,4.27c-21.81-.32-42.42-13.36-51.29-34.75-5.76-13.9-5.76-29.21,0-43.1,2.78-6.71,6.75-12.7,11.67-17.75l39.61,39.61v56Zm-38.56-96.67c5.05-4.92,11.04-8.89,17.75-11.67,6.71-2.78,13.75-4.2,20.81-4.3v54.53l-38.56-38.56Zm17.18-13.05c-6.9,2.86-13.05,6.94-18.24,12l-2.44-2.44,42.05-101.52v87.55c-7.25,.09-14.48,1.56-21.38,4.41Zm-52.44-22.2l-29.57-29.57,100.95-41.81-71.38,71.38Zm-1.05,1.05l-73.24,73.24-30.17-72.84,52.03-21.55h0l21.37-8.86,30,30Zm-51.93-22.53l-.04,.02c-13.89,5.75-29.19,5.75-43.08,0-13.9-5.76-24.72-16.58-30.48-30.48-2.78-6.71-4.2-13.75-4.3-20.81h56.02l39.61,39.61c-5.05,4.92-11.03,8.88-17.73,11.66Zm-74.98-29.91h0l21.55,52.04-72.84,30.17V106.46h42.43l8.85,21.37Zm-51.29-22.86V4.02l41.82,100.95h-41.82Zm-1.49-100.95V104.97h-41.81L359.53,4.02Zm0,102.44v103.58l-72.84-30.17,21.55-52.03h0l8.85-21.38h42.43Zm-52.66,20.81c-5.76,13.9-16.58,24.72-30.48,30.48-13.89,5.75-29.19,5.76-43.08,0l-.04-.02c-6.7-2.78-12.68-6.75-17.73-11.66l39.61-39.61h56.02c-.09,7.05-1.52,14.09-4.3,20.81Zm-74.16,31.85h0l52.03,21.55-30.17,72.84-73.24-73.24,30-30,21.37,8.85Zm-52.43,20.1L108.89,107.84l100.95,41.81-29.57,29.57ZM106.46,109.46l42.05,101.52-2.44,2.44c-5.19-5.06-11.34-9.14-18.24-12-6.9-2.86-14.13-4.32-21.38-4.41V109.46Zm20.81,93.34c6.71,2.78,12.7,6.75,17.75,11.67l-38.56,38.56v-54.53c7.05,.09,14.09,1.52,20.81,4.3Zm18.81,12.73c4.92,5.05,8.89,11.04,11.67,17.75,5.76,13.9,5.76,29.21,0,43.1-8.86,21.4-29.48,34.44-51.29,34.75v-56l39.61-39.61Zm-41.1,95.61c-6.95-.08-14-1.45-20.81-4.27-6.71-2.78-12.7-6.75-17.75-11.67l38.56-38.56v54.5Zm-20.81,102.55c6.71-2.78,13.75-4.2,20.81-4.3v54.53l-38.56-38.56c5.05-4.92,11.04-8.89,17.75-11.67Zm22.3-4.3c7.05,.09,14.1,1.52,20.81,4.3,13.9,5.76,24.72,16.58,30.48,30.48,8.86,21.4,3.5,45.19-11.69,60.84l-39.6-39.6v-56.02Zm38.54,96.67c-4.98,4.86-10.92,8.88-17.73,11.7-6.71,2.78-13.75,4.2-20.81,4.3v-54.53l38.54,38.54Zm-17.16,13.07c6.9-2.86,13.05-6.94,18.24-12l2.44,2.44-42.05,101.52v-87.55c7.25-.09,14.48-1.56,21.38-4.41Zm74.96,74.16c2.82-6.81,6.83-12.77,11.69-17.74l38.55,38.55h-54.53c.09-7.05,1.52-14.09,4.3-20.81Zm51.72,22.3l39.61,39.61c-5.05,4.92-11.04,8.89-17.75,11.67-13.9,5.76-29.21,5.76-43.1,0-13.9-5.76-24.72-16.58-30.48-30.48-2.78-6.71-4.2-13.75-4.3-20.81h56.02Zm2.11,0h54.53c-.09,7.05-1.52,14.09-4.3,20.81-2.78,6.71-6.75,12.7-11.67,17.75l-38.56-38.56Zm51.61,21.38c2.9-6.99,4.3-14.23,4.38-21.38h3.48l42.05,101.52-61.9-61.9c5.06-5.19,9.14-11.34,11.99-18.24Zm96.21-21.38h3.48c.08,7.14,1.48,14.38,4.38,21.38,2.86,6.9,6.94,13.05,12,18.24l-61.91,61.91,42.05-101.52Zm9.24,20.81c-2.78-6.71-4.2-13.75-4.3-20.81h54.53l-38.56,38.56c-4.92-5.05-8.89-11.04-11.67-17.75Zm52.34-20.81h56.02c-.09,7.05-1.52,14.09-4.3,20.81-5.76,13.9-16.58,24.72-30.48,30.48-13.9,5.76-29.21,5.76-43.1,0-6.71-2.78-12.7-6.75-17.75-11.67l39.61-39.61Zm1.49-1.49l38.55-38.55c4.86,4.98,8.87,10.93,11.69,17.74,2.78,6.71,4.2,13.75,4.3,20.81h-54.53Zm146.57-3l-42.05-101.52,2.44-2.44c5.19,5.06,11.34,9.14,18.24,12,6.9,2.86,14.13,4.32,21.38,4.41v87.55Zm-20.81-93.34c-6.81-2.82-12.76-6.84-17.73-11.7l38.54-38.54v54.53c-7.05-.09-14.09-1.52-20.81-4.3Zm-18.79-12.74c-15.2-15.65-20.55-39.44-11.69-60.84,5.76-13.9,16.58-24.72,30.48-30.48,6.71-2.78,13.75-4.2,20.81-4.3v56.02l-39.6,39.6Zm41.09-95.62c7.05,.09,14.09,1.52,20.81,4.3,6.71,2.78,12.7,6.75,17.75,11.67l-38.56,38.56v-54.53Zm40.67-114.19c5.06-5.19,9.14-11.34,12-18.24,4.2-10.15,5.4-21.03,3.62-31.61l46.29,111.75-61.91-61.91Zm10.62-18.81c-2.78,6.71-6.75,12.7-11.67,17.75l-39.61-39.61v-56.02c7.05,.09,14.1,1.52,20.81,4.3,13.9,5.76,24.72,16.58,30.48,30.48s5.76,29.21,0,43.11Zm-149.12-149.12c-2.78,6.71-6.75,12.7-11.67,17.75l-38.56-38.56h54.53c-.09,7.05-1.52,14.09-4.3,20.81Zm-53.83-22.3h-54.53c.09-7.05,1.52-14.09,4.3-20.81,2.78-6.71,6.75-12.7,11.67-17.75l38.56,38.56Zm-51.61-21.38c-2.86,6.9-4.32,14.13-4.41,21.38h-3.45L362.39,3.45l61.91,61.91c-5.06,5.19-9.14,11.34-12,18.24Zm-96.21,21.38h-3.45c-.09-7.25-1.56-14.48-4.41-21.38-2.86-6.9-6.94-13.05-12-18.24L358.15,3.45l-42.05,101.52Zm-9.24-20.81c2.78,6.71,4.2,13.75,4.3,20.81h-54.53l38.56-38.56c4.92,5.05,8.89,11.04,11.67,17.75Zm-53.83,22.3l-38.56,38.56c-4.92-5.05-8.89-11.04-11.67-17.75-2.78-6.71-4.2-13.75-4.3-20.81h54.53ZM104.97,254.52l-39.61,39.61c-4.92-5.05-8.89-11.04-11.67-17.75-5.76-13.9-5.76-29.21,0-43.11s16.58-24.72,30.48-30.48c6.71-2.78,13.76-4.2,20.81-4.3v56.02Zm-52.66,22.43c2.86,6.9,6.94,13.05,12,18.24L2.39,357.1l46.29-111.75c-1.78,10.57-.58,21.46,3.62,31.61Zm12,148.4c-5.06,5.19-9.14,11.34-12,18.24-4.2,10.15-5.4,21.03-3.62,31.61L2.39,363.45l61.91,61.91Zm-10.62,18.81c2.78-6.71,6.75-12.7,11.67-17.75l39.61,39.61v56.02c-7.05-.09-14.09-1.52-20.81-4.3-13.9-5.76-24.72-16.58-30.48-30.48s-5.76-29.21,0-43.1Zm143.33,171.41c.09,7.25,1.56,14.48,4.41,21.38,4.21,10.15,11.05,18.69,19.79,24.91l-111.75-46.29h87.55Zm57.82,57.1c7.49,0,14.99-1.48,22.12-4.43,6.9-2.86,13.05-6.94,18.24-12l61.91,61.91-111.75-46.29c3.14,.53,6.31,.81,9.49,.81Zm170.52-16.43c5.19,5.06,11.34,9.14,18.24,12,7.13,2.96,14.63,4.43,22.12,4.43,3.17,0,6.34-.28,9.49-.81l-111.75,46.29,61.91-61.91Zm93.77-19.29c2.86-6.9,4.32-14.13,4.41-21.38h87.55l-111.75,46.29c8.74-6.22,15.58-14.76,19.79-24.91Zm96.45-170.93l39.61-39.61c4.92,5.05,8.89,11.04,11.67,17.75,5.76,13.9,5.76,29.21,0,43.1s-16.58,24.72-30.48,30.48c-6.71,2.78-13.75,4.2-20.81,4.3v-56.02Zm52.66-22.43c-2.86-6.9-6.94-13.05-12-18.24l61.91-61.91-46.29,111.75c1.78-10.57,.58-21.46-3.62-31.61Zm-6.38-222.38c-6.22-8.73-14.76-15.58-24.91-19.79-6.9-2.86-14.13-4.32-21.38-4.41V109.46l46.29,111.75Zm-50.78-116.24h-87.55c-.09-7.25-1.56-14.48-4.41-21.38-4.21-10.15-11.05-18.69-19.79-24.91l111.75,46.29Zm-167.49-52.66c-6.9,2.86-13.05,6.94-18.24,12L363.45,2.39l111.75,46.29c-10.57-1.78-21.46-.58-31.61,3.62ZM357.1,2.39l-61.91,61.91c-5.19-5.06-11.34-9.14-18.24-12-10.15-4.2-21.03-5.4-31.61-3.62L357.1,2.39ZM201.42,83.59c-2.86,6.9-4.32,14.13-4.41,21.38H109.46l111.75-46.29c-8.73,6.22-15.58,14.76-19.79,24.91Zm-96.45,25.87v87.55c-7.25,.09-14.48,1.56-21.38,4.41-10.15,4.2-18.69,11.05-24.91,19.79l46.29-111.75ZM58.68,499.33c6.22,8.74,14.76,15.58,24.91,19.79,6.9,2.86,14.13,4.32,21.38,4.41v87.55l-46.29-111.75Zm556.9,111.75v-87.55c7.25-.09,14.48-1.56,21.38-4.41,10.15-4.21,18.69-11.05,24.91-19.79l-46.29,111.75Z"/></g></g></svg>