<?xml version="1.0" encoding="UTF-8"?><svg xmlns="http://www.w3.org/2000/svg" viewBox="0 0 530.34 530.33"><defs><style>.d{fill:#ce0e2d;}.e{fill:#100c08;stroke:#100c08;stroke-miterlimit:10;}</style></defs><g id="a"/><g id="b"><g id="c"><path class="e" d="M523.85,274.42h-13.87v-18.5h13.87c3.16,0,5.73-2.38,5.97-5.53,.23-3.13-1.9-5.84-4.97-6.35l-34.43-6.33v-12.89c0-.38,.14-.73,.41-1l20.24-20.24c1.48-1.48,2.29-3.44,2.29-5.54s-.81-4.06-2.29-5.54l-20.24-20.24c-.27-.27-.41-.61-.41-1v-28.62c0-4.32-3.51-7.83-7.83-7.83h-28.62c-.38,0-.73-.14-1-.41l-8.89-8.89,19.65-29.05c1.81-2.54,1.4-5.96-.98-8-1.1-.94-2.49-1.46-3.92-1.46-1.57,0-3.07,.63-4.21,1.76l-13.08-13.07c2.23-2.24,2.37-5.73,.31-8.13-1.15-1.34-2.81-2.1-4.55-2.1-1.23,0-2.42,.38-3.44,1.11l-29.07,19.67-8.89-8.89c-.27-.27-.41-.61-.41-1v-28.62c0-4.32-3.51-7.83-7.83-7.83h-28.62c-.38,0-.73-.14-1-.41l-20.24-20.24c-1.48-1.48-3.45-2.29-5.54-2.29s-4.06,.81-5.54,2.29l-20.24,20.24c-.26,.26-.63,.41-1,.41h-12.89l-6.33-34.41c-.48-2.9-2.95-5-5.9-5-.15,0-.3,0-.44,.02-3.16,.24-5.54,2.8-5.54,5.97h-18.5c0-3.16-2.38-5.73-5.53-5.96-.15-.01-.3-.02-.46-.02-2.95,0-5.42,2.09-5.89,4.98l-6.33,34.43h-12.89c-.38,0-.73-.14-1-.41l-20.24-20.24c-1.48-1.48-3.44-2.29-5.54-2.29s-4.06,.81-5.53,2.29l-20.24,20.24c-.27,.27-.61,.41-1,.41h-28.62c-4.32,0-7.83,3.51-7.83,7.83v28.62c0,.38-.14,.73-.41,1l-8.89,8.89-29.05-19.65c-1.03-.73-2.22-1.12-3.46-1.12-1.74,0-3.39,.76-4.54,2.09-2.06,2.4-1.93,5.9,.3,8.13l-13.07,13.08c-1.14-1.14-2.63-1.77-4.21-1.77-1.43,0-2.82,.52-3.92,1.46-2.38,2.04-2.79,5.45-1,7.98l19.67,29.07-8.89,8.89c-.27,.27-.61,.41-1,.41h-28.62c-4.32,0-7.83,3.51-7.83,7.83v28.62c0,.38-.14,.73-.41,1l-20.24,20.24c-1.48,1.48-2.29,3.44-2.29,5.54s.81,4.06,2.29,5.54l20.24,20.24c.27,.27,.41,.61,.41,1v12.89l-34.41,6.33c-3.08,.51-5.22,3.22-4.99,6.35,.24,3.15,2.8,5.53,5.97,5.53v18.5c-3.16,0-5.73,2.38-5.97,5.53-.23,3.13,1.89,5.84,4.96,6.35l34.43,6.33v12.89c0,.38-.14,.73-.41,1l-20.24,20.24c-3.05,3.05-3.05,8.02,0,11.07l20.24,20.24c.27,.27,.41,.61,.41,1v28.62c0,4.32,3.51,7.83,7.83,7.83h28.62c.38,0,.73,.14,1,.41l8.89,8.89-19.66,29.05c-1.81,2.54-1.4,5.97,.98,8,1.09,.94,2.48,1.46,3.92,1.46,1.58,0,3.07-.63,4.21-1.77l13.07,13.08c-2.23,2.23-2.37,5.73-.31,8.13,1.15,1.34,2.81,2.1,4.55,2.1,1.23,0,2.41-.38,3.43-1.11l29.07-19.67,8.9,8.89c.27,.27,.41,.61,.41,1v28.62c0,4.32,3.51,7.83,7.83,7.83h28.62c.38,0,.73,.14,1,.41l20.24,20.24c1.48,1.48,3.45,2.29,5.54,2.29s4.06-.81,5.53-2.29l20.24-20.24c.27-.27,.61-.41,1-.41h12.89l6.33,34.41c.48,2.9,2.95,5,5.9,5,.15,0,.31,0,.46-.02,3.15-.24,5.53-2.8,5.53-5.96h18.5c0,3.16,2.38,5.73,5.53,5.96,.14,.01,.3,.02,.45,.02,2.95,0,5.42-2.09,5.89-4.98l6.33-34.43h12.89c.37,0,.74,.15,.99,.41l20.24,20.24c1.48,1.48,3.45,2.29,5.54,2.29s4.06-.81,5.53-2.29l20.24-20.24c.27-.27,.61-.41,1-.41h28.62c4.32,0,7.83-3.51,7.83-7.83v-28.62c0-.38,.14-.73,.41-1l8.89-8.89,29.05,19.65c1.03,.74,2.23,1.13,3.47,1.13,1.74,0,3.39-.77,4.54-2.1,2.06-2.4,1.93-5.89-.31-8.13l13.07-13.08c1.14,1.14,2.63,1.77,4.21,1.77,1.44,0,2.83-.52,3.92-1.46,2.37-2.03,2.79-5.45,.99-7.98l-19.67-29.07,8.89-8.9c.27-.27,.61-.41,1-.41h28.62c4.32,0,7.83-3.51,7.83-7.83v-28.62c0-.38,.14-.73,.41-1l20.24-20.24c3.05-3.05,3.05-8.02,0-11.07l-20.24-20.24c-.27-.27-.41-.61-.41-1v-12.89l34.41-6.33c3.08-.51,5.22-3.22,4.99-6.35-.24-3.15-2.8-5.53-5.97-5.53Z"/><path class="d" d="M282.25,66.3h65.41l46.25,46.25c.72,.72,1.68,1.12,2.71,1.12s1.98-.4,2.71-1.12l7.29-7.29h0l2.41-2.41,29.71-29.71c.85-.85,.7-2,.1-2.69-.6-.69-1.71-1.02-2.65-.32l-31.29,21.17c-.32,.23-.75,.2-1.03-.08l-10.77-10.77c-1.02-1.02-1.58-2.38-1.58-3.82v-28.62c0-2.11-1.72-3.83-3.83-3.83h-28.62c-1.44,0-2.8-.56-3.83-1.58l-20.24-20.24c-1.49-1.49-3.92-1.49-5.42,0l-20.24,20.24c-1.01,1.01-2.4,1.58-3.82,1.58h-16.22l-6.94-37.73c-.18-1.19-1.18-1.75-2.11-1.68-.91,.07-1.83,.77-1.83,1.98V62.47c0,2.11,1.72,3.83,3.83,3.83Zm23.27-20.61c1.82,0,3.6-.74,4.88-2.02l20.24-20.24c.91-.91,2.39-.91,3.29,0l20.24,20.24c1.31,1.3,3.04,2.02,4.89,2.02h28.62c1.28,0,2.33,1.04,2.33,2.33v28.62c0,1.85,.72,3.58,2.02,4.89l10.77,10.77c.81,.81,2.06,.9,2.95,.24l31.29-21.17c.32-.24,.56-.03,.65,.07,.09,.1,.26,.37-.02,.65l-27.06,27.06h0l-2.65,2.65-2.41,2.41c-.88,.88-2.41,.88-3.29,0l-19.48-19.48c-1.02-1.02-1.58-2.38-1.58-3.82v-24.12c0-1.26-1.03-2.29-2.29-2.29h-26.36l-18.64-18.64c-.87-.87-2.37-.87-3.24,0l-17.06,17.06c-1.02,1.02-2.38,1.58-3.82,1.58h-17.93c-.39,0-.72-.28-.79-.69l-1.49-8.11h15.94Zm-25.6-38.93c0-.4,.31-.47,.45-.48,.13-.01,.45,0,.52,.43l8.71,47.34c.17,1.13,1.12,1.95,2.26,1.95h17.93c1.84,0,3.58-.72,4.88-2.02l17.06-17.06c.31-.31,.81-.31,1.12,0l36.76,36.76c.14,.14,.33,.22,.53,.22,.1,0,.19-.02,.29-.06,.28-.12,.46-.39,.46-.69v-7.59c0-.41-.34-.75-.75-.75h-7.28l-8.81-8.81h24.86c.44,0,.79,.35,.79,.79v24.12c0,1.84,.72,3.58,2.02,4.88l19.48,19.48c.61,.61,1.38,.97,2.22,1.07l-5.15,5.15c-.88,.88-2.42,.88-3.29,0l-62.15-62.15c-.28-.28-.78-.28-1.06,0l-5.37,5.38c-.21,.21-.28,.54-.16,.82,.12,.28,.39,.46,.69,.46h10.44l8.81,8.81h-63.91c-1.28,0-2.33-1.04-2.33-2.33V6.75Zm84.44,59.55h5.03v5.03l-5.03-5.03Zm-28.51-11.81h-7.13l3.56-3.56,3.56,3.56ZM250.09,4.77c-.92-.07-1.93,.49-2.1,1.66l-6.95,37.75h-16.22c-1.45,0-2.8-.56-3.82-1.58l-20.24-20.24c-1.49-1.49-3.92-1.49-5.42,0l-20.24,20.24c-1.02,1.02-2.38,1.58-3.83,1.58h-28.62c-2.11,0-3.83,1.72-3.83,3.83v28.62c0,1.44-.56,2.8-1.58,3.82l-10.77,10.77c-.28,.28-.71,.31-1.05,.06l-31.24-21.14c-.97-.72-2.08-.39-2.68,.3-.59,.69-.75,1.84,.1,2.69l28.49,28.5h0l3.62,3.62h0l7.29,7.29c.72,.72,1.68,1.12,2.71,1.12s1.99-.4,2.71-1.12l46.25-46.25h65.41c2.11,0,3.83-1.72,3.83-3.83V6.75c0-1.21-.92-1.91-1.83-1.98ZM92.64,71.43c.09-.1,.33-.31,.68-.06l31.24,21.14c.92,.67,2.17,.58,2.98-.22l10.77-10.77c1.3-1.3,2.02-3.04,2.02-4.89v-28.62c0-1.28,1.04-2.33,2.33-2.33h28.62c1.85,0,3.58-.72,4.89-2.02l20.24-20.24c.91-.91,2.39-.91,3.29,0l20.24,20.24c1.3,1.3,3.04,2.02,4.88,2.02h15.94l-1.5,8.14c-.06,.39-.39,.67-.78,.67h-17.94c-1.44,0-2.79-.56-3.81-1.57l-17.13-17.02c-.89-.89-2.34-.88-3.23,0l-18.58,18.58h-26.36c-1.26,0-2.29,1.03-2.29,2.29v24.12c0,1.44-.56,2.8-1.58,3.82l-19.48,19.48c-.88,.88-2.41,.88-3.29,0l-32.11-32.12c-.29-.29-.11-.55-.02-.65Zm157.78-8.96c0,1.28-1.04,2.33-2.33,2.33h-63.91l8.81-8.81h10.44c.3,0,.58-.18,.69-.46,.12-.28,.05-.6-.16-.82l-5.37-5.38c-.14-.14-.33-.22-.53-.22s-.39,.08-.53,.22l-62.15,62.15c-.88,.88-2.41,.88-3.29,0l-5.15-5.15c.84-.11,1.61-.47,2.22-1.07l19.48-19.48c1.3-1.31,2.02-3.04,2.02-4.88v-24.12c0-.44,.35-.79,.79-.79h24.86l-8.81,8.81h-7.28c-.41,0-.75,.34-.75,.75v7.59c0,.3,.18,.58,.46,.69,.09,.04,.19,.06,.29,.06,.2,0,.39-.08,.53-.22l36.7-36.7c.31-.31,.81-.31,1.12,0l17.13,17.02c1.3,1.29,3.03,2.01,4.87,2.01h17.94c1.14,0,2.09-.82,2.26-1.92l8.72-47.39c.06-.4,.37-.42,.51-.41,.13,.01,.45,.08,.45,.48V62.47Zm-55.93-7.98l3.56-3.56,3.56,3.56h-7.13Zm-28.51,11.81l-5.03,5.03v-5.03h5.03Zm243.05,361.72l-2.41-2.41h0l-7.29-7.29c-1.45-1.45-3.97-1.45-5.42,0l-46.25,46.25h-65.41c-2.11,0-3.83,1.72-3.83,3.83v55.72c0,1.21,.92,1.91,1.83,1.98,.05,0,.1,0,.15,0,.87,0,1.79-.56,1.95-1.66l6.95-37.75h16.22c1.42,0,2.82,.58,3.82,1.58l20.24,20.24c.75,.75,1.73,1.12,2.71,1.12s1.96-.37,2.71-1.12l20.24-20.24c1.02-1.02,2.38-1.58,3.83-1.58h28.62c2.11,0,3.83-1.72,3.83-3.83v-28.62c0-1.45,.56-2.8,1.58-3.83l10.77-10.77c.28-.28,.71-.31,1.05-.06l31.24,21.14c.97,.72,2.08,.39,2.68-.3s.75-1.84-.1-2.69l-29.71-29.71Zm-128.15,96.17c-.06,.4-.37,.42-.51,.41-.13-.01-.45-.08-.45-.48v-55.72c0-1.28,1.04-2.33,2.33-2.33h63.91l-8.81,8.81h-10.44c-.3,0-.58,.18-.69,.46-.12,.28-.05,.6,.16,.82l5.37,5.38c.14,.14,.33,.22,.53,.22s.39-.08,.53-.22l62.15-62.15c.88-.88,2.41-.88,3.29,0l5.18,5.18c-.83,.09-1.64,.43-2.25,1.04l-19.48,19.48c-1.3,1.31-2.02,3.04-2.02,4.88v24.12c0,.44-.35,.79-.79,.79h-24.86l8.81-8.81h7.28c.41,0,.75-.34,.75-.75v-7.59c0-.3-.18-.58-.46-.69-.28-.11-.6-.05-.82,.16l-36.76,36.76c-.3,.3-.82,.3-1.12,0l-17.06-17.06c-1.31-1.31-3.04-2.02-4.88-2.02h-17.93c-1.14,0-2.09,.82-2.26,1.92l-8.72,47.39Zm54.98-47.81l-3.57,3.57-3.56-3.57h7.13Zm28.5-11.81l5.03-5.03v5.03h-5.03Zm73.34-5.13c-.09,.1-.33,.31-.68,.06l-31.24-21.14c-.92-.68-2.17-.58-2.98,.22l-10.77,10.77c-1.3,1.3-2.02,3.04-2.02,4.89v28.62c0,1.28-1.04,2.33-2.33,2.33h-28.62c-1.85,0-3.58,.72-4.89,2.02l-20.24,20.24c-.91,.91-2.39,.91-3.29,0l-20.24-20.24c-1.28-1.29-3.07-2.02-4.88-2.02h-15.94l1.5-8.14c.06-.39,.39-.67,.78-.67h17.93c1.44,0,2.8,.56,3.82,1.58l17.06,17.06c.87,.87,2.37,.87,3.24,0l18.64-18.64h26.36c1.26,0,2.29-1.03,2.29-2.29v-24.12c0-1.44,.56-2.8,1.58-3.82l19.48-19.48c.88-.88,2.41-.88,3.29,0l2.41,2.41,2.65,2.65h0l27.06,27.06c.29,.29,.11,.55,.02,.65Zm-189.61,5.13h-65.41l-46.25-46.25c-1.44-1.45-3.97-1.45-5.42,0l-7.29,7.29h0l-3.62,3.62h0l-28.49,28.5c-.85,.85-.7,2-.1,2.69,.6,.69,1.71,1.02,2.65,.32l31.29-21.17c.32-.23,.75-.2,1.03,.08l10.77,10.77c1.02,1.02,1.58,2.38,1.58,3.83v28.62c0,2.11,1.72,3.83,3.83,3.83h28.62c1.45,0,2.8,.56,3.83,1.58l20.24,20.24c.75,.75,1.73,1.12,2.71,1.12s1.96-.37,2.71-1.12l20.24-20.24c1.02-1.02,2.38-1.58,3.82-1.58h16.22l6.94,37.73c.17,1.13,1.09,1.68,1.96,1.68,.05,0,.1,0,.15,0,.91-.07,1.83-.77,1.83-1.98v-55.72c0-2.11-1.72-3.83-3.83-3.83Zm-23.27,20.61c-1.85,0-3.58,.72-4.88,2.02l-20.24,20.24c-.91,.91-2.39,.91-3.29,0l-20.24-20.24c-1.3-1.3-3.04-2.02-4.89-2.02h-28.62c-1.28,0-2.33-1.04-2.33-2.33v-28.62c0-1.85-.72-3.58-2.02-4.89l-10.77-10.77c-.81-.81-2.06-.9-2.95-.24l-31.29,21.17c-.33,.24-.56,.03-.65-.07-.09-.1-.26-.37,.02-.65l32.11-32.12c.88-.88,2.41-.88,3.29,0l19.48,19.48c1.02,1.02,1.58,2.38,1.58,3.82v24.12c0,1.26,1.03,2.29,2.29,2.29h26.36l18.58,18.58c.89,.89,2.34,.89,3.23,0l17.13-17.02c1.02-1.01,2.38-1.57,3.81-1.57h17.94c.39,0,.72,.28,.79,.69l1.49,8.11h-15.94Zm25.6,38.93c0,.4-.31,.47-.45,.48-.13,0-.45,0-.52-.43l-8.71-47.34c-.17-1.13-1.12-1.95-2.26-1.95h-17.94c-1.84,0-3.57,.71-4.87,2.01l-17.13,17.02c-.31,.31-.81,.31-1.12,0l-36.7-36.7c-.21-.21-.54-.28-.82-.16-.28,.12-.46,.39-.46,.69v7.59c0,.41,.34,.75,.75,.75h7.28l8.81,8.81h-24.86c-.44,0-.79-.35-.79-.79v-24.12c0-1.85-.72-3.58-2.02-4.88l-19.48-19.48c-.61-.61-1.42-.95-2.25-1.04l5.18-5.18c.88-.88,2.41-.88,3.29,0l62.15,62.15c.28,.28,.78,.28,1.06,0l5.37-5.38c.21-.21,.28-.54,.16-.82-.12-.28-.39-.46-.69-.46h-10.44l-8.81-8.81h63.91c1.28,0,2.33,1.04,2.33,2.33v55.72Zm-84.44-59.55h-5.03v-5.03l5.03,5.03Zm28.5,11.81h7.13l-3.56,3.57-3.57-3.57Zm329.37-197.69h-55.72c-2.11,0-3.83,1.72-3.83,3.83v65.41l-46.25,46.25c-1.49,1.49-1.49,3.92,0,5.42l7.28,7.28h0l5.05,5.06h0l27.06,27.06c.42,.42,.91,.59,1.38,.59s.96-.19,1.31-.49c.69-.59,1.02-1.71,.32-2.65l-21.17-31.29c-.23-.32-.2-.75,.08-1.03l10.77-10.77c1.02-1.02,2.38-1.58,3.83-1.58h28.62c2.11,0,3.83-1.72,3.83-3.83v-28.62c0-1.44,.56-2.8,1.58-3.82l20.24-20.24c1.49-1.49,1.49-3.92,0-5.42l-20.24-20.24c-1.02-1.02-1.58-2.38-1.58-3.83v-16.22l37.73-6.94c1.19-.18,1.75-1.2,1.68-2.11-.07-.91-.77-1.83-1.98-1.83Zm-36.91,31.99l20.24,20.24c.91,.91,.91,2.39,0,3.29l-20.24,20.24c-1.3,1.31-2.02,3.04-2.02,4.88v28.62c0,1.28-1.04,2.33-2.33,2.33h-28.62c-1.84,0-3.58,.72-4.89,2.02l-10.77,10.77c-.81,.81-.9,2.06-.24,2.95l21.17,31.29c.24,.33,.03,.56-.07,.65-.1,.09-.37,.26-.65-.02l-32.12-32.12c-.9-.91-.9-2.38,0-3.29l19.48-19.48c1.02-1.02,2.38-1.58,3.83-1.58h24.12c1.26,0,2.29-1.03,2.29-2.29v-26.36l18.64-18.64c.43-.43,.67-1.01,.67-1.62s-.24-1.19-.67-1.62l-17.06-17.06c-1.02-1.02-1.58-2.38-1.58-3.83v-17.93c0-.39,.28-.72,.69-.79l8.11-1.49v15.94c0,1.85,.72,3.58,2.02,4.89Zm36.96-29.52l-47.34,8.71c-1.13,.17-1.95,1.12-1.95,2.26v17.93c0,1.85,.72,3.58,2.02,4.89l17.06,17.06c.15,.15,.23,.35,.23,.56s-.08,.41-.23,.56l-36.76,36.76c-.21,.21-.28,.54-.16,.82,.12,.28,.39,.46,.69,.46h7.59c.41,0,.75-.34,.75-.75v-7.28l8.81-8.81v24.86c0,.44-.35,.79-.79,.79h-24.12c-1.85,0-3.58,.72-4.89,2.02l-19.48,19.48c-.62,.62-.97,1.41-1.07,2.22l-5.15-5.15c-.91-.91-.91-2.39,0-3.29l56.76-56.76s.03-.03,.05-.05l5.35-5.35c.14-.14,.22-.33,.22-.53s-.08-.39-.22-.53l-5.38-5.37c-.21-.21-.54-.28-.82-.16-.28,.12-.46,.39-.46,.69v10.44l-8.81,8.81v-63.91c0-1.28,1.04-2.33,2.33-2.33h55.72c.4,0,.47,.31,.48,.45,.01,.13,0,.45-.43,.52Zm-59.6,83.48v5.03h-5.03l5.03-5.03Zm11.81-28.51v-7.13l3.56,3.56-3.56,3.56Zm-47.15-215.75l-3.62,3.62h0l-7.29,7.29c-1.49,1.49-1.49,3.92,0,5.42l46.25,46.25v65.41c0,2.11,1.72,3.83,3.83,3.83h55.72c1.21,0,1.91-.92,1.98-1.83,.07-.91-.49-1.93-1.66-2.1l-37.75-6.95v-16.22c0-1.44,.56-2.8,1.58-3.82l20.24-20.24c1.49-1.49,1.49-3.92,0-5.42l-20.24-20.24c-1.02-1.02-1.58-2.38-1.58-3.82v-28.62c0-2.11-1.72-3.83-3.83-3.83h-28.62c-1.44,0-2.8-.56-3.83-1.58l-10.77-10.77c-.28-.28-.31-.71-.06-1.05l21.14-31.24c.71-.97,.39-2.08-.3-2.68-.69-.6-1.84-.75-2.69,.1l-28.5,28.5h0Zm95.37,129.87c0,.13-.08,.45-.48,.45h-55.72c-1.29,0-2.33-1.04-2.33-2.33v-63.91l8.81,8.81v10.44c0,.3,.18,.58,.46,.69,.28,.12,.6,.05,.82-.16l5.38-5.37c.14-.14,.22-.33,.22-.53s-.08-.39-.22-.53l-5.36-5.36s-.02-.02-.03-.03l-56.76-56.76c-.91-.91-.91-2.39,0-3.29l5.15-5.15c.1,.81,.45,1.6,1.07,2.22l19.48,19.48c1.31,1.3,3.04,2.02,4.89,2.02h24.12c.44,0,.79,.35,.79,.79v24.86l-8.81-8.81v-7.28c0-.41-.34-.75-.75-.75h-7.59c-.3,0-.58,.18-.69,.46-.12,.28-.05,.6,.16,.82l17.9,17.9h0l18.8,18.8c.31,.31,.31,.81,0,1.12l-17.02,17.13c-1.29,1.3-2.01,3.03-2.01,4.87v17.94c0,1.14,.82,2.09,1.92,2.26l47.39,8.72c.4,.06,.42,.38,.41,.51Zm-48.22-48.36v-7.13l3.56,3.56-3.56,3.56Zm-11.81-40.67v5.03l-5.03-5.03h5.03Zm-5.78-68.28c.28-.28,.55-.11,.65-.02,.1,.09,.31,.33,.06,.68l-21.14,31.24c-.68,.92-.58,2.17,.22,2.98l10.77,10.77c1.31,1.3,3.04,2.02,4.89,2.02h28.62c1.29,0,2.33,1.04,2.33,2.33v28.62c0,1.85,.72,3.58,2.02,4.89l20.24,20.24c.91,.91,.91,2.39,0,3.29l-20.24,20.24c-1.3,1.3-2.02,3.04-2.02,4.89v15.94l-8.14-1.5c-.39-.06-.67-.39-.67-.78v-17.94c0-1.44,.56-2.79,1.57-3.81l17.02-17.13c.89-.89,.88-2.34,0-3.23l-18.58-18.58v-26.36c0-1.26-1.03-2.29-2.29-2.29h-24.12c-1.44,0-2.8-.56-3.83-1.58l-19.48-19.48c-.91-.91-.91-2.38,0-3.29l32.12-32.12ZM99.94,411.94l5.05-5.05h0l7.28-7.29c1.49-1.49,1.49-3.92,0-5.42l-46.25-46.25v-65.41c0-2.11-1.72-3.83-3.83-3.83H6.48c-1.21,0-1.91,.92-1.98,1.83-.07,.91,.49,1.93,1.66,2.1l37.75,6.95v16.22c0,1.45-.56,2.8-1.58,3.83l-20.24,20.24c-1.49,1.49-1.49,3.92,0,5.42l20.24,20.24c1.02,1.02,1.58,2.38,1.58,3.82v28.62c0,2.11,1.72,3.83,3.83,3.83h28.62c1.44,0,2.8,.56,3.83,1.58l10.77,10.77c.28,.28,.31,.71,.06,1.05l-21.14,31.24c-.71,.97-.39,2.08,.31,2.68,.35,.3,.82,.49,1.31,.49s.96-.17,1.38-.59l27.06-27.06h0ZM6,280.63c0-.13,.08-.45,.48-.45H62.2c1.29,0,2.33,1.04,2.33,2.33v63.91l-8.81-8.81v-10.44c0-.3-.18-.58-.46-.69-.28-.12-.6-.05-.82,.16l-5.38,5.37c-.14,.14-.22,.33-.22,.53s.08,.39,.22,.53l5.35,5.35s.03,.03,.04,.04l56.76,56.76c.91,.91,.91,2.39,0,3.29l-5.15,5.15c-.1-.81-.45-1.6-1.07-2.22l-19.48-19.48c-1.3-1.3-3.04-2.02-4.88-2.02h-24.12c-.44,0-.79-.35-.79-.79v-24.86l8.81,8.81v7.28c0,.41,.34,.75,.75,.75h7.59c.3,0,.58-.18,.69-.46,.12-.28,.05-.6-.16-.82l-36.76-36.76c-.31-.31-.31-.81,0-1.12l17.06-17.06c1.3-1.3,2.02-3.04,2.02-4.89v-17.93c0-1.14-.82-2.09-1.92-2.26l-47.39-8.72c-.4-.06-.42-.38-.41-.51Zm48.22,48.36v7.13l-3.56-3.56,3.56-3.56Zm11.81,40.67v-5.03l5.03,5.03h-5.03Zm5.78,68.28c-.29,.28-.55,.11-.65,.02-.1-.09-.31-.33-.06-.68l21.14-31.24c.68-.92,.58-2.17-.23-2.98l-10.77-10.77c-1.31-1.3-3.04-2.02-4.89-2.02h-28.62c-1.29,0-2.33-1.04-2.33-2.33v-28.62c0-1.85-.72-3.58-2.02-4.88l-20.24-20.24c-.91-.91-.91-2.39,0-3.29l20.24-20.24c1.3-1.3,2.02-3.04,2.02-4.89v-15.94l8.14,1.5c.39,.06,.67,.39,.67,.78v17.93c0,1.45-.56,2.8-1.58,3.83l-17.06,17.06c-.43,.43-.67,1.01-.67,1.62s.24,1.19,.67,1.62l18.64,18.64v26.36c0,1.26,1.03,2.29,2.29,2.29h24.12c1.45,0,2.8,.56,3.82,1.58l19.48,19.48c.91,.91,.91,2.38,0,3.29l-32.12,32.12ZM6.48,252.18H62.2c2.11,0,3.83-1.72,3.83-3.83v-65.41l46.25-46.25c.72-.72,1.12-1.69,1.12-2.71s-.4-1.98-1.12-2.71l-7.29-7.28h0l-3.62-3.62h0l-28.5-28.5c-.85-.85-2-.7-2.69-.1-.69,.6-1.02,1.71-.32,2.65l21.17,31.29c.23,.32,.2,.75-.08,1.03l-10.77,10.77c-1.02,1.02-2.38,1.58-3.83,1.58h-28.62c-2.11,0-3.83,1.72-3.83,3.83v28.62c0,1.45-.56,2.8-1.58,3.82l-20.24,20.24c-1.49,1.49-1.49,3.92,0,5.42l20.24,20.24c1.02,1.02,1.58,2.38,1.58,3.82v16.22l-37.73,6.94c-1.19,.18-1.75,1.2-1.68,2.11,.07,.91,.77,1.83,1.98,1.83Zm36.91-31.98l-20.24-20.24c-.91-.91-.91-2.39,0-3.29l20.24-20.24c1.3-1.3,2.02-3.04,2.02-4.89v-28.62c0-1.28,1.04-2.33,2.33-2.33h28.62c1.85,0,3.58-.72,4.89-2.02l10.77-10.77c.81-.81,.9-2.06,.24-2.95l-21.17-31.29c-.24-.33-.03-.56,.07-.65,.1-.09,.37-.26,.65,.02l32.12,32.12c.91,.91,.91,2.38,0,3.29l-19.48,19.48c-1.02,1.02-2.38,1.58-3.83,1.58h-24.12c-1.26,0-2.29,1.03-2.29,2.29v26.36l-18.58,18.58c-.89,.89-.89,2.34,0,3.23l17.02,17.13c1.01,1.02,1.57,2.37,1.57,3.81v17.94c0,.39-.28,.72-.69,.78l-8.11,1.49v-15.94c0-1.85-.72-3.58-2.02-4.89ZM6.43,249.72l47.34-8.71c1.13-.17,1.95-1.12,1.95-2.26v-17.94c0-1.84-.71-3.57-2.01-4.87l-17.02-17.13c-.31-.31-.31-.81,0-1.11l18.8-18.8h0l17.9-17.9c.21-.21,.28-.54,.16-.82-.12-.28-.39-.46-.69-.46h-7.59c-.41,0-.75,.34-.75,.75v7.28l-8.81,8.81v-24.86c0-.44,.35-.79,.79-.79h24.12c1.85,0,3.58-.72,4.89-2.02l19.48-19.48c.62-.62,.97-1.41,1.07-2.22l5.15,5.15c.44,.44,.68,1.02,.68,1.65s-.24,1.21-.68,1.65l-56.76,56.76-.03,.03-5.36,5.36c-.14,.14-.22,.33-.22,.53s.08,.39,.22,.53l5.38,5.37c.21,.21,.54,.28,.82,.16,.28-.12,.46-.39,.46-.69v-10.44l8.81-8.81v63.91c0,1.28-1.04,2.33-2.33,2.33H6.48c-.4,0-.47-.31-.48-.45-.01-.13,0-.45,.43-.52Zm59.6-83.48v-5.03h5.03l-5.03,5.03Zm-11.81,28.51v7.13l-3.56-3.56,3.56-3.56Z"/></g></g></svg>