<?xml version="1.0" encoding="UTF-8"?><svg xmlns="http://www.w3.org/2000/svg" viewBox="0 0 241.24 310.67"><defs><style>.j{fill:#fff;}.k{fill:#100c08;}</style></defs><g id="a"/><g id="b"><g id="c"><path id="d" class="k" d="M120.07,0c-3.32,0-11.47,.1-15.52,1.06-4.09,.97-14.84,3.95-19.94,5.96-12.27,4.84-21.49,9.91-24.02,11.34-4.3,2.44-14.99,8.75-21.2,14.58-3.78,3.54-14.45,14.41-18.43,20.27-3.16,4.65-9.35,15.85-12.61,25.14-3.42,9.77-4.58,17.31-5.91,26.03l-.06,.36c-1.19,7.76-2.01,24.64,2.44,38.72,.14,.45,.32,1,.53,1.66,4.21,12.97,6.14,21.63,5.76,25.78-.08,.08-.15,.17-.21,.24l-.18,.21c-1.09,1.27-3.35,3.92-2.31,9.46,.05,.26,.1,.57,.15,.88,.09,.53,.17,1.07,.28,1.56,1.08,5,.7,6.95,.14,9.91-.06,.29-.11,.59-.17,.9-.72,3.86-1.97,5.07-3.55,6.6-1.7,1.64-3.81,3.68-4.6,7.95-.91,4.88-1.34,11.67,1.75,16.32,1.17,1.76,1.65,2.97,2.16,4.25,.86,2.15,1.74,4.38,5.07,7.4,1.43,1.3,1.78,1.94,2.32,2.9,.44,.79,.99,1.78,2,3.03,2,2.47,4.34,4.96,7.92,6.45,2.57,1.06,4.92,1.58,7.19,1.58,2.7,0,5.26-.74,7.62-2.21,.97-.18,1.93-.27,2.87-.27,2.81,0,4.88,.8,6.2,1.41,.34,.15,.74,.33,1.19,.52,1.96,.83,5.24,2.22,6.52,4.25,1.3,2.05,2.8,3.31,3.9,4.23,.82,.68,1.29,1.09,1.5,1.52,.36,.74,.64,1.63,.96,2.66,.6,1.93,1.35,4.34,3.08,6.95,.4,.6,.41,.79,.38,2.07-.03,1.43-.07,3.38,.84,6.04,.4,1.16,.35,1.48,.24,2.12-.12,.72-.28,1.72-.06,3.06-.55,1.34-.93,3.03-1.21,5.34-.27,2.24-.22,4.07,.17,5.77,.76,3.33,2.91,5.01,5.04,5.62,.28,.46,.6,.91,.98,1.36,1.37,1.64,3.32,2.6,5.51,2.73,.06,.08,.13,.16,.19,.24,1.37,1.63,3.18,2.53,5.11,2.53,1.15,0,2.31-.33,3.32-.93,.16,.12,.33,.23,.5,.33,.93,.55,2.01,.85,3.13,.85s2.24-.28,3.38-.82c1.53,1.29,3.36,2.25,4.62,2.63,.74,.23,1.53,.34,2.33,.34,1.96,0,3.75-.65,5.48-1.41,.96,.83,2.19,1.44,3.71,1.7l.19,.03c1,.17,2.24,.38,3.51,.38,.48,0,.94-.03,1.38-.09,.08,.02,.19,.05,.28,.08,.65,.19,1.63,.47,3,.47,.09,0,.18,0,.27,0h.16c.21,0,.42,0,.64,.01,.3,0,.62,.02,.93,.02,1.19,0,2.86-.11,4.48-.97,1.75,.82,3.84,.95,5.87,.95,.28,0,.56,0,.81,0,.2,0,.39,0,.56,0,.11,0,.2,0,.29,0,.81,.02,1.11,.09,1.7,.22,.39,.09,.88,.2,1.54,.3,.41,.06,.84,.09,1.32,.09,1.52,0,3.3-.31,4.49-.51l.2-.03c1.25-.21,2.99-.85,4.22-2.66,1.07,.58,2.55,1.27,4.42,1.27,.28,0,.56-.02,.84-.05,2.72-.31,4.18-1.32,5.27-2.44,1.18,.81,2.65,1.57,4.48,1.57,1.04,0,2.06-.25,3.03-.74,.52-.26,.99-.59,1.42-.97,.7,.25,1.44,.39,2.18,.39,1.93,0,3.74-.9,5.11-2.53,.07-.08,.13-.16,.19-.24,2.2-.13,4.14-1.09,5.51-2.73,.38-.45,.7-.9,.98-1.36,2.13-.61,4.29-2.29,5.04-5.62,.39-1.7,.44-3.53,.17-5.78-.19-1.56-.42-2.82-.72-3.89,.37-1.71,0-3.44-.29-4.83-.16-.74-.42-1.98-.32-2.38,.83-2.76,.81-4.84,.8-6.36-.01-1.35,0-1.99,.37-2.86,.9-2.08,1.08-4.06,1.25-5.81,.08-.9,.16-1.75,.34-2.45,.33-1.37,.61-2.02,1.12-3.21,.11-.26,.23-.53,.35-.82,.15-.35,.27-.52,.59-.97,.45-.62,1.06-1.48,1.79-2.98,.45-.92,.82-1.25,1.49-1.86,.5-.45,1.12-1.02,1.75-1.82,.59-.74,3.15-2.38,4.09-2.63,.23-.05,.47-.07,.76-.07,.31,0,.64,.03,.98,.06,.39,.03,.83,.07,1.3,.07s.88-.04,1.28-.11c.81-.15,1.59-.23,2.31-.23,2.39,0,3.9,.8,5.06,1.59,2.4,1.62,5.37,2.51,8.36,2.51,.89,0,1.77-.08,2.62-.24,5.35-1.01,9.74-5.38,11.5-7.79,.36-.5,.69-.91,1-1.31,.98-1.23,1.99-2.5,2.35-4.57,.38-2.19,1.57-4.53,3.11-6.1,.28-.29,.59-.58,.9-.88,2.21-2.12,5.54-5.33,5.95-11.11,.21-2.93-.19-5.39-.51-7.37-.08-.49-.15-.95-.21-1.39-.56-4.19-2.63-6.22-4.14-7.7-.35-.34-.68-.67-.96-.99-1.37-1.57-1.88-2.6-2-2.86-.03-.11-.03-.08-.09-.24-1.16-2.88-2.43-7-1.9-13.35,.46-5.53-.14-9.64-.63-12.93-.17-1.15-.32-2.15-.39-3.03-.25-2.98,3.01-14.56,5.39-23.02l.48-1.71c3.37-11.99,4.24-19.43,3.73-31.85-.45-10.86-1.77-19.88-3.95-26.82-1.41-4.51-3.99-10.66-5.78-14.47-1.73-3.68-3.21-6.11-4.92-8.93l-.3-.5c-1.88-3.11-6.65-9.42-8.45-11.46-1.81-2.04-9.94-10.86-14.13-14.47-3.11-2.68-7.84-6.05-12.01-9.02-1.44-1.03-2.8-1.99-3.94-2.83-6.73-4.92-19.99-12.06-24.44-13.76-4.03-1.54-16.41-5.7-22.13-6.76-4.72-.87-11.04-1.52-16.1-1.67-1.1-.03-2.39-.05-3.72-.05h0Z"/><path id="e" class="j" d="M236.49,208.96c-.49-3.66-2.46-4.66-4.15-6.59-2.29-2.62-2.79-4.23-2.79-4.23-1.57-3.88-2.73-8.54-2.17-15.19,.59-7-.72-11.64-1.02-15.3-.33-3.91,3.02-15.53,6-26.14,3.29-11.74,4.07-18.72,3.58-30.6-.23-5.49-.91-16.65-3.77-25.79-1.35-4.32-3.84-10.26-5.58-13.95-1.74-3.7-3.21-6.07-5.02-9.07s-6.42-9.07-8.02-10.88c-1.6-1.81-9.7-10.6-13.74-14.09-4.05-3.49-11.35-8.47-15.7-11.65-6.38-4.66-19.33-11.65-23.51-13.26-4.19-1.6-16.12-5.58-21.42-6.56-4.5-.83-10.6-1.47-15.49-1.6-4.88-.14-14.37,0-18.21,.91-3.84,.91-14.43,3.83-19.4,5.79-10.26,4.05-18.84,8.45-23.52,11.1-4.67,2.65-14.78,8.71-20.44,14.02-4.14,3.89-14.3,14.37-17.86,19.6-3.26,4.8-9.11,15.57-12.14,24.21-3.35,9.56-4.47,17.02-5.79,25.67-1.33,8.65-1.68,24.33,2.3,36.91,1.53,4.84,7.91,23.26,6.23,30.51,0,0-.64,.64-.88,.93-.93,1.12-2.37,2.42-1.63,6.37,.13,.7,.26,1.67,.41,2.34,1.36,6.32,.66,8.78-.01,12.39-1.75,9.42-6.92,7.94-8.15,14.56-.74,4-1.21,9.82,1.15,13.37,3.42,5.15,2.11,6.84,6.59,10.91,3.14,2.85,2.7,3.85,4.75,6.38,1.64,2.03,3.48,4.08,6.34,5.27,3.84,1.59,7.78,2.04,11.72-.7,5.77-1.3,9.96,.2,12.29,1.27,2.1,.97,7.15,2.66,9.43,6.27,1.92,3.04,4.42,3.69,5.61,6.12,1.3,2.65,1.49,5.69,3.79,9.16,2.05,3.1,.2,4.72,1.67,9.02,1.3,3.8-.28,4.09,.54,6.58,.06,.18,.09,.34,.13,.5-.15,.13-.28,.3-.39,.52-.48,.97-.84,2.4-1.12,4.7-.2,1.69-.19,3.13,.1,4.41,.77,3.39,3.93,2.86,3.88,2.53-.01-.08-.02-.16-.03-.24,.16,1.21,.55,2.07,1.35,3.02,1.43,1.71,3.81,1.43,4.68,.94,.28,.84,.62,1.55,1.03,2.04,1.58,1.89,3.31,.89,3.87,.3,.49-.5,1.49-1.28,2.41-1.52h0c.44,1.1,.99,1.9,1.63,2.28,.76,.46,1.79,.34,2.89-.22,.82-.42,1.82-.94,2.74-1.06,0,.02,0,.03,.02,.05,.6,1.36,3.16,3.06,4.6,3.5,2.33,.71,5.11-1.02,7.97-2.25,0-.38,.03-.73,.03-1.03,0,1.3,.6,3.38,3.03,3.79,1.23,.21,2.7,.48,3.9,.3,1.48-.23,2.09,.56,3.94,.51,1.5-.04,3.43,.32,4.89-.75,1.38-1.01,1.64-2.92,1.69-4.45,.05-1.52-.4,3.36,.98,4.37,1.45,1.07,4.91,.79,6.41,.83,1.85,.05,2.25,.33,3.73,.56,1.21,.18,3.51-.23,4.74-.44,2.43-.41,2.4-3.42,2.4-4.72s.53,1.04,2.69,1.65c1.18,.33,2.68,1.82,4.6,1.6,2.44-.28,2.77-1.29,3.54-1.96,.75-.66,1.21-1.17,1.47-1.89,2.22,1.11,3.99,3.88,6.41,2.65,.96-.49,1.54-1.59,1.86-3.06h0c.69,.34,1.35,.88,1.72,1.25,.56,.58,2.29,1.59,3.87-.3,.41-.49,.76-1.2,1.03-2.04,.87,.5,3.25,.77,4.68-.94,.79-.95,1.19-1.81,1.35-3.02-.01,.08-.01,.17-.03,.24-.05,.33,3.1,.87,3.88-2.53,.29-1.28,.3-2.72,.1-4.41-.26-2.11-.58-3.49-1-4.45,1.33-1.72-1.02-5.46-.18-8.27,1.33-4.43-.1-6.35,1.33-9.66,1.08-2.5,.77-5.15,1.37-7.63,.49-2.03,.95-2.93,1.66-4.63,.66-1.59,1.33-1.83,2.48-4.16,1.22-2.5,2.5-2.89,3.7-4.4,1.19-1.5,4.71-3.7,6.38-4.06,1.98-.42,3.39,.12,4.43-.07,5.14-.96,8.33,.61,10.35,1.97,2.35,1.58,5.42,2.14,8,1.65,3.93-.74,7.53-4.19,9-6.21,1.46-2.02,2.39-2.74,2.65-4.21,.5-2.88,2-5.98,4.19-8.22,2.18-2.22,5.37-4.52,5.72-9.47,.22-3.17-.41-5.81-.7-7.94Z"/><path id="f" class="k" d="M178.12,288.6c-.28-2.35-.66-3.9-1.21-5.02-.48-.96-1.34-1.48-2.35-1.45-1.2,.05-2.37,.86-3.15,1.83-.14-.07-.27-.13-.42-.17-1.35-.37-2.71,.52-3.81,1.23-.07,.05-.14,.09-.21,.13-.22-.22-.46-.4-.73-.52-1.54-.71-3.07,.43-4.08,1.18-.28,.21-.54,.4-.71,.49-.5,.27-.86,.33-1.06,.3-.55-1.05-1.31-1.91-2.38-2.4-1.39-.63-2.75-.69-4.04-.18-1.49,.58-2.55,1.81-3.21,2.81-1.15-1.38-2.97-2.71-4.79-2.71-2.51,0-4,1.13-5.12,2.24-.83,.82-1.49,1.85-1.91,2.98-.03-.06-.05-.12-.08-.18-.37-.71-1.71-3.12-3.61-4.02-2.26-1.08-5.7-.88-8.37,.48-.3,.15-.58,.28-.84,.39-.98,.44-1.91,.85-2.83,2.2-.56,.82-.91,1.79-1.16,2.74-.22-.62-.52-1.26-.97-1.93-1.1-1.62-2.21-2.64-3.71-3.41-2.67-1.36-6.11-1.56-8.37-.48-1.91,.91-3.25,3.31-3.61,4.02-.2,.4-.37,.79-.52,1.19-.63-1.23-1.31-2.21-1.73-2.8-1.22-1.73-3.25-2.77-5.42-2.77-2.38,0-4.27,1.7-5.09,3.35-.13,.13-.52,.47-.97,.42-.56-.04-1.07-.65-1.4-1.15-.42-.62-.84-1.16-1.27-1.6-.69-.72-1.69-1.05-2.67-.91-.99,.15-1.81,.74-2.26,1.63l-.02,.04-.1,.04c-.09,.03-.43,.09-1.15-.29-.17-.09-.43-.28-.71-.49-1.01-.75-2.54-1.89-4.08-1.18-.27,.12-.5,.31-.73,.52-.07-.05-.14-.09-.21-.13-1.09-.71-2.46-1.6-3.81-1.23-.15,.04-.29,.1-.42,.17-.78-.97-1.95-1.79-3.15-1.83-1.01-.03-1.87,.49-2.35,1.45-.56,1.12-.93,2.67-1.21,5.02-.23,1.89-.19,3.4,.12,4.75,.61,2.68,2.54,3.55,4.01,3.55,.04,0,.08,0,.12-.01,.26,.77,.67,1.46,1.27,2.18,1.05,1.26,2.47,1.68,3.71,1.68,.41,0,.79-.05,1.14-.13,.24,.55,.53,1.04,.85,1.43,.97,1.16,2,1.43,2.69,1.45,.04,0,.08,0,.12,0,1.09,0,2.03-.56,2.55-1.1,.3-.31,.75-.65,1.2-.91,.42,.78,.95,1.44,1.61,1.84,.47,.28,1.01,.42,1.59,.42,.7,0,1.47-.2,2.27-.61l.09-.05c.52-.27,1.13-.58,1.71-.76,1.09,1.51,3.41,2.94,4.82,3.37,.47,.15,.96,.21,1.45,.21,1.83,0,3.73-.89,5.59-1.76,.26-.12,.53-.24,.79-.36,.56,1.16,1.6,2.15,3.33,2.45l.19,.03c1.28,.22,2.73,.47,4.03,.27,.55-.08,.91,.02,1.46,.18,.58,.17,1.32,.37,2.36,.35,.31-.01,.63,0,.96,.01,.27,0,.55,.02,.84,.02,1.19,0,2.51-.13,3.65-.97,.32-.23,.57-.51,.8-.8,.18,.26,.39,.51,.68,.71,1.46,1.07,4.09,1.04,6.02,1.03,.37,0,.7,0,.96,0,1.1,.03,1.62,.14,2.27,.29,.38,.09,.79,.18,1.33,.26,.26,.04,.56,.06,.88,.06,1.14,0,2.58-.23,3.99-.47l.19-.03c2.22-.38,2.92-2.25,3.13-3.85,.42,.33,.92,.59,1.52,.76,.28,.08,.67,.3,1.08,.53,.92,.51,2.04,1.14,3.4,1.14,.17,0,.34,0,.51-.03,2.3-.26,3.12-1.16,3.71-1.82,.12-.13,.24-.27,.37-.38,.5-.44,.88-.84,1.19-1.25,.32,.22,.64,.47,.97,.73,1.08,.84,2.36,1.84,3.85,1.84,.53,0,1.08-.12,1.66-.42,.88-.44,1.53-1.25,1.98-2.38,.16,.13,.31,.26,.42,.38,.52,.54,1.46,1.1,2.55,1.1,.04,0,.08,0,.12,0,.69-.03,1.72-.3,2.69-1.45,.33-.39,.61-.88,.85-1.43,.35,.08,.73,.13,1.14,.13,1.24,0,2.66-.42,3.71-1.68,.6-.72,1.01-1.41,1.27-2.18,.04,0,.08,.01,.12,.01,1.47,0,3.4-.88,4.01-3.55,.31-1.35,.35-2.86,.12-4.75Zm-108.81,6.06c-.56-.31-.94-.9-1.13-1.75-.26-1.12-.28-2.41-.08-4.07,.25-2.09,.58-3.48,1.02-4.37,.15-.3,.29-.34,.44-.34h.04c.59,.02,1.42,.65,1.87,1.35-.03,.06-.06,.14-.08,.21-.03,.08-.06,.15-.1,.24-.04,.11-.08,.23-.12,.35-.03,.1-.07,.19-.1,.29-.04,.13-.08,.26-.12,.4-.03,.11-.07,.22-.1,.34-.04,.14-.08,.29-.11,.44-.03,.12-.06,.24-.09,.37-.04,.16-.07,.32-.11,.48-.03,.13-.06,.25-.08,.38-.04,.18-.07,.36-.1,.54-.02,.12-.04,.23-.06,.35-.03,.2-.06,.41-.09,.61-.01,.09-.03,.19-.04,.28-.04,.3-.06,.59-.08,.87h0c-.03,.43-.05,.83-.07,1.22,0,.06,0,.13,0,.19-.03,.67-.03,1.29,0,1.85-.2-.03-.44-.09-.68-.23Zm6.54,4.05c-.76,.11-1.9,.02-2.68-.92-.62-.74-.97-1.4-1.11-2.4,0-.07-.02-.13-.03-.2,0-.03,0-.05,0-.08-.08-.77-.07-1.78,.04-3.34,.04-.54,.11-1.1,.2-1.66,.28-1.66,.75-3.25,1.07-3.9v-.02s.06-.08,.11-.16c0,0,0-.02,0-.03,.09-.13,.2-.26,.32-.29,.04-.01,.09-.02,.14-.02,.53,0,1.43,.59,2.05,.99,.08,.05,.17,.11,.25,.16-.44,1.18-.73,2.8-.88,4.95-.04,.52-.05,1.08-.06,1.65,0,.1,0,.21,0,.31,0,.47,.02,.95,.06,1.43,.01,.16,.02,.31,.04,.46,.04,.43,.08,.86,.14,1.28,.02,.12,.03,.23,.05,.34,.07,.45,.16,.9,.26,1.32,0,.03,.01,.07,.02,.11Zm7.28,.92c-.81,.42-1.51,1.02-1.87,1.39-.17,.18-.63,.49-1.16,.49-.42-.02-.83-.26-1.23-.74-.32-.39-.61-.98-.85-1.7h0c-.53-1.62-.8-3.86-.75-6.06,0-.06,0-.12,0-.19,0-.29,.02-.58,.04-.87,.02-.35,.05-.67,.08-.97,0-.08,.02-.15,.02-.22,.03-.25,.06-.49,.09-.71v-.1c.25-1.66,.58-2.53,.84-2.99,0,0,0-.01,0-.02,.19-.33,.36-.45,.45-.49,.06-.03,.12-.04,.19-.04,.51,0,1.34,.62,1.87,1.01,.34,.25,.66,.49,.96,.65,.46,.24,.9,.41,1.32,.49-.04,.12-.08,.25-.11,.37-.04,.14-.09,.28-.13,.43-.04,.16-.08,.32-.12,.48-.04,.15-.07,.29-.11,.45-.04,.17-.06,.34-.09,.52-.03,.15-.06,.3-.08,.45-.03,.18-.05,.37-.07,.56-.02,.15-.04,.3-.05,.45-.02,.2-.03,.41-.04,.61,0,.14-.02,.28-.03,.42,0,.22,0,.45,0,.68,0,.12,0,.24,0,.37,0,.25,.02,.5,.03,.74,0,.1,0,.2,.01,.3,.02,.31,.05,.61,.09,.92,0,.04,0,.08,.01,.12,.06,.48,.15,1.04,.27,1.64,0,.03,.01,.06,.02,.09,.1,.48,.22,.98,.38,1.47h0Zm5.32,1.74c-.47,.24-1.35,.59-1.92,.25-.39-.23-.86-.88-1.27-1.97-.07-.18-.13-.36-.19-.55-.03-.08-.05-.17-.08-.26-.06-.2-.12-.4-.17-.62-.03-.12-.05-.25-.08-.38-.04-.19-.09-.39-.12-.59-.06-.32-.11-.67-.16-1.03,0-.02,0-.04,0-.05-.08-.62-.12-1.25-.13-1.87-.03-1.88,.24-3.74,.78-5.22,.1-.27,.21-.54,.33-.82,.03-.07,.07-.14,.1-.22,.09-.21,.19-.42,.3-.63,.15-.3,.44-.51,.77-.56,.05,0,.11-.01,.16-.01,.29,0,.57,.12,.78,.33,.34,.36,.69,.8,1.04,1.32,.86,1.28,1.85,1.97,2.96,2.03,.08,0,.15,0,.23,0-.01,.04-.02,.09-.03,.13-.08,.29-.15,.59-.22,.9-.03,.12-.05,.24-.08,.36-.06,.25-.11,.51-.16,.77-.03,.13-.05,.26-.08,.39-.05,.28-.1,.55-.15,.83-.02,.11-.04,.23-.06,.34-.06,.39-.12,.78-.17,1.16l-.09,.68c0,.05-.01,.1-.02,.15-.04,.33-.08,.65-.12,.96l-.03,.22c-.09,.74-.15,1.42-.15,2.04,0,.04,0,.08,0,.12,0,.29,.01,.57,.04,.83,0,.01,0,.03,0,.04-.7,.24-1.37,.58-2,.9Zm14.81,.47c-.37,.17-.73,.34-1.09,.5-2.1,.98-4.08,1.91-5.61,1.45-1.29-.4-3.54-1.96-3.98-2.95v-.02h0c-.25-.61-.19-1.71-.04-3.04,.05-.44,.11-.9,.17-1.38l.09-.72c.31-2.43,.99-5.31,1.55-6.55,.43-.95,1.67-2.36,3.37-2.36,1.53,0,2.94,.72,3.79,1.92,.61,.87,1.87,2.66,2.49,4.81-.08,.62-.19,1.34-.33,2.11-.31,1.64-.39,4.55-.39,5.86,0,.11,0,.24,0,.37Zm16.17,2.67c-.87,.64-2.08,.6-3.25,.57-.27,0-.53-.01-.78-.01-.1,0-.19,0-.29,0-.73,.04-1.23-.12-1.75-.27-.62-.18-1.33-.38-2.31-.23-.99,.15-2.26-.07-3.39-.26l-.19-.03c-2.04-.35-2.19-2.24-2.19-2.81,0-1.39,.1-4.11,.35-5.49l.16-.87c.44-2.37,.68-3.68,1.38-5.04,.58-1.13,1.63-2.62,2.7-3.13,1.71-.81,4.49-.62,6.6,.46,1.19,.61,2.05,1.4,2.96,2.75,.71,1.05,.93,2.01,1.18,3.11l.14,.63c.38,1.6,.2,3.84,.07,5.48-.05,.57-.09,1.08-.1,1.47-.06,1.91-.46,3.08-1.28,3.68Zm17.97,.69l-.19,.03c-1.13,.19-3.24,.55-4.23,.41-.49-.08-.86-.16-1.2-.23-.7-.16-1.36-.3-2.65-.34-.13,0-.27,0-.42,0-.19,0-.39,0-.61,0-1.45,.01-3.89,.04-4.81-.64-.63-.46-.58-1.58-.41-3.36,.04-.41,.08-.84,.1-1.27l.05-.91c.07-1.41,.16-3.17,.49-5.07l.05-.3c.22-1.29,.52-3.05,1.3-4.2,.59-.87,1.12-1.11,1.98-1.49,.29-.13,.6-.27,.94-.44,2.12-1.08,4.89-1.27,6.6-.46,1.06,.51,2.12,2,2.7,3.13,.8,1.57,1.2,3.22,1.48,6.08l.06,.57c.02,.28,.05,.55,.08,.81,.13,1.38,.28,3.02,.28,3.97,0,1.78-.19,3.46-1.57,3.7Zm12.75-3.2c-.19,.17-.36,.35-.54,.54-.49,.54-.91,1-2.46,1.18-.96,.1-1.85-.39-2.71-.87-.52-.29-1-.56-1.51-.7-1.25-.35-1.88-1.18-2.28-5.07l-.03-.31c-.02-.19-.04-.39-.06-.59l-.05-.54c-.12-1.32-.24-2.69-.07-4.14,.17-1.39,.82-2.75,1.8-3.71,1.02-1,2.04-1.67,3.72-1.67s3.45,1.95,3.93,3.01h0c.4,.91,.97,2.71,1.3,4.6,.11,.63,.19,1.27,.24,1.89,.02,.31,.04,.61,.06,.89,0,.07,0,.14,.01,.21,.01,.2,.02,.41,.03,.6,0,.06,0,.11,0,.17,0,.2,.02,.39,.02,.57v.07c.02,1.11-.03,1.87-.22,2.39,0,.01,0,.02,0,.03-.22,.6-.6,.94-1.19,1.45Zm8.09,.62c-1,.51-1.8,.02-3.38-1.21-.45-.35-.92-.71-1.41-1.03,.2-1.12,.15-2.59-.01-4.89-.02-.31-.05-.62-.09-.93-.02-.13-.04-.26-.05-.39-.03-.19-.05-.37-.08-.56-.03-.15-.05-.3-.08-.45-.03-.17-.06-.33-.1-.5-.03-.16-.07-.31-.1-.46-.04-.16-.07-.32-.11-.48-.04-.15-.07-.3-.11-.45-.04-.16-.08-.31-.12-.46-.04-.14-.08-.28-.12-.41-.04-.15-.09-.29-.13-.44-.04-.12-.08-.25-.12-.37-.05-.14-.09-.27-.14-.4-.04-.11-.08-.22-.12-.32-.01-.03-.02-.06-.03-.09,.34-.66,1.31-2.33,2.79-2.91,.78-.3,1.59-.26,2.48,.15,.67,.31,1.17,.93,1.54,1.73h0c.13,.29,.24,.58,.34,.89v.02c.11,.31,.19,.63,.27,.96h0c.07,.32,.12,.63,.17,.94,0,.06,.02,.11,.03,.17,.05,.32,.09,.64,.12,.95v.03c.03,.31,.06,.63,.08,.93,0,.05,0,.09,0,.14,.06,.98,.07,1.89,.08,2.58,0,.35,0,.66,.02,.92,.01,.4,.01,.79,0,1.16,0,.34-.02,.67-.04,.98v.03c-.05,.66-.13,1.26-.24,1.8,0,.01,0,.02,0,.03-.27,1.22-.71,2.03-1.33,2.35Zm5.9-1.12c-.54,0-.99-.31-1.16-.49-.3-.31-.77-.72-1.32-1.07,0-.03,0-.05,.01-.08,.05-.36,.09-.74,.12-1.13,.02-.22,.03-.45,.04-.68,0-.16,.01-.32,.01-.49,0-.43,.01-.88,0-1.35,0-.24,0-.54-.01-.88-.02-1.81-.05-4.48-.69-6.8,.37-.08,.79-.23,1.25-.47,.3-.16,.62-.4,.96-.65,.6-.44,1.59-1.18,2.06-.97,.09,.04,.26,.17,.45,.49,0,0,0,.01,0,.02,.27,.46,.59,1.34,.83,3.01v.05c.04,.24,.07,.5,.1,.77,0,.06,.01,.12,.02,.18,.03,.31,.06,.63,.09,.98,.02,.29,.03,.58,.04,.88,0,.06,0,.12,0,.17,.05,2.2-.22,4.45-.75,6.05h0c-.24,.73-.52,1.32-.85,1.71-.4,.47-.81,.72-1.23,.74Zm4.25-2.79s.02-.1,.03-.14c.1-.41,.18-.83,.25-1.27,.02-.12,.04-.25,.06-.38,.06-.41,.1-.83,.14-1.25,.01-.16,.03-.32,.04-.48,.03-.48,.05-.95,.06-1.42,0-.1,0-.2,0-.31,0-.57-.02-1.12-.05-1.65-.15-2.15-.44-3.78-.88-4.95,.08-.05,.17-.11,.25-.16,.68-.44,1.7-1.11,2.19-.97,.13,.04,.24,.17,.34,.31,0,.02,.01,.04,.02,.05,.03,.04,.05,.08,.08,.13,.43,.86,1.12,3.39,1.27,5.55,.02,.23,.03,.45,.04,.65h0c.08,1.42,.07,2.33-.04,3.04-.15,.96-.49,1.6-1.1,2.33-.78,.94-1.92,1.03-2.68,.92Zm7.67-5.8c-.19,.85-.58,1.44-1.13,1.75-.24,.13-.48,.2-.68,.23,.04-.56,.03-1.18,0-1.86,0-.06,0-.12,0-.18-.02-.39-.04-.79-.07-1.22-.02-.28-.05-.58-.08-.87-.01-.1-.03-.2-.04-.3-.03-.2-.05-.4-.09-.59-.02-.12-.04-.23-.06-.34-.03-.18-.06-.36-.1-.54-.02-.12-.05-.24-.08-.36-.04-.17-.07-.34-.11-.5-.03-.12-.06-.23-.09-.34-.04-.16-.08-.32-.12-.47-.03-.11-.06-.21-.09-.32-.04-.14-.08-.28-.12-.41-.03-.1-.07-.2-.1-.3-.04-.12-.08-.24-.12-.34-.03-.09-.07-.17-.1-.25-.03-.06-.05-.14-.08-.2,.45-.71,1.28-1.33,1.87-1.36,.16,0,.32,.02,.48,.34,.44,.89,.77,2.28,1.02,4.37,.2,1.65,.17,2.94-.08,4.07Z"/><g id="g"><path class="k" d="M201.17,230.23c.69,.64,.68,1.95-.08,2.8-.73,.87-2.15,1.16-3.23,.6-1.1-.52-1.73-1.82-1.48-2.93,.21-1.12,1.26-1.92,2.18-1.76-.63,.67-.73,1.36-.61,1.87,.12,.51,.43,.85,.8,1.03,.37,.18,.83,.23,1.31,.01,.47-.21,.96-.72,1.11-1.62Z"/><path class="k" d="M210.27,149.73c.69,.64,.68,1.95-.08,2.8-.73,.87-2.15,1.16-3.23,.6-1.1-.52-1.73-1.82-1.48-2.93,.21-1.12,1.26-1.92,2.18-1.76-.63,.67-.73,1.36-.61,1.87,.12,.51,.43,.85,.8,1.03,.37,.18,.83,.23,1.31,.01,.47-.21,.96-.72,1.11-1.62Z"/><path class="k" d="M46.98,130.59c.92-.18,1.98,.6,2.21,1.72,.27,1.11-.33,2.42-1.42,2.96-1.07,.58-2.49,.32-3.24-.54-.78-.83-.81-2.15-.13-2.8,.17,.9,.67,1.39,1.14,1.6,.48,.2,.94,.15,1.31-.03,.37-.19,.67-.54,.78-1.05,.11-.51,0-1.2-.65-1.85Z"/><path class="k" d="M27.01,172.82c.92-.18,1.98,.6,2.21,1.72,.27,1.11-.33,2.42-1.42,2.96-1.07,.58-2.49,.32-3.24-.54-.78-.83-.81-2.15-.13-2.8,.17,.9,.67,1.39,1.14,1.6,.48,.2,.94,.15,1.31-.03,.37-.19,.67-.54,.78-1.05,.11-.51,0-1.2-.65-1.85Z"/><path class="k" d="M53.51,215.45c-.64-.69-.53-2,.3-2.78,.8-.81,2.23-.99,3.27-.34,1.06,.6,1.58,1.95,1.25,3.04-.29,1.1-1.4,1.82-2.31,1.58,.68-.61,.83-1.3,.76-1.81-.08-.52-.36-.88-.72-1.09-.35-.21-.81-.29-1.3-.11-.49,.17-1.02,.64-1.24,1.53Z"/><path class="k" d="M183.72,115.84c-.64-.69-.53-2,.3-2.78,.8-.81,2.23-.99,3.26-.34,1.06,.6,1.58,1.95,1.25,3.04-.29,1.1-1.4,1.82-2.31,1.58,.68-.61,.83-1.3,.76-1.81-.08-.52-.36-.88-.72-1.09-.35-.21-.81-.29-1.3-.11-.49,.17-1.02,.64-1.24,1.53Z"/><path class="k" d="M210.45,210.42c-.64-.69-.53-2,.3-2.78,.8-.81,2.23-.99,3.27-.34,1.06,.6,1.58,1.95,1.25,3.04-.29,1.1-1.4,1.82-2.31,1.58,.68-.61,.83-1.3,.76-1.81-.08-.52-.36-.88-.72-1.09-.35-.21-.81-.29-1.3-.11-.49,.17-1.02,.64-1.24,1.53Z"/><path class="k" d="M119.88,169.96c-.78-.52-.98-1.83-.35-2.78,.59-.97,1.95-1.47,3.1-1.09,1.17,.34,1.99,1.53,1.91,2.67-.03,1.14-.95,2.09-1.89,2.07,.52-.75,.51-1.46,.32-1.94-.2-.48-.56-.77-.95-.9-.39-.12-.86-.1-1.29,.19-.44,.28-.84,.86-.85,1.77Z"/><path class="k" d="M29,232.11c.93-.07,1.89,.84,1.98,1.97,.13,1.13-.62,2.36-1.77,2.76-1.13,.45-2.51,.02-3.15-.93-.68-.92-.54-2.23,.21-2.79,.06,.91,.49,1.46,.94,1.72,.45,.26,.91,.27,1.3,.13,.39-.14,.73-.45,.9-.95,.17-.49,.14-1.19-.42-1.92Z"/><path class="k" d="M198.14,225.2c1.27-1.21,2.72-2.2,4.29-3.02,1.58-.79,3.29-1.46,5.26-1.49,1.94,.02,3.7,.6,5.28,1.41,1.57,.84,3.03,1.84,4.21,3.19,.02,.02,.02,.05,0,.07-.01,.01-.03,.01-.05,0-1.69-.52-3.26-1.14-4.84-1.65-1.57-.5-3.13-1-4.63-1.07-1.47-.03-3.1,.37-4.68,.87-1.6,.5-3.18,1.13-4.8,1.75-.02,0-.04,0-.05-.02,0-.01,0-.03,0-.04Z"/><path class="k" d="M68.4,127.94c1.64,.22,3.28,.18,4.87-.02,1.61-.18,3.11-.66,4.71-1.16,1.58-.49,3.26-.92,5.06-.97,.86-.02,1.91,.11,2.78,.46,.88,.33,1.66,.81,2.36,1.33,1.42,1.03,2.58,2.22,3.78,3.3,1.14,1.14,2.47,2.02,3.84,2.93,1.37,.88,2.82,1.75,4.1,2.86,1.29,1.09,2.38,2.39,3.29,3.77,.01,.02,0,.05-.01,.07-.02,.01-.05,0-.06,0-1.13-1.21-2.35-2.31-3.69-3.21-1.34-.91-2.8-1.61-4.27-2.4-1.48-.76-2.91-1.71-4.28-2.71-1.33-1.03-2.57-2.11-3.84-3.01-.64-.44-1.28-.83-1.94-1.1-.66-.27-1.28-.37-2.06-.38-1.51-.05-3.08,.26-4.69,.55-1.6,.31-3.32,.62-5.02,.59-1.69-.02-3.39-.25-4.95-.85-.02,0-.03-.03-.02-.05,0-.02,.02-.02,.04-.02Z"/><path class="k" d="M34.7,117.13c.6,2.09,.91,4.25,1.14,6.41,.18,2.17,.23,4.35,.21,6.52,0,2.17-.14,4.34-.16,6.47-.02,1.06-.03,2.12,.05,3.14,.07,.99,.29,2.03,.68,2.51,.19,.22,.36,.3,.7,.34,.33,.03,.77-.05,1.21-.19,1.04-.31,2.23-.59,3.42-.62,1.2-.07,2.4,.23,3.41,.47,1.02,.25,1.89,.34,2.83,.1,1.92-.58,4.02-1.57,6.25-1.86,2.24-.34,4.55,.09,6.49,1.09,.02,.01,.03,.04,.02,.06,0,.02-.03,.03-.05,.03-2.15-.33-4.24-.47-6.27-.06-2.06,.38-3.88,1.33-6.03,2.14-1.13,.43-2.49,.37-3.57,.17-1.09-.19-2.03-.32-3-.25-.97,.06-1.9,.31-2.91,.65-.59,.17-1.22,.32-1.97,.27-.74-.03-1.62-.45-2.1-1.09-.49-.62-.69-1.28-.81-1.88-.12-.61-.18-1.19-.21-1.76-.05-1.14,0-2.24,.06-3.33,.16-2.18,.36-4.32,.55-6.46,.19-2.14,.32-4.28,.32-6.42,.05-2.15-.08-4.29-.33-6.44,0-.02,.01-.04,.03-.04,.02,0,.03,0,.04,.03Z"/><path class="k" d="M143.98,135.2c-.19-1.42,.1-2.89,.72-4.24,.66-1.35,1.68-2.56,3.21-3.28,1.55-.68,3.19-.55,4.59-.13,1.4,.44,2.68,1.14,3.7,2.17,.02,.02,.02,.05,0,.07-.01,.01-.03,.02-.05,.01-1.4-.24-2.71-.5-3.99-.61-1.27-.11-2.49-.08-3.49,.31-.48,.18-.95,.55-1.42,.92-.45,.39-.86,.84-1.26,1.33-.76,1-1.4,2.17-1.96,3.46,0,.02-.03,.03-.05,.02-.01,0-.02-.02-.02-.03Z"/><path class="k" d="M207.84,92.85c-1.41,2.24-2.55,4.6-3.54,7-1.01,2.4-1.85,4.86-2.55,7.35-.36,1.22-.7,2.55-1.14,3.83-.46,1.27-.99,2.54-1.69,3.73-.68,1.19-1.5,2.32-2.51,3.28-1,.94-2.2,1.8-3.59,1.98-.03,0-.05-.01-.05-.04,0-.02,0-.04,.02-.05h0c1.14-.67,1.95-1.68,2.68-2.7,.72-1.04,1.3-2.16,1.84-3.3,1.06-2.33,1.81-4.71,2.59-7.28,.83-2.55,1.86-5.04,3.15-7.39,1.31-2.33,2.81-4.59,4.73-6.45,.01-.01,.04-.01,.05,0,.01,.01,.01,.03,0,.05Z"/><path class="k" d="M220.2,235.89c.19,.87,.18,1.82-.04,2.76-.23,.93-.74,1.82-1.42,2.5-1.37,1.34-3.14,2.02-4.9,2.14-1.75,.12-3.48-.23-4.94-1.08-.02-.01-.03-.04-.02-.07,0-.02,.03-.02,.05-.02,1.65,.04,3.22-.08,4.66-.44,.72-.18,1.41-.42,2.04-.76,.64-.31,1.24-.71,1.69-1.18,.95-.91,1.37-2.2,1.34-3.67-.03-1.16-.27-2.37-.62-3.59-.09-.33,1.81,1.67,2.17,3.42Z"/><path class="k" d="M23.7,79.12c.04,1.57,.1,3.14,.27,4.67,.09,.77,.18,1.53,.35,2.25,.17,.72,.39,1.44,.73,1.93,.17,.24,.35,.39,.5,.43,.15,.04,.29,.02,.6-.08,.23-.07,.45-.14,.75-.17,.28-.02,.67-.05,1.13,.23,.46,.3,.64,.79,.69,1.1,.06,.33,.05,.57,.04,.82-.07,.93-.29,1.67-.43,2.43-.15,.75-.28,1.47-.32,2.16-.02,.35-.02,.66,.02,1.01,.05,.37,.08,.74,.15,1.11,.12,.74,.29,1.47,.46,2.22,.35,1.49,.79,3.01,1.13,4.55,.72,3.09,1.1,6.26,1.07,9.42,0,.03-.02,.05-.05,.05-.02,0-.04-.02-.05-.04-.72-3.07-1.49-6.07-2.46-9.02-.49-1.47-.99-2.95-1.44-4.49-.23-.77-.43-1.55-.57-2.36-.08-.4-.13-.81-.19-1.22-.06-.43-.07-.91-.05-1.34,.07-1.73,.67-3.34,.86-4.65,.02-.14,.03-.29,.02-.35,0-.08,0,.02,.13,.1,.13,.06,.1,.01,0,.02-.09,0-.25,.03-.39,.06-.43,.13-1.12,.21-1.7-.06-.59-.26-.95-.73-1.19-1.15-.46-.86-.6-1.7-.69-2.52-.08-.82-.1-1.63-.06-2.42,.08-1.6,.28-3.17,.63-4.71,0-.02,.02-.03,.04-.03,.02,0,.03,.02,.03,.03Z"/><path class="k" d="M13.1,193.58c-.3,1.46-.52,3.08-.67,4.64-.15,1.58-.22,3.17-.22,4.76,.02,3.18,.38,6.39,1.44,9.47,.02,.04,0,.09-.05,.11-.04,.01-.08,0-.1-.04-.78-1.44-1.42-2.96-1.93-4.54-.49-1.58-.89-3.19-1.18-4.83-.28-1.64-.49-3.29-.62-4.95-.12-1.68-.19-3.31-.13-5.07,.03-.97,.84-1.73,1.81-1.7,.97,.03,1.73,.84,1.7,1.81,0,.1-.01,.2-.03,.29v.04Z"/><path class="k" d="M133.85,180.84c-.62-1.93-.98-3.95-1.09-6.05-.08-2.09,.14-4.29,1.09-6.44,.33-.76,1.23-1.11,1.99-.78,.76,.33,1.11,1.23,.78,1.99-.05,.11-.11,.22-.18,.31-.52,.68-.98,1.45-1.34,2.31-.35,.86-.63,1.78-.83,2.73-.39,1.91-.53,3.92-.41,5.93Z"/><path class="k" d="M137.39,155.62c-.5,.74-.91,1.54-1.16,2.35-.13,.4-.2,.82-.2,1.2,0,.19,.02,.37,.06,.54l.08,.26c.04,.12,.07,.24,.1,.37,.27,1.02,.04,2.28-.53,3.19-.56,.94-1.31,1.66-2.09,2.28h-.01c-.54,.45-1.33,.36-1.77-.18-.43-.54-.35-1.33,.19-1.77,.07-.06,.15-.11,.23-.15,.72-.36,1.38-.78,1.87-1.3,.5-.52,.77-1.13,.76-1.88l-.04-.7c0-.28,.03-.55,.09-.8,.12-.51,.32-.96,.56-1.37,.49-.82,1.09-1.52,1.75-2.14,.03-.03,.07-.03,.1,0,.02,.02,.02,.06,0,.09Z"/><path class="k" d="M98.58,153.2c1.08,.38,2.09,.96,2.96,1.78,.43,.41,.82,.88,1.12,1.43,.17,.26,.27,.57,.39,.86l.23,.86c.13,.49,.32,.96,.57,1.22,.24,.26,.47,.3,1.09,.51,.3,.1,.69,.27,1.03,.55,.34,.28,.61,.64,.79,.98,.37,.69,.52,1.34,.64,1.96h0c.14,.69-.3,1.35-.98,1.49-.68,.14-1.34-.3-1.48-.98-.02-.08-.02-.16-.02-.23,0-.49-.05-.96-.16-1.3-.12-.34-.15-.46-.58-.7-.21-.12-.52-.25-.84-.48-.32-.22-.63-.53-.82-.86-.39-.67-.49-1.32-.55-1.93l-.07-.79c-.05-.24-.08-.49-.18-.72-.15-.48-.41-.94-.72-1.37-.63-.86-1.49-1.59-2.46-2.14h0s-.05-.07-.03-.1c.02-.03,.05-.04,.09-.03Z"/><path class="k" d="M115.42,174.38c-.69-.33-1.31-.82-1.74-1.48-.43-.67-.55-1.55-.36-2.34,.19-.69-.05-1.25-.34-1.94-.14-.34-.31-.69-.42-1.15-.11-.42-.1-1.12,.29-1.62,.18-.25,.4-.42,.61-.56,.21-.14,.29-.18,.44-.29,.25-.19,.48-.39,.66-.61,.36-.46,.42-.83,.27-1.14-.09-.2-.17-.25-.5-.78-.25-.44-.42-.93-.5-1.42-.08-.49-.08-.99-.02-1.46,.07-.49,.16-.89,.4-1.43v-.03c.29-.63,1.03-.92,1.67-.65,.63,.28,.92,1.02,.65,1.65-.03,.06-.06,.12-.09,.17-.08,.13-.21,.45-.27,.7-.06,.26-.09,.52-.08,.77,.01,.25,.07,.48,.16,.7,.04,.12,.41,.67,.54,1.2,.15,.54,.12,1.17-.08,1.69-.2,.52-.51,.93-.84,1.25-.34,.33-.7,.58-1.08,.79-.17,.1-.42,.22-.53,.27-.11,.04-.2,.09-.26,.13-.11,.07-.18,.19-.18,.49,0,.29,.09,.64,.17,1.01,.08,.37,.16,.77,.18,1.19,.04,.41-.09,.92-.23,1.24-.24,.64-.23,1.35,.07,1.99,.3,.63,.85,1.17,1.48,1.54h0s.05,.07,.03,.1c-.02,.03-.06,.04-.09,.03Z"/><path class="k" d="M46.21,157.96c-1.37,.55-2.74,.74-4.05,.83-1.32,.1-2.59,.12-3.84,.23-1.25,.11-2.45,.34-3.6,.78-1.14,.45-2.2,1.12-3.16,2.02,.61-1.15,1.56-2.18,2.75-2.86,1.17-.71,2.5-1.09,3.8-1.36,1.3-.28,2.6-.42,3.85-.6,1.24-.2,2.44-.41,3.46-.87h0c.5-.23,1.1-.01,1.33,.49,.23,.5,0,1.1-.49,1.33-.01,0-.03,.01-.05,.02Z"/><path class="k" d="M163.05,144.32c2.51-.29,4.78-.57,6.79-1.4,1.02-.39,1.92-.95,2.78-1.66,.9-.67,1.59-1.6,2.47-2.55-.1,1.26-.49,2.57-1.32,3.62-.79,1.07-1.91,1.96-3.17,2.44-1.25,.5-2.59,.69-3.88,.61-1.29-.1-2.56-.4-3.66-1.07Z"/><path class="k" d="M90.44,145.92c1.4,1.37,3.28,2.36,5.23,3.04,.98,.34,2.01,.57,3.05,.7,1.04,.1,2.1,.13,3.14-.19-.91,.6-2.06,.84-3.16,.89-1.11,.06-2.23-.07-3.32-.29-2.18-.45-4.33-1.3-6.15-2.82-.38-.32-.43-.89-.11-1.27,.32-.38,.89-.43,1.27-.11,.02,.01,.03,.03,.05,.05h0Z"/><path class="k" d="M74.23,148.92c-1.17-.34-2.33-.89-3.26-1.7-.95-.79-1.64-1.76-2.22-2.69-.58-.93-1.11-1.81-1.77-2.56-.66-.74-1.56-1.26-2.63-1.56,1.08-.13,2.3,.12,3.25,.82,.98,.66,1.69,1.56,2.41,2.33,.72,.78,1.42,1.48,2.21,1.96,.79,.49,1.65,.78,2.56,.95h.03c.68,.14,1.12,.79,.99,1.47-.13,.68-.79,1.12-1.47,.99-.04,0-.07-.02-.11-.03Z"/><path class="k" d="M161.8,138.93c-3.05,.06-5.97,.79-8.58,2.06-2.61,1.27-4.88,3.12-6.71,5.34l-1.35,1.7-1.13,1.87c-.19,.31-.4,.61-.57,.94l-.47,1c-.31,.67-.64,1.33-.97,1.99l-1.59,4.19c-.43,1.44-.86,2.89-1.38,4.34,.08-1.52,.25-3.04,.43-4.57,.31-1.5,.66-3.01,1.08-4.5,.27-.73,.54-1.45,.84-2.18l.43-1.09c.16-.36,.37-.69,.55-1.04l1.17-2.05,1.43-1.89c.46-.65,1.08-1.16,1.64-1.72l.86-.82,.97-.7,.97-.69c.33-.22,.7-.38,1.04-.58l1.05-.55c.36-.16,.74-.28,1.11-.42,2.96-1.1,6.21-1.39,9.19-.62Z"/><path class="k" d="M102.84,190.52c.46-1.68,.94-3.3,1.4-4.91,.46-1.61,.89-3.21,1.29-4.82,.41-1.6,.75-3.22,1.06-4.85,.33-1.64,.51-3.28,.81-5.01,.53,1.66,.79,3.42,.75,5.16-.03,1.75-.24,3.5-.68,5.18-.42,1.69-1.02,3.33-1.78,4.89-.76,1.56-1.67,3.05-2.85,4.35Z"/><path class="k" d="M211.68,107.62c1.64-4.49,3.46-8.85,5.05-13.28,.81-2.21,1.58-4.43,2.25-6.68,.65-2.26,1.25-4.52,1.57-6.9,.3,2.39,.02,4.82-.44,7.18-.45,2.37-1.17,4.66-1.97,6.92-.83,2.25-1.77,4.45-2.85,6.58-1.07,2.13-2.24,4.23-3.61,6.19Z"/><path class="k" d="M132.44,189.42c-1.3-1.21-2.3-2.69-3.13-4.24-.83-1.56-1.47-3.23-1.88-4.97-.44-1.73-.57-3.54-.48-5.32,.07-1.78,.55-3.55,1.29-5.14,.07,1.78,.05,3.44,.27,5.1,.2,1.65,.46,3.28,.87,4.89,.39,1.61,.84,3.21,1.36,4.82,.53,1.6,1.11,3.2,1.7,4.86Z"/><path class="k" d="M215.01,149.44c-.43-.94-1.04-1.99-1.67-2.93-.65-.96-1.36-1.87-2.15-2.73-.78-.87-1.66-1.64-2.59-2.35-.94-.72-1.98-1.28-3.07-1.79-.04-.01-.05-.06-.04-.09,.01-.03,.05-.05,.08-.04,1.17,.28,2.36,.64,3.47,1.19,1.11,.54,2.2,1.17,3.2,1.91,1.01,.74,1.96,1.55,2.86,2.44,.9,.9,1.72,1.8,2.53,2.91,.49,.68,.34,1.62-.34,2.11-.68,.49-1.62,.34-2.11-.34-.06-.08-.11-.17-.15-.26v-.03Z"/><path class="k" d="M96.99,170.88c.3,.97,.92,2.11,1.58,2.6,.33,.25,.63,.36,.98,.35,.18,0,.44-.05,.57-.1,.15-.05,.22-.1,.28-.17,.14-.12,.3-.6,.42-1.27,.12-.68,.38-1.48,.64-2.13,.53-1.32,1.15-2.55,1.8-3.76,.66-1.21,1.35-2.39,2.11-3.54,.39-.58,.77-1.15,1.22-1.72,.23-.29,.46-.57,.78-.88,.29-.28,.56-.49,.86-.72,1.17-.87,2.4-1.62,3.92-2.06,.38-.11,.79-.18,1.24-.2l.99-.02c.63-.03,1.25-.09,1.87-.19,1.21-.21,2.4-.59,3.25-1.25,.42-.33,.75-.73,.94-1.19l.2-.49c.08-.18,.17-.36,.27-.54,.19-.35,.42-.69,.67-1,.48-.62,1.06-1.1,1.36-1.49,.31-.37,.46-.68,.49-1.04,.04-.36-.11-.82-.4-1.26-.3-.46-.66-.81-1.2-1.29-.5-.46-1.03-.95-1.5-1.56-.47-.6-.88-1.4-.88-2.28-.02-.43,.1-.86,.21-1.21,.08-.3,.19-.6,.25-.9,.14-.6,.16-1.21,.08-1.8-.17-1.18-.97-2.34-1.37-3.68-.4-1.35-.39-2.76-.12-4.07,0-.03,.03-.05,.06-.04,.03,0,.04,.03,.04,.06-.09,1.33,.06,2.67,.56,3.86,.49,1.19,1.43,2.21,1.8,3.68,.17,.72,.2,1.48,.11,2.19-.03,.36-.13,.7-.19,1.06-.05,.3-.08,.53-.03,.77,.15,.94,1.11,1.75,2.15,2.52,1.06,.75,2.51,1.95,2.64,3.96,.06,1-.42,1.98-1.02,2.58-.61,.6-1.13,.92-1.52,1.31-.2,.19-.37,.39-.52,.62-.08,.11-.13,.23-.19,.35l-.18,.44c-.31,.79-.86,1.46-1.47,1.98-1.26,1.02-2.71,1.47-4.12,1.76-.71,.14-1.42,.22-2.13,.27l-1.02,.04c-.22,.01-.47,.06-.74,.14-1.06,.33-2.16,1-3.11,1.75-.23,.19-.49,.4-.67,.59-.16,.16-.35,.4-.53,.64-.37,.49-.72,1.04-1.06,1.58-.68,1.1-1.32,2.25-1.91,3.42-.59,1.16-1.15,2.35-1.59,3.53-.21,.61-.36,1.08-.47,1.73-.14,.63-.22,1.53-.95,2.47-.36,.45-.87,.79-1.35,.97-.49,.19-.9,.27-1.39,.31-.99,.09-2.04-.25-2.79-.78-.76-.53-1.31-1.19-1.75-1.86-.44-.69-.77-1.32-1.06-2.14-.28-.78,.13-1.64,.91-1.92,.78-.28,1.64,.13,1.92,.91,0,.02,.01,.04,.02,.06l.02,.06Z"/><path class="k" d="M143.17,166.27c-.74,1.38-1.49,2.59-2.82,3.72-.34,.27-.73,.54-1.21,.74-.24,.1-.5,.18-.79,.23-.27,.05-.62,.06-.83,.04-.97-.03-2.01-.52-2.66-1.12-.66-.59-1.09-1.2-1.5-1.71-.2-.26-.4-.5-.59-.72-.1-.1-.19-.22-.29-.31l-.36-.36c-1.2-1.28-1.7-2.57-2.38-3.63-.16-.26-.33-.52-.49-.72-.15-.2-.37-.43-.44-.48-.27-.19-.93-.41-1.54-.57-1.26-.36-2.65-.64-4.06-1.33-.69-.35-1.44-.83-1.98-1.66-.45-.71-.76-1.52-.8-2.43-.05-.9,.23-1.8,.67-2.51,.46-.73,.97-1.27,1.7-1.79,.45-.32,1.07-.21,1.38,.24,.31,.44,.21,1.04-.21,1.36l-.07,.05c-.37,.27-.8,.74-1.04,1.17-.25,.45-.37,.91-.33,1.36,.03,.45,.23,.94,.51,1.36,.21,.31,.63,.61,1.14,.85,1.05,.48,2.34,.74,3.68,1.08,.69,.19,1.37,.31,2.25,.84,.49,.34,.72,.61,1,.94,.27,.31,.48,.62,.68,.93,.79,1.2,1.42,2.43,2.13,3.1l.37,.34c.15,.13,.28,.27,.41,.41,.26,.28,.5,.56,.72,.82,.45,.53,.84,1.01,1.21,1.31,.37,.29,.63,.39,1.02,.39,.12,0,.12,0,.18-.01,.05,0,.11-.03,.18-.06,.14-.07,.32-.18,.5-.34,.73-.63,1.46-1.77,1.94-2.78l.03-.07c.36-.75,1.25-1.07,2-.71s1.07,1.25,.71,2c0,.02-.02,.04-.03,.06Z"/><path class="k" d="M7.48,195.21c.63-1.87,1.01-3.78,1.05-5.72,.06-1.94-.21-3.9-.61-6.03-.2-1.07-.42-2.18-.57-3.41-.14-1.22-.22-2.59,.04-4.02,.25-1.43,.84-2.84,1.69-4,.8-1.12,1.66-1.95,2.48-2.75,.82-.79,1.63-1.53,2.33-2.23,.35-.35,.65-.69,.86-.97l.12-.18s.03-.05,.06-.09l.34-.82c.47-1.08,1-2.16,1.61-3.2,.59-1.02,1.38-2.08,1.9-2.83,.12-.18,.2-.31,.22-.34,.02-.06-.02,.14,0,.12-.03-.64-.02-1.29,.03-1.93,.11-1.28,.39-2.53,.79-3.7,.4-1.17,.91-2.27,1.48-3.31,.56-.99,1.02-1.86,1.48-2.82,.89-1.9,1.63-3.9,2.3-5.96l.49-1.55c.15-.52,.28-.98,.38-1.5,.22-1.01,.38-2.05,.5-3.11,.23-2.11,.31-4.26,.28-6.41-.01-2.15-.14-4.31-.35-6.47-.8-8.65-2.73-17.21-4.93-25.75-.01-.05,.02-.1,.06-.11,.04-.01,.09,.01,.1,.05,3.51,8.1,6.11,16.66,7.34,25.51,.61,4.43,.86,8.93,.47,13.47-.1,1.14-.25,2.27-.47,3.42-.1,.56-.26,1.17-.39,1.71l-.42,1.62c-.57,2.16-1.24,4.34-2.1,6.48-.42,1.05-.94,2.16-1.41,3.11-.44,.92-.81,1.85-1.07,2.77-.26,.93-.41,1.86-.44,2.77,0,.46,0,.91,.05,1.37,.05,.53-.05,1.29-.25,1.74-.19,.48-.39,.82-.57,1.1-.71,1.08-1.22,1.79-1.71,2.69-.48,.87-.9,1.78-1.28,2.73l-.28,.71c-.08,.2-.19,.44-.29,.65l-.31,.52c-.41,.63-.83,1.12-1.23,1.58-.8,.91-1.58,1.69-2.31,2.47-.72,.77-1.39,1.54-1.86,2.21-.43,.63-.72,1.3-.84,2.04-.27,1.47,.13,3.46,.56,5.65,.43,2.19,.81,4.62,.74,7.08-.06,2.47-.55,4.92-1.34,7.22-.45,1.31-7.22,5.9-8.53,5.45,2.49-3.01,3.36-5.77,3.8-7.07v-.02Z"/><path class="k" d="M31.66,166.66c-.86,0-1.71-.22-2.47-.68-1.09-.67-1.58-1.32-1.98-1.84-.48-.63-.76-1.01-2.56-1.4-4.24-.91-4.49-5.27-4.03-7.45,.14-.67,.8-1.11,1.48-.97,.67,.14,1.11,.8,.97,1.48-.08,.41-.7,3.89,2.11,4.49,2.52,.54,3.26,1.31,4.04,2.34,.32,.43,.6,.79,1.28,1.21,1.1,.67,2.7,.23,3.67-1,1.92-2.47,5.2-4.58,5.33-4.67,.58-.38,1.35-.2,1.73,.38,.37,.58,.2,1.35-.38,1.73-.03,.02-3.06,1.98-4.71,4.1-1.15,1.48-2.83,2.28-4.47,2.28Z"/><path class="k" d="M207.19,167.37c-.57,0-1.09-.4-1.22-.98-.69-3.12,.18-4.86,1.03-5.76,1.15-1.22,2.95-1.72,5.08-1.39,1.48,.23,2.87-.38,3.91-1.72,.96-1.24,.42-4.76-.27-6.87-.21-.66,.14-1.36,.8-1.58,.65-.21,1.36,.14,1.58,.8,.21,.65,2.03,6.42-.14,9.19-1.6,2.05-3.88,3.02-6.26,2.65-.74-.11-2.11-.18-2.87,.63-.79,.85-.66,2.38-.42,3.52,.15,.67-.28,1.34-.95,1.49-.09,.02-.18,.03-.27,.03Z"/><path class="k" d="M23.52,143.85c.14-2.85,.04-5.97-.12-8.99-.1-1.52-.16-3.05-.35-4.56-.18-1.51-.39-3.02-.62-4.52-.94-6.03-2.16-12.03-3.59-17.99-.01-.05,.02-.1,.07-.12,.05-.01,.1,.02,.11,.06,1.9,5.83,3.61,11.73,5.04,17.72,.36,1.5,.69,3,1,4.52l.97,4.54c.61,3.06,1.18,6.04,1.49,9.31,.11,1.1-.7,2.09-1.8,2.19-1.1,.11-2.09-.7-2.19-1.8,0-.1-.01-.19,0-.28v-.08Z"/><path class="k" d="M20.5,151.06c.06-.38,.11-.96,.14-1.47,.03-.52,.05-1.06,.06-1.59,.02-1.07,0-2.15-.05-3.24-.09-2.17-.29-4.35-.57-6.54-.28-2.2-.58-4.39-.91-6.58-.34-2.19-.69-4.38-1.15-6.55-.01-.05,.02-.1,.07-.11,.05-.01,.09,.02,.11,.06,.76,2.1,1.42,4.22,2.06,6.36,.64,2.13,1.25,4.28,1.83,6.43,.6,2.16,1.14,4.35,1.56,6.59,.21,1.12,.4,2.24,.55,3.39,.07,.57,.14,1.15,.19,1.73,.05,.6,.09,1.13,.09,1.86v.02c0,1.11-.91,2-2.02,1.99-1.11,0-2-.91-1.99-2.02,0-.11,.01-.22,.03-.32Z"/><path class="k" d="M17.88,159.23c.1-.62,.15-1.49,.18-2.27,.03-.8,.03-1.61,.02-2.43-.03-1.63-.12-3.27-.27-4.92-.24-3.3-.96-6.56-1.58-9.84-1.31-6.55-2.77-13.08-4.3-19.59-.01-.05,.02-.1,.07-.11,.05-.01,.1,.02,.11,.06,1.98,6.39,3.9,12.8,5.67,19.27,.91,3.23,1.67,6.49,2.53,9.79,.39,1.66,.74,3.33,1.02,5.03,.14,.85,.26,1.71,.36,2.58,.09,.89,.18,1.7,.18,2.74,0,1.11-.9,2.01-2.01,2.01-1.11,0-2.01-.9-2.01-2.01,0-.1,0-.2,.02-.3v-.03Z"/><path class="k" d="M14.82,165.96c.07-.41,.12-1.02,.15-1.55,.03-.55,.05-1.11,.06-1.67,.01-1.13,0-2.26-.06-3.41-.11-2.29-.33-4.57-.65-6.88-.63-4.61-1.32-9.23-2.21-13.81-.01-.05,.02-.1,.07-.11,.05-.01,.09,.02,.11,.06,1.46,4.44,2.73,8.95,3.95,13.47,.61,2.26,1.22,4.57,1.67,6.91,.23,1.17,.43,2.35,.59,3.55,.08,.6,.15,1.2,.21,1.82,.05,.63,.1,1.19,.1,1.95v.02c0,1.11-.91,2-2.02,1.99-1.11,0-2-.91-1.99-2.02,0-.11,.01-.22,.03-.32Z"/><path class="k" d="M11.35,170.27c.07-.41,.12-1.03,.15-1.57,.03-.56,.05-1.13,.06-1.7,.01-1.14,0-2.29-.07-3.45-.12-2.32-.34-4.63-.67-6.97-.65-4.67-1.37-9.34-2.28-13.97-.01-.05,.02-.1,.07-.11,.05-.01,.09,.02,.11,.06,1.48,4.5,2.77,9.06,4,13.64,.62,2.29,1.24,4.62,1.7,6.99,.24,1.19,.44,2.38,.6,3.6,.08,.61,.15,1.22,.21,1.84,.05,.64,.1,1.2,.1,1.97v.02c0,1.11-.91,2-2.02,1.99-1.11,0-2-.91-1.99-2.02,0-.11,.01-.22,.03-.32Z"/><path class="k" d="M213.7,146.26c.07-2.73,.36-5.26,.75-7.84,.39-2.56,.92-5.1,1.57-7.6l4.02-14.73c.01-.05,.07-.08,.12-.07,.05,.01,.07,.06,.07,.11l-2.14,15.09c-.32,2.48-.52,4.98-.59,7.47-.07,2.47-.03,5.02,.2,7.37v.05c.11,1.1-.69,2.08-1.79,2.19s-2.08-.7-2.19-1.8c0-.08-.01-.17,0-.25Z"/><path class="k" d="M216.77,151.44c-.02-1.11,.06-1.94,.15-2.88,.09-.91,.22-1.8,.37-2.69,.3-1.77,.67-3.51,1.11-5.23,.21-.86,.45-1.71,.69-2.56l.64-2.54c.44-1.69,.89-3.37,1.36-5.05,1.87-6.72,3.93-13.37,6.16-19.96,.02-.05,.07-.08,.12-.06,.05,.02,.07,.07,.06,.11-1.79,6.72-3.4,13.48-4.81,20.27-.35,1.7-.69,3.4-1.01,5.1l-.47,2.55c-.11,.85-.22,1.71-.3,2.56-.17,1.7-.29,3.41-.32,5.1-.01,.84-.01,1.68,.03,2.51,.03,.8,.1,1.71,.21,2.33v.02c.2,1.09-.52,2.13-1.61,2.33s-2.13-.53-2.33-1.62c-.02-.1-.03-.21-.03-.31Z"/><path class="k" d="M219.35,160.13c.02-1.29,.13-2.35,.26-3.5,.14-1.13,.31-2.24,.5-3.34,.39-2.21,.89-4.38,1.46-6.53,.58-2.13,1.18-4.24,1.8-6.35,.63-2.11,1.25-4.21,1.99-6.29,.02-.05,.07-.08,.12-.06,.04,.02,.07,.07,.06,.11-.41,2.15-.71,4.32-1.02,6.49-.3,2.17-.57,4.35-.83,6.51-.26,2.15-.44,4.3-.52,6.45-.03,1.07-.05,2.14-.03,3.2,.02,1.04,.07,2.16,.19,3.06v.03c.15,1.1-.63,2.11-1.72,2.25-1.1,.14-2.11-.63-2.25-1.73-.01-.09-.02-.2-.02-.29Z"/><path class="k" d="M222.44,166.29c0-1,.08-1.77,.16-2.63,.09-.83,.2-1.66,.33-2.47,.26-1.63,.59-3.24,.96-4.83l2.35-9.39c1.59-6.22,3.25-12.41,4.94-18.59,.01-.05,.07-.08,.12-.07,.05,.01,.08,.06,.07,.11-1.23,6.29-2.42,12.59-3.53,18.89-.54,3.15-1.16,6.31-1.38,9.46-.13,1.57-.22,3.15-.23,4.71-.01,.78,0,1.55,.03,2.32,.03,.74,.08,1.58,.18,2.17v.02c.17,1.09-.57,2.12-1.67,2.29-1.09,.17-2.12-.58-2.29-1.67-.02-.1-.02-.21-.02-.31Z"/><path class="k" d="M225.91,170.6c0-.77,.05-1.33,.1-1.97,.06-.62,.13-1.23,.21-1.84,.17-1.21,.37-2.41,.6-3.6,.46-2.37,1.08-4.7,1.7-6.99,1.23-4.58,2.53-9.14,4-13.64,.02-.05,.07-.08,.12-.06,.05,.02,.07,.06,.06,.11-.91,4.63-1.62,9.3-2.28,13.97-.33,2.34-.55,4.65-.67,6.97-.06,1.16-.08,2.31-.07,3.45,0,.57,.03,1.14,.06,1.7,.03,.54,.08,1.16,.15,1.57,.18,1.09-.55,2.13-1.65,2.31s-2.13-.55-2.31-1.65c-.02-.1-.03-.21-.03-.31v-.03Z"/><path class="k" d="M227.47,179.07c.02-1.51-.33-3.09-.87-4.63-.54-1.55-1.29-3.06-2.21-4.49-.44-.73-.93-1.43-1.44-2.12l-.82-1.06c-.31-.39-.62-.78-.9-1.19-1.16-1.62-2.11-3.42-2.8-5.29-.7-1.87-1.1-3.82-1.46-5.58-.33-1.6-.94-3.1-1.72-4.77-.77-1.67-1.54-3.45-2.11-5.27-.59-1.82-1.06-3.62-1.44-5.5-.72-3.78-.77-7.6-.45-11.34,.33-3.74,1.04-7.4,1.99-10.98,1.91-7.16,4.76-13.99,8.04-20.55,.02-.04,.06-.05,.09-.03,.03,.02,.05,.06,.03,.09-2.84,6.75-5.21,13.72-6.63,20.85-1.39,7.09-1.86,14.49-.08,21.29,.45,1.69,.98,3.42,1.61,5.06,.63,1.65,1.34,3.23,2.15,4.87,.81,1.63,1.68,3.51,2.11,5.51,.39,1.82,.77,3.47,1.38,5.03,.6,1.56,1.4,3.02,2.4,4.36,.48,.68,1.02,1.28,1.68,2.07,.61,.76,1.21,1.53,1.76,2.35,2.13,3.28,3.82,7.11,3.67,11.47-.04,1.1-.97,1.97-2.07,1.93-1.09-.04-1.95-.94-1.93-2.03v-.04Z"/><path class="k" d="M183.72,124.3c-2.87-1.23-5.77-2.4-8.73-3.02-1.48-.33-2.97-.46-4.45-.43-1.48,.06-2.93,.35-4.38,.76-1.46,.41-2.94,.96-4.55,1.31-.8,.17-1.62,.3-2.46,.35-.84,.06-1.68,0-2.45-.05-3.11-.23-6.15-.39-9.03,.24-2.86,.6-5.41,2.15-6.91,4.57-1.58,2.64-3.6,5.39-6.09,7.44-1.21,1.01-2.06,1.92-2.7,3.22-.33,.64-.61,1.32-.87,2.02l-.8,2.24c-.34,.79-.76,1.56-1.29,2.27-.53,.7-1.17,1.32-1.71,1.83-.55,.52-.94,.97-1.19,1.5-.26,.53-.39,1.17-.45,1.86v.04c-.06,.58-.58,1.01-1.16,.96-.57-.06-.99-.55-.96-1.12,.05-.86,.17-1.78,.56-2.67,.39-.9,1.06-1.63,1.62-2.19,.57-.56,1.05-1.04,1.45-1.59,.4-.55,.7-1.16,.99-1.79l.38-1.02,.41-1.14c.3-.76,.61-1.51,1-2.26,.72-1.51,2.06-2.93,3.25-3.88,2.35-1.91,4.05-4.27,5.75-6.92,.93-1.42,2.18-2.67,3.63-3.56,1.44-.92,3.06-1.47,4.68-1.82,3.25-.66,6.51-.42,9.59-.15,.78,.06,1.5,.12,2.22,.08,.72-.03,1.45-.12,2.17-.26,1.45-.28,2.91-.78,4.46-1.19,1.54-.42,3.18-.7,4.82-.68,1.64,0,3.26,.3,4.8,.75,3.08,.93,5.85,2.5,8.41,4.29Z"/><path class="k" d="M112.9,147.11c-1.94-.91-3.49-2.54-4.66-4.39-.57-.91-1-2.03-1.37-2.91-.43-.9-.93-1.78-1.57-2.55-2.54-3.19-6.28-5.17-9.72-7.76-.93-.67-1.7-1.47-2.45-2.18-.76-.73-1.51-1.42-2.29-2.06-1.57-1.27-3.28-2.28-5.13-2.74-1.84-.47-3.78-.38-5.63,.17-.48,.13-.89,.29-1.42,.46l-1.55,.53-1.58,.46c-.53,.14-1.08,.25-1.62,.38-2.17,.46-4.5,.49-6.65,.29-2.16-.21-4.1-.5-6.09-.26-.99,.08-1.95,.3-3.08,.5-1.09,.18-2.21,.26-3.33,.24-2.24-.04-4.53-.57-6.51-1.72-1.98-1.15-3.61-2.87-4.6-4.92-.49-1.02-.86-2.11-.98-3.29-.05-.64-.02-1.05-.08-1.58-.05-.51-.12-1.02-.2-1.53-.34-2.04-.82-4.09-1.52-6.05-.36-.98-.73-1.96-1.22-2.88-.49-.91-1.06-1.82-1.94-2.42,.97,.47,1.68,1.34,2.29,2.21,.61,.89,1.13,1.83,1.57,2.81,.88,1.96,1.59,3.98,2.08,6.09,.12,.53,.23,1.06,.31,1.6,.09,.52,.12,1.17,.18,1.58,.12,.93,.47,1.87,.92,2.73,.92,1.73,2.36,3.16,4.06,4.09,1.71,.94,3.68,1.35,5.65,1.34,.99,0,1.99-.1,2.97-.29,.95-.17,2.04-.5,3.15-.65,2.21-.38,4.52-.23,6.56-.08,2.06,.16,3.99,.04,5.97-.34,.49-.11,.98-.21,1.47-.33l1.47-.41,1.46-.48c.48-.15,1.06-.37,1.6-.5,2.21-.59,4.65-.64,6.89,0,2.25,.64,4.21,1.91,5.88,3.34,.84,.72,1.61,1.48,2.36,2.24,.76,.76,1.44,1.51,2.21,2.1,3.22,2.54,7.02,4.84,9.66,8.44,.67,.88,1.18,1.89,1.61,2.91,.2,.53,.38,1.05,.51,1.52,.16,.48,.34,.96,.55,1.42,.81,1.87,2.1,3.58,3.8,4.84Z"/><path class="k" d="M206.4,114.9c-.3,2.07-.95,4.11-1.86,6.02-.88,1.92-2.02,3.71-2.95,5.52-.48,.9-.89,1.82-1.19,2.75-.15,.44-.32,1.03-.52,1.53-.22,.51-.46,1.03-.76,1.51-.59,.98-1.38,1.87-2.32,2.56-.94,.7-2.02,1.16-3.09,1.49-2.17,.64-4.25,.78-6.35,1.02-1.12,.11-2.31,.05-3.43-.27-1.12-.32-2.14-.85-3.05-1.41-1.8-1.16-3.4-2.25-5.35-2.72-1.93-.48-4.02-.43-6.1-.23,1.97-.7,4.11-1.12,6.3-.87,2.21,.22,4.24,1.36,6.01,2.32,1.77,1,3.53,1.46,5.44,1.22,2.04-.28,4.14-.42,5.98-.94,1.85-.52,3.44-1.53,4.48-3.12,.53-.8,.89-1.64,1.27-2.64,.4-1.03,.92-1.99,1.47-2.9,1.13-1.81,2.36-3.47,3.43-5.23,1.08-1.75,1.96-3.63,2.6-5.62Z"/><path class="k" d="M92.38,164.35c-.73-1.29-1.44-2.58-2.15-3.89-.35-.66-.7-1.31-1.03-2l-.48-1.04c-.15-.29-.27-.59-.43-.87-1.28-2.28-3.35-4.21-5.7-5.53-1.18-.66-2.43-1.18-3.71-1.49-.64-.16-1.28-.25-1.92-.29-.32-.03-.63,0-.95,0-.38,0-.91,.03-1.34-.04-1.84-.23-3.25-1.07-4.48-1.55-1.25-.51-2.38-.69-3.57-.44l-1.07,.26c-.44,.09-.86,.13-1.26,.17-.81,.05-1.57,.04-2.32,.02-1.49-.04-2.91-.09-4.32-.02-2.81,.12-5.55,.79-8.09,1.98-.64,.29-1.26,.63-1.87,.98l-.92,.56-1,.58c-1.37,.73-2.92,1.28-4.5,1.4-1.59,.15-3.02-.08-4.39,.09-1.38,.12-2.75,.62-4.12,1.22,1.08-1.01,2.39-1.88,3.92-2.27,1.52-.43,3.07-.32,4.4-.56,1.35-.2,2.59-.75,3.76-1.49l1.81-1.21c.65-.41,1.3-.8,1.99-1.15,2.72-1.45,5.8-2.24,8.85-2.45,1.52-.12,3.05-.1,4.5-.1,.72,0,1.43,0,2.09-.06,.32-.03,.64-.07,.92-.14l1.07-.29c.84-.18,1.74-.27,2.61-.16,.87,.1,1.7,.34,2.45,.62,1.5,.57,2.72,1.21,3.83,1.29,.3,.04,.51,0,.86,0,.42,0,.84-.05,1.26-.01,.83,.04,1.65,.15,2.44,.34,1.58,.37,3.07,.98,4.46,1.75,2.76,1.55,5.19,3.75,6.81,6.6,.21,.35,.37,.73,.55,1.1l.45,.95,.98,1.92c.67,1.29,1.37,2.58,2.08,3.85h0c.38,.69,.13,1.55-.56,1.93-.68,.38-1.54,.13-1.92-.54Z"/><path class="k" d="M98.07,167.23c.08-2.63,.1-5.39-1.22-7.47-.63-1.03-1.57-2-2.3-3.25-.36-.62-.67-1.29-.86-1.98-.12-.36-.2-.66-.28-.94-.1-.29-.2-.57-.32-.85-.96-2.26-2.64-4.25-4.51-5.94-1.89-1.68-4.09-3.04-6.43-3.88-1.17-.42-2.39-.69-3.6-.77l-1-.04c-.43-.03-.83-.12-1.2-.25-.75-.25-1.39-.6-1.99-.97-2.34-1.47-4.27-3.22-6.59-3.91-1.14-.34-2.33-.41-3.49-.12-1.25,.32-2.71,.63-4.1,.51-1.42-.06-2.69-.5-3.95-.62-1.27-.12-2.58,.04-3.87,.39,1.18-.6,2.5-1.01,3.88-1.07,1.39-.05,2.71,.21,3.94,.14,1.27-.04,2.41-.4,3.69-.81,1.38-.43,2.94-.47,4.35-.08,2.85,.75,5.02,2.61,7.15,3.91,.53,.32,1.07,.59,1.58,.76,.26,.08,.5,.13,.73,.15l.99,.04c1.43,.09,2.82,.43,4.14,.9,2.63,.97,5,2.47,7.05,4.31,2.04,1.85,3.81,4.06,4.89,6.69,.14,.33,.25,.67,.36,1.01l.26,.97c.07,.3,.16,.58,.27,.86,.09,.29,.22,.56,.34,.84,.5,1.1,1.39,2.11,1.99,3.42,.64,1.29,.83,2.74,.77,4.09-.03,1.37-.34,2.68-.66,3.97Z"/><path class="k" d="M142.67,159.12c.91-2.68,2.02-5.39,3.65-7.87,1.6-2.48,3.89-4.7,6.68-6.02,2.79-1.33,5.91-1.71,8.84-1.45,.78,.06,1.38,.14,2.01,.16,.63,.03,1.27,0,1.91-.06,1.28-.11,2.58-.4,3.96-.68,1.38-.28,2.87-.54,4.41-.5,.38,0,.77,.03,1.15,.07,.43,.04,.63,.07,.96,.09,.62,.03,1.28,.01,1.95-.02,2.7-.15,5.6-.5,8.53-.07,1.46,.22,2.91,.63,4.26,1.29,.68,.33,1.31,.75,1.86,1.08,.57,.35,1.17,.67,1.78,.98,2.42,1.27,5.04,2.39,7.27,4.14-2.63-.97-5.26-1.72-7.89-2.77-.65-.27-1.31-.54-1.96-.86-.68-.33-1.23-.65-1.81-.89-1.18-.49-2.46-.76-3.75-.87-2.61-.26-5.28,.12-8.1,.39-.71,.06-1.44,.11-2.21,.1-.36,0-.85-.05-1.12-.07-.31-.03-.62-.04-.93-.03-1.24-.01-2.51,.23-3.84,.52-1.34,.3-2.74,.65-4.23,.81-.74,.08-1.5,.13-2.25,.11-.76,0-1.54-.09-2.14-.13-2.59-.17-5.17,.16-7.41,1.25-2.24,1.07-4.09,2.88-5.51,5.03-1.44,2.16-2.49,4.63-3.37,7.19-.26,.74-1.06,1.13-1.8,.88-.74-.25-1.13-1.06-.88-1.8Z"/><path class="k" d="M16.45,188.07c-.23-1.94-.48-3.83-.9-5.64l-.18-.68c-.06-.25-.11-.5-.16-.76-.09-.51-.16-1.03-.17-1.58,0-.54,.04-1.1,.19-1.66,.13-.56,.42-1.15,.68-1.57,.53-.89,1.12-1.68,1.74-2.44,.61-.77,1.3-1.49,1.87-2.17,1.16-1.43,2.14-3.04,2.94-4.81,0-.02,.04-.04,.06-.03,.02,0,.03,.03,.03,.05-.08,1.98-.75,3.92-1.78,5.66-.53,.9-1.11,1.63-1.64,2.42-.52,.78-1.06,1.56-1.51,2.33-.86,1.34-.76,3.03-.53,4.98,.16,2-.02,3.99-.59,5.89,0,.02-.03,.03-.04,.02-.01,0-.02-.02-.03-.03Z"/><path class="k" d="M119.35,177.33c-.43,.57-.69,1.27-.72,1.95-.04,.68,.19,1.33,.56,1.87,.43,.66,.76,1.51,.69,2.41-.06,.9-.46,1.68-.79,2.33-.16,.32-.31,.63-.36,.87-.06,.25-.02,.35,.05,.46,.08,.16,.17,.14,.6,.68,.31,.43,.5,.87,.64,1.32,.52,1.78,.25,3.57-.37,5.18v.03c-.31,.78-1.18,1.17-1.96,.87-.78-.3-1.17-1.17-.87-1.95,.03-.09,.08-.18,.13-.25,.64-1.03,1.02-2.27,.9-3.38-.03-.27-.09-.53-.18-.72,.03-.07-.48-.57-.63-1.12-.21-.58-.11-1.27,.09-1.69,.19-.45,.43-.78,.64-1.09,.42-.6,.78-1.13,.91-1.7,.14-.57,.02-1.2-.26-1.82-.34-.74-.48-1.6-.29-2.37,.17-.78,.59-1.46,1.13-1.98,.03-.03,.07-.03,.1,0,.02,.03,.03,.06,0,.09h0Z"/><path class="k" d="M103.33,216.67c-.14,.57-.23,1.15-.2,1.68,.02,.54,.18,1.03,.35,1.6,.17,.56,.34,1.21,.41,1.88,.08,.67,.08,1.34,.05,2.01v.05c-.04,.85-.76,1.51-1.6,1.47-.85-.04-1.51-.75-1.47-1.6,0-.22,.07-.43,.15-.61,.47-.96,.77-1.88,.87-3.06,.06-.59,.13-1.27,.36-1.88,.22-.61,.56-1.14,.92-1.62,.03-.04,.08-.05,.12-.02,.03,.02,.04,.06,.03,.09Z"/><path class="k" d="M112.49,191.98c.02,.59,.08,1.17,.26,1.68,.17,.51,.45,.95,.77,1.45,.32,.5,.65,1.08,.9,1.7,.26,.62,.44,1.27,.59,1.92v.05c.2,.83-.31,1.65-1.14,1.85s-1.65-.32-1.85-1.15c-.05-.21-.05-.43-.02-.63,.19-1.05,.24-2.01,.02-3.18-.1-.58-.22-1.26-.16-1.91,.05-.65,.23-1.25,.45-1.8,.02-.04,.07-.07,.11-.05,.03,.01,.05,.05,.06,.08Z"/><path class="k" d="M136.07,214.47c.56,.72,1.03,1.54,1.34,2.46,.16,.46,.26,.94,.32,1.44,.05,.46,.1,.84,.19,1.26,.17,.82,.44,1.61,.77,2.36,.32,.74,.76,1.52,1.18,2.08,.5,.67,.37,1.62-.3,2.12-.67,.5-1.62,.37-2.12-.3-.08-.1-.14-.22-.19-.33-.43-1.02-.65-1.91-.84-2.89-.17-.96-.26-1.93-.23-2.9,.02-.48,.06-.99,.13-1.42,.07-.4,.11-.81,.1-1.23-.01-.84-.2-1.71-.51-2.55-.02-.04,0-.09,.05-.11,.04-.01,.08,0,.1,.03Z"/><path class="k" d="M139.4,218.83c.42,.81,.74,1.7,.87,2.66,.07,.48,.09,.97,.06,1.47-.03,.46-.05,.85-.04,1.27,.02,.83,.14,1.66,.33,2.46,.19,.78,.47,1.63,.78,2.25,.37,.75,.07,1.65-.68,2.03-.75,.37-1.66,.07-2.03-.68-.06-.11-.1-.24-.12-.36-.24-1.09-.29-2-.3-2.99,0-.97,.09-1.95,.3-2.89,.1-.46,.24-.96,.39-1.37,.15-.38,.26-.78,.33-1.2,.14-.83,.12-1.72-.04-2.6,0-.05,.02-.09,.07-.1,.04,0,.07,.01,.09,.04Z"/><path class="k" d="M87.71,254.41c-.63-1.56-1.28-3.03-2-4.44-.73-1.41-1.56-2.73-2.48-3.96-.44-.64-.97-1.19-1.46-1.79-.54-.54-1.07-1.12-1.67-1.62-1.15-1.08-2.49-1.91-3.88-2.9,1.66,.2,3.35,.7,4.79,1.64,.78,.39,1.4,1,2.09,1.53,.61,.61,1.23,1.23,1.73,1.94,1.04,1.38,1.82,2.95,2.32,4.58,.49,1.63,.75,3.34,.56,5.02Z"/><path class="k" d="M37.45,228.74c2.07-1.66,4.87-2.42,7.56-2.36,2.71,0,5.33,.55,7.53-.05,1.09-.3,1.99-.92,2.92-1.78,.92-.85,1.91-1.81,3.01-2.63,2.2-1.69,4.74-2.87,7.3-3.72,.65-.22,1.36,.13,1.58,.79,.22,.65-.13,1.36-.79,1.58h-.04c-2.41,.74-4.71,1.73-6.71,3.17-1.01,.71-1.93,1.55-2.98,2.42-1.02,.87-2.35,1.74-3.83,2.06-1.45,.35-2.9,.25-4.22,.02-1.33-.21-2.58-.48-3.84-.6-2.53-.3-5.04,.13-7.5,1.1Z"/><path class="k" d="M104.79,195.72c-.03,3.56-.74,7.04-1.69,10.44-.48,1.7-1.07,3.37-1.73,5.01-.64,1.61-1.5,3.35-2.4,4.82-1.79,2.98-3.4,5.85-4.47,9.05-1.1,3.18-1.73,6.57-2.25,10.05-.57-3.47-.53-7.07,.18-10.61,.69-3.54,2.26-6.94,3.98-9.95,.88-1.53,1.53-2.91,2.23-4.52l2.03-4.72c1.37-3.16,2.64-6.36,4.12-9.58Z"/><path class="k" d="M77.05,222.93c3.35-.96,6.4-2.39,9.23-4.12,2.81-1.75,5.37-3.83,7.66-6.18,1.06-1.25,2.23-2.42,3.17-3.79,.48-.67,1.03-1.3,1.47-2,.44-.71,.89-1.41,1.36-2.1,.5-.68,.86-1.44,1.27-2.18l1.25-2.22c.78-1.51,1.46-3.08,2.34-4.62-.23,1.72-.56,3.44-.96,5.15l-.83,2.5c-.28,.84-.58,1.67-.99,2.46-.38,.8-.76,1.6-1.17,2.39-.39,.8-.94,1.51-1.41,2.27-.92,1.54-2.16,2.85-3.32,4.21-2.51,2.57-5.47,4.72-8.75,6.17-3.25,1.46-6.81,2.33-10.31,2.05Z"/><path class="k" d="M145.86,231.46c-.31-1.89-.43-3.68-.68-5.39-.24-1.71-.56-3.33-1.08-4.9-.51-1.57-1.18-3.12-1.93-4.7-.74-1.59-1.56-3.21-2.22-5.01,1.63,1.01,3.01,2.28,4.21,3.75,1.19,1.47,2.18,3.17,2.79,5.05,.62,1.87,.79,3.89,.58,5.79-.22,1.91-.75,3.74-1.67,5.41Z"/><path class="k" d="M167.77,228.37c-2.81-.23-5.58-.79-8.29-1.55-1.36-.37-2.71-.8-4.04-1.3-1.32-.49-2.66-1-3.97-1.64-5.2-2.56-9.84-6.76-11.52-12.42,2.44,1.67,4.41,3.52,6.45,5.25,1.99,1.78,4.07,3.41,6.37,4.77,2.27,1.4,4.81,2.54,7.3,3.69,2.52,1.12,5.09,2.18,7.71,3.19Z"/><path class="k" d="M96.47,263.57c-.5-1.67-.95-3.29-1.4-4.91-.46-1.61-.95-3.2-1.45-4.77-.5-1.58-1.06-3.13-1.66-4.68-.59-1.56-1.31-3.06-1.97-4.68,1.33,1.12,2.48,2.48,3.36,3.99,.9,1.5,1.65,3.09,2.17,4.76,.54,1.66,.9,3.37,1.08,5.09,.18,1.72,.2,3.48-.12,5.2Z"/><path class="k" d="M150.76,206.77c1.95,1.81,4,3.59,6.32,4.73,1.16,.58,2.38,.88,3.66,1.02,1.28,.15,2.67,.23,4.05,.55,1.37,.34,2.71,.85,3.96,1.5,1.25,.64,2.4,1.39,3.51,2.04,1.11,.65,2.21,1.18,3.37,1.52,1.15,.35,2.35,.52,3.58,.57h.02c.83,.04,1.47,.74,1.43,1.57-.04,.83-.74,1.47-1.57,1.43-.03,0-.07,0-.1,0-1.43-.17-2.87-.47-4.24-.99-1.37-.52-2.64-1.25-3.78-2.03-1.14-.78-2.18-1.56-3.26-2.21-1.08-.66-2.21-1.18-3.41-1.58-1.19-.42-2.45-.65-3.8-.97-1.34-.31-2.7-.83-3.86-1.59-1.17-.74-2.2-1.63-3.15-2.58-.97-.94-1.84-1.95-2.71-2.96Z"/><path class="k" d="M124.48,185.38c.45,2.17,1.14,4.22,1.91,6.21,.8,1.96,1.68,3.97,2.95,5.4l.5,.48,.63,.56c.42,.38,.84,.8,1.23,1.23,.76,.88,1.42,1.85,1.94,2.88,1.04,2.06,1.56,4.31,1.57,6.54-.87-2.05-1.78-4-2.97-5.72-.59-.86-1.24-1.66-1.96-2.39-.35-.37-.72-.72-1.12-1.06l-.62-.52c-.22-.2-.46-.45-.67-.67-1.6-1.91-2.35-4.09-2.91-6.27-.52-2.18-.81-4.45-.48-6.67Z"/><path class="k" d="M32.29,223.64c-1.68,.41-3.55,.47-5.29-.27-1.76-.71-3.07-2.28-3.94-3.83-.44-.78-.81-1.58-1.21-2.25-.2-.32-.41-.61-.57-.74-.17-.12-.18-.11-.39-.08-.43,.09-1.17,.64-1.67,1.12-.56,.54-1.12,1.21-1.76,1.85-.64,.64-1.35,1.28-2.24,1.76-.88,.48-1.97,.75-3.01,.63-1.04-.11-1.97-.5-2.76-1-.18-.1-.48-.32-.66-.49-.19-.19-.36-.39-.51-.6-.29-.41-.51-.84-.69-1.28-.68-1.74-.88-3.53-.87-5.29,.02-1.76,.29-3.51,.81-5.16-.16,1.72-.15,3.44,.05,5.12,.21,1.67,.59,3.33,1.3,4.75,.36,.7,.8,1.32,1.36,1.55,.7,.35,1.41,.6,2.1,.62,1.37,.09,2.59-.8,3.71-1.99,1.16-1.12,2.11-2.81,4.43-3.51,.32-.07,.69-.08,1.07,0,.38,.09,.71,.28,.96,.49,.5,.43,.75,.88,.98,1.31,.43,.84,.73,1.63,1.09,2.37,.68,1.49,1.57,2.81,2.93,3.65,1.35,.85,3.06,1.16,4.79,1.25Z"/><path class="k" d="M24.71,180.56c-.65,1.81-.26,3.48,.27,5.12,.56,1.65,1.31,3.3,1.88,5.11,.31,.9,.53,1.85,.69,2.85,.08,.5,.13,1,.16,1.52l.02,.67c0,.19,.02,.37,.04,.55,.16,1.45,.9,2.57,2.18,3.76,1.23,1.18,2.84,2.47,3.91,4.28,.78,1.45,2.01,2.52,3.48,3.48,2.95,1.87,6.43,3.11,9.96,4.09-1.85-.03-3.69-.26-5.52-.65-1.82-.39-3.64-.93-5.37-1.79-.87-.42-1.72-.93-2.51-1.56-.4-.31-.78-.66-1.13-1.04-.17-.2-.35-.39-.51-.6l-.44-.59c-.94-1.29-2.3-2.26-3.77-3.52-.73-.63-1.49-1.38-2.1-2.33-.62-.94-1-2.07-1.13-3.16-.03-.27-.06-.55-.07-.81v-.7c-.02-.4-.04-.8-.09-1.21-.09-.82-.28-1.66-.45-2.52-.37-1.72-.87-3.52-1.05-5.46-.08-.97-.09-1.98,.16-2.96,.22-.98,.73-1.89,1.42-2.53Z"/><path class="k" d="M215.68,179.23c.51,1.16,.37,2.52,.14,3.75-.22,1.25-.59,2.44-.88,3.62-.28,1.18-.56,2.35-.6,3.47-.02,.56,.02,1.1,.12,1.6,.06,.26,.11,.46,.21,.75l.3,.91c.39,1.22,.73,2.49,.82,3.87,.05,.69,.04,1.42-.1,2.18-.13,.75-.41,1.56-.92,2.25-.5,.69-1.17,1.23-1.85,1.61-.68,.39-1.36,.63-2.02,.83-.63,.19-1.41,.34-1.8,.44-.47,.13-.93,.33-1.4,.58-1.87,1-3.69,2.72-5.68,4.24-1.1,.89-2.22,1.5-3.42,2.06-1.18,.55-2.43,.98-3.74,1.23-.65,.12-1.32,.21-2,.22-.67,.03-1.4-.08-1.93-.12-1.16-.1-2.35-.08-3.55,.04-2.4,.26-4.8,.8-7.16,1.56,2.16-1.21,4.5-2.16,6.96-2.74,1.23-.29,2.5-.49,3.81-.5,.7-.01,1.2,.03,1.77-.04,.55-.05,1.11-.17,1.66-.32,2.17-.62,4.36-1.8,6-3.22,1.75-1.68,3.4-3.57,5.84-5.01,.62-.34,1.29-.64,2.01-.85,.81-.22,1.25-.26,1.8-.41,1.05-.28,1.92-.7,2.36-1.3,.47-.57,.71-1.53,.7-2.62-.02-1.08-.16-2.25-.38-3.41l-.18-.88c-.07-.3-.16-.7-.19-1.05-.08-.72-.02-1.42,.08-2.09,.23-1.33,.65-2.55,1.13-3.71,.49-1.16,.99-2.27,1.44-3.4,.41-1.13,.82-2.3,.6-3.54Z"/><path class="k" d="M44.1,238.72c-2.41,.44-4.72,1.13-6.84,2.12-1.04,.5-2.06,1.13-3.15,1.71-1.08,.6-2.27,1.15-3.57,1.47-.66,.15-1.33,.24-2.02,.26-.7,0-1.38-.11-2.04-.27-1.32-.33-2.51-.99-3.55-1.8-2.04-1.67-3.36-4-3.87-6.42,1.39,2.04,2.94,3.85,4.86,5.04,.94,.61,1.98,1.02,3.02,1.28,1.05,.23,2.09,.22,3.16,0,1.06-.24,2.12-.68,3.2-1.17,1.08-.5,2.19-1.06,3.41-1.47,2.41-.78,4.94-1.06,7.39-.74Z"/><path class="k" d="M147,264.21c-.32-1.81-.32-3.64-.17-5.45,.15-1.81,.47-3.61,.96-5.37,.48-1.76,1.18-3.47,2.03-5.09,.86-1.62,1.96-3.12,3.3-4.37-.65,1.72-1.31,3.33-1.87,4.99-.55,1.66-1.06,3.32-1.53,5-.46,1.68-.91,3.37-1.35,5.08-.43,1.71-.86,3.43-1.36,5.19Z"/><path class="k" d="M154.15,255.79c.44-3.93,1.64-7.84,3.74-11.32,1.04-1.74,2.34-3.36,3.92-4.73,1.57-1.36,3.45-2.42,5.47-3.02,1.01-.29,2.06-.47,3.1-.51h2.99c1.94-.02,3.85-.18,5.77-.48,1.9-.28,3.93-.77,5.97-.55,2.03,.16,3.93,.78,5.78,1.46-1.93-.39-3.88-.75-5.8-.7-1.92,0-3.75,.6-5.7,1.05-1.94,.47-3.95,.72-5.95,.87-2.06,.06-3.83,.21-5.59,.78-3.54,1-6.45,3.61-8.65,6.7-1.1,1.56-2.06,3.24-2.88,5-.87,1.74-1.55,3.58-2.16,5.46Z"/><path class="k" d="M98.28,215.5c-.7,1.03-1.35,1.86-2.07,2.74-.71,.86-1.44,1.69-2.2,2.49-1.52,1.61-3.14,3.1-4.86,4.47-1.72,1.37-3.58,2.56-5.5,3.58-1.93,1.01-3.99,1.73-6.06,2.24-.06,.02-.13-.02-.14-.09-.01-.06,.01-.11,.07-.14h0c1.93-.88,3.74-1.93,5.37-3.22,1.62-1.3,3.12-2.71,4.46-4.27,1.34-1.56,2.57-3.21,3.67-4.93,.55-.86,1.07-1.73,1.56-2.62,.48-.87,.96-1.82,1.31-2.64h0c.55-1.29,2.02-1.88,3.3-1.33,1.28,.55,1.87,2.02,1.32,3.3-.06,.15-.14,.29-.23,.42Z"/><path class="k" d="M147.72,218.55c.33,.33,.49,.54,.7,.81,.2,.25,.37,.51,.54,.77,.34,.52,.65,1.04,.91,1.58,.56,1.06,.94,2.18,1.26,3.3,.62,2.25,.78,4.55,.65,6.78l-.14,1.67-.28,1.64-.14,.81-.21,.8-.42,1.58c-.33,1.04-.72,2.05-1.09,3.07l-1.33,2.94s-.08,.07-.12,.05c-.04-.02-.06-.07-.05-.11h0l.88-3.08c.2-1.04,.44-2.08,.61-3.12l.18-1.57,.09-.78,.02-.78,.04-1.55-.11-1.54c-.19-2.03-.64-4.02-1.44-5.81-.4-.89-.85-1.75-1.41-2.51-.26-.39-.57-.75-.87-1.09-.15-.17-.3-.34-.46-.48-.14-.14-.35-.32-.41-.35-.99-.53-1.36-1.77-.83-2.76,.53-.99,1.77-1.36,2.76-.83,.18,.09,.33,.21,.47,.35l.22,.22Z"/><path class="k" d="M151.27,221.25c.71,.66,1.17,1.22,1.67,1.86,.49,.63,.92,1.28,1.33,1.95,.81,1.34,1.45,2.77,1.9,4.23,.46,1.46,.74,2.97,.78,4.47,.1,1.5-.11,2.98-.36,4.4,0,.05-.06,.09-.11,.08-.04,0-.08-.05-.08-.09h0c-.06-1.45-.18-2.87-.58-4.22-.34-1.36-.89-2.64-1.57-3.81-.67-1.18-1.49-2.27-2.41-3.23-.47-.48-.95-.94-1.45-1.35-.48-.4-1.07-.84-1.5-1.07-.97-.54-1.33-1.77-.79-2.74s1.77-1.33,2.74-.79c.14,.08,.27,.17,.39,.28l.04,.04Z"/><path class="k" d="M14.35,241.32c-.57-1.36-.87-2.58-1.11-3.89-.23-1.29-.33-2.59-.31-3.88,.02-1.29,.15-2.57,.44-3.81,.25-1.25,.7-2.43,1.18-3.58,.02-.04,.06-.05,.09-.04,.03,.01,.05,.05,.04,.08-.25,1.21-.46,2.42-.47,3.64-.04,1.21,.06,2.41,.27,3.58,.21,1.17,.52,2.32,.95,3.41,.41,1.07,.96,2.19,1.52,3.02l.02,.04c.47,.69,.29,1.63-.4,2.1s-1.63,.29-2.1-.4c-.06-.08-.11-.18-.14-.26Z"/><path class="k" d="M220.14,189.1c.56-1.99,.97-3.9,1.07-5.75,.09-1.87-.13-3.58-.9-5.2-.7-1.67-1.8-3.19-3.04-4.64-1.28-1.43-2.71-2.76-4.3-4.06,2.03,.42,3.91,1.41,5.58,2.69,1.65,1.3,3.11,2.98,4.02,4.99,1.01,1.99,1.18,4.45,.65,6.53-.52,2.1-1.57,4.01-3.08,5.45Z"/><path class="k" d="M230.83,188.28c-.47,2.11-1.05,4.09-1.75,6.09-.7,1.9-1.05,3.68-.68,5.51,.17,.91,.54,1.82,.88,2.83,.33,1.01,.54,2.15,.43,3.24-.2,2.2-1.23,4.07-2.31,5.79-.02,.04-.08,.05-.11,.03-.04-.02-.05-.07-.03-.1,.79-1.86,1.52-3.82,1.43-5.74-.03-1.92-1.29-3.45-1.97-5.62-.72-2.15-.38-4.56,.05-6.54,.31-1.95,.52-3.98,.59-5.91v-.02c.04-.97,.86-1.73,1.83-1.69,.97,.04,1.73,.86,1.69,1.83,0,.1-.02,.22-.04,.32Z"/><path class="k" d="M218.89,243.82c.46-.24,2.91-1.68,3.49-4.72,.48-2.51-.26-4.88,.68-8.54,.37-1.44,1.5-2.96,2.52-4.12,2.06-2.33,4.45-4.06,6.28-6.28,.92-1.1,1.67-2.32,2.14-3.68,.46-1.35,.61-2.82,.5-4.28,0-.07,.04-.12,.11-.13,.06,0,.11,.04,.13,.1,.25,1.47,.25,3.01-.09,4.5-.35,1.49-1.04,2.9-1.9,4.16-1.71,2.53-3.98,4.57-5.61,6.85-.82,1.14-1.52,2.44-1.75,3.58-.73,3.67,.3,6.92-.17,8.36-.47,1.43-6.79,4.44-6.33,4.2Z"/><path class="k" d="M100.03,177.02c.12,1.43,.1,2.66,.02,3.98-.08,1.3-.26,2.59-.52,3.87-.52,2.56-1.48,5.1-3.06,7.31-1.4,1.9-2.63,4.04-4.1,6.06-1.47,2.02-3.03,4.03-5.2,5.67-.55,.4-1.15,.77-1.83,1.05-.77,.31-1.21,.37-1.74,.58-1.02,.38-2.02,.97-3.09,1.59-1.08,.62-2.23,1.21-3.43,1.64-1.22,.43-2.38,.77-3.7,.98-2.58,.33-4.98-.12-7.23,.47-1.3,.32-2.7,.1-3.84-.36-1.15-.43-2.23-.88-3.46-.82-.04,0-.07-.03-.07-.07,0-.03,.02-.06,.05-.07,.6-.17,1.24-.19,1.87-.13,.63,.07,1.23,.24,1.82,.36,1.17,.27,2.28,.38,3.35,.01,2.48-.78,5.05-.43,7.28-.86,1.07-.2,2.23-.67,3.27-1.13,1.06-.48,2.04-1.08,3.02-1.76,.98-.67,2.03-1.43,3.25-2,.58-.29,1.34-.52,1.68-.69,.44-.2,.87-.49,1.29-.82,1.69-1.36,3.1-3.29,4.4-5.25,1.32-1.97,2.45-4.1,3.83-6.2,2.21-3.7,2.7-8.62,2.17-12.93v-.1c-.15-1.1,.63-2.09,1.73-2.23,1.1-.13,2.09,.65,2.23,1.74,0,.02,0,.05,0,.08Z"/><path class="k" d="M143.54,186.6c1.21,2.23,1.92,4.6,2.63,6.69,.72,2.1,1.55,3.9,2.99,5.36,.71,.73,1.53,1.39,2.44,1.96,.91,.58,1.86,1.07,2.93,1.58,2.08,1.01,4.12,2.13,6.15,3.06,1.02,.45,2.04,.83,3.09,1.08,1.07,.27,2.11,.34,3.33,.46,2.36,.27,4.61,.87,6.83,1.37,2.2,.51,4.44,.72,6.69,.53,1.12-.08,2.24-.25,3.36-.5,1.12-.21,2.25-.57,3.44-.5,.04,0,.07,.04,.07,.08,0,.04-.03,.06-.07,.07-1.13,.1-2.19,.56-3.3,.89-1.1,.35-2.24,.63-3.41,.81-2.32,.31-4.73,.26-7.03-.2-2.28-.42-4.51-.92-6.74-1.08-1.07-.08-2.34-.06-3.52-.29-1.2-.2-2.37-.55-3.48-.97-2.22-.85-4.28-1.82-6.39-2.69-2.11-.83-4.47-1.83-6.4-3.52-1.98-1.66-3.38-4.03-4.27-6.22-.93-2.2-1.7-4.21-2.82-5.97-.59-.93-.32-2.17,.61-2.76,.93-.6,2.17-.32,2.76,.61,.03,.04,.05,.08,.07,.12l.02,.03Z"/><path class="k" d="M21.72,206.45c2.54,2.39,5.15,4.7,7.95,6.67,1.4,.94,2.88,1.89,4.35,2.28,1.7,.4,3.44,.96,5.08,1.59,1.65,.62,3.26,1.29,4.84,1.84,.8,.28,1.55,.51,2.35,.68,.82,.18,1.65,.34,2.48,.47,3.31,.49,6.71,.69,9.87,.08,.78-.16,1.56-.35,2.27-.63,.37-.13,.7-.29,1.05-.44,.48-.22,.99-.42,1.47-.55,1.93-.52,3.7-.62,5.42-.79,1.72-.13,3.39-.3,4.97-.67,.79-.18,1.56-.39,2.29-.7l.55-.23,.65-.3c.43-.18,.87-.35,1.29-.5,1.7-.6,3.4-.99,5.06-1.48,.83-.24,1.65-.49,2.42-.78,.78-.27,1.42-.67,2.11-1.18,1.35-1.01,2.62-2.21,3.9-3.39,1.28-1.17,2.54-2.41,4.02-3.36-2.58,2.35-4.47,5.29-7.15,7.69-.33,.3-.69,.59-1.07,.87-.4,.27-.81,.52-1.22,.72-.82,.41-1.65,.73-2.47,1.05-1.64,.62-3.29,1.21-4.84,1.85-.39,.16-.76,.33-1.12,.51l-1.15,.62c-.84,.44-1.72,.79-2.61,1.06-1.78,.52-3.59,.8-5.32,1.04-1.73,.22-3.46,.37-4.89,.8-.36,.1-.66,.24-.97,.38-.45,.2-.89,.43-1.35,.58-.91,.34-1.84,.56-2.76,.74-3.7,.64-7.37,.42-10.9-.27-.89-.17-1.76-.37-2.63-.6-.89-.22-1.8-.54-2.63-.88-1.68-.68-3.22-1.47-4.79-2.18-1.57-.71-3.11-1.36-4.75-1.92-1.85-.69-3.27-1.8-4.63-2.94-2.69-2.33-5.02-4.95-7.14-7.72Z"/><path class="k" d="M222.82,209.89c-.78,2.12-2.22,4.03-4.09,5.45-1.87,1.42-4.22,2.26-6.59,2.41-1.19,.09-2.38,.03-3.55-.14-1.05-.13-2.09-.22-3.12-.13-2.06,.14-4.02,.86-6.01,1.76-1.99,.91-4.04,1.91-6.18,2.74-.53,.21-1.07,.42-1.61,.6-.51,.18-1.14,.4-1.8,.53-1.31,.27-2.67,.18-3.86-.03-2.4-.45-4.36-1.13-6.43-1.32-1.03-.1-2.06-.12-3.1-.05-.52,.03-1.04,.08-1.56,.16-.26,.03-.52,.07-.78,.11l-.39,.06-.47,.06c-2.5,.36-5.02-.12-7.23-.93-2.22-.8-4.21-1.97-6.12-2.71-.44-.17-1.04-.32-1.59-.48-.55-.16-1.11-.36-1.66-.55-1.1-.41-2.19-.94-3.18-1.66-1.01-.71-1.8-1.64-2.54-2.4-.73-.76-1.53-1.36-2.47-1.84-.44-.23-1.05-.53-1.53-.84-.5-.33-.98-.68-1.43-1.06-.9-.76-1.68-1.63-2.4-2.52-.71-.9-1.37-1.83-1.99-2.76-.62-.94-1.23-1.91-1.75-2.93-.53-1.02-.93-2.13-1.16-3.25-.23-1.12-.39-2.2-.68-3.27-.58-2.13-1.42-4.21-2.37-6.23,1.11,1.94,2.16,3.93,2.88,6.08,.37,1.07,.61,2.19,.9,3.24,.29,1.05,.72,2.03,1.29,2.97,.55,.94,1.2,1.82,1.86,2.71,.66,.89,1.33,1.77,2.04,2.6,1.43,1.66,3.01,3.04,5.02,3.87,1.08,.49,2.11,1.22,2.96,2.04,.84,.82,1.54,1.58,2.39,2.13,.84,.57,1.79,1,2.79,1.35,.51,.16,1.01,.33,1.54,.46l1.65,.4c2.35,.63,4.3,1.63,6.35,2.19,2.02,.56,4.04,.87,5.97,.48l.79-.14c.29-.06,.58-.11,.87-.15,.59-.09,1.18-.15,1.77-.19,1.19-.09,2.4-.07,3.6,.04,1.2,.11,2.38,.34,3.5,.61,1.13,.27,2.19,.61,3.18,.81,.99,.21,1.9,.28,2.8,.13,.44-.07,.88-.2,1.42-.38,.52-.17,1.04-.33,1.55-.51,2.06-.7,4.07-1.58,6.18-2.43,1.06-.42,2.15-.83,3.31-1.13,1.16-.3,2.36-.48,3.57-.51,1.21-.04,2.4,.12,3.56,.32,1.04,.21,2.08,.33,3.13,.32,4.2,.02,8.21-2.38,10.76-6.08Z"/><path class="k" d="M62.45,233.24c-.5-1.35-.38-2.93,.32-4.32,.69-1.4,2.01-2.51,3.48-3.04,1.51-.56,3.18-.49,4.57,.01,1.39,.52,2.61,1.35,3.43,2.53,.02,.03,.01,.07-.01,.09-.02,.01-.04,.01-.06,0-2.66-.72-5.09-1.08-7.06-.3-1.01,.4-1.9,.99-2.67,1.81-.77,.83-1.38,1.92-1.92,3.21h0s-.04,.04-.06,.03c-.01,0-.02-.02-.03-.03Z"/><path class="k" d="M208.07,230.4c.62,1.66,.7,3.58,.16,5.4-.54,1.82-1.84,3.43-3.38,4.57-1.52,1.18-3.29,1.97-5.12,2.51-.92,.26-1.85,.45-2.8,.59-.97,.13-1.85,.23-2.96,.21h-.02c-1.11-.02-1.99-.94-1.97-2.06,.02-1.11,.94-1.99,2.05-1.97,.14,0,.29,.02,.42,.05,.63,.15,1.5,.24,2.28,.28,.8,.04,1.6,0,2.4-.07,1.59-.17,3.17-.56,4.59-1.3,1.44-.69,2.58-1.84,3.31-3.28,.74-1.44,1.09-3.16,1.03-4.92Z"/><path class="k" d="M225.48,171.62c1.88,1.16,3.17,3.19,3.8,5.37,.64,2.21,.56,4.59-.01,6.77-.17,.54-.26,1.11-.49,1.61-.22,.51-.43,1.03-.66,1.54-.21,.52-.54,.97-.8,1.45-.28,.47-.56,.95-.87,1.4-.67,.86-1.35,1.72-2.08,2.51-.8,.74-1.58,1.48-2.44,2.14-.03,.02-.06,.02-.08-.01-.01-.02-.01-.05,0-.07,.45-1,.97-1.91,1.49-2.82,.49-.92,.92-1.87,1.42-2.76,.38-.95,.87-1.84,1.2-2.78,.32-.94,.71-1.86,.91-2.82,.49-1.89,.74-3.82,.51-5.76-.23-1.93-.82-3.87-1.94-5.7h0s0-.05,.01-.07c.01,0,.03,0,.05,0Z"/><path class="k" d="M61.52,150.26c3.07,.26,4.88-.7,5.86-.7s5.02,.98,6.42,.98,5.44-.56,7.67,0,6.23,.56,7.72,3.07c1.49,2.51,2.88,4.47,3.72,5.44s2.65,3.49,2.65,5.16-.14,3.21,.7,4.88c.84,1.67,1.26,4.19,2.93,5.58,0,0,.84,1.4,.84,4.33s-1.09,5.16-1.66,6.98-2.11,6.42-5.74,8.51-7.95,5.86-10.74,6.84-5.16,4.74-14.51,5.02-17.72,.14-21.35-2.51c-3.63-2.65-6.98-3.07-9.77-8.37-2.79-5.3-4.6-10.6-3.77-15.35,.84-4.74,1.25-9.15,1.12-11.86-.14-2.85,2.66-9.8,8.51-11.16,9.17-2.13,11.27-7.53,19.4-6.84Z"/><path class="k" d="M155.28,148.3s4.11-.75,7.4-.28c4.13,.59,7.26-1.12,9.35-.84s14.09,.84,16.05,1.91c1.95,1.07,5.02,.93,6.42,2.75,1.4,1.81,2.56,2.23,3.68,2.93s3.07,1.48,4.33,3.16,3.63,3.66,4.47,4.19c2.65,1.68,1.76,17.75,1.2,20.42s-.14,6.73-2.32,9.3c-3.07,3.63-3.42,6.2-6.98,8.51-4.66,3.02-5.58,4-11.15,4.49-6.28,.56-8.79,2-16.48,.16-4.04-.96-5.82-.33-10.84-2.37-3.66-1.49-6.17-1.89-9.44-3.4-3.54-1.63-7.9-4.81-9.57-8.3-1.67-3.49-2.3-2.69-4.76-9.33-1.33-3.6-.11-8.8,1.88-12.65,2.88-5.58,3.8-9.07,4.5-10.74s3.77-5.44,6-6.84c2.23-1.4,3.77-2.51,6.28-3.07Z"/><path class="k" d="M119.96,290.18l.4-7.25c.12-2.42,.28-4.84,.38-7.26,.15-4.84,.24-9.68,.18-14.53,0-.05,.04-.1,.09-.1,.05,0,.09,.04,.1,.08,1.33,9.63,2.01,19.32,2.86,29.02,.1,1.1-.72,2.08-1.82,2.17s-2.08-.72-2.17-1.82c0-.09-.01-.18,0-.27v-.05Z"/><path class="k" d="M118.77,248.76c.46,1.67,.65,3.41,.49,5.2-.11,.89-.26,1.83-.84,2.75-.28,.45-.72,.92-1.31,1.19-.58,.28-1.31,.26-1.76,.18-1.72-.26-3.43-.65-5.11-1.19-1.67-.56-3.27-1.31-4.79-2.21-3.02-1.82-5.59-4.4-7.38-7.4-1.76-3.01-2.88-6.38-3.04-9.8,0-.03,.02-.05,.05-.05,.02,0,.04,.02,.05,.04,.79,3.29,2.2,6.38,4.11,9.05,1.89,2.69,4.37,4.9,7.18,6.5,2.81,1.63,5.98,2.6,9.21,3.14,.38,.07,.52,.06,.73,0,.19-.06,.39-.2,.58-.44,.37-.49,.67-1.23,.88-1.99,.43-1.55,.64-3.23,.87-4.93,0-.02,.02-.03,.04-.03,.01,0,.03,.01,.03,.03Z"/><path class="k" d="M121.79,246.25c.37,1.76,.75,3.5,1.21,5.18,.25,.84,.49,1.67,.82,2.44,.33,.76,.7,1.51,1.18,1.96,.23,.22,.46,.33,.65,.35,.11,.01,.17,.02,.35-.02l.64-.12c.85-.13,1.69-.35,2.53-.55,1.66-.46,3.26-1.07,4.78-1.83,3.04-1.54,5.69-3.78,7.66-6.61,1.97-2.81,3.35-6.11,3.99-9.61,0-.03,.03-.05,.05-.04,.02,0,.04,.02,.04,.05,.07,3.6-.97,7.24-2.83,10.42-1.85,3.2-4.72,5.84-8.02,7.54-1.64,.87-3.4,1.51-5.18,1.98-.9,.21-1.79,.42-2.7,.56l-.68,.11c-.26,.04-.65,.06-.98-.01-.7-.13-1.25-.55-1.62-.97-.74-.87-1.1-1.78-1.37-2.69-.26-.91-.44-1.82-.54-2.73-.22-1.81-.23-3.63-.04-5.42,0-.02,.02-.03,.04-.03,.02,0,.03,.01,.03,.03Z"/><path class="k" d="M99.01,281.64l.16-10.32s.03-.06,.06-.06c.03,0,.05,.02,.06,.05l2.21,10.16c.15,.68-.28,1.35-.96,1.5s-1.35-.28-1.5-.96c-.02-.09-.03-.19-.03-.28v-.09Z"/><path class="k" d="M94.67,281.89v-13.59s.04-.06,.07-.06c.03,0,.05,.02,.06,.05l2.36,13.4c.12,.68-.34,1.33-1.02,1.45s-1.33-.34-1.45-1.02c-.01-.07-.02-.14-.02-.21v-.02Z"/><path class="k" d="M107.7,281.66v-13.59s.04-.06,.07-.06c.03,0,.05,.02,.06,.05l2.36,13.4c.12,.68-.34,1.33-1.02,1.45-.68,.12-1.33-.34-1.45-1.02-.01-.07-.02-.14-.02-.21v-.02Z"/><path class="k" d="M111.9,280.97l.62-16.76s.03-.06,.06-.06c.03,0,.05,.02,.06,.05l1.76,16.69c.07,.69-.43,1.31-1.12,1.38s-1.31-.43-1.38-1.12c0-.06,0-.11,0-.17v-.02Z"/><path class="k" d="M116.04,281.98l1.19-10.98s.03-.06,.07-.05c.03,0,.05,.03,.05,.05l1.19,10.98c.07,.69-.42,1.31-1.11,1.39s-1.31-.42-1.39-1.11c0-.09,0-.18,0-.27Z"/><path class="k" d="M86.4,282.05c.1-1.83,.16-3.71,.19-5.57,.03-1.86,.02-3.73-.02-5.6,0-.03,.03-.06,.06-.06,.03,0,.05,.02,.06,.05,.43,1.82,.84,3.66,1.21,5.5,.37,1.85,.71,3.69,1.01,5.57,.11,.69-.36,1.33-1.05,1.44-.69,.11-1.33-.36-1.44-1.05-.01-.09-.02-.17-.01-.26v-.02Z"/><path class="k" d="M44.38,241.22c1.84,.52,3.42,1.19,5.03,1.97,1.59,.78,3.1,1.67,4.54,2.68,1.44,1,2.79,2.1,4.03,3.32,1.27,1.19,2.35,2.54,3.39,3.9,.02,.03,.02,.08-.01,.1-.03,.02-.07,.02-.1,0-1.21-1.2-2.45-2.36-3.83-3.34-1.35-1.01-2.79-1.87-4.28-2.62-1.49-.76-3.03-1.4-4.6-1.91-1.55-.51-3.22-.93-4.71-1.13h-.06c-.82-.12-1.4-.88-1.29-1.7s.87-1.4,1.69-1.29c.07,0,.14,.03,.21,.04Z"/><path class="k" d="M51.28,240.13c1.38,.46,2.46,1.02,3.6,1.64,1.11,.64,2.19,1.31,3.2,2.07,2.03,1.5,3.88,3.22,5.53,5.1,.78,.97,1.61,1.9,2.29,2.94,.35,.51,.72,1.01,1.05,1.53l.95,1.59,.47,.79,.41,.83,.82,1.65c.51,1.11,.94,2.26,1.42,3.39,.02,.04,0,.08-.04,.09-.03,.01-.07,0-.09-.03h0c-.58-1.08-1.12-2.17-1.73-3.22l-.97-1.54-.48-.77-.54-.73-1.07-1.46c-.37-.47-.78-.92-1.16-1.38-.75-.94-1.64-1.75-2.47-2.6-1.74-1.63-3.64-3.07-5.66-4.28-1-.62-2.05-1.14-3.11-1.61-1.04-.45-2.2-.88-3.17-1.1l-.07-.02c-.81-.18-1.32-.99-1.13-1.8s.99-1.32,1.8-1.13c.05,.01,.1,.03,.15,.04Z"/><path class="k" d="M59.98,240.55c1.26,.78,2.33,1.62,3.41,2.53,1.3,1.12,2.52,2.31,3.64,3.58,1.11,1.28,2.17,2.59,3.08,4,.95,1.38,1.76,2.85,2.53,4.32,.02,.03,0,.08-.03,.1-.03,.02-.07,0-.09-.02-.97-1.34-1.97-2.65-3.08-3.86-1.08-1.23-2.29-2.34-3.51-3.41-1.24-1.05-2.55-2-3.9-2.86-1.33-.84-2.81-1.64-4.14-2.13l-.06-.02c-.78-.29-1.17-1.16-.88-1.94,.29-.78,2.74-.45,3.03-.27Z"/><path class="k" d="M65.31,239.91c.86,.64,1.61,1.29,2.37,2,.93,.86,1.79,1.78,2.6,2.74,.81,.95,1.56,1.96,2.22,3,.69,1.03,1.25,2.14,1.78,3.24,.02,.04,0,.08-.03,.09-.03,.01-.07,0-.09-.02-.73-.98-1.48-1.93-2.33-2.78-.83-.87-1.72-1.67-2.65-2.41-.93-.74-1.9-1.43-2.9-2.05-.98-.61-2.06-1.21-3.03-1.62h-.03c-.56-.25-.9-.79-.91-1.37,0-.21,2.8-.97,3-.82Z"/><path class="k" d="M76.25,285.03c.19-1.87,.23-3.88,.2-5.83-.04-1.97-.16-3.94-.38-5.9-.22-1.96-.49-3.93-.88-5.87-.41-1.93-.87-3.88-1.65-5.71h0s0-.07,.03-.08c.03-.01,.06,0,.07,.03,.99,1.76,1.67,3.66,2.3,5.57,.6,1.92,1.12,3.87,1.53,5.85,.41,1.98,.72,3.98,.94,5.99,.22,2.03,.36,4.02,.34,6.13,0,.69-.57,1.25-1.26,1.24s-1.25-.57-1.24-1.26c0-.04,0-.08,0-.11v-.04Z"/><path class="k" d="M71.34,284.24c0-2.22-.08-4.49-.24-6.73-.16-2.24-.4-4.48-.82-6.67-.44-2.18-1.12-4.33-1.97-6.42-.85-2.09-1.84-4.14-2.99-6.09-.02-.03,0-.06,.02-.08,.03-.02,.06,0,.08,.02,1.33,1.86,2.49,3.82,3.53,5.86,1.04,2.04,1.93,4.17,2.58,6.41,.64,2.23,1.08,4.49,1.45,6.76,.36,2.27,.65,4.54,.85,6.85,.06,.69-.45,1.3-1.14,1.36-.69,.06-1.3-.45-1.36-1.14,0-.04,0-.07,0-.11v-.02Z"/><path class="k" d="M103.25,289.96c.04-5.36,.02-10.75-.14-16.12-.2-5.33-.82-10.69-1.77-15.98,0-.04,.02-.09,.06-.1,.04,0,.08,.02,.1,.06,1.48,5.19,2.64,10.48,3.39,15.87,.72,5.37,1.32,10.73,1.85,16.12,.09,.96-.61,1.82-1.57,1.92-.96,.1-1.82-.61-1.92-1.57,0-.06,0-.12,0-.18h0Z"/><path class="k" d="M90.82,288.05c.02-2.29-.04-4.61-.07-6.92-.05-2.31-.12-4.62-.27-6.93-.3-4.61-.75-9.22-1.23-13.85,0-.03,.02-.06,.05-.07,.03,0,.06,.02,.06,.04,1.19,4.51,1.97,9.1,2.59,13.72,.63,4.63,1.12,9.26,1.36,13.94,.04,.69-.5,1.28-1.19,1.31-.69,.04-1.28-.5-1.31-1.19,0-.02,0-.05,0-.07h0Z"/><path class="k" d="M82.28,287.31c.04-2.64-.09-5.35-.26-8.02-.18-2.68-.48-5.35-.93-8-.44-2.64-1.1-5.25-1.87-7.83-.78-2.58-1.66-5.14-2.7-7.65-.01-.03,0-.06,.03-.08,.03-.01,.06,0,.08,.02,1.4,2.34,2.55,4.83,3.55,7.37,1,2.55,1.81,5.17,2.45,7.85,.63,2.67,1.11,5.38,1.46,8.1,.37,2.73,.59,5.44,.69,8.23,.03,.69-.51,1.27-1.2,1.3-.69,.03-1.27-.51-1.3-1.2,0-.02,0-.04,0-.06v-.03Z"/><path class="k" d="M142,281.25l1.91-11s.04-.05,.07-.05c.03,0,.05,.03,.05,.06l.47,11.11v.05c.03,.69-.51,1.28-1.2,1.31-.69,.03-1.28-.51-1.31-1.2,0-.09,0-.18,.02-.27Z"/><path class="k" d="M146.16,280.82l2.38-12.8s.04-.05,.07-.05c.03,0,.05,.03,.05,.06v13.01c0,.69-.57,1.26-1.26,1.26-.69,0-1.26-.56-1.26-1.25,0-.08,0-.16,.02-.23Z"/><path class="k" d="M133.53,281.47l1.78-13.41s.03-.06,.06-.05c.03,0,.05,.03,.05,.06l.6,13.58c.03,.69-.51,1.28-1.2,1.31-.69,.03-1.28-.51-1.31-1.2,0-.07,0-.14,0-.21v-.07Z"/><path class="k" d="M129.32,280.95l.93-16.74s.03-.06,.06-.06c.03,0,.05,.03,.06,.05l1.45,16.7h0c.06,.7-.45,1.31-1.14,1.37-.69,.06-1.3-.45-1.36-1.14,0-.06,0-.12,0-.18Z"/><path class="k" d="M125.1,282.09l.77-11.14s.03-.06,.06-.06c.03,0,.05,.02,.05,.05l1.61,11.06c.1,.69-.38,1.33-1.06,1.43-.69,.1-1.33-.38-1.43-1.06-.01-.09-.02-.18-.01-.26v-.02Z"/><path class="k" d="M154.73,280.86c.3-1.78,.65-3.51,1.02-5.24,.37-1.73,.77-3.46,1.19-5.17,0-.03,.04-.05,.07-.04,.03,0,.05,.03,.05,.06-.03,1.76-.03,3.53,0,5.28,.03,1.75,.08,3.52,.17,5.25h0c.04,.7-.49,1.3-1.19,1.34-.69,.04-1.29-.49-1.33-1.19,0-.09,0-.19,.02-.28Z"/><path class="k" d="M164.97,285.11c.12-2.09,.31-4.11,.53-6.16,.23-2.04,.49-4.07,.81-6.09,.32-2.02,.71-4.04,1.15-6.03,.44-2,.93-3.98,1.52-5.94,0-.03,.04-.05,.07-.04,.03,0,.05,.04,.04,.07-.75,4-1.12,8.05-1.38,12.1-.14,2.02-.22,4.05-.26,6.07-.04,2.02-.05,4.06,.02,6.04v.02c.02,.69-.52,1.27-1.21,1.29-.69,.02-1.27-.52-1.29-1.21,0-.04,0-.08,0-.11Z"/><path class="k" d="M170.34,284.14c.38-4.29,.86-8.55,1.62-12.79,.39-2.13,.93-4.2,1.49-6.27,.57-2.07,1.19-4.11,1.89-6.13,.01-.03,.04-.05,.08-.04,.03,0,.04,.04,.04,.07-.95,4.16-1.66,8.37-2.08,12.57-.4,4.2-.51,8.47-.53,12.69v.02c0,.69-.57,1.25-1.26,1.25s-1.25-.57-1.25-1.26c0-.03,0-.07,0-.11Z"/><path class="k" d="M137.25,288.99c.36-5.26,.9-10.46,1.6-15.65l1.96-15.51s.05-.08,.09-.07c.04,0,.07,.04,.07,.08l-.38,15.63c-.07,2.6-.08,5.19-.06,7.78,.03,2.59,.09,5.19,.21,7.76h0c.04,.98-.71,1.8-1.67,1.85-.97,.04-1.79-.71-1.83-1.67,0-.07,0-.13,0-.2Z"/><path class="k" d="M149.55,287.44c.18-2.31,.4-4.57,.7-6.85,.28-2.27,.64-4.54,.98-6.79,.68-4.51,1.41-9.01,2.39-13.47,0-.03,.04-.05,.07-.05,.03,0,.05,.03,.05,.06-.28,4.55-.68,9.08-1.06,13.62-.19,2.27-.32,4.53-.42,6.79-.08,2.26-.18,4.53-.21,6.77h0c0,.7-.58,1.26-1.27,1.25-.69,0-1.24-.58-1.23-1.27,0-.03,0-.05,0-.08Z"/><path class="k" d="M159.15,286.29c.36-5.16,.86-10.3,1.55-15.43,.36-2.57,.8-5.13,1.4-7.65,.59-2.52,1.3-5.02,2.22-7.43,.01-.03,.05-.05,.08-.03,.03,.01,.04,.04,.04,.07-.55,2.52-.98,5.05-1.35,7.58-.35,2.54-.66,5.08-.83,7.63-.17,2.56-.28,5.12-.37,7.69l-.23,7.7h0c-.02,.7-.6,1.25-1.29,1.23-.69-.02-1.23-.6-1.21-1.29v-.05Z"/><path class="k" d="M113.58,257.25l-.95,3.85s-.03,.04-.06,.04c-.02,0-.03-.02-.04-.04l-.95-3.85c-.14-.55,.2-1.11,.75-1.25s1.11,.2,1.25,.75c.04,.17,.04,.34,0,.49Z"/><path class="k" d="M131.32,256.96l-.95,3.85s-.03,.04-.06,.04c-.02,0-.03-.02-.04-.04l-.95-3.85c-.14-.55,.2-1.11,.75-1.25s1.11,.2,1.25,.75c.04,.17,.04,.34,0,.49Z"/><path class="k" d="M136.28,254.58l-.95,3.85s-.03,.04-.06,.04c-.02,0-.03-.02-.04-.04l-.95-3.85c-.14-.55,.2-1.11,.75-1.25,.55-.14,1.11,.2,1.25,.75,.04,.17,.04,.34,0,.49Z"/><path class="k" d="M108.74,255.44l-.95,3.85s-.03,.04-.06,.04c-.02,0-.03-.02-.04-.04l-.95-3.85c-.14-.55,.2-1.11,.75-1.25s1.11,.2,1.25,.75c.04,.17,.04,.34,0,.49Z"/><path class="k" d="M104.21,252.37l-.95,3.85s-.03,.04-.06,.04c-.02,0-.03-.02-.04-.04l-.95-3.85c-.14-.55,.2-1.11,.75-1.25s1.11,.2,1.25,.75c.04,.17,.04,.34,0,.49Z"/><path class="k" d="M102.04,250.91l-.78,3.16s-.03,.04-.06,.04c-.02,0-.03-.02-.04-.04l-.95-3.85c-.08-.32,0-.65,.19-.89,.14-.17,1.64,1.58,1.64,1.58Z"/><path class="k" d="M139.02,251.38l.78,3.16s.03,.04,.06,.04c.02,0,.03-.02,.04-.04l1.24-4.98-2.11,1.82Z"/><path class="k" d="M141.05,248.87l.78,3.16s.03,.04,.06,.04c.02,0,.03-.02,.04-.04l1.24-4.98-2.11,1.82Z"/><path class="k" d="M100.23,248.43l-.78,3.16s-.03,.04-.06,.04c-.02,0-.03-.02-.04-.04l-.95-3.85c-.08-.32,0-.65,.19-.89,.14-.17,1.64,1.58,1.64,1.58Z"/><path class="k" d="M111.07,256.56l-.95,6.3s-.03,.04-.05,.04c-.02,0-.04-.02-.04-.04l-.95-6.3c-.08-.55,.3-1.07,.85-1.15,.55-.08,1.07,.3,1.15,.85,.02,.1,.01,.21,0,.3Z"/><path class="k" d="M106.39,254.02l-.95,6.3s-.03,.04-.05,.04c-.02,0-.04-.02-.04-.04l-.95-6.3c-.08-.55,.3-1.07,.85-1.15,.55-.08,1.07,.3,1.15,.85,.02,.1,.01,.21,0,.3Z"/><path class="k" d="M115.96,257.53l-.95,6.3s-.03,.04-.05,.04c-.02,0-.04-.02-.04-.04l-.95-6.3c-.08-.55,.3-1.07,.85-1.15,.55-.08,1.07,.3,1.15,.85,.02,.1,.01,.21,0,.3Z"/><path class="k" d="M128.75,257.53l-.95,6.3s-.03,.04-.05,.04c-.02,0-.04-.02-.04-.04l-.95-6.3c-.08-.55,.3-1.07,.85-1.15,.55-.08,1.07,.3,1.15,.85,.02,.1,.01,.21,0,.3Z"/><path class="k" d="M133.89,255.87l-.95,6.3s-.03,.04-.05,.04c-.02,0-.04-.02-.04-.04l-.95-6.3c-.08-.55,.3-1.07,.85-1.15,.55-.08,1.07,.3,1.15,.85,.02,.1,.01,.21,0,.3Z"/><path class="k" d="M138.68,252.81l-.95,6.3s-.03,.04-.05,.04c-.02,0-.04-.02-.04-.04l-.95-6.3c-.08-.55,.3-1.07,.85-1.15,.55-.08,1.07,.3,1.15,.85,.02,.1,.01,.21,0,.3Z"/><path class="k" d="M34.52,245.07c.66-.51,1.16-.81,1.75-1.15,.57-.33,1.14-.62,1.72-.9,1.16-.55,2.34-1.01,3.54-1.41,1.2-.4,2.41-.73,3.64-.98,.61-.12,1.23-.25,1.84-.33l.94-.14c.35-.05,.69-.09,1.02-.1,1.33-.08,2.53,0,3.72,.03,1.19,.04,2.36,.07,3.53,.06,2.34-.01,4.67-.18,7-.49,1.17-.15,2.54-.28,3.82-.15,1.3,.12,2.6,.44,3.79,.99,2.4,1.08,4.26,2.9,5.82,4.77,3.16,3.82,5.14,8.45,5.84,13.22,0,.04-.02,.08-.06,.08-.03,0-.07-.02-.08-.05-.88-2.23-1.76-4.43-2.88-6.51-1.08-2.09-2.38-4.05-3.98-5.72-1.6-1.7-3.38-3.19-5.43-3.95-1.02-.39-2.09-.58-3.17-.61-1.11-.04-2.13,.14-3.32,.34-2.4,.42-4.84,.7-7.29,.81-2.42,.14-4.94,.02-7.09,.2-.27,.02-.52,.06-.76,.11-.26,.05-.55,.13-.83,.19-.56,.13-1.11,.29-1.66,.44-1.09,.33-2.17,.69-3.22,1.12-1.05,.42-2.07,.9-3.04,1.44-.48,.27-.96,.55-1.41,.86-.43,.28-.93,.65-1.2,.89l-.04,.03c-.82,.74-2.09,.67-2.83-.16s-.67-2.09,.16-2.83c.04-.03,.08-.07,.12-.1Z"/><path class="k" d="M190.29,242.03c-.55,.19-1.25,.54-1.87,.87-.63,.35-1.26,.73-1.87,1.15-1.22,.83-2.38,1.77-3.46,2.82-1.06,1.06-2.1,2.17-2.99,3.4-.93,1.21-1.73,2.51-2.5,3.85-.02,.03-.06,.05-.1,.03-.03-.02-.04-.06-.03-.09,.55-1.44,1.15-2.88,1.91-4.25,.72-1.39,1.6-2.7,2.54-3.98,.96-1.26,2.03-2.45,3.2-3.56,1.2-1.11,2.39-2.1,3.98-2.99,.73-.41,1.64-.15,2.05,.57,.41,.73,.15,1.64-.57,2.05-.08,.04-.15,.08-.23,.11l-.05,.02Z"/><path class="k" d="M184.41,241.72c-1.31,.94-2.67,2.25-3.87,3.56-1.22,1.33-2.35,2.76-3.39,4.26-1.01,1.52-2,3.07-2.81,4.73-.86,1.63-1.58,3.34-2.25,5.07-.01,.04-.05,.06-.09,.04-.03-.01-.05-.05-.05-.08,.45-1.81,.95-3.61,1.61-5.37,.61-1.78,1.41-3.49,2.25-5.19,.87-1.68,1.85-3.32,2.95-4.89,1.13-1.58,2.27-3.04,3.8-4.49,.61-.57,1.56-.54,2.13,.06s.54,1.56-.06,2.13c-.05,.04-.09,.08-.14,.12l-.07,.05Z"/><path class="k" d="M178.16,242.62c-1.41,1.3-2.81,2.92-4.04,4.56-1.24,1.66-2.39,3.41-3.39,5.25-1,1.83-1.91,3.74-2.63,5.71-.77,1.96-1.32,4.01-1.81,6.08,0,.04-.04,.06-.08,.06-.04,0-.06-.04-.06-.08,.26-2.11,.58-4.24,1.14-6.31,.51-2.09,1.22-4.13,2.03-6.14,.81-2.01,1.8-3.95,2.9-5.83,.98-1.65,2-3.2,3.26-4.74,.19-.23,3.13-.33,3.19-.02,.09,.45-.01,.93-.34,1.3-.04,.04-.08,.08-.12,.12l-.05,.05Z"/><path class="k" d="M172.8,242.9c-.71,.59-1.47,1.34-2.16,2.08-.7,.75-1.37,1.54-2,2.37-1.27,1.65-2.36,3.45-3.25,5.38-.02,.04-.06,.05-.09,.04-.03-.01-.05-.05-.04-.08,.44-2.09,1.12-4.16,2.03-6.14,.45-.99,.95-1.97,1.5-2.92,.44-.76,.89-1.48,1.42-2.23,.14-.2,3-.41,3.08-.12,.14,.45,.06,.96-.24,1.36-.07,.09-.15,.17-.23,.24h-.02Z"/><path class="k" d="M203.29,245.67c-.42-.21-1.06-.46-1.62-.65-.58-.2-1.18-.39-1.78-.55-1.23-.34-2.36-.53-3.81-.82-2.72-.56-5.3-1.41-7.74-1.96-.61-.13-1.16-.22-1.69-.23-.56,0-1.16,.04-1.79,.12-1.25,.16-2.58,.41-3.92,.6-2.69,.4-5.41,.62-8.12,.69-.71,.02-1.28,.03-1.88,.09-.6,.07-1.18,.18-1.75,.35-1.13,.34-2.18,.93-3.11,1.71-1.84,1.59-3.18,3.89-4.25,6.24-1.04,2.38-1.79,4.92-2.45,7.48-.67,2.56-1.23,5.16-1.82,7.76,0,.04-.05,.06-.08,.06-.03,0-.06-.04-.06-.07,.08-2.68,.42-5.34,.92-7.98,.5-2.64,1.17-5.25,2.14-7.81,1.02-2.51,2.21-5.05,4.3-7.12,1.05-1.01,2.32-1.83,3.71-2.35,.69-.26,1.41-.45,2.13-.57,.71-.12,1.48-.18,2.1-.22,2.62-.18,5.2-.51,7.76-1.01,1.29-.24,2.56-.54,3.95-.79,.69-.12,1.42-.22,2.19-.24,.8-.03,1.59,.06,2.28,.16,2.79,.44,5.32,1.15,7.85,1.55,1.18,.18,2.69,.35,4.04,.66,.69,.15,1.38,.32,2.07,.53,.71,.21,1.33,.41,2.12,.74,1.02,.43,1.5,1.6,1.07,2.62-.43,1.02-1.6,1.5-2.62,1.07-.03-.01-.07-.03-.1-.04l-.05-.02Z"/><path class="k" d="M142.45,236.5c-.44-2.64,.63-4.2-.98-7.41-.77-1.53-2.2-3.9-2.29-5.3-.09-1.4-1.4-3.55-1.71-4.3-.31-.75-1.67-1.49-1.93-2.5-.26-1.01-1.4-2.32-1.53-4.03-.13-1.71-1.89-4.82-2.24-5.87-.35-1.05-.92-2.72-3.77-5.22-2.85-2.5-4.1-6.2-5.32-7.4-1.13-1.11-2.58-1.12-2.45-2.47,.13-1.35-.35-.87-1.14-.91-.79-.04-.83,.75-1.45,1.23-.61,.48-1.1,1.4-1.4,2.02s-.83,.7-1.36,1.1c-.53,.39-2.58,1.14-2.71,2.23-.2,1.76-1.21,2.82-1.26,4.73-.05,1.9-1.56,2.38-2.3,4.04-.75,1.67-2.14,6.69-2.32,8.23-.18,1.53-1.38,4.39-3.49,6.21-2.09,1.8-3.01,5.03-3.75,6.96-.75,1.93,0,1.97-.48,5-.48,3.03-.04,5.09,.26,6.97,.31,1.89,1.84,3.38,2.28,4.73s1.4,2.24,2.1,2.72c.7,.48,1.18,.35,2.41,1.89,1.23,1.53,1.31,1.16,2.37,1.58,1.2,.47,1.73,1.58,2.91,2.05,1,.4,2.12,.39,3.54,.15,.22-1.21,1.31-1.87,1.7-4.74,.31-2.31,.9-5.57,2.25-8.18,1.35-2.61,.24-12.38,.24-16.94,0-3.28,.75-6.26,.58-12.03-.05-1.81,.39-2.08,.65,.11,.16,1.3,.63,4.36,.5,7.47-.14,3.13,1.8,13.06,1.99,14.94,.28,2.78-.19,4.95,.7,7.28,.88,2.33,1.51,2.36,1.88,4.58,.34,2.04-.36,3.62,.57,5.53,.41,.84,.64,1.46,.78,1.91,.86,.27,1.63,.64,2.62,.03,1.44-.89,3.14-.63,3.9-1.61,.95-1.23,3.69-2.94,4.48-3.48,1.51-1.03,2.05-1.88,2.86-4.11,.87-2.41,2.79-4.33,2.32-7.18Z"/><path class="k" d="M115.92,305.19c.12-.26,.25-.65,.36-.98l.33-1.06c.21-.72,.41-1.44,.6-2.17,0-.03,.03-.04,.06-.03,.02,0,.03,.02,.04,.04,.13,.74,.25,1.49,.35,2.24l.14,1.14c.04,.39,.09,.74,.09,1.21v.06c0,.57-.45,1.04-1.03,1.04-.57,0-1.04-.46-1.04-1.03,0-.16,.04-.31,.1-.45Z"/><path class="k" d="M99.1,303.64c.12-.26,.25-.65,.36-.98l.33-1.06c.21-.72,.41-1.44,.6-2.17,0-.03,.03-.04,.06-.03,.02,0,.03,.02,.04,.04,.13,.74,.25,1.49,.35,2.24l.14,1.14c.04,.39,.09,.74,.09,1.21v.06c0,.57-.45,1.04-1.03,1.04-.57,0-1.04-.46-1.04-1.03,0-.16,.04-.31,.1-.45Z"/><path class="k" d="M113.44,305.8l1.24-3.54s.04-.04,.06-.03c.02,0,.03,.02,.03,.04l.67,3.67v.02c.11,.56-.27,1.1-.83,1.21-.56,.1-1.1-.27-1.21-.83-.03-.18-.01-.36,.04-.53Z"/><path class="k" d="M135.13,305.8l1.24-3.54s.04-.04,.06-.03c.02,0,.03,.02,.03,.04l.67,3.67v.02c.11,.56-.27,1.1-.83,1.21s-1.1-.27-1.21-.83c-.03-.18-.01-.36,.04-.53Z"/><path class="k" d="M123.33,306.02l1.24-3.54s.04-.04,.06-.03c.02,0,.03,.02,.03,.04l.67,3.67v.02c.11,.56-.27,1.1-.83,1.21-.56,.1-1.1-.27-1.2-.83-.03-.18-.01-.36,.04-.53Z"/><path class="k" d="M148.71,304.07c.3-1.35,.58-2.73,.7-4.14,0-.03,.02-.05,.05-.04,.02,0,.04,.01,.04,.03,.51,1.34,.87,2.73,1.2,4.15,.13,.55-.21,1.1-.77,1.23-.55,.13-1.1-.21-1.23-.77-.04-.15-.04-.31,0-.45h0Z"/><path class="k" d="M154.1,302.02c.5-1.29,.98-2.62,1.31-3.99,0-.03,.03-.04,.06-.04,.02,0,.03,.02,.04,.04,.3,1.4,.45,2.83,.57,4.28,.05,.57-.38,1.06-.94,1.11s-1.06-.38-1.11-.94c-.01-.16,.01-.31,.06-.45h0Z"/><path class="k" d="M169.01,298.91c.5-1.29,.98-2.62,1.31-3.99,0-.03,.03-.04,.06-.04,.02,0,.03,.02,.04,.04,.3,1.4,.45,2.83,.57,4.28,.05,.57-.38,1.06-.94,1.11-.57,.05-1.06-.38-1.11-.94-.01-.16,.01-.31,.06-.45h0Z"/><path class="k" d="M162.52,300.91c.3-.52,.59-1.12,.86-1.71,.26-.59,.5-1.19,.72-1.81,.42-1.23,.73-2.51,.75-3.84,0-.03,.02-.05,.05-.05,.02,0,.04,.02,.05,.04,.3,1.32,.3,2.7,.18,4.07-.07,.68-.16,1.36-.29,2.04-.13,.68-.27,1.34-.47,2.05-.16,.53-.71,.84-1.25,.69-.53-.16-.84-.71-.69-1.25,.02-.08,.06-.16,.1-.22Z"/><path class="k" d="M92.46,303.11l1.2-3.08s.04-.04,.06-.03c.02,0,.03,.02,.03,.04l.7,3.2v.02c.13,.57-.23,1.12-.79,1.25-.57,.12-1.12-.23-1.25-.8-.05-.21-.03-.42,.05-.61Z"/><path class="k" d="M81.07,302.14c-.09-.38-.1-.65-.12-.97-.02-.3-.03-.6-.03-.9,0-.6,.01-1.18,.05-1.76,0-.03,.02-.05,.05-.05,.02,0,.03,.01,.04,.03,.27,.51,.56,1.01,.87,1.49,.15,.24,.31,.47,.47,.7,.16,.21,.34,.47,.48,.6,.44,.39,.48,1.07,.09,1.52-.39,.44-1.07,.48-1.52,.09-.18-.16-.29-.36-.34-.57l-.04-.17Z"/><path class="k" d="M73.82,300.16c-.25-.71-.35-1.29-.46-1.93-.1-.63-.16-1.25-.19-1.87-.05-1.24,0-2.46,.16-3.66,0-.03,.03-.04,.05-.04,.02,0,.04,.02,.04,.04,.16,1.19,.42,2.36,.78,3.48,.18,.56,.39,1.1,.62,1.63,.23,.51,.51,1.06,.78,1.44,.32,.45,.22,1.09-.24,1.41s-1.09,.22-1.41-.24c-.06-.08-.1-.16-.13-.25h0Z"/><path class="k" d="M107.34,304.7c.17-1.24,.39-2.43,.64-3.64,.25-1.2,.54-2.38,.88-3.54,0-.03,.03-.04,.06-.03,.02,0,.03,.03,.03,.05-.03,1.21,0,2.41,.07,3.61,.07,1.19,.17,2.4,.32,3.55h0c.07,.56-.32,1.07-.87,1.14-.55,.07-1.06-.32-1.13-.87-.01-.09-.01-.18,0-.27Z"/><path class="k" d="M127.74,305.03c.14-.42,.26-.95,.38-1.44,.11-.5,.22-1.01,.32-1.52,.2-1.02,.37-2.05,.53-3.08,0-.03,.03-.04,.05-.04,.02,0,.04,.02,.04,.04,.16,1.03,.3,2.07,.42,3.12,.06,.52,.11,1.05,.16,1.58,.04,.54,.08,1.04,.08,1.65h0c0,.57-.46,1.02-1.02,1.02s-1.01-.46-1-1.02c0-.11,.02-.21,.05-.31Z"/><path class="k" d="M143.12,303.89c0-1.95-.06-3.96-.16-5.94-.1-1.99-.24-3.98-.42-5.97,0-.03,.02-.05,.04-.05,.02,0,.04,.01,.05,.04,.49,1.94,.94,3.89,1.36,5.85,.41,1.97,.8,3.92,1.12,5.94,.09,.55-.29,1.06-.84,1.15s-1.06-.29-1.15-.84c0-.05-.01-.1-.01-.15v-.02Z"/><path class="k" d="M86.88,302.72c-.22-.69-.26-1.18-.31-1.75-.04-.55-.05-1.09-.03-1.63,.04-1.07,.17-2.12,.36-3.14,0-.03,.03-.04,.06-.04,.02,0,.04,.02,.04,.04,.12,1.03,.31,2.05,.58,3.02,.14,.49,.29,.96,.48,1.41,.18,.43,.41,.93,.61,1.19,.35,.44,.28,1.08-.16,1.44-.44,.35-1.08,.28-1.44-.16-.08-.1-.14-.21-.17-.32l-.02-.06Z"/><path class="k" d="M111.71,286.65c-.12,.26-.25,.65-.36,.98l-.33,1.06c-.21,.72-.41,1.44-.6,2.17,0,.03-.03,.04-.06,.03-.02,0-.03-.02-.04-.04-.13-.74-.25-1.49-.35-2.24l-.14-1.14c-.04-.39-.09-.74-.09-1.21v-.06c0-.57,.45-1.04,1.03-1.04s1.04,.46,1.04,1.03c0,.16-.04,.31-.1,.45Z"/><path class="k" d="M119.13,288.15c-.12,.26-.25,.65-.36,.98l-.33,1.06c-.21,.72-.41,1.44-.6,2.17,0,.03-.03,.04-.06,.03-.02,0-.03-.02-.04-.04-.13-.74-.25-1.49-.35-2.24l-.14-1.14c-.04-.39-.09-.74-.09-1.21v-.06c0-.57,.45-1.04,1.03-1.04,.57,0,1.04,.46,1.04,1.03,0,.16-.04,.31-.1,.45Z"/><path class="k" d="M148.93,286.24c-.05,.33-.12,.59-.19,.87l-.22,.81c-.15,.54-.32,1.07-.49,1.59,0,.03-.04,.04-.06,.03-.02,0-.03-.02-.03-.03-.15-.53-.3-1.06-.47-1.58l-.26-.77c-.09-.24-.18-.52-.28-.71-.26-.53-.05-1.17,.47-1.43s1.17-.05,1.43,.47c.1,.2,.13,.43,.1,.64l-.02,.11Z"/><path class="k" d="M153.5,285.8c.1,.51,.15,.95,.21,1.41,.05,.46,.1,.92,.13,1.38,.07,.91,.11,1.82,.13,2.73,0,.03-.02,.05-.05,.05-.02,0-.04-.01-.05-.03-.33-.84-.68-1.67-1.06-2.49-.19-.41-.38-.81-.58-1.21-.2-.39-.41-.8-.62-1.13-.3-.48-.15-1.11,.33-1.4,.48-.3,1.11-.15,1.4,.33,.07,.11,.11,.22,.13,.33v.03Z"/><path class="k" d="M163.55,287.13c.02,.41,0,.75-.02,1.11-.02,.36-.06,.71-.1,1.05-.09,.69-.21,1.38-.37,2.04,0,.03-.03,.04-.06,.04-.02,0-.03-.02-.04-.04-.16-.66-.35-1.31-.58-1.93-.11-.31-.23-.62-.36-.92-.13-.29-.27-.61-.41-.84-.3-.49-.14-1.13,.36-1.43,.49-.3,1.13-.14,1.43,.36,.09,.15,.14,.32,.15,.48v.08Z"/><path class="k" d="M132.2,285.85l-.95,5.84s-.03,.04-.05,.04c-.02,0-.04-.02-.04-.04l-.95-5.84c-.09-.55,.28-1.07,.84-1.16,.55-.09,1.07,.28,1.16,.84,.02,.11,.02,.22,0,.33Z"/><path class="k" d="M101.42,287.5c-.12,.26-.25,.65-.36,.98l-.33,1.06c-.21,.72-.41,1.44-.6,2.17,0,.03-.03,.04-.06,.03-.02,0-.03-.02-.04-.04-.13-.74-.25-1.49-.35-2.24l-.14-1.14c-.04-.39-.09-.74-.09-1.21v-.06c0-.57,.45-1.04,1.03-1.04,.57,0,1.04,.46,1.04,1.03,0,.16-.04,.31-.1,.45Z"/><path class="k" d="M103.51,289.16c-.31,.98-.58,2.02-.82,3.05-.25,1.03-.46,2.08-.62,3.13,0,.03-.03,.04-.05,.04-.02,0-.04-.02-.04-.04-.16-1.06-.26-2.14-.33-3.22-.07-1.09-.11-2.16-.11-3.27,0-.56,.46-1.01,1.01-1.01,.56,0,1.01,.46,1.01,1.01,0,.1-.02,.21-.05,.3Z"/><path class="k" d="M90.5,288.85c-.26,.59-.51,1.24-.74,1.88-.23,.65-.44,1.3-.62,1.97,0,.03-.03,.04-.06,.03-.02,0-.03-.02-.03-.04-.13-.68-.24-1.38-.32-2.08-.08-.7-.16-1.39-.19-2.14h0c-.02-.58,.42-1.06,.98-1.09,.57-.02,1.05,.42,1.07,.98,0,.16-.03,.32-.09,.46Z"/><path class="k" d="M81.59,286.82c-.24,.31-.51,.76-.73,1.17-.23,.42-.43,.87-.61,1.32-.36,.91-.63,1.88-.8,2.88,0,.03-.03,.04-.05,.04-.02,0-.04-.02-.04-.04-.15-1.01-.2-2.05-.13-3.11,.03-.53,.1-1.05,.19-1.58,.1-.54,.2-1.03,.41-1.62v-.03c.2-.53,.78-.81,1.3-.62,.53,.19,.81,.77,.62,1.3-.04,.11-.09,.21-.16,.29Z"/><path class="k" d="M115.72,285.92l-1.67,12.18s-.03,.04-.05,.04c-.02,0-.04-.02-.04-.05l-.23-12.32c-.01-.55,.43-1.01,.99-1.02,.55-.01,1.01,.43,1.02,.99,0,.05,0,.1,0,.15v.03Z"/><path class="k" d="M128.92,286.64c-.41,1.51-.76,3.09-1.06,4.66-.31,1.57-.56,3.16-.76,4.76,0,.03-.03,.04-.05,.04-.02,0-.04-.02-.04-.04-.12-1.61-.18-3.23-.18-4.85,0-1.63,.03-3.24,.14-4.9,.04-.55,.52-.97,1.07-.94,.55,.04,.97,.52,.94,1.07,0,.07-.01,.13-.03,.19v.02Z"/><path class="k" d="M134.75,285.77c-.04,3.93-.15,7.85-.43,11.76,0,.03-.02,.05-.05,.04-.02,0-.04-.02-.04-.04-.35-3.89-.88-7.77-1.47-11.61h0c-.08-.56,.29-1.07,.84-1.15,.55-.08,1.06,.29,1.14,.84,0,.05,.01,.11,.01,.16Z"/><path class="k" d="M145.9,285.26c.2,2.14,.38,4.27,.51,6.41,.13,2.14,.25,4.28,.22,6.42,0,.03-.02,.05-.05,.05-.02,0-.04-.02-.05-.04-.29-2.11-.72-4.2-1.17-6.28-.45-2.08-.94-4.16-1.45-6.21h0c-.13-.54,.19-1.09,.73-1.22,.54-.13,1.08,.19,1.22,.73,.01,.05,.02,.1,.03,.15Z"/><path class="k" d="M156.21,285.32c.2,.85,.29,1.59,.38,2.38,.08,.78,.12,1.55,.14,2.32,.03,1.54-.04,3.07-.19,4.58,0,.03-.03,.05-.05,.04-.02,0-.04-.02-.04-.04-.16-1.51-.41-3-.75-4.45-.18-.73-.37-1.44-.6-2.14-.22-.69-.48-1.42-.76-2h0c-.24-.51-.03-1.12,.47-1.36,.5-.24,1.1-.03,1.34,.47,.03,.06,.06,.14,.07,.2Z"/><path class="k" d="M97.66,286.64c-.22,.86-.42,1.78-.61,2.68l-.54,2.73c-.35,1.82-.67,3.66-.97,5.49,0,.03-.03,.04-.05,.04-.02,0-.04-.02-.04-.05-.02-1.86-.01-3.73,.02-5.59l.07-2.81c.04-.94,.08-1.86,.16-2.84,.05-.55,.53-.96,1.08-.92s.96,.53,.92,1.08c0,.06-.01,.11-.03,.16v.02Z"/></g><g id="h"><path class="j" d="M36.96,167.42c-.18,2.04-.28,4.08-.22,6.12,.05,2.03,.2,4.07,.66,6.03,1.06,3.86,2.91,7.57,5.08,10.95,1.05,1.69,2.56,2.99,4.2,4.18,.82,.59,1.67,1.13,2.54,1.64,.88,.51,1.74,1,2.67,1.36,1.87,.73,3.86,1.2,5.85,1.62,1.99,.45,4.01,.78,6.03,1.14-4.08-.34-8.18-.75-12.15-2.04-1-.33-1.95-.82-2.84-1.33-.9-.51-1.78-1.05-2.64-1.64-.85-.59-1.68-1.23-2.46-1.95-.38-.36-.76-.74-1.1-1.15-.34-.43-.63-.86-.92-1.3-1.12-1.75-2.09-3.58-2.95-5.46-.85-1.88-1.62-3.81-2.03-5.87-.74-4.11-.44-8.27,.27-12.3Z"/><path class="j" d="M100.55,234.6c.13,1.83,.55,3.62,1.24,5.26,.18,.41,.37,.8,.6,1.17,.26,.37,.49,.75,.76,1.11,.51,.73,1.1,1.41,1.69,2.08,1.2,1.33,2.56,2.51,3.98,3.6,1.45,1.05,2.95,2.07,4.68,2.7-1.86-.17-3.6-1.01-5.17-1.99-1.56-1.02-3-2.24-4.21-3.66-1.21-1.43-2.28-2.96-2.92-4.78-.58-1.79-.79-3.66-.64-5.49Z"/><path class="j" d="M140.16,234.6c.15,1.83-.06,3.7-.64,5.49-.64,1.81-1.72,3.34-2.92,4.78-1.22,1.42-2.65,2.65-4.21,3.66-1.57,.98-3.31,1.82-5.17,1.99,1.73-.62,3.23-1.65,4.68-2.7,1.42-1.09,2.78-2.27,3.98-3.6,.59-.67,1.18-1.35,1.69-2.08,.27-.36,.5-.74,.76-1.11,.23-.37,.42-.77,.6-1.17,.68-1.65,1.1-3.44,1.24-5.26Z"/><path class="j" d="M34.65,181.67c.66,2.17,1.36,4.33,2.25,6.4,.42,1.04,.89,2.06,1.41,3.04,.52,.98,1.07,1.96,1.76,2.77,1.38,1.66,3.17,3.01,5.01,4.26,.92,.62,1.88,1.2,2.85,1.76,.48,.27,.98,.57,1.45,.8,.46,.24,.95,.43,1.46,.6,2.05,.64,4.29,.87,6.53,1.05,2.24,.16,4.54,.31,6.79,.59,2.21,.24,4.47,.16,6.7-.09,2.23-.29,4.47-.71,6.56-1.59-2,1.11-4.24,1.68-6.47,2.14-2.25,.44-4.55,.63-6.86,.5-2.27-.16-4.5-.15-6.79-.25-2.28-.11-4.6-.25-6.9-.96-.57-.18-1.14-.39-1.69-.67-.55-.27-1.03-.54-1.53-.83-.99-.58-1.97-1.19-2.92-1.85-1.89-1.32-3.71-2.81-5.15-4.72-1.38-1.96-2.22-4.12-2.93-6.29-.66-2.19-1.22-4.41-1.53-6.66Z"/><path class="j" d="M204.93,167.66c.14,1.89,.05,3.79-.08,5.69-.14,1.92-.58,3.76-.85,5.63-.31,1.88-.75,3.74-1.37,5.57-.61,1.81-1.49,3.61-2.68,5.14-1.14,1.52-2.35,3.01-3.72,4.37-1.35,1.34-2.92,2.64-4.79,3.28-3.67,1.28-7.44,1.64-11.19,2.19l5.52-1.31c1.83-.43,3.68-.88,5.37-1.6,1.7-.7,3.13-1.86,4.43-3.2,1.3-1.33,2.45-2.81,3.56-4.32,2.34-2.89,3.28-6.6,4.1-10.25,.36-1.86,.88-3.69,1.13-5.54,.29-1.86,.48-3.74,.54-5.64Z"/><path class="j" d="M206.4,176.53c-.16,2.43-.39,4.85-.62,7.28-.13,1.23-.22,2.39-.43,3.67-.33,1.3-1,2.37-1.67,3.41-.68,1.03-1.46,2-2.13,2.96-.64,1.05-1.46,2.05-2.32,2.94-1.74,1.8-3.75,3.35-6.09,4.41-.58,.26-1.19,.49-1.83,.65-.31,.09-.65,.13-.97,.2l-.9,.13-3.59,.55c-2.4,.34-4.79,.84-7.32,.9-1.26,.01-2.53-.15-3.74-.42-1.18-.26-2.36-.54-3.55-.72-1.19-.22-2.35-.32-3.59-.3-1.28-.04-2.42-.55-3.55-.99,.59,.15,1.18,.3,1.77,.41,.59,.13,1.18,.21,1.77,.17,1.19-.14,2.47-.16,3.69-.04,1.23,.11,2.44,.3,3.65,.49,1.18,.19,2.34,.29,3.51,.21,2.33-.17,4.72-.71,7.12-1.12l3.61-.59,.9-.14c.27-.06,.55-.1,.82-.18,.54-.15,1.08-.33,1.61-.56,2.11-.93,4.04-2.37,5.75-3.99,.85-.83,1.63-1.68,2.32-2.67,.76-1.01,1.53-1.91,2.23-2.89,.7-.96,1.37-1.97,1.69-3.02,.24-1.11,.43-2.37,.65-3.55l1.23-7.2Z"/></g><g id="i"><path class="k" d="M115.55,93.04l-1.77,8.66-.02-.68,.94,6.16,.09,.61-.27,.33-3.9,4.73,.11-.6c.29,1.15,.49,2.32,.66,3.5,.18,1.18,.37,2.35,.51,3.54-.48-1.1-.91-2.21-1.35-3.31-.45-1.11-.87-2.22-1.2-3.36l-.08-.29,.19-.31,3.19-5.24-.18,.94-1.98-5.91-.08-.24,.06-.43,1.15-8.76,3.94,.66Z"/><path class="k" d="M155.28,74.02l7.59,4.52-.65-.2,6.13,1.14,.6,.11,.22,.37,3.18,5.24-.3-.24c1.21,.54,2.38,1.17,3.54,1.82,1.16,.65,2.33,1.28,3.48,1.97-1.29-.36-2.55-.77-3.82-1.16-1.27-.39-2.54-.8-3.76-1.31l-.15-.06-.15-.18-3.89-4.74,.83,.48-6.23-.08h-.26l-.39-.2-7.89-3.98,1.93-3.51Z"/><path class="k" d="M96.66,80.44l-4.15,7.91-.22,.41-.26,.18-7.37,5.12,.43-.77c-.3,1.96-.63,3.91-.98,5.86l-.06,.33-.16,.15c-2.12,1.97-4.21,3.97-6.48,5.81,1.64-2.42,3.45-4.67,5.24-6.95l-.22,.48c.1-1.98,.22-3.96,.36-5.93l.03-.42,.4-.36,6.7-5.96-.48,.59,3.59-8.18,3.6,1.73Z"/><path class="k" d="M138.16,91.85l7.57,2.43-.62-.02,6.87-1.06,.39-.06,.25,.17c1.26,.86,2.48,1.78,3.72,2.68,1.24,.89,2.45,1.83,3.62,2.85-1.43-.58-2.81-1.24-4.17-1.95-1.36-.7-2.73-1.37-4.07-2.11l.63,.11-6.7,1.85-.26,.07-.36-.09-7.7-1.98,.83-2.88Z"/><path class="k" d="M132.63,88.39l5.89,3.41,.64,.37,.16,.52,2.14,7.11-.66-.66c1.37,.61,2.72,1.25,4.07,1.91l.23,.11,.08,.1c1.74,2.17,3.5,4.31,5.09,6.63-2.22-1.72-4.26-3.61-6.32-5.47l.31,.21c-1.44-.43-2.87-.87-4.3-1.33l-.41-.14-.25-.53-3.15-6.73,.8,.9-6.17-2.85,1.84-3.55Z"/><polygon class="k" points="86.75 78.33 76.77 81.18 76.27 81.32 75.9 81.22 71.2 79.93 72.01 79.86 62.8 81.97 70.98 77.25 71.24 77.1 71.79 77.18 76.61 77.92 75.74 77.96 85.53 74.52 86.75 78.33"/><polygon class="k" points="71.54 70.5 60.94 71.55 60.62 71.58 60.46 71.54 54.1 70.01 54.68 69.95 46.89 72.41 46.79 72.44 46.76 72.45 36.94 73.35 46.52 71.03 46.39 71.07 53.87 67.79 54.07 67.71 54.46 67.73 60.98 68.2 60.51 68.2 71.03 66.53 71.54 70.5"/><polygon class="k" points="193.26 76.21 186.41 73.61 186.97 73.67 179.27 76.53 178.8 76.7 178.16 76.42 167.83 71.92 169.55 68.3 179.57 73.44 178.45 73.33 186.57 72.13 186.95 72.08 187.13 72.19 193.26 76.21"/><polygon class="k" points="103.36 89.91 98.05 95.82 98.2 95.35 97.09 102.94 96.43 95.3 96.42 95.17 96.58 94.83 100.04 87.68 103.36 89.91"/><polygon class="k" points="55.25 61.3 45.33 61.85 45.53 61.81 36.39 64 44.82 59.85 45.02 59.8 54.64 57.34 55.25 61.3"/><polygon class="k" points="141.35 79.33 147.43 85.08 147.05 84.92 155.07 87.12 146.77 86.67 146.67 86.67 146.39 86.51 139.01 82.58 141.35 79.33"/><polygon class="k" points="185.15 62.26 195.36 66.58 195.07 66.54 203.97 67.11 195.14 68.31 195.08 68.32 194.84 68.28 183.97 66.09 185.15 62.26"/><polygon class="k" points="126.66 97.12 126.26 104.8 126.21 104.55 127.88 111.12 124.56 105.21 124.5 104.96 122.68 97.49 126.66 97.12"/><path class="k" d="M90.89,89.61c-1.66-.24-3.32-.46-4.98-.72l-4.97-.77,.54-.13c-3.41,1.61-6.76,3.31-10.27,4.72,3-2.31,6.17-4.34,9.28-6.46l.16-.11,.38-.02,5.03-.28c1.68-.1,3.35-.15,5.02-.23l-.2,4Z"/><path class="k" d="M62.3,71.1c-.91,.91-1.79,1.84-2.72,2.73l-2.76,2.71-.27,.26-.1,.03c-2.41,.8-4.78,1.69-7.28,2.29,2.07-1.53,4.28-2.77,6.44-4.1l-.37,.29,1.93-3.35c.63-1.12,1.31-2.21,1.96-3.32l3.16,2.45Z"/><polygon class="k" points="180.47 73.74 184.91 81.34 183.92 80.92 191.47 80.43 191.67 80.42 191.79 80.48 199.05 84.38 191.3 81.56 191.62 81.61 184.19 83.03 183.68 83.13 183.2 82.61 177.25 76.12 180.47 73.74"/><polygon class="k" points="99.42 85.94 95.87 88.83 96.87 84.36 99.42 85.94"/><polygon class="k" points="107.03 91.2 104.49 93.64 104.23 90.13 107.03 91.2"/><polygon class="k" points="121.42 97.35 119.92 102.19 118.42 97.35 121.42 97.35"/><polygon class="k" points="131.6 91.74 134.07 98.84 129.02 93.27 131.6 91.74"/><polygon class="k" points="138.09 84.42 139.47 87.43 136.22 86.76 138.09 84.42"/><polygon class="k" points="147.23 77.57 149.62 81.97 145.14 79.73 147.23 77.57"/><polygon class="k" points="163.19 71.28 168.69 76.21 161.68 73.87 163.19 71.28"/><polygon class="k" points="110.95 92.04 107.18 97.4 108.17 90.93 110.95 92.04"/><polygon class="k" points="92.7 80.19 86.14 81.38 91.51 77.44 92.7 80.19"/><polygon class="k" points="78.99 74.06 71.75 73.3 78.68 71.08 78.99 74.06"/></g></g></g></svg>