<?xml version="1.0" encoding="UTF-8"?><svg xmlns="http://www.w3.org/2000/svg" viewBox="0 0 551.88 393.3"><defs><style>.p{fill:#fff;}.q{fill:#100c08;}.r{fill:#cd9e3d;}</style></defs><g id="a"/><g id="b"><g id="c"><g id="d"><path class="q" d="M129.42,325.17h0c-.59,0-1.13,.18-1.57,.52-.68,.53-1.36,1.59-.7,3.59,.27,.82,.34,1.38,.32,1.65-.05,.88-.17,1.29-.31,1.77l-.04,.13c-.11,.2-.58,.73-1.29,1.24-.75,.54-2.09,1.48-2.7,1.88-2.1,1.39-4.75,3.78-5.73,4.87-.46,.52-1.01,1.24-1.6,2.01-.6,.78-1.28,1.67-1.64,2.03-.24,.24-.45,.49-.68,.75-.65,.75-1.38,1.6-2.98,2.54-1.68,.99-3.04,2.11-4.15,3.17,0-.3-.04-.61-.16-.91-.05-.11-.1-.22-.16-.32,.11-.51,.05-1.04-.18-1.51-.3-.62-.85-1.05-1.51-1.21-.41-.53-1.05-.85-1.74-.85-.11,0-.24,0-.38,.03-.29-.14-.62-.21-.96-.21-.83,0-1.63,.46-2.15,1.23-.02,.03-.05,.07-.07,.1-.27-.11-.56-.16-.86-.16-.03,0-.07,0-.1,0-2.16,.09-2.14,2.47-2.14,3.36,0,.17,0,.41,0,.53-.22,.87-.19,1.38-.16,1.96,0,.11,.01,.24,.02,.39,0,.1,0,.16,0,.2-.04,.07-.08,.13-.13,.2l-.07,.1c-.98,1.53-1.71,2.32-2.72,3.41-.26,.28-.53,.57-.81,.89-1.11,1.24-1.85,2.94-2.27,4.14-.13,.37-.33,.7-.58,.98-1.47,1.6-2.52,3.46-2.87,4.1-2.3,2.7-4.38,5.98-1.14,10.59,.57,.82,.9,1.72,.95,2.05-.06,.22-.13,.35-.18,.41-.51,.09-1.01,.34-1.44,.61-.97,0-1.76,.55-2.14,.88-.86,.61-1.35,1.3-1.46,2.06-1.02,1.08-1.57,2.25-1.64,3.52-.12,2.06,1.14,3.48,1.52,3.87,.36,.36,1.68,1.53,3.6,1.53,.98,0,2.36-.31,3.78-1.65,.76-.12,1.46-.61,2.06-1.46,.33-.39,.87-1.18,.88-2.15,.27-.43,.51-.93,.61-1.44,.06-.04,.19-.11,.41-.18,.33,.04,1.24,.37,2.05,.95,1.59,1.12,3.09,1.66,4.6,1.66,2.33,0,4.26-1.33,5.99-2.8,.64-.35,2.5-1.4,4.1-2.87,.28-.25,.61-.45,.98-.58,1.21-.43,2.91-1.16,4.14-2.27,.32-.29,.61-.56,.89-.82,1.09-1.01,1.88-1.73,3.41-2.72l.1-.07c.08-.05,.14-.1,.21-.13,.02,0,.05,0,.07,0h0s.08,0,.12,0c.15,0,.27,.01,.39,.02,.23,.01,.43,.02,.61,.02,.45,0,.86-.06,1.35-.18,.06,0,.13,0,.2,0h.61c2.47,0,3.04-1.16,3.08-2.14,.01-.33-.04-.66-.16-.97,.03-.02,.07-.05,.1-.07,1-.67,1.44-1.77,1.13-2.8-.03-.1-.07-.2-.12-.3,.07-.39,.03-.76-.08-1.07-.14-.43-.4-.79-.74-1.05-.02-.08-.04-.15-.07-.23-.33-.92-1.17-1.51-2.15-1.51-.14,0-.31,.01-.5,.05-.34-.21-.73-.32-1.15-.32-.03,0-.05,0-.08,0,1.06-1.11,2.18-2.47,3.17-4.15,.94-1.6,1.79-2.33,2.54-2.98,.26-.23,.51-.44,.75-.68,.35-.35,1.24-1.04,2.03-1.64,.77-.59,1.49-1.14,2.01-1.6,1.1-.98,3.48-3.63,4.87-5.73,.43-.65,1.42-2.05,1.88-2.7,.51-.72,1.04-1.18,1.24-1.29l.13-.04c.48-.14,.89-.25,1.77-.31h.08c.36,0,.93,.11,1.53,.31,.32,.11,.9,.3,1.53,.3,.86,0,1.61-.35,2.1-.98,.67-.86,.7-2.05,.09-3.25-.08-.7-.37-1.35-.84-1.87-1-1.09-2.49-1.32-3.57-1.32-.38,0-.76,.03-1.09,.08-.05-.03-.1-.07-.15-.1-.33-.22-.77-.52-1.36-.71-.31-.1-.62-.15-.93-.15-2.01,0-2.85,1.92-3.17,2.69-.44,.76-3.26,3.07-4.82,3.96-2.73,1.55-4.37,2.89-5.18,4.23-.95,1.57-1.91,2.07-2.76,2.5-1.63,.84-2.44,1.5-4.4,3.09l-.17,.14,.14-.17c1.59-1.96,2.25-2.77,3.09-4.4,.44-.85,.93-1.81,2.5-2.76,1.34-.81,2.69-2.46,4.23-5.18,.89-1.56,3.2-4.38,3.96-4.82,2.96-1.26,2.86-3.1,2.53-4.1-.19-.58-.49-1.03-.72-1.36-.03-.05-.07-.1-.1-.15,.17-1.06,.17-2.96-.86-4.26-.57-.71-1.36-1.15-2.25-1.24-.44-.22-1.03-.43-1.67-.43h0Z"/><path class="r" d="M113.19,358.68c1.59-2.05,2.04-3.74,3.48-5.5,1.94-2.38,2.53-3.05,3.34-4.63,.53-1.03,1.23-2.34,3.25-3.56,1.29-.78,2.62-2.85,3.53-4.46,.91-1.6,3.66-5.15,4.89-5.66,.73-.31,1.73-.76,1.44-1.64-.28-.85-1.13-1.39-.92-2.27,.21-.88,.23-3.54-1.65-3.38,0,0-1.01-.67-1.46-.32-.41,.32-.11,1.13,0,1.43,.19,.58,.45,1.55,.4,2.35-.08,1.22-.27,1.79-.43,2.37-.2,.7-1.17,1.65-2.04,2.27-.72,.51-2.1,1.49-2.76,1.92-1.92,1.27-4.43,3.51-5.34,4.54-.91,1.03-2.51,3.31-3.32,4.12-.81,.81-1.61,2.16-4.06,3.6-3.35,1.98-5.31,4.51-6.65,5.97-1.34,1.46-4.01,6.15-6.72,9.46-2.01,2.46-6.11,4.68-6.11,4.68,1.15-1.34,1.98-3.11,2.46-4.26,.3-.74,.78-1.37,1.33-1.94,1.86-1.92,2.36-4.84,3.73-7.17,.25-.42,1.23-.89,1.64-1.31,.41-.42,1.1-1.65,1.22-1.84,.26-.41,1.17-1.29,1.74-1.84,.4-.38,.13-.76-.32-.42-.45,.34-1.46,1.37-1.59,1.19-.16-.22,1.18-1.76,1.66-2.37,.48-.61-.14-.89-.41-.56-.27,.33-1.88,2.33-2.07,2.19-.19-.14,.89-1.9,1.26-2.44s-.05-1.02-.55-.34c-.24,.33-1.43,2.07-1.57,1.97-.14-.1,.5-1.29,.8-1.84,.38-.69-.2-.88-.59-.31-.63,.93-.91,1.89-1.65,2.63-.21,.21-.43-.43-.41-.83,.03-.39-.18-.99-.56-.98-.38,.02-.13,1.81-.27,2.32-.21,.76-.13,1-.1,1.84,.04,.88-.16,1.12-.51,1.67-1.34,2.08-2.29,2.96-3.72,4.56-.91,1.01-1.53,2.5-1.88,3.47-.22,.62-.55,1.19-.99,1.67-1.6,1.75-2.68,3.88-2.68,3.88-2.42,2.8-3.51,4.97-1.17,8.31,.79,1.13,1.47,2.77,1.28,3.56-.17,.71-.61,1.82-1.77,2.02-.56,.09-1.41,.83-1.41,.83-.43-.54-1.32,.27-1.32,.27-1.24,.84-.49,1.18-.49,1.18-3.12,2.49-1.47,4.71-.9,5.27s2.79,2.22,5.27-.9c0,0,.33,.75,1.18-.49,0,0,.81-.89,.27-1.32,0,0,.73-.85,.83-1.41,.19-1.17,1.31-1.6,2.02-1.77,.79-.19,2.43,.49,3.56,1.28,3.33,2.34,5.5,1.24,8.31-1.17,0,0,2.13-1.07,3.88-2.68,.48-.44,1.05-.78,1.67-.99,.97-.34,2.46-.97,3.47-1.88,1.6-1.43,2.48-2.38,4.56-3.72,.55-.36,.79-.55,1.67-.51,.84,.04,1.08,.11,1.84-.1,.51-.14,2.3,.1,2.32-.27,.02-.38-.58-.59-.98-.56-.39,.03-1.04-.19-.83-.41,.74-.74,1.7-1.02,2.63-1.65,.57-.38,.39-.96-.31-.59-.55,.3-1.74,.94-1.84,.8-.1-.14,1.64-1.33,1.97-1.57,.68-.5,.2-.91-.34-.55s-2.31,1.44-2.44,1.26c-.14-.19,1.87-1.8,2.19-2.07,.33-.27,.06-.88-.56-.41-.61,.48-2.15,1.82-2.37,1.66-.18-.13,.85-1.14,1.19-1.59,.34-.45-.04-.72-.42-.32-.55,.57-1.43,1.48-1.84,1.74-.19,.12-1.42,.81-1.84,1.22-.42,.41-.88,1.39-1.31,1.64-2.33,1.37-5.25,1.87-7.17,3.73-.57,.55-1.21,1.03-1.94,1.33-1.15,.47-2.92,1.31-4.26,2.46,0,0,2.22-4.1,4.68-6.11,3.31-2.7,8-5.37,9.46-6.72,1.46-1.34,3.99-3.3,5.97-6.65,1.44-2.44,2.79-3.25,3.6-4.06s3.09-2.41,4.12-3.32c1.03-.91,3.27-3.42,4.54-5.34,.44-.66,1.41-2.04,1.92-2.76,.62-.87,1.57-1.85,2.27-2.04,.58-.16,1.15-.36,2.37-.43,.8-.05,1.78,.22,2.35,.4,.3,.1,1.11,.4,1.43,0,.35-.45-.32-1.46-.32-1.46,.17-1.88-2.49-1.86-3.38-1.65-.88,.21-1.43-.65-2.27-.92-.88-.29-1.33,.71-1.64,1.44-.51,1.23-4.06,3.98-5.66,4.89-1.6,.91-3.67,2.23-4.46,3.53-1.22,2.02-2.53,2.72-3.56,3.25-1.58,.81-2.25,1.4-4.63,3.34-1.76,1.43-3.44,1.89-5.5,3.48-1.46,1.13-1.84,.74-.72-.72Z"/></g><g id="e"><g><path class="q" d="M95.71,373.79c-.82,0-1.6,.32-2.18,.9-1.2,1.2-1.2,3.16,0,4.36,.58,.58,1.36,.9,2.18,.9s1.6-.32,2.18-.9c.58-.58,.9-1.36,.9-2.18s-.32-1.6-.9-2.18c-.58-.58-1.36-.9-2.18-.9h0Z"/><circle class="p" cx="95.71" cy="376.88" r="1.58"/></g><g><path class="q" d="M100.8,369.02c-.74,0-1.43,.29-1.96,.81-1.08,1.08-1.08,2.83,0,3.91,.52,.52,1.22,.81,1.96,.81s1.43-.29,1.96-.81c.52-.52,.81-1.22,.81-1.96s-.29-1.43-.81-1.96c-.52-.52-1.22-.81-1.96-.81h0Z"/><circle class="p" cx="100.8" cy="371.79" r="1.27"/></g><g><path class="q" d="M105.48,364.59c-.67,0-1.3,.26-1.78,.74-.48,.48-.74,1.11-.74,1.78,0,.67,.26,1.3,.74,1.78,.47,.47,1.11,.74,1.78,.74s1.3-.26,1.78-.74c.98-.98,.98-2.58,0-3.56-.47-.47-1.11-.74-1.78-.74h0Z"/><circle class="p" cx="105.48" cy="367.1" r="1.01"/></g></g><g id="f"><path class="q" d="M42.07,177.01h0c-1.05,0-1.73,.69-2.45,1.42-.12,.12-.29,.29-.38,.37-.77,.46-1.11,.84-1.5,1.28-.08,.09-.16,.18-.26,.29-.07,.07-.11,.12-.14,.14-.07,.02-.15,.03-.24,.05l-.12,.03c-1.78,.38-2.85,.43-4.33,.49-.38,.02-.78,.03-1.21,.06-1.66,.09-3.38,.77-4.54,1.32-.36,.17-.73,.27-1.1,.28-2.17,.09-4.23,.66-4.93,.87-3.54,.28-7.32,1.13-8.29,6.68-.17,.98-.58,1.86-.78,2.12-.2,.11-.34,.15-.41,.16-.43-.3-.96-.48-1.45-.59-.69-.68-1.63-.85-2.14-.9-.3-.05-.57-.08-.82-.08-.76,0-1.3,.23-1.67,.5-2.42,.07-3.72,1.19-4.38,2.14-.84,1.2-.93,2.49-.93,2.99,0,2.43,1.66,5.03,5.31,5.14,.37,.27,.91,.5,1.67,.5,.26,0,.52-.02,.82-.08,.51-.04,1.45-.22,2.14-.9,.49-.11,1.02-.3,1.45-.59,.07,.01,.22,.06,.41,.16,.2,.27,.61,1.14,.78,2.12,.97,5.55,4.75,6.39,8.29,6.68,.7,.21,2.76,.78,4.93,.87,.37,.02,.75,.11,1.1,.28,1.16,.55,2.88,1.23,4.54,1.32,.43,.02,.83,.04,1.21,.06,1.48,.06,2.56,.11,4.33,.49l.12,.03c.09,.02,.17,.03,.24,.05,.03,.02,.07,.07,.14,.14,.1,.11,.18,.2,.26,.29,.39,.44,.73,.82,1.5,1.28,.09,.08,.26,.25,.38,.37,.72,.73,1.4,1.42,2.45,1.42,.53,0,1.04-.2,1.43-.56,.25-.23,.44-.5,.57-.8,.04,0,.08,.02,.12,.02,.2,.04,.4,.06,.59,.06,1.08,0,1.99-.63,2.32-1.54,.55-.39,.87-.99,.93-1.59,.02-.17,.01-.34,0-.5,.19-.31,.3-.66,.33-1.04,.05-.76-.31-1.58-1.06-2.07-.1-.42-.33-.8-.65-1.09,1.84-.04,3.54-.27,5.18-.69,.97-.25,1.82-.36,2.7-.36,.44,0,.83,.03,1.2,.06,.35,.03,.67,.05,1.01,.05,.5,0,1.61,.15,2.59,.28,.96,.13,1.86,.25,2.55,.29,.24,.01,.53,.02,.85,.02,1.77,0,4.63-.22,6.64-.63,.72-.15,2.33-.43,3.24-.58,.37-.06,.77-.1,1.13-.1,.4,0,.6,.04,.66,.06l.12,.07c.43,.24,.81,.45,1.47,1.03,.2,.18,.55,.63,.92,1.35,.28,.55,1.05,2.1,2.74,2.1,.1,0,.2,0,.31-.02,1.08-.13,1.94-.95,2.36-2.23,.53-.66,.78-1.46,.72-2.31-.12-1.72-1.51-3.13-2.42-3.78-.01-.06-.02-.12-.03-.18-.07-.39-.18-.92-.45-1.46-.51-1.02-1.47-1.6-2.64-1.6-.77,0-1.46,.25-2.05,.49-.06,.01-.31,.06-.92,.06-1.63,0-4.14-.36-5.29-.67-2.07-.57-3.72-.85-5.03-.85-.61,0-1.14,.06-1.63,.18-.59,.15-1.12,.22-1.63,.22-.86,0-1.52-.21-2.1-.4-1.75-.56-2.79-.67-5.3-.92l-.22-.02,.22-.02c2.51-.26,3.55-.36,5.3-.92,.58-.19,1.24-.4,2.09-.4,.51,0,1.04,.07,1.63,.22,.49,.12,1.02,.18,1.63,.18,1.31,0,2.96-.28,5.03-.85,1.15-.32,3.66-.67,5.29-.67,.61,0,.86,.05,.92,.06,.59,.24,1.28,.49,2.05,.49,1.16,0,2.12-.58,2.64-1.6,.28-.55,.38-1.08,.45-1.47,.01-.05,.02-.12,.03-.18,.91-.65,2.3-2.06,2.42-3.78,.06-.85-.19-1.65-.72-2.31-.42-1.28-1.28-2.1-2.36-2.23-.1-.01-.2-.02-.31-.02-1.69,0-2.47,1.55-2.72,2.06-.39,.77-.74,1.22-.94,1.4-.66,.58-1.03,.79-1.47,1.03l-.12,.07c-.06,.02-.27,.06-.66,.06-.36,0-.76-.03-1.13-.1-.91-.15-2.53-.43-3.24-.58-2.02-.41-4.87-.63-6.64-.63-.33,0-.62,0-.85,.02-.69,.04-1.59,.16-2.55,.29-.98,.13-2.09,.28-2.59,.28-.34,0-.67,.02-1.01,.05-.38,.03-.76,.06-1.2,.06-.88,0-1.74-.12-2.7-.36-1.65-.42-3.35-.65-5.18-.69,.31-.29,.54-.67,.65-1.09,.75-.49,1.11-1.31,1.06-2.07-.02-.38-.14-.73-.33-1.04,.02-.16,.02-.33,0-.5-.06-.59-.38-1.19-.93-1.59-.33-.91-1.24-1.54-2.32-1.54-.19,0-.39,.02-.59,.06-.04,0-.08,.02-.12,.02-.13-.3-.32-.57-.57-.8-.39-.36-.9-.56-1.43-.56h0Z"/><path class="r" d="M46.28,196.14c2.58-.33,4.09-1.2,6.35-1.43,3.05-.31,3.94-.37,5.63-.91,1.1-.35,2.53-.78,4.81-.22,1.47,.36,3.87-.17,5.65-.66,1.78-.49,6.23-1.05,7.46-.55,.73,.3,1.76,.69,2.18-.14,.4-.8,.18-1.78,.95-2.26,.77-.48,2.67-2.34,1.22-3.55,0,0-.24-1.19-.81-1.26-.51-.06-.87,.72-1.02,1.01-.27,.54-.78,1.42-1.38,1.95-.92,.81-1.46,1.08-1.98,1.37-.64,.36-1.99,.34-3.05,.16-.87-.15-2.54-.43-3.31-.59-2.25-.46-5.61-.65-6.98-.57-1.37,.08-4.12,.57-5.26,.57s-2.66,.38-5.41-.32c-3.77-.97-6.94-.57-8.92-.48-1.98,.08-7.18,1.51-11.44,1.94-3.16,.32-7.63-1.02-7.63-1.02,1.76-.14,3.6-.8,4.75-1.28,.73-.31,1.52-.42,2.32-.43,2.67-.04,5.09-1.75,7.7-2.43,.47-.12,1.5,.24,2.08,.24,.58,0,1.95-.39,2.17-.44,.47-.1,1.74-.08,2.53-.07,.55,0,.63-.45,.07-.52-.56-.07-2-.06-1.96-.28,.04-.27,2.08-.41,2.85-.5,.77-.1,.53-.73,.11-.68-.42,.04-2.97,.32-3.01,.09-.04-.23,1.97-.71,2.61-.84s.69-.76-.15-.63c-.4,.06-2.48,.45-2.51,.28-.03-.17,1.27-.56,1.87-.73,.76-.22,.48-.76-.2-.63-1.1,.22-1.98,.7-3.02,.7-.3,0,0-.61,.3-.87,.3-.26,.58-.83,.3-1.09-.28-.25-1.37,1.19-1.83,1.45-.68,.39-.8,.61-1.37,1.23-.6,.65-.9,.68-1.55,.82-2.42,.52-3.71,.47-5.86,.59-1.36,.07-2.85,.68-3.78,1.13-.59,.28-1.23,.45-1.88,.48-2.37,.1-4.63,.85-4.63,.85-3.69,.27-6,1.03-6.7,5.04-.24,1.36-.91,3-1.61,3.43-.62,.38-1.72,.86-2.68,.17-.47-.33-1.58-.42-1.58-.42,.08-.68-1.13-.74-1.13-.74-1.47-.28-1.18,.48-1.18,.48-3.97-.45-4.37,2.29-4.37,3.09,0,.8,.4,3.54,4.37,3.09,0,0-.29,.77,1.18,.48,0,0,1.21-.06,1.13-.74,0,0,1.12-.08,1.58-.42,.96-.69,2.06-.21,2.68,.17,.69,.43,1.37,2.07,1.61,3.43,.7,4.01,3.01,4.77,6.7,5.04,0,0,2.27,.75,4.63,.85,.65,.03,1.29,.19,1.88,.48,.93,.45,2.43,1.05,3.78,1.13,2.14,.12,3.44,.07,5.86,.59,.64,.14,.95,.17,1.55,.82,.57,.62,.69,.84,1.37,1.23,.46,.26,1.56,1.7,1.83,1.45,.28-.26,0-.83-.3-1.09-.3-.26-.6-.87-.3-.87,1.05,0,1.92,.48,3.02,.7,.68,.13,.95-.41,.2-.63-.6-.18-1.9-.56-1.87-.73,.03-.17,2.1,.22,2.51,.28,.83,.13,.79-.5,.15-.63s-2.65-.61-2.61-.84c.04-.23,2.59,.05,3.01,.09,.42,.04,.66-.59-.11-.68-.77-.1-2.8-.23-2.85-.5-.04-.22,1.4-.21,1.96-.28,.56-.07,.48-.53-.07-.52-.79,.01-2.06,.03-2.53-.07-.22-.05-1.58-.43-2.17-.44-.58,0-1.61,.36-2.08,.24-2.61-.68-5.03-2.39-7.7-2.43-.8-.01-1.58-.13-2.32-.43-1.15-.48-2.99-1.14-4.75-1.28,0,0,4.47-1.33,7.63-1.02,4.25,.43,9.46,1.86,11.44,1.94,1.98,.08,5.15,.48,8.92-.48,2.75-.71,4.27-.32,5.41-.32s3.89,.48,5.26,.57c1.37,.08,4.73-.11,6.98-.57,.77-.16,2.44-.45,3.31-.59,1.06-.18,2.41-.2,3.05,.16,.53,.3,1.07,.57,1.98,1.37,.6,.53,1.1,1.41,1.38,1.95,.14,.28,.5,1.07,1.02,1.01,.57-.07,.81-1.26,.81-1.26,1.45-1.21-.45-3.08-1.22-3.55-.77-.48-.55-1.46-.95-2.26-.42-.83-1.44-.44-2.18-.14-1.23,.5-5.69-.06-7.46-.55-1.78-.49-4.18-1.02-5.65-.66-2.29,.57-3.71,.13-4.81-.22-1.69-.54-2.58-.6-5.63-.91-2.26-.23-3.77-1.1-6.35-1.43-1.83-.23-1.82-.78,0-1.01Z"/></g><g id="g"><g><path class="q" d="M21.06,193.56c-1.7,0-3.08,1.38-3.08,3.08s1.38,3.08,3.08,3.08,3.08-1.38,3.08-3.08-1.38-3.08-3.08-3.08h0Z"/><circle class="p" cx="21.06" cy="196.65" r="1.58"/></g><g><path class="q" d="M28.25,193.88c-1.53,0-2.77,1.24-2.77,2.77s1.24,2.77,2.77,2.77,2.77-1.24,2.77-2.77-1.24-2.77-2.77-2.77h0Z"/><circle class="p" cx="28.25" cy="196.65" r="1.27"/></g><g><path class="q" d="M34.88,194.14c-1.39,0-2.51,1.13-2.51,2.51s1.13,2.51,2.51,2.51,2.51-1.13,2.51-2.51-1.13-2.51-2.51-2.51h0Z"/><circle class="p" cx="34.88" cy="196.65" r="1.01"/></g></g><g id="h"><path class="q" d="M84.42,0c-1.92,0-3.24,1.17-3.6,1.53-.39,.39-1.64,1.81-1.52,3.87,.07,1.26,.62,2.44,1.64,3.52,.11,.76,.6,1.45,1.46,2.06,.39,.32,1.18,.87,2.14,.88,.43,.27,.93,.51,1.44,.61,.04,.06,.11,.19,.18,.41-.04,.33-.38,1.24-.95,2.05-3.24,4.61-1.16,7.88,1.14,10.59,.35,.64,1.4,2.5,2.87,4.1,.25,.28,.45,.61,.58,.98,.43,1.21,1.16,2.91,2.27,4.14,.29,.32,.56,.61,.82,.89,1.01,1.09,1.73,1.88,2.72,3.41l.07,.1c.05,.08,.09,.14,.13,.2,0,.04,0,.1,0,.2,0,.15-.01,.27-.02,.39-.04,.59-.07,1.1,.16,1.96,0,.12,0,.36,0,.53,0,.89-.02,3.27,2.14,3.36,.03,0,.07,0,.1,0,.3,0,.59-.06,.86-.16,.02,.03,.05,.07,.07,.1,.51,.77,1.32,1.23,2.15,1.23,.34,0,.66-.07,.96-.21,.15,.02,.27,.03,.38,.03,.69,0,1.33-.32,1.74-.85,.65-.16,1.2-.59,1.51-1.21,.23-.47,.29-1,.18-1.51,.06-.1,.11-.21,.16-.32,.12-.29,.17-.6,.16-.91,1.11,1.06,2.47,2.18,4.15,3.17,1.6,.94,2.33,1.79,2.98,2.54,.23,.26,.44,.51,.68,.75,.35,.35,1.04,1.24,1.64,2.03,.59,.77,1.14,1.49,1.6,2.01,.98,1.1,3.63,3.48,5.73,4.87,.61,.4,1.95,1.35,2.7,1.88,.72,.51,1.18,1.04,1.29,1.24l.04,.13c.14,.48,.25,.89,.31,1.77,.02,.27-.06,.83-.31,1.6-.68,2.04,0,3.1,.68,3.63,.44,.34,.98,.52,1.57,.52,.63,0,1.23-.22,1.67-.43,.9-.09,1.69-.53,2.25-1.24,1.03-1.3,1.03-3.2,.86-4.26,.03-.05,.07-.1,.1-.15,.22-.33,.52-.77,.71-1.36,.33-.99,.43-2.84-2.53-4.1-.76-.44-3.07-3.26-3.96-4.82-1.55-2.73-2.89-4.37-4.23-5.18-1.57-.95-2.07-1.91-2.5-2.76-.84-1.63-1.5-2.44-3.09-4.4l-.14-.17,.17,.14c1.96,1.59,2.77,2.25,4.4,3.09,.85,.44,1.81,.93,2.76,2.5,.81,1.34,2.46,2.69,5.18,4.23,1.56,.89,4.38,3.2,4.82,3.96,.32,.77,1.16,2.69,3.17,2.69,.31,0,.62-.05,.93-.15,.58-.19,1.03-.49,1.36-.72,.05-.03,.1-.07,.15-.1,.34,.06,.71,.08,1.09,.08,1.08,0,2.57-.23,3.57-1.32,.47-.52,.76-1.16,.84-1.87,.61-1.2,.58-2.39-.09-3.25-.49-.63-1.24-.98-2.1-.98-.63,0-1.21,.19-1.48,.28-.64,.21-1.21,.33-1.57,.33h-.08c-.88-.06-1.29-.17-1.77-.31l-.13-.04c-.2-.11-.73-.58-1.24-1.29-.46-.65-1.45-2.05-1.88-2.7-1.39-2.1-3.78-4.75-4.87-5.73-.52-.46-1.24-1.01-2.01-1.6-.78-.6-1.67-1.28-2.03-1.64-.24-.24-.49-.45-.75-.68-.75-.65-1.6-1.38-2.54-2.98-.99-1.68-2.11-3.04-3.17-4.15,.03,0,.05,0,.08,0,.42,0,.81-.11,1.15-.32,.19,.04,.36,.05,.5,.05,.98,0,1.82-.59,2.15-1.51,.03-.08,.05-.15,.07-.23,.34-.26,.6-.63,.74-1.05,.1-.31,.14-.68,.08-1.07,.05-.1,.08-.2,.12-.3,.31-1.03-.13-2.13-1.13-2.8-.03-.02-.07-.05-.1-.07,.12-.3,.18-.63,.16-.97-.04-.97-.61-2.14-3.08-2.14h-.61c-.07,0-.14,0-.2,0-.49-.13-.9-.18-1.35-.18-.19,0-.38,.01-.61,.02-.11,0-.24,.01-.39,.02-.04,0-.08,0-.12,0h0s-.05,0-.07,0c-.07-.04-.13-.08-.21-.13l-.1-.07c-1.53-.98-2.32-1.71-3.41-2.72-.28-.26-.57-.53-.89-.81-1.24-1.11-2.94-1.85-4.14-2.27-.37-.13-.7-.33-.98-.58-1.6-1.47-3.46-2.52-4.1-2.87-1.73-1.48-3.66-2.8-5.99-2.8-1.5,0-3.01,.54-4.6,1.66-.82,.57-1.72,.9-2.05,.95-.22-.06-.35-.13-.41-.18-.09-.51-.34-1.01-.61-1.44,0-.96-.55-1.75-.88-2.15-.6-.85-1.3-1.34-2.06-1.46-1.42-1.34-2.8-1.65-3.78-1.65h0Z"/><path class="r" d="M113.19,34.62c1.59,2.05,2.04,3.74,3.48,5.5,1.94,2.38,2.53,3.05,3.34,4.63,.53,1.03,1.23,2.34,3.25,3.56,1.29,.78,2.62,2.85,3.53,4.46,.91,1.6,3.66,5.15,4.89,5.66,.73,.31,1.73,.76,1.44,1.64-.28,.85-1.13,1.39-.92,2.27,.21,.88,.23,3.54-1.65,3.38,0,0-1.01,.67-1.46,.32-.41-.32-.11-1.13,0-1.43,.19-.58,.45-1.55,.4-2.35-.08-1.22-.27-1.79-.43-2.37-.2-.7-1.17-1.65-2.04-2.27-.72-.51-2.1-1.49-2.76-1.92-1.92-1.27-4.43-3.51-5.34-4.54-.91-1.03-2.51-3.31-3.32-4.12s-1.61-2.16-4.06-3.6c-3.35-1.98-5.31-4.51-6.65-5.97-1.34-1.46-4.01-6.15-6.72-9.46-2.01-2.46-6.11-4.68-6.11-4.68,1.15,1.34,1.98,3.11,2.46,4.26,.3,.74,.78,1.37,1.33,1.94,1.86,1.92,2.36,4.84,3.73,7.17,.25,.42,1.23,.89,1.64,1.31,.41,.42,1.1,1.65,1.22,1.84,.26,.41,1.17,1.29,1.74,1.84,.4,.38,.13,.76-.32,.42-.45-.34-1.46-1.37-1.59-1.19-.16,.22,1.18,1.76,1.66,2.37,.48,.61-.14,.89-.41,.56-.27-.33-1.88-2.33-2.07-2.19-.19,.14,.89,1.9,1.26,2.44,.36,.54-.05,1.02-.55,.34-.24-.33-1.43-2.07-1.57-1.97-.14,.1,.5,1.29,.8,1.84,.38,.69-.2,.88-.59,.31-.63-.93-.91-1.89-1.65-2.63-.21-.21-.43,.43-.41,.83,.03,.39-.18,.99-.56,.98-.38-.02-.13-1.81-.27-2.32-.21-.76-.13-1-.1-1.84,.04-.88-.16-1.12-.51-1.67-1.34-2.08-2.29-2.96-3.72-4.56-.91-1.01-1.53-2.5-1.88-3.47-.22-.62-.55-1.19-.99-1.67-1.6-1.75-2.68-3.88-2.68-3.88-2.42-2.8-3.51-4.97-1.17-8.31,.79-1.13,1.47-2.77,1.28-3.56-.17-.71-.61-1.82-1.77-2.02-.56-.09-1.41-.83-1.41-.83-.43,.54-1.32-.27-1.32-.27-1.24-.84-.49-1.18-.49-1.18-3.12-2.49-1.47-4.71-.9-5.27s2.79-2.22,5.27,.9c0,0,.33-.75,1.18,.49,0,0,.81,.89,.27,1.32,0,0,.73,.85,.83,1.41,.19,1.17,1.31,1.6,2.02,1.77,.79,.19,2.43-.49,3.56-1.28,3.33-2.34,5.5-1.24,8.31,1.17,0,0,2.13,1.07,3.88,2.68,.48,.44,1.05,.78,1.67,.99,.97,.34,2.46,.97,3.47,1.88,1.6,1.43,2.48,2.38,4.56,3.72,.55,.36,.79,.55,1.67,.51,.84-.04,1.08-.11,1.84,.1,.51,.14,2.3-.1,2.32,.27,.02,.38-.58,.59-.98,.56-.39-.03-1.04,.19-.83,.41,.74,.74,1.7,1.02,2.63,1.65,.57,.38,.39,.96-.31,.59-.55-.3-1.74-.94-1.84-.8-.1,.14,1.64,1.33,1.97,1.57,.68,.5,.2,.91-.34,.55s-2.31-1.44-2.44-1.26c-.14,.19,1.87,1.8,2.19,2.07,.33,.27,.06,.88-.56,.41-.61-.48-2.15-1.82-2.37-1.66-.18,.13,.85,1.14,1.19,1.59,.34,.45-.04,.72-.42,.32-.55-.57-1.43-1.48-1.84-1.74-.19-.12-1.42-.81-1.84-1.22-.42-.41-.88-1.39-1.31-1.64-2.33-1.37-5.25-1.87-7.17-3.73-.57-.55-1.21-1.03-1.94-1.33-1.15-.47-2.92-1.31-4.26-2.46,0,0,2.22,4.1,4.68,6.11,3.31,2.7,8,5.37,9.46,6.72,1.46,1.34,3.99,3.3,5.97,6.65,1.44,2.44,2.79,3.25,3.6,4.06s3.09,2.41,4.12,3.32c1.03,.91,3.27,3.42,4.54,5.34,.44,.66,1.41,2.04,1.92,2.76,.62,.87,1.57,1.85,2.27,2.04,.58,.16,1.15,.36,2.37,.43,.8,.05,1.78-.22,2.35-.4,.3-.1,1.11-.4,1.43,0,.35,.45-.32,1.46-.32,1.46,.17,1.88-2.49,1.86-3.38,1.65-.88-.21-1.43,.65-2.27,.92-.88,.29-1.33-.71-1.64-1.44-.51-1.23-4.06-3.98-5.66-4.89-1.6-.91-3.67-2.23-4.46-3.53-1.22-2.02-2.53-2.72-3.56-3.25-1.58-.81-2.25-1.4-4.63-3.34-1.76-1.43-3.44-1.89-5.5-3.48-1.46-1.13-1.84-.74-.72,.72Z"/></g><g id="i"><g><path class="q" d="M95.71,13.34h0c-.82,0-1.6,.32-2.18,.9-1.2,1.2-1.2,3.16,0,4.36,.58,.58,1.36,.9,2.18,.9s1.6-.32,2.18-.9c.58-.58,.9-1.36,.9-2.18s-.32-1.6-.9-2.18c-.58-.58-1.36-.9-2.18-.9h0Z"/><circle class="p" cx="95.71" cy="16.42" r="1.58"/></g><g><path class="q" d="M100.8,18.74c-.74,0-1.43,.29-1.96,.81-1.08,1.08-1.08,2.83,0,3.91,.52,.52,1.22,.81,1.96,.81s1.43-.29,1.96-.81c.52-.52,.81-1.22,.81-1.96s-.29-1.43-.81-1.96c-.52-.52-1.22-.81-1.96-.81h0Z"/><circle class="p" cx="100.8" cy="21.51" r="1.27"/></g><g><path class="q" d="M105.48,23.68c-.67,0-1.3,.26-1.78,.74-.47,.47-.74,1.11-.74,1.78,0,.67,.26,1.3,.74,1.78,.48,.48,1.11,.74,1.78,.74s1.3-.26,1.78-.74c.98-.98,.98-2.58,0-3.56-.47-.47-1.11-.74-1.78-.74h0Z"/><circle class="p" cx="105.48" cy="26.2" r="1.01"/></g></g><g id="j"><path class="q" d="M467.45,0c-.98,0-2.36,.31-3.78,1.65-.76,.12-1.46,.61-2.06,1.46-.33,.39-.87,1.18-.88,2.15-.27,.43-.51,.93-.61,1.44-.06,.04-.19,.11-.41,.18-.33-.04-1.24-.37-2.05-.95-1.59-1.12-3.09-1.66-4.6-1.66-2.33,0-4.26,1.33-5.99,2.8-.64,.35-2.5,1.4-4.1,2.87-.28,.25-.61,.45-.98,.58-1.21,.43-2.91,1.16-4.14,2.27-.32,.29-.61,.56-.89,.82-1.09,1.01-1.88,1.73-3.41,2.72l-.1,.07c-.08,.05-.14,.1-.21,.13-.02,0-.05,0-.07,0h0s-.08,0-.12,0c-.15,0-.27-.01-.39-.02-.23-.01-.43-.02-.61-.02-.45,0-.86,.06-1.35,.18-.06,0-.12,0-.2,0h-.61c-2.47,0-3.04,1.16-3.08,2.14-.01,.33,.04,.66,.16,.97-.03,.02-.07,.05-.1,.07-1,.67-1.44,1.77-1.13,2.8,.03,.1,.07,.2,.12,.3-.07,.39-.03,.76,.08,1.07,.14,.43,.4,.79,.74,1.05,.02,.08,.04,.15,.07,.23,.33,.92,1.17,1.51,2.15,1.51,.14,0,.31-.01,.5-.05,.34,.21,.73,.32,1.15,.32,.03,0,.05,0,.08,0-1.06,1.11-2.18,2.47-3.17,4.15-.94,1.6-1.79,2.33-2.54,2.98-.26,.23-.51,.44-.75,.68-.35,.35-1.24,1.04-2.03,1.64-.77,.59-1.49,1.14-2.01,1.6-1.1,.98-3.48,3.63-4.87,5.73-.43,.65-1.42,2.05-1.88,2.7-.51,.72-1.04,1.18-1.24,1.29l-.13,.04c-.48,.14-.89,.25-1.77,.31h-.08c-.36,0-.93-.11-1.53-.31-.32-.11-.9-.3-1.53-.3-.86,0-1.61,.35-2.1,.98-.67,.86-.7,2.05-.09,3.25,.08,.7,.37,1.35,.84,1.87,1,1.09,2.49,1.32,3.57,1.32,.38,0,.76-.03,1.09-.08,.05,.03,.1,.07,.15,.1,.33,.22,.77,.52,1.36,.71,.31,.1,.62,.15,.93,.15,2.01,0,2.85-1.92,3.17-2.69,.44-.76,3.26-3.07,4.82-3.96,2.73-1.55,4.37-2.89,5.18-4.23,.95-1.57,1.91-2.07,2.76-2.5,1.63-.84,2.44-1.5,4.4-3.09l.17-.14-.14,.17c-1.59,1.96-2.25,2.77-3.09,4.4-.44,.85-.93,1.81-2.5,2.76-1.34,.81-2.69,2.46-4.23,5.18-.89,1.56-3.2,4.38-3.96,4.82-2.96,1.26-2.86,3.1-2.53,4.1,.19,.58,.49,1.03,.72,1.36,.03,.05,.07,.1,.1,.15-.17,1.06-.17,2.96,.86,4.26,.57,.71,1.36,1.15,2.25,1.24,.44,.22,1.03,.43,1.67,.43,.59,0,1.13-.18,1.57-.52,.68-.53,1.36-1.59,.7-3.59-.27-.82-.34-1.38-.32-1.65,.05-.88,.17-1.29,.31-1.77l.04-.13c.11-.2,.58-.73,1.29-1.24,.75-.54,2.09-1.48,2.7-1.88,2.1-1.39,4.75-3.78,5.73-4.87,.46-.52,1.01-1.24,1.6-2.01,.6-.78,1.28-1.67,1.64-2.03,.24-.24,.45-.49,.68-.75,.65-.75,1.38-1.6,2.98-2.54,1.68-.99,3.04-2.11,4.15-3.17,0,.3,.04,.61,.16,.91,.04,.11,.1,.22,.16,.32-.11,.51-.05,1.04,.18,1.51,.3,.62,.85,1.05,1.51,1.21,.41,.53,1.05,.85,1.74,.85,.11,0,.24,0,.38-.03,.29,.14,.62,.21,.96,.21,.83,0,1.63-.46,2.15-1.23,.02-.03,.05-.07,.07-.1,.27,.11,.56,.16,.86,.16,.03,0,.07,0,.1,0,2.16-.09,2.14-2.47,2.14-3.36,0-.17,0-.41,0-.53,.22-.87,.19-1.38,.16-1.96,0-.11-.01-.24-.02-.39,0-.1,0-.16,0-.2,.04-.07,.08-.13,.13-.2l.07-.1c.98-1.53,1.71-2.32,2.72-3.41,.26-.28,.53-.57,.81-.89,1.11-1.24,1.85-2.94,2.27-4.14,.13-.37,.33-.7,.58-.98,1.47-1.6,2.52-3.46,2.87-4.1,2.3-2.7,4.38-5.98,1.14-10.59-.57-.82-.9-1.72-.95-2.05,.06-.22,.13-.35,.18-.41,.51-.09,1.01-.34,1.44-.61,.97,0,1.76-.55,2.14-.88,.86-.61,1.35-1.3,1.46-2.06,1.02-1.08,1.57-2.25,1.64-3.51,.12-2.06-1.14-3.48-1.52-3.87-.36-.36-1.68-1.53-3.6-1.53h0Z"/><path class="r" d="M437.97,33.9c-2.05,1.59-3.74,2.04-5.5,3.48-2.38,1.94-3.05,2.53-4.63,3.34-1.03,.53-2.34,1.23-3.56,3.25-.78,1.29-2.85,2.62-4.46,3.53-1.6,.91-5.15,3.66-5.66,4.89-.31,.73-.76,1.73-1.64,1.44-.85-.28-1.39-1.13-2.27-.92-.88,.21-3.54,.23-3.38-1.65,0,0-.67-1.01-.32-1.46,.32-.41,1.13-.11,1.43,0,.58,.19,1.55,.45,2.35,.4,1.22-.08,1.79-.27,2.37-.43,.7-.2,1.65-1.17,2.27-2.04,.51-.72,1.49-2.1,1.92-2.76,1.27-1.92,3.51-4.43,4.54-5.34,1.03-.91,3.31-2.51,4.12-3.32s2.16-1.61,3.6-4.06c1.98-3.35,4.51-5.31,5.97-6.65,1.46-1.34,6.15-4.01,9.46-6.72,2.46-2.01,4.68-6.11,4.68-6.11-1.34,1.15-3.11,1.98-4.26,2.46-.74,.3-1.37,.78-1.94,1.33-1.92,1.86-4.84,2.36-7.17,3.73-.42,.25-.89,1.23-1.31,1.64-.42,.41-1.65,1.1-1.84,1.22-.41,.26-1.29,1.17-1.84,1.74-.38,.4-.76,.13-.42-.32,.34-.45,1.37-1.46,1.19-1.59-.22-.16-1.76,1.18-2.37,1.66-.61,.48-.89-.14-.56-.41,.33-.27,2.33-1.88,2.19-2.07-.14-.19-1.9,.89-2.44,1.26s-1.02-.05-.34-.55c.33-.24,2.07-1.43,1.97-1.57-.1-.14-1.29,.5-1.84,.8-.69,.38-.88-.2-.31-.59,.93-.63,1.89-.91,2.63-1.65,.21-.21-.43-.43-.83-.41-.39,.03-.99-.18-.98-.56,.02-.38,1.81-.13,2.32-.27,.76-.21,1-.13,1.84-.1,.88,.04,1.12-.16,1.67-.51,2.08-1.34,2.96-2.29,4.56-3.72,1.01-.91,2.5-1.53,3.47-1.88,.62-.22,1.19-.55,1.67-.99,1.75-1.6,3.88-2.68,3.88-2.68,2.8-2.42,4.97-3.51,8.31-1.17,1.13,.79,2.77,1.47,3.56,1.28,.71-.17,1.82-.61,2.02-1.77,.09-.56,.83-1.41,.83-1.41-.54-.43,.27-1.32,.27-1.32,.84-1.24,1.18-.49,1.18-.49,2.49-3.12,4.71-1.47,5.27-.9s2.22,2.79-.9,5.27c0,0,.75,.33-.49,1.18,0,0-.89,.81-1.32,.27,0,0-.85,.73-1.41,.83-1.17,.19-1.6,1.31-1.77,2.02-.19,.79,.49,2.43,1.28,3.56,2.34,3.33,1.24,5.5-1.17,8.31,0,0-1.07,2.13-2.68,3.88-.44,.48-.78,1.05-.99,1.67-.34,.97-.97,2.46-1.88,3.47-1.43,1.6-2.38,2.48-3.72,4.56-.36,.55-.55,.79-.51,1.67,.04,.84,.11,1.08-.1,1.84-.14,.51,.1,2.3-.27,2.32-.38,.02-.59-.58-.56-.98,.03-.39-.19-1.04-.41-.83-.74,.74-1.02,1.7-1.65,2.63-.38,.57-.96,.39-.59-.31,.3-.55,.94-1.74,.8-1.84-.14-.1-1.33,1.64-1.57,1.97-.5,.68-.91,.2-.55-.34s1.44-2.31,1.26-2.44c-.19-.14-1.8,1.87-2.07,2.19-.27,.33-.88,.06-.41-.56,.48-.61,1.82-2.15,1.66-2.37-.13-.18-1.14,.85-1.59,1.19-.45,.34-.72-.04-.32-.42,.57-.55,1.48-1.43,1.74-1.84,.12-.19,.81-1.42,1.22-1.84,.41-.42,1.39-.88,1.64-1.31,1.37-2.33,1.87-5.25,3.73-7.17,.55-.57,1.03-1.21,1.33-1.94,.47-1.15,1.31-2.92,2.46-4.26,0,0-4.1,2.22-6.11,4.68-2.7,3.31-5.37,8-6.72,9.46-1.34,1.46-3.3,3.99-6.65,5.97-2.44,1.44-3.25,2.79-4.06,3.6s-2.41,3.09-3.32,4.12c-.91,1.03-3.42,3.27-5.34,4.54-.66,.44-2.04,1.41-2.76,1.92-.87,.62-1.85,1.57-2.04,2.27-.16,.58-.36,1.15-.43,2.37-.05,.8,.22,1.78,.4,2.35,.1,.3,.4,1.11,0,1.43-.45,.35-1.46-.32-1.46-.32-1.88,.17-1.86-2.49-1.65-3.38,.21-.88-.65-1.43-.92-2.27-.29-.88,.71-1.33,1.44-1.64,1.23-.51,3.98-4.06,4.89-5.66,.91-1.6,2.23-3.67,3.53-4.46,2.02-1.22,2.72-2.53,3.25-3.56,.81-1.58,1.4-2.25,3.34-4.63,1.43-1.76,1.89-3.44,3.48-5.5,1.13-1.46,.74-1.84-.72-.72Z"/></g><g id="k"><g><path class="q" d="M456.16,13.34h0c-.82,0-1.6,.32-2.18,.9-.58,.58-.9,1.36-.9,2.18s.32,1.6,.9,2.18c.58,.58,1.36,.9,2.18,.9s1.6-.32,2.18-.9c1.2-1.2,1.2-3.16,0-4.36-.58-.58-1.36-.9-2.18-.9h0Z"/><circle class="p" cx="456.16" cy="16.42" r="1.58"/></g><g><path class="q" d="M451.08,18.74c-.74,0-1.43,.29-1.96,.81-.52,.52-.81,1.22-.81,1.96s.29,1.43,.81,1.96c.52,.52,1.22,.81,1.96,.81s1.43-.29,1.96-.81c1.08-1.08,1.08-2.83,0-3.91-.52-.52-1.22-.81-1.96-.81h0Z"/><circle class="p" cx="451.08" cy="21.51" r="1.27"/></g><g><path class="q" d="M446.39,23.68c-.67,0-1.3,.26-1.78,.74-.98,.98-.98,2.58,0,3.56,.47,.47,1.11,.74,1.78,.74s1.3-.26,1.78-.74c.47-.47,.74-1.11,.74-1.78s-.26-1.3-.74-1.78c-.47-.47-1.11-.74-1.78-.74h0Z"/><circle class="p" cx="446.39" cy="26.2" r="1.01"/></g></g><g id="l"><path class="q" d="M509.81,177.01c-.53,0-1.04,.2-1.43,.56-.25,.23-.44,.5-.57,.8-.04,0-.08-.02-.12-.02-.2-.04-.4-.06-.59-.06-1.08,0-1.99,.63-2.32,1.54-.55,.39-.87,.99-.93,1.59-.02,.17-.01,.34,0,.5-.19,.31-.3,.66-.33,1.04-.05,.76,.31,1.58,1.06,2.07,.1,.42,.33,.8,.65,1.09-1.84,.04-3.54,.27-5.18,.69-.97,.25-1.82,.36-2.7,.36-.44,0-.83-.03-1.2-.06-.35-.03-.67-.05-1.01-.05-.5,0-1.61-.15-2.59-.28-.96-.13-1.86-.25-2.55-.29-.24-.01-.53-.02-.85-.02-1.77,0-4.63,.22-6.64,.63-.72,.15-2.33,.43-3.24,.58-.37,.06-.77,.1-1.13,.1-.4,0-.6-.04-.66-.06l-.12-.07c-.43-.24-.81-.45-1.47-1.03-.2-.18-.55-.63-.92-1.35-.28-.55-1.05-2.1-2.74-2.1-.1,0-.2,0-.31,.02-1.08,.13-1.94,.95-2.36,2.23-.53,.66-.78,1.46-.72,2.31,.12,1.72,1.51,3.13,2.42,3.78,.01,.06,.02,.12,.03,.18,.07,.39,.18,.92,.45,1.46,.51,1.02,1.47,1.6,2.64,1.6,.77,0,1.46-.25,2.05-.49,.06-.01,.31-.06,.92-.06,1.63,0,4.14,.36,5.29,.67,2.07,.57,3.72,.85,5.03,.85,.61,0,1.14-.06,1.63-.18,.59-.15,1.12-.22,1.63-.22,.86,0,1.52,.21,2.1,.4,1.75,.56,2.78,.67,5.3,.92l.22,.02-.22,.02c-2.51,.26-3.55,.36-5.3,.92-.58,.19-1.24,.4-2.09,.4-.51,0-1.04-.07-1.63-.22-.49-.12-1.02-.18-1.63-.18-1.31,0-2.96,.28-5.03,.85-1.15,.32-3.66,.67-5.29,.67-.61,0-.86-.05-.92-.06-.59-.24-1.28-.49-2.05-.49-1.16,0-2.12,.58-2.64,1.6-.28,.55-.38,1.08-.45,1.47-.01,.05-.02,.12-.03,.18-.91,.65-2.3,2.06-2.42,3.78-.06,.85,.19,1.65,.72,2.31,.42,1.28,1.28,2.1,2.36,2.23,.1,.01,.2,.02,.31,.02,1.69,0,2.47-1.55,2.72-2.06,.39-.77,.74-1.22,.94-1.39,.66-.58,1.03-.79,1.47-1.03l.12-.07c.06-.02,.27-.06,.66-.06,.36,0,.76,.03,1.13,.1,.91,.15,2.53,.43,3.24,.58,2.02,.41,4.87,.63,6.64,.63,.33,0,.62,0,.85-.02,.69-.04,1.59-.16,2.55-.29,.98-.13,2.09-.28,2.59-.28,.34,0,.67-.02,1.01-.05,.38-.03,.76-.06,1.2-.06,.88,0,1.74,.12,2.7,.36,1.65,.42,3.35,.65,5.18,.69-.31,.29-.54,.67-.65,1.09-.75,.49-1.11,1.31-1.06,2.07,.02,.38,.14,.73,.33,1.04-.02,.16-.02,.33,0,.5,.06,.59,.38,1.19,.93,1.59,.33,.91,1.24,1.54,2.32,1.54,.19,0,.39-.02,.59-.06,.04,0,.08-.02,.12-.02,.13,.3,.32,.57,.57,.8,.39,.36,.9,.56,1.43,.56,1.05,0,1.73-.69,2.45-1.42,.12-.12,.29-.29,.38-.37,.77-.46,1.11-.84,1.5-1.28,.08-.09,.16-.18,.26-.29,.07-.07,.11-.12,.14-.14,.07-.02,.15-.03,.24-.05l.12-.03c1.77-.38,2.85-.43,4.33-.49,.38-.02,.78-.03,1.21-.06,1.66-.09,3.38-.77,4.54-1.32,.36-.17,.73-.27,1.1-.28,2.17-.09,4.23-.66,4.93-.87,3.54-.28,7.32-1.13,8.29-6.68,.17-.98,.58-1.86,.78-2.12,.2-.11,.34-.15,.41-.16,.43,.3,.96,.48,1.45,.59,.69,.68,1.63,.85,2.14,.9,.3,.05,.57,.08,.82,.08,.76,0,1.3-.23,1.67-.5,3.65-.1,5.31-2.71,5.31-5.14s-1.66-5.03-5.31-5.14c-.37-.27-.91-.5-1.67-.5-.26,0-.52,.02-.82,.08-.51,.04-1.45,.22-2.14,.9-.49,.11-1.02,.3-1.45,.59-.07-.01-.22-.06-.41-.16-.2-.27-.61-1.14-.78-2.12-.97-5.55-4.75-6.39-8.29-6.68-.7-.21-2.76-.78-4.93-.87-.37-.02-.75-.11-1.1-.28-1.16-.55-2.88-1.23-4.54-1.32-.43-.02-.83-.04-1.21-.06-1.48-.06-2.56-.11-4.33-.49l-.12-.03c-.09-.02-.17-.03-.24-.05-.03-.02-.07-.07-.14-.14-.1-.11-.18-.2-.26-.29-.39-.44-.73-.82-1.5-1.28-.09-.08-.26-.25-.38-.37-.72-.73-1.4-1.42-2.45-1.42h0Z"/><path class="r" d="M505.59,196.14c-2.58-.33-4.09-1.2-6.35-1.43-3.05-.31-3.94-.37-5.63-.91-1.1-.35-2.53-.78-4.81-.22-1.47,.36-3.87-.17-5.65-.66-1.78-.49-6.23-1.05-7.46-.55-.73,.3-1.76,.69-2.18-.14-.4-.8-.18-1.78-.95-2.26-.77-.48-2.67-2.34-1.22-3.55,0,0,.24-1.19,.81-1.26,.51-.06,.87,.72,1.02,1.01,.27,.54,.78,1.42,1.38,1.95,.92,.81,1.46,1.08,1.98,1.37,.64,.36,1.99,.34,3.05,.16,.87-.15,2.54-.43,3.31-.59,2.25-.46,5.61-.65,6.98-.57,1.37,.08,4.12,.57,5.26,.57s2.66,.38,5.41-.32c3.77-.97,6.94-.57,8.92-.48,1.98,.08,7.18,1.51,11.44,1.94,3.16,.32,7.63-1.02,7.63-1.02-1.76-.14-3.6-.8-4.75-1.28-.73-.31-1.52-.42-2.32-.43-2.67-.04-5.09-1.75-7.7-2.43-.47-.12-1.5,.24-2.08,.24-.58,0-1.95-.39-2.17-.44-.47-.1-1.74-.08-2.53-.07-.55,0-.63-.45-.07-.52,.56-.07,2-.06,1.96-.28-.04-.27-2.08-.41-2.85-.5-.77-.1-.53-.73-.11-.68,.42,.04,2.97,.32,3.01,.09,.04-.23-1.97-.71-2.61-.84s-.69-.76,.15-.63c.4,.06,2.48,.45,2.51,.28,.03-.17-1.27-.56-1.87-.73-.76-.22-.48-.76,.2-.63,1.1,.22,1.98,.7,3.02,.7,.3,0,0-.61-.3-.87-.3-.26-.58-.83-.3-1.09,.28-.25,1.37,1.19,1.83,1.45,.68,.39,.8,.61,1.37,1.23,.6,.65,.9,.68,1.55,.82,2.42,.52,3.71,.47,5.86,.59,1.36,.07,2.85,.68,3.78,1.13,.59,.28,1.23,.45,1.88,.48,2.37,.1,4.63,.85,4.63,.85,3.69,.27,6,1.03,6.7,5.04,.24,1.36,.91,3,1.61,3.43,.62,.38,1.72,.86,2.68,.17,.47-.33,1.58-.42,1.58-.42-.08-.68,1.13-.74,1.13-.74,1.47-.28,1.18,.48,1.18,.48,3.97-.45,4.37,2.29,4.37,3.09s-.4,3.54-4.37,3.09c0,0,.29,.77-1.18,.48,0,0-1.21-.06-1.13-.74,0,0-1.12-.08-1.58-.42-.96-.69-2.06-.21-2.68,.17-.69,.43-1.37,2.07-1.61,3.43-.7,4.01-3.01,4.77-6.7,5.04,0,0-2.27,.75-4.63,.85-.65,.03-1.29,.19-1.88,.48-.93,.45-2.43,1.05-3.78,1.13-2.14,.12-3.44,.07-5.86,.59-.64,.14-.95,.17-1.55,.82-.57,.62-.69,.84-1.37,1.23-.46,.26-1.56,1.7-1.83,1.45-.28-.26,0-.83,.3-1.09,.3-.26,.6-.87,.3-.87-1.05,0-1.92,.48-3.02,.7-.68,.13-.95-.41-.2-.63,.6-.18,1.9-.56,1.87-.73-.03-.17-2.1,.22-2.51,.28-.83,.13-.79-.5-.15-.63s2.65-.61,2.61-.84c-.04-.23-2.59,.05-3.01,.09-.42,.04-.66-.59,.11-.68,.77-.1,2.8-.23,2.85-.5,.04-.22-1.4-.21-1.96-.28-.56-.07-.48-.53,.07-.52,.79,.01,2.06,.03,2.53-.07,.22-.05,1.58-.43,2.17-.44,.58,0,1.61,.36,2.08,.24,2.61-.68,5.03-2.39,7.7-2.43,.8-.01,1.58-.13,2.32-.43,1.15-.48,2.99-1.14,4.75-1.28,0,0-4.47-1.33-7.63-1.02-4.25,.43-9.46,1.86-11.44,1.94-1.98,.08-5.15,.48-8.92-.48-2.75-.71-4.27-.32-5.41-.32s-3.89,.48-5.26,.57c-1.37,.08-4.73-.11-6.98-.57-.77-.16-2.44-.45-3.31-.59-1.06-.18-2.41-.2-3.05,.16-.53,.3-1.07,.57-1.98,1.37-.6,.53-1.1,1.41-1.38,1.95-.14,.28-.5,1.07-1.02,1.01-.57-.07-.81-1.26-.81-1.26-1.45-1.21,.45-3.08,1.22-3.55,.77-.48,.55-1.46,.95-2.26,.42-.83,1.44-.44,2.18-.14,1.23,.5,5.69-.06,7.46-.55,1.78-.49,4.18-1.02,5.65-.66,2.29,.57,3.71,.13,4.81-.22,1.69-.54,2.58-.6,5.63-.91,2.26-.23,3.77-1.1,6.35-1.43,1.83-.23,1.82-.78,0-1.01Z"/></g><g id="m"><g><path class="q" d="M530.82,193.56c-1.7,0-3.08,1.38-3.08,3.08s1.38,3.08,3.08,3.08,3.08-1.38,3.08-3.08-1.38-3.08-3.08-3.08h0Z"/><circle class="p" cx="530.82" cy="196.65" r="1.58"/></g><g><path class="q" d="M523.62,193.88c-1.53,0-2.77,1.24-2.77,2.77s1.24,2.77,2.77,2.77,2.77-1.24,2.77-2.77-1.24-2.77-2.77-2.77h0Z"/><circle class="p" cx="523.62" cy="196.65" r="1.27"/></g><g><path class="q" d="M517,194.14c-1.39,0-2.51,1.13-2.51,2.51s1.13,2.51,2.51,2.51,2.51-1.13,2.51-2.51-1.13-2.51-2.51-2.51h0Z"/><circle class="p" cx="517" cy="196.65" r="1.01"/></g></g><g id="n"><path class="q" d="M422.46,325.17h0c-.63,0-1.23,.22-1.67,.43-.9,.09-1.69,.53-2.25,1.24-1.03,1.3-1.03,3.2-.86,4.26-.03,.05-.07,.1-.1,.15-.22,.33-.52,.77-.71,1.36-.33,.99-.43,2.84,2.53,4.1,.76,.44,3.07,3.26,3.96,4.82,1.55,2.73,2.89,4.37,4.23,5.18,1.57,.95,2.07,1.91,2.5,2.76,.84,1.63,1.5,2.44,3.09,4.4l.14,.17-.17-.14c-1.96-1.59-2.77-2.25-4.4-3.09-.85-.44-1.81-.93-2.76-2.5-.81-1.34-2.46-2.69-5.18-4.23-1.56-.89-4.38-3.2-4.82-3.96-.32-.77-1.15-2.69-3.17-2.69-.31,0-.62,.05-.93,.15-.58,.19-1.03,.49-1.36,.72-.05,.03-.1,.07-.15,.1-.34-.06-.71-.08-1.09-.08-1.08,0-2.57,.23-3.57,1.32-.47,.52-.76,1.16-.84,1.87-.61,1.2-.58,2.39,.09,3.25,.49,.63,1.24,.98,2.1,.98,.63,0,1.21-.19,1.48-.28,.64-.21,1.21-.33,1.57-.33h.08c.88,.06,1.29,.17,1.77,.31l.13,.04c.2,.11,.73,.58,1.24,1.29,.46,.65,1.45,2.05,1.88,2.7,1.39,2.1,3.78,4.75,4.87,5.73,.52,.46,1.24,1.01,2.01,1.6,.78,.6,1.67,1.28,2.03,1.64,.24,.24,.49,.45,.75,.68,.75,.65,1.6,1.38,2.54,2.98,.99,1.68,2.11,3.04,3.17,4.15-.03,0-.05,0-.08,0-.42,0-.81,.11-1.15,.32-.19-.04-.36-.05-.5-.05-.98,0-1.83,.59-2.15,1.51-.03,.08-.05,.15-.07,.23-.34,.26-.6,.63-.74,1.05-.1,.31-.14,.68-.08,1.07-.05,.1-.08,.2-.12,.3-.31,1.03,.13,2.13,1.13,2.8,.03,.02,.07,.05,.1,.07-.12,.3-.18,.63-.16,.97,.04,.97,.61,2.14,3.08,2.14h.61c.07,0,.14,0,.2,0,.49,.13,.9,.18,1.35,.18,.19,0,.38-.01,.61-.02,.11,0,.24-.01,.39-.02,.04,0,.08,0,.12,0h0s.05,0,.07,0c.07,.04,.13,.08,.21,.13l.1,.07c1.53,.98,2.32,1.71,3.41,2.72,.28,.26,.57,.53,.89,.81,1.24,1.11,2.94,1.85,4.14,2.27,.37,.13,.7,.33,.98,.58,1.6,1.47,3.46,2.52,4.1,2.87,1.73,1.48,3.66,2.8,5.99,2.8,1.5,0,3.01-.54,4.6-1.66,.82-.57,1.72-.9,2.05-.95,.22,.06,.35,.13,.41,.18,.09,.51,.34,1.01,.61,1.44,0,.96,.55,1.75,.88,2.15,.61,.85,1.3,1.34,2.06,1.46,1.42,1.34,2.8,1.65,3.78,1.65,1.92,0,3.24-1.17,3.6-1.53,.39-.39,1.64-1.81,1.52-3.87-.07-1.26-.62-2.44-1.64-3.51-.11-.76-.6-1.45-1.46-2.06-.39-.32-1.18-.87-2.14-.88-.43-.27-.93-.51-1.44-.61-.04-.06-.11-.19-.18-.41,.04-.33,.38-1.24,.95-2.05,3.24-4.61,1.16-7.88-1.14-10.59-.35-.64-1.4-2.5-2.87-4.1-.25-.28-.45-.61-.58-.98-.43-1.21-1.16-2.91-2.27-4.14-.29-.32-.56-.61-.81-.89-1.01-1.09-1.73-1.88-2.72-3.41l-.07-.1c-.05-.08-.09-.14-.13-.2,0-.04,0-.1,0-.2,0-.15,.01-.27,.02-.39,.04-.59,.07-1.1-.16-1.96,0-.12,0-.36,0-.53,0-.89,.02-3.27-2.14-3.36-.03,0-.07,0-.1,0-.3,0-.59,.06-.86,.16-.02-.03-.05-.07-.07-.1-.51-.77-1.32-1.23-2.15-1.23-.34,0-.67,.07-.96,.21-.15-.02-.27-.03-.38-.03-.69,0-1.33,.32-1.74,.85-.65,.16-1.2,.59-1.51,1.21-.23,.47-.29,1-.18,1.51-.06,.1-.11,.21-.16,.32-.12,.29-.17,.6-.16,.91-1.11-1.06-2.47-2.18-4.15-3.17-1.6-.94-2.33-1.79-2.98-2.54-.23-.26-.44-.51-.68-.75-.35-.35-1.03-1.24-1.64-2.03-.59-.77-1.15-1.49-1.6-2.01-.98-1.1-3.63-3.48-5.73-4.87-.61-.4-1.95-1.35-2.7-1.88-.72-.51-1.18-1.04-1.29-1.24l-.04-.13c-.14-.48-.25-.89-.31-1.77-.02-.27,.06-.83,.31-1.6,.68-2.04,0-3.1-.68-3.63-.44-.34-.98-.52-1.57-.52h0Z"/><path class="r" d="M437.97,359.4c-2.05-1.59-3.74-2.04-5.5-3.48-2.38-1.94-3.05-2.53-4.63-3.34-1.03-.53-2.34-1.23-3.56-3.25-.78-1.29-2.85-2.62-4.46-3.53-1.6-.91-5.15-3.66-5.66-4.89-.31-.73-.76-1.73-1.64-1.44-.85,.28-1.39,1.13-2.27,.92-.88-.21-3.54-.23-3.38,1.65,0,0-.67,1.01-.32,1.46,.32,.41,1.13,.11,1.43,0,.58-.19,1.55-.45,2.35-.4,1.22,.08,1.79,.27,2.37,.43,.7,.2,1.65,1.17,2.27,2.04,.51,.72,1.49,2.1,1.92,2.76,1.27,1.92,3.51,4.43,4.54,5.34,1.03,.91,3.31,2.51,4.12,3.32s2.16,1.61,3.6,4.06c1.98,3.35,4.51,5.31,5.97,6.65,1.46,1.34,6.15,4.01,9.46,6.72,2.46,2.01,4.68,6.11,4.68,6.11-1.34-1.15-3.11-1.98-4.26-2.46-.74-.3-1.37-.78-1.94-1.33-1.92-1.86-4.84-2.36-7.17-3.73-.42-.25-.89-1.23-1.31-1.64-.42-.41-1.65-1.1-1.84-1.22-.41-.26-1.29-1.17-1.84-1.74-.38-.4-.76-.13-.42,.32,.34,.45,1.37,1.46,1.19,1.59-.22,.16-1.76-1.18-2.37-1.66-.61-.48-.89,.14-.56,.41,.33,.27,2.33,1.88,2.19,2.07-.14,.19-1.9-.89-2.44-1.26s-1.02,.05-.34,.55c.33,.24,2.07,1.43,1.97,1.57-.1,.14-1.29-.5-1.84-.8-.69-.38-.88,.2-.31,.59,.93,.63,1.89,.91,2.63,1.65,.21,.21-.43,.43-.83,.41-.39-.03-.99,.18-.98,.56,.02,.38,1.81,.13,2.32,.27,.76,.21,1,.13,1.84,.1,.88-.04,1.12,.16,1.67,.51,2.08,1.34,2.96,2.29,4.56,3.72,1.01,.91,2.5,1.53,3.47,1.88,.62,.22,1.19,.55,1.67,.99,1.75,1.6,3.88,2.68,3.88,2.68,2.8,2.42,4.97,3.51,8.31,1.17,1.13-.79,2.77-1.47,3.56-1.28,.71,.17,1.82,.61,2.02,1.77,.09,.56,.83,1.41,.83,1.41-.54,.43,.27,1.32,.27,1.32,.84,1.24,1.18,.49,1.18,.49,2.49,3.12,4.71,1.47,5.27,.9s2.22-2.79-.9-5.27c0,0,.75-.33-.49-1.18,0,0-.89-.81-1.32-.27,0,0-.85-.73-1.41-.83-1.17-.19-1.6-1.31-1.77-2.02-.19-.79,.49-2.43,1.28-3.56,2.34-3.33,1.24-5.5-1.17-8.31,0,0-1.07-2.13-2.68-3.88-.44-.48-.78-1.05-.99-1.67-.34-.97-.97-2.46-1.88-3.47-1.43-1.6-2.38-2.48-3.72-4.56-.36-.55-.55-.79-.51-1.67,.04-.84,.11-1.08-.1-1.84-.14-.51,.1-2.3-.27-2.32-.38-.02-.59,.58-.56,.98,.03,.39-.19,1.04-.41,.83-.74-.74-1.02-1.7-1.65-2.63-.38-.57-.96-.39-.59,.31,.3,.55,.94,1.74,.8,1.84-.14,.1-1.33-1.64-1.57-1.97-.5-.68-.91-.2-.55,.34s1.44,2.31,1.26,2.44c-.19,.14-1.8-1.87-2.07-2.19-.27-.33-.88-.06-.41,.56,.48,.61,1.82,2.15,1.66,2.37-.13,.18-1.14-.85-1.59-1.19-.45-.34-.72,.04-.32,.42,.57,.55,1.48,1.43,1.74,1.84,.12,.19,.81,1.42,1.22,1.84,.41,.42,1.39,.88,1.64,1.31,1.37,2.33,1.87,5.25,3.73,7.17,.55,.57,1.03,1.21,1.33,1.94,.47,1.15,1.31,2.92,2.46,4.26,0,0-4.1-2.22-6.11-4.68-2.7-3.31-5.37-8-6.72-9.46-1.34-1.46-3.3-3.99-6.65-5.97-2.44-1.44-3.25-2.79-4.06-3.6s-2.41-3.09-3.32-4.12c-.91-1.03-3.42-3.27-5.34-4.54-.66-.44-2.04-1.41-2.76-1.92-.87-.62-1.85-1.57-2.04-2.27-.16-.58-.36-1.15-.43-2.37-.05-.8,.22-1.78,.4-2.35,.1-.3,.4-1.11,0-1.43-.45-.35-1.46,.32-1.46,.32-1.88-.17-1.86,2.49-1.65,3.38,.21,.88-.65,1.43-.92,2.27-.29,.88,.71,1.33,1.44,1.64,1.23,.51,3.98,4.06,4.89,5.66,.91,1.6,2.23,3.67,3.53,4.46,2.02,1.22,2.72,2.53,3.25,3.56,.81,1.58,1.4,2.25,3.34,4.63,1.43,1.76,1.89,3.44,3.48,5.5,1.13,1.46,.74,1.84-.72,.72Z"/></g><g id="o"><g><path class="q" d="M456.16,373.79c-.82,0-1.6,.32-2.18,.9-.58,.58-.9,1.36-.9,2.18s.32,1.6,.9,2.18c.58,.58,1.36,.9,2.18,.9s1.6-.32,2.18-.9c1.2-1.2,1.2-3.16,0-4.36-.58-.58-1.36-.9-2.18-.9h0Z"/><circle class="p" cx="456.16" cy="376.88" r="1.58"/></g><g><path class="q" d="M451.08,369.02c-.74,0-1.43,.29-1.96,.81-.52,.52-.81,1.22-.81,1.96s.29,1.43,.81,1.96c.52,.52,1.22,.81,1.96,.81s1.43-.29,1.96-.81c1.08-1.08,1.08-2.83,0-3.91-.52-.52-1.22-.81-1.96-.81h0Z"/><circle class="p" cx="451.08" cy="371.79" r="1.27"/></g><g><path class="q" d="M446.39,364.59c-.67,0-1.3,.26-1.78,.74-.98,.98-.98,2.58,0,3.56,.47,.47,1.11,.74,1.78,.74s1.3-.26,1.78-.74c.47-.47,.74-1.11,.74-1.78s-.26-1.3-.74-1.78c-.47-.47-1.11-.74-1.78-.74h0Z"/><circle class="p" cx="446.39" cy="367.1" r="1.01"/></g></g></g></g></svg>